<?xml version="1.0" encoding="UTF-8"?>
<svg width="256px" height="256px" viewBox="0 0 256 256" version="1.1" xmlns="http://www.w3.org/2000/svg" xmlns:xlink="http://www.w3.org/1999/xlink">
    <!-- Generator: Sketch 51.3 (57544) - http://www.bohemiancoding.com/sketch -->
    <title>logo/bislett</title>
    <desc>Created with Sketch.</desc>
    <defs></defs>
    <g id="logo/bislett" stroke="none" stroke-width="1" fill="none" fill-rule="evenodd">
        <g id="bislett" transform="translate(42.000000, 0.000000)" fill="#FDFDFD" fill-rule="nonzero">
            <path d="M44.5725714,1.19412141 C45.4489524,0.13086262 46.9068571,0.343514377 48.1354286,0.368051118 C49.9619048,0.179936102 50.6089524,2.23284345 51.6982857,3.30428115 C49.8062857,5.90517572 46.595619,5.51258786 43.8026667,5.14453674 C43.9337143,3.82773163 43.2211429,2.06926518 44.5725714,1.19412141 Z" id="Shape"></path>
            <path d="M16.528381,6.01968051 C21.5737143,3.80319489 27.1268571,2.56 32.6554286,2.9198722 C34.7030476,2.99348243 36.4394286,4.20396166 38.1594286,5.1772524 C38.7491429,8.18709265 37.668,10.8943131 35.5139048,12.9962939 C37.2584762,13.8060064 39.3552381,14.3376358 40.5182857,16.0061342 C41.0260952,18.5007029 40.9933333,21.5023642 38.5853333,23.0236422 C34.0969524,26.2788498 28.3144762,27.309393 22.8841905,27.6120128 C20.9102857,20.3736741 18.3466667,13.3070927 16.528381,6.01968051 Z M24.8744762,7.34466454 C25.4150476,9.42210863 26.0293333,11.4831949 26.7664762,13.5115655 C28.019619,12.8 29.3055238,12.1456869 30.5177143,11.3605112 C30.6979048,10.2645367 30.8207619,9.16038339 30.8862857,8.04805112 C29.911619,7.36920128 28.9287619,6.70670927 27.9213333,6.07693291 C26.9139048,6.51041534 25.8982857,6.93571885 24.8744762,7.34466454 Z M27.2742857,16.0306709 C27.503619,18.2880511 28.019619,20.5045367 28.4127619,22.7292013 C29.9771429,22.6392332 31.5415238,22.5083706 33.0977143,22.3447923 C33.024,20.5208946 33.9986667,18.1408307 32.3605714,16.783131 C31.1074286,15.2945687 28.9451429,16.1615335 27.2742857,16.0306709 Z" id="Shape"></path>
            <path d="M74.3449524,2.78900958 C76.54,3.19795527 78.7350476,3.63961661 80.9464762,3.97495208 C80.995619,7.64728435 79.6933333,11.1151438 78.8906667,14.6484345 C77.8832381,18.7460703 76.9904762,22.8682428 75.7782857,26.9086262 C73.804381,26.736869 71.8140952,26.5242173 69.8975238,26.0007668 C71.3554286,18.2553355 72.5594286,10.4690096 74.3449524,2.78900958 Z" id="Shape"></path>
            <path d="M43.6961905,7.66364217 C46.1942857,7.58185304 48.7005714,7.57367412 51.1986667,7.60638978 C51.1822857,13.1107987 51.2068571,18.6070288 51.1740952,24.1114377 C49.0527619,24.1196166 46.9232381,24.1114377 44.8019048,24.078722 C44.8100952,18.582492 44.5725714,13.0944409 43.6961905,7.66364217 Z" id="Shape"></path>
            <path d="M57.5380952,8.05623003 C61.2238095,7.205623 65.188,7.56549521 68.6607619,9.08677316 C68.3085714,9.84741214 67.6041905,11.3850479 67.252,12.1456869 C65.4337143,11.7776358 63.6481905,11.3196166 61.8380952,10.9188498 C61.7807619,11.753099 61.731619,12.5873482 61.6824762,13.4215974 C63.6645714,14.6647923 65.6220952,15.9488818 67.5632381,17.2738658 C67.6205714,18.8360383 67.784381,20.4309265 67.4895238,21.9849201 C64.3607619,26.1234505 58.5045714,25.3219169 54.2864762,23.5552716 C54.3929524,22.8355272 54.5895238,21.4042173 54.6878095,20.6844728 C57.0057143,20.8398722 59.323619,21.1343131 61.6579048,21.0034505 C61.6906667,20.6353994 61.7725714,19.8992971 61.8135238,19.531246 C59.6184762,17.3229393 56.4651429,16.2351438 54.6304762,13.6424281 C53.819619,11.2950799 55.5969524,9.14402556 57.5380952,8.05623003 Z" id="Shape"></path>
            <path d="M80.7580952,19.7030032 C82.8630476,14.411246 89.9641905,12.5628115 94.6081905,15.7116933 C98.8262857,17.8136741 100.013905,23.5225559 97.5485714,27.3911821 C93.7481905,27.9309904 90.7177143,24.7412141 87.1057143,24.0460064 C85.9180952,24.6430671 86.5078095,25.9353355 87.187619,26.6796166 C88.8502857,28.8470288 91.7579048,29.2150799 94.1740952,30.0820447 C93.74,31.1861981 93.2813333,32.2821725 92.8062857,33.378147 C86.1228571,33.0591693 79.0708571,26.8023003 80.7580952,19.7030032 Z M88.3097143,18.492524 C88.2114286,19.2695208 88.1049524,20.0465176 88.0066667,20.8316933 C89.939619,21.5023642 91.8889524,22.1403195 93.8792381,22.6228754 C93.3714286,21.2242812 93.1666667,19.629393 92.1346667,18.492524 C90.8569524,18.3780192 89.5792381,18.4516294 88.3097143,18.492524 Z" id="Shape"></path>
            <path d="M101.570095,21.0770607 C103.756952,20.5454313 105.829143,19.6702875 107.991429,19.0814058 C109.776952,19.2613419 111.390476,20.1283067 113.028571,20.7989776 C112.733714,22.0503514 112.422476,23.3017252 112.070286,24.5449201 C113.560952,25.8290096 115.108952,27.2030671 115.452952,29.2559744 C113.397143,29.296869 111.44781,28.7488818 109.596762,27.9228115 C108.343619,29.8366773 106.943048,31.6932907 106.042095,33.8034505 C105.149333,35.8808946 107.016762,37.5984665 107.827619,39.3569329 C106.566286,39.913099 105.214857,40.9927157 103.773333,40.3465815 C101.963238,39.2015335 99.8910476,37.6230032 100.161333,35.2102236 C99.743619,31.9877316 100.726476,28.8879233 102.421905,26.172524 C103.765143,24.5040256 102.086095,22.7128435 101.570095,21.0770607 Z" id="Shape"></path>
            <path d="M114.478286,29.771246 C116.902667,28.9124601 119.441714,28.1681789 122.021714,28.0454952 C123.758095,28.5198722 125.322476,29.4277316 126.960571,30.147476 C126.321714,31.3988498 125.617333,32.6256869 124.896571,33.8361661 C126.051429,35.0466454 127.206286,36.2489457 128.312,37.5003195 C127.746857,37.925623 126.624762,38.77623 126.059619,39.1933546 C124.904762,38.4081789 123.758095,37.6066454 122.603238,36.8132907 C120.539238,38.7435144 118.729143,40.9354633 117.197524,43.3073482 C117.869143,45.0085623 118.491619,46.7588498 118.557143,48.6154633 C115.223619,49.6051118 111.562476,46.8324601 111.677143,43.3727796 C111.193905,39.0788498 114.347238,35.7173163 116.886286,32.6747604 C116.075429,31.7096486 115.272762,30.7445367 114.478286,29.771246 Z" id="Shape"></path>
            <path d="M14.964,36.3961661 C19.5588571,34.5231949 24.579619,33.9670288 29.5184762,33.8361661 C38.5198095,32.5847923 47.6767619,33.0509904 56.6862857,33.9915655 C78.1535238,36.2080511 99.5470476,44.0352716 115.698667,58.6346326 C124.143048,66.18377 130.916571,75.6385942 135.126476,86.1648562 C139.115238,96.2085623 140.966286,107.004728 141.269333,117.776358 C141.39219,128.997827 139.532952,140.42377 134.561333,150.573802 C129.139238,161.778914 121.636762,171.863514 113.446286,181.187476 C100.95581,195.811374 85.844381,207.981597 69.987619,218.777764 C50.240381,232.142109 29.0925714,243.240895 8.00209524,254.290607 C5.66780952,255.869137 2.80933333,255.885495 0.10647619,255.672843 C0.352190476,254.306965 0.0491428571,252.646645 1.24495238,251.665176 C11.2864762,241.711438 20.7628571,231.22607 30.2965714,220.789776 C41.812381,207.916166 52.7958095,194.510927 62.3540952,180.107859 C64.8194286,176.304665 67.7106667,172.632332 68.972,168.215719 C70.159619,162.744026 70.1678095,157.084217 69.7828571,151.530735 C69.5617143,148.938019 67.923619,146.836038 65.859619,145.380192 C57.1367619,138.886134 48.7824762,131.860447 41.3864762,123.869649 C28.3554286,109.016741 17.9862857,91.1785304 14.8739048,71.4591693 C13.8828571,64.4007668 12.6460952,57.0888179 14.1449524,50.0304153 C21.0577143,50.9464537 26.8238095,55.281278 31.115619,60.5403195 C38.7081905,69.8315655 44.2695238,80.5541214 51.6,90.0334824 C52.8859048,91.8001278 54.5649524,93.2559744 56.5552381,94.1638339 C58.1114286,88.7166773 57.9558095,82.5906709 61.4121905,77.8305431 C66.1954286,71.1647284 73.8453333,67.2633866 81.4706667,64.7361022 C81.4706667,64.1063259 81.4706667,63.4683706 81.4706667,62.8385942 C61.4777143,54.0626198 40.0432381,49.302492 18.7971429,44.6077955 C16.356381,43.9044089 13.5634286,43.3727796 11.868,41.3035144 C11.0980952,39.0052396 12.9737143,37.164984 14.964,36.3961661 Z M20.9020952,39.9458147 C22.9906667,41.1644728 25.2512381,42.1541214 27.708381,42.2359105 C47.0870476,45.515655 66.0971429,51.0936741 84.091619,59.0190415 C86.9828571,60.401278 90.0542857,61.8244089 92.1346667,64.3680511 C92.364,65.6439617 92.2820952,66.9444089 92.2739048,68.2284984 C86.5487619,68.4329712 80.5942857,68.7192332 75.4424762,71.5082428 C68.6853333,74.7961661 63.6891429,81.3147604 61.8626667,88.5449201 C60.699619,93.4031949 63.3205714,97.9915655 62.763619,102.833482 C61.420381,102.825304 60.0689524,102.898914 58.7420952,102.669904 C56.3750476,101.205879 54.4912381,99.1120767 52.5664762,97.1327796 C43.4259048,87.6779553 36.7752381,76.2520128 29.3382857,65.4967412 C26.6190476,61.4890735 22.9333333,58.1357188 18.4285714,56.2382109 C18.1664762,67.5660064 20.5826667,78.8610863 24.5222857,89.4446006 C32.1230476,109.752843 47.1689524,126.478722 64.4508571,139.213291 C68.0382857,141.945048 73.5586667,143.875272 74.0419048,149.027987 C74.3367619,154.704153 74.2958095,160.413035 73.9354286,166.089201 C73.288381,173.93278 68.3577143,180.418658 63.8611429,186.552843 C52.7712381,201.692013 40.4445714,215.882428 27.6019048,229.565751 C23.3100952,234.792077 17.7405714,239.012396 14.5790476,245.113866 C26.0948571,241.327029 35.8824762,233.974185 46.2925714,228.003578 C57.8493333,221.435911 69.3078095,214.631054 79.8571429,206.525751 C92.691619,196.588371 104.674286,185.44869 114.945143,172.869521 C126.002286,159.047157 135.503238,142.885623 136.780952,124.859297 C138.165143,108.444217 133.816,91.685623 125.412571,77.5688179 C115.93619,61.6853674 99.9238095,50.6683706 82.8057143,44.3215335 C67.3830476,38.6290096 50.7481905,36.7233227 34.3918095,37.4267093 C29.8624762,38.1300958 25.112,37.8438339 20.9020952,39.9458147 Z" id="Shape"></path>
            <path d="M133.82419,47.8548243 C135.626095,44.755016 137.09219,41.4589137 139.115238,38.4817891 C140.933524,40.3220447 142.571619,42.3340575 144.275238,44.2888179 C141.359429,49.0734824 137.526286,53.2038339 134.430286,57.8658147 C138.173333,56.2627476 141.73619,54.2670927 145.487429,52.6722045 C146.978095,52.0587859 148.61619,51.4044728 150.254286,51.8461342 C152.015238,53.3510543 153.006286,55.5021086 154.193905,57.4486901 C147.06819,59.2316933 140.040762,61.3254952 133.111619,63.7546326 C130.21219,65.1041534 128.909905,61.1782748 127.091619,59.6569968 C129.081905,55.5838978 131.629143,51.8215974 133.82419,47.8548243 Z" id="Shape"></path>
            <path d="M144.406286,64.4989137 C150.729333,62.4705431 157.339048,68.9073482 156.094095,75.2705431 C155.889333,81.355655 148.042857,83.9810863 143.28419,81.0448562 C138.664762,79.1473482 136.600762,73.5284345 138.484571,69.0300319 C139.704952,66.748115 141.973714,65.2513738 144.406286,64.4989137 Z M141.883619,74.3299681 C142.227619,74.8943131 142.907429,76.0311821 143.251429,76.5955272 C147.010857,76.7591054 152.162667,74.7061981 151.327238,70.1178275 C149.812,70.0932907 148.247619,69.8070288 146.765143,70.2077955 C144.668381,70.9111821 143.325143,72.7677955 141.883619,74.3299681 Z" id="Shape"></path>
            <path d="M80.4632381,73.3812141 C85.123619,72.8577636 90.128,72.5878594 94.4771429,74.6734824 C101.103238,77.4706709 106.312381,83.3840256 108.089714,90.360639 C109.580381,97.4435783 108.597524,105.884217 102.626667,110.726134 C91.4057143,119.543003 72.6085714,113.989521 67.4485714,100.829649 C65.5893333,96.7483706 65.6630476,92.1681789 66.0725714,87.8088179 C67.3584762,80.6195527 73.5340952,75.0987859 80.4632381,73.3812141 Z" id="Shape"></path>
            <path d="M144.357143,87.800639 C151.556571,84.48 159.001714,81.6582748 166.553333,79.2700319 C167.650857,81.3965495 168.404381,83.6784665 168.871238,86.0258147 C161.270476,87.9233227 154.112,91.7592332 146.224571,92.3808307 C145.602095,90.8513738 144.979619,89.3219169 144.357143,87.800639 Z" id="Shape"></path>
            <path d="M148.198476,96.90377 C155.643619,94.8426837 163.04781,92.5525879 170.607619,90.9086262 C171.705143,93.2396166 171.868952,95.8159744 171.83619,98.3514377 C164.284571,99.4228754 156.896762,101.451246 149.402476,102.841661 C148.706286,100.927796 148.436,98.9157827 148.198476,96.90377 Z" id="Shape"></path>
            <path d="M155.078476,105.71246 C159.337524,102.301853 166.111048,105.03361 167.724571,109.998211 C168.928571,113.891374 169.010476,119.248562 165.275619,121.833099 C163.4,123.305304 160.918286,123.215335 158.674095,122.986326 C158.502095,119.011374 157.977905,115.077316 157.363619,111.143259 C156.462667,111.952971 155.528952,112.729968 154.709905,113.629649 C154.185714,115.95246 155.160381,118.275272 155.217714,120.606262 C154.234857,122.078466 151.88419,121.816741 151.425524,120.050096 C150.303429,115.12639 150.360762,108.804089 155.078476,105.71246 Z M161.991238,117.138403 C163.170667,116.034249 164.317333,114.889201 165.423048,113.703259 C164.309143,112.533674 163.170667,111.413163 161.991238,110.317188 C160.566095,112.468243 161.237714,114.889201 161.991238,117.138403 Z" id="Shape"></path>
            <path d="M151.687619,130.527284 C157.38,128.956933 162.736571,126.462364 168.191429,124.245879 C169.198857,126.789521 168.846667,129.423131 168.191429,131.999489 C164.816952,132.661981 161.450667,133.389904 158.100762,134.166901 C161.106667,135.843578 164.358286,137.004984 167.609905,138.100958 C167.528,140.579169 167.388762,143.05738 167.241333,145.535591 C163.465524,143.687157 160.041905,141.217125 156.290667,139.327796 C151.081524,136.555144 145.774095,132.653802 144.217905,126.650479 C145.397333,126.159744 146.584952,125.66901 147.780762,125.202812 C149.033905,127.002173 150.295238,128.817891 151.687619,130.527284 Z" id="Shape"></path>
            <path d="M32.491619,184.082812 C31.8445714,181.048435 32.524381,177.964984 34.8832381,175.846645 C40.1906667,179.80524 45.563619,183.837444 49.8062857,188.965623 C48.8234286,189.448179 47.8651429,190.012524 46.8249524,190.364217 C43.0819048,187.984153 39.8139048,184.933419 36.5868571,181.915399 C35.3910476,182.945942 34.0478095,183.755655 32.491619,184.082812 Z" id="Shape"></path>
            <path d="M25.4969524,186.536486 C26.9794286,185.236038 29.068,184.966134 30.9354286,185.465048 C32.6144762,186.511949 33.4007619,188.376741 34.2689524,190.061597 C36.2838095,190.576869 38.683619,190.609585 40.1497143,192.294441 C41.8451429,194.56 41.8533333,198.003323 39.8302857,200.080767 C38.339619,202.354505 35.26,201.929201 32.9830476,201.389393 C31.4186667,199.958083 30.8371429,197.839744 29.7969524,196.056741 C27.9950476,194.93623 25.7508571,194.543642 24.268381,192.932396 C23.9980952,190.838594 23.3428571,187.836933 25.4969524,186.536486 Z M27.6019048,188.033227 C27.5527619,189.235527 27.5527619,190.437827 27.5855238,191.648307 C28.8140952,191.713738 30.0426667,191.754633 31.2794286,191.754633 C30.5095238,190.094313 29.2727619,188.777508 27.6019048,188.033227 Z M32.7619048,194.290096 C33.712,195.754121 34.7030476,197.185431 35.776,198.559489 C36.4558095,198.240511 37.7990476,197.610735 38.4706667,197.299936 C37.8318095,196.277572 37.2420952,195.197955 36.3739048,194.347348 C35.1699048,194.200128 33.9659048,194.273738 32.7619048,194.290096 Z" id="Shape"></path>
            <path d="M16.0533333,200.301597 C15.3407619,196.956422 18.7152381,193.742109 22.016,194.396422 C28.9860952,196.203962 34.1624762,204.701853 30.5177143,211.473994 C29.4611429,211.441278 28.4127619,211.400383 27.364381,211.35131 C27.7984762,209.012141 28.2817143,206.672971 28.3062857,204.284728 C26.4388571,205.17623 24.6287619,206.182236 22.8350476,207.220958 C19.5998095,206.214952 16.3154286,203.998466 16.0533333,200.301597 Z M20.0830476,200.800511 C20.8857143,202.338147 22.704,202.452652 24.1946667,202.828882 C24.2192381,201.847412 24.2438095,200.874121 24.2765714,199.900831 C22.8268571,199.197444 21.3689524,198.534952 19.8946667,197.913355 C19.8864762,198.878466 19.952,199.843578 20.0830476,200.800511 Z" id="Shape"></path>
            <path d="M8.50171429,211.833866 C8.14952381,208.995783 8.99314286,206.329457 10.4838095,203.941214 C15.6274286,206.771118 19.7472381,211.007796 24.1864762,214.770096 C25.955619,215.79246 24.6205714,217.739042 23.8260952,218.924984 C19.5179048,216.99476 16.4137143,213.396038 13.1457143,210.140831 C11.6632381,210.876933 10.1561905,211.613035 8.50171429,211.833866 Z" id="Shape"></path>
        </g>
    </g>
</svg>