<?xml version="1.0" encoding="UTF-8"?>
<svg width="256px" height="256px" viewBox="0 0 256 256" version="1.1" xmlns="http://www.w3.org/2000/svg" xmlns:xlink="http://www.w3.org/1999/xlink">
    <!-- Generator: Sketch 51.3 (57544) - http://www.bohemiancoding.com/sketch -->
    <title>logo/dysjaland</title>
    <desc>Created with Sketch.</desc>
    <defs></defs>
    <g id="logo/dysjaland" stroke="none" stroke-width="1" fill="none" fill-rule="evenodd">
        <path d="M75,192 L75,58.6 L112,58.6 C124.533396,58.6 135.699951,59.999986 145.5,62.8 C155.300049,65.600014 163.566633,69.799972 170.3,75.4 C177.033367,81.000028 182.166649,87.966625 185.7,96.3 C189.233351,104.633375 191,114.266612 191,125.2 C191,136.133388 189.233351,145.766625 185.7,154.1 C182.166649,162.433375 177.033367,169.399972 170.3,175 C163.566633,180.600028 155.300049,184.833319 145.5,187.7 C135.699951,190.566681 124.533396,192 112,192 L75,192 Z M100.2,171.2 L100.2,79.4 L112,79.4 C128.933418,79.4 142.099953,83.233295 151.5,90.9 C160.900047,98.566705 165.6,109.999924 165.6,125.2 C165.6,140.400076 160.900047,151.866628 151.5,159.6 C142.099953,167.333372 128.933418,171.2 112,171.2 L100.2,171.2 Z M95,176 L112,176 C131.466764,176 146.166617,171.566711 156.1,162.7 C166.033383,153.833289 171,141.333414 171,125.2 C171,109.066586 166.033383,96.600044 156.1,87.8 C146.166617,78.999956 131.466764,74.6 112,74.6 L95,74.6 L95,176 Z M117.6,154 C127.60005,154 135.333306,151.633357 140.8,146.9 C146.266694,142.166643 149,134.933382 149,125.2 C149,115.466618 146.266694,108.26669 140.8,103.6 C135.333306,98.93331 127.60005,96.6 117.6,96.6 L117.6,154 Z" id="D" fill="#FFFFFF"></path>
    </g>
</svg>