<?xml version="1.0" encoding="UTF-8"?>
<svg width="256px" height="256px" viewBox="0 0 256 256" version="1.1" xmlns="http://www.w3.org/2000/svg" xmlns:xlink="http://www.w3.org/1999/xlink">
    <!-- Generator: Sketch 51.3 (57544) - http://www.bohemiancoding.com/sketch -->
    <title>logo/ellingsoy</title>
    <desc>Created with Sketch.</desc>
    <defs></defs>
    <g id="logo/ellingsoy" stroke="none" stroke-width="1" fill="none" fill-rule="evenodd">
        <g id="ellingsoy" transform="translate(21.000000, 0.000000)" fill-rule="nonzero">
            <g id="#47367dff" fill="#47367D">
                <path d="M48.0041331,0 L48.1920743,0 C49.5571207,0.910515464 50.4275851,2.34226804 51.5486378,3.51340206 C57.6979412,10.3719588 65.8981115,15.1191753 74.5302167,18.1410309 C81.8599226,20.7208247 89.5622136,22.1162887 97.2875851,22.7727835 C108.857508,23.7624742 120.612074,22.9245361 131.888545,20.1402062 C142.881455,17.3789691 153.594102,12.1995876 161.322771,3.72783505 C162.506471,2.49731959 163.436285,1.00618557 164.844195,0 L165.022245,0 C180.954381,5.74680412 196.863437,11.5661856 212.782384,17.3525773 C208.367415,28.3216495 204.229412,39.4094845 200.582693,50.6589691 C198.587879,56.6564948 198.185619,63.0861856 198.736254,69.3509278 C199.544071,78.4593814 202.096115,87.3468041 205.68678,95.7327835 C209.715975,106.355464 211.915217,117.644536 212.449365,128.986392 C213.003297,142.231753 211.638251,155.661856 207.493653,168.296907 C203.998607,178.936082 198.063622,188.674639 190.69435,197.067216 C183.054706,205.783093 173.954396,213.129897 164.194644,219.341856 C154.197492,225.639588 143.524412,230.908041 132.353452,234.771134 C126.81743,236.955052 121.508916,239.851546 116.968653,243.721237 C113.562632,246.650722 110.512709,250.154227 108.751997,254.334021 C108.386006,255.247835 107.565,256.082474 106.503297,255.976907 C105.425108,256.039588 104.617291,255.171959 104.267786,254.238351 C102.727988,250.576495 100.152864,247.452371 97.2678019,244.770309 C93.0308824,240.847835 87.9894427,237.878763 82.7106037,235.592577 C80.4421207,234.576495 78.0483437,233.890309 75.7468885,232.96 C64.8924613,228.697732 54.4963467,223.251134 44.8552941,216.689485 C35.0032198,209.966186 25.9292879,201.972784 18.6193653,192.51134 C12.1073684,184.112165 7.09560372,174.49567 4.34572755,164.209485 C0.926517028,151.927423 -0.052755418,139.028454 0.778142415,126.334021 C1.59255418,114.642474 4.19405573,103.036701 8.79696594,92.2424742 C10.4290867,88.0923711 11.7281889,83.8103093 12.7272446,79.462268 C14.8209752,70.08 15.5562539,60.0445361 12.5228173,50.777732 C8.86950464,39.4820619 4.70182663,28.3612371 0.286857585,17.3459794 C16.1959133,11.5661856 32.0950774,5.76659794 48.0041331,0 Z M138.595077,60.7340206 C140.63935,60.7406186 142.68692,60.7406186 144.734489,60.7373196 C148.061378,60.5987629 151.615774,61.1892784 154.210681,63.4292784 C157.834319,66.3092784 159.143313,71.5480412 157.56065,75.8564948 C156.221981,79.5315464 152.848932,82.4214433 148.978003,83.0713402 C145.865433,83.6783505 142.522059,82.8569072 140.012879,80.9204124 C138.064226,79.4589691 136.78161,77.3047423 135.934226,75.0581443 C134.572477,75.0416495 133.214025,75.0383505 131.855573,75.0548454 C132.74582,79.4721649 135.571533,83.5364948 139.561161,85.6907216 C143.161718,87.7294845 147.599768,88.0560825 151.536641,86.8849485 C155.658158,85.5983505 159.080666,82.4082474 160.940294,78.5451546 C162.86257,74.2597938 162.799923,69.0738144 160.646842,64.8841237 C158.615759,61.0540206 154.995418,57.9991753 150.742012,56.9863918 C148.081161,56.2804124 145.304907,56.5245361 142.588003,56.4882474 C142.541842,54.8684536 142.545139,53.2486598 142.578111,51.6321649 C145.595062,51.6387629 148.608715,51.625567 151.625666,51.6354639 C151.701502,50.24 151.704799,48.8412371 151.685015,47.4424742 C147.329396,47.4160825 142.973777,47.4523711 138.614861,47.4226804 C138.558808,51.8597938 138.601672,56.2969072 138.595077,60.7340206 Z M78.5594118,48.6498969 C73.8114241,49.7121649 69.9174149,53.4663918 68.1665944,57.9397938 C66.524582,62.3439175 66.8444118,67.516701 69.2480805,71.5843299 C70.8867957,74.2894845 73.2739783,76.6251546 76.1986068,77.8985567 C77.3328483,78.4197938 78.5956811,78.5319588 79.7859752,78.8816495 C80.3860681,79.0498969 81.094969,79.465567 80.9268111,80.2045361 C80.029969,81.6461856 78.6022755,82.665567 77.6757585,84.0874227 C77.853808,85.1035052 78.7605418,85.7896907 79.4562539,86.4791753 C80.0695356,87.0070103 80.8278947,86.4362887 81.2367492,85.9348454 C85.0054644,81.8804124 88.8665015,77.9150515 92.6352167,73.8606186 C95.7049226,70.4065979 96.9215944,65.5340206 96.1566409,61.0078351 C95.5400619,56.5641237 92.7044582,52.5921649 88.9258514,50.2498969 C85.8627399,48.3529897 82.051161,47.8812371 78.5594118,48.6498969 Z M116.352074,49.7451546 C112.474551,57.8672165 108.610217,65.9958763 104.735991,74.1212371 C103.984226,75.731134 103.136842,77.3014433 102.543344,78.9806186 C103.087384,79.0993814 103.638019,79.2148454 104.198545,79.2181443 C108.71243,79.2148454 113.226316,79.2049485 117.736904,79.2181443 C118.29743,79.2412371 119.131625,79.1620619 119.230542,79.9109278 C119.45805,82.134433 119.115139,84.3876289 119.484427,86.6045361 C120.579102,86.9839175 121.766099,86.9971134 122.860774,86.6078351 C123.223467,84.483299 122.906935,82.3257732 123.075093,80.1880412 C123.048715,79.6931959 123.441084,79.254433 123.945557,79.2643299 C125.205093,79.1587629 126.491006,79.3039175 127.737353,78.9905155 C127.727461,77.8490722 128.32096,76.3117526 127.312012,75.4639175 C125.973344,75.0713402 124.357709,75.8070103 123.190495,74.9459794 C122.686022,70.508866 123.404814,65.9727835 122.81791,61.5389691 C121.743019,61.228866 120.618669,61.2519588 119.54048,61.5257732 C119.395402,62.3373196 119.28,63.1554639 119.293189,63.9835052 C119.312972,67.2923711 119.30308,70.6045361 119.309675,73.9134021 C119.349241,74.5006186 119.181084,75.4012371 118.396347,75.3253608 C115.237616,75.4045361 112.075588,75.3286598 108.916858,75.3550515 C108.877291,74.8635052 108.883885,74.3554639 109.131176,73.9134021 C112.583359,66.6919588 116.012461,59.4606186 119.461347,52.2358763 C119.995495,51.0746392 120.697802,49.9628866 120.905526,48.6828866 C119.3987,48.6465979 117.093947,47.9439175 116.352074,49.7451546 Z M59.0596904,49.497732 C56.7021827,51.1241237 54.3347833,52.7274227 51.9706811,54.3406186 C51.5156656,54.7035052 50.8166563,55.0597938 50.981517,55.7657732 C51.3771827,56.6498969 51.7596594,57.7748454 52.7356347,58.1575258 C54.3908359,57.6923711 55.5151858,56.2012371 57.1440093,55.6437113 C57.2824923,65.9430928 57.0516873,76.2457732 57.262709,86.5418557 C58.2320898,86.9410309 59.3069814,87.0037113 60.3324149,86.7925773 C60.9885604,86.3439175 60.8335913,85.4795876 60.8764551,84.8 C60.8269969,72.8412371 60.9325077,60.8791753 60.8236997,48.9237113 C60.1906347,48.9435052 59.5641641,49.0985567 59.0596904,49.497732 Z M6.72301858,104.38268 C4.09513932,113.444948 2.79603715,122.866804 2.58501548,132.291959 C2.44323529,141.938144 3.34667183,151.633814 5.65142415,161.012784 C7.2373839,167.458969 9.52894737,173.743505 12.6975697,179.585979 C18.7215789,190.828866 27.4460062,200.438763 37.3013777,208.451959 C50.6748762,219.216495 66.0168111,227.467216 82.2160217,233.098557 C88.1576006,235.539794 93.8518885,238.762887 98.5965789,243.13732 C101.943251,246.182268 104.765666,249.844124 106.529675,254.033814 C108.554164,249.286598 111.900836,245.202474 115.847601,241.913402 C120.559319,237.95134 126.039288,234.992165 131.753359,232.742268 C139.247926,230.195464 146.475418,226.903093 153.458916,223.181856 C165.269536,216.821443 176.371254,208.986392 185.745232,199.353402 C193.668437,191.138969 200.292539,181.548866 204.371192,170.84701 C207.041935,163.734433 208.736703,156.275464 209.633545,148.73732 C211.437121,133.934845 210.447957,118.749691 206.362709,104.385979 C139.815046,104.385979 73.2706811,104.392577 6.72301858,104.38268 Z" id="Shape"></path>
                <path d="M78.5956811,52.6218557 C81.1971827,51.8630928 84.1284056,52.0280412 86.5419659,53.3146392 C89.4929721,54.8717526 91.7251858,57.7682474 92.4208978,61.0408247 C93.4957895,65.5901031 91.5669195,70.617732 87.7091796,73.2536082 C84.4581269,75.5859794 79.8222446,75.7245361 76.4129257,73.6494845 C74.3917337,72.4057732 72.7695046,70.5451546 71.7902322,68.3843299 C70.5339938,65.5010309 70.5109133,62.1294845 71.6517492,59.2065979 C72.9112848,56.1748454 75.4468421,53.6280412 78.5956811,52.6218557 Z" id="Shape"></path>
                <path d="M38.834582,120.966598 C52.3069969,120.963299 65.782709,120.946804 79.2551238,120.973196 C79.2320433,124.668041 79.2518266,128.362887 79.241935,132.054433 C71.0318731,132.067629 62.8218111,132.041237 54.6117492,132.070928 C54.6282353,137.771546 54.5952632,143.475464 54.6315325,149.176082 C59.8543189,149.149691 65.0836997,149.136495 70.3064861,149.18268 C70.2867028,152.402474 70.29,155.622268 70.3031889,158.845361 C65.1859133,158.861856 60.0653406,158.825567 54.948065,158.861856 C54.9513622,165.021031 54.9744427,171.180206 54.9414706,177.339381 C63.0394272,177.349278 71.1406811,177.336082 79.241935,177.345979 C79.2551238,180.92866 79.2287461,184.514639 79.2551238,188.09732 C65.7794118,188.120412 52.3069969,188.090722 38.8312848,188.110515 C38.834582,165.730309 38.8279876,143.346804 38.834582,120.966598 Z" id="Shape"></path>
                <path d="M104.337028,188.123711 C104.277678,165.736907 104.304056,143.353402 104.323839,120.966598 C109.688406,120.96 115.052972,120.950103 120.414241,120.976495 C120.401053,143.261031 120.434025,165.548866 120.397755,187.833402 C120.328514,187.899381 120.190031,188.028041 120.120789,188.094021 C114.861734,188.136907 109.599381,188.070928 104.337028,188.123711 Z" id="Shape"></path>
                <path d="M147.25356,120.96 C152.624721,120.963299 157.995882,120.956701 163.367043,120.963299 C163.386827,139.757526 163.370341,158.551753 163.376935,177.345979 C169.546022,177.34268 175.711811,177.345979 181.880898,177.34268 C181.867709,180.935258 181.950139,184.527835 181.841331,188.117113 C170.314272,188.090722 158.783916,188.110515 147.256858,188.107216 C147.233777,165.723711 147.243669,143.343505 147.25356,120.96 Z" id="Shape"></path>
                <path d="M90.4293808,148.229278 C93.2550929,147.562887 96.3676625,149.499381 96.8457585,152.392577 C97.6041176,155.549691 94.9300774,158.947629 91.6658359,158.851959 C88.3653251,159.013608 85.5429102,155.612371 86.3243498,152.392577 C86.7101238,150.353814 88.4048916,148.654845 90.4293808,148.229278 Z" id="Shape"></path>
                <path d="M132.017136,148.291959 C135.1363,147.318763 138.690697,149.776495 138.815991,153.052371 C139.178684,156.166598 136.326594,159.092784 133.214025,158.84866 C130.173994,158.789278 127.664814,155.774021 128.133019,152.771959 C128.383607,150.677113 129.982755,148.842887 132.017136,148.291959 Z" id="Shape"></path>
            </g>
            <g id="#efe73cff" transform="translate(2.308050, 47.175258)" fill="#EFE73C">
                <path d="M136.287028,13.5587629 C136.293622,9.12164948 136.250759,4.68453608 136.306811,0.24742268 C140.665728,0.277113402 145.021347,0.240824742 149.376966,0.267216495 C149.396749,1.66597938 149.393452,3.06474227 149.317616,4.46020619 C146.300666,4.45030928 143.287012,4.46350515 140.270062,4.45690722 C140.23709,6.07340206 140.233793,7.69319588 140.279954,9.31298969 C142.996858,9.34927835 145.773111,9.10515464 148.433963,9.81113402 C152.687368,10.8239175 156.307709,13.8787629 158.338793,17.708866 C160.491873,21.8985567 160.55452,27.0845361 158.632245,31.3698969 C156.772616,35.2329897 153.350108,38.4230928 149.228591,39.7096907 C145.291718,40.8808247 140.853669,40.5542268 137.253111,38.5154639 C133.263483,36.3612371 130.437771,32.2969072 129.547523,27.8795876 C130.905975,27.8630928 132.264427,27.8663918 133.626176,27.8828866 C134.47356,30.1294845 135.756176,32.2837113 137.70483,33.7451546 C140.214009,35.6816495 143.557384,36.5030928 146.669954,35.8960825 C150.540882,35.2461856 153.913932,32.3562887 155.252601,28.6812371 C156.835263,24.3727835 155.526269,19.1340206 151.902632,16.2540206 C149.307724,14.0140206 145.753328,13.4235052 142.42644,13.5620619 C140.37887,13.5653608 138.3313,13.5653608 136.287028,13.5587629 Z" id="Shape"></path>
                <path d="M76.2513622,1.47463918 C79.7431115,0.705979381 83.5546904,1.17773196 86.6178019,3.07463918 C90.3964087,5.41690722 93.2320124,9.38886598 93.8485913,13.8325773 C94.6135449,18.3587629 93.3968731,23.2313402 90.3271672,26.6853608 C86.558452,30.7397938 82.6974149,34.7051546 78.9286997,38.7595876 C78.5198452,39.2610309 77.7614861,39.8317526 77.1482043,39.3039175 C76.4524923,38.614433 75.5457585,37.9282474 75.367709,36.9121649 C76.294226,35.4903093 77.7219195,34.4709278 78.6187616,33.0292784 C78.7869195,32.2903093 78.0780186,31.8746392 77.4779257,31.7063918 C76.2876316,31.356701 75.0247988,31.2445361 73.8905573,30.723299 C70.9659288,29.4498969 68.5787461,27.1142268 66.940031,24.4090722 C64.5363622,20.3414433 64.2165325,15.1686598 65.8585449,10.7645361 C67.6093653,6.29113402 71.5033746,2.53690722 76.2513622,1.47463918 Z M76.2876316,5.44659794 C73.1387926,6.45278351 70.6032353,8.99958763 69.3436997,12.0313402 C68.2028638,14.9542268 68.2259443,18.3257732 69.4821827,21.2090722 C70.4614551,23.3698969 72.0836842,25.2305155 74.1048762,26.4742268 C77.514195,28.5492784 82.1500774,28.4107216 85.40113,26.0783505 C89.25887,23.4424742 91.1877399,18.4148454 90.1128483,13.865567 C89.4171362,10.5929897 87.1849226,7.69649485 84.2339164,6.13938144 C81.820356,4.85278351 78.8891331,4.68783505 76.2876316,5.44659794 Z" id="Shape"></path>
                <path d="M114.044025,2.56989691 C114.785898,0.768659794 117.09065,1.47134021 118.597477,1.50762887 C118.389752,2.78762887 117.687446,3.89938144 117.153297,5.06061856 C113.704412,12.2853608 110.27531,19.516701 106.823127,26.7381443 C106.575836,27.1802062 106.569241,27.6882474 106.608808,28.1797938 C109.767539,28.1534021 112.929567,28.2292784 116.088297,28.1501031 C116.873034,28.2259794 117.041192,27.3253608 117.001625,26.7381443 C116.995031,23.4292784 117.004923,20.1171134 116.985139,16.8082474 C116.97195,15.9802062 117.087353,15.1620619 117.23243,14.3505155 C118.310619,14.076701 119.434969,14.0536082 120.509861,14.3637113 C121.096765,18.7975258 120.377972,23.3336082 120.882446,27.7707216 C122.049659,28.6317526 123.665294,27.8960825 125.003963,28.2886598 C126.01291,29.1364948 125.419412,30.6738144 125.429303,31.8152577 C124.182957,32.1286598 122.897043,31.9835052 121.637508,32.0890722 C121.133034,32.0791753 120.740666,32.5179381 120.767043,33.0127835 C120.598885,35.1505155 120.915418,37.3080412 120.552724,39.4325773 C119.45805,39.8218557 118.271053,39.8086598 117.176378,39.4292784 C116.80709,37.2123711 117.15,34.9591753 116.922492,32.7356701 C116.823576,31.9868041 115.989381,32.0659794 115.428854,32.0428866 C110.918266,32.0296907 106.404381,32.0395876 101.890495,32.0428866 C101.329969,32.0395876 100.779334,31.9241237 100.235294,31.8053608 C100.828793,30.1261856 101.676176,28.5558763 102.427941,26.9459794 C106.302167,18.8206186 110.166502,10.6919588 114.044025,2.56989691 Z" id="Shape"></path>
                <path d="M56.7516409,2.32247423 C57.2561146,1.92329897 57.8825851,1.76824742 58.5156502,1.74845361 C58.6244582,13.7039175 58.5189474,25.6659794 58.5684056,37.6247423 C58.5255418,38.3043299 58.6805108,39.1686598 58.0243653,39.6173196 C56.9989319,39.8284536 55.9240402,39.7657732 54.9546594,39.3665979 C54.7436378,29.0705155 54.9744427,18.7678351 54.8359598,8.46845361 C53.2071362,9.02597938 52.0827864,10.5171134 50.4275851,10.982268 C49.4516099,10.5995876 49.0691331,9.47463918 48.6734675,8.59051546 C48.5086068,7.88453608 49.2076161,7.52824742 49.6626316,7.16536082 C52.0267337,5.55216495 54.3941331,3.94886598 56.7516409,2.32247423 Z" id="Shape"></path>
                <path d="M4.41496904,57.2074227 C70.9626316,57.2173196 137.506997,57.2107216 204.054659,57.2107216 C208.139907,71.574433 209.129071,86.7595876 207.325495,101.562062 C206.428653,109.100206 204.733885,116.559175 202.063142,123.671753 C197.984489,134.373608 191.360387,143.963711 183.437183,152.178144 C174.063204,161.811134 162.961486,169.646186 151.150867,176.006598 C144.167368,179.727835 136.939876,183.020206 129.44531,185.56701 C123.731238,187.816907 118.251269,190.776082 113.539551,194.738144 C109.592786,198.027216 106.246115,202.11134 104.221625,206.858557 C102.457616,202.668866 99.6352012,199.00701 96.2885294,195.962062 C91.543839,191.587629 85.8495511,188.364536 79.9079721,185.923299 C63.7087616,180.291959 48.3668266,172.041237 34.9933282,161.276701 C25.1379567,153.263505 16.4135294,143.653608 10.3895201,132.410722 C7.22089783,126.568247 4.92933437,120.283711 3.34337461,113.837526 C1.03862229,104.458557 0.135185759,94.7628866 0.276965944,85.116701 C0.487987616,75.6915464 1.78708978,66.2696907 4.41496904,57.2074227 Z M36.5265325,73.7913402 C36.5199381,96.1715464 36.5265325,118.555052 36.5232353,140.935258 C49.9989474,140.915464 63.4713622,140.945155 76.9470743,140.922062 C76.9206966,137.339381 76.9470743,133.753402 76.9338854,130.170722 C68.8326316,130.160825 60.7313777,130.174021 52.6334211,130.164124 C52.6663932,124.004948 52.6433127,117.845773 52.6400155,111.686598 C57.757291,111.650309 62.8778638,111.686598 67.9951393,111.670103 C67.9819505,108.44701 67.9786533,105.227216 67.9984365,102.007423 C62.7756502,101.961237 57.5462693,101.974433 52.323483,102.000825 C52.2872136,96.3002062 52.3201858,90.5962887 52.3036997,84.8956701 C60.5137616,84.8659794 68.7238235,84.8923711 76.9338854,84.8791753 C76.9437771,81.1876289 76.9239938,77.4927835 76.9470743,73.7979381 C63.4746594,73.7715464 49.9989474,73.7880412 36.5265325,73.7913402 Z M102.028978,140.948454 C107.291331,140.89567 112.553684,140.961649 117.81274,140.918763 C117.881981,140.852784 118.020464,140.724124 118.089706,140.658144 C118.125975,118.373608 118.093003,96.0857732 118.106192,73.8012371 C112.744923,73.7748454 107.380356,73.7847423 102.015789,73.7913402 C101.996006,96.1781443 101.969628,118.561649 102.028978,140.948454 Z M144.945511,73.7847423 C144.935619,96.1682474 144.925728,118.548454 144.948808,140.931959 C156.475867,140.935258 168.006223,140.915464 179.533282,140.941856 C179.64209,137.352577 179.559659,133.76 179.572848,130.167423 C173.403762,130.170722 167.237972,130.167423 161.068885,130.170722 C161.062291,111.376495 161.078777,92.582268 161.058994,73.7880412 C155.687833,73.7814433 150.316672,73.7880412 144.945511,73.7847423 Z M88.1213313,101.054021 C86.0968421,101.479588 84.4020743,103.178557 84.0163003,105.21732 C83.2348607,108.437113 86.0572755,111.838351 89.3577864,111.676701 C92.6220279,111.772371 95.2960681,108.374433 94.537709,105.21732 C94.059613,102.324124 90.9470433,100.387629 88.1213313,101.054021 Z M129.709087,101.116701 C127.674706,101.667629 126.075557,103.501856 125.824969,105.596701 C125.356765,108.598763 127.865944,111.614021 130.905975,111.673402 C134.018545,111.917526 136.870635,108.99134 136.507941,105.877113 C136.382647,102.601237 132.828251,100.143505 129.709087,101.116701 Z" id="Shape"></path>
            </g>
        </g>
    </g>
</svg>