<?xml version="1.0" encoding="UTF-8"?>
<svg width="256px" height="256px" viewBox="0 0 256 256" version="1.1" xmlns="http://www.w3.org/2000/svg" xmlns:xlink="http://www.w3.org/1999/xlink">
    <!-- Generator: Sketch 51.3 (57544) - http://www.bohemiancoding.com/sketch -->
    <title>logo/floro</title>
    <desc>Created with Sketch.</desc>
    <defs></defs>
    <g id="logo/floro" stroke="none" stroke-width="1" fill="none" fill-rule="evenodd">
        <g id="floro" transform="translate(1.000000, 0.000000)" fill-rule="nonzero">
            <g id="#ffffffff" transform="translate(61.256983, 5.688889)" fill="#FFFFFF">
                <path d="M76.4002793,0.256 C79.3918994,0.611555556 83.2810056,-0.0995555556 84.6058659,3.35644444 C82.3407821,3.99644444 80.0614525,4.63644444 77.7963687,5.29066667 C79.4773743,6.38577778 81.2011173,7.40977778 82.9248603,8.448 C79.7622905,10.0408889 77.6539106,12.8142222 75.7734637,15.7013333 C75.901676,10.5528889 76.1153631,5.40444444 76.4002793,0.256 Z" id="Shape"></path>
                <path d="M36.0988827,1.80622222 C38.1502793,1.86311111 40.201676,1.92 42.2530726,1.97688889 C44.6036313,5.68888889 46.6122905,10.3537778 44.6463687,14.6773333 C42.0821229,17.6071111 36.3553073,17.5217778 34.5603352,13.7528889 C32.0103352,9.88444444 33.976257,5.34755556 36.0988827,1.80622222 Z M36.6117318,4.66488889 C36.3410615,7.65155556 35.0162011,11.3777778 37.5234637,13.7955556 C40.6148045,16.3128889 44.8030726,12.0746667 42.9083799,8.77511111 C42.4097765,5.71733333 38.8625698,5.77422222 36.6117318,4.66488889 Z" id="Shape"></path>
                <path d="M0.356145251,13.7671111 C3.03435754,12.6577778 5.76955307,11.6764444 8.54748603,10.8373333 C6.95195531,12.7857778 5.2424581,14.6631111 3.64692737,16.6115556 C6.15418994,16.5262222 8.66145251,16.3555556 11.1687151,16.2275556 C11.0405028,16.896 10.7555866,18.2613333 10.6131285,18.9297778 C9.18854749,19.6977778 7.76396648,20.48 6.33938547,21.2622222 C6.43910615,23.3386667 6.5103352,25.4293333 6.49608939,27.52 C3.66117318,23.3102222 2.10837989,18.4604444 0.356145251,13.7671111 Z" id="Shape"></path>
            </g>
            <g id="#326699ff" transform="translate(51.284916, 0.000000)" fill="#326699">
                <path d="M55.0743017,0 L101.601117,0 C114.180168,2.19022222 127.158101,3.79733333 138.811173,9.28711111 C143.896927,11.904 149.694972,13.2408889 154.267877,16.7964444 C155.920391,22.0586667 153.014246,27.7333333 148.655028,30.7484444 C145.221788,33.0524444 143.41257,36.8071111 141.831285,40.4764444 C135.905028,36.3662222 129.209497,33.4364444 122.143575,31.9715556 C91.3583799,25.2728889 59.0488827,25.472 28.4631285,33.0951111 C22.9215084,34.5457778 17.8357542,37.3048889 13.049162,40.4053333 C11.325419,37.2906667 9.55893855,34.1617778 7.2226257,31.4453333 C3.60418994,27.7333333 -1.12541899,23.5662222 0.541340782,17.7635556 C4.04581006,14.2506667 8.94636872,12.7146667 13.277095,10.496 C26.2122905,3.88266667 40.8427374,1.87733333 55.0743017,0 Z M59.2625698,6.42844444 C56.5843575,10.6097778 55.5586592,17.792 60.3879888,20.8213333 C63.3083799,21.0915556 66.2002793,20.3662222 69.077933,20.0675556 C68.9639665,17.7777778 68.8215084,15.5022222 68.6505587,13.2266667 C66.8413408,13.1697778 65.0321229,13.0986667 63.222905,13.0417778 C63.4365922,15.0471111 63.6502793,17.0524444 63.8212291,19.0577778 C59.7184358,18.1333333 58.6784916,13.8097778 60.0888268,10.2684444 C63.0234637,10.0835556 65.9153631,10.6524444 68.8215084,10.9084444 C67.2259777,7.21066667 63.3226257,4.25244444 59.2625698,6.42844444 Z M75.2606145,19.6977778 C75.901676,19.6835556 77.1980447,19.6408889 77.853352,19.6266667 C77.9815642,14.7768889 78.0812849,9.92711111 77.7536313,5.09155556 C72.9812849,8.16355556 75.9301676,14.9617778 75.2606145,19.6977778 Z M86.3723464,5.94488889 C86.0874302,11.0933333 85.873743,16.2417778 85.7455307,21.3902222 C87.6259777,18.5031111 89.7343575,15.7297778 92.8969274,14.1368889 C91.1731844,13.0986667 89.4494413,12.0746667 87.7684358,10.9795556 C90.0335196,10.3253333 92.3128492,9.68533333 94.577933,9.04533333 C93.2530726,5.58933333 89.3639665,6.30044444 86.3723464,5.94488889 Z M46.0709497,7.49511111 C43.948324,11.0364444 41.9824022,15.5733333 44.5324022,19.4417778 C46.3273743,23.2106667 52.0541899,23.296 54.6184358,20.3662222 C56.5843575,16.0426667 54.5756983,11.3777778 52.2251397,7.66577778 C50.173743,7.60888889 48.1223464,7.552 46.0709497,7.49511111 Z M104.749441,11.5626667 C105.903352,15.8151111 105.846369,20.224 106.188268,24.576 C108.168436,19.9964444 109.023184,15.0613333 109.621508,10.1262222 C107.98324,10.6097778 106.373464,11.0791111 104.749441,11.5626667 Z M113.852514,12.4586667 C112.143017,16.6115556 109.678492,21.6177778 112.100279,25.9697778 C114.023464,26.496 116.032123,26.6951111 118.012291,26.9937778 C119.622067,22.3146667 121.559497,17.2088889 120.191899,12.2453333 C118.112011,11.7333333 115.889665,11.7617778 113.852514,12.4586667 Z M22.6935754,14.72 C24.2891061,15.9004444 25.9131285,17.0524444 27.522905,18.1902222 C28.4916201,21.5466667 29.4318436,24.8888889 30.4290503,28.2311111 C30.9276536,27.8328889 31.9106145,27.0364444 32.3949721,26.6524444 C31.3265363,21.8595556 29.2751397,16.768 31.9106145,12.0888889 C28.8335196,12.9564444 25.7564246,13.824 22.6935754,14.72 Z M122.770391,16.1706667 C120.362849,19.4702222 124.536872,22.5422222 125.719274,25.5288889 C124.024022,25.2586667 122.328771,25.0026667 120.647765,24.7324444 C120.90419,25.5715556 121.402793,27.264 121.659218,28.1031111 C123.340223,28.1457778 125.021229,28.1742222 126.702235,28.2026667 C128.72514,23.9217778 129.765084,19.2426667 129.366201,14.4924444 C127.186592,14.7484444 123.796089,13.44 122.770391,16.1706667 Z M10.3282123,19.456 C12.0804469,24.1493333 13.6332402,28.9991111 16.4681564,33.2088889 C16.4824022,31.1182222 16.4111732,29.0275556 16.3114525,26.9511111 C17.7360335,26.1688889 19.1606145,25.3866667 20.5851955,24.6186667 C20.7276536,23.9502222 21.0125698,22.5848889 21.1407821,21.9164444 C18.6335196,22.0444444 16.126257,22.2151111 13.6189944,22.3004444 C15.2145251,20.352 16.9240223,18.4746667 18.5195531,16.5262222 C15.7416201,17.3653333 13.0064246,18.3466667 10.3282123,19.456 Z M80.0472067,17.5928889 C78.0527933,18.8302222 80.175419,22.1582222 82.0986034,20.6506667 C84.0930168,19.3991111 81.9703911,16.0853333 80.0472067,17.5928889 Z M132.101397,18.7591111 C133.155587,19.0577778 135.263966,19.6693333 136.318156,19.968 C135.164246,22.6702222 134.637151,25.5715556 134.637151,28.5013333 C132.557263,27.7475556 130.477374,26.9795556 128.397486,26.2542222 C128.596927,27.3777778 128.99581,29.6533333 129.195251,30.7911111 C131.830726,30.848 134.480447,30.8622222 137.115922,30.7911111 C137.942179,26.7804444 139.081844,22.7982222 139.395251,18.688 C137.457821,15.5875556 134.523184,17.4364444 132.101397,18.7591111 Z M92.8541899,18.8586667 C92.1134078,21.1911111 92.9111732,21.9733333 95.2189944,21.2337778 C95.9455307,18.9155556 95.1620112,18.1333333 92.8541899,18.8586667 Z M34.6600559,23.168 C34.802514,23.8222222 35.0874302,25.1306667 35.2298883,25.7848889 C35.9421788,26.0124444 37.3952514,26.4391111 38.1217877,26.6666667 C38.0932961,24.9457778 38.0790503,23.2391111 38.0363128,21.5182222 C36.9251397,22.0728889 35.7997207,22.6275556 34.6600559,23.168 Z M23.3773743,27.264 C22.6223464,29.568 23.3916201,30.3644444 25.6994413,29.6675556 C26.4687151,27.3493333 25.6994413,26.5386667 23.3773743,27.264 Z" id="Shape"></path>
                <path d="M46.5837989,10.3537778 C48.8346369,11.4631111 52.3818436,11.4062222 52.8804469,14.464 C54.7751397,17.7635556 50.5868715,22.0017778 47.4955307,19.4844444 C44.9882682,17.0666667 46.3131285,13.3404444 46.5837989,10.3537778 Z" id="Shape"></path>
                <path d="M124.650838,17.3084444 C126.958659,16.5404444 127.713687,17.3368889 126.944413,19.6835556 C124.636592,20.4373333 123.881564,19.6408889 124.650838,17.3084444 Z" id="Shape"></path>
                <path d="M114.194413,20.0248889 C115.419553,18.0764444 118.838547,20.096 117.3,22.0302222 C116.046369,23.9502222 112.627374,21.9875556 114.194413,20.0248889 Z" id="Shape"></path>
                <path d="M66.2715084,130.304 C75.5597765,126.805333 84.0787709,121.728 91.4296089,115.057778 C90.3041899,121.415111 83.9505587,123.534222 79.3918994,126.976 C84.976257,127.160889 88.8938547,122.666667 93.8513966,121.230222 C97.8259777,122.396444 101.843296,124.359111 104.535754,127.573333 C105.60419,133.319111 102.056983,139.534222 97.1706704,142.563556 C95.247486,143.587556 92.8969274,145.621333 90.7600559,143.957333 C84.15,140.458667 79.1354749,133.276444 70.9298883,133.617778 C75.2891061,138.510222 81.6854749,140.501333 87.1558659,143.772444 C84.6913408,146.104889 82.0416201,148.736 78.3662011,148.579556 L77.9103352,147.384889 C77.3832402,145.863111 76.7421788,144.384 76.0013966,142.961778 C72.1550279,141.795556 68.0949721,141.909333 64.1346369,141.710222 C64.7756983,137.898667 65.4879888,134.087111 66.2715084,130.304 Z M90.6460894,132.707556 C93.4382682,131.171556 95.6321229,128.896 97.0567039,126.065778 C93.2103352,126.435556 91.0449721,128.938667 90.6460894,132.707556 Z M92.4410615,142.734222 C96.9712291,140.999111 102.213687,138.538667 101.914525,132.792889 C97.0994413,134.186667 94.6349162,138.638222 92.4410615,142.734222 Z" id="Shape"></path>
            </g>
            <g id="#ccffffff" transform="translate(24.217877, 4.266667)" fill="#CCFFFF">
                <path d="M86.3296089,2.16177778 C90.3896648,-0.0142222222 94.2930168,2.944 95.8885475,6.64177778 C92.9824022,6.38577778 90.0905028,5.81688889 87.1558659,6.00177778 C85.7455307,9.54311111 86.7854749,13.8666667 90.8882682,14.7911111 C90.7173184,12.7857778 90.5036313,10.7804444 90.2899441,8.77511111 C92.099162,8.832 93.9083799,8.90311111 95.7175978,8.96 C95.8885475,11.2355556 96.0310056,13.5111111 96.1449721,15.8008889 C93.2673184,16.0995556 90.375419,16.8248889 87.4550279,16.5546667 C82.6256983,13.5253333 83.6513966,6.34311111 86.3296089,2.16177778 Z" id="Shape"></path>
                <path d="M102.327654,15.4311111 C102.997207,10.6951111 100.048324,3.89688889 104.82067,0.824888889 C105.148324,5.66044444 105.048603,10.5102222 104.920391,15.36 C104.265084,15.3742222 102.968715,15.4168889 102.327654,15.4311111 Z" id="Shape"></path>
                <path d="M131.81648,7.296 C133.440503,6.81244444 135.050279,6.34311111 136.688547,5.85955556 C136.090223,10.7946667 135.235475,15.7297778 133.255307,20.3093333 C132.913408,15.9573333 132.970391,11.5484444 131.81648,7.296 Z" id="Shape"></path>
                <path d="M140.919553,8.192 C142.956704,7.49511111 145.17905,7.46666667 147.258939,7.97866667 C148.626536,12.9422222 146.689106,18.048 145.07933,22.7271111 C143.099162,22.4284444 141.090503,22.2293333 139.167318,21.7031111 C136.745531,17.3511111 139.210056,12.3448889 140.919553,8.192 Z M141.261453,15.7582222 C139.694413,17.7208889 143.113408,19.6835556 144.367039,17.7635556 C145.905587,15.8293333 142.486592,13.8097778 141.261453,15.7582222 Z" id="Shape"></path>
                <path d="M49.7606145,10.4533333 C52.8234637,9.55733333 55.9005587,8.68977778 58.9776536,7.82222222 C56.3421788,12.5013333 58.3935754,17.5928889 59.4620112,22.3857778 C58.9776536,22.7697778 57.9946927,23.5662222 57.4960894,23.9644444 C56.4988827,20.6222222 55.5586592,17.28 54.5899441,13.9235556 C52.9801676,12.7857778 51.3561453,11.6337778 49.7606145,10.4533333 Z" id="Shape"></path>
                <path d="M149.83743,11.904 C150.863128,9.17333333 154.253631,10.4817778 156.43324,10.2257778 C156.832123,14.976 155.792179,19.6551111 153.769274,23.936 C152.088268,23.9075556 150.407263,23.8791111 148.726257,23.8364444 C148.469832,22.9973333 147.971229,21.3048889 147.714804,20.4657778 C149.39581,20.736 151.091061,20.992 152.786313,21.2622222 C151.603911,18.2755556 147.429888,15.2035556 149.83743,11.904 Z M151.717877,13.0417778 C150.948603,15.3742222 151.703631,16.1706667 154.011453,15.4168889 C154.780726,13.0702222 154.025698,12.2737778 151.717877,13.0417778 Z" id="Shape"></path>
                <path d="M159.168436,14.4924444 C161.590223,13.1697778 164.52486,11.3208889 166.462291,14.4213333 C166.148883,18.5315556 165.009218,22.5137778 164.182961,26.5244444 C161.547486,26.5955556 158.897765,26.5813333 156.262291,26.5244444 C156.062849,25.3866667 155.663966,23.1111111 155.464525,21.9875556 C157.544413,22.7128889 159.624302,23.4808889 161.70419,24.2346667 C161.70419,21.3048889 162.231285,18.4035556 163.385196,15.7013333 C162.331006,15.4026667 160.222626,14.7911111 159.168436,14.4924444 Z" id="Shape"></path>
                <path d="M119.921229,14.592 C122.22905,13.8666667 123.01257,14.6488889 122.286034,16.9671111 C119.978212,17.7066667 119.180447,16.9244444 119.921229,14.592 Z" id="Shape"></path>
                <path d="M61.727095,18.9013333 C62.8667598,18.3608889 63.9921788,17.8062222 65.103352,17.2515556 C65.1460894,18.9724444 65.1603352,20.6791111 65.1888268,22.4 C64.4622905,22.1724444 63.0092179,21.7457778 62.2969274,21.5182222 C62.1544693,20.864 61.8695531,19.5555556 61.727095,18.9013333 Z" id="Shape"></path>
                <path d="M56.0857542,30.4497778 C72.9670391,26.2968889 90.5321229,23.7653333 107.940503,24.832 C99.4642458,32.2133333 90.3896648,38.912 81.3578212,45.5964444 C74.4343575,49.408 69.9041899,56.3057778 62.7527933,59.8186667 C57.2824022,62.592 53.2650838,67.2995556 48.6209497,71.168 C36.6117318,78.3502222 26.9673184,88.7608889 15.0863128,96.1422222 C12.6787709,97.5928889 10.3709497,99.2 8.06312849,100.807111 C7.45055866,99.328 6.83798883,97.8346667 6.22541899,96.3555556 C7.7924581,96.0426667 9.35949721,95.7013333 10.9122905,95.36 C10.9265363,92.7146667 10.1572626,89.7564444 12.151676,87.5662222 C15.3854749,83.4133333 15.3,78.0373333 16.2972067,73.1164444 C18.4055866,69.248 21.6963687,66.0764444 25.3432961,63.6444444 C31.1555866,59.6622222 34.1329609,53.0204444 36.8539106,46.7911111 C43.2645251,41.3013333 47.1678771,32.5688889 56.0857542,30.4497778 Z" id="Shape"></path>
                <path d="M108.481844,25.216 C110.561732,24.1208889 113.054749,24.7466667 115.305587,24.6613333 C126.488547,25.4151111 137.643017,26.8515556 148.598045,29.2693333 C155.635475,30.72 161.319553,35.6408889 164.980726,41.6568889 C171.90419,47.3884444 174.525419,56.3768889 180.665363,62.8337778 C184.711173,65.9768889 188.571788,69.3902222 192.019274,73.2017778 C193.757263,77.5822222 192.332682,82.8302222 194.740223,87.1111111 C196.050838,89.2871111 196.207542,91.7902222 196.250279,94.2506667 C200.110894,97.6071111 199.797486,103.082667 201.478492,107.548444 C202.589665,112.668444 205.139665,117.304889 206.564246,122.296889 C201.706425,134.442667 200.495531,147.768889 201.506983,160.753778 C199.911453,164.536889 197.532402,167.964444 196.335754,171.918222 C191.534916,169.230222 185.181285,168.903111 181.676816,164.266667 C174.924302,156.174222 166.163128,150.044444 157.245251,144.554667 C150.806145,140.501333 148.640782,132.323556 142.344134,128.170667 C136.973464,124.544 132.6,119.608889 126.759218,116.650667 C119.536592,112.526222 117.627654,103.879111 113.182961,97.4648889 C110.632961,94.5208889 106.615642,91.4346667 108.125698,86.9973333 C108.581564,81.8204444 114.365363,80.5546667 117.727374,77.6248889 C129.480168,68.4515556 142.999441,59.6195556 158.470391,59.7191111 C159.624302,56.576 161.219832,53.6462222 162.573184,50.6026667 C158.299441,50.3466667 153.982961,49.7351111 149.709218,50.2471111 C139.267039,55.1395556 127.556983,56.6613333 117.072067,61.5822222 C106.92905,66.2044444 95.5181564,68.9208889 86.9421788,76.3164444 C86.1444134,72.96 85.9449721,69.4613333 84.8053073,66.2044444 C80.9589385,62.8053333 76.5854749,60.0746667 72.5681564,56.8888889 C79.349162,51.7973333 84.9905028,45.3688889 91.9139665,40.448 C98.3103352,36.3804444 102.626816,29.952 108.481844,25.216 Z" id="Shape"></path>
                <path d="M37.722905,84.6364444 C42.6804469,78.5777778 50.1879888,75.6906667 56.0002793,70.6275556 C57.1114525,73.2302222 57.8522346,76.1031111 59.775419,78.2648889 C62.7955307,80.0853333 66.2002793,81.1662222 69.3486034,82.7306667 C69.3628492,84.3235556 69.377095,85.9164444 69.3913408,87.5093333 C64.8469274,89.6568889 60.074581,91.3635556 55.872067,94.1795556 C50.7435754,98.176 43.6776536,96.3413333 38.1217877,99.3564444 C31.6541899,102.812444 24.075419,103.352889 16.8670391,103.125333 C20.5851955,93.8382222 31.5259777,91.6764444 37.722905,84.6364444 Z" id="Shape"></path>
                <path d="M56.3564246,108.814222 C60.8581006,108.387556 66.1575419,105.884444 70.1321229,109.155556 C76.9843575,113.763556 83.1955307,119.466667 90.8312849,122.823111 C90.6460894,134.940444 85.9592179,146.133333 82.7824022,157.639111 C81.8421788,160.540444 78.3234637,161.095111 76.272067,162.986667 C70.872905,168.120889 66.827095,174.421333 62.4963687,180.408889 C57.9804469,186.467556 51.4986034,190.464 45.3871508,194.673778 C42.3243017,198.343111 43.9340782,203.733333 43.7773743,208.113778 C46.5837989,207.886222 49.7178771,208.839111 52.2963687,207.488 C56.2139665,203.960889 58.3365922,199.011556 61.2,194.688 C66.527933,188.842667 73.722067,185.287111 80.2324022,180.963556 C84.7625698,176.938667 87.8111732,171.249778 93.452514,168.519111 C98.2960894,166.641778 98.9086592,160.938667 102.128212,157.454222 C106.758101,152.177778 110.932123,146.545778 115.519274,141.255111 C122.599441,146.204444 130.705307,149.304889 138.184358,153.557333 C143.113408,156.302222 149.751955,155.036444 153.968715,159.175111 C157.815084,163.015111 161.689944,167.253333 167.160335,168.661333 C174.910056,170.780444 182.146927,174.350222 188.728492,178.915556 C182.032961,185.002667 176.291899,192.014222 170.821508,199.168 C169.453911,200.689778 167.41676,201.358222 165.892458,202.695111 C163.769832,205.838222 162.58743,209.479111 161.333799,213.020444 C155.877654,209.706667 148.412849,208.170667 142.885475,212.167111 C138.212849,215.296 132.414804,215.267556 127.086872,216.120889 C122.300279,218.695111 116.886872,220.017778 112.442179,223.217778 C108.681285,225.749333 104.008659,226.289778 99.6209497,226.958222 C96.1877095,224.270222 93.1960894,220.714667 88.6801676,219.832889 C84.3209497,218.837333 80.9304469,214.840889 76.2293296,215.480889 C72.7818436,215.580444 69.3628492,214.456889 66.3712291,212.821333 C60.5589385,208.284444 51.9687151,208.995556 46.0851955,213.048889 C43.9340782,209.464889 42.9511173,204.714667 38.9907821,202.624 C35.5148045,200.888889 34.1329609,197.048889 32.0673184,194.019556 C27.8363128,186.851556 17.9497207,183.850667 16.5251397,174.933333 C14.6874302,174.606222 12.8354749,174.336 10.9835196,174.051556 C10.2427374,169.642667 8.31955307,165.674667 6.0972067,161.848889 C5.96899441,152.803556 7.03743017,143.402667 3.77513966,134.698667 C3.61843575,130.432 2.36480447,126.407111 1.22513966,122.325333 C1.62402235,118.556444 3.37625698,115.057778 4.33072626,111.402667 C9.90083799,112.426667 15.5849162,112.256 21.2120112,111.815111 C32.9648045,111.345778 44.8030726,111.431111 56.3564246,108.814222 Z" id="Shape"></path>
            </g>
            <g id="#5e8f68ff" transform="translate(0.000000, 17.066667)" fill="#5E8F68">
                <path d="M131.332123,0.526222222 C133.255307,-0.981333333 135.377933,2.33244444 133.38352,3.584 C131.460335,5.09155556 129.337709,1.76355556 131.332123,0.526222222 Z" id="Shape"></path>
                <path d="M55.5586592,18.8728889 C56.7268156,18.9155556 59.0631285,19.0008889 60.2312849,19.0435556 C58.8921788,21.0488889 57.3963687,22.9404444 55.7438547,24.704 C55.6583799,22.7555556 55.6013966,20.8213333 55.5586592,18.8728889 Z" id="Shape"></path>
                <path d="M197.162011,19.2284444 C198.130726,19.1146667 200.053911,18.8871111 201.022626,18.7733333 C201.079609,20.5084444 201.136592,22.2293333 201.193575,23.9644444 C200.096648,23.9217778 197.888547,23.808 196.79162,23.7653333 C196.919832,22.2577778 197.033799,20.736 197.162011,19.2284444 Z" id="Shape"></path>
                <path d="M37.3382682,47.2604444 C43.4639665,40.2062222 49.2905028,32.2702222 58.1798883,28.5155556 C57.6955307,32.5973333 57.2681564,36.9777778 54.2195531,40.0782222 C51,43.6764444 49.6893855,49.9057778 43.8628492,49.9342222 C45.600838,47.0328889 47.6949721,44.3591111 49.9173184,41.8133333 C48.0083799,41.8702222 46.0994413,41.9128889 44.1905028,41.9413333 C42.523743,45.5537778 41.4837989,49.408 41.327095,53.3902222 C38.6631285,55.6657778 36.1843575,58.1688889 33.976257,60.9137778 C34.7597765,56.32 34.1044693,51.0435556 37.3382682,47.2604444 Z" id="Shape"></path>
                <path d="M196.948324,28.1457778 C205.310615,31.488 210.795251,38.8835556 216.963687,45.056 C221.06648,49.28 221.151955,55.3813333 221.921229,60.8426667 C219.513687,58.2684444 216.992179,55.808 214.356704,53.4897778 C214.898045,52.2666667 215.453631,51.0435556 216.009218,49.8204444 C213.601676,46.1084444 211.236872,41.7137778 206.293575,41.3155556 C207.860615,44.0604444 209.54162,46.7342222 211.165642,49.4364444 C210.15419,49.4648889 208.117039,49.4933333 207.105587,49.5217778 C204.128212,42.1262222 197.389944,36.4942222 196.948324,28.1457778 Z" id="Shape"></path>
                <path d="M33.0502793,36.2951111 C35.1444134,33.4506667 38.4067039,31.9288889 41.4410615,30.3075556 C41.4125698,32.896 42.0108939,35.6835556 40.8712291,38.1155556 C38.4209497,42.1831111 34.047486,44.7004444 31.6969274,48.8391111 C29.9304469,53.7031111 31.8821229,59.0506667 30.5145251,63.9857778 C29.0044693,67.1288889 26.5969274,69.7315556 24.5027933,72.4906667 C26.3547486,63.9715556 31.0843575,54.5422222 25.8418994,46.2933333 C26.0698324,45.9662222 26.5399441,45.312 26.7678771,44.9848889 C29.5885475,44.0746667 32.3379888,43.008 35.0874302,41.8844444 C34.4036313,40.0213333 33.7340782,38.1582222 33.0502793,36.2951111 Z" id="Shape"></path>
                <path d="M213.829609,29.9946667 C220.753073,32.7395556 224.642179,39.2248889 229.32905,44.5582222 C228.360335,48.9528889 226.650838,53.504 227.904469,58.0266667 C229.086872,62.9902222 230.710894,67.8684444 231.750838,72.8746667 C228.873184,69.4897778 225.62514,65.9484444 225.026816,61.3546667 C223.887151,55.9644444 225.28324,49.5502222 221.151955,45.1697778 C217.391061,40.8462222 212.575978,36.3662222 213.829609,29.9946667 Z" id="Shape"></path>
                <path d="M13.9608939,56.2631111 C15.1005587,54.8835556 16.3826816,53.632 17.7930168,52.5368889 C18.2203911,59.6906667 20.6136872,66.5884444 20.7988827,73.7422222 C20.3145251,81.8915556 16.2117318,89.9271111 9.7726257,94.9902222 C5.39916201,94.2506667 4.11703911,89.5004444 4.94329609,85.7173333 C6.12569832,79.0471111 6.6527933,71.8648889 10.6131285,66.1191111 C12.8639665,62.72 15.4282123,59.5484444 17.8357542,56.2488889 C16.8670391,56.2631111 14.9296089,56.2631111 13.9608939,56.2631111 Z M12.2798883,73.6995556 C13.9324022,71.5804444 15.4994413,69.3902222 17.0522346,67.2 C16.2402235,66.6168889 14.6304469,65.4648889 13.8326816,64.8817778 C12.6075419,67.6693333 11.7100559,70.6275556 12.2798883,73.6995556 Z" id="Shape"></path>
                <path d="M238.20419,59.9182222 C241.124581,60.032 242.563408,62.9617778 244.315642,64.896 C250.825978,73.4862222 252.848883,85.504 248.84581,95.616 C240.92514,93.5537778 237.263966,85.1342222 235.412011,77.9235556 C233.674022,71.808 234.742458,65.2231111 238.20419,59.9182222 Z M240.455028,64.7822222 C239.343855,70.2151111 242.136034,75.2497778 244.956704,79.6586667 C246.053631,74.2257778 243.247207,69.2053333 240.455028,64.7822222 Z M244.928212,93.2124444 C249.415642,92.8426667 246.751676,88.32 246.580726,85.5466667 C245.953911,88.0924444 245.398324,90.6382222 244.928212,93.2124444 Z" id="Shape"></path>
                <path d="M25.5284916,76.8284444 C29.9162011,73.4577778 32.0388268,68.2524444 35.1159218,63.8435556 C33.5061453,69.1626667 32.5089385,74.6382222 32.1100559,80.1706667 C30.6569832,80.4551111 29.2039106,80.7537778 27.750838,81.0382222 C28.4203911,88.9315556 25.7849162,96.5404444 24.4030726,104.220444 C23.4201117,101.731556 22.650838,99.0862222 23.2349162,96.4124444 C24.3603352,89.9271111 25.1865922,83.3991111 25.5284916,76.8284444 Z" id="Shape"></path>
                <path d="M219.727374,64.1564444 C220.382682,64.4408889 221.721788,65.0097778 222.377095,65.2942222 C224.243296,69.8168889 225.382961,75.9466667 231.181006,76.7004444 C230.99581,85.8595556 233.417598,94.848 232.847765,104.007111 C228.873184,97.2088889 227.078212,89.216 227.39162,81.3795556 C226.009777,80.7253333 224.627933,80.0711111 223.246089,79.4026667 C222.73324,74.1973333 221.451117,69.1057778 219.727374,64.1564444 Z" id="Shape"></path>
                <path d="M94.5209497,78.3644444 C99.3502793,78.1937778 93.8656425,84.1102222 91.4723464,81.6782222 C90.5321229,79.872 93.1106145,78.6346667 94.5209497,78.3644444 Z" id="Shape"></path>
                <path d="M94.6064246,91.392 C99.2932961,90.5386667 104.051397,90.1262222 108.823743,90.1404444 C104.592737,91.9182222 100.162291,93.1271111 95.7888268,94.4924444 C103.381844,99.0862222 111.972067,102.499556 117.228771,110.065778 C116.68743,110.051556 115.590503,110.037333 115.049162,110.023111 C107.413408,106.666667 101.202235,100.963556 94.35,96.3555556 C90.375419,93.0844444 85.0759777,95.5875556 80.5743017,96.0142222 C69.0209497,98.6311111 57.1826816,98.5457778 45.4298883,99.0151111 C48.2790503,98.4462222 51.1424581,97.9342222 54.0058659,97.4648889 C51.8547486,97.0097778 49.7036313,96.5262222 47.552514,96.0284444 C63.3938547,96.9244444 79.0642458,94.0088889 94.6064246,91.392 Z" id="Shape"></path>
                <path d="M16.0692737,90.624 C20.9555866,95.36 18.7047486,102.741333 19.1463687,108.785778 C18.1349162,109.368889 17.1234637,109.952 16.1120112,110.549333 C15.1575419,103.964444 14.2600559,97.152 16.0692737,90.624 Z" id="Shape"></path>
                <path d="M238.403631,90.7804444 C243.318436,96.3413333 239.628771,103.822222 238.403631,110.051556 C237.506145,108.714667 235.996089,107.505778 236.224022,105.728 C236.238268,100.664889 237.206983,95.6728889 238.403631,90.7804444 Z" id="Shape"></path>
                <path d="M6.86648045,98.56 C8.71843575,98.5173333 10.5561453,98.4604444 12.4081006,98.432 C12.3796089,101.262222 12.3368715,104.106667 12.2513966,106.951111 C9.97206704,104.490667 8.19134078,101.632 6.86648045,98.56 Z" id="Shape"></path>
                <path d="M243.817039,98.5031111 C245.697486,98.5031111 247.577933,98.5031111 249.472626,98.5173333 C248.290223,102.101333 246.224581,105.287111 242.720112,106.936889 C243.047765,104.120889 243.432402,101.304889 243.817039,98.5031111 Z" id="Shape"></path>
                <path d="M251.908659,106.012444 C253.475698,109.696 254.045531,113.678222 253.903073,117.660444 C252.834637,117.831111 250.697765,118.172444 249.62933,118.343111 C250.911453,121.856 251.694972,125.624889 249.999721,129.180444 C248.204749,126.392889 244.372626,123.648 245.512291,119.936 C247.691899,115.313778 252.250559,111.573333 251.908659,106.012444 Z" id="Shape"></path>
                <path d="M1.26787709,109.966222 C1.51005587,109.525333 1.96592179,108.629333 2.19385475,108.174222 C6.05446927,112.824889 9.95782123,117.802667 10.3851955,124.088889 C5.9547486,120.448 2.52150838,115.626667 1.26787709,109.966222 Z" id="Shape"></path>
                <path d="M244.087709,108.657778 C245.270112,109.269333 246.46676,109.895111 247.649162,110.506667 C245.953911,112.384 244.287151,114.289778 242.620391,116.195556 C242.150279,115.413333 241.694413,114.645333 241.238547,113.877333 C242.193017,112.142222 243.13324,110.407111 244.087709,108.657778 Z" id="Shape"></path>
                <path d="M10.4136872,110.293333 C12.6075419,109.084444 15.072067,112.782222 13.5477654,114.56 C11.3539106,115.797333 8.90363128,112.071111 10.4136872,110.293333 Z" id="Shape"></path>
                <path d="M19.6734637,121.315556 C17.7645251,118.101333 17.9782123,114.702222 20.6849162,112 C28.0927374,123.434667 27.5513966,137.614222 27.0243017,150.684444 C23.8902235,148.864 19.7589385,147.697778 18.149162,144.170667 C16.1405028,137.884444 17.8215084,131.242667 19.8301676,125.198222 C18.8614525,124.273778 17.8927374,123.349333 16.9382682,122.424889 C17.622067,122.140444 18.9896648,121.6 19.6734637,121.315556 Z M22.9215084,141.667556 C25.6424581,138.780444 21.3259777,135.708444 21.824581,132.522667 C22.123743,130.261333 22.7363128,128.056889 23.2349162,125.838222 C19.4027933,130.019556 18.5480447,137.656889 22.9215084,141.667556 Z" id="Shape"></path>
                <path d="M234.386313,111.758222 C237.434916,114.232889 237.178492,117.745778 235.910615,121.088 C236.622905,121.969778 237.335196,122.865778 238.061732,123.747556 C237.335196,124.060444 235.882123,124.686222 235.155587,124.999111 C237.491899,130.730667 239.272626,137.144889 237.491899,143.288889 C236.181285,147.427556 232.021508,149.418667 228.417318,151.196444 C228.303352,144.540444 228.217877,137.884444 228.331844,131.228444 C228.189385,128.256 230.084078,125.866667 231.60838,123.534222 C231.907542,119.480889 232.904749,115.527111 234.386313,111.758222 Z" id="Shape"></path>
                <path d="M2.93463687,121.912889 C5.18547486,123.377778 7.35083799,124.984889 9.43072626,126.691556 C8.46201117,127.132444 6.49608939,128.028444 5.5273743,128.483556 C4.45893855,126.364444 3.6896648,124.131556 2.93463687,121.912889 Z" id="Shape"></path>
                <path d="M12.3226257,139.605333 C12.7642458,135.111111 13.3910615,130.631111 14.8013966,126.321778 C15.2715084,134.471111 15.1432961,142.620444 15.1717877,150.769778 C14.1175978,150.314667 13.0634078,149.859556 12.0092179,149.418667 C12.6502793,148.280889 13.3055866,147.157333 13.946648,146.033778 C11.097486,143.985778 7.7924581,142.336 5.71256983,139.420444 C4.1027933,136.106667 4.75810056,132.252444 4.60139665,128.696889 C9.03184358,130.574222 9.85810056,134.954667 9.37374302,139.292444 C10.1145251,139.363556 11.5818436,139.52 12.3226257,139.605333 Z" id="Shape"></path>
                <path d="M240.341061,126.151111 C242.620391,130.247111 243.218715,134.883556 242.976536,139.505778 C244.301397,139.562667 245.640503,139.633778 246.965363,139.704889 C246.623464,137.884444 246.139106,136.064 246.053631,134.200889 C247.535196,132.053333 249.543855,130.346667 251.410056,128.540444 C250.840223,132.935111 250.996927,137.671111 248.860056,141.667556 C247.136313,142.904889 245.227374,143.843556 243.375419,144.867556 C242.69162,147.484444 241.893855,150.072889 240.910894,152.604444 C239.144413,143.857778 241.722905,134.968889 240.341061,126.151111 Z" id="Shape"></path>
                <path d="M14.174581,156.970667 C16.2972067,155.363556 18.0921788,151.978667 21.1977654,152.832 C25.0013966,153.472 28.5913408,154.979556 32.2382682,156.202667 C32.0103352,158.833778 31.725419,161.464889 31.3265363,164.081778 C27.3662011,161.123556 25.9701117,154.837333 20.5567039,154.225778 C21.3687151,157.44 23.2064246,160.184889 25.2863128,162.688 C21.0695531,161.92 17.1662011,160.071111 14.174581,156.970667 Z" id="Shape"></path>
                <path d="M232.32067,162.602667 C233.645531,159.032889 235.198324,155.562667 236.936313,152.177778 C238.318156,154.097778 239.685754,156.017778 241.067598,157.937778 C238.261173,159.715556 235.369274,161.294222 232.32067,162.602667 Z" id="Shape"></path>
                <path d="M223.488268,155.776 C226.750559,155.150222 230.027095,154.524444 233.289385,153.841778 C230.440223,157.169778 227.719274,160.611556 224.855866,163.925333 C224.343017,161.208889 223.887151,158.492444 223.488268,155.776 Z" id="Shape"></path>
                <path d="M214.655866,180.209778 C222.946927,172.202667 233.859218,167.452444 242.064804,159.331556 C241.908101,164.465778 241.779888,169.927111 238.774022,174.336 C236.850838,174.833778 234.343575,174.492444 233.004469,176.256 C229.998603,179.982222 228.132402,184.448 225.981285,188.686222 C225.01257,188.828444 223.07514,189.112889 222.12067,189.255111 C223.858659,184.419556 225.639385,179.598222 227.477095,174.805333 C223.901397,177.664 220.496648,180.721778 217.034916,183.722667 C218.146089,186.865778 219.285754,189.980444 220.439665,193.109333 C215.952235,195.100444 211.37933,196.920889 206.621229,198.129778 C208.815084,191.985778 210.795251,185.557333 214.655866,180.209778 Z" id="Shape"></path>
                <path d="M16.197486,162.048 C24.6594972,166.883556 32.0103352,173.312 39.7600559,179.171556 C44.774581,184.177778 46.2988827,191.544889 48.5354749,198.030222 C43.7916201,196.522667 39.1759777,194.588444 34.574581,192.696889 C36.3268156,189.710222 38.0932961,186.723556 39.8597765,183.751111 C35.927933,180.778667 31.9675978,177.820444 27.8790503,175.061333 C30.3578212,179.626667 32.2952514,184.462222 33.7340782,189.454222 C32.252514,189.184 30.7709497,188.899556 29.2893855,188.629333 C27.3092179,184.305778 25.9273743,179.569778 22.8930168,175.815111 C21.0837989,174.691556 18.9184358,174.364444 16.9240223,173.681778 C16.7815642,173.383111 16.5108939,172.785778 16.3826816,172.487111 C17.1234637,169.031111 16.8670391,165.489778 16.197486,162.048 Z" id="Shape"></path>
                <path d="M212.291061,172.316444 C214.755587,169.031111 217.505028,165.959111 220.52514,163.171556 C220.582123,165.404444 220.62486,167.637333 220.667598,169.884444 C217.875419,170.709333 215.097486,171.548444 212.291061,172.316444 Z" id="Shape"></path>
                <path d="M34.3181564,165.191111 C35.9564246,165.290667 37.5804469,165.390222 39.2044693,165.489778 C40.8,168.917333 42.0536313,172.572444 41.3555866,176.398222 C36.7541899,174.378667 35.172905,169.742222 34.3181564,165.191111 Z" id="Shape"></path>
                <path d="M204.341899,178.104889 C205.096927,178.062222 206.621229,177.962667 207.376257,177.92 C206.891899,182.357333 207.60419,187.136 205.709497,191.274667 C201.478492,196.778667 195.281564,200.291556 189.967877,204.643556 C190.381006,201.002667 190.19581,197.219556 191.306983,193.692444 C192.845531,191.957333 195.509497,191.943111 197.57514,191.104 C196.919832,192.568889 196.278771,194.033778 195.623464,195.498667 C197.261732,194.944 198.9,194.403556 200.552514,193.863111 C200.053911,191.374222 199.51257,188.899556 198.928492,186.424889 C200.438547,186.282667 201.934358,186.140444 203.430168,186.012444 C203.757821,183.381333 204.014246,180.736 204.341899,178.104889 Z" id="Shape"></path>
                <path d="M48.4215084,178.631111 C53.4075419,182.599111 55.3734637,188.942222 58.5787709,194.247111 C60.302514,193.550222 62.026257,192.867556 63.75,192.184889 C65.5164804,196.878222 66.6846369,201.742222 67.6106145,206.663111 C61.6986034,203.534222 56.0002793,199.651556 51.9259777,194.261333 C48.5497207,189.824 48.2078212,183.992889 48.4215084,178.631111 Z" id="Shape"></path>
                <path d="M69.9326816,202.026667 C79.1924581,200.504889 88.7513966,201.571556 97.1421788,205.880889 C91.0592179,206.392889 85.1899441,204.444444 79.1639665,204.032 C84.6058659,208.256 91.6432961,207.900444 98.1393855,207.829333 C95.774581,209.820444 93.452514,211.84 91.1589385,213.902222 C84.0360335,210.005333 76.0583799,207.587556 69.9326816,202.026667 Z" id="Shape"></path>
                <path d="M158.114246,205.112889 C167.103352,203.335111 176.035475,199.68 185.337989,202.112 C181.021508,206.165333 175.907263,209.521778 170.06648,210.844444 C165.493575,212.266667 161.063128,209.621333 156.746648,208.440889 C158.698324,207.957333 160.664246,207.488 162.615922,207.004444 C161.490503,206.535111 159.239665,205.582222 158.114246,205.112889 Z" id="Shape"></path>
                <path d="M100.831844,206.464 C102.327654,205.013333 106.330726,206.122667 106.031564,208.426667 C104.507263,209.621333 100.575419,208.696889 100.831844,206.464 Z" id="Shape"></path>
                <path d="M147.942737,208.725333 C150.321788,207.488 152.886034,206.663111 155.535754,206.236444 C153.470112,208.184889 150.692179,208.682667 147.942737,208.725333 Z" id="Shape"></path>
                <path d="M171.576536,212.494222 C177.217877,215.096889 183.486034,217.344 189.554749,214.698667 C190.096089,215.992889 190.608939,217.287111 191.136034,218.595556 C184.412011,223.544889 176.12095,225.507556 168.257263,227.854222 C167.317039,226.247111 166.391061,224.654222 165.450838,223.075556 C169.62486,222.904889 173.756145,222.193778 177.71648,220.814222 C174.539665,220.074667 171.348603,219.505778 168.12905,219.022222 C169.282961,216.846222 170.436872,214.670222 171.576536,212.494222 Z" id="Shape"></path>
                <path d="M57.8807263,214.001778 C62.1544693,214.883556 63.9636872,218.808889 65.2600559,222.535111 C61.2854749,221.226667 59.0631285,217.827556 57.8807263,214.001778 Z" id="Shape"></path>
                <path d="M67.0407821,219.832889 C70.2175978,215.381333 75.9301676,214.698667 81.001676,214.641778 C84.6058659,214.883556 87.4692737,217.372444 90.375419,219.249778 C86.3153631,219.491556 82.2410615,219.591111 78.1810056,219.761778 C81.6427374,222.876444 85.0332402,226.048 88.2670391,229.390222 C82.953352,228.963556 77.8248603,227.413333 72.8673184,225.521778 C70.9013966,223.658667 68.9782123,221.724444 67.0407821,219.832889 Z" id="Shape"></path>
                <path d="M87.9251397,222.364444 C89.6631285,222.407111 91.3868715,222.478222 93.1248603,222.549333 C93.2530726,223.616 93.4952514,225.763556 93.6234637,226.844444 C91.1589385,226.147556 89.3354749,224.426667 87.9251397,222.364444 Z" id="Shape"></path>
            </g>
            <g id="#27382eff" transform="translate(0.000000, 27.022222)" fill="#27382E">
                <path d="M79.7480447,6.07288889 C110.333799,-1.55022222 142.643296,-1.74933333 173.428492,4.94933333 C180.494413,6.41422222 187.189944,9.344 193.116201,13.4542222 C194.697486,9.78488889 196.506704,6.03022222 199.939944,3.72622222 C204.470112,9.23022222 208.202514,15.5306667 213.829609,20.0391111 C212.575978,26.4106667 217.391061,30.8906667 221.151955,35.2142222 C225.28324,39.5946667 223.887151,46.0088889 225.026816,51.3991111 C225.62514,55.9928889 228.873184,59.5342222 231.750838,62.9191111 C230.710894,57.9128889 229.086872,53.0346667 227.904469,48.0711111 C226.650838,43.5484444 228.360335,38.9973333 229.32905,34.6026667 C233.10419,39.6942222 238.831006,42.8088889 242.663128,47.8151111 C246.894134,52.9066667 251.709218,58.0977778 252.834637,64.8675556 C255.61257,75.3066667 249.657821,85.5751111 251.908659,96.0568889 C252.250559,101.617778 247.691899,105.358222 245.512291,109.980444 C244.372626,113.692444 248.204749,116.437333 249.999721,119.224889 C251.694972,115.669333 250.911453,111.900444 249.62933,108.387556 C250.697765,108.216889 252.834637,107.875556 253.903073,107.704889 C253.532682,115.171556 254.672346,122.794667 252.863128,130.119111 C251.068156,137.514667 243.973743,142.023111 242.064804,149.376 C233.859218,157.496889 222.946927,162.247111 214.655866,170.254222 C210.795251,175.601778 208.815084,182.030222 206.621229,188.174222 C211.37933,186.965333 215.952235,185.144889 220.439665,183.153778 C219.285754,180.024889 218.146089,176.910222 217.034916,173.767111 C220.496648,170.766222 223.901397,167.708444 227.477095,164.849778 C225.639385,169.642667 223.858659,174.464 222.12067,179.299556 C223.07514,179.157333 225.01257,178.872889 225.981285,178.730667 C228.132402,174.492444 229.998603,170.026667 233.004469,166.300444 C234.343575,164.536889 236.850838,164.878222 238.774022,164.380444 C236.352235,168.192 234.799441,172.529778 232.035754,176.113778 C225.155028,183.210667 216.322626,187.960889 208.786592,194.289778 C203.031285,199.267556 196.065084,202.709333 191.136034,208.64 C190.608939,207.331556 190.096089,206.037333 189.554749,204.743111 C183.486034,207.388444 177.217877,205.141333 171.576536,202.538667 C170.436872,204.714667 169.282961,206.890667 168.12905,209.066667 C171.348603,209.550222 174.539665,210.119111 177.71648,210.858667 C173.756145,212.238222 169.62486,212.949333 165.450838,213.12 C166.391061,214.698667 167.317039,216.291556 168.257263,217.898667 C167.374022,218.126222 165.621788,218.581333 164.738547,218.808889 C164.638827,222.193778 164.596089,225.592889 164.439385,228.977778 L161.960615,228.977778 C156.988827,226.759111 151.546927,226.588444 146.23324,227.384889 C135.691341,226.830222 125.092458,226.858667 114.564804,227.356444 C108.396369,226.929778 102.213687,227.029333 96.0452514,226.901333 C103.082682,222.392889 111.701397,223.829333 119.622067,223.303111 C117.599162,221.909333 115.576257,220.529778 113.567598,219.150222 C115.989385,217.998222 118.411173,216.846222 120.818715,215.651556 C115.846927,214.840889 110.818156,214.343111 105.860615,213.504 C110.362291,211.328 115.405307,211.541333 120.277374,211.669333 C119.978212,209.194667 121.644972,205.653333 118.909777,204.188444 C111.459218,199.879111 102.056983,200.149333 94.1790503,203.178667 C94.948324,208.668444 96.1164804,214.158222 95.774581,219.719111 C93.2673184,219.676444 90.7600559,219.633778 88.2670391,219.434667 C85.0332402,216.092444 81.6427374,212.920889 78.1810056,209.806222 C82.2410615,209.635556 86.3153631,209.536 90.375419,209.294222 C87.4692737,207.416889 84.6058659,204.928 81.001676,204.686222 C75.9301676,204.743111 70.2175978,205.425778 67.0407821,209.877333 C68.9782123,211.768889 70.9013966,213.703111 72.8673184,215.566222 C70.3030726,214.627556 67.7388268,213.731556 65.2600559,212.579556 C63.9636872,208.853333 62.1544693,204.928 57.8807263,204.046222 C50.1167598,195.527111 40.1731844,189.283556 30.8706704,182.570667 C24.3460894,177.891556 20.0438547,170.993778 16.9240223,163.726222 C18.9184358,164.408889 21.0837989,164.736 22.8930168,165.859556 C25.9273743,169.614222 27.3092179,174.350222 29.2893855,178.673778 C30.7709497,178.944 32.252514,179.228444 33.7340782,179.498667 C32.2952514,174.506667 30.3578212,169.671111 27.8790503,165.105778 C31.9675978,167.864889 35.927933,170.823111 39.8597765,173.795556 C38.0932961,176.768 36.3268156,179.754667 34.574581,182.741333 C39.1759777,184.632889 43.7916201,186.567111 48.5354749,188.074667 C46.2988827,181.589333 44.774581,174.222222 39.7600559,169.216 C32.0103352,163.356444 24.6594972,156.928 16.197486,152.092444 C16.8670391,155.534222 17.1234637,159.075556 16.3826816,162.531556 C13.4337989,156.928 14.2743017,150.328889 11.7955307,144.597333 C9.50195531,139.591111 4.62988827,136.248889 2.77793296,131.015111 C0.398882682,125.610667 0.769273743,119.594667 0.755027933,113.834667 C0.883240223,109.226667 0.370391061,104.576 1.26787709,100.010667 C2.52150838,105.671111 5.9547486,110.492444 10.3851955,114.133333 C9.95782123,107.847111 6.05446927,102.869333 2.19385475,98.2186667 C7.46480447,88.6328889 0.284916201,77.7102222 2.06564246,67.5413333 C2.63547486,58.9368889 9.81536313,53.2764444 13.9608939,46.3075556 C14.9296089,46.3075556 16.8670391,46.3075556 17.8357542,46.2933333 C15.4282123,49.5928889 12.8639665,52.7644444 10.6131285,56.1635556 C6.6527933,61.9093333 6.12569832,69.0915556 4.94329609,75.7617778 C4.11703911,79.5448889 5.39916201,84.2951111 9.7726257,85.0346667 C16.2117318,79.9715556 20.3145251,71.936 20.7988827,63.7866667 C20.6136872,56.6328889 18.2203911,49.7351111 17.7930168,42.5813333 C20.6421788,40.7466667 23.6765363,39.0257778 25.8418994,36.3377778 C31.0843575,44.5866667 26.3547486,54.016 24.5027933,62.5351111 C26.5969274,59.776 29.0044693,57.1733333 30.5145251,54.0302222 C31.8821229,49.0951111 29.9304469,43.7475556 31.6969274,38.8835556 C34.047486,34.7448889 38.4209497,32.2275556 40.8712291,28.16 C42.0108939,25.728 41.4125698,22.9404444 41.4410615,20.352 C47.4670391,15.36 50.9715084,7.60888889 58.5075419,4.42311111 C60.8438547,7.13955556 62.6103352,10.2684444 64.3340782,13.3831111 C69.1206704,10.2826667 74.2064246,7.52355556 79.7480447,6.07288889 Z M80.3036313,7.69422222 C71.3857542,9.81333333 67.4824022,18.5457778 61.0717877,24.0355556 C58.350838,30.2648889 55.3734637,36.9066667 49.5611732,40.8888889 C45.9142458,43.3208889 42.6234637,46.4924444 40.5150838,50.3608889 C39.5178771,55.2817778 39.603352,60.6577778 36.3695531,64.8106667 C34.3751397,67.0008889 35.1444134,69.9591111 35.1301676,72.6044444 C33.5773743,72.9457778 32.0103352,73.2871111 30.4432961,73.6 C31.0558659,75.0791111 31.6684358,76.5724444 32.2810056,78.0515556 C34.5888268,76.4444444 36.896648,74.8373333 39.3041899,73.3866667 C51.1851955,66.0053333 60.8296089,55.5946667 72.8388268,48.4124444 C77.4829609,44.544 81.5002793,39.8364444 86.9706704,37.0631111 C94.122067,33.5502222 98.6522346,26.6524444 105.575698,22.8408889 C114.607542,16.1564444 123.682123,9.45777778 132.15838,2.07644444 C114.75,1.00977778 97.1849162,3.54133333 80.3036313,7.69422222 Z M132.699721,2.46044444 C126.844693,7.19644444 122.528212,13.6248889 116.131844,17.6924444 C109.20838,22.6133333 103.567039,29.0417778 96.7860335,34.1333333 C100.803352,37.3191111 105.176816,40.0497778 109.023184,43.4488889 C110.162849,46.7057778 110.362291,50.2044444 111.160056,53.5608889 C119.736034,46.1653333 131.146927,43.4488889 141.289944,38.8266667 C151.77486,33.9057778 163.484916,32.384 173.927095,27.4915556 C178.200838,26.9795556 182.517318,27.5911111 186.791061,27.8471111 C185.437709,30.8906667 183.842179,33.8204444 182.688268,36.9635556 C167.217318,36.864 153.698045,45.696 141.945251,54.8693333 C138.58324,57.7991111 132.799441,59.0648889 132.343575,64.2417778 C130.83352,68.6791111 134.850838,71.7653333 137.400838,74.7093333 C141.845531,81.1235556 143.754469,89.7706667 150.977095,93.8951111 C156.817877,96.8533333 161.191341,101.788444 166.562011,105.415111 C172.858659,109.568 175.024022,117.745778 181.463128,121.799111 C190.381006,127.288889 199.142179,133.418667 205.894693,141.511111 C209.399162,146.147556 215.752793,146.474667 220.553631,149.162667 C221.750279,145.208889 224.12933,141.781333 225.72486,137.998222 C224.713408,125.013333 225.924302,111.687111 230.782123,99.5413333 C229.357542,94.5493333 226.807542,89.9128889 225.696369,84.7928889 C224.015363,80.3271111 224.328771,74.8515556 220.468156,71.4951111 C220.425419,69.0346667 220.268715,66.5315556 218.958101,64.3555556 C216.550559,60.0746667 217.97514,54.8266667 216.237151,50.4462222 C212.789665,46.6346667 208.92905,43.2213333 204.88324,40.0782222 C198.743296,33.6213333 196.122067,24.6328889 189.198603,18.9013333 C185.53743,12.8853333 179.853352,7.96444444 172.815922,6.51377778 C161.860894,4.096 150.706425,2.65955556 139.523464,1.90577778 C137.272626,1.99111111 134.779609,1.36533333 132.699721,2.46044444 Z M55.5586592,8.91733333 C55.6013966,10.8657778 55.6583799,12.8 55.7438547,14.7484444 C57.3963687,12.9848889 58.8921788,11.0933333 60.2312849,9.088 C59.0631285,9.04533333 56.7268156,8.96 55.5586592,8.91733333 Z M197.162011,9.27288889 C197.033799,10.7804444 196.919832,12.3022222 196.79162,13.8097778 C197.888547,13.8524444 200.096648,13.9662222 201.193575,14.0088889 C201.136592,12.2737778 201.079609,10.5528889 201.022626,8.81777778 C200.053911,8.93155556 198.130726,9.15911111 197.162011,9.27288889 Z M37.3382682,37.3048889 C34.1044693,41.088 34.7597765,46.3644444 33.976257,50.9582222 C36.1843575,48.2133333 38.6631285,45.7102222 41.327095,43.4346667 C41.4837989,39.4524444 42.523743,35.5982222 44.1905028,31.9857778 C46.0994413,31.9573333 48.0083799,31.9146667 49.9173184,31.8577778 C47.6949721,34.4035556 45.600838,37.0773333 43.8628492,39.9786667 C49.6893855,39.9502222 51,33.7208889 54.2195531,30.1226667 C57.2681564,27.0222222 57.6955307,22.6417778 58.1798883,18.56 C49.2905028,22.3146667 43.4639665,30.2506667 37.3382682,37.3048889 Z M196.948324,18.1902222 C197.389944,26.5386667 204.128212,32.1706667 207.105587,39.5662222 C208.117039,39.5377778 210.15419,39.5093333 211.165642,39.4808889 C209.54162,36.7786667 207.860615,34.1048889 206.293575,31.36 C211.236872,31.7582222 213.601676,36.1528889 216.009218,39.8648889 C215.453631,41.088 214.898045,42.3111111 214.356704,43.5342222 C216.992179,45.8524444 219.513687,48.3128889 221.921229,50.8871111 C221.151955,45.4257778 221.06648,39.3244444 216.963687,35.1004444 C210.795251,28.928 205.310615,21.5324444 196.948324,18.1902222 Z M167.487989,32.384 C167.559218,33.4933333 167.701676,35.6977778 167.772905,36.8071111 C169.553631,36.4373333 171.334358,36.0675556 173.100838,35.6835556 C175.494134,32.6542222 179.269274,31.6728889 182.688268,30.2791111 C177.531285,30.1368889 172.360056,30.6488889 167.487989,32.384 Z M130.05,47.3031111 C126.958659,50.1902222 122.314525,47.8862222 118.895531,50.1475556 C112.926536,52.9066667 112.285475,60.2026667 110.462011,65.7351111 C110.248324,63.2035556 110.09162,60.672 109.892179,58.1404444 C106.786592,57.856 103.652514,57.6568889 100.603911,56.9315556 C103.66676,56.1208889 106.758101,55.424 109.792458,54.4995556 C108.894972,53.8453333 107.1,52.5226667 106.202514,51.8542222 C107.228212,49.2942222 109.265363,45.3262222 106.04581,43.5342222 C102.982961,41.088 97.8687151,38.1866667 94.6064246,41.9271111 C94.4212291,46.1084444 95.546648,50.4746667 92.9111732,54.1724444 C94.4639665,54.5564444 96.002514,54.9262222 97.5553073,55.296 C95.5608939,58.4106667 95.8173184,62.0657778 96.4156425,65.5502222 C89.1360335,68.5084444 82.2980447,72.32 75.7734637,76.6577778 C66.527933,78.7911111 57.1541899,80.6968889 47.8374302,82.5742222 C47.7662011,83.456 47.623743,85.2053333 47.552514,86.0728889 C49.7036313,86.5706667 51.8547486,87.0542222 54.0058659,87.5093333 C51.1424581,87.9786667 48.2790503,88.4906667 45.4298883,89.0595556 C39.8027933,89.5004444 34.1187151,89.6711111 28.5486034,88.6471111 C27.5941341,92.3022222 25.8418994,95.8008889 25.4430168,99.5697778 C26.5826816,103.651556 27.8363128,107.676444 27.9930168,111.943111 C31.2553073,120.647111 30.1868715,130.048 30.3150838,139.093333 C32.5374302,142.919111 34.4606145,146.887111 35.2013966,151.296 C37.053352,151.580444 38.9053073,151.850667 40.7430168,152.177778 C42.1675978,161.095111 52.0541899,164.096 56.2851955,171.264 C58.350838,174.293333 59.7326816,178.133333 63.2086592,179.868444 C67.1689944,181.959111 68.1519553,186.709333 70.3030726,190.293333 C76.1865922,186.24 84.7768156,185.528889 90.5891061,190.065778 C93.5807263,191.701333 96.9997207,192.824889 100.447207,192.725333 C105.148324,192.085333 108.538827,196.081778 112.898045,197.077333 C117.413966,197.959111 120.405587,201.514667 123.838827,204.202667 C128.226536,203.534222 132.899162,202.993778 136.660056,200.462222 C141.104749,197.262222 146.518156,195.939556 151.304749,193.365333 C156.632682,192.512 162.430726,192.540444 167.103352,189.411556 C172.630726,185.415111 180.095531,186.951111 185.551676,190.264889 C186.805307,186.723556 187.987709,183.082667 190.110335,179.939556 C191.634637,178.602667 193.671788,177.934222 195.039385,176.412444 C200.509777,169.258667 206.250838,162.247111 212.946369,156.16 C206.364804,151.594667 199.127933,148.024889 191.378212,145.905778 C185.907821,144.497778 182.032961,140.259556 178.186592,136.419556 C173.969832,132.280889 167.331285,133.546667 162.402235,130.801778 C154.923184,126.549333 146.817318,123.448889 139.737151,118.499556 C135.15,123.790222 130.975978,129.422222 126.346089,134.698667 C123.126536,138.183111 122.513966,143.886222 117.670391,145.763556 C112.02905,148.494222 108.980447,154.183111 104.450279,158.208 C97.9399441,162.531556 90.7458101,166.087111 85.4178771,171.932444 C82.5544693,176.256 80.4318436,181.205333 76.5142458,184.732444 C73.9357542,186.083556 70.801676,185.130667 67.9952514,185.358222 C68.1519553,180.977778 66.5421788,175.587556 69.6050279,171.918222 C75.7164804,167.708444 82.198324,163.712 86.7142458,157.653333 C91.0449721,151.665778 95.0907821,145.365333 100.489944,140.231111 C102.541341,138.339556 106.060056,137.784889 107.000279,134.883556 C110.177095,123.377778 114.863966,112.184889 115.049162,100.067556 C115.590503,100.081778 116.68743,100.096 117.228771,100.110222 C126.502793,97.7351111 134.679888,91.7048889 140.335475,84.0817778 C135.947765,86.784 131.930447,90.3822222 126.71648,91.392 C130.548603,88.0782222 134.694134,85.1626667 138.640223,82.0195556 C135.506145,76.1457778 129.77933,71.5093333 129.43743,64.4266667 C127.94162,64.5404444 126.460056,64.6684444 124.978492,64.768 C127.613966,60.7573333 131.332123,57.6568889 135.905028,56.0782222 C143.469553,53.2337778 147.843017,45.7386667 155.222346,42.6097778 C158.413408,41.088 161.70419,39.808 164.96648,38.4711111 C164.325419,36.6364444 163.655866,34.8017778 162.972067,32.9813333 C151.931564,37.5324444 139.737151,39.936 130.05,47.3031111 Z M83.4377095,49.7493333 C83.252514,53.7457778 87.6544693,54.6702222 90.4039106,56.2488889 C91.4723464,51.6693333 92.2701117,47.0044444 92.2843575,42.2826667 C94.0223464,40.32 95.7460894,38.3431111 97.3843575,36.2808889 C90.7030726,37.2622222 81.9418994,41.6711111 83.4377095,49.7493333 Z M61.9407821,61.8808889 C55.7438547,68.9208889 44.8030726,71.0826667 41.0849162,80.3697778 C48.2932961,80.5973333 55.872067,80.0568889 62.3396648,76.6008889 C67.8955307,73.5857778 74.9614525,75.4204444 80.0899441,71.424 C84.2924581,68.608 89.0648045,66.9013333 93.6092179,64.7537778 C93.5949721,63.1608889 93.5807263,61.568 93.5664804,59.9751111 C90.4181564,58.4106667 87.0134078,57.3297778 83.9932961,55.5093333 C82.0701117,53.3475556 81.3293296,50.4746667 80.2181564,47.872 C74.4058659,52.9351111 66.898324,55.8222222 61.9407821,61.8808889 Z M238.20419,49.9626667 C234.742458,55.2675556 233.674022,61.8524444 235.412011,67.968 C237.263966,75.1786667 240.92514,83.5982222 248.84581,85.6604444 C252.848883,75.5484444 250.825978,63.5306667 244.315642,54.9404444 C242.563408,53.0062222 241.124581,50.0764444 238.20419,49.9626667 Z M25.5284916,66.8728889 C25.1865922,73.4435556 24.3603352,79.9715556 23.2349162,86.4568889 C22.650838,89.1306667 23.4201117,91.776 24.4030726,94.2648889 C25.7849162,86.5848889 28.4203911,78.976 27.750838,71.0826667 C29.2039106,70.7982222 30.6569832,70.4995556 32.1100559,70.2151111 C32.5089385,64.6826667 33.5061453,59.2071111 35.1159218,53.888 C32.0388268,58.2968889 29.9162011,63.5022222 25.5284916,66.8728889 Z M219.727374,54.2008889 C221.451117,59.1502222 222.73324,64.2417778 223.246089,69.4471111 C224.627933,70.1155556 226.009777,70.7697778 227.39162,71.424 C227.078212,79.2604444 228.873184,87.2533333 232.847765,94.0515556 C233.417598,84.8924444 230.99581,75.904 231.181006,66.7448889 C225.382961,65.9911111 224.243296,59.8613333 222.377095,55.3386667 C221.721788,55.0542222 220.382682,54.4853333 219.727374,54.2008889 Z M16.0692737,80.6684444 C14.2600559,87.1964444 15.1575419,94.0088889 16.1120112,100.593778 C17.1234637,99.9964444 18.1349162,99.4133333 19.1463687,98.8302222 C18.7047486,92.7857778 20.9555866,85.4044444 16.0692737,80.6684444 Z M31.2837989,81.3226667 C30.9846369,83.2142222 30.6997207,85.12 30.4148045,87.0115556 C35.5717877,89.2871111 41.027933,88.4764444 46.0424581,86.2862222 C44.4469274,79.8435556 36.2555866,81.5502222 31.2837989,81.3226667 Z M238.403631,80.8248889 C237.206983,85.7173333 236.238268,90.7093333 236.224022,95.7724444 C235.996089,97.5502222 237.506145,98.7591111 238.403631,100.096 C239.628771,93.8666667 243.318436,86.3857778 238.403631,80.8248889 Z M6.86648045,88.6044444 C8.19134078,91.6764444 9.97206704,94.5351111 12.2513966,96.9955556 C12.3368715,94.1511111 12.3796089,91.3066667 12.4081006,88.4764444 C10.5561453,88.5048889 8.71843575,88.5617778 6.86648045,88.6044444 Z M117.556425,103.281778 C116.772905,107.064889 116.060615,110.876444 115.419553,114.688 C119.379888,114.887111 123.439944,114.773333 127.286313,115.939556 C128.027095,117.361778 128.668156,118.840889 129.195251,120.362667 C126.431564,116.124444 120.690503,116.124444 116.388268,117.632 C110.803911,122.865778 111.117318,131.328 108.139944,137.941333 C105.490223,141.525333 100.803352,142.776889 97.8259777,146.062222 C92.9396648,150.826667 90.6318436,157.454222 86.1586592,162.545778 C86.8282123,163.228444 88.1530726,164.593778 88.8226257,165.276444 C94.0081006,162.688 99.150838,159.815111 103.424581,155.861333 C105.547207,153.984 105.946089,150.926222 107.869274,148.906667 C111.530447,146.204444 116.003631,144.810667 119.565084,141.966222 C121.758939,139.107556 122.157821,135.367111 122.955587,131.953778 C128.368994,132.423111 131.944693,126.307556 129.651117,121.557333 C133.326536,121.713778 135.976257,119.082667 138.440782,116.750222 C132.970391,113.479111 126.574022,111.488 122.214804,106.595556 C130.420391,106.254222 135.434916,113.436444 142.044972,116.935111 C144.181844,118.599111 146.532402,116.565333 148.455587,115.541333 C153.341899,112.512 156.889106,106.296889 155.82067,100.551111 C153.128212,97.3368889 149.110894,95.3742222 145.136313,94.208 C140.178771,95.6444444 136.261173,100.138667 130.676816,99.9537778 C135.235475,96.512 141.589106,94.3928889 142.714525,88.0355556 C135.363687,94.7057778 126.844693,99.7831111 117.556425,103.281778 Z M243.817039,88.5475556 C243.432402,91.3493333 243.047765,94.1653333 242.720112,96.9813333 C246.224581,95.3315556 248.290223,92.1457778 249.472626,88.5617778 C247.577933,88.5475556 245.697486,88.5475556 243.817039,88.5475556 Z M244.087709,98.7022222 C243.13324,100.451556 242.193017,102.186667 241.238547,103.921778 C241.694413,104.689778 242.150279,105.457778 242.620391,106.24 C244.287151,104.334222 245.953911,102.428444 247.649162,100.551111 C246.46676,99.9395556 245.270112,99.3137778 244.087709,98.7022222 Z M10.4136872,100.337778 C8.90363128,102.115556 11.3539106,105.841778 13.5477654,104.604444 C15.072067,102.826667 12.6075419,99.1288889 10.4136872,100.337778 Z M19.6734637,111.36 C18.9896648,111.644444 17.622067,112.184889 16.9382682,112.469333 C17.8927374,113.393778 18.8614525,114.318222 19.8301676,115.242667 C17.8215084,121.287111 16.1405028,127.928889 18.149162,134.215111 C19.7589385,137.742222 23.8902235,138.908444 27.0243017,140.728889 C27.5513966,127.658667 28.0927374,113.479111 20.6849162,102.044444 C17.9782123,104.746667 17.7645251,108.145778 19.6734637,111.36 Z M234.386313,101.802667 C232.904749,105.571556 231.907542,109.525333 231.60838,113.578667 C230.084078,115.911111 228.189385,118.300444 228.331844,121.272889 C228.217877,127.928889 228.303352,134.584889 228.417318,141.240889 C232.021508,139.463111 236.181285,137.472 237.491899,133.333333 C239.272626,127.189333 237.491899,120.775111 235.155587,115.043556 C235.882123,114.730667 237.335196,114.104889 238.061732,113.792 C237.335196,112.910222 236.622905,112.014222 235.910615,111.132444 C237.178492,107.790222 237.434916,104.277333 234.386313,101.802667 Z M155.564246,111.374222 C153.512849,115.555556 148.754749,117.134222 145.264525,119.808 C148.526816,121.756444 152.244972,122.197333 155.963128,121.770667 C158.342179,124.544 160.365084,128.099556 164.068994,129.265778 C169.553631,131.029333 175.437151,131.512889 180.665363,134.030222 C184.127095,137.173333 186.093017,142.293333 190.97933,143.601778 C196.435475,145.322667 201.834637,147.185778 207.148324,149.347556 C207.803631,144.554667 203.572626,141.240889 200.509777,138.254222 C195.438268,134.200889 190.822626,129.436444 184.725419,126.862222 C178.072626,123.875556 174.525419,117.191111 170.109218,111.786667 C167.160335,107.875556 162.858101,105.372444 159.040223,102.442667 C157.900559,105.429333 156.946089,108.501333 155.564246,111.374222 Z M2.93463687,111.957333 C3.6896648,114.176 4.45893855,116.408889 5.5273743,118.528 C6.49608939,118.072889 8.46201117,117.176889 9.43072626,116.736 C7.35083799,115.029333 5.18547486,113.422222 2.93463687,111.957333 Z M12.3226257,129.649778 C11.5818436,129.564444 10.1145251,129.408 9.37374302,129.336889 C9.85810056,124.999111 9.03184358,120.618667 4.60139665,118.741333 C4.75810056,122.296889 4.1027933,126.151111 5.71256983,129.464889 C7.7924581,132.380444 11.097486,134.030222 13.946648,136.078222 C13.3055866,137.201778 12.6502793,138.325333 12.0092179,139.463111 C13.0634078,139.904 14.1175978,140.359111 15.1717877,140.814222 C15.1432961,132.664889 15.2715084,124.515556 14.8013966,116.366222 C13.3910615,120.675556 12.7642458,125.155556 12.3226257,129.649778 Z M240.341061,116.195556 C241.722905,125.013333 239.144413,133.902222 240.910894,142.648889 C241.893855,140.117333 242.69162,137.528889 243.375419,134.912 C245.227374,133.888 247.136313,132.949333 248.860056,131.712 C250.996927,127.715556 250.840223,122.979556 251.410056,118.584889 C249.543855,120.391111 247.535196,122.097778 246.053631,124.245333 C246.139106,126.108444 246.623464,127.928889 246.965363,129.749333 C245.640503,129.678222 244.301397,129.607111 242.976536,129.550222 C243.218715,124.928 242.620391,120.291556 240.341061,116.195556 Z M14.174581,147.015111 C17.1662011,150.115556 21.0695531,151.964444 25.2863128,152.732444 C23.2064246,150.229333 21.3687151,147.484444 20.5567039,144.270222 C25.9701117,144.881778 27.3662011,151.168 31.3265363,154.126222 C31.725419,151.509333 32.0103352,148.878222 32.2382682,146.247111 C28.5913408,145.024 25.0013966,143.516444 21.1977654,142.876444 C18.0921788,142.023111 16.2972067,145.408 14.174581,147.015111 Z M232.32067,152.647111 C235.369274,151.338667 238.261173,149.76 241.067598,147.982222 C239.685754,146.062222 238.318156,144.142222 236.936313,142.222222 C235.198324,145.607111 233.645531,149.077333 232.32067,152.647111 Z M223.488268,145.820444 C223.887151,148.536889 224.343017,151.253333 224.855866,153.969778 C227.719274,150.656 230.440223,147.214222 233.289385,143.886222 C230.027095,144.568889 226.750559,145.194667 223.488268,145.820444 Z M207.148324,150.727111 C209.128492,151.310222 211.122905,151.864889 213.131564,152.419556 C213.14581,151.153778 213.188547,148.608 213.217039,147.342222 C210.652793,147.399111 208.644134,148.707556 207.148324,150.727111 Z M212.291061,162.360889 C215.097486,161.592889 217.875419,160.753778 220.667598,159.928889 C220.62486,157.681778 220.582123,155.448889 220.52514,153.216 C217.505028,156.003556 214.755587,159.075556 212.291061,162.360889 Z M34.3181564,155.235556 C35.172905,159.786667 36.7541899,164.423111 41.3555866,166.442667 C42.0536313,162.616889 40.8,158.961778 39.2044693,155.534222 C37.5804469,155.434667 35.9564246,155.335111 34.3181564,155.235556 Z M77.2692737,169.187556 C78.6368715,170.624 80.0044693,172.046222 81.4005587,173.468444 C83.0958101,171.178667 84.8622905,168.917333 86.2298883,166.4 C83.5374302,162.460444 80.0756983,167.936 77.2692737,169.187556 Z M204.341899,168.149333 C204.014246,170.780444 203.757821,173.425778 203.430168,176.056889 C201.934358,176.184889 200.438547,176.327111 198.928492,176.469333 C199.51257,178.944 200.053911,181.418667 200.552514,183.907556 C198.9,184.448 197.261732,184.988444 195.623464,185.543111 C196.278771,184.078222 196.919832,182.613333 197.57514,181.148444 C195.509497,181.987556 192.845531,182.001778 191.306983,183.736889 C190.19581,187.264 190.381006,191.047111 189.967877,194.688 C195.281564,190.336 201.478492,186.823111 205.709497,181.319111 C207.60419,177.180444 206.891899,172.401778 207.376257,167.964444 C206.621229,168.007111 205.096927,168.106667 204.341899,168.149333 Z M48.4215084,168.675556 C48.2078212,174.037333 48.5497207,179.868444 51.9259777,184.305778 C56.0002793,189.696 61.6986034,193.578667 67.6106145,196.707556 C66.6846369,191.786667 65.5164804,186.922667 63.75,182.229333 C62.026257,182.912 60.302514,183.594667 58.5787709,184.291556 C55.3734637,178.986667 53.4075419,172.643556 48.4215084,168.675556 Z M70.1036313,183.424 C74.6622905,184.078222 79.1069832,181.063111 79.577095,176.355556 C78.8648045,174.179556 77.6539106,172.202667 76.5854749,170.197333 C71.9413408,173.041778 69.3201117,177.948444 70.1036313,183.424 Z M69.9326816,192.071111 C76.0583799,197.632 84.0360335,200.049778 91.1589385,203.946667 C93.452514,201.884444 95.774581,199.864889 98.1393855,197.873778 C91.6432961,197.944889 84.6058659,198.300444 79.1639665,194.076444 C85.1899441,194.488889 91.0592179,196.437333 97.1421788,195.925333 C88.7513966,191.616 79.1924581,190.549333 69.9326816,192.071111 Z M158.114246,195.157333 C159.239665,195.626667 161.490503,196.579556 162.615922,197.048889 C160.664246,197.532444 158.698324,198.001778 156.746648,198.485333 C161.063128,199.665778 165.493575,202.311111 170.06648,200.888889 C175.907263,199.566222 181.021508,196.209778 185.337989,192.156444 C176.035475,189.724444 167.103352,193.379556 158.114246,195.157333 Z M100.831844,196.508444 C100.575419,198.741333 104.507263,199.665778 106.031564,198.471111 C106.330726,196.167111 102.327654,195.057778 100.831844,196.508444 Z M147.942737,198.769778 C150.692179,198.727111 153.470112,198.229333 155.535754,196.280889 C152.886034,196.707556 150.321788,197.532444 147.942737,198.769778 Z M141.874022,204.188444 C139.238547,205.895111 140.748603,209.180444 140.876816,211.669333 C145.748883,211.584 150.877374,210.972444 155.322067,213.447111 C150.478492,214.741333 145.421229,214.385778 140.477933,214.784 C141.532123,217.130667 144.067877,217.656889 146.275978,218.439111 C144.965363,220.046222 143.668994,221.681778 142.386872,223.317333 C149.196369,223.672889 156.062849,223.630222 162.772626,224.981333 C162.715642,218.609778 163.898045,212.380444 165.30838,206.208 C166.134637,203.107556 162.573184,201.671111 160.108659,201.400889 C154.011453,200.675556 147.144972,200.561778 141.874022,204.188444 Z M123.240503,208.042667 C123.026816,213.404444 122.4,218.837333 123.18352,224.184889 C127.044134,227.484444 132.970391,225.265778 137.671508,225.635556 C138.725698,219.690667 138.440782,213.632 137.571788,207.672889 C132.827933,206.577778 127.927374,206.776889 123.240503,208.042667 Z M87.9251397,212.408889 C89.3354749,214.471111 91.1589385,216.192 93.6234637,216.888889 C93.4952514,215.808 93.2530726,213.660444 93.1248603,212.593778 C91.3868715,212.522667 89.6631285,212.451556 87.9251397,212.408889 Z" id="Shape"></path>
                <path d="M33.0502793,26.3395556 C33.7340782,28.2026667 34.4036313,30.0657778 35.0874302,31.9288889 C32.3379888,33.0524444 29.5885475,34.1191111 26.7678771,35.0293333 C28.7907821,32.0853333 30.9418994,29.2266667 33.0502793,26.3395556 Z" id="Shape"></path>
                <path d="M99.3787709,44.288 C100.489944,44.3022222 102.712291,44.3022222 103.823464,44.3164444 C103.809218,45.2408889 103.76648,47.0755556 103.737989,48 C102.669553,48.0142222 100.532682,48.0426667 99.4784916,48.0568889 C99.45,47.1182222 99.4072626,45.2266667 99.3787709,44.288 Z" id="Shape"></path>
                <path d="M12.2798883,63.744 C11.7100559,60.672 12.6075419,57.7137778 13.8326816,54.9262222 C14.6304469,55.5093333 16.2402235,56.6613333 17.0522346,57.2444444 C15.4994413,59.4346667 13.9324022,61.6248889 12.2798883,63.744 Z" id="Shape"></path>
                <path d="M240.455028,54.8266667 C243.247207,59.2497778 246.053631,64.2702222 244.956704,69.7031111 C242.136034,65.2942222 239.343855,60.2595556 240.455028,54.8266667 Z" id="Shape"></path>
                <path d="M113.824022,67.2568889 C115.433799,61.7102222 120.163408,58.2542222 125.605307,56.9315556 C122.927095,61.5964444 118.539385,64.8391111 113.824022,67.2568889 Z" id="Shape"></path>
                <path d="M99.2363128,68.9208889 C101.358939,67.6693333 103.809218,67.3564444 106.21676,67.1146667 C106.259497,67.6835556 106.330726,68.8497778 106.373464,69.4328889 C103.994413,69.3191111 101.601117,69.1768889 99.2363128,68.9208889 Z" id="Shape"></path>
                <path d="M93.0821229,73.2728889 C94.2075419,73.1448889 96.4441341,72.8746667 97.5553073,72.7466667 C96.0310056,74.5671111 94.4497207,76.3448889 92.8969274,78.1511111 C92.9539106,76.5297778 93.0251397,74.8942222 93.0821229,73.2728889 Z" id="Shape"></path>
                <path d="M244.928212,83.2568889 C245.398324,80.6826667 245.953911,78.1368889 246.580726,75.5911111 C246.751676,78.3644444 249.415642,82.8871111 244.928212,83.2568889 Z" id="Shape"></path>
                <path d="M106.416201,83.6693333 C109.47905,84.0391111 112.556145,84.9635556 114.108939,87.8648889 C111.017598,87.5662222 108.168436,86.3288889 106.416201,83.6693333 Z" id="Shape"></path>
                <path d="M141.931006,105.685333 C142.329888,101.916444 144.495251,99.4133333 148.34162,99.0435556 C146.917039,101.873778 144.723184,104.149333 141.931006,105.685333 Z" id="Shape"></path>
                <path d="M143.725978,115.712 C145.919832,111.616 148.384358,107.164444 153.199441,105.770667 C153.498603,111.516444 148.256145,113.976889 143.725978,115.712 Z" id="Shape"></path>
                <path d="M22.9215084,131.712 C18.5480447,127.701333 19.4027933,120.064 23.2349162,115.882667 C22.7363128,118.101333 22.123743,120.305778 21.824581,122.567111 C21.3259777,125.752889 25.6424581,128.824889 22.9215084,131.712 Z" id="Shape"></path>
                <path d="M123.568156,130.119111 C124.194972,126.407111 124.921508,122.382222 128.126816,119.936 C127.699441,123.733333 126.687989,127.630222 123.568156,130.119111 Z" id="Shape"></path>
            </g>
            <g id="#ffccccff" transform="translate(29.916201, 25.600000)" fill="#FFCCCC">
                <path d="M44.7460894,1.664 C47.0681564,0.938666667 47.8374302,1.74933333 47.0681564,4.06755556 C44.7603352,4.76444444 43.9910615,3.968 44.7460894,1.664 Z" id="Shape"></path>
                <path d="M137.571788,33.8062222 C142.443855,32.0711111 147.615084,31.5591111 152.772067,31.7013333 C149.353073,33.0951111 145.577933,34.0764444 143.184637,37.1057778 C141.418156,37.4897778 139.63743,37.8595556 137.856704,38.2293333 C137.785475,37.12 137.643017,34.9155556 137.571788,33.8062222 Z" id="Shape"></path>
                <path d="M100.133799,48.7253333 C109.82095,41.3582222 122.015363,38.9546667 133.055866,34.4035556 C133.739665,36.224 134.409218,38.0586667 135.050279,39.8933333 C131.787989,41.2302222 128.497207,42.5102222 125.306145,44.032 C117.926816,47.1608889 113.553352,54.656 105.988827,57.5004444 C101.415922,59.0791111 97.6977654,62.1795556 95.0622905,66.1902222 C96.5438547,66.0906667 98.025419,65.9626667 99.5212291,65.8488889 C99.8631285,72.9315556 105.589944,77.568 108.724022,83.4417778 C104.777933,86.5848889 100.632402,89.5004444 96.8002793,92.8142222 C102.014246,91.8044444 106.031564,88.2062222 110.419274,85.504 C104.763687,93.1271111 96.5865922,99.1573333 87.3125698,101.532444 C82.0558659,93.9662222 73.4656425,90.5528889 65.8726257,85.9591111 C70.2460894,84.5937778 74.6765363,83.3848889 78.9075419,81.6071111 C74.1351955,81.5928889 69.377095,82.0053333 64.6902235,82.8586667 C49.1480447,85.4755556 33.4776536,88.3911111 17.6363128,87.4951111 C17.7075419,86.6275556 17.85,84.8782222 17.9212291,83.9964444 C27.2379888,82.1191111 36.6117318,80.2133333 45.8572626,78.08 C52.3818436,73.7422222 59.2198324,69.9306667 66.4994413,66.9724444 C65.9011173,63.488 65.6446927,59.8328889 67.6391061,56.7182222 C66.0863128,56.3484444 64.5477654,55.9786667 62.9949721,55.5946667 C65.6304469,51.8968889 64.5050279,47.5306667 64.6902235,43.3493333 C67.952514,39.6088889 73.0667598,42.5102222 76.1296089,44.9564444 C79.349162,46.7484444 77.3120112,50.7164444 76.2863128,53.2764444 C77.1837989,53.9448889 78.9787709,55.2675556 79.876257,55.9217778 C76.8418994,56.8462222 73.7505587,57.5431111 70.6877095,58.3537778 C73.7363128,59.0791111 76.8703911,59.2782222 79.9759777,59.5626667 C80.175419,62.0942222 80.3321229,64.6257778 80.5458101,67.1573333 C82.3692737,61.6248889 83.0103352,54.3288889 88.9793296,51.5697778 C92.398324,49.3084444 97.0424581,51.6124444 100.133799,48.7253333 Z M69.4625698,45.7102222 C69.4910615,46.6488889 69.5337989,48.5404444 69.5622905,49.4791111 C70.6164804,49.4648889 72.753352,49.4364444 73.8217877,49.4222222 C73.8502793,48.4977778 73.8930168,46.6631111 73.9072626,45.7386667 C72.7960894,45.7244444 70.573743,45.7244444 69.4625698,45.7102222 Z M83.9078212,68.6791111 C88.6231844,66.2613333 93.0108939,63.0186667 95.6891061,58.3537778 C90.2472067,59.6764444 85.5175978,63.1324444 83.9078212,68.6791111 Z M69.3201117,70.3431111 C71.6849162,70.5991111 74.0782123,70.7413333 76.4572626,70.8551111 C76.4145251,70.272 76.3432961,69.1057778 76.3005587,68.5368889 C73.8930168,68.7786667 71.4427374,69.0915556 69.3201117,70.3431111 Z M64.6047486,69.8311111 C63.1944134,70.1013333 60.6159218,71.3386667 61.5561453,73.1448889 C63.9494413,75.5768889 69.4340782,69.6604444 64.6047486,69.8311111 Z M63.1659218,74.6951111 C63.1089385,76.3164444 63.0377095,77.952 62.9807263,79.5733333 C64.5335196,77.7671111 66.1148045,75.9893333 67.6391061,74.1688889 C66.527933,74.2968889 64.2913408,74.5671111 63.1659218,74.6951111 Z M76.5,85.0915556 C78.2522346,87.7511111 81.1013966,88.9884444 84.1927374,89.2871111 C82.6399441,86.3857778 79.5628492,85.4613333 76.5,85.0915556 Z" id="Shape"></path>
                <path d="M1.36759777,82.7448889 C6.33938547,82.9724444 14.5307263,81.2657778 16.126257,87.7084444 C11.1117318,89.8986667 5.65558659,90.7093333 0.498603352,88.4337778 C0.783519553,86.5422222 1.06843575,84.6364444 1.36759777,82.7448889 Z" id="Shape"></path>
                <path d="M125.648045,112.796444 C127.029888,109.923556 127.984358,106.851556 129.124022,103.864889 C132.941899,106.794667 137.244134,109.297778 140.193017,113.208889 C144.609218,118.613333 148.156425,125.297778 154.809218,128.284444 C160.906425,130.858667 165.522067,135.623111 170.593575,139.676444 C173.656425,142.663111 177.88743,145.976889 177.232123,150.769778 C171.918436,148.608 166.519274,146.744889 161.063128,145.024 C156.176816,143.715556 154.210894,138.595556 150.749162,135.452444 C145.52095,132.935111 139.63743,132.451556 134.152793,130.688 C130.448883,129.521778 128.425978,125.966222 126.046927,123.192889 C122.328771,123.619556 118.610615,123.178667 115.348324,121.230222 C118.838547,118.556444 123.596648,116.977778 125.648045,112.796444 Z" id="Shape"></path>
                <path d="M86.472067,119.054222 C90.7743017,117.546667 96.5153631,117.546667 99.2790503,121.784889 L99.7349162,122.979556 C102.028492,127.729778 98.4527933,133.845333 93.0393855,133.376 C92.2416201,136.789333 91.8427374,140.529778 89.6488827,143.388444 C86.0874302,146.232889 81.6142458,147.626667 77.9530726,150.328889 C76.0298883,152.348444 75.6310056,155.406222 73.5083799,157.283556 C69.2346369,161.237333 64.0918994,164.110222 58.9064246,166.698667 C58.2368715,166.016 56.9120112,164.650667 56.2424581,163.968 C60.7156425,158.876444 63.0234637,152.248889 67.9097765,147.484444 C70.8871508,144.199111 75.5740223,142.947556 78.223743,139.363556 C81.2011173,132.750222 80.8877095,124.288 86.472067,119.054222 Z M93.6519553,131.541333 C96.7717877,129.052444 97.7832402,125.155556 98.2106145,121.358222 C95.0053073,123.804444 94.2787709,127.829333 93.6519553,131.541333 Z" id="Shape"></path>
                <path d="M84.6486034,228.778667 C95.176257,228.280889 105.77514,228.252444 116.317039,228.807111 C117.072067,229.205333 118.610615,230.001778 119.379888,230.4 L81.4432961,230.4 C82.2410615,229.987556 83.8365922,229.176889 84.6486034,228.778667 Z" id="Shape"></path>
            </g>
            <g id="#cb9b6dff" transform="translate(69.804469, 62.577778)" fill="#CB9B6D">
                <path d="M13.6332402,14.1937778 C12.1374302,6.11555556 20.8986034,1.70666667 27.5798883,0.725333333 C25.9416201,2.78755556 24.2178771,4.76444444 22.4798883,6.72711111 C22.4656425,11.4488889 21.6678771,16.1137778 20.5994413,20.6933333 C17.85,19.1146667 13.4480447,18.1902222 13.6332402,14.1937778 Z" id="Shape"></path>
                <path d="M137.343855,115.171556 C138.839665,113.152 140.848324,111.843556 143.41257,111.786667 C143.384078,113.052444 143.341341,115.598222 143.327095,116.864 C141.318436,116.309333 139.324022,115.754667 137.343855,115.171556 Z" id="Shape"></path>
                <path d="M7.46480447,133.632 C10.2712291,132.380444 13.7329609,126.904889 16.425419,130.844444 C15.0578212,133.361778 13.2913408,135.623111 11.5960894,137.912889 C10.2,136.490667 8.83240223,135.068444 7.46480447,133.632 Z" id="Shape"></path>
                <path d="M0.299162011,147.868444 C-0.484357542,142.392889 2.13687151,137.486222 6.78100559,134.641778 C7.84944134,136.647111 9.0603352,138.624 9.7726257,140.8 C9.30251397,145.507556 4.85782123,148.522667 0.299162011,147.868444 Z" id="Shape"></path>
            </g>
            <g id="#cd0000ff" transform="translate(94.022346, 227.555556)" fill="#CD0000">
                <path d="M0.156703911,2.64533333 C8.03463687,-0.384 17.4368715,-0.654222222 24.8874302,3.65511111 C27.6226257,5.12 25.9558659,8.66133333 26.2550279,11.136 C21.3829609,11.008 16.3399441,10.7946667 11.8382682,12.9706667 C16.7958101,13.8097778 21.824581,14.3075556 26.7963687,15.1182222 C24.3888268,16.3128889 21.9670391,17.4648889 19.5452514,18.6168889 C21.5539106,19.9964444 23.5768156,21.376 25.5997207,22.7697778 C17.6790503,23.296 9.0603352,21.8595556 2.02290503,26.368 C8.19134078,26.496 14.3740223,26.3964444 20.5424581,26.8231111 C19.7304469,27.2213333 18.1349162,28.032 17.3371508,28.4444444 L0.883240223,28.4444444 C1.11117318,25.3582222 1.43882682,22.272 1.75223464,19.1857778 C2.09413408,13.6248889 0.925977654,8.13511111 0.156703911,2.64533333 Z" id="Shape"></path>
                <path d="M47.851676,3.65511111 C53.1226257,0.0284444444 59.9891061,0.142222222 66.0863128,0.867555556 C68.550838,1.13777778 72.1122905,2.57422222 71.2860335,5.67466667 C69.8756983,11.8471111 68.6932961,18.0764444 68.7502793,24.448 C62.0405028,23.0968889 55.1740223,23.1395556 48.3645251,22.784 C49.646648,21.1484444 50.9430168,19.5128889 52.2536313,17.9057778 C50.0455307,17.1235556 47.5097765,16.5973333 46.4555866,14.2506667 C51.3988827,13.8524444 56.4561453,14.208 61.2997207,12.9137778 C56.8550279,10.4391111 51.7265363,11.0506667 46.8544693,11.136 C46.726257,8.64711111 45.2162011,5.36177778 47.851676,3.65511111 Z" id="Shape"></path>
                <path d="M29.2181564,7.50933333 C33.9050279,6.24355556 38.8055866,6.04444444 43.5494413,7.13955556 C44.4184358,13.0986667 44.703352,19.1573333 43.649162,25.1022222 C38.9480447,24.7324444 33.0217877,26.9511111 29.1611732,23.6515556 C28.3776536,18.304 29.0044693,12.8711111 29.2181564,7.50933333 Z" id="Shape"></path>
                <path d="M52.2108939,26.8515556 C57.524581,26.0551111 62.9664804,26.2257778 67.9382682,28.4444444 L55.273743,28.4444444 C54.5044693,28.0462222 52.9659218,27.2497778 52.2108939,26.8515556 Z" id="Shape"></path>
            </g>
        </g>
    </g>
</svg>