<?xml version="1.0" encoding="UTF-8"?>
<svg width="256px" height="256px" viewBox="0 0 256 256" version="1.1" xmlns="http://www.w3.org/2000/svg" xmlns:xlink="http://www.w3.org/1999/xlink">
    <!-- Generator: Sketch 51.3 (57544) - http://www.bohemiancoding.com/sketch -->
    <title>logo/froland</title>
    <desc>Created with Sketch.</desc>
    <defs></defs>
    <g id="logo/froland" stroke="none" stroke-width="1" fill="none" fill-rule="evenodd">
        <g id="froland" transform="translate(16.000000, 1.000000)" fill-rule="nonzero">
            <g id="#ffffffff" transform="translate(1.000000, 0.000000)" fill="#FFFFFF">
                <path d="M108.689076,1.16873203 C111.330558,0.330550472 114.08457,1.58192012 116.169327,3.16384023 C123.42452,8.59431227 130.549415,14.2431837 138.3791,18.859085 C145.782358,23.4572781 154.269452,26.0603631 162.821695,27.5242295 C166.061361,28.1263036 169.324717,28.7224749 172.635453,28.7224749 C183.479745,28.7874045 194.335882,28.5749078 205.180174,28.8228206 C205.026186,37.529284 204.475384,46.2121365 204.161486,54.9067945 C203.764671,59.9063704 205.961958,64.5104662 207.513681,69.1322702 C209.219391,74.0255977 212.322837,78.2932404 215.817174,82.0709601 C218.346127,84.8983471 220.76255,88.4576674 220.30651,92.4242731 C219.649101,97.0401743 216.302828,100.528662 213.886405,104.312285 C212.873639,105.593168 213.773875,107.163282 214.223993,108.473679 C216.847708,114.588863 219.690559,120.64502 221.609483,127.031727 C223.137516,132.167065 222.699243,137.709688 221.029068,142.750582 C218.891007,149.644921 215.900091,156.244125 213.732417,163.126658 C212.014861,168.444979 214.804409,174.099753 212.861794,179.388561 C211.274536,184.618341 206.37654,187.693641 201.922741,190.314434 C190.190058,197.208773 178.30931,203.890614 167.180733,211.747091 C149.649819,224.006972 132.847386,237.276212 116.240398,250.740241 C114.392545,252.204107 112.01758,253.272494 109.613002,252.841598 C105.911373,252.269037 103.370575,249.270472 100.474421,247.192726 C89.6597423,238.456749 78.5607785,230.080837 67.4795825,221.687216 C56.0548754,213.287692 44.5768648,204.941293 32.471058,197.539323 C26.86235,194.298748 21.3484038,190.886995 15.7811541,187.569685 C11.647175,185.037432 10.0599166,179.967024 10.083607,175.357025 C10.0480714,166.414455 7.69087416,157.654867 4.38013736,149.397008 C2.46713559,144.692566 0.595592074,139.793336 0.583746862,134.652096 C0.992406681,126.707079 4.35644693,119.358234 7.53096379,112.186469 C8.37789646,110.07921 9.47357859,107.983756 9.62756635,105.681708 C8.52596161,103.084526 6.04438967,101.425871 4.50451209,99.1061147 C2.14139226,95.706167 1.74457765,90.9426986 3.79379936,87.2948381 C6.16284179,82.9445577 10.1665235,79.8338417 13.0804457,75.8849441 C14.8335371,73.5061612 15.4613333,70.5607204 16.2371947,67.7687495 C17.1551987,64.1267916 18.6299276,60.4848337 18.1146609,56.6598925 C17.5283229,51.5481656 17.7711497,46.3951198 17.3032638,41.2715875 C16.9360622,36.8976964 16.9538301,32.512 16.9123718,28.1263036 C21.8340575,28.5040755 26.7616657,28.6929615 31.689274,28.7283776 C40.8100874,29.3363544 49.9901268,29.3540625 59.0872497,28.4037298 C65.5073547,27.3648569 71.7379363,25.3402353 77.7493815,22.8965229 C85.9877265,19.2663704 93.3909841,13.9598548 99.9058508,7.79154684 C102.707243,5.4481801 105.005215,2.18399419 108.689076,1.16873203 Z M110.566542,9.66269862 C107.226192,12.183146 104.673549,15.5889964 101.291741,18.0622222 C95.7008005,22.3003515 90.1039378,26.6683399 83.559458,29.3776732 C73.2896591,34.8494641 61.6339703,37.2813711 50.061198,37.5942135 C42.0419894,37.6119216 34.0227808,37.5410893 26.0035722,37.4289383 C26.0094948,44.6420218 26.5366067,51.8373972 26.6491362,59.0445781 C26.8860405,64.3569964 24.4992302,69.2503239 23.2199473,74.2971213 C21.7392958,80.2470298 17.0308239,84.4733537 13.0922909,88.8767582 C12.0202992,90.2166681 10.6877128,91.9402527 11.4161934,93.7405723 C13.0212196,96.4440029 15.6982376,98.3505708 17.1907343,101.142542 C18.233113,102.848418 18.5943919,104.896651 18.3041843,106.868148 C17.4927872,112.29862 14.6084781,117.067991 12.6125598,122.102983 C10.2257496,127.568871 8.45489034,133.731277 9.9770001,139.681185 C11.1555987,144.114103 13.2699691,148.234179 14.6854719,152.590362 C17.8303758,160.73607 18.6417728,169.531073 19.0326648,178.17851 C19.1155813,180.173618 21.3780168,180.899649 22.7994423,181.849981 C33.4956688,188.142245 44.2925797,194.334164 54.3373196,201.653496 C57.2393966,203.689923 60.1473962,205.720447 63.037628,207.780485 C73.3844208,215.583837 83.9029692,223.162887 94.0306256,231.261374 C97.3354398,234.088761 100.965997,236.50296 104.264889,239.342153 C106.331878,241.130667 108.570624,242.706684 110.815291,244.259091 C119.166166,237.370655 127.49335,230.434998 136.217349,224.012874 C144.248403,217.584848 152.593354,211.558205 160.961997,205.57288 C170.811291,198.672639 181.116625,192.445304 191.534489,186.436369 C195.413796,184.016267 199.571466,181.985743 203.160565,179.128842 C205.653982,176.779573 204.949192,173.049075 204.712288,170.003288 C204.208866,167.034237 204.522765,164.006158 205.423001,161.143355 C207.549216,153.953882 210.658585,147.09496 212.938788,139.952709 C214.223993,136.092351 214.336523,131.789293 212.968401,127.934838 C210.587513,121.046402 207.241241,114.547544 204.759669,107.700427 C204.268093,106.295588 203.871278,104.672349 204.504997,103.249801 C206.222553,99.5665243 209.130552,96.6210835 211.150161,93.1266928 C212.328759,91.0312389 210.39799,89.106963 209.166088,87.5840697 C205.64806,83.6764909 202.366936,79.4383617 200.388786,74.5214234 C198.771914,70.436764 197.326798,66.2753696 196.154122,62.0372404 C194.993291,58.3893798 195.591475,54.5172171 195.621088,50.7631082 C196.053438,46.3715091 196.088974,41.9562992 196.083051,37.5410893 C188.265211,37.4997705 180.447371,37.5351866 172.623608,37.5174786 C170.065042,37.5528947 167.565703,36.9272099 165.054518,36.5376325 C159.807089,35.7466725 154.589273,34.7018969 149.519522,33.1435875 C134.872917,28.4804648 122.648658,18.78235 110.566542,9.66269862 Z" id="Shape"></path>
                <path d="M104.661703,31.9925635 C107.13143,30.4519622 109.772913,28.3565084 112.864513,28.7106696 C116.489148,29.8794016 119.26685,32.6418591 122.216308,34.926199 C129.329358,40.8524967 137.472941,45.7753377 146.451612,48.2603689 C148.406072,48.8801511 150.413835,49.4527117 152.486748,49.4113929 C155.868556,49.3936848 159.202983,50.013467 162.561101,50.3026986 C168.791682,50.5506115 175.045954,50.7985243 181.241,51.5186521 C181.21731,55.7921975 181.21731,60.0598402 181.21731,64.3333856 C181.229155,67.0014001 181.371297,69.7520523 182.508438,72.2134728 C185.434205,78.6178882 188.62649,84.9042498 192.114905,91.0194336 C185.44605,96.5797647 178.084251,101.236985 171.350248,106.714678 C163.65086,112.215983 156.164686,118.012421 148.477143,123.537336 C136.531247,132.828166 124.158923,141.564142 112.230794,150.884485 C102.458494,144.17313 92.8283365,137.255181 82.9375844,130.732712 C77.4117929,126.589025 71.6431746,122.781792 65.9870858,118.809284 C56.9136533,112.924305 48.2192676,106.484473 39.252442,100.451927 C36.0720025,98.3151547 32.9507891,96.1016471 29.8118079,93.9176529 C33.252842,86.7458882 38.4943484,80.3827916 40.4961892,72.5617313 C42.4624944,65.9330138 40.9699977,58.9737458 40.9344621,52.2092665 C54.8052055,52.0321859 69.3155904,52.445374 82.2505621,46.6607407 C90.2046221,42.5406652 97.2229103,36.9272099 104.661703,31.9925635 Z M56.4043092,75.7078635 C56.3865413,81.2918054 56.4576126,86.8757473 56.3687735,92.4596892 C57.5829078,92.4655919 58.797042,92.4714946 60.0111763,92.4714946 C60.2599257,90.1222251 60.2480805,87.7552476 60.2895387,85.3941728 C62.5519743,85.4177836 64.8144098,85.4354916 67.0768453,85.4177836 C67.0768453,84.4084241 67.0709227,83.4049673 67.0650001,82.3956078 C64.7847968,82.3897052 62.5045934,82.4015105 60.2243901,82.4133159 C60.2184675,81.1560436 60.2066223,79.9046739 60.2066223,78.6533043 C62.8599498,78.6710123 65.5073547,78.7005258 68.1606822,78.7123312 C68.1843727,77.697069 68.2021405,76.6877095 68.2258309,75.6724473 C64.2813752,75.6665447 60.3428422,75.6193232 56.4043092,75.7078635 Z M70.9679975,75.660642 C71.0094558,81.2740973 70.9502297,86.8934553 70.9502297,92.5069107 C72.1465961,92.4832999 73.3429625,92.4596892 74.539329,92.4360784 C74.6044776,90.1281278 74.6044776,87.8201772 74.6400133,85.5122266 C75.7771536,85.7601394 77.1511983,85.6834045 77.921137,86.7281801 C79.4314016,88.4694728 80.6100002,90.4763863 81.8241345,92.4301757 C83.2810955,92.4596892 84.7439793,92.4537865 86.2009403,92.4301757 C84.7380566,89.880215 83.2810955,87.2535192 81.0778861,85.2466057 C81.6997597,84.9042498 82.3334786,84.5736993 82.9257392,84.1723166 C86.1594821,82.3719971 85.2651686,76.6877095 81.6523789,75.8849441 C78.116583,75.3950211 74.5274838,75.755085 70.9679975,75.660642 Z M91.1640842,75.8436253 C86.2779342,77.9213711 85.3421625,84.6150182 87.5335267,88.9534931 C89.8729561,93.5457836 96.7076435,94.1832738 100.397427,90.8954771 C102.322274,89.2899463 102.695398,86.6219317 102.991529,84.2903704 C102.861231,81.5692317 102.186054,78.3994887 99.72225,76.8175686 C97.2702911,75.076276 93.9654769,75.0467625 91.1640842,75.8436253 Z M105.437565,75.7491823 C105.443487,81.3154161 105.479023,86.8875527 105.44941,92.4537865 C110.951511,92.5541322 116.453612,92.3357328 121.949791,92.4655919 C122.388063,91.2437357 122.838182,90.0218794 123.276454,88.8000232 C125.491509,88.841342 127.706564,88.8472447 129.927541,88.8177313 C130.389504,90.0395875 130.851468,91.2673464 131.319353,92.4892026 C132.640095,92.4773972 133.966758,92.4478838 135.2875,92.4124677 C132.995451,86.8580392 130.768551,81.2681946 128.553496,75.6842527 C127.262368,75.660642 125.977163,75.6547393 124.691957,75.6547393 C122.577587,80.6484125 120.794882,85.7660421 118.775274,90.7951314 C115.920578,88.7941206 112.337401,89.6854263 109.091813,89.4847349 C109.074045,84.9101525 109.044432,80.3296674 109.08589,75.755085 C107.865833,75.755085 106.651699,75.755085 105.437565,75.7491823 Z M136.732615,75.4245345 C136.703002,81.2091678 136.726693,86.993801 136.738538,92.784337 C138.017821,92.7902397 139.303026,92.784337 140.588232,92.7784343 C140.540851,89.6263994 140.505315,86.4507538 141.180493,83.3577458 C143.10534,86.3740189 144.982806,89.4198054 146.866194,92.4596892 C148.074406,92.4655919 149.28854,92.4596892 150.496752,92.4596892 C150.502675,86.8639419 150.467139,81.2740973 150.490829,75.67835 C149.436605,75.6665447 148.382382,75.6547393 147.33408,75.6429339 C147.274854,79.0842004 147.4703,82.5313696 147.263009,85.9726362 C144.556378,82.9150443 142.761828,79.1963515 140.688916,75.7078635 C139.368175,75.6370312 138.047434,75.5366855 136.732615,75.4245345 Z M154.03847,75.6370312 C154.008857,81.2386812 154.026625,86.8403312 154.032548,92.4360784 C157.260368,92.3829542 160.523724,92.7312128 163.721931,92.2294844 C167.008978,90.9013798 168.548855,87.1531736 168.246802,83.7945447 C168.436326,80.5244561 166.730615,76.6640988 163.271813,75.867236 C160.215749,75.471756 157.112303,75.7019608 154.03847,75.6370312 Z M96.0146986,98.9821583 C96.0028534,104.642835 96.0443117,110.303512 96.008776,115.958286 C97.1696068,115.975994 98.324515,115.975994 99.4912684,115.993702 C99.5090362,110.297609 99.5445718,104.601516 99.4735006,98.9113261 C98.3185924,98.9349368 97.1696068,98.9526449 96.0146986,98.9821583 Z M109.488627,98.9762556 C109.559699,104.796305 109.405711,110.622257 109.725532,116.436404 C113.693678,116.312447 117.685514,116.702025 121.641815,116.265226 C122.547974,115.556903 122.145237,114.169772 122.35845,113.160412 C119.639974,112.587852 116.850427,112.487506 114.08457,112.635073 C113.752904,108.084102 113.94835,103.515422 113.906892,98.9526449 C112.432163,99.0116718 110.957434,99.0234771 109.488627,98.9762556 Z M124.502434,112.576046 C124.591273,113.774292 124.686035,114.972537 124.792642,116.176686 C125.983085,116.282934 127.179452,116.38328 128.375818,116.477723 C128.363973,115.002051 128.340283,113.526379 128.316592,112.05661 C127.043232,112.251399 125.775794,112.440285 124.502434,112.576046 Z M103.560099,116.046826 C104.566942,116.017313 105.573785,115.9878 106.580628,115.958286 C106.616164,114.948927 106.639854,113.939567 106.669467,112.930208 C105.757386,112.770835 104.851227,112.587852 103.933223,112.528825 C102.81385,113.455547 103.293581,114.860386 103.560099,116.046826 Z" id="Shape"></path>
                <path d="M74.6044776,78.6887204 C76.6418541,78.6828177 78.6792306,78.6887204 80.7166071,78.8067741 C80.9416661,79.9459927 81.0423505,81.1029194 81.0897313,82.259846 C78.9575931,82.7379637 76.7780741,82.9091416 74.598555,82.8146986 C74.5926324,81.4393725 74.598555,80.0640465 74.6044776,78.6887204 Z" id="Shape"></path>
                <path d="M92.9408661,78.7595527 C94.4807436,78.6178882 96.3759776,78.3050458 97.5664214,79.5505127 C99.5801075,81.1265301 99.076686,83.9893333 98.9582338,86.220549 C98.4548123,89.6441075 93.4442876,90.8718664 91.3595302,88.1507277 C89.168166,85.4650051 89.6064388,80.2706405 92.9408661,78.7595527 Z" id="Shape"></path>
                <path d="M157.532808,78.7005258 C159.516881,78.8953145 162.146518,78.0866463 163.532408,79.9696035 C165.107821,82.259846 164.92422,85.4000755 163.840383,87.8555933 C162.679553,90.2284735 159.641256,89.3194597 157.532808,89.5319564 C157.49135,85.919512 157.51504,82.3129702 157.532808,78.7005258 Z" id="Shape"></path>
                <path d="M126.51612,80.034533 C127.351207,81.9233929 128.079688,83.8535715 128.713407,85.8191663 C127.309749,85.8427771 125.912014,85.8486797 124.514279,85.8427771 C125.112462,83.883085 125.799485,81.9529063 126.51612,80.034533 Z" id="Shape"></path>
            </g>
            <g id="#d0b9a2ff">
                <path d="M109.020758,0 L113.307792,0 C118.215707,1.84754103 121.870034,5.7669252 126.097937,8.70646333 C132.892147,13.4994452 139.597659,18.6347829 147.397105,21.7041801 C154.865414,24.8621176 162.907299,26.4263297 170.925531,27.3943704 C182.95288,27.8016558 195.003881,27.2763166 207.037142,27.6717967 C206.842008,32.6182484 206.386695,37.5528947 206.398522,42.5052491 C206.398522,46.8496267 205.771728,51.1703936 205.789467,55.5147712 C205.712596,60.2605316 207.74672,64.6521307 209.313705,69.0260218 C210.857037,73.3881075 213.535694,77.2366594 216.657838,80.6248017 C219.578934,83.8299608 222.618294,87.7434423 222.062458,92.3534408 C221.731321,96.9752447 218.289868,100.357484 216.048783,104.141107 C214.511364,106.319198 216.261657,108.804229 217.065845,110.905586 C220.312165,118.472831 224.510502,126.128616 224.250323,134.604874 C224.26215,139.132235 222.706991,143.441197 221.22279,147.649813 C219.431106,152.69661 217.349677,157.637159 215.646689,162.71347 C213.665784,168.279704 216.616446,174.288639 214.499538,179.843068 C212.761072,185.332566 207.658023,188.596752 202.974808,191.388723 C191.923129,197.775431 180.806406,204.091306 170.286911,211.333903 C154.303665,222.566716 138.917647,234.608198 123.691284,246.832662 C120.403573,249.382623 117.441084,252.611393 113.331444,253.815541 L108.991192,253.815541 C105.100339,252.511047 102.232461,249.459358 99.0570989,247.015646 C81.1284262,232.955445 63.1938405,218.859829 44.3841084,205.974263 C36.5846628,200.886147 28.7142593,195.892473 20.5659378,191.371015 C17.4083154,189.570696 14.0378195,187.705447 12.0805667,184.517996 C9.96957191,181.070826 10.010964,176.885821 9.79809055,172.990048 C9.56156452,167.789781 8.63911303,162.62493 7.00117031,157.684381 C4.8842624,150.943512 1.37185094,144.574513 0.603141361,137.461775 C-0.189220819,129.475439 2.9210964,121.790141 6.02550046,114.606571 C7.17265168,111.743768 9.12990453,109.016726 9.20677549,105.852886 C8.33754235,104.08208 6.80603634,102.771683 5.57610102,101.260595 C3.28771173,98.7932723 1.9986449,95.4523515 2.24108408,92.0760145 C2.22925778,86.7931097 6.23837388,82.8383094 9.57930397,79.2199622 C11.9918694,76.734931 14.1974746,73.925252 15.0903603,70.5134989 C16.3853403,66.0097487 18.1356329,61.4587771 17.7631044,56.6953086 C17.1244841,46.7728918 17.0594395,36.8150588 16.1724669,26.91035 C21.6835233,26.892642 27.170927,27.5183268 32.6819834,27.5006187 C43.1600862,28.0495686 53.7860179,28.439146 64.1222051,26.308276 C71.4840776,24.7440639 78.5325531,21.8694553 85.0784108,18.1861786 C91.4232214,14.5383181 96.9461041,9.66269862 102.196982,4.60999855 C104.166061,2.6798199 106.389406,0.932624546 109.020758,0 Z M109.393286,1.16873203 C105.715306,2.18399419 103.421004,5.4481801 100.624084,7.79154684 C94.1196181,13.9598548 86.7281799,19.2663704 78.5029874,22.8965229 C72.5011395,25.3402353 66.2805051,27.3648569 59.8706498,28.4037298 C50.7880505,29.3540625 41.6226671,29.3363544 32.5164152,28.7283776 C27.5966739,28.6929615 22.6769326,28.5040755 17.7631044,28.1263036 C17.8044965,32.512 17.786757,36.8976964 18.1533723,41.2715875 C18.6205112,46.3951198 18.3780721,51.5481656 18.963474,56.6598925 C19.4779181,60.4848337 18.0055436,64.1267916 17.0890052,67.7687495 C16.3143825,70.5607204 15.6875885,73.5061612 13.937296,75.8849441 C11.0280259,79.8338417 7.03073606,82.9445577 4.66547582,87.2948381 C2.61952572,90.9426986 3.01570681,95.706167 5.3750539,99.1061147 C6.91247305,101.425871 9.39008315,103.084526 10.4899292,105.681708 C10.3361872,107.983756 9.24225439,110.07921 8.39667385,112.186469 C5.22722513,119.358234 1.86855559,126.707079 1.4605482,134.652096 C1.4723745,139.793336 3.34093009,144.692566 5.25087773,149.397008 C8.55632892,157.654867 10.9097629,166.414455 10.9452418,175.357025 C10.9215892,179.967024 12.5063135,185.037432 16.6336926,187.569685 C22.1920542,190.886995 27.6971974,194.298748 33.296951,197.539323 C45.3834309,204.941293 56.8431167,213.287692 68.2495842,221.687216 C79.313089,230.080837 90.3943332,238.456749 101.191746,247.192726 C104.083277,249.270472 106.620018,252.269037 110.315738,252.841598 C112.716477,253.272494 115.08765,252.204107 116.932553,250.740241 C133.513027,237.276212 150.288636,224.006972 167.791561,211.747091 C178.902371,203.890614 190.764152,197.208773 202.478103,190.314434 C206.924792,187.693641 211.814968,184.618341 213.399692,179.388561 C215.339205,174.099753 212.554111,168.444979 214.268925,163.126658 C216.433138,156.244125 219.419279,149.644921 221.553927,142.750582 C223.221435,137.709688 223.659008,132.167065 222.133415,127.031727 C220.217555,120.64502 217.379242,114.588863 214.759717,108.473679 C214.310317,107.163282 213.411518,105.593168 214.422667,104.312285 C216.835233,100.528662 220.176163,97.0401743 220.832522,92.4242731 C221.287835,88.4576674 218.875269,84.8983471 216.350354,82.0709601 C212.861595,78.2932404 209.763104,74.0255977 208.060117,69.1322702 C206.510872,64.5104662 204.317093,59.9063704 204.713274,54.9067945 C205.026671,46.2121365 205.576594,37.529284 205.730336,28.8228206 C194.903357,28.5749078 184.064552,28.7874045 173.237573,28.7224749 C169.932122,28.7224749 166.673976,28.1263036 163.439483,27.5242295 C154.900893,26.0603631 146.427348,23.4572781 139.03591,18.859085 C131.218725,14.2431837 124.105205,8.59431227 116.861595,3.16384023 C114.780166,1.58192012 112.030551,0.330550472 109.393286,1.16873203 Z" id="Shape" fill="#D0B9A2"></path>
                <path d="M137.392054,75.4245345 C138.704774,75.5366855 140.023406,75.6370312 141.342039,75.7078635 C140.21854,75.7078635 139.095042,75.7255715 137.977456,75.7491823 C137.888759,81.28 137.85328,86.8108177 137.96563,92.3416354 C138.899908,92.3475381 139.840099,92.3475381 140.786203,92.3298301 C140.774376,88.9003689 140.638374,85.4709078 140.96951,82.053252 C141.188297,82.3778998 141.619957,83.033098 141.83283,83.3577458 C141.158731,86.4507538 141.19421,89.6263994 141.241515,92.7784343 C139.958362,92.784337 138.675208,92.7902397 137.397967,92.784337 C137.386141,86.993801 137.362488,81.2091678 137.392054,75.4245345 Z" id="Shape" fill="#FFFFFF"></path>
                <path d="M110.191561,98.9762556 C111.658023,99.0234771 113.130397,99.0116718 114.602772,98.9526449 C114.644164,103.515422 114.44903,108.084102 114.780166,112.635073 C117.541608,112.487506 120.326702,112.587852 123.040838,113.160412 C120.001478,113.290272 116.956206,113.272564 113.916846,113.160412 C114.01737,108.733397 113.928673,104.300479 113.981891,99.8734641 C112.905698,99.8734641 111.835417,99.8793667 110.77105,99.8911721 C110.800616,105.103245 110.800616,110.315317 110.782877,115.52739 C114.525901,115.61593 118.268925,115.539195 122.017863,115.610028 C122.354912,114.795457 122.697875,113.974983 123.040838,113.160412 C122.827964,114.169772 123.230059,115.556903 122.325346,116.265226 C118.375362,116.702025 114.389898,116.312447 110.428087,116.436404 C110.108777,110.622257 110.262519,104.796305 110.191561,98.9762556 Z" id="Shape" fill="#FFFFFF"></path>
                <path d="M125.181398,112.576046 C126.452726,112.440285 127.71814,112.251399 128.989467,112.05661 C129.01312,113.526379 129.036772,115.002051 129.048599,116.477723 C127.854142,116.38328 126.659686,116.282934 125.471143,116.176686 C125.364706,114.972537 125.270095,113.774292 125.181398,112.576046 Z M125.441577,113.15451 C125.719495,114.075329 125.867324,115.078786 126.452726,115.875649 C127.215522,115.7694 127.984232,115.639541 128.747028,115.491974 C128.729289,114.860386 128.69381,113.597211 128.67607,112.965624 C127.593964,113.018748 126.511857,113.083678 125.441577,113.15451 Z" id="Shape" fill="#FFFFFF"></path>
                <path d="M159.637327,133.347602 C159.53089,132.255605 159.980289,131.948665 160.985525,132.414977 C160.642562,132.88129 160.193163,133.194132 159.637327,133.347602 Z" id="Shape" fill="#D0B9A2"></path>
            </g>
            <g id="#e0af38ff" transform="translate(11.000000, 10.000000)" fill="#E0AF38">
                <path d="M100.92104,0.218467337 C112.948786,9.34095477 125.118035,19.0420854 139.698728,23.7066583 C144.745665,25.2654523 149.94,26.3105528 155.163815,27.1017588 C157.663699,27.4914573 160.151792,28.1173367 162.698844,28.0819095 C170.487399,28.0996231 178.270058,28.064196 186.052717,28.1055276 C186.058613,32.5221106 186.023237,36.9386935 185.592832,41.3316583 C185.563353,45.0869347 184.967861,48.9603015 186.123468,52.6092965 C187.290867,56.8487437 188.72948,61.0114322 190.339075,65.0973618 C192.308324,70.0158291 195.574682,74.2552764 199.076879,78.1640704 C200.303237,79.6874372 202.225318,81.6123116 201.052023,83.7084171 C199.041503,87.2038945 196.14659,90.1502513 194.436763,93.8346734 C193.805896,95.2576633 194.200925,96.881407 194.690289,98.2866834 C197.160694,105.13593 200.491908,111.636809 202.862081,118.527387 C204.224046,122.38304 204.112023,126.687437 202.832601,130.548995 C200.562659,137.693467 197.467283,144.554523 195.350636,151.746231 C194.454451,154.609925 194.141965,157.638945 194.643121,160.60892 C194.87896,163.655653 195.580578,167.387312 193.098382,169.737312 C189.525434,172.595101 185.386474,174.626256 181.524624,177.047111 C171.153642,183.057915 160.894682,189.287186 151.089711,196.189573 C142.758728,202.176759 134.451329,208.205276 126.456416,214.635302 C117.771676,221.059422 109.481965,227.997236 101.168671,234.887814 C98.934104,233.334925 96.7054335,231.758417 94.6477457,229.969347 C91.3636994,227.129271 87.7494798,224.714322 84.4595376,221.886055 C74.3774566,213.78505 63.9062428,206.203643 53.6060116,198.397864 C50.7287861,196.337186 47.8338728,194.30603 44.9448555,192.26897 C34.9453179,184.947362 24.1969942,178.753518 13.5489017,172.459296 C12.1338728,171.508668 9.8816185,170.782412 9.79907514,168.786683 C9.4099422,160.136558 8.60219653,151.338819 5.47144509,143.190578 C4.06231214,138.83304 1.95745665,134.711683 0.78416185,130.277387 C-0.731098266,124.325628 1.03179191,118.161307 3.40786127,112.693719 C5.39479769,107.657161 8.26612717,102.886307 9.07387283,97.4541457 C9.36277457,95.4820352 9.00312139,93.4331658 7.96543353,91.7267588 C6.47965318,88.9339196 3.81468208,87.0267588 2.21687861,84.3224874 C1.4916763,82.521608 2.8182659,80.7974874 3.88543353,79.4571608 C7.80624277,75.0523869 12.493526,70.8247487 13.9675145,64.8729899 C15.2410405,59.8246231 17.6171098,54.9297739 17.3812717,49.6157035 C17.2692486,42.4062814 16.7445087,35.2086683 16.7386127,27.9933417 C24.7217341,28.1055276 32.7048555,28.1763819 40.6879769,28.1586683 C52.2086705,27.8457286 63.8119075,25.4130653 74.0354913,19.9395729 C80.5505202,17.229397 86.1221965,12.8600503 91.6879769,8.62060302 C95.0545665,6.14660804 97.5957225,2.73969849 100.92104,0.218467337 Z M95.0427746,22.5552764 C87.6374566,27.4914573 80.6507514,33.1066583 72.7324855,37.2280151 C59.8557225,43.0144472 45.4106358,42.6011307 31.6023121,42.7782663 C31.6376879,49.5448492 33.1234682,56.5062814 31.1660116,63.1370603 C29.1731792,70.9605528 23.9552601,77.3256281 20.529711,84.4996231 C23.6545665,86.6842965 26.7617341,88.8984925 29.9278613,91.0359296 C38.8543353,97.0703518 47.5095954,103.512186 56.5421965,109.398995 C62.1728324,113.372739 67.9154913,117.181156 73.4164162,121.326131 C83.262659,127.850628 92.8494798,134.770729 102.577803,141.484171 C114.452254,132.16093 126.768902,123.422236 138.66104,114.128518 C146.313988,108.601884 153.766474,102.803643 161.431214,97.3006281 C168.134913,91.8212312 175.463584,87.1625628 182.102428,81.6005025 C178.629711,75.4834171 175.451792,69.1951005 172.539191,62.7886935 C171.407168,60.3265075 171.265665,57.575 171.253873,54.9061558 C171.253873,50.6312814 171.253873,46.3623116 171.277457,42.0874372 C165.110289,41.3670854 158.884162,41.1190955 152.681618,40.8711055 C149.338613,40.5817839 146.019191,39.961809 142.652601,39.9795226 C140.589017,40.0208543 138.590289,39.4481156 136.644624,38.8281407 C127.706358,36.3423367 119.599422,31.4179648 112.518382,25.4898241 C109.582197,23.2047739 106.816994,20.4414573 103.208671,19.2723618 C100.130983,18.9180905 97.5013873,21.014196 95.0427746,22.5552764 Z M172.963699,107.645352 C165.54659,112.870854 157.899538,117.777513 150.49422,123.00892 C149.491908,122.542462 149.043815,122.849497 149.149942,123.941834 C135.447746,133.08794 121.940116,142.54108 108.214335,151.663568 C108.361734,171.851131 108.037457,192.050503 108.373526,212.232161 C113.520694,209.161809 118.019306,205.146734 122.830405,201.592211 C141.243468,187.870101 160.440694,175.210804 180.139075,163.407663 C179.873757,153.06294 181.029364,142.576508 184.572832,132.810427 C185.846358,128.659548 188.369827,124.892462 188.741272,120.487688 C189.236532,115.433417 187.62104,110.314196 184.655376,106.234171 C183.65896,104.811181 182.409017,103.063442 180.504624,103.010302 C177.680462,103.949121 175.487168,106.133794 172.963699,107.645352 Z M19.6276301,105.862186 C16.4379191,109.747362 14.9108671,114.890201 15.040578,119.885427 C15.0995376,123.994975 17.1454335,127.661683 18.489711,131.446482 C21.6499422,140.196985 23.6840462,149.484799 23.3656647,158.831658 C23.4246243,160.496734 23.1416185,162.26809 23.8196532,163.844598 C25.877341,165.675 28.4833526,166.73191 30.8004624,168.184422 C50.870289,180.619347 70.4094798,193.934045 89.1291329,208.335176 C91.0276301,209.976633 93.0499422,211.464573 95.1960694,212.775377 C95.4672832,192.511055 95.2963006,172.234925 95.2727168,151.964698 C86.3875145,146.148744 77.7263584,140.002136 68.8942197,134.115327 C65.7516763,132.202261 62.7801156,130.029397 59.8144509,127.856533 C49.9564162,121.196231 40.1396532,114.476884 30.2521387,107.85201 C28.2062428,106.505779 26.3490173,104.82299 24.0908671,103.83103 C22.2926012,103.15201 20.6830058,104.563191 19.6276301,105.862186 Z" id="Shape"></path>
            </g>
            <g id="#ee1c25ff" transform="translate(25.000000, 75.000000)" fill="#EE1C25">
                <path d="M32.2937705,0.74592 C36.2183607,0.65712 40.1429508,0.70448 44.0734426,0.7104 C44.0498361,1.72864 44.0321311,2.74096 44.0085246,3.7592 C41.3645902,3.74736 38.7265574,3.71776 36.082623,3.7 C36.082623,4.95504 36.0944262,6.21008 36.1003279,7.47104 C38.372459,7.4592 40.6445902,7.44736 42.9167213,7.45328 C42.922623,8.4656 42.9285246,9.472 42.9285246,10.48432 C40.6740984,10.50208 38.4196721,10.48432 36.1652459,10.46064 C36.1239344,12.82864 36.1357377,15.20256 35.8878689,17.55872 C34.6780328,17.55872 33.4681967,17.5528 32.2583607,17.54688 C32.3468852,11.94656 32.2760656,6.34624 32.2937705,0.74592 Z" id="Shape"></path>
                <path d="M46.8059016,0.69856 C50.3527869,0.79328 53.9291803,0.43216 57.452459,0.92352 C61.052459,1.72864 61.9436066,7.4296 58.7213115,9.2352 C58.1311475,9.63776 57.4996721,9.96928 56.88,10.31264 C59.0754098,12.32544 60.5272131,14.95984 61.984918,17.51728 C60.5331148,17.54096 59.0754098,17.54688 57.6236066,17.51728 C56.4137705,15.55776 55.2393443,13.54496 53.7344262,11.79856 C52.9672131,10.75072 51.5980328,10.82768 50.464918,10.57904 C50.4295082,12.89376 50.4295082,15.20848 50.3645902,17.5232 C49.172459,17.54688 47.9803279,17.57056 46.7881967,17.59424 C46.7881967,11.96432 46.8472131,6.32848 46.8059016,0.69856 Z M50.4295082,3.73552 C50.4236066,5.11488 50.4177049,6.49424 50.4236066,7.8736 C52.5954098,7.96832 54.7672131,7.79664 56.8918033,7.31712 C56.8445902,6.1568 56.7442623,4.99648 56.52,3.85392 C54.4898361,3.73552 52.4596721,3.7296 50.4295082,3.73552 Z" id="Shape"></path>
                <path d="M66.9304918,0.88208 C69.7219672,0.08288 73.015082,0.11248 75.4583607,1.85888 C77.9134426,3.44544 78.5862295,6.62448 78.7160656,9.3536 C78.4209836,11.692 78.0491803,14.36784 76.1311475,15.97808 C72.4544262,19.27552 65.6439344,18.63616 63.3127869,14.0304 C61.1291803,9.6792 62.0616393,2.96592 66.9304918,0.88208 Z M68.7009836,3.80656 C65.3783607,5.32208 64.9416393,10.53168 67.1252459,13.22528 C69.202623,15.9544 74.1954098,14.72304 74.6970492,11.28944 C74.815082,9.05168 75.3167213,6.18048 73.3101639,4.59984 C72.1239344,3.35072 70.2354098,3.66448 68.7009836,3.80656 Z" id="Shape"></path>
                <path d="M81.1534426,0.78736 C82.3632787,0.79328 83.5731148,0.79328 84.7888525,0.79328 C84.747541,5.38128 84.7770492,9.9752 84.7947541,14.5632 C88.0288525,14.76448 91.5993443,13.87056 94.4439344,15.87744 C96.4563934,10.8336 98.2327869,5.70096 100.339672,0.69264 C101.620328,0.69264 102.900984,0.69856 104.187541,0.72224 C106.394754,6.32256 108.61377,11.9288 110.897705,17.49952 C109.581639,17.53504 108.259672,17.56464 106.943607,17.57648 C106.477377,16.35104 106.017049,15.11968 105.556721,13.89424 C103.343607,13.92384 101.136393,13.91792 98.9291803,13.87648 C98.492459,15.10192 98.0439344,16.32736 97.6072131,17.5528 C92.1304918,17.42256 86.6478689,17.6416 81.1652459,17.54096 C81.1947541,11.9584 81.1593443,6.36992 81.1534426,0.78736 Z M102.157377,5.08528 C101.443279,7.00928 100.758689,8.94512 100.162623,10.91056 C101.55541,10.91648 102.948197,10.91056 104.346885,10.88688 C103.71541,8.91552 102.989508,6.97968 102.157377,5.08528 Z" id="Shape"></path>
                <path d="M122.901639,0.6808 C123.94623,0.69264 124.996721,0.70448 126.047213,0.71632 C126.023607,6.32848 126.059016,11.93472 126.053115,17.54688 C124.84918,17.54688 123.639344,17.5528 122.43541,17.54688 C120.558689,14.49808 118.687869,11.44336 116.769836,8.41824 C116.557377,8.09264 116.126557,7.43552 115.908197,7.10992 C115.577705,10.5376 115.713443,13.97712 115.725246,17.41664 C114.780984,17.4344 113.842623,17.4344 112.910164,17.42848 C112.798033,11.88144 112.833443,6.3344 112.921967,0.78736 C114.037377,0.76368 115.158689,0.74592 116.28,0.74592 C118.345574,4.24464 120.13377,7.97424 122.83082,11.0408 C123.037377,7.58944 122.842623,4.13216 122.901639,0.6808 Z" id="Shape"></path>
                <path d="M129.582295,0.67488 C132.645246,0.74 135.737705,0.50912 138.782951,0.90576 C142.229508,1.70496 143.92918,5.57664 143.740328,8.85632 C144.041311,12.2248 142.506885,15.984 139.231475,17.316 C136.04459,17.8192 132.792787,17.46992 129.576393,17.5232 C129.570492,11.91104 129.552787,6.29296 129.582295,0.67488 Z M133.064262,3.74736 C133.046557,7.3704 133.022951,10.98752 133.064262,14.61056 C135.165246,14.39744 138.192787,15.30912 139.349508,12.92928 C140.429508,10.46656 140.612459,7.31712 139.042623,5.02016 C137.661639,3.13168 135.041311,3.94272 133.064262,3.74736 Z" id="Shape"></path>
                <path d="M71.7639344,24.08848 C72.9147541,24.05888 74.0596721,24.04112 75.2104918,24.01744 C75.2813115,29.72432 75.2459016,35.43712 75.2281967,41.14992 C74.0655738,41.13216 72.9147541,41.13216 71.7580328,41.1144 C71.7934426,35.44304 71.7521311,29.76576 71.7639344,24.08848 Z" id="Shape"></path>
                <path d="M85.7685246,25.00016 C86.8308197,24.98832 87.8990164,24.9824 88.9731148,24.9824 C88.92,29.4224 89.0085246,33.86832 88.9081967,38.30832 C91.9416393,38.4208 94.9809836,38.43856 98.0144262,38.30832 C97.6721311,39.12528 97.3298361,39.94816 96.9934426,40.76512 C93.2518033,40.69408 89.5160656,40.77104 85.7803279,40.68224 C85.7980328,35.45488 85.7980328,30.22752 85.7685246,25.00016 Z" id="Shape"></path>
                <path d="M79.282623,41.2032 C79.0170492,40.01328 78.5390164,38.60432 79.6544262,37.67488 C80.5691803,37.73408 81.4721311,37.9176 82.3809836,38.07744 C82.3514754,39.08976 82.3278689,40.10208 82.292459,41.1144 C81.2891803,41.144 80.2859016,41.1736 79.282623,41.2032 Z" id="Shape"></path>
                <path d="M4.89245902,40.42768 C5.94885246,39.12528 7.56,37.7104 9.36,38.3912 C11.6203279,39.38576 13.4793443,41.07296 15.5272131,42.42272 C25.4242623,49.06496 35.2504918,55.80192 45.1180328,62.47968 C48.0865574,64.65824 51.0609836,66.8368 54.2065574,68.75488 C63.0472131,74.65712 71.7167213,80.81984 80.6104918,86.65104 C80.6340984,106.9744 80.8052459,127.30368 80.5337705,147.62112 C78.3855738,146.30688 76.3613115,144.81504 74.4609836,143.16928 C55.7232787,128.7304 36.1652459,115.3808 16.0760656,102.91328 C13.7567213,101.45696 11.1481967,100.39728 9.08852459,98.56208 C8.40983607,96.98144 8.69311475,95.20544 8.63409836,93.536 C8.95278689,84.16464 6.91672131,74.85248 3.75344262,66.07904 C2.40786885,62.28432 0.36,58.608 0.300983607,54.48768 C0.171147541,49.47936 1.69967213,44.32304 4.89245902,40.42768 Z" id="Shape"></path>
                <path d="M100.410492,38.3024 C101.478689,38.23136 102.558689,38.16624 103.638689,38.11296 C103.656393,38.7464 103.691803,40.01328 103.709508,40.64672 C102.948197,40.79472 102.180984,40.92496 101.419672,41.03152 C100.83541,40.23232 100.687869,39.22592 100.410492,38.3024 Z" id="Shape"></path>
            </g>
            <g id="#2d2f93ff" transform="translate(119.000000, 112.000000)" fill="#2D2F93">
                <path d="M64.7765217,4.91451613 C67.2886957,3.40053763 69.4721739,1.21236559 72.2836957,0.272043011 C74.1795652,0.325268817 75.423913,2.07580645 76.4158696,3.50107527 C79.3682609,7.58763441 80.9765217,12.7150538 80.4834783,17.7774194 C80.1136957,22.1892473 77.6015217,25.9623656 76.3336957,30.1198925 C72.806087,39.9016129 71.6556522,50.4048387 71.9197826,60.766129 C52.3095652,72.588172 33.1982609,85.2677419 14.8676087,99.011828 C10.0780435,102.572043 5.59956522,106.593548 0.475434783,109.668817 C0.140869565,89.4548387 0.463695652,69.2231183 0.316956522,49.0032258 C13.9813043,39.866129 27.4284783,30.3978495 41.0693478,21.2370968 C41.621087,21.0833333 42.0671739,20.7698925 42.4076087,20.3026882 C49.7797826,15.0629032 57.3926087,10.1483871 64.7765217,4.91451613 Z" id="Shape"></path>
            </g>
        </g>
    </g>
</svg>