<?xml version="1.0" encoding="UTF-8"?>
<svg width="256px" height="256px" viewBox="0 0 256 256" version="1.1" xmlns="http://www.w3.org/2000/svg" xmlns:xlink="http://www.w3.org/1999/xlink">
    <!-- Generator: Sketch 51.3 (57544) - http://www.bohemiancoding.com/sketch -->
    <title>logo/grimstad</title>
    <desc>Created with Sketch.</desc>
    <defs></defs>
    <g id="logo/grimstad" stroke="none" stroke-width="1" fill="none" fill-rule="evenodd">
        <g id="grimstad" transform="translate(0.000000, 30.000000)" fill-rule="nonzero">
            <g id="#ffffffff" transform="translate(1.568627, 4.083333)" fill="#FFFFFF">
                <path d="M114.503529,1.19358974 C118.211765,0.430320513 122.01098,0.270128205 125.785098,0.0910897436 C131.140392,-0.0251282051 136.467451,0.628205128 141.769412,1.31608974 C142.873725,1.46371795 143.993725,1.56737179 145.079216,1.84064103 C148.614902,3.0499359 152.454902,3.20384615 155.877647,4.7900641 C157.12,5.53448718 157.126275,7.13955128 158.211765,8.01903846 C158.901961,10.0701282 158.905098,12.3222436 159.152941,14.4675641 C159.07451,16.7573718 159.604706,19.1162821 158.917647,21.3495513 C158.522353,22.8132692 158.374902,24.3272436 158.054902,25.8066667 C157.650196,27.7258333 156.853333,29.525641 156.260392,31.3882692 C156.156863,31.8280128 155.846275,32.1515385 155.526275,32.4467949 C155.322353,33.3765385 154.528627,33.9450641 154.020392,34.6926282 C151.541961,35.5438462 148.972549,34.3910897 146.472157,34.9407692 C144.687059,35.0978205 142.983529,34.2905769 141.201569,34.2842949 C138.428235,34.4162179 135.74902,33.5273077 132.985098,33.4519231 C131.105882,33.0090385 129.220392,32.5504487 127.347451,32.0541667 C124.596078,31.7871795 121.866667,31.363141 119.193725,30.6312821 C116.307451,29.9402564 113.414902,29.2178205 110.657255,28.0964744 C110.192941,26.7112821 110.255686,25.238141 109.951373,23.8246795 C109.813333,23.2090385 110.029804,22.5965385 110.08,21.9871795 C110.20549,21.1453846 109.857255,20.2941667 110.098824,19.4617949 C110.538039,17.2725 110.901961,15.070641 111.140392,12.8530769 C111.247059,11.3045513 111.968627,9.89108974 112.269804,8.38025641 C112.781176,5.91141026 113.963922,3.65301282 114.503529,1.19358974 Z" id="Shape"></path>
                <path d="M107.984314,2.71070513 C109.220392,2.59134615 110.497255,1.8249359 111.708235,2.51596154 C112.181961,3.29807692 111.26902,4.14615385 111.247059,4.99108974 C110.996078,8.13525641 109.091765,10.9401923 109.267451,14.1377564 C109.339608,15.2214103 108.693333,16.2014103 108.76549,17.2882051 C108.818824,18.4723718 108.169412,19.5466026 108.178824,20.7307692 C108.12549,22.9137821 108.470588,25.0810897 108.592941,27.2546795 C105.960784,26.708141 103.385098,25.8632051 100.972549,24.6758974 C99.545098,24.4937179 98.3811765,23.6267949 97.1011765,23.0519872 C94.2964706,21.7327564 91.3035294,20.7150641 88.7843137,18.861859 C87.2188235,17.6054487 84.9066667,17.5520513 83.5921569,15.9375641 C83.0901961,15.1680128 82.3278431,14.6528846 81.612549,14.1063462 C82.4407843,13.3148077 83.5921569,13.0509615 84.5552941,12.4667308 C86.0047059,11.9735897 87.1686275,10.8962179 88.6494118,10.4878846 C90.6352941,9.87224359 92.4486275,8.81685897 94.4094118,8.13839744 C96.9286275,7.25576923 99.5545098,6.62128205 101.92,5.35230769 C103.861961,4.31262821 105.763137,3.05621795 107.984314,2.71070513 Z" id="Shape"></path>
                <path d="M160.012549,6.33544872 C162.111373,6.60871795 163.978039,7.66724359 165.901176,8.47762821 C166.876863,8.86711538 167.629804,9.67435897 168.636863,9.99160256 C169.53098,10.3276923 170.478431,10.5601282 171.272157,11.1160897 C173.377255,12.5169872 175.87451,13.226859 177.876078,14.7973718 C179.043137,15.7710897 180.583529,16.1228846 181.763137,17.0903205 C182.989804,17.8598718 183.846275,19.1508333 185.226667,19.6753846 C186.123922,20.1967949 186.97098,20.8092949 187.730196,21.5191667 C189.31451,22.9703205 191.137255,24.1576282 192.580392,25.7595513 C192.818824,26.1239103 193.251765,26.5510897 193.02902,27.0253846 C192.727843,27.8200641 191.861961,28.0839103 191.140392,28.3446154 C188.097255,29.4 185.148235,30.8542949 181.916863,31.2437821 C180.596078,31.3757051 179.410196,32.0416026 178.117647,32.3085897 C176.210196,32.8551282 174.17098,32.704359 172.310588,33.4205128 C170.412549,33.8319872 168.429804,33.5901282 166.547451,34.1178205 C165.320784,34.4570513 164.043922,34.180641 162.81098,34.4382051 C160.837647,34.8088462 158.817255,34.6800641 156.825098,34.6423718 C157.079216,33.7723077 157.499608,32.9619231 158.023529,32.2269231 C157.982745,32.0384615 157.901176,31.6583974 157.857255,31.4699359 C160,27.0567949 160.329412,22.0908333 161.104314,17.3227564 C161.283137,16.3616026 160.76549,15.4444231 160.865882,14.4832692 C160.928627,13.5315385 161.038431,12.5735256 160.972549,11.6186538 C160.83451,9.82198718 160.012549,8.15096154 160.012549,6.33544872 Z" id="Shape"></path>
                <path d="M78.7105882,15.6580128 C79.3537255,15.1240385 79.9372549,15.8716026 80.4580392,16.2045513 C84.6368627,19.2984615 89.2862745,21.6667949 93.9262745,23.9785897 C93.427451,24.6507692 92.8219608,25.231859 92.1537255,25.725 C91.865098,26.2464103 91.6141176,26.8023718 91.1654902,27.2075641 C88.9286275,29.3277564 87.3129412,31.975641 85.5592157,34.4853205 C85.0792157,35.1135256 85.0321569,35.9616026 84.4862745,36.5458333 C83.9247059,37.1960256 83.6109804,37.9969872 83.2313725,38.7508333 C82.0862745,40.1328846 81.3176471,41.769359 80.2415686,43.1985256 C79.0494118,45.6485256 77.5843137,47.9540385 76.2258824,50.3098077 C75.7835294,51.1547436 75.1937255,51.9745513 75.1309804,52.9576923 C73.3082353,55.3448718 72.787451,58.3696795 71.6862745,61.1023718 C61.5686275,61.3033974 51.4509804,61.6332051 41.3301961,61.491859 C41.6345098,60.3925 42.0109804,59.3088462 42.5192157,58.2880128 C45.4964706,52.0750641 48.8690196,46.0097436 53.0509804,40.5317949 C53.8415686,39.448141 54.4690196,38.2325641 55.4415686,37.2871154 C55.9717647,36.7751282 56.4768627,36.2348718 56.9035294,35.6286538 C61.625098,29.2429487 67.4007843,23.6958974 73.6533333,18.8335897 C75.3819608,17.8441667 77.0352941,16.7353846 78.7105882,15.6580128 Z" id="Shape"></path>
                <path d="M96.2352941,24.8235256 C99.6329412,26.4097436 103.26902,27.3866026 106.735686,28.7937821 C108.056471,29.3183333 109.251765,30.2135256 110.698039,30.3705769 C111.774118,30.5150641 112.86902,30.6564103 113.841569,31.1841026 C115.978039,32.2771795 118.541176,31.7432051 120.652549,32.8928205 C121.270588,33.2697436 122.020392,33.1283974 122.707451,33.2163462 C124.169412,33.3922436 125.581176,33.8791026 127.052549,34.0235897 C127.962353,34.0989744 128.906667,33.9796154 129.788235,34.2811538 C130.541176,34.5167308 131.281569,34.8276923 132.072157,34.9250641 C132.950588,34.9282051 133.825882,34.7177564 134.707451,34.8308333 C135.614118,34.9816026 136.458039,35.3836538 137.364706,35.5595513 C138.4,35.6569231 139.457255,35.3616667 140.483137,35.644359 C141.333333,35.8799359 142.196078,36.1312179 143.090196,36.0087179 C144.762353,35.8516667 146.387451,36.4955769 148.059608,36.3479487 C152.247843,35.8830769 156.51451,36.8096795 160.671373,35.9396154 C161.929412,35.6977564 163.225098,36.3259615 164.461176,35.8642308 C165.910588,35.3019872 167.532549,35.9364744 168.963137,35.2894231 C170.575686,34.6266667 172.379608,35.4370513 173.979608,34.6769231 C174.346667,35.5689744 174.795294,36.4610256 175.830588,36.6871795 C178.108235,39.0335256 178.666667,42.4792308 180.542745,45.1051282 C181.091765,45.9155128 181.123137,46.9332051 181.361569,47.8598077 C181.935686,50.1841667 182.14902,52.5870513 182.327843,54.9679487 C182.095686,56.0233333 182.421961,57.0661538 182.378039,58.1152564 C181.979608,58.6586538 181.50902,59.1423718 181.094902,59.6732051 C176.467451,59.5758333 171.84,59.783141 167.212549,59.7894231 C162.089412,59.9558974 156.96,59.7957051 151.84,60.0407051 C138.453333,60.1160897 125.076078,60.515 111.689412,60.5621154 C105.945098,60.7914103 100.185098,60.7474359 94.4345098,60.7914103 C87.5670588,60.7317308 80.7090196,61.1463462 73.8415686,61.005 C74.5662745,58.5424359 75.0023529,55.8694231 76.6933333,53.8434615 C77.5811765,52.1661538 78.1301961,50.3286538 78.9929412,48.635641 C79.6737255,46.7070513 81.44,45.4380769 82.1019608,43.5032051 C82.7545098,41.775641 84.0282353,40.4155769 85.0164706,38.8858974 C85.6219608,37.9938462 85.8854902,36.9101923 86.5568627,36.0558333 C88.1537255,33.9042308 89.5278431,31.5924359 91.1717647,29.4753846 C92.5584314,27.6158974 94.5976471,26.4285897 96.2352941,24.8235256 Z" id="Shape"></path>
                <path d="M190.509804,30.0376282 C192.147451,29.9842308 193.543529,29.1078846 194.886275,28.2660897 C196.200784,29.2209615 197.179608,30.5496154 198.287059,31.7275 C199.990588,33.6812179 201.838431,35.525 203.281569,37.6923077 C204.790588,39.9601282 206.672941,42.0237821 207.68,44.593141 C208.702745,47.2347436 210.227451,49.6470513 211.262745,52.2823718 C212.112941,54.5533333 213.650196,56.5321795 214.174118,58.9319231 C208.636863,59.6575 203.024314,59.0701282 197.465098,59.3905128 C193.079216,59.5192949 188.683922,59.8176923 184.304314,59.4250641 C184.54902,55.3762821 183.893333,51.2709615 183.127843,47.2755769 C182.854902,46.0474359 182.17098,44.9763462 181.753725,43.8047436 C181.088627,41.9452564 180.467451,40.054359 179.507451,38.3236538 C178.660392,36.9258974 177.540392,35.6946154 176.916078,34.1617949 C180.495686,32.7389103 184.341961,32.2175 188.072157,31.3380128 C188.978824,31.111859 189.741176,30.5464744 190.509804,30.0376282 Z" id="Shape"></path>
                <path d="M214.280784,60.1475 C218.870588,60.1160897 223.466667,60.2197436 228.040784,59.8051282 C229.618824,59.6449359 231.209412,59.7140385 232.793725,59.7297436 C236.451765,59.8302564 240.100392,59.5130128 243.755294,59.5255769 C246.829804,59.538141 249.904314,59.4784615 252.978824,59.6041026 C245.650196,77.5016667 237.913725,95.2264744 230.120784,112.923013 C227.758431,118.385256 225.659608,123.960577 223.049412,129.312885 C218.553725,129.265769 214.073725,129.561026 209.578039,129.539038 C199.752157,129.520192 189.932549,129.862564 180.103529,129.787179 C171.112157,130.00391 162.108235,129.884551 153.12,130.167244 C143.695686,130.18609 134.287059,130.588141 124.865882,130.632115 C110.961569,130.965064 97.0478431,130.767179 83.1403922,130.936795 C79.8901961,131.222628 76.6180392,131.002756 73.3615686,131.156667 C61.4368627,131.467628 49.5027451,131.354551 37.5780392,131.590128 C32.6901961,131.866538 27.7835294,131.637244 22.8988235,131.967051 C15.2658824,132.001603 7.63607843,132.230897 0,132.171218 C2.31215686,125.964551 5.35215686,120.065705 8.15686275,114.075769 C12.8972549,103.993077 17.6219608,93.9009615 22.2870588,83.7805769 C25.4180392,76.93 28.6023529,70.0951282 31.9623529,63.3513462 C32.1160784,62.7671154 32.7529412,62.7576923 33.2486275,62.7765385 C42.4627451,62.8487821 51.667451,62.4058974 60.8784314,62.2739744 C63.2721569,62.0729487 65.6752941,62.1514744 68.0752941,62.1012179 C74.9741176,61.7902564 81.8854902,62.0572436 88.7811765,61.7933974 C93.7003922,61.8248077 98.6164706,61.6677564 103.535686,61.6740385 C108.345098,61.5107051 113.15451,61.4353205 117.967059,61.4604487 C130.713725,61.1746154 143.463529,61.2123077 156.210196,60.9767308 C160.501961,60.7317308 164.806275,60.8919231 169.104314,60.8071154 C176.32,60.8950641 183.529412,60.5024359 190.748235,60.5652564 C198.59451,60.5401282 206.437647,60.3453846 214.280784,60.1475 Z M224.621176,63.6748718 C219.090196,64.0360897 213.540392,63.9104487 208,63.9324359 C195.971765,64.0549359 183.946667,64.1491667 171.918431,64.3564744 C168.053333,64.6988462 164.185098,64.1051923 160.32,64.4444231 C152.790588,64.5669231 145.258039,64.6328846 137.731765,64.7742308 C130.403137,64.7333974 123.087059,65.3992949 115.758431,65.173141 C107.921569,65.2705128 100.081569,65.0663462 92.2447059,65.2579487 C89.4243137,65.4275641 86.6007843,65.4526923 83.7772549,65.5563462 C74.2619608,66.0086538 64.7309804,65.8673077 55.2094118,65.9144231 C52.1819608,66.1374359 49.145098,65.9521154 46.1113725,66.0557692 C42.4,66.0589103 38.6886275,66.1657051 34.9772549,66.2379487 C28.185098,80.0553205 21.9984314,94.1648077 15.3976471,108.079551 C12.4705882,114.443269 9.1545098,120.63109 6.5254902,127.133324 C22.9647059,127.145577 39.3976471,126.774936 55.827451,126.467115 C63.987451,126.281795 72.147451,126.322628 80.307451,126.325769 C89.8196078,126.061923 99.3317647,125.772949 108.847059,125.845192 C123.29098,125.895449 137.728627,125.603333 152.166275,125.276667 C159.585882,125.154167 167.00549,125.185577 174.421961,125.138462 C189.738039,125.125897 205.047843,124.635897 220.35451,124.208718 C224.103529,116.616859 226.905098,108.604103 230.30902,100.855192 C235.664314,88.3382051 241.374118,75.9751282 246.43451,63.3325 C239.162353,63.2728205 231.890196,63.4455769 224.621176,63.6748718 Z" id="Shape"></path>
                <path d="M200.614902,66.0432051 C202.189804,65.8201923 203.792941,65.8076282 205.367843,66.0369231 C205.515294,74.5648077 205.898039,83.1052564 205.471373,91.633141 C204.122353,91.5766026 202.776471,91.9441026 201.436863,91.7462179 C200.771765,91.5828846 200.724706,90.8070513 200.458039,90.2982051 C198.500392,92.000641 195.767843,93.1596795 193.173333,92.368141 C190.054902,91.3190385 187.912157,88.3067949 187.256471,85.1657692 C186.757647,82.1189744 187.193725,78.8680128 188.774902,76.1855769 C190.936471,72.2184615 197.24549,71.3169872 200.257255,74.7846795 C200.762353,71.8823718 199.915294,68.9235256 200.614902,66.0432051 Z M196.109804,76.6033333 C195.212549,76.7164103 194.236863,76.9048718 193.615686,77.6241667 C192.417255,78.9591026 192.112941,80.8562821 192.156863,82.5964103 C192.260392,84.3459615 192.671373,86.2651282 194.029804,87.4901282 C195.002353,88.3633333 196.436078,88.3067949 197.643922,88.0932051 C199.181176,87.7571154 200.087843,86.24 200.426667,84.8045513 C200.916078,82.6246795 200.712157,80.1778205 199.457255,78.280641 C198.751373,77.178141 197.424314,76.4651282 196.109804,76.6033333 Z" id="Shape"></path>
                <path d="M76.5584314,66.7907692 C79.6956863,66.1594231 83.1780392,66.4452564 85.9137255,68.2199359 C88.4203922,69.7967308 89.9419608,72.5482692 90.5882353,75.3846154 C89.0196078,75.5448077 87.4447059,75.6358974 85.8760784,75.7929487 C85.0792157,74.2664103 84.2415686,72.5922436 82.6321569,71.781859 C80.3513725,70.56 77.254902,70.801859 75.3568627,72.6362179 C73.254902,74.6182051 72.4705882,77.6053205 72.3419608,80.4102564 C72.3262745,82.9953205 72.9098039,85.7154487 74.5505882,87.7759615 C76.2760784,89.9683974 79.507451,90.7850641 82.0705882,89.6951282 C84.3639216,88.7496795 85.9043137,86.4755769 86.2682353,84.0601282 C84.2039216,83.8999359 82.1301961,84.0161538 80.0627451,83.9533333 C79.8713725,82.6246795 79.8368627,81.2803205 79.9654902,79.9453846 C83.5796078,79.8448718 87.187451,79.6532692 90.8047059,79.6846795 C90.8956863,84.2611538 91.2972549,88.8439103 90.8831373,93.4141026 C89.6156863,93.5146154 88.3482353,93.5680128 87.0807843,93.5240385 C86.9458824,92.6445513 86.8141176,91.7650641 86.6760784,90.8887179 C85.094902,92.2613462 83.5011765,93.7941667 81.3992157,94.2935897 C78.3247059,94.8998077 75.04,94.1271154 72.4768627,92.3461538 C69.452549,90.2919231 67.5796078,86.8116667 67.1090196,83.2246154 C66.6729412,79.5873077 67.174902,75.7583974 68.9756863,72.5357051 C70.5505882,69.6742308 73.3301961,67.4378205 76.5584314,66.7907692 Z" id="Shape"></path>
                <path d="M105.264314,67.8838462 C106.729412,67.623141 108.222745,67.6953846 109.703529,67.6985256 C109.976471,69.0397436 109.894902,70.4123718 109.844706,71.7724359 C108.379608,72.0928205 106.873725,71.9766026 105.386667,72.0174359 C105.044706,70.6605128 105.160784,69.2596154 105.264314,67.8838462 Z" id="Shape"></path>
                <path d="M160.097255,68.3612821 C161.659608,68.1633974 163.237647,68.2230769 164.806275,68.3330128 C164.847059,70.1987821 164.853333,72.0676923 164.953725,73.9334615 C166.04549,74.0151282 167.140392,73.9680128 168.235294,74.0214103 C168.272941,75.0516667 168.272941,76.0882051 168.272941,77.1216026 C167.228235,77.3540385 166.158431,77.4042949 165.094902,77.3823077 C164.787451,78.6921154 164.934902,80.0427564 164.947451,81.3745513 C164.975686,83.1523718 164.831373,84.9301923 164.934902,86.7048718 C165.010196,87.4210256 165.214118,88.2628205 165.898039,88.6397436 C166.801569,88.8376282 167.739608,88.7496795 168.655686,88.8439103 C168.665098,90.0312179 168.621176,91.2216667 168.608627,92.4089744 C166.243137,92.6414103 163.516863,93.0277564 161.493333,91.4855128 C160.150588,90.4332692 160.072157,88.5769231 160.188235,87.0158333 C160.448627,83.8591026 160.078431,80.7055128 159.871373,77.5582051 C159.055686,77.545641 158.246275,77.539359 157.433725,77.5079487 C157.433725,76.4337179 157.436863,75.3626282 157.433725,74.2883974 C158.243137,74.235 159.058824,74.1816026 159.865098,74.0685256 C160.207059,72.1713462 159.736471,70.2490385 160.097255,68.3612821 Z" id="Shape"></path>
                <path d="M173.40549,73.7544231 C176.16,72.4791667 179.438431,72.5859615 182.249412,73.6287821 C184.282353,74.3794872 185.807059,76.3112179 185.979608,78.4879487 C186.519216,83.0110256 185.854118,87.5812179 186.312157,92.1137179 C184.884706,92.2016667 183.454118,92.2550641 182.023529,92.2267949 C181.800784,91.6425641 181.587451,91.0551923 181.377255,90.4709615 C180.112941,91.5671795 178.682353,92.6539744 176.947451,92.7701923 C174.497255,92.980641 171.799216,92.2644872 170.127059,90.3704487 C168.486275,88.5580769 168.464314,85.4830128 170.180392,83.7114744 C171.551373,82.2697436 173.534118,81.6949359 175.400784,81.214359 C176.969412,80.7808974 178.65098,80.7966026 180.166275,80.1558333 C181.239216,79.7160897 181.524706,78.1173077 180.633725,77.3540385 C179.48549,76.320641 177.741176,76.3049359 176.32,76.6378846 C175.134118,76.93 174.707451,78.1675641 174.039216,79.0407692 C172.787451,79.4836538 171.400784,79.2763462 170.095686,79.2575 C170.174118,77.0148077 171.316078,74.7344231 173.40549,73.7544231 Z M174.710588,85.0778205 C173.339608,85.9573077 173.66902,88.2251282 175.127843,88.8313462 C177.173333,89.7139744 179.824314,88.8564744 180.991373,86.9530128 C181.618824,85.6369231 181.487059,84.1072436 181.116863,82.7377564 C179.068235,83.7648718 176.602353,83.7397436 174.710588,85.0778205 Z" id="Shape"></path>
                <path d="M133.53098,73.7858333 C135.243922,73.6444872 137.135686,74.0748077 138.327843,75.3908974 C139.319216,76.5059615 139.783529,77.9822436 140.015686,79.4333974 C140.727843,83.8716667 139.943529,88.3570513 140.163137,92.8204487 C138.575686,93.0246154 136.966275,93.1910897 135.369412,92.9680769 C135.087059,89.2019872 135.557647,85.4233333 135.272157,81.6572436 C135.171765,80.3285897 134.660392,78.8334615 133.320784,78.3026282 C132.09098,78.0953205 130.657255,78.4188462 129.882353,79.4679487 C129.167059,80.4291026 129.016471,81.6635256 128.909804,82.8257051 C128.752941,86.2274359 129.69098,89.6354487 129.126275,93.0246154 C127.48549,93.2067949 125.825882,93.2758974 124.185098,93.0654487 C124.003137,89.4815385 124.222745,85.8913462 124.122353,82.3042949 C124.06902,81.2269231 124.003137,80.0301923 123.250196,79.1852564 C122.202353,78.0230769 120.244706,78.0733333 119.099608,79.0596154 C118.299608,79.8228846 117.998431,80.9473718 117.85098,82.0090385 C117.386667,85.7154487 118.403137,89.4438462 117.838431,93.1439744 C116.272941,93.3387179 114.691765,93.4926282 113.113725,93.3324359 C112.649412,87.2105769 112.746667,81.0667308 112.872157,74.9354487 C114.243137,74.8820513 115.64549,74.4517308 117.007059,74.7941026 C117.807059,74.9794231 117.738039,75.9123077 117.854118,76.5499359 C118.842353,75.7269872 119.642353,74.5553846 120.956863,74.238141 C123.614118,73.5062821 126.839216,74.4108974 128.332549,76.8389103 C129.700392,75.3312179 131.444706,74.0088462 133.53098,73.7858333 Z" id="Shape"></path>
                <path d="M144.44549,74.5491026 C147.262745,73.1450641 150.701176,73.0696795 153.584314,74.3323718 C155.64549,75.1804487 157.24549,77.2064103 157.151373,79.5025 C155.830588,79.5496154 154.506667,79.750641 153.18902,79.6469872 C152.580392,78.9025641 152.392157,77.7592308 151.438431,77.3477564 C150.007843,76.7415385 148.316863,76.7132692 146.892549,77.3414744 C146.199216,77.6398718 145.625098,78.3717308 145.800784,79.1632692 C146.076863,80.0490385 147.011765,80.4259615 147.836863,80.6332692 C150.4,81.2677564 153.138824,81.4216667 155.52,82.6592308 C157.543529,83.6737821 158.403137,86.2211538 157.882353,88.3444872 C157.399216,90.2919231 155.877647,91.8373077 154.120784,92.7136538 C151.871373,93.8538462 149.226667,93.6622436 146.817255,93.2821795 C143.733333,92.7544872 141.063529,90.1317308 140.916078,86.9310256 C142.378039,86.7645513 143.855686,86.7237179 145.330196,86.7394231 C145.625098,87.5875 145.876078,88.5580769 146.679216,89.0794872 C148.06902,90.0029487 149.916863,90.2259615 151.498039,89.7171154 C152.392157,89.4438462 153.223529,88.6428846 153.060392,87.6314744 C153.15451,86.6828846 152.266667,86.0923718 151.488627,85.8191026 C149.383529,85.0683974 147.090196,85.1249359 144.972549,84.4244872 C142.710588,83.6580769 141.032157,81.2740385 141.352157,78.8554487 C141.496471,76.9802564 142.78902,75.3594872 144.44549,74.5491026 Z" id="Shape"></path>
                <path d="M98.1082353,77.0242308 C99.0305882,76.0222436 99.9529412,74.8569231 101.345882,74.5239744 C102.089412,74.2538462 102.88,74.4108974 103.639216,74.5208333 C103.777255,75.8620513 103.745882,77.2095513 103.64549,78.5507692 C102.43451,78.6135897 101.132549,78.7266667 100.169412,79.5496154 C98.6917647,80.7149359 98.3278431,82.7063462 98.1427451,84.4716026 C97.9043137,87.4492949 98.2243137,90.4489744 97.8478431,93.4172436 C96.3231373,93.5366026 94.7952941,93.5460256 93.2705882,93.4266667 C92.8847059,87.3582051 93.145098,81.2708974 93.1011765,75.1930128 C94.6007843,74.8946154 96.147451,74.8789103 97.6627451,75.0485256 C98.1772549,75.5448077 97.9388235,76.3803205 98.1082353,77.0242308 Z" id="Shape"></path>
                <path d="M105.204706,75.9814103 C105.239216,75.6264744 105.091765,75.0925 105.590588,75.0233974 C107.046275,74.9071795 108.511373,74.9417308 109.967059,75.0014103 C110.352941,81.1044231 110.305882,87.22 110.218039,93.3292949 C108.652549,93.5208974 107.077647,93.5460256 105.505882,93.4675 C105.301961,87.6408974 105.195294,81.8111538 105.204706,75.9814103 Z" id="Shape"></path>
                <path d="M131.560784,95.9771795 C134.070588,95.8138462 136.599216,95.5405769 139.112157,95.8923718 C139.281569,98.5716667 139.284706,101.263526 139.526275,103.942821 C141.697255,102.347179 143.16549,100.035385 145.157647,98.248141 C146.230588,97.265 147.021176,95.6285256 148.655686,95.5594231 C151.146667,95.4432051 153.63451,95.7384615 156.12549,95.7824359 C155.466667,96.9446154 154.447059,97.8146795 153.50902,98.7412821 C151.243922,101.037372 149.123137,103.474808 146.986667,105.890256 C148.818824,108.572692 150.657255,111.251987 152.574118,113.877885 C154.359216,116.315321 156.458039,118.558013 157.807059,121.293846 C154.738824,121.463462 151.664314,121.491731 148.592941,121.466603 C146.214902,118.250192 144.407843,114.644295 141.898039,111.525256 C141.054118,112.247692 139.796078,112.769103 139.567059,113.975256 C139.13098,116.456667 139.990588,118.938077 139.717647,121.42891 C137.220392,121.714744 134.707451,121.548269 132.200784,121.67391 C131.68,113.117756 131.648627,104.545897 131.560784,95.9771795 Z" id="Shape"></path>
                <path d="M123.683137,95.8798077 C126.061176,95.8641026 128.439216,95.9740385 130.814118,95.8358333 C130.62902,98 129.85098,100.041667 129.273725,102.117885 C127.494902,108.629231 125.756863,115.156282 123.745882,121.601667 C120.897255,121.743013 118.04549,121.727308 115.196863,121.702179 C112.216471,113.230833 109.383529,104.712372 106.503529,96.2064744 C109.007059,95.8672436 111.532549,96.1059615 114.04549,95.9771795 C116.197647,101.627885 117.44,107.564423 119.187451,113.34391 C120.345098,107.445064 121.681569,101.558782 123.683137,95.8798077 Z" id="Shape"></path>
                <path d="M185.744314,130.886538 C194.961569,130.563013 204.185098,130.333718 213.40549,130.575577 C212.938039,132.614103 211.852549,134.41391 210.726275,136.147756 C210.312157,137.526667 209.251765,138.550641 208.690196,139.857308 C207.978039,141.377564 207.209412,142.904103 205.985882,144.081987 C205.323922,145.149936 204.323137,145.976026 203.818039,147.144487 C203.366275,148.218718 202.183529,148.740128 201.775686,149.842628 C200.793725,151.896859 198.84549,153.21609 197.543529,155.041026 C196.291765,156.796859 194.905098,158.461603 193.261176,159.868782 C189.929412,163.823333 185.615686,166.775897 181.333333,169.587115 C179.695686,169.602821 178.443922,168.377821 177.010196,167.774744 C175.112157,166.964359 173.160784,166.273333 171.344314,165.293333 C169.643922,165.133141 168.156863,164.225385 166.49098,163.930128 C165.810196,163.832756 165.273725,163.367885 164.693333,163.044359 C166.748235,160.50641 167.632941,157.277436 169.546667,154.648397 C169.847843,153.530192 170.296471,152.455962 171.055686,151.56391 C171.178039,150.301218 171.77098,149.17359 172.442353,148.127628 C173.593725,146.400064 173.847843,144.267308 174.958431,142.520897 C175.767843,138.594615 177.590588,134.976154 178.506667,131.084423 C179.240784,131.053013 179.978039,131.049872 180.715294,131.021603 C182.381176,130.817436 184.065882,130.936795 185.744314,130.886538 Z" id="Shape"></path>
                <path d="M149.960784,131.219487 C158.619608,131.081282 167.281569,130.974487 175.940392,131.140962 C175.739608,133.474744 175.124706,135.767692 174.271373,137.944423 C174.387451,139.150577 173.706667,140.168269 173.421176,141.299038 C173.223529,142.121987 172.567843,142.725064 172.288627,143.513462 C171.902745,144.524872 171.899608,145.696474 171.174902,146.557115 C170.305882,147.587372 170.048627,148.96 169.261176,150.034231 C168.60549,150.860321 168.599216,151.981667 168.09098,152.886282 C167.780392,153.674679 167.055686,154.161538 166.591373,154.843141 C165.998431,155.889103 165.835294,157.142372 165.101176,158.11609 C164.592941,158.775705 164.072157,159.432179 163.667451,160.170321 C162.870588,160.625769 162.33098,161.373333 161.860392,162.139744 C158.936471,161.781667 156.363922,160.091795 153.414902,159.849936 C151.272157,159.755705 149.361569,158.700321 147.303529,158.235449 C146.105098,157.930769 144.850196,158.3925 143.667451,157.984167 C142.666667,157.676346 141.615686,157.607244 140.592941,157.418782 C139.306667,157.120385 138.089412,156.517308 136.749804,156.473333 C134.983529,156.196923 133.179608,156.454487 131.422745,156.108974 C130.578824,155.958205 129.816471,155.490192 128.953725,155.427372 C127.896471,155.370833 126.842353,155.449359 125.788235,155.424231 C123.780392,155.42109 121.841569,154.714359 119.833725,154.742628 C114.287059,154.968782 108.762353,154.155256 103.215686,154.293462 C100.696471,154.230641 98.1709804,154.739487 95.667451,154.337436 C94.8109804,154.19609 94.054902,154.777179 93.2078431,154.758333 C90.8862745,154.84 88.5458824,154.529038 86.2431373,154.959359 C83.7898039,155.091282 81.3207843,155.662949 78.867451,155.336282 C77.894902,154.459936 77.3270588,153.238077 76.7811765,152.072756 C76.2823529,150.624744 75.0839216,149.569359 74.5505882,148.13391 C73.6219608,146.431474 73.5592157,144.414936 72.6180392,142.725064 C72.0439216,141.710513 72.1317647,140.501218 71.7709804,139.420705 C71.52,138.506667 71.0682353,137.611474 71.1623529,136.644038 C71.3380392,135.211731 70.6854902,133.851667 70.7921569,132.4225 C74.7796078,131.891667 78.8109804,132.007885 82.8235294,132.001603 C88.665098,132.020449 94.5129412,132.26859 100.348235,131.916795 C104.853333,131.649808 109.374118,131.816282 113.879216,131.59641 C115.447843,131.674936 117.016471,131.646667 118.588235,131.652949 C122.36549,131.546154 126.145882,131.580705 129.926275,131.4425 C136.602353,131.254038 143.287843,131.495897 149.960784,131.219487 Z" id="Shape"></path>
                <path d="M39.0996078,132.805705 C48.8690196,132.372244 58.6478431,132.174359 68.4298039,132.384808 C68.9694118,133.867372 69.1921569,135.434744 69.2737255,137.005256 C70.0862745,139.882436 70.4596078,142.860128 71.2219608,145.749872 C71.3568627,146.616795 72.3796078,146.874359 72.6494118,147.669038 C73.8133333,150.382885 75.0901961,153.046474 76.4894118,155.647244 C75.4917647,156.008462 74.412549,155.791731 73.3803922,155.904808 C69.8854902,156.281731 66.4501961,157.079551 63.0619608,157.996731 C62.2933333,158.166346 61.6627451,158.662628 61.1513725,159.237436 C59.3192157,158.05641 58.3686275,155.980192 56.6305882,154.695513 C56.0627451,154.296603 55.7615686,153.658974 55.3756863,153.106154 C54.3058824,151.497949 52.7592157,150.301218 51.4980392,148.856346 C50.7388235,148.027115 50.1521569,147.059679 49.3772549,146.243013 C46.7952941,143.576282 44.505098,140.639423 42.0988235,137.818782 C41.3176471,136.000128 39.4760784,134.815962 39.0996078,132.805705 Z" id="Shape"></path>
                <path d="M99.2345098,156.146667 C101.788235,155.653526 104.385882,156.112115 106.958431,155.914231 C108.778039,155.757179 110.544314,156.353974 112.357647,156.375962 C114.20549,156.573846 116.072157,156.426218 117.92,156.636667 C119.491765,156.872244 121.08549,156.793718 122.666667,156.828269 C125.63451,156.809423 128.517647,157.692051 131.472941,157.789423 C131.639216,157.739167 131.971765,157.641795 132.141176,157.591538 C134.654118,158.291987 137.254902,158.571538 139.799216,159.121218 C140.094118,161.473846 139.927843,163.845321 139.654902,166.191667 C139.494902,167.344423 138.967843,168.440641 139.096471,169.627949 C138.839216,171.261282 137.973333,172.734423 137.800784,174.383462 C137.446275,176.968526 136.203922,179.299167 135.334902,181.730321 C135.178039,182.239167 134.798431,182.619231 134.487843,183.036987 C133.916863,184.130064 133.367843,185.25141 132.643137,186.253397 C132.097255,186.859615 131.250196,186.686859 130.544314,186.551795 C129.176471,186.272244 127.799216,186.752821 126.428235,186.561218 C124.341961,186.287949 122.233725,186.570641 120.138039,186.438718 C119.400784,186.375897 118.72,186.014679 117.979608,185.995833 C115.761569,186.152885 113.612549,185.3425 111.388235,185.474423 C110.271373,185.084936 109.066667,185.314231 107.940392,184.984423 C107.011765,184.758269 106.089412,184.39391 105.12,184.466154 C104.037647,184.613782 103.146667,183.866218 102.136471,183.643205 C100.348235,183.22859 98.4627451,183.159487 96.7592157,182.421346 C96.3984314,181.130385 97.12,179.685513 96.64,178.366282 C96.0941176,177.078462 96.5929412,175.683846 96.4454902,174.345769 C96.3043137,172.335513 96.4611765,170.315833 96.8690196,168.34641 C97.254902,166.885833 96.7121569,165.315321 97.4180392,163.926987 C97.3992157,162.284231 97.9262745,160.713718 98.1490196,159.099231 C98.2180392,158.313974 98.7576471,157.720321 99.1937255,157.114103 C99.2062745,156.872244 99.225098,156.388526 99.2345098,156.146667 Z" id="Shape"></path>
                <path d="M74.1145098,157.390513 C81.5717647,156.580128 89.0666667,156.118397 96.5709804,156.077564 C96.3356863,157.434487 96.1819608,158.822821 95.6172549,160.094936 C95.2439216,160.917885 95.0337255,161.809936 95.0870588,162.720833 C94.7921569,166.892115 93.8509804,171.072821 94.2745098,175.259808 C94.1866667,176.293205 93.8509804,177.317179 93.9764706,178.366282 C94.0768627,179.387115 94.2933333,180.395385 94.3968627,181.419359 C91.9435294,181.579551 90.0392157,179.892821 87.9121569,179.00391 C84.9286275,177.71609 82.3027451,175.740385 79.3223529,174.449423 C78.7921569,174.232692 78.2933333,173.95 77.8760784,173.557372 C76.3733333,172.231859 74.4690196,171.430897 73.0760784,169.970321 C72.1568627,168.974615 70.8894118,168.40609 69.9670588,167.413526 C69.1984314,166.590577 68.1129412,166.147692 67.4227451,165.2525 C66.7137255,164.388718 65.6941176,163.895577 64.8533333,163.188846 C64.2352941,162.708269 64.0156863,161.891603 63.4039216,161.411026 C62.9019608,160.999551 62.3811765,160.606923 61.932549,160.135769 C65.145098,159.070962 68.454902,158.210321 71.8368627,157.937051 C72.6337255,157.915064 73.3301961,157.478462 74.1145098,157.390513 Z" id="Shape"></path>
                <path d="M142.233725,159.381923 C142.867451,159.435321 143.491765,159.350513 144.112941,159.21859 C146.127059,160.23 148.313725,161.109487 150.613333,161.005833 C152.298039,161.316795 154.029804,161.612051 155.560784,162.428718 C157.603137,163.424423 160.028235,163.2925 162.001569,164.470385 C162.992941,165.145705 164.254118,165.089167 165.352157,165.503782 C166.785882,166.091154 168.335686,166.314167 169.753725,166.951795 C170.070588,167.234487 170.390588,167.510897 170.716863,167.790449 C172.031373,167.686795 173.135686,168.503462 174.36549,168.811282 C175.698824,169.521154 177.066667,170.221603 178.155294,171.292692 C173.31451,175.08391 167.388235,177.021923 161.935686,179.716923 C160.505098,180.015321 159.250196,180.948205 157.747451,180.875962 C156.636863,181.413077 155.541961,182.025577 154.327843,182.298846 C152.853333,182.641218 151.463529,183.256859 149.976471,183.539551 C149.361569,183.624359 148.796863,183.8725 148.269804,184.192885 C146.415686,184.290256 144.781176,185.226282 143.030588,185.722564 C140.699608,186.020962 138.343529,186.382179 135.993725,186.039808 C136.392157,184.927885 136.837647,183.828526 137.383529,182.782564 C138.199216,181.416218 138.042353,179.682372 139.13098,178.441667 C139.13098,178.008205 139.178039,177.584167 139.26902,177.16641 C141.198431,171.443462 141.854118,165.381282 142.233725,159.381923 Z" id="Shape"></path>
            </g>
            <g id="#000000ff" fill="#000000">
                <path d="M119.218824,1.18416667 C121.913725,1.0899359 124.517647,0.0219871795 127.237647,0.354935897 C130.299608,0.753846154 133.392941,0.376923077 136.458039,0.709871795 C138.779608,0.800961538 141.044706,1.53282051 143.381961,1.35064103 C144.919216,1.27525641 146.227451,2.26782051 147.736471,2.37461538 C148.737255,2.51596154 149.835294,2.42487179 150.726275,2.99025641 C152.38902,4.165 154.600784,4.04878205 156.216471,5.33660256 C157.753725,5.79519231 158.983529,6.78147436 160.301176,7.64211538 C161.876078,7.40967949 163.454118,6.90711538 165.066667,7.19294872 C169.226667,7.66410256 172.705882,10.1894872 176.432941,11.8573718 C178.387451,13.2362821 180.527059,14.3042308 182.704314,15.2810897 C184.498824,16.6348718 186.255686,18.0483333 188.232157,19.1382692 C189.803922,20.576859 191.391373,22.0185897 193.289412,23.026859 C193.95451,24.6664744 195.651765,25.5051282 196.407843,27.0787821 C197.060392,28.2032692 197.82902,29.2555128 198.531765,30.3517308 C199.692549,30.5684615 201.038431,30.6124359 201.891765,31.5516026 C202.578824,32.34 203.516863,32.8614103 204.147451,33.7063462 C205.28,35.1763462 206.500392,36.5803846 207.513725,38.1383333 C208.589804,39.4324359 209.584314,40.7862179 210.318431,42.3033333 C214.290196,47.53 217.176471,53.5230769 219.344314,59.7046154 C219.758431,60.763141 219.479216,61.9033333 219.529412,63.0058333 C223.215686,63.1314744 226.898824,62.9021795 230.585098,62.8739103 C235.181176,62.600641 239.789804,62.7011538 244.385882,62.4687179 C248.257255,62.4184615 252.128627,62.4404487 256,62.4655769 L256,62.9932692 C255.218824,65.5689103 253.945098,67.9498077 252.884706,70.4092308 C245.317647,88.6491667 237.072941,106.596987 229.512157,124.836923 C228.542745,127.274359 227.322353,129.605 226.387451,132.055 C225.985882,132.921923 226.183529,134.454744 224.950588,134.611795 C223.152941,134.84109 221.352157,134.379359 219.551373,134.495577 C218.581961,136.691154 217.521569,138.845897 216.624314,141.072885 C216.244706,142.121987 215.203137,142.750192 214.873725,143.827564 C214.603922,144.556282 214.208627,145.225321 213.747451,145.850385 C212.734118,147.223013 212.787451,149.076218 211.761569,150.448846 C210.669804,152.352308 208.740392,153.655833 207.902745,155.710064 C207.253333,157.161218 206.196078,158.364231 205.138824,159.52641 C204.414118,160.292821 203.952941,161.297949 203.043137,161.879038 C201.791373,162.730256 201.107451,164.115449 200.191373,165.271346 C198.701176,167.206218 196.768627,168.723333 194.996078,170.378654 C193.424314,171.28641 192.420392,172.894615 190.823529,173.780385 C189.719216,174.581346 188.260392,174.631603 187.190588,175.492244 C186.556863,176.013654 185.719216,176.095321 184.997647,176.421987 C184.166275,177.408269 183.629804,178.674103 182.450196,179.327436 C182.30902,179.559872 182.17098,179.795449 182.036078,180.034167 C181.18902,180.615256 180.451765,181.403654 179.42902,181.670641 C178.324706,181.962756 177.609412,182.945897 176.54902,183.322821 C175.102745,183.819103 173.753725,184.569808 172.263529,184.924744 C171.538824,185.119487 170.980392,185.67859 170.265098,185.889038 C168.313725,186.328782 166.497255,187.21141 164.734118,188.131731 C163.143529,188.609167 161.653333,189.388141 159.990588,189.614295 C158.384314,190.361859 156.652549,190.760769 155.018039,191.43609 C151.824314,192.04859 148.843922,193.556282 145.574902,193.788718 C143.818039,193.945769 141.985882,193.081987 140.298039,193.873526 C139.021176,194.445192 137.596863,194.564551 136.326275,195.151923 C134.992941,195.776987 133.493333,195.770705 132.053333,195.858654 C129.882353,195.930897 127.664314,196.047115 125.543529,195.484872 C124.379608,195.192756 123.184314,195.41891 122.004706,195.406346 C120.96,195.374936 119.987451,194.881795 118.936471,194.910064 C115.80549,195.05141 112.73098,194.313269 109.653333,193.848397 C105.022745,193.078846 100.12549,192.255897 96.3105882,189.300192 C95.667451,189.799615 95.0243137,190.465513 94.1458824,190.459231 C92.3890196,190.644551 90.8203922,189.705385 89.3647059,188.857308 C88.4298039,188.273077 87.3443137,187.987244 86.425098,187.384167 C82.9615686,184.745705 79.027451,182.776282 75.7490196,179.889679 C70.854902,176.820897 66.4282353,173.070513 62.3372549,169.006026 C61.1639216,167.799872 60.2039216,166.408397 59.0494118,165.189679 C58.3403922,164.36359 57.1796078,164.162564 56.4517647,163.361603 C54.8580392,161.709423 53.3301961,159.997564 51.8619608,158.23859 C50.6792157,156.793718 49.2580392,155.575 48.0439216,154.161538 C46.4752941,152.386859 45.2109804,150.370321 43.6392157,148.598782 C41.76,146.466026 40.3545098,143.946923 39.334902,141.305321 C39.1090196,140.689679 38.7701961,140.133718 38.4156863,139.590321 C37.9011765,138.839615 37.9294118,137.865897 37.4776471,137.086923 C37.1262745,137.008397 36.7717647,136.973846 36.4141176,136.976987 C30.1270588,136.958141 23.8431373,136.989551 17.5592157,137.124615 C14.7482353,136.998974 11.9341176,137.049231 9.13254902,137.29109 C6.08941176,137.448141 3.04313725,137.388462 0,137.454423 L0,137.115192 C0.389019608,135.33109 1.29568627,133.732308 2.03294118,132.080128 C10.9270588,112.590064 20.4203922,93.3826923 29.292549,73.8800641 C30.5098039,71.0657051 31.4917647,68.0597436 33.5654902,65.7259615 C35.0462745,65.7071154 36.5364706,65.8641667 38.0141176,65.6788462 C38.5945098,65.2328205 38.425098,64.3721795 38.6447059,63.7439744 C39.1341176,62.0980769 39.7396078,60.4647436 40.7623529,59.0732692 C42.1552941,56.1332692 44.147451,53.5325 45.4180392,50.5359615 C49.5184314,45.0046154 53.1827451,39.1371795 57.6752941,33.9073718 C58.7137255,32.6069872 60.1945098,31.7746154 61.2423529,30.4867949 C65.0509804,26.1710256 68.985098,21.7987179 73.9890196,18.8461538 C76.627451,17.3730128 79.4384314,15.9312821 82.5003922,15.7208333 C83.5952941,14.8947436 83.3098039,13.0541026 84.6494118,12.4510256 C90.7294118,8.9550641 97.4180392,6.74692308 103.890196,4.12416667 C105.066667,3.60903846 106.374902,3.67814103 107.614118,3.42371795 C109.207843,3.12846154 110.876863,2.72326923 112.476863,3.22583333 C114.996078,3.91371795 116.806275,1.31294872 119.218824,1.18416667 Z M116.072157,5.27692308 C115.532549,7.73634615 114.349804,9.99474359 113.838431,12.4635897 C113.537255,13.9744231 112.815686,15.3878846 112.70902,16.9364103 C112.470588,19.1539744 112.106667,21.3558333 111.667451,23.5451282 C111.425882,24.3775 111.774118,25.2287179 111.648627,26.0705128 C111.598431,26.6798718 111.381961,27.2923718 111.52,27.9080128 C111.824314,29.3214744 111.761569,30.7946154 112.225882,32.1798077 C114.983529,33.3011538 117.876078,34.0235897 120.762353,34.7146154 C123.435294,35.4464744 126.164706,35.8705128 128.916078,36.1375 C130.78902,36.6337821 132.67451,37.0923718 134.553725,37.5352564 C137.317647,37.610641 139.996863,38.4995513 142.770196,38.3676282 C144.552157,38.3739103 146.255686,39.1811538 148.040784,39.0241026 C150.541176,38.4744231 153.110588,39.6271795 155.58902,38.7759615 C156.097255,38.0283974 156.89098,37.4598718 157.094902,36.5301282 C157.414902,36.2348718 157.72549,35.9113462 157.82902,35.4716026 C158.421961,33.6089744 159.218824,31.8091667 159.623529,29.89 C159.943529,28.4105769 160.09098,26.8966026 160.486275,25.4328846 C161.173333,23.1996154 160.643137,20.8407051 160.721569,18.5508974 C160.473725,16.4055769 160.470588,14.1534615 159.780392,12.1023718 C158.694902,11.2228846 158.688627,9.61782051 157.446275,8.87339744 C154.023529,7.28717949 150.183529,7.13326923 146.647843,5.92397436 C145.562353,5.65070513 144.442353,5.54705128 143.338039,5.39942308 C138.036078,4.71153846 132.70902,4.05820513 127.353725,4.17442308 C123.579608,4.35346154 119.780392,4.51365385 116.072157,5.27692308 Z M109.552941,6.79403846 C107.331765,7.13955128 105.430588,8.39596154 103.488627,9.43564103 C101.123137,10.7046154 98.4972549,11.3391026 95.9780392,12.2217308 C94.0172549,12.9001923 92.2039216,13.9555769 90.2180392,14.5712179 C88.7372549,14.9795513 87.5733333,16.0569231 86.1239216,16.5500641 C85.1607843,17.1342949 84.0094118,17.398141 83.1811765,18.1896795 C83.8964706,18.7362179 84.6588235,19.2513462 85.1607843,20.0208974 C86.4752941,21.6353846 88.787451,21.6887821 90.3529412,22.9451923 C92.8721569,24.7983974 95.865098,25.8160897 98.6698039,27.1353205 C99.9498039,27.7101282 101.113725,28.5770513 102.541176,28.7592308 C104.953725,29.9465385 107.529412,30.7914744 110.161569,31.3380128 C110.039216,29.1644231 109.694118,26.9971154 109.747451,24.8141026 C109.738039,23.6299359 110.387451,22.5557051 110.334118,21.3715385 C110.261961,20.2847436 110.908235,19.3047436 110.836078,18.2210897 C110.660392,15.0235256 112.564706,12.2185897 112.815686,9.07442308 C112.837647,8.22948718 113.750588,7.38141026 113.276863,6.59929487 C112.065882,5.90826923 110.78902,6.67467949 109.552941,6.79403846 Z M161.581176,10.4187821 C161.581176,12.2342949 162.403137,13.9053205 162.541176,15.7019872 C162.607059,16.656859 162.497255,17.6148718 162.43451,18.5666026 C162.334118,19.5277564 162.851765,20.4449359 162.672941,21.4060897 C161.898039,26.1741667 161.568627,31.1401282 159.425882,35.5532692 C159.469804,35.7417308 159.551373,36.1217949 159.592157,36.3102564 C159.068235,37.0452564 158.647843,37.855641 158.393725,38.7257051 C160.385882,38.7633974 162.406275,38.8921795 164.379608,38.5215385 C165.612549,38.2639744 166.889412,38.5403846 168.116078,38.2011538 C169.998431,37.6734615 171.981176,37.9153205 173.879216,37.5038462 C175.739608,36.7876923 177.778824,36.9384615 179.686275,36.3919231 C180.978824,36.1249359 182.164706,35.4590385 183.48549,35.3271154 C186.716863,34.9376282 189.665882,33.4833333 192.70902,32.4279487 C193.430588,32.1672436 194.296471,31.9033974 194.597647,31.1087179 C194.820392,30.6344231 194.387451,30.2072436 194.14902,29.8428846 C192.705882,28.2409615 190.883137,27.0536538 189.298824,25.6025 C188.539608,24.8926282 187.692549,24.2801282 186.795294,23.7587179 C185.414902,23.2341667 184.558431,21.9432051 183.331765,21.1736538 C182.152157,20.2062179 180.611765,19.8544231 179.444706,18.8807051 C177.443137,17.3101923 174.945882,16.6003205 172.840784,15.1994231 C172.047059,14.6434615 171.099608,14.4110256 170.20549,14.0749359 C169.198431,13.7576923 168.44549,12.9504487 167.469804,12.5609615 C165.546667,11.7505769 163.68,10.6920513 161.581176,10.4187821 Z M80.2792157,19.7413462 C78.6039216,20.8187179 76.9505882,21.9275 75.2219608,22.9169231 C68.9694118,27.7792308 63.1937255,33.3262821 58.4721569,39.7119872 C58.0454902,40.3182051 57.5403922,40.8584615 57.0101961,41.3704487 C56.0376471,42.3158974 55.4101961,43.5314744 54.6196078,44.6151282 C50.4376471,50.0930769 47.065098,56.1583974 44.0878431,62.3713462 C43.5796078,63.3921795 43.2031373,64.4758333 42.8988235,65.5751923 C53.0196078,65.7165385 63.1372549,65.3867308 73.254902,65.1857051 C74.3560784,62.4530128 74.8768627,59.4282051 76.6996078,57.0410256 C76.7623529,56.0578846 77.3521569,55.2380769 77.7945098,54.393141 C79.1529412,52.0373718 80.6180392,49.731859 81.8101961,47.281859 C82.8862745,45.8526923 83.654902,44.2162179 84.8,42.8341667 C85.1796078,42.0803205 85.4933333,41.279359 86.054902,40.6291667 C86.6007843,40.0449359 86.6478431,39.196859 87.1278431,38.5686538 C88.8815686,36.0589744 90.4972549,33.4110897 92.7341176,31.2908974 C93.1827451,30.8857051 93.4337255,30.3297436 93.7223529,29.8083333 C94.3905882,29.3151923 94.9960784,28.7341026 95.494902,28.0619231 C90.854902,25.7501282 86.2054902,23.3817949 82.0266667,20.2878846 C81.5058824,19.9549359 80.9223529,19.2073718 80.2792157,19.7413462 Z M97.8039216,28.906859 C96.1662745,30.5119231 94.1270588,31.6992308 92.7403922,33.5587179 C91.0964706,35.6757692 89.7223529,37.9875641 88.1254902,40.1391667 C87.4541176,40.9935256 87.1905882,42.0771795 86.585098,42.9692308 C85.5968627,44.4989103 84.3231373,45.8589744 83.6705882,47.5865385 C83.0086275,49.5214103 81.2423529,50.7903846 80.5615686,52.7189744 C79.6988235,54.4119872 79.1498039,56.2494872 78.2619608,57.9267949 C76.5709804,59.9527564 76.134902,62.6257692 75.4101961,65.0883333 C82.2776471,65.2296795 89.1356863,64.8150641 96.0031373,64.8747436 C101.753725,64.8307692 107.513725,64.8747436 113.258039,64.6454487 C126.644706,64.5983333 140.021961,64.1994231 153.408627,64.1240385 C158.528627,63.8790385 163.658039,64.0392308 168.781176,63.8727564 C173.408627,63.8664744 178.036078,63.6591667 182.663529,63.7565385 C183.077647,63.2257051 183.548235,62.7419872 183.946667,62.1985897 C183.990588,61.1494872 183.664314,60.1066667 183.896471,59.0512821 C183.717647,56.6703846 183.504314,54.2675 182.930196,51.943141 C182.691765,51.0165385 182.660392,49.9988462 182.111373,49.1884615 C180.235294,46.5625641 179.676863,43.116859 177.399216,40.7705128 C176.363922,40.544359 175.915294,39.6523077 175.548235,38.7602564 C173.948235,39.5203846 172.144314,38.71 170.531765,39.3727564 C169.101176,40.0198077 167.479216,39.3853205 166.029804,39.9475641 C164.793725,40.4092949 163.498039,39.7810897 162.24,40.0229487 C158.083137,40.8930128 153.816471,39.9664103 149.628235,40.4312821 C147.956078,40.5789103 146.33098,39.935 144.658824,40.0920513 C143.764706,40.2145513 142.901961,39.9632692 142.051765,39.7276923 C141.025882,39.445 139.968627,39.7402564 138.933333,39.6428846 C138.026667,39.4669872 137.182745,39.0649359 136.276078,38.9141667 C135.39451,38.8010897 134.519216,39.0115385 133.640784,39.0083974 C132.850196,38.9110256 132.109804,38.6000641 131.356863,38.3644872 C130.475294,38.0629487 129.53098,38.1823077 128.621176,38.1069231 C127.149804,37.9624359 125.738039,37.4755769 124.276078,37.2996795 C123.58902,37.2117308 122.839216,37.3530769 122.221176,36.9761538 C120.109804,35.8265385 117.546667,36.3605128 115.410196,35.2674359 C114.437647,34.7397436 113.342745,34.5983974 112.266667,34.4539103 C110.820392,34.296859 109.625098,33.4016667 108.304314,32.8771154 C104.837647,31.4699359 101.201569,30.4930769 97.8039216,28.906859 Z M192.078431,34.1209615 C191.309804,34.6298077 190.547451,35.1951923 189.640784,35.4213462 C185.910588,36.3008333 182.064314,36.8222436 178.484706,38.2451282 C179.10902,39.7779487 180.22902,41.0092308 181.076078,42.4069872 C182.036078,44.1376923 182.657255,46.0285897 183.322353,47.8880769 C183.739608,49.0596795 184.423529,50.1307692 184.696471,51.3589103 C185.461961,55.3542949 186.117647,59.4596154 185.872941,63.5083974 C190.252549,63.9010256 194.647843,63.6026282 199.033725,63.4738462 C204.592941,63.1534615 210.20549,63.7408333 215.742745,63.0152564 C215.218824,60.6155128 213.681569,58.6366667 212.831373,56.3657051 C211.796078,53.7303846 210.271373,51.3180769 209.248627,48.6764744 C208.241569,46.1071154 206.359216,44.0434615 204.850196,41.775641 C203.407059,39.6083333 201.559216,37.7645513 199.855686,35.8108333 C198.748235,34.6329487 197.769412,33.3042949 196.454902,32.3494231 C195.112157,33.1912179 193.716078,34.0675641 192.078431,34.1209615 Z M215.849412,64.2308333 C208.006275,64.4287179 200.163137,64.6234615 192.316863,64.6485897 C185.098039,64.5857692 177.888627,64.9783974 170.672941,64.8904487 C166.374902,64.9752564 162.070588,64.8150641 157.778824,65.0600641 C145.032157,65.295641 132.282353,65.2579487 119.535686,65.5437821 C114.723137,65.5186538 109.913725,65.5940385 105.104314,65.7573718 C100.185098,65.7510897 95.2690196,65.908141 90.3498039,65.8767308 C83.4541176,66.1405769 76.5427451,65.8735897 69.6439216,66.1845513 C67.2439216,66.2348077 64.8407843,66.1562821 62.4470588,66.3573077 C53.2360784,66.4892308 44.0313725,66.9321154 34.8172549,66.8598718 C34.3215686,66.8410256 33.6847059,66.8504487 33.5309804,67.4346795 C30.1709804,74.1784615 26.9866667,81.0133333 23.8556863,87.8639103 C19.1905882,97.9842949 14.4658824,108.07641 9.7254902,118.159103 C6.92078431,124.149038 3.88078431,130.047885 1.56862745,136.254551 C9.20470588,136.314231 16.8345098,136.084936 24.467451,136.050385 C29.3521569,135.720577 34.2588235,135.949872 39.1466667,135.673462 C51.0713725,135.437885 63.0054902,135.550962 74.9301961,135.24 C78.1866667,135.08609 81.4588235,135.305962 84.7090196,135.020128 C98.6164706,134.850513 112.530196,135.048397 126.43451,134.715449 C135.855686,134.671474 145.264314,134.269423 154.688627,134.250577 C163.676863,133.967885 172.680784,134.087244 181.672157,133.870513 C191.501176,133.945897 201.320784,133.603526 211.146667,133.622372 C215.642353,133.644359 220.122353,133.349103 224.618039,133.396218 C227.228235,128.04391 229.327059,122.46859 231.689412,117.006346 C239.482353,99.3098077 247.218824,81.585 254.547451,63.6874359 C251.472941,63.5617949 248.398431,63.6214744 245.323922,63.6089103 C241.66902,63.5963462 238.020392,63.9135897 234.362353,63.8130769 C232.778039,63.7973718 231.187451,63.7282692 229.609412,63.8884615 C225.035294,64.3030769 220.439216,64.1994231 215.849412,64.2308333 Z M187.312941,134.969872 C185.63451,135.020128 183.949804,134.900769 182.283922,135.104936 C181.546667,135.133205 180.809412,135.136346 180.075294,135.167756 C179.159216,139.059487 177.336471,142.677949 176.527059,146.604231 C175.416471,148.350641 175.162353,150.483397 174.01098,152.210962 C173.339608,153.256923 172.746667,154.384551 172.624314,155.647244 C171.865098,156.539295 171.416471,157.613526 171.115294,158.731731 C169.201569,161.360769 168.316863,164.589744 166.261961,167.127692 C166.842353,167.451218 167.378824,167.91609 168.059608,168.013462 C169.72549,168.308718 171.212549,169.216474 172.912941,169.376667 C174.729412,170.356667 176.680784,171.047692 178.578824,171.858077 C180.012549,172.461154 181.264314,173.686154 182.901961,173.670449 C187.184314,170.859231 191.498039,167.906667 194.829804,163.952115 C196.473725,162.544936 197.860392,160.880192 199.112157,159.124359 C200.414118,157.299423 202.362353,155.980192 203.344314,153.925962 C203.752157,152.823462 204.934902,152.302051 205.386667,151.227821 C205.891765,150.059359 206.892549,149.233269 207.55451,148.165321 C208.778039,146.987436 209.546667,145.460897 210.258824,143.940641 C210.820392,142.633974 211.880784,141.61 212.294902,140.23109 C213.421176,138.497244 214.506667,136.697436 214.974118,134.65891 C205.753725,134.417051 196.530196,134.646346 187.312941,134.969872 Z M151.529412,135.302821 C144.856471,135.579231 138.17098,135.337372 131.494902,135.525833 C127.71451,135.664038 123.934118,135.629487 120.156863,135.736282 C118.585098,135.73 117.016471,135.758269 115.447843,135.679744 C110.942745,135.899615 106.421961,135.733141 101.916863,136.000128 C96.0815686,136.351923 90.2337255,136.103782 84.3921569,136.084936 C80.3796078,136.091218 76.3482353,135.975 72.3607843,136.505833 C72.2541176,137.935 72.9066667,139.295064 72.7309804,140.727372 C72.6368627,141.694808 73.0886275,142.59 73.3396078,143.504038 C73.7003922,144.584551 73.612549,145.793846 74.1866667,146.808397 C75.1278431,148.498269 75.1905882,150.514808 76.1192157,152.217244 C76.652549,153.652692 77.8509804,154.708077 78.3498039,156.15609 C78.8956863,157.32141 79.4635294,158.543269 80.4360784,159.419615 C82.8894118,159.746282 85.3584314,159.174615 87.8117647,159.042692 C90.1145098,158.612372 92.454902,158.923333 94.7764706,158.841667 C95.6235294,158.860513 96.3796078,158.279423 97.2360784,158.420769 C99.7396078,158.822821 102.265098,158.313974 104.784314,158.376795 C110.33098,158.23859 115.855686,159.052115 121.402353,158.825962 C123.410196,158.797692 125.34902,159.504423 127.356863,159.507564 C128.41098,159.532692 129.465098,159.454167 130.522353,159.510705 C131.385098,159.573526 132.147451,160.041538 132.991373,160.192308 C134.748235,160.537821 136.552157,160.280256 138.318431,160.556667 C139.658039,160.600641 140.875294,161.203718 142.161569,161.502115 C143.184314,161.690577 144.235294,161.759679 145.236078,162.0675 C146.418824,162.475833 147.673725,162.014103 148.872157,162.318782 C150.930196,162.783654 152.840784,163.839038 154.983529,163.933269 C157.932549,164.175128 160.505098,165.865 163.42902,166.223077 C163.899608,165.456667 164.439216,164.709103 165.236078,164.253654 C165.640784,163.515513 166.161569,162.859038 166.669804,162.199423 C167.403922,161.225705 167.567059,159.972436 168.16,158.926474 C168.624314,158.244872 169.34902,157.758013 169.659608,156.969615 C170.167843,156.065 170.174118,154.943654 170.829804,154.117564 C171.617255,153.043333 171.87451,151.670705 172.743529,150.640449 C173.468235,149.779808 173.471373,148.608205 173.857255,147.596795 C174.136471,146.808397 174.792157,146.205321 174.989804,145.382372 C175.275294,144.251603 175.956078,143.23391 175.84,142.027756 C176.693333,139.851026 177.308235,137.558077 177.50902,135.224295 C168.850196,135.057821 160.188235,135.164615 151.529412,135.302821 Z M40.6682353,136.889038 C41.0447059,138.899295 42.8862745,140.083462 43.667451,141.902115 C46.0737255,144.722756 48.3639216,147.659615 50.9458824,150.326346 C51.7207843,151.143013 52.307451,152.110449 53.0666667,152.939679 C54.3278431,154.384551 55.8745098,155.581282 56.9443137,157.189487 C57.3301961,157.742308 57.6313725,158.379936 58.1992157,158.778846 C59.9372549,160.063526 60.8878431,162.139744 62.72,163.320769 C63.2313725,162.745962 63.8619608,162.249679 64.6305882,162.080064 C68.0188235,161.162885 71.4541176,160.365064 74.9490196,159.988141 C75.9811765,159.875064 77.0603922,160.091795 78.0580392,159.730577 C76.6588235,157.129808 75.3819608,154.466218 74.2180392,151.752372 C73.9482353,150.957692 72.9254902,150.700128 72.7905882,149.833205 C72.0282353,146.943462 71.654902,143.965769 70.8423529,141.08859 C70.7607843,139.518077 70.5380392,137.950705 69.9984314,136.468141 C60.2164706,136.257692 50.4376471,136.455577 40.6682353,136.889038 Z M100.803137,160.23 C100.793725,160.471859 100.774902,160.955577 100.762353,161.197436 C100.326275,161.803654 99.7866667,162.397308 99.7176471,163.182564 C99.494902,164.797051 98.9678431,166.367564 98.9866667,168.010321 C98.2807843,169.398654 98.8235294,170.969167 98.4376471,172.429744 C98.0298039,174.399167 97.8729412,176.418846 98.0141176,178.429103 C98.1615686,179.767179 97.6627451,181.161795 98.2086275,182.449615 C98.6886275,183.768846 97.9670588,185.213718 98.3278431,186.504679 C100.031373,187.242821 101.916863,187.311923 103.705098,187.726538 C104.715294,187.949551 105.606275,188.697115 106.688627,188.549487 C107.658039,188.477244 108.580392,188.841603 109.50902,189.067756 C110.635294,189.397564 111.84,189.168269 112.956863,189.557756 C115.181176,189.425833 117.330196,190.236218 119.548235,190.079167 C120.288627,190.098013 120.969412,190.459231 121.706667,190.522051 C123.802353,190.653974 125.910588,190.371282 127.996863,190.644551 C129.367843,190.836154 130.745098,190.355577 132.112941,190.635128 C132.818824,190.770192 133.665882,190.942949 134.211765,190.336731 C134.936471,189.334744 135.48549,188.213397 136.056471,187.120321 C136.367059,186.702564 136.746667,186.3225 136.903529,185.813654 C137.772549,183.3825 139.014902,181.051859 139.369412,178.466795 C139.541961,176.817756 140.407843,175.344615 140.665098,173.711282 C140.536471,172.523974 141.063529,171.427756 141.223529,170.275 C141.496471,167.928654 141.662745,165.557179 141.367843,163.204551 C138.823529,162.654872 136.222745,162.375321 133.709804,161.674872 C133.540392,161.725128 133.207843,161.8225 133.041569,161.872756 C130.086275,161.775385 127.203137,160.892756 124.235294,160.911603 C122.654118,160.877051 121.060392,160.955577 119.488627,160.72 C117.640784,160.509551 115.774118,160.657179 113.926275,160.459295 C112.112941,160.437308 110.346667,159.840513 108.527059,159.997564 C105.95451,160.195449 103.356863,159.736859 100.803137,160.23 Z M75.6831373,161.473846 C74.8988235,161.561795 74.2023529,161.998397 73.4054902,162.020385 C70.0235294,162.293654 66.7137255,163.154295 63.5011765,164.219103 C63.9498039,164.690256 64.4705882,165.082885 64.972549,165.494359 C65.5843137,165.974936 65.8039216,166.791603 66.4219608,167.272179 C67.2627451,167.97891 68.2823529,168.472051 68.9913725,169.335833 C69.6815686,170.231026 70.7670588,170.67391 71.5356863,171.496859 C72.4580392,172.489423 73.7254902,173.057949 74.6447059,174.053654 C76.0376471,175.514231 77.9419608,176.315192 79.4447059,177.640705 C79.8619608,178.033333 80.3607843,178.316026 80.8909804,178.532756 C83.8713725,179.823718 86.4972549,181.799423 89.4807843,183.087244 C91.6078431,183.976154 93.5121569,185.662885 95.9654902,185.502692 C95.8619608,184.478718 95.6454902,183.470449 95.545098,182.449615 C95.4196078,181.400513 95.7552941,180.376538 95.8431373,179.343141 C95.4196078,175.156154 96.3607843,170.975449 96.6556863,166.804167 C96.6023529,165.893269 96.812549,165.001218 97.1858824,164.178269 C97.7505882,162.906154 97.9043137,161.517821 98.1396078,160.160897 C90.6352941,160.201731 83.1403922,160.663462 75.6831373,161.473846 Z M143.802353,163.465256 C143.422745,169.464615 142.767059,175.526795 140.837647,181.249744 C140.746667,181.6675 140.699608,182.091538 140.699608,182.525 C139.61098,183.765705 139.767843,185.499551 138.952157,186.865897 C138.406275,187.911859 137.960784,189.011218 137.562353,190.123141 C139.912157,190.465513 142.268235,190.104295 144.599216,189.805897 C146.349804,189.309615 147.984314,188.37359 149.838431,188.276218 C150.36549,187.955833 150.930196,187.707692 151.545098,187.622885 C153.032157,187.340192 154.421961,186.724551 155.896471,186.382179 C157.110588,186.10891 158.20549,185.49641 159.316078,184.959295 C160.818824,185.031538 162.073725,184.098654 163.504314,183.800256 C168.956863,181.105256 174.883137,179.167244 179.723922,175.376026 C178.635294,174.304936 177.267451,173.604487 175.934118,172.894615 C174.704314,172.586795 173.6,171.770128 172.28549,171.873782 C171.959216,171.594231 171.639216,171.317821 171.322353,171.035128 C169.904314,170.3975 168.35451,170.174487 166.920784,169.587115 C165.822745,169.1725 164.561569,169.229038 163.570196,168.553718 C161.596863,167.375833 159.171765,167.507756 157.129412,166.512051 C155.598431,165.695385 153.866667,165.400128 152.181961,165.089167 C149.882353,165.192821 147.695686,164.313333 145.681569,163.301923 C145.060392,163.433846 144.436078,163.518654 143.802353,163.465256 Z" id="Shape"></path>
            </g>
            <g id="#004c99ff" transform="translate(7.843137, 67.217949)" fill="#004C99">
                <path d="M218.346667,0.54025641 C225.615686,0.310961538 232.887843,0.138205128 240.16,0.197884615 C235.099608,12.8405128 229.389804,25.2035897 224.03451,37.7205769 C220.630588,45.4694872 217.82902,53.4822436 214.08,61.0741026 C198.773333,61.5012821 183.463529,61.9912821 168.147451,62.0038462 C160.73098,62.0509615 153.311373,62.0195513 145.891765,62.1420513 C131.454118,62.4687179 117.016471,62.7608333 102.572549,62.7105769 C93.0572549,62.6383333 83.545098,62.9273077 74.0329412,63.1911538 C65.8729412,63.1880128 57.7129412,63.1471795 49.5529412,63.3325 C33.1231373,63.6403205 16.6901961,64.0109615 0.250980392,63.9987084 C2.88,57.4964744 6.19607843,51.3086538 9.12313725,44.9449359 C15.7239216,31.0301923 21.9105882,16.9207051 28.7027451,3.10333333 C32.4141176,3.03108974 36.1254902,2.92429487 39.8368627,2.92115385 C42.8705882,2.8175 45.907451,3.00282051 48.934902,2.77980769 C58.4564706,2.73269231 67.987451,2.87403846 77.5027451,2.42173077 C80.3262745,2.31807692 83.1498039,2.29294872 85.9701961,2.12333333 C93.8070588,1.93173077 101.647059,2.13589744 109.483922,2.03852564 C116.812549,2.26467949 124.128627,1.59878205 131.457255,1.63961538 C138.983529,1.49826923 146.516078,1.43230769 154.04549,1.30980769 C157.910588,0.970576923 161.778824,1.56423077 165.643922,1.22185897 C177.672157,1.01455128 189.697255,0.920320513 201.72549,0.797820513 C207.265882,0.775833333 212.815686,0.901474359 218.346667,0.54025641 Z M194.340392,2.90858974 C193.640784,5.78891026 194.487843,8.74775641 193.982745,11.6500641 C190.97098,8.18237179 184.661961,9.08384615 182.500392,13.0509615 C180.919216,15.7333974 180.483137,18.984359 180.981961,22.0311538 C181.637647,25.1721795 183.780392,28.1844231 186.898824,29.2335256 C189.493333,30.0250641 192.225882,28.8660256 194.183529,27.1635897 C194.450196,27.6724359 194.497255,28.4482692 195.162353,28.6116026 C196.501961,28.8094872 197.847843,28.4419872 199.196863,28.4985256 C199.623529,19.970641 199.240784,11.4301923 199.093333,2.90230769 C197.518431,2.67301282 195.915294,2.68557692 194.340392,2.90858974 Z M70.2839216,3.65615385 C67.0556863,4.30320513 64.2760784,6.53961538 62.7011765,9.40108974 C60.9003922,12.6237821 60.3984314,16.4526923 60.8345098,20.09 C61.305098,23.6770513 63.1780392,27.1573077 66.2023529,29.2115385 C68.7654902,30.9925 72.0501961,31.7651923 75.1247059,31.1589744 C77.2266667,30.6595513 78.8203922,29.1267308 80.4015686,27.7541026 C80.5396078,28.6304487 80.6713725,29.5099359 80.8062745,30.3894231 C82.0737255,30.4333974 83.3411765,30.38 84.6086275,30.2794872 C85.0227451,25.7092949 84.6211765,21.1265385 84.5301961,16.5500641 C80.9129412,16.5186538 77.305098,16.7102564 73.6909804,16.8107692 C73.5623529,18.1457051 73.5968627,19.4900641 73.7882353,20.8187179 C75.8556863,20.8815385 77.9294118,20.7653205 79.9937255,20.9255128 C79.6298039,23.3409615 78.0894118,25.6150641 75.7960784,26.5605128 C73.2329412,27.6504487 70.0015686,26.8337821 68.2760784,24.6413462 C66.6352941,22.5808333 66.0517647,19.8607051 66.067451,17.275641 C66.1960784,14.4707051 66.9803922,11.4835897 69.0823529,9.50160256 C70.9803922,7.66724359 74.0768627,7.42538462 76.3576471,8.64724359 C77.9670588,9.45762821 78.8047059,11.1317949 79.6015686,12.6583333 C81.1701961,12.5012821 82.745098,12.4101923 84.3137255,12.25 C83.667451,9.41365385 82.1458824,6.66211538 79.6392157,5.08532051 C76.9035294,3.31064103 73.4211765,3.02480769 70.2839216,3.65615385 Z M98.9898039,4.74923077 C98.8862745,6.125 98.7701961,7.52589744 99.1121569,8.88282051 C100.599216,8.84198718 102.105098,8.95820513 103.570196,8.63782051 C103.620392,7.27775641 103.701961,5.90512821 103.42902,4.56391026 C101.948235,4.56076923 100.454902,4.48852564 98.9898039,4.74923077 Z M153.822745,5.22666667 C153.461961,7.11442308 153.932549,9.03673077 153.590588,10.9339103 C152.784314,11.0469872 151.968627,11.1003846 151.159216,11.1537821 C151.162353,12.2280128 151.159216,13.2991026 151.159216,14.3733333 C151.971765,14.4047436 152.781176,14.4110256 153.596863,14.4235897 C153.803922,17.5708974 154.174118,20.7244872 153.913725,23.8812179 C153.797647,25.4423077 153.876078,27.2986538 155.218824,28.3508974 C157.242353,29.893141 159.968627,29.5067949 162.334118,29.274359 C162.346667,28.0870513 162.390588,26.8966026 162.381176,25.7092949 C161.465098,25.6150641 160.527059,25.7030128 159.623529,25.5051282 C158.939608,25.1282051 158.735686,24.2864103 158.660392,23.5702564 C158.556863,21.7955769 158.701176,20.0177564 158.672941,18.2399359 C158.660392,16.908141 158.512941,15.5575 158.820392,14.2476923 C159.883922,14.2696795 160.953725,14.2194231 161.998431,13.9869872 C161.998431,12.9535897 161.998431,11.9170513 161.960784,10.8867949 C160.865882,10.8333974 159.77098,10.8805128 158.679216,10.7988462 C158.578824,8.93307692 158.572549,7.06416667 158.531765,5.19839744 C156.963137,5.08846154 155.385098,5.02878205 153.822745,5.22666667 Z M167.13098,10.6198077 C165.041569,11.5998077 163.899608,13.8801923 163.821176,16.1228846 C165.126275,16.1417308 166.512941,16.3490385 167.764706,15.9061538 C168.432941,15.0329487 168.859608,13.7953846 170.04549,13.5032692 C171.466667,13.1703205 173.21098,13.1860256 174.359216,14.2194231 C175.250196,14.9826923 174.964706,16.5814744 173.891765,17.0212179 C172.376471,17.6619872 170.694902,17.6462821 169.126275,18.0797436 C167.259608,18.5603205 165.276863,19.1351282 163.905882,20.576859 C162.189804,22.3483974 162.211765,25.4234615 163.852549,27.2358333 C165.524706,29.1298718 168.222745,29.8460256 170.672941,29.6355769 C172.407843,29.519359 173.838431,28.4325641 175.102745,27.3363462 C175.312941,27.9205769 175.526275,28.5079487 175.74902,29.0921795 C177.179608,29.1204487 178.610196,29.0670513 180.037647,28.9791026 C179.579608,24.4466026 180.244706,19.8764103 179.705098,15.3533333 C179.532549,13.1766026 178.007843,11.2448718 175.974902,10.4941667 C173.163922,9.45134615 169.88549,9.34455128 167.13098,10.6198077 Z M127.256471,10.6512179 C125.170196,10.8742308 123.425882,12.1966026 122.058039,13.7042949 C120.564706,11.2762821 117.339608,10.3716667 114.682353,11.1035256 C113.367843,11.4207692 112.567843,12.5923718 111.579608,13.4153205 C111.463529,12.7776923 111.532549,11.8448077 110.732549,11.6594872 C109.37098,11.3171154 107.968627,11.7474359 106.597647,11.8008333 C106.472157,17.9321154 106.374902,24.0759615 106.839216,30.1978205 C108.417255,30.3580128 109.998431,30.2041026 111.563922,30.009359 C112.128627,26.3092308 111.112157,22.5808333 111.576471,18.8744231 C111.723922,17.8127564 112.025098,16.6882692 112.825098,15.925 C113.970196,14.9387179 115.927843,14.8884615 116.975686,16.050641 C117.728627,16.8955769 117.79451,18.0923077 117.847843,19.1696795 C117.948235,22.7567308 117.728627,26.3469231 117.910588,29.9308333 C119.551373,30.1412821 121.21098,30.0721795 122.851765,29.89 C123.416471,26.5008333 122.478431,23.0928205 122.635294,19.6910897 C122.741961,18.5289103 122.892549,17.2944872 123.607843,16.3333333 C124.382745,15.2842308 125.816471,14.9607051 127.046275,15.1680128 C128.385882,15.6988462 128.897255,17.1939744 128.997647,18.5226282 C129.283137,22.2887179 128.812549,26.0673718 129.094902,29.8334615 C130.691765,30.0564744 132.301176,29.89 133.888627,29.6858333 C133.66902,25.2224359 134.453333,20.7370513 133.741176,16.2987821 C133.50902,14.8476282 133.044706,13.3713462 132.053333,12.2562821 C130.861176,10.9401923 128.969412,10.5098718 127.256471,10.6512179 Z M138.17098,11.4144872 C136.51451,12.2248718 135.221961,13.845641 135.077647,15.7208333 C134.757647,18.1394231 136.436078,20.5234615 138.698039,21.2898718 C140.815686,21.9903205 143.10902,21.9337821 145.214118,22.6844872 C145.992157,22.9577564 146.88,23.5482692 146.785882,24.496859 C146.94902,25.5082692 146.117647,26.3092308 145.223529,26.5825 C143.642353,27.0913462 141.79451,26.8683333 140.404706,25.9448718 C139.601569,25.4234615 139.350588,24.4528846 139.055686,23.6048077 C137.581176,23.5891026 136.103529,23.6299359 134.641569,23.7964103 C134.78902,26.9971154 137.458824,29.6198718 140.542745,30.1475641 C142.952157,30.5276282 145.596863,30.7192308 147.846275,29.5790385 C149.603137,28.7026923 151.124706,27.1573077 151.607843,25.2098718 C152.128627,23.0865385 151.26902,20.5391667 149.24549,19.5246154 C146.864314,18.2870513 144.12549,18.133141 141.562353,17.4986538 C140.737255,17.2913462 139.802353,16.9144231 139.526275,16.0286538 C139.350588,15.2371154 139.924706,14.5052564 140.618039,14.206859 C142.042353,13.5786538 143.733333,13.6069231 145.163922,14.213141 C146.117647,14.6246154 146.305882,15.7679487 146.91451,16.5123718 C148.232157,16.6160256 149.556078,16.415 150.876863,16.3678846 C150.97098,14.0717949 149.37098,12.0458333 147.309804,11.1977564 C144.426667,9.9350641 140.988235,10.0104487 138.17098,11.4144872 Z M91.8337255,13.8896154 C91.6643137,13.2457051 91.9027451,12.4101923 91.3882353,11.9139103 C89.8729412,11.7442949 88.3262745,11.76 86.8266667,12.0583974 C86.8705882,18.1362821 86.6101961,24.2235897 86.9960784,30.2920513 C88.5207843,30.4114103 90.0486275,30.4019872 91.5733333,30.2826282 C91.9498039,27.314359 91.6298039,24.3146795 91.8682353,21.3369872 C92.0533333,19.5717308 92.4172549,17.5803205 93.894902,16.415 C94.8580392,15.5920513 96.16,15.4789744 97.3709804,15.4161538 C97.4713725,14.0749359 97.5027451,12.7274359 97.3647059,11.3862179 C96.6054902,11.2762821 95.814902,11.1192308 95.0713725,11.389359 C93.6784314,11.7223077 92.7560784,12.8876282 91.8337255,13.8896154 Z M98.9301961,12.8467949 C98.9207843,18.6765385 99.027451,24.5062821 99.2313725,30.3328846 C100.803137,30.4114103 102.378039,30.3862821 103.943529,30.1946795 C104.031373,24.0853846 104.078431,17.9698077 103.692549,11.8667949 C102.236863,11.8071154 100.771765,11.7725641 99.3160784,11.8887821 C98.8172549,11.9578846 98.9647059,12.491859 98.9301961,12.8467949 Z M125.286275,32.8425641 C125.374118,41.4112821 125.40549,49.983141 125.926275,58.5392949 C128.432941,58.4136538 130.945882,58.5801282 133.443137,58.2942949 C133.716078,55.8034615 132.856471,53.3220513 133.292549,50.840641 C133.521569,49.6344872 134.779608,49.1130769 135.623529,48.390641 C138.133333,51.5096795 139.940392,55.1155769 142.318431,58.3319872 C145.389804,58.3571154 148.464314,58.3288462 151.532549,58.1592308 C150.183529,55.4233974 148.084706,53.1807051 146.299608,50.7432692 C144.382745,48.1173718 142.544314,45.4380769 140.712157,42.755641 C142.848627,40.3401923 144.969412,37.9027564 147.23451,35.6066667 C148.172549,34.6800641 149.192157,33.81 149.85098,32.6478205 C147.36,32.6038462 144.872157,32.3085897 142.381176,32.4248077 C140.746667,32.4939103 139.956078,34.1303846 138.883137,35.1135256 C136.89098,36.9007692 135.422745,39.2125641 133.251765,40.8082051 C133.010196,38.1289103 133.007059,35.4370513 132.837647,32.7577564 C130.324706,32.4059615 127.796078,32.6792308 125.286275,32.8425641 Z M117.408627,32.7451923 C115.407059,38.4241667 114.070588,44.3104487 112.912941,50.2092949 C111.16549,44.4298077 109.923137,38.4932692 107.77098,32.8425641 C105.258039,32.9713462 102.732549,32.7326282 100.22902,33.071859 C103.10902,41.5777564 105.941961,50.0962179 108.922353,58.5675641 C111.77098,58.5926923 114.622745,58.6083974 117.471373,58.4670513 C119.482353,52.0216667 121.220392,45.4946154 122.999216,38.9832692 C123.576471,36.9070513 124.35451,34.8653846 124.539608,32.7012179 C122.164706,32.8394231 119.786667,32.7294872 117.408627,32.7451923 Z" id="Shape"></path>
                <path d="M189.835294,13.4687179 C191.149804,13.3305128 192.476863,14.0435256 193.182745,15.1460256 C194.437647,17.0432051 194.641569,19.4900641 194.152157,21.6699359 C193.813333,23.1053846 192.906667,24.6225 191.369412,24.9585897 C190.161569,25.1721795 188.727843,25.2287179 187.755294,24.3555128 C186.396863,23.1305128 185.985882,21.2113462 185.882353,19.4617949 C185.838431,17.7216667 186.142745,15.8244872 187.341176,14.4895513 C187.962353,13.7702564 188.938039,13.5817949 189.835294,13.4687179 Z" id="Shape"></path>
                <path d="M168.436078,21.9432051 C170.327843,20.6051282 172.793725,20.6302564 174.842353,19.603141 C175.212549,20.9726282 175.344314,22.5023077 174.716863,23.8183974 C173.549804,25.721859 170.898824,26.579359 168.853333,25.6967308 C167.39451,25.0905128 167.065098,22.8226923 168.436078,21.9432051 Z" id="Shape"></path>
            </g>
        </g>
    </g>
</svg>