<?xml version="1.0" encoding="UTF-8"?>
<svg width="256px" height="256px" viewBox="0 0 256 256" version="1.1" xmlns="http://www.w3.org/2000/svg" xmlns:xlink="http://www.w3.org/1999/xlink">
    <!-- Generator: Sketch 51.3 (57544) - http://www.bohemiancoding.com/sketch -->
    <title>logo/gsi</title>
    <desc>Created with Sketch.</desc>
    <defs></defs>
    <g id="logo/gsi" stroke="none" stroke-width="1" fill="none" fill-rule="evenodd">
        <g id="gsi" transform="translate(0.000000, 6.000000)" fill-rule="nonzero">
            <g id="#000000ff" transform="translate(18.101010, 60.677249)" fill="#000000">
                <path d="M13.540202,1.37169312 C19.5684848,-0.148465608 25.8359596,0.20978836 31.9935354,0.161375661 C41.7971717,0.161375661 51.6040404,0.161375661 61.4109091,0.161375661 C65.8650505,0.177513228 70.3773737,0.40989418 74.679596,1.66539683 C77.5692929,2.50777778 80.3878788,3.89883598 82.4630303,6.12259259 C84.7741414,8.56259259 86.0573737,11.8159259 86.5292929,15.1015344 C87.0076768,18.4904233 87.0561616,21.9212698 87.0593939,25.3359788 C58.0428283,25.3359788 29.0294949,25.3359788 0.0129292929,25.3359788 C0.00646464646,23.0057143 -0.0387878788,20.6689947 0.265050505,18.3516402 C0.358787879,14.3753439 1.28969697,10.2473545 3.81737374,7.07793651 C6.19636364,4.02470899 9.85535354,2.28507937 13.540202,1.37169312 Z" id="Shape"></path>
                <path d="M107.025455,1.69767196 C110.53899,0.50026455 114.275556,0.161375661 117.966869,0.161375661 C128.307071,0.158148148 138.647273,0.161375661 148.987475,0.161375661 C155.051313,0.174285714 161.244444,-0.0580952381 167.127273,1.65571429 C170.682828,2.66269841 174.115556,4.59597884 176.219798,7.70730159 C178.433939,10.8121693 179.099798,14.6658201 179.368081,18.3839153 C179.38101,20.7044974 179.600808,23.0153968 179.536162,25.3359788 C150.519596,25.3359788 121.50303,25.3359788 92.4864646,25.3359788 C92.5058586,19.7362434 93.5660606,13.9008995 96.8436364,9.23714286 C99.2711111,5.67074074 102.94303,3.04354497 107.025455,1.69767196 Z" id="Shape"></path>
                <path d="M184.96,25.3327513 C184.972929,16.9444444 184.963232,8.55291005 184.966465,0.161375661 C193.270303,0.161375661 201.577374,0.161375661 209.884444,0.161375661 C209.884444,8.55291005 209.884444,16.9444444 209.884444,25.3359788 C201.577374,25.3359788 193.267071,25.3392063 184.96,25.3327513 Z" id="Shape"></path>
                <path d="M0.0161616162,34.411746 C8.32,34.411746 16.6238384,34.411746 24.9276768,34.411746 C24.9276768,46.9732275 24.9276768,59.534709 24.9276768,72.092963 C37.3462626,72.092963 49.7648485,72.092963 62.1834343,72.092963 C62.1834343,67.9262434 62.1834343,63.7562963 62.1834343,59.5895767 C53.879596,59.5895767 45.5789899,59.5895767 37.2783838,59.5895767 C37.2783838,51.1980423 37.2783838,42.8032804 37.2783838,34.411746 C45.3236364,34.4149735 53.3656566,34.4085185 61.4109091,34.4149735 C65.7454545,34.4311111 70.1317172,34.6538095 74.3305051,35.8157143 C77.1846465,36.6096825 79.9806061,37.9039153 82.1074747,40.008254 C84.7127273,42.5644444 86.1252525,46.114709 86.5745455,49.6875661 C87.2307071,54.7160317 87.0238384,59.7993651 87.0593939,64.8536508 C87.0173737,70.1338624 87.2145455,75.4302116 86.7620202,80.6975132 C86.4452525,85.3225397 84.5737374,90.0831217 80.7143434,92.8716931 C75.8206061,96.4090476 69.540202,97.0610053 63.6767677,97.2514286 C51.0707071,97.2933862 38.4646465,97.2578836 25.8553535,97.2707937 C21.6953535,97.2901587 17.4933333,97.0739153 13.4432323,96.0572487 C10.4565657,95.3020106 7.50545455,94.052963 5.23959596,91.9131217 C1.98141414,88.8824868 0.572121212,84.3801058 0.326464646,80.042328 C0.297373737,78.5318519 0.0129292929,77.0375132 0.0161616162,75.527037 C0.0129292929,61.8230159 0.0161616162,48.1189947 0.0161616162,34.411746 Z" id="Shape"></path>
                <path d="M92.4864646,34.411746 C110.574545,34.411746 128.662626,34.411746 146.753939,34.411746 C153.208889,34.4859788 159.77697,34.047037 166.099394,35.631746 C169.700202,36.5193122 173.275152,38.197619 175.615354,41.1604762 C178.033131,44.0846032 178.96404,47.8898413 179.280808,51.5917989 C179.717172,58.4889947 179.471515,65.4087831 179.539394,72.3156614 C179.600808,74.5716931 179.377778,76.8212698 179.377778,79.0773016 C179.154747,82.6662963 178.527677,86.3843915 176.45899,89.4150265 C174.471111,92.4973016 171.190303,94.5080423 167.741414,95.5860317 C163.675152,96.877037 159.376162,97.2159259 155.135354,97.2675661 C142.425859,97.2707937 129.716364,97.2675661 117.006869,97.2707937 C112.892121,97.2256085 108.732121,96.9125397 104.769293,95.7377249 C102.105859,94.9437566 99.5167677,93.694709 97.5224242,91.7291534 C95.2339394,89.5086243 93.8440404,86.500582 93.2331313,83.4053968 C92.5931313,79.6743915 92.4993939,75.872381 92.4864646,72.092963 C113.218586,72.0961905 133.947475,72.092963 154.676364,72.092963 C154.676364,67.9262434 154.676364,63.7562963 154.676364,59.5895767 C144.707879,59.5895767 134.739394,59.5895767 124.770909,59.5895767 C117.352727,59.5250265 109.624242,60.1092063 102.587475,57.2948148 C98.6117172,55.7714286 95.3567677,52.4987302 93.9862626,48.4546561 C92.4670707,43.9490476 92.5866667,39.1077778 92.4864646,34.411746 Z" id="Shape"></path>
                <path d="M184.966465,97.2707937 C184.963232,76.3177778 184.976162,55.3679894 184.96,34.4149735 C193.267071,34.4085185 201.574141,34.4149735 209.884444,34.411746 C209.884444,55.3647619 209.884444,76.3177778 209.884444,97.2707937 C201.577374,97.2707937 193.270303,97.2675661 184.966465,97.2707937 Z" id="Shape"></path>
                <path d="M125.740606,108.815608 C126.626263,108.379894 127.573333,107.815079 128.601212,108.015185 C131.28404,108.334709 133.963636,108.702646 136.649697,108.999577 C134.865455,109.906508 133.061818,111.223333 132.492929,113.243757 C132.017778,114.618677 132.48,116.051693 132.929293,117.365291 C128.717576,116.577778 124.43798,116.225979 120.158384,116.119471 C121.031111,113.111429 122.931717,110.313175 125.740606,108.815608 Z" id="Shape"></path>
                <path d="M81.1151515,121.745026 C88.7628283,119.57291 96.6755556,118.388413 104.610909,117.949471 C99.3228283,120.11836 93.7890909,121.638519 88.5268687,123.871958 C82.4113131,126.402328 76.4864646,129.823492 72.1325253,134.893915 C68.3280808,139.180053 66.1107071,144.737831 65.5709091,150.415026 C65.0892929,154.013704 65.4351515,157.657566 66.0525253,161.214286 L66.3175758,161.081958 C66.3046465,160.559101 66.2949495,160.039471 66.2917172,159.519841 C72.3555556,162.627937 79.2921212,163.308942 85.979798,163.947989 C101.57899,164.990476 117.210505,165.406825 132.832323,165.961958 C139.894949,166.194339 146.957576,166.394444 154.020202,166.610688 C152.740202,169.51545 150.438788,172.11037 147.384242,173.172222 C145.638788,173.830635 143.751111,173.778995 141.918384,173.762857 C124.460606,173.75963 107.002828,173.75963 89.5418182,173.762857 C88.3393939,173.743492 87.0852525,173.90164 85.9410101,173.427196 C81.0892929,171.703704 76.2666667,169.770423 71.880404,167.039947 C69.6016162,165.571429 67.2646465,163.825344 66.2884848,161.188466 C66.2335354,161.404709 66.120404,161.837196 66.0622222,162.053439 C66.0622222,161.866243 66.0654545,161.498307 66.0654545,161.314339 C64.3911111,158.67746 61.9345455,156.640899 59.1709091,155.224021 C54.2933333,152.664603 48.9050505,151.250952 43.5135354,150.266561 C45.6113131,145.409153 48.8921212,141.142381 52.6416162,137.440423 C60.5058586,129.771852 70.6133333,124.730476 81.1151515,121.745026 Z" id="Shape"></path>
                <path d="M105.942626,122.242063 C107.587879,120.07963 110.096162,118.562698 112.798384,118.207672 C120.332929,119.563228 128.071111,120.938148 135.731717,119.821429 C132.124444,121.832169 128.588283,124.701429 127.311515,128.77455 C126.461414,131.375926 127.224242,134.170952 128.559192,136.465714 C122.737778,134.87455 116.838788,133.515767 110.862222,132.634656 C108.166465,132.257037 105.431919,132.008519 102.713535,132.25381 C102.910707,128.729365 103.751111,125.08873 105.942626,122.242063 Z" id="Shape"></path>
                <path d="M140.269899,130.136561 C145.086061,130.165608 149.918384,129.775079 154.637576,128.790688 C152.326465,132.066614 150.600404,135.988042 150.884848,140.074074 C150.865455,142.520529 151.91596,144.821746 153.263838,146.809894 C147.028687,145.902963 140.457374,145.902963 134.49697,148.171905 C133.129697,144.486085 132.328081,140.361323 133.469091,136.504444 C134.241616,133.770741 136.258586,131.456614 138.815354,130.236614 C139.271111,130.04619 139.785051,130.159153 140.269899,130.136561 Z" id="Shape"></path>
                <path d="M91.4876768,129.881587 C93.0682828,129.361958 94.7361616,129.400688 96.3749495,129.43619 C92.6189899,129.900952 89.7260606,132.728254 87.9191919,135.878307 C84.1050505,142.507619 81.819798,150.198783 82.440404,157.88672 C81.3381818,156.902328 79.990303,156.240688 78.5583838,155.882434 C75.2678788,155.036825 71.8351515,154.907725 68.4541414,154.998095 C71.1240404,149.036878 74.3886869,143.256402 78.7975758,138.39254 C82.2593939,134.616349 86.4937374,131.308148 91.4876768,129.881587 Z" id="Shape"></path>
                <path d="M94.8428283,144.108466 C96.0581818,140.580794 98.6569697,137.511429 102.128485,136.039683 C107.271111,138.092381 112.756364,139.386614 118.306263,139.506032 C121.593535,139.557672 124.900202,139.086455 127.987071,137.934233 C124.848485,141.887937 122.223838,146.390317 121.147475,151.363915 C120.313535,155.220794 120.833939,159.464974 123.180606,162.718307 C117.359192,161.114233 111.408485,159.916825 105.383434,159.439153 C101.598384,159.190635 97.7131313,159.18418 94.0638384,160.346085 C93.110303,154.985185 93.0262626,149.301534 94.8428283,144.108466 Z" id="Shape"></path>
                <path d="M140.916364,152.693651 C147.730101,151.17672 154.556768,149.701746 161.36404,148.158995 C159.185455,149.637196 157.281616,151.854497 157.12,154.591429 C156.913131,158.361164 159.010909,161.788783 161.347879,164.574127 C151.670303,164.548307 141.992727,164.570899 132.315152,164.564444 C132.399192,161.888836 132.127677,159.187407 132.483232,156.527937 C132.499394,155.633915 133.307475,155.133651 134.015354,154.778624 C136.187475,153.723228 138.563232,153.18746 140.916364,152.693651 Z" id="Shape"></path>
            </g>
            <g id="#fff200ff" fill="#FFF200">
                <path d="M120.119596,0.287248677 C135.964444,-0.684232804 151.993535,1.28132275 167.111111,6.12582011 C188.951919,13.0907937 208.801616,26.0944444 223.948283,43.2744974 C239.906263,61.2226984 250.614949,83.7668783 254.374141,107.479418 C258.181818,131.146772 255.230707,155.885661 245.750303,177.923122 C237.527273,197.201058 224.433131,214.368201 208.058182,227.46545 C206.778182,228.465979 205.546667,229.560106 204.082424,230.289524 C198.884848,232.96836 193.506263,235.272804 188.098586,237.483651 C185.87798,238.290529 183.754343,239.497619 181.368889,239.74291 C177.370505,240.126984 173.349495,239.71709 169.351111,239.539577 C167.521616,239.478254 165.666263,239.287831 163.856162,239.636402 C161.525657,240.052751 159.86101,241.931164 157.646869,242.637989 C153.945859,243.912857 149.960404,243.612698 146.110707,243.677249 C143.292121,243.767619 140.483232,243.412593 137.732525,242.834868 C135.466667,242.344286 133.126465,242.318466 130.892929,241.679418 C126.755556,240.523968 122.524444,239.752593 118.325657,238.865026 C115.009293,237.96455 111.285657,237.693439 108.182626,239.423386 C106.453333,240.427143 104.394343,240.501376 102.448485,240.559471 C99.2872727,240.559471 96.1389899,240.143122 93.0327273,239.565397 C89.4513131,238.916667 86.3321212,236.818783 82.779798,236.076455 C79.9838384,235.51164 77.4432323,237.283545 74.6666667,237.193175 C69.1523232,237.248042 63.6929293,235.934444 58.5632323,233.978571 C56.3329293,233.065185 54.0315152,232.200212 52.1309091,230.676825 C33.819798,217.21164 19.1709091,198.818042 10.2658586,177.916667 C4.52525253,164.503122 1.10868687,150.09873 0.271515152,135.532963 C-1.1830303,112.440106 3.82707071,88.9793122 14.6294949,68.5039683 C25.490101,47.818836 42.139798,30.2159788 62.2092929,18.2193122 C79.689697,7.69439153 99.7462626,1.49756614 120.119596,0.287248677 Z M31.6412121,62.0489418 C27.9563636,62.962328 24.2973737,64.7019577 21.9183838,67.7551852 C19.3907071,70.9246032 18.459798,75.0525926 18.3660606,79.0288889 C18.0622222,81.3462434 18.1074747,83.682963 18.1139394,86.0132275 C47.1305051,86.0132275 76.1438384,86.0132275 105.160404,86.0132275 C105.157172,82.5985185 105.108687,79.167672 104.630303,75.7787831 C104.158384,72.4931746 102.875152,69.2398413 100.56404,66.7998413 C98.4888889,64.5760847 95.670303,63.1850265 92.7806061,62.3426455 C88.4783838,61.0871429 83.9660606,60.8547619 79.5119192,60.8386243 C69.7050505,60.8386243 59.8981818,60.8386243 50.0945455,60.8386243 C43.9369697,60.887037 37.6694949,60.5287831 31.6412121,62.0489418 Z M125.126465,62.3749206 C121.04404,63.7207937 117.372121,66.3479894 114.944646,69.9143915 C111.667071,74.5781481 110.606869,80.4134921 110.587475,86.0132275 C139.60404,86.0132275 168.620606,86.0132275 197.637172,86.0132275 C197.701818,83.6926455 197.48202,81.381746 197.469091,79.061164 C197.200808,75.3430688 196.534949,71.489418 194.320808,68.3845503 C192.216566,65.2732275 188.783838,63.3399471 185.228283,62.332963 C179.345455,60.6191534 173.152323,60.8515344 167.088485,60.8386243 C156.748283,60.8386243 146.408081,60.8353968 136.067879,60.8386243 C132.376566,60.8386243 128.64,61.1775132 125.126465,62.3749206 Z M203.06101,86.01 C211.368081,86.016455 219.678384,86.0132275 227.985455,86.0132275 C227.985455,77.6216931 227.985455,69.2301587 227.985455,60.8386243 C219.678384,60.8386243 211.371313,60.8386243 203.067475,60.8386243 C203.064242,69.2301587 203.073939,77.6216931 203.06101,86.01 Z M18.1171717,95.0889947 C18.1171717,108.796243 18.1139394,122.500265 18.1171717,136.204286 C18.1139394,137.714762 18.3983838,139.209101 18.4274747,140.719577 C18.6731313,145.057354 20.0824242,149.559735 23.3406061,152.59037 C25.6064646,154.730212 28.5575758,155.979259 31.5442424,156.734497 C35.5943434,157.751164 39.7963636,157.967407 43.9563636,157.948042 C56.5656566,157.935132 69.1717172,157.970635 81.7777778,157.928677 C87.6412121,157.738254 93.9216162,157.086296 98.8153535,153.548942 C102.674747,150.76037 104.546263,145.999788 104.86303,141.374762 C105.315556,136.10746 105.118384,130.811111 105.160404,125.530899 C105.124848,120.476614 105.331717,115.39328 104.675556,110.364815 C104.226263,106.791958 102.813737,103.241693 100.208485,100.685503 C98.0816162,98.581164 95.2856566,97.2869312 92.4315152,96.492963 C88.2327273,95.3310582 83.8464646,95.1083598 79.5119192,95.0922222 C71.4666667,95.0857672 63.4246465,95.0922222 55.3793939,95.0889947 C55.3793939,103.480529 55.3793939,111.875291 55.3793939,120.266825 C63.68,120.266825 71.9806061,120.266825 80.2844444,120.266825 C80.2844444,124.433545 80.2844444,128.603492 80.2844444,132.770212 C67.8658586,132.770212 55.4472727,132.770212 43.0286869,132.770212 C43.0286869,120.211958 43.0286869,107.650476 43.0286869,95.0889947 C34.7248485,95.0889947 26.4210101,95.0889947 18.1171717,95.0889947 Z M110.587475,95.0889947 C110.687677,99.7850265 110.568081,104.626296 112.087273,109.131905 C113.457778,113.175979 116.712727,116.448677 120.688485,117.972063 C127.725253,120.786455 135.453737,120.202275 142.871919,120.266825 C152.840404,120.266825 162.808889,120.266825 172.777374,120.266825 C172.777374,124.433545 172.777374,128.603492 172.777374,132.770212 C152.048485,132.770212 131.319596,132.773439 110.587475,132.770212 C110.600404,136.54963 110.694141,140.35164 111.334141,144.082646 C111.945051,147.177831 113.334949,150.185873 115.623434,152.406402 C117.617778,154.371958 120.206869,155.621005 122.870303,156.414974 C126.833131,157.589788 130.993131,157.902857 135.107879,157.948042 C147.817374,157.944815 160.526869,157.948042 173.236364,157.944815 C177.477172,157.893175 181.776162,157.554286 185.842424,156.26328 C189.291313,155.185291 192.572121,153.17455 194.56,150.092275 C196.628687,147.06164 197.255758,143.343545 197.478788,139.75455 C197.478788,137.498519 197.701818,135.248942 197.640404,132.99291 C197.572525,126.086032 197.818182,119.166243 197.381818,112.269048 C197.065051,108.56709 196.134141,104.761852 193.716364,101.837725 C191.376162,98.8748677 187.801212,97.1965608 184.200404,96.3089947 C177.87798,94.7242857 171.309899,95.1632275 164.854949,95.0889947 C146.763636,95.0889947 128.675556,95.0889947 110.587475,95.0889947 Z M203.067475,157.948042 C211.371313,157.944815 219.678384,157.948042 227.985455,157.948042 C227.985455,136.995026 227.985455,116.042011 227.985455,95.0889947 C219.675152,95.0922222 211.368081,95.0857672 203.06101,95.0922222 C203.077172,116.045238 203.064242,136.995026 203.067475,157.948042 Z M143.841616,169.492857 C141.032727,170.990423 139.132121,173.788677 138.259394,176.79672 C142.53899,176.903228 146.818586,177.255026 151.030303,178.04254 C150.58101,176.728942 150.118788,175.295926 150.593939,173.921005 C151.162828,171.900582 152.966465,170.583757 154.750707,169.676825 C152.064646,169.379894 149.385051,169.011958 146.702222,168.692434 C145.674343,168.492328 144.727273,169.057143 143.841616,169.492857 Z M99.2161616,182.422275 C88.7143434,185.407725 78.6068687,190.449101 70.7426263,198.117672 C66.9931313,201.81963 63.7123232,206.086402 61.6145455,210.94381 C67.0060606,211.928201 72.3943434,213.341852 77.2719192,215.90127 C80.0355556,217.318148 82.4921212,219.354709 84.1664646,221.991587 C84.1664646,222.175556 84.1632323,222.543492 84.1632323,222.730688 C84.2214141,222.514444 84.3345455,222.081958 84.3894949,221.865714 C85.3656566,224.502593 87.7026263,226.248677 89.9814141,227.717196 C94.3676768,230.447672 99.190303,232.380952 104.04202,234.104444 C105.186263,234.578889 106.440404,234.420741 107.642828,234.440106 C125.103838,234.436878 142.561616,234.436878 160.019394,234.440106 C161.852121,234.456243 163.739798,234.507884 165.485253,233.849471 C168.539798,232.787619 170.841212,230.192698 172.121212,227.287937 C165.058586,227.071693 157.99596,226.871587 150.933333,226.639206 C135.311515,226.084074 119.68,225.667725 104.080808,224.625238 C97.3931313,223.98619 90.4565657,223.305185 84.3927273,220.19709 C84.3959596,220.71672 84.4056566,221.236349 84.4185859,221.759206 L84.1535354,221.891534 C83.5361616,218.334815 83.190303,214.690952 83.6719192,211.092275 C84.2117172,205.415079 86.4290909,199.857302 90.2335354,195.571164 C94.5874747,190.500741 100.512323,187.079577 106.627879,184.549206 C111.890101,182.315767 117.423838,180.795608 122.711919,178.62672 C114.776566,179.065661 106.863838,180.250159 99.2161616,182.422275 Z M124.043636,182.919312 C121.852121,185.765979 121.011717,189.406614 120.814545,192.931058 C123.532929,192.685767 126.267475,192.934286 128.963232,193.311905 C134.939798,194.193016 140.838788,195.551799 146.660202,197.142963 C145.325253,194.848201 144.562424,192.053175 145.412525,189.451799 C146.689293,185.378677 150.225455,182.509418 153.832727,180.498677 C146.172121,181.615397 138.433939,180.240476 130.899394,178.884921 C128.197172,179.239947 125.688889,180.756878 124.043636,182.919312 Z M158.370909,190.81381 C157.886061,190.836402 157.372121,190.723439 156.916364,190.913862 C154.359596,192.133862 152.342626,194.447989 151.570101,197.181693 C150.429091,201.038571 151.230707,205.163333 152.59798,208.849153 C158.558384,206.580212 165.129697,206.580212 171.364848,207.487143 C170.01697,205.498995 168.966465,203.197778 168.985859,200.751323 C168.701414,196.665291 170.427475,192.743862 172.738586,189.467937 C168.019394,190.452328 163.187071,190.842857 158.370909,190.81381 Z M109.588687,190.558836 C104.594747,191.985397 100.360404,195.293598 96.8985859,199.069788 C92.489697,203.933651 89.2250505,209.714127 86.5551515,215.675344 C89.9361616,215.584974 93.3688889,215.714074 96.6593939,216.559683 C98.0913131,216.917937 99.4391919,217.579577 100.541414,218.563968 C99.9208081,210.876032 102.206061,203.184868 106.020202,196.555556 C107.827071,193.405503 110.72,190.578201 114.47596,190.113439 C112.837172,190.077937 111.169293,190.039206 109.588687,190.558836 Z M112.943838,204.785714 C111.127273,209.978783 111.211313,215.662434 112.164848,221.023333 C115.814141,219.861429 119.699394,219.867884 123.484444,220.116402 C129.509495,220.594074 135.460202,221.791481 141.281616,223.395556 C138.934949,220.142222 138.414545,215.898042 139.248485,212.041164 C140.324848,207.067566 142.949495,202.565185 146.088081,198.611481 C143.001212,199.763704 139.694545,200.234921 136.407273,200.18328 C130.857374,200.063862 125.372121,198.76963 120.229495,196.716931 C116.75798,198.188677 114.159192,201.258042 112.943838,204.785714 Z M159.017374,213.370899 C156.664242,213.864709 154.288485,214.400476 152.116364,215.455873 C151.408485,215.810899 150.600404,216.311164 150.584242,217.205185 C150.228687,219.864656 150.500202,222.566085 150.416162,225.241693 C160.093737,225.248148 169.771313,225.225556 179.448889,225.251376 C177.111919,222.466032 175.014141,219.038413 175.22101,215.268677 C175.382626,212.531746 177.286465,210.314444 179.465051,208.836243 C172.657778,210.378995 165.831111,211.853968 159.017374,213.370899 Z" id="Shape"></path>
            </g>
        </g>
    </g>
</svg>