<?xml version="1.0" encoding="UTF-8"?>
<svg width="256px" height="256px" viewBox="0 0 256 256" version="1.1" xmlns="http://www.w3.org/2000/svg" xmlns:xlink="http://www.w3.org/1999/xlink">
    <!-- Generator: Sketch 51.3 (57544) - http://www.bohemiancoding.com/sketch -->
    <title>logo/jolster</title>
    <desc>Created with Sketch.</desc>
    <defs></defs>
    <g id="logo/jolster" stroke="none" stroke-width="1" fill="none" fill-rule="evenodd">
        <g id="jølster" transform="translate(2.000000, 0.000000)" fill-rule="nonzero">
            <g id="#030303ff" fill="#030303">
                <path d="M23.782,28.8888889 C53.13,13.7121212 85.5646,3.68686869 118.7582,2.65151515 C158.4286,0.782828283 197.9219,11.6919192 232.6082,30.5050505 C237.1116,33.2575758 242.2728,36.1868687 244.2715,41.3636364 C243.2089,51.540404 236.8586,60.0757576 232.2034,68.8888889 C239.1103,73.1818182 246.0172,77.4494949 253,81.6414141 L253,84.4444444 C239.9705,104.191919 229.977,125.681818 217.8836,145.984848 C211.0273,141.944444 204.171,137.954545 197.2894,133.989899 C177.6566,167.752525 159.5671,202.373737 141.0981,236.792929 C138.6187,241.010101 136.0887,245.40404 132.2431,248.560606 C127.765,251.035354 121.1617,250.429293 118.2775,245.858586 C109.8273,234.267677 104.5143,220.808081 97.3291,208.459596 C83.4394,183.737374 70.7641,158.308081 56.1913,133.964646 C49.2591,137.929293 42.3775,141.944444 35.4706,145.934343 C23.3266,125.151515 12.8777,103.409091 0,83.0555556 L0,81.6666667 C7.0081,77.5757576 13.9656,73.3838384 20.8978,69.1666667 C16.5209,59.6212121 9.4622,50.0505051 10.7019,39.040404 C14.0162,34.520202 18.9497,31.5909091 23.782,28.8888889 Z M36.9633,26.6919192 C28.8167,31.010101 19.228,33.9646465 13.156,41.1868687 C13.7126,51.3131313 21.0243,59.469697 25.3,68.3585859 C27.3746,66.7929293 29.4492,65.2272727 31.4985,63.6616162 C27.9818,56.969697 24.541,50.2525253 21.252,43.4343434 C38.8355,34.0909091 56.9756,25.530303 76.3301,20.5050505 C102.3132,13.6111111 129.7131,12.7020202 156.3034,16.2626263 C183.2479,19.8989899 208.5732,30.6565657 232.3299,43.4848485 C228.8638,50.5050505 225.3471,57.5 222.0075,64.5707071 C223.5255,65.5050505 226.5868,67.3737374 228.1048,68.3080808 C232.254,60.0252525 238.7561,52.4242424 240.097,43.0555556 C240.603,38.6111111 236.0237,37.020202 233.013,35.0505051 C208.5732,21.7424242 182.1347,11.2878788 154.3047,8.05555556 C114.4572,2.72727273 73.117,9.09090909 36.9633,26.6919192 Z M9.9935,84.1919192 C18.722,101.843434 28.6143,118.863636 37.8994,136.212121 C62.4151,121.010101 89.7138,108.762626 118.9606,107.39899 C153.3939,105.025253 186.9417,117.828283 215.4295,136.313131 C224.9423,119.040404 234.6575,101.893939 243.386,84.2424242 C215.9102,67.1717172 185.2466,55.1010101 153.318,49.7222222 C103.2746,41.540404 52.4722,58.510101 9.9935,84.1919192 Z M59.8092,131.010101 C76.6337,163.989899 95.1786,196.085859 112.4332,228.863636 C116.0005,235.176768 118.9606,242.247475 124.6278,247.045455 C131.7371,248.131313 134.2671,240.454545 137.379,235.681818 C149.3459,213.156566 161.6164,190.808081 173.811,168.383838 C180.5914,155.656566 188.3838,143.383838 193.3426,129.772727 C191.4198,129.671717 187.5995,129.520202 185.6767,129.444444 C166.5246,165.909091 146.6894,202.045455 126.7277,238.080808 C106.6648,201.868687 86.8549,165.505051 67.3992,128.939394 C64.8692,129.621212 62.3392,130.328283 59.8092,131.010101 Z M108.8912,129.343434 C108.1322,145.808081 108.2081,162.323232 108.8153,178.813131 C110.5863,178.838384 114.1283,178.888889 115.9246,178.914141 C116.0005,162.348485 116.0258,145.782828 115.8993,129.217172 C114.1536,129.242424 110.6369,129.318182 108.8912,129.343434 Z M126.9301,129.191919 C126.8795,145.858586 126.8289,162.525253 126.9554,179.166667 C134.0394,179.040404 141.5029,179.217172 147.5243,174.873737 C143.198,173.484848 138.8211,172.29798 134.4442,171.161616 C135.102,157.222222 134.6972,143.308081 134.5707,129.368687 C132.6732,129.343434 128.8529,129.242424 126.9301,129.191919 Z" id="Shape"></path>
                <path d="M117.5438,71.8939394 C112.9139,64.2676768 119.6437,52.5757576 128.9288,54.4191919 C135.5321,54.1161616 137.5308,61.4393939 140.5415,65.8838384 C134.6719,63.6363636 128.9541,61.010101 123.0845,58.7121212 C122.7556,62.3484848 122.0725,65.9848485 122.3761,69.6464646 C126.7024,73.8888889 132.066,76.8686869 136.3923,81.0858586 C142.9703,87.5 138.7199,101.363636 129.0047,101.616162 C122.5279,101.767677 120.5292,94.9242424 117.7715,90.4292929 C122.8062,92.2979798 127.6891,94.4949495 132.6479,96.489899 C132.7491,92.6767677 134.1406,88.6363636 132.7491,84.9494949 C128.018,80.2020202 121.3135,77.5505051 117.5438,71.8939394 Z" id="Shape"></path>
                <path d="M94.1413,56.489899 C96.9749,58.5858586 99.2266,61.4141414 99.5555,65.0252525 C101.5036,74.6969697 102.8698,84.469697 104.7673,94.1414141 C108.1575,96.1111111 111.5477,98.0555556 114.9379,100 C110.308,100.934343 105.6781,101.919192 101.0482,102.954545 C98.5435,87.5 94.5967,72.1969697 94.1413,56.489899 Z" id="Shape"></path>
                <path d="M149.8519,57.7525253 C157.1383,59.1666667 164.3994,61.010101 171.2051,64.0151515 C167.5872,65.1515152 163.944,66.2373737 160.2755,67.2727273 C158.6563,79.9242424 156.9612,92.6767677 153.0903,104.873737 C147.6002,92.1969697 154.836,78.510101 155.7721,65.530303 C152.7867,64.2171717 149.8013,62.9040404 146.8159,61.5909091 C147.5749,60.6313131 149.0929,58.7121212 149.8519,57.7525253 Z" id="Shape"></path>
                <path d="M60.3658,71.1111111 C63.3006,61.3636364 75.1663,65.1767677 82.8069,64.040404 C80.5299,77.1969697 89.056,89.3181818 87.5127,102.29798 C85.2863,111.262626 74.5085,108.686869 67.6775,108.585859 C66.1848,95.9090909 59.8092,83.989899 60.3658,71.1111111 Z M69.1196,68.7878788 C61.0236,74.7474747 68.6389,85.5050505 68.9425,93.4848485 C71.4978,90.6818182 74.0025,87.8787879 76.5831,85.1262626 C74.9386,90.9848485 72.9905,96.7424242 71.0677,102.525253 C75.141,103.181818 80.4287,105 83.0346,100.454545 C82.6045,91.8434343 79.2396,83.7878788 76.5578,75.7070707 C75.1916,72.3989899 73.9266,66.8434343 69.1196,68.7878788 Z" id="Shape"></path>
                <path d="M166.8282,105.30303 C171.1039,91.2121212 176.2651,77.4494949 181.6287,63.7373737 C188.7886,66.4141414 196.4039,68.9141414 201.5904,74.8737374 C195.7208,74.1414141 189.9777,72.8030303 184.2599,71.3131313 C182.8431,75 181.4263,78.6616162 180.0095,82.3484848 C183.425,85.1010101 186.8152,87.8787879 190.1295,90.7828283 C185.8538,90.4292929 181.5781,90 177.3024,89.5454545 C176.2145,93.0050505 175.1266,96.4646465 174.0134,99.9242424 C178.2638,103.181818 182.5142,106.439394 186.4863,110.025253 C179.8324,108.863636 173.3303,107.146465 166.8282,105.30303 Z" id="Shape"></path>
                <path d="M210.8249,74.8989899 C216.9222,79.040404 227.8265,81.4646465 226.182,90.9090909 C226.4856,96.010101 221.9569,99.1161616 219.0221,102.575758 C212.4188,107.954545 213.5826,117.5 208.5226,123.914141 C208.0166,115.757576 208.3202,107.60101 208.0166,99.469697 C202.4759,104.772727 197.4665,110.606061 191.8752,115.858586 C195.6702,101.161616 204.2722,88.4343434 210.8249,74.8989899 Z M212.5959,82.1212121 C210.496,86.7929293 208.3961,91.4393939 206.2962,96.0858586 C209.9394,97.0959596 213.6079,98.1060606 217.3017,99.0656566 C218.9209,95.479798 220.5401,91.8686869 222.1593,88.2323232 C218.9715,86.1868687 215.7837,84.1666667 212.5959,82.1212121 Z" id="Shape"></path>
                <path d="M23.7314,88.989899 C28.7408,82.8535354 36.0525,79.6212121 43.1365,76.5909091 C47.8423,86.6414141 53.7119,96.2626263 56.8997,106.944444 C58.0129,111.767677 57.6334,118.838384 52.1433,120.757576 C45.6159,124.141414 40.6571,116.868687 36.4573,113.106061 C41.6944,113.964646 46.9568,114.89899 52.2192,115.631313 C52.2951,104.090909 45.7677,94.2424242 41.0113,84.1919192 C35.3441,86.1363636 29.601,87.8535354 23.7314,88.989899 Z" id="Shape"></path>
            </g>
            <g id="#fefefeff" transform="translate(7.590000, 5.050505)" fill="#FEFEFE">
                <path d="M29.3733,21.6414141 C65.527,4.04040404 106.8672,-2.32323232 146.7147,3.00505051 C174.5447,6.23737374 200.9832,16.6919192 225.423,30 C228.4337,31.969697 233.013,33.5606061 232.507,38.0050505 C231.1661,47.3737374 224.664,54.9747475 220.5148,63.2575758 C218.9968,62.3232323 215.9355,60.4545455 214.4175,59.520202 C217.7571,52.4494949 221.2738,45.4545455 224.7399,38.4343434 C200.9832,25.6060606 175.6579,14.8484848 148.7134,11.2121212 C122.1231,7.65151515 94.7232,8.56060606 68.7401,15.4545455 C49.3856,20.479798 31.2455,29.040404 13.662,38.3838384 C16.951,45.2020202 20.3918,51.9191919 23.9085,58.6111111 C21.8592,60.1767677 19.7846,61.7424242 17.71,63.3080808 C13.4343,54.4191919 6.1226,46.2626263 5.566,36.1363636 C11.638,28.9141414 21.2267,25.959596 29.3733,21.6414141 Z" id="Shape"></path>
                <path d="M2.4035,79.1414141 C44.8822,53.459596 95.6846,36.489899 145.728,44.6717172 C177.6566,50.0505051 208.3202,62.1212121 235.796,79.1919192 C227.0675,96.8434343 217.3523,113.989899 207.8395,131.262626 C179.3517,112.777778 145.8039,99.9747475 111.3706,102.348485 C82.1238,103.712121 54.8251,115.959596 30.3094,131.161616 C21.0243,113.813131 11.132,96.7929293 2.4035,79.1414141 Z M109.9538,66.8434343 C113.7235,72.5 120.428,75.1515152 125.1591,79.8989899 C126.5506,83.5858586 125.1591,87.6262626 125.0579,91.4393939 C120.0991,89.4444444 115.2162,87.2474747 110.1815,85.3787879 C112.9392,89.8737374 114.9379,96.7171717 121.4147,96.5656566 C131.1299,96.3131313 135.3803,82.4494949 128.8023,76.0353535 C124.476,71.8181818 119.1124,68.8383838 114.7861,64.5959596 C114.4825,60.9343434 115.1656,57.2979798 115.4945,53.6616162 C121.3641,55.959596 127.0819,58.5858586 132.9515,60.8333333 C129.9408,56.3888889 127.9421,49.0656566 121.3388,49.3686869 C112.0537,47.5252525 105.3239,59.2171717 109.9538,66.8434343 Z M86.5513,51.4393939 C87.0067,67.1464646 90.9535,82.4494949 93.4582,97.9040404 C98.0881,96.8686869 102.718,95.8838384 107.3479,94.9494949 C103.9577,93.0050505 100.5675,91.0606061 97.1773,89.0909091 C95.2798,79.4191919 93.9136,69.6464646 91.9655,59.9747475 C91.6366,56.3636364 89.3849,53.5353535 86.5513,51.4393939 Z M142.2619,52.7020202 C141.5029,53.6616162 139.9849,55.5808081 139.2259,56.540404 C142.2113,57.8535354 145.1967,59.1666667 148.1821,60.479798 C147.246,73.459596 140.0102,87.1464646 145.5003,99.8232323 C149.3712,87.6262626 151.0663,74.8737374 152.6855,62.2222222 C156.354,61.1868687 159.9972,60.1010101 163.6151,58.9646465 C156.8094,55.959596 149.5483,54.1161616 142.2619,52.7020202 Z M52.7758,66.0606061 C52.2192,78.9393939 58.5948,90.8585859 60.0875,103.535354 C66.9185,103.636364 77.6963,106.212121 79.9227,97.2474747 C81.466,84.2676768 72.9399,72.1464646 75.2169,58.989899 C67.5763,60.1262626 55.7106,56.3131313 52.7758,66.0606061 Z M159.2382,100.252525 C165.7403,102.09596 172.2424,103.813131 178.8963,104.974747 C174.9242,101.388889 170.6738,98.1313131 166.4234,94.8737374 C167.5366,91.4141414 168.6245,87.9545455 169.7124,84.4949495 C173.9881,84.9494949 178.2638,85.3787879 182.5395,85.7323232 C179.2252,82.8282828 175.835,80.0505051 172.4195,77.2979798 C173.8363,73.6111111 175.2531,69.9494949 176.6699,66.2626263 C182.3877,67.7525253 188.1308,69.0909091 194.0004,69.8232323 C188.8139,63.8636364 181.1986,61.3636364 174.0387,58.6868687 C168.6751,72.3989899 163.5139,86.1616162 159.2382,100.252525 Z M203.2349,69.8484848 C196.6822,83.3838384 188.0802,96.1111111 184.2852,110.808081 C189.8765,105.555556 194.8859,99.7222222 200.4266,94.4191919 C200.7302,102.550505 200.4266,110.707071 200.9326,118.863636 C205.9926,112.449495 204.8288,102.90404 211.4321,97.5252525 C214.3669,94.0656566 218.8956,90.959596 218.592,85.8585859 C220.2365,76.4141414 209.3322,73.989899 203.2349,69.8484848 Z M16.1414,83.9393939 C22.011,82.8030303 27.7541,81.0858586 33.4213,79.1414141 C38.1777,89.1919192 44.7051,99.040404 44.6292,110.580808 C39.3668,109.848485 34.1044,108.914141 28.8673,108.055556 C33.0671,111.818182 38.0259,119.090909 44.5533,115.707071 C50.0434,113.787879 50.4229,106.717172 49.3097,101.893939 C46.1219,91.2121212 40.2523,81.5909091 35.5465,71.540404 C28.4625,74.5707071 21.1508,77.8030303 16.1414,83.9393939 Z" id="Shape"></path>
                <path d="M61.5296,63.7373737 C66.3366,61.7929293 67.6016,67.3484848 68.9678,70.6565657 C71.6496,78.7373737 75.0145,86.7929293 75.4446,95.4040404 C72.8387,99.9494949 67.551,98.1313131 63.4777,97.4747475 C65.4005,91.6919192 67.3486,85.9343434 68.9931,80.0757576 C66.4125,82.8282828 63.9078,85.6313131 61.3525,88.4343434 C61.0489,80.4545455 53.4336,69.6969697 61.5296,63.7373737 Z" id="Shape"></path>
                <path d="M205.0059,77.0707071 C208.1937,79.1161616 211.3815,81.1363636 214.5693,83.1818182 C212.9501,86.8181818 211.3309,90.4292929 209.7117,94.0151515 C206.0179,93.0555556 202.3494,92.0454545 198.7062,91.0353535 C200.8061,86.3888889 202.906,81.7424242 205.0059,77.0707071 Z" id="Shape"></path>
                <path d="M52.2192,125.959596 C54.7492,125.277778 57.2792,124.570707 59.8092,123.888889 C79.2649,160.454545 99.0748,196.818182 119.1377,233.030303 C139.0994,196.994949 158.9346,160.858586 178.0867,124.393939 C180.0095,124.469697 183.8298,124.621212 185.7526,124.722222 C180.7938,138.333333 173.0014,150.606061 166.221,163.333333 C154.0264,185.757576 141.7559,208.106061 129.789,230.631313 C126.6771,235.40404 124.1471,243.080808 117.0378,241.994949 C111.3706,237.19697 108.4105,230.126263 104.8432,223.813131 C87.5886,191.035354 69.0437,158.939394 52.2192,125.959596 Z" id="Shape"></path>
                <path d="M101.3012,124.292929 C103.0469,124.267677 106.5636,124.191919 108.3093,124.166667 C108.4358,140.732323 108.4105,157.29798 108.3346,173.863636 C106.5383,173.838384 102.9963,173.787879 101.2253,173.762626 C100.6181,157.272727 100.5422,140.757576 101.3012,124.292929 Z" id="Shape"></path>
                <path d="M119.3401,124.141414 C121.2629,124.191919 125.0832,124.292929 126.9807,124.318182 C127.1072,138.257576 127.512,152.171717 126.8542,166.111111 C131.2311,167.247475 135.608,168.434343 139.9343,169.823232 C133.9129,174.166667 126.4494,173.989899 119.3654,174.116162 C119.2389,157.474747 119.2895,140.808081 119.3401,124.141414 Z" id="Shape"></path>
            </g>
        </g>
    </g>
</svg>