<?xml version="1.0" encoding="UTF-8"?>
<svg width="256px" height="256px" viewBox="0 0 256 256" version="1.1" xmlns="http://www.w3.org/2000/svg" xmlns:xlink="http://www.w3.org/1999/xlink">
    <!-- Generator: Sketch 51.3 (57544) - http://www.bohemiancoding.com/sketch -->
    <title>logo/kristiansund</title>
    <desc>Created with Sketch.</desc>
    <defs></defs>
    <g id="logo/kristiansund" stroke="none" stroke-width="1" fill="none" fill-rule="evenodd">
        <g id="kristiansund" transform="translate(30.000000, 1.000000)" fill-rule="nonzero">
            <g id="#313e83f7" transform="translate(4.000000, 4.000000)" fill="#313E83" opacity="0.97">
                <path d="M0.356551724,20.9304636 C-0.291724138,10.3354305 9.07586207,0.649006623 19.6103448,0.616556291 C32.2841379,0.405629139 44.9903448,0.713907285 57.6803448,0.486754967 C58.6365517,9.08609272 65.3624138,17.5231788 74.6165517,17.1175497 C83.822069,17.6692053 91.18,9.34569536 91.4555172,0.502980132 C116.624828,0.681456954 141.794138,0.470529801 166.963448,0.58410596 C175.066897,0.454304636 182.894828,5.82483444 185.633793,13.4506623 C187.562414,19.0645695 186.897931,25.0678808 186.995172,30.8927152 C186.930345,95.2417219 187.027586,159.590728 186.962759,223.939735 C187.578621,234.956623 178.048966,244.853974 167.044483,244.772848 C118.926207,244.918874 70.807931,244.756623 22.6734483,244.853974 C15.0886207,245.243377 7.19586207,241.933444 3.20896552,235.248675 C-0.356551724,230.024172 0.42137931,223.469205 0.340344828,217.498344 C0.405172414,151.964901 0.356551724,86.4476821 0.356551724,20.9304636 Z M106.236207,10.8384106 C102.557241,12.3960265 98.4082759,12.1850993 94.5024138,12.7529801 C95.2317241,21.6281457 95.2317241,30.5357616 95.3937931,39.4271523 C93.4813793,38.5509934 91.5527586,37.7072848 89.6403448,36.8798013 C90.3372414,29.6433775 90.077931,22.2284768 87.42,15.381457 C85.4751724,20.2165563 85.2644828,27.1122517 79.267931,28.8321192 C80.0458621,30.4059603 80.8075862,31.9798013 81.5855172,33.5698675 C58.4744828,24.8569536 35.6227586,15.5112583 12.5603448,6.68476821 C12.4306897,10.2056291 12.382069,13.7264901 12.382069,17.2311258 C10.2265517,16.9390728 8.07103448,16.663245 5.89931034,16.4360927 C8.03862069,17.442053 10.1941379,18.4317881 12.3658621,19.405298 C12.3658621,24.5649007 12.3658621,29.7245033 12.4144828,34.8678808 C9.65931034,34.2675497 6.88793103,33.6672185 4.06793103,33.2940397 C6.72586207,34.592053 9.52965517,35.5006623 12.3172414,36.4417219 C12.3658621,41.1307947 12.382069,45.8360927 12.4144828,50.5251656 C9.96724138,50.0870861 7.5362069,49.7139073 5.07275862,49.4056291 C7.45517241,50.5089404 9.91862069,51.4337748 12.382069,52.3586093 C12.3658621,58.1347682 12.3658621,63.9109272 12.3658621,69.6870861 C9.49724138,69.2165563 6.62862069,68.7298013 3.72758621,68.5350993 C6.45034483,69.8493377 9.44862069,70.3847682 12.3658621,71.0662252 C12.3658621,76.3718543 12.3658621,81.6937086 12.4144828,86.9993377 C9.44862069,86.8695364 6.48275862,86.8208609 3.51689655,86.8695364 C6.38551724,87.8430464 9.4,88.297351 12.382069,88.8490066 C12.3658621,94.1546358 12.3496552,99.4602649 12.4631034,104.782119 C9.51344828,105.139073 6.58,105.463576 3.69517241,106.177483 C6.58,106.550662 9.48103448,106.82649 12.382069,106.988742 C12.382069,111.904967 12.3658621,116.821192 12.3334483,121.737417 C8.9462069,121.96457 5.54275862,122.159272 2.17172414,122.710927 C5.55896552,123.311258 8.99482759,123.392384 12.4306897,123.570861 C12.3658621,128.227483 12.3658621,132.867881 12.3334483,137.524503 C9.77275862,137.459603 7.22827586,137.427152 4.66758621,137.378477 C4.66758621,141.353642 4.6837931,145.328808 4.7,149.303974 C7.82793103,153.749669 10.4858621,158.503642 12.527931,163.533444 C9.44862069,163.598344 6.36931034,163.630795 3.29,163.67947 C3.29,183.230795 3.29,202.782119 3.25758621,222.333444 C2.69034483,231.581788 9.72413793,241.333113 19.4806897,241.251987 C68.6362069,241.349338 117.807931,241.300662 166.963448,241.268212 C175.439655,241.641391 183.55931,234.161589 183.348621,225.578477 C183.462069,204.923841 183.348621,184.28543 183.397241,163.64702 C168.681379,163.630795 153.965517,163.64702 139.265862,163.630795 C138.682414,157.092053 137.855862,150.585762 136.98069,144.095695 C148.471379,141.142715 159.621724,136.421192 171.420345,134.863576 C171.679655,134.198344 172.182069,132.867881 172.441379,132.202649 C170.998966,132.689404 168.146552,133.646689 166.704138,134.117219 C166.720345,132.527152 166.752759,129.330795 166.768966,127.740728 L171.517586,128.259934 C169.913103,127.270199 168.26,126.329139 166.606897,125.42053 C166.752759,124.090066 167.076897,121.429139 167.238966,120.098675 C167.06069,118.60596 166.736552,115.62053 166.558276,114.14404 C168.924483,114.046689 171.274483,113.965563 173.64069,113.900662 C173.705517,114.890397 173.867586,116.886093 173.948621,117.892053 C173.024828,118.330132 171.177241,119.222517 170.269655,119.660596 C171.128621,119.871523 172.862759,120.293377 173.737931,120.504305 C172.976207,124.025166 170.577586,132.478477 176.071724,132.83543 C175.504483,131.148013 174.84,129.493046 174.094483,127.87053 C174.596897,127.43245 175.601724,126.556291 176.104138,126.118212 C174.337586,123.992715 175.083103,121.445364 175.650345,119.060265 C175.277586,117.340397 174.904828,115.62053 174.548276,113.916887 C175.844828,113.851987 178.437931,113.722185 179.75069,113.657285 C179.685862,116.448013 179.669655,119.222517 179.783103,122.013245 C179.588621,122.597351 179.215862,123.749338 179.021379,124.317219 C179.32931,125.793709 179.928966,128.746689 180.22069,130.206954 L177.011724,129.493046 C178.259655,130.482781 179.523793,131.456291 180.820345,132.397351 C181.42,112.537748 180.901379,92.6456954 181.095862,72.7536424 C155.375517,62.3857616 129.217586,52.9264901 103.740345,42.0231788 C100.887931,35.0625828 99.4131034,27.4854305 99.802069,19.9245033 C106.317241,16.4847682 114.177586,11.9254967 114.372069,3.55331126 C111.552069,5.87350993 109.185862,8.69668874 106.236207,10.8384106 Z" id="Shape"></path>
                <path d="M13.7272414,8.61556291 C18.8648276,10.4976821 23.9862069,12.4609272 29.0427586,14.5539735 C29.1886207,17.6854305 29.3182759,20.8168874 29.4641379,23.9483444 C24.2455172,22.05 19.0268966,20.1354305 13.792069,18.2695364 C13.7758621,15.0569536 13.7596552,11.8443709 13.7272414,8.61556291 Z" id="Shape"></path>
                <path d="M30.5013793,15.1543046 C35.3310345,16.9715232 40.1606897,18.8374172 44.957931,20.7519868 C44.9417241,23.6725166 44.9417241,26.5930464 44.9255172,29.497351 C40.2417241,27.7937086 35.5741379,26.0900662 30.8741379,24.4188742 C30.7444828,21.3198675 30.6148276,18.2370861 30.5013793,15.1543046 Z" id="Shape"></path>
                <path d="M13.7110345,19.6811258 C18.7675862,21.5470199 23.9537931,23.0397351 28.9131034,25.1976821 C29.7882759,30.0976821 29.3344828,35.1112583 29.4155172,40.0599338 C24.1968966,38.5023179 18.9458621,37.0258278 13.7758621,35.3221854 C13.792069,30.1139073 13.792069,24.9056291 13.7110345,19.6811258 Z" id="Shape"></path>
                <path d="M46.53,21.2874172 C51.9431034,23.5102649 57.3886207,25.6357616 62.8341379,27.7612583 C62.8017241,30.4708609 62.7693103,33.1966887 62.7368966,35.9225166 C57.2589655,33.9917219 51.8296552,31.9798013 46.4003448,29.9354305 C46.4489655,27.047351 46.4975862,24.1592715 46.53,21.2874172 Z" id="Shape"></path>
                <path d="M30.8903448,25.7817881 C35.5903448,27.5016556 40.3065517,29.1890728 44.9741379,31.0062914 C44.957931,35.5493377 44.9417241,40.0761589 44.9093103,44.6192053 C40.257931,43.1589404 35.557931,41.8122517 30.8741379,40.4331126 C30.857931,35.5493377 30.857931,30.6655629 30.8903448,25.7817881 Z" id="Shape"></path>
                <path d="M63.7093103,28.0695364 C68.1175862,29.8218543 72.5258621,31.5903974 76.917931,33.3427152 C76.9827586,35.6791391 77.0475862,37.9993377 77.1124138,40.3357616 C72.8662069,39.102649 68.5875862,38.0155629 64.2603448,37.1556291 C64.0172414,34.1377483 63.8551724,31.1036424 63.7093103,28.0695364 Z" id="Shape"></path>
                <path d="M46.4651724,31.6066225 C48.88,32.3854305 51.2948276,33.1642384 53.7096552,33.9430464 C52.5427586,38.2751656 52.2834483,42.7533113 52.9803448,47.1990066 C51.3596552,46.6149007 48.102069,45.4466887 46.4813793,44.8788079 C46.4813793,40.4493377 46.4813793,36.0198675 46.4651724,31.6066225 Z" id="Shape"></path>
                <path d="M55.1034483,34.7380795 C60.4517241,36.7662252 66.27,38.0804636 70.9051724,41.6013245 C66.9668966,41.9745033 62.9637931,42.2016556 59.0255172,41.65 C56.4648276,40.3033113 56.2703448,37.0582781 55.1034483,34.7380795 Z" id="Shape"></path>
                <path d="M78.5872414,33.0831126 C82.1527586,35.0139073 82.3796552,38.9728477 83.0927586,42.4450331 C81.8934483,42.5099338 79.5110345,42.6559603 78.3117241,42.7370861 C78.3603448,39.5082781 78.4413793,36.2956954 78.5872414,33.0831126 Z" id="Shape"></path>
                <path d="M13.8082759,36.9609272 C18.9782759,38.3076159 24.1158621,39.8327815 29.2858621,41.2443709 C29.3831034,45.6900662 29.3993103,50.1519868 29.447931,54.5976821 C24.1968966,53.5268212 18.9944828,52.1963576 13.7758621,50.9794702 C13.7758621,46.3066225 13.7758621,41.6337748 13.8082759,36.9609272 Z" id="Shape"></path>
                <path d="M89.0406897,37.9019868 C90.0455172,38.4536424 92.0227586,39.5407285 93.0113793,40.0761589 C92.9303448,41.8609272 92.7682759,45.4142384 92.6872414,47.1827815 C87.6144828,46.2903974 88.7651724,41.7149007 89.0406897,37.9019868 Z" id="Shape"></path>
                <path d="M94.2917241,46.55 C93.1086207,45.2519868 92.8817241,41.1794702 95.1831034,41.1956954 C96.3175862,42.4937086 96.6093103,46.5986755 94.2917241,46.55 Z" id="Shape"></path>
                <path d="M30.9227586,41.844702 C35.5741379,43.1913907 40.2093103,44.5543046 44.9093103,45.7711921 C44.9417241,49.9897351 44.9417241,54.2245033 44.9255172,58.4430464 C40.257931,57.2261589 35.5741379,56.0903974 30.8417241,55.1168874 C30.8417241,50.6874172 30.857931,46.2741722 30.9227586,41.844702 Z" id="Shape"></path>
                <path d="M64.6006897,50.3466887 C68.7172414,47.3612583 72.6393103,44.1 76.7234483,41.0496689 C76.9503448,45.3331126 76.9827586,49.6327815 76.9827586,53.9324503 C72.8824138,52.6831126 68.7496552,51.4662252 64.6006897,50.3466887 Z" id="Shape"></path>
                <path d="M78.652069,54.9221854 C79.43,51.2228477 75.1837931,42.5586093 82.0717241,43.5807947 C81.942069,47.6046358 80.9048276,51.5635762 78.652069,54.9221854 Z" id="Shape"></path>
                <path d="M109.76931,52.131457 C103.951034,53.0725166 104.177931,47.8480132 103.578276,43.8728477 C107.257241,45.2033113 110.92,46.5986755 114.598966,47.9291391 C114.712414,49.9410596 114.842069,51.9692053 114.971724,53.9811258 C112.945862,53.6566225 110.952414,53.9 109.056207,54.6139073 C110.433793,54.9708609 113.221379,55.7172185 114.615172,56.0903974 C114.825862,58.6377483 114.68,61.2175497 114.615172,63.7649007 C110.498621,61.8016556 107.467931,58.4754967 105.150345,54.6139073 C106.706207,53.802649 108.245862,52.9913907 109.76931,52.131457 Z" id="Shape"></path>
                <path d="M46.4975862,46.355298 C48.9286207,47.0692053 51.3596552,47.7993377 53.7906897,48.5456954 C54.2444828,52.5695364 54.5362069,56.6258278 54.4065517,60.6983444 C51.7648276,60.0006623 49.1231034,59.286755 46.4813793,58.5566225 C46.4813793,54.484106 46.4813793,50.4115894 46.4975862,46.355298 Z" id="Shape"></path>
                <path d="M88.2465517,46.4850993 C89.8834483,47.0692053 91.487931,47.7344371 93.06,48.4645695 C93.0437931,51.8231788 93.0113793,55.1817881 93.0275862,58.5566225 C90.5641379,57.8264901 88.1168966,57.0963576 85.6696552,56.35 C86.4962069,53.0562914 87.3875862,49.7625828 88.2465517,46.4850993 Z" id="Shape"></path>
                <path d="M94.4862069,49.0486755 C96.6741379,50.8172185 96.2203448,55.8470199 95.3613793,58.5566225 C92.9627586,56.8529801 93.7893103,51.8069536 94.4862069,49.0486755 Z" id="Shape"></path>
                <path d="M116.187241,48.6592715 C119.801379,50.1033113 123.39931,51.5311258 127.013448,52.9751656 C126.802759,54.4354305 126.381379,57.3721854 126.17069,58.8324503 C122.832069,57.5993377 119.493448,56.3662252 116.122414,55.1817881 C116.138621,53.5592715 116.171034,50.2817881 116.187241,48.6592715 Z" id="Shape"></path>
                <path d="M63.8875862,51.3688742 C68.2958621,52.7804636 72.7365517,54.0622517 77.2096552,55.2791391 C77.0151724,58.7675497 76.5937931,62.2559603 75.67,65.6470199 C71.6993103,64.7221854 67.7772414,63.6513245 63.8227586,62.6291391 C63.8551724,58.8811258 63.8713793,55.1168874 63.8875862,51.3688742 Z" id="Shape"></path>
                <path d="M13.7272414,52.4397351 C18.8486207,53.5917219 23.97,54.6950331 29.0589655,55.9768212 C29.1562069,61.3960265 29.2858621,66.831457 29.4317241,72.2668874 C24.2131034,71.4556291 19.0268966,70.5307947 13.8082759,69.7357616 C13.7758621,63.9596026 13.792069,58.1996689 13.7272414,52.4397351 Z" id="Shape"></path>
                <path d="M59.3010345,61.5258278 C60.4031034,58.0860927 61.3917241,54.581457 62.6234483,51.1741722 C62.8017241,54.8086093 62.8503448,58.4430464 62.8341379,62.0774834 C61.9589655,61.931457 60.1762069,61.6718543 59.3010345,61.5258278 Z" id="Shape"></path>
                <path d="M127.985862,53.3970199 C131.097586,54.5490066 134.176897,55.7334437 137.288621,56.9016556 C137.304828,58.8486755 137.321034,60.8119205 137.337241,62.7751656 C134.112069,61.639404 130.886897,60.5523179 127.645517,59.4976821 C127.758966,57.4695364 127.872414,55.4251656 127.985862,53.3970199 Z" id="Shape"></path>
                <path d="M30.5337931,56.2364238 C35.3148276,57.4857616 40.1282759,58.5728477 44.9417241,59.6274834 C44.957931,64.6735099 44.957931,69.7357616 44.8931034,74.7817881 C40.2093103,73.9705298 35.5417241,73.1268212 30.857931,72.3480132 C30.6796552,66.9774834 30.5662069,61.6069536 30.5337931,56.2364238 Z" id="Shape"></path>
                <path d="M116.138621,56.4798013 C119.63931,57.8102649 123.172414,59.092053 126.68931,60.4225166 C126.64069,62.9536424 126.592069,65.4847682 126.543448,68.015894 C123.464138,65.4847682 119.931034,63.6188742 116.122414,62.4182119 C116.122414,60.4387417 116.122414,58.4592715 116.138621,56.4798013 Z" id="Shape"></path>
                <path d="M82.7362069,67.2208609 C83.5303448,64.0569536 84.3082759,60.8930464 85.1024138,57.7291391 C87.7603448,58.4268212 90.402069,59.1407285 93.0275862,59.8708609 C92.9141379,63.115894 92.752069,66.3609272 92.59,69.6059603 C89.3,68.7784768 86.0262069,67.9834437 82.7362069,67.2208609 Z" id="Shape"></path>
                <path d="M138.844483,57.6642384 C141.405172,58.6215232 143.965862,59.5950331 146.526552,60.568543 C146.558966,61.9801325 146.591379,64.7708609 146.623793,66.1662252 C143.982069,65.2089404 141.372759,64.2192053 138.763448,63.213245 C138.779655,61.834106 138.812069,59.0596026 138.844483,57.6642384 Z" id="Shape"></path>
                <path d="M94.2593103,59.2543046 C97.0955172,63.4403974 99.6237931,67.8374172 102.541034,71.9586093 C99.5103448,71.2122517 96.4958621,70.4334437 93.4651724,69.6870861 C93.692069,66.1986755 93.9351724,62.7264901 94.2593103,59.2543046 Z" id="Shape"></path>
                <path d="M46.4813793,60.1629139 C48.9448276,60.6496689 51.392069,61.152649 53.8393103,61.6718543 C52.1051724,66.4907285 50.6141379,71.4069536 48.7017241,76.1771523 C44.6986207,71.7801325 47.0972414,65.4523179 46.4813793,60.1629139 Z" id="Shape"></path>
                <path d="M127.921034,60.860596 C130.967931,61.9152318 134.047241,62.9374172 137.142759,63.9109272 C137.223793,66.442053 137.321034,68.9731788 137.402069,71.5043046 C134.144483,70.5470199 130.886897,69.6221854 127.62931,68.6811258 C127.726552,66.0850993 127.823793,63.4728477 127.921034,60.860596 Z" id="Shape"></path>
                <path d="M148.05,66.7665563 C148.082414,64.8519868 148.114828,62.9211921 148.147241,61.0066225 C152.182759,62.8400662 157.887586,63.797351 156.898966,69.6708609 C153.933103,68.7298013 150.999655,67.7400662 148.05,66.7665563 Z" id="Shape"></path>
                <path d="M59.382069,62.8725166 C60.9217241,63.1645695 62.4775862,63.4728477 64.0334483,63.7649007 C63.7417241,67.7887417 63.5310345,71.8288079 63.3365517,75.8688742 C62.7531034,75.8850993 61.57,75.9013245 60.9865517,75.9175497 C60.7110345,71.536755 60.322069,67.1559603 59.382069,62.8725166 Z" id="Shape"></path>
                <path d="M64.6006897,64.6248344 C67.9231034,65.2089404 71.2455172,65.8417219 74.567931,66.5231788 C71.4724138,70.8228477 70.1758621,77.8807947 64.0334483,78.6596026 C64.0496552,73.986755 64.3089655,69.2976821 64.6006897,64.6248344 Z" id="Shape"></path>
                <path d="M138.795862,64.7221854 C141.388966,65.6470199 143.965862,66.6043046 146.558966,67.5615894 C146.591379,69.086755 146.672414,72.1695364 146.721034,73.7109272 C145.343448,73.6460265 142.604483,73.5324503 141.243103,73.4837748 C142.604483,74.5870861 144.306207,75.2198675 146.348276,75.3821192 C146.494138,77.6049669 146.64,79.8278146 146.785862,82.0668874 C144.111724,81.6774834 141.453793,81.3043046 138.795862,80.9311258 C139.087586,75.5281457 139.249655,70.1089404 138.795862,64.7221854 Z" id="Shape"></path>
                <path d="M157.287931,64.9817881 C159.945862,65.9228477 162.587586,66.9288079 165.22931,67.918543 C165.132069,69.2165563 164.937586,71.7963576 164.840345,73.0943709 C161.015517,71.5205298 156.315517,70.2549669 157.287931,64.9817881 Z" id="Shape"></path>
                <path d="M81.6017241,79.0652318 C80.9858621,75.5768212 81.7475862,72.0397351 82.0555172,68.5513245 C85.6534483,69.3788079 89.2675862,70.1576159 92.8817241,70.952649 C92.7358621,74.5708609 92.59,78.1890728 92.427931,81.8072848 C88.8624138,81.1745033 83.9031034,82.7321192 81.6017241,79.0652318 Z" id="Shape"></path>
                <path d="M148.001379,68.0645695 C150.788966,69.086755 153.592759,70.0764901 156.396552,71.0662252 C156.380345,72.5913907 156.347931,75.6417219 156.331724,77.1668874 C153.576552,76.2745033 150.837586,75.365894 148.098621,74.4572848 C148.082414,72.8672185 148.033793,69.6546358 148.001379,68.0645695 Z" id="Shape"></path>
                <path d="M166.63931,68.4215232 C170.366897,69.7357616 174.402414,71.147351 174.661724,75.8364238 C172.117241,75.1549669 169.588966,74.4572848 167.076897,73.7433775 C166.963448,72.4129139 166.736552,69.7519868 166.63931,68.4215232 Z" id="Shape"></path>
                <path d="M13.7758621,71.2284768 C18.8486207,71.9748344 23.9213793,72.5913907 28.9941379,73.2403974 C29.2048276,78.3513245 29.3506897,83.4460265 29.4641379,88.5569536 C24.2455172,88.2486755 19.0431034,87.9403974 13.8406897,87.6645695 C13.7758621,82.1804636 13.7758621,76.7125828 13.7758621,71.2284768 Z" id="Shape"></path>
                <path d="M93.8217241,71.3907285 C96.8362069,71.9748344 99.8344828,72.5264901 102.848966,73.110596 C102.71931,76.6152318 102.46,80.1198675 102.20069,83.6082781 C99.2510345,83.1215232 96.3013793,82.618543 93.3517241,82.0993377 C93.5137931,78.5298013 93.6596552,74.9602649 93.8217241,71.3907285 Z" id="Shape"></path>
                <path d="M127.807586,69.9791391 C130.967931,70.9688742 134.112069,71.9423841 137.288621,72.8672185 C137.288621,75.2036424 137.288621,77.5400662 137.288621,79.8764901 C134.128276,79.2761589 130.967931,78.6596026 127.823793,78.010596 C127.823793,75.3334437 127.807586,72.6562914 127.807586,69.9791391 Z" id="Shape"></path>
                <path d="M157.644483,71.5854305 C160.026897,72.3804636 162.393103,73.1917219 164.775517,73.986755 C164.986207,75.3496689 165.407586,78.0754967 165.618276,79.4384106 C163.041379,78.9029801 160.464483,78.3350993 157.887586,77.7672185 C157.822759,76.2258278 157.70931,73.1430464 157.644483,71.5854305 Z" id="Shape"></path>
                <path d="M174.126897,71.8937086 C175.56931,72.2182119 178.486552,72.8834437 179.945172,73.2241722 C179.766897,74.2950331 179.377931,76.436755 179.183448,77.5076159 C178.826897,81.7586093 180.204483,86.0258278 180.042414,90.3092715 C178.697241,89.9198675 176.006897,89.1248344 174.677931,88.7192053 C174.904828,87.6645695 175.391034,85.5715232 175.634138,84.5168874 C176.233793,84.3546358 177.416897,84.0139073 178.000345,83.8516556 C177.141379,83.4135762 175.407241,82.5374172 174.532069,82.0993377 C175.05069,80.4443709 175.601724,78.789404 176.152759,77.1344371 C175.423448,75.4145695 174.742759,73.6622517 174.126897,71.8937086 Z" id="Shape"></path>
                <path d="M30.5175862,73.9380795 C35.3148276,74.5708609 40.2741379,74.5870861 44.8444828,76.3556291 C45.4441379,80.8337748 45.1686207,85.3443709 44.9417241,89.8387417 C40.257931,89.3844371 35.5903448,89.0112583 30.9065517,88.686755 C30.7606897,83.7705298 30.6148276,78.8543046 30.5175862,73.9380795 Z" id="Shape"></path>
                <path d="M46.53,76.9072848 C47.1134483,76.7288079 48.2803448,76.3880795 48.8637931,76.2096026 C49.1068966,81.0771523 49.7389655,85.9122517 50.7113793,90.6986755 C49.657931,90.552649 47.5510345,90.260596 46.4975862,90.1145695 C46.7568966,85.7175497 46.8865517,81.3043046 46.53,76.9072848 Z" id="Shape"></path>
                <path d="M166.914828,74.5384106 C170.188621,76.144702 174.969655,76.8423841 174.321379,81.6450331 C172.652069,81.4990066 169.297241,81.1745033 167.627931,81.0122517 C171.161034,82.5698675 175.180345,84.0139073 174.207931,88.8490066 C171.874138,88.394702 169.572759,87.8430464 167.287586,87.2102649 C167.044483,82.9917219 167.190345,78.7569536 166.914828,74.5384106 Z" id="Shape"></path>
                <path d="M148.098621,76.144702 C150.821379,76.8261589 153.560345,77.5238411 156.283103,78.2377483 C156.331724,80.3145695 156.364138,82.3913907 156.396552,84.4682119 C153.625172,83.9165563 150.837586,83.3649007 148.082414,82.7970199 C148.082414,81.142053 148.082414,77.815894 148.098621,76.144702 Z" id="Shape"></path>
                <path d="M61.9427586,78.789404 C63.7255172,79.1625828 65.5244828,79.5195364 67.3234483,79.8764901 C70.4675862,84.3546358 74.0655172,88.5082781 77.712069,92.5970199 C75.4268966,92.6781457 70.8565517,92.8403974 68.5713793,92.9377483 C71.3589655,93.392053 74.1627586,93.781457 76.9665517,94.1221854 C76.9665517,98.0324503 76.9665517,101.942715 76.9665517,105.85298 C72.1368966,105.674503 67.3072414,105.414901 62.4937931,104.993046 C62.5424138,101.082781 62.4451724,97.1887417 62.2506897,93.294702 L70.5324138,92.8241722 C68.4093103,92.1589404 64.1631034,90.7960265 62.04,90.1307947 C62.1048276,86.3503311 62.04,82.5698675 61.9427586,78.789404 Z" id="Shape"></path>
                <path d="M127.305172,79.0165563 C130.66,79.8278146 133.982414,80.752649 137.321034,81.6450331 C137.304828,84.0301325 137.304828,86.4152318 137.304828,88.8003311 C135.522069,88.6380795 131.940345,88.297351 130.157586,88.1350993 C128.715172,85.263245 127.84,82.1642384 127.305172,79.0165563 Z" id="Shape"></path>
                <path d="M157.774138,78.7731788 C160.237586,79.5195364 162.701034,80.2983444 165.148276,81.0933775 C165.132069,82.4562914 165.083448,85.1821192 165.067241,86.5450331 C162.603793,86.0745033 160.140345,85.5877483 157.693103,85.1009934 C157.70931,83.5271523 157.741724,80.3470199 157.774138,78.7731788 Z" id="Shape"></path>
                <path d="M84.1137931,82.3913907 C86.8041379,82.6672185 89.4782759,82.9430464 92.1686207,83.2350993 C92.1686207,85.3443709 92.1686207,87.4536424 92.1686207,89.5629139 C89.4458621,87.2102649 86.7555172,84.8251656 84.1137931,82.3913907 Z" id="Shape"></path>
                <path d="M138.779655,81.7748344 C141.372759,82.4400662 143.998276,83.105298 146.607586,83.7705298 C146.607586,85.4741722 146.607586,88.881457 146.607586,90.5850993 C144.014483,90.1470199 141.421379,89.6927152 138.828276,89.2546358 C138.812069,86.7559603 138.795862,84.2572848 138.779655,81.7748344 Z" id="Shape"></path>
                <path d="M93.3193103,83.5596026 C95.9934483,83.884106 98.6675862,84.1923841 101.341724,84.5168874 C103.448621,87.2102649 105.928276,89.6278146 107.63,92.613245 C106.965517,95.5337748 104.307586,96.9778146 101.665862,97.805298 L105.523103,95.0794702 C100.920345,95.4039735 96.82,93.6029801 93.3355172,90.7960265 C93.3355172,88.3784768 93.3193103,85.9771523 93.3193103,83.5596026 Z" id="Shape"></path>
                <path d="M148.147241,83.8192053 C150.886207,84.5980132 153.625172,85.4092715 156.364138,86.2205298 C156.380345,87.6483444 156.412759,90.4877483 156.412759,91.9155629 C153.608966,91.4125828 150.805172,90.9096026 147.985172,90.4228477 C148.033793,88.2162252 148.098621,86.0258278 148.147241,83.8192053 Z" id="Shape"></path>
                <path d="M157.725517,86.1069536 C160.172759,86.7721854 162.636207,87.4374172 165.083448,88.102649 C165.099655,89.3519868 165.148276,91.8506623 165.164483,93.1 C162.684828,93.002649 160.188966,92.905298 157.70931,92.8241722 C157.70931,91.136755 157.70931,87.7781457 157.725517,86.1069536 Z" id="Shape"></path>
                <path d="M13.7758621,88.7192053 C18.8972414,89.0437086 24.0024138,89.3844371 29.1075862,89.8874172 C29.1562069,93.6678808 29.2048276,97.4483444 29.2210345,101.228808 C27.422069,102.526821 25.6555172,103.84106 23.9051724,105.187748 C20.5341379,105.220199 17.1631034,105.203974 13.7758621,105.220199 C13.7758621,99.7198675 13.7758621,94.2195364 13.7758621,88.7192053 Z" id="Shape"></path>
                <path d="M166.720345,88.1513245 C170.528966,88.881457 174.402414,89.9198675 174.710345,94.5440397 C172.084828,94.2357616 169.475517,93.9274834 166.85,93.6029801 C166.817586,92.2400662 166.752759,89.5142384 166.720345,88.1513245 Z" id="Shape"></path>
                <path d="M30.55,90.3092715 C35.3310345,90.5688742 40.112069,90.6986755 44.8931034,90.747351 C44.9741379,96.036755 45.0227586,101.342384 44.6986207,106.615563 C40.0634483,104.068212 36.5627586,99.2331126 30.6310345,100.076821 C30.5986207,96.8155629 30.5824138,93.5705298 30.55,90.3092715 Z" id="Shape"></path>
                <path d="M135.635517,97.9350993 C133.95,95.0307947 132.54,91.9804636 131.13,88.9301325 C132.604828,89.3682119 135.554483,90.2443709 137.02931,90.6824503 C136.915862,92.9864238 138.86069,97.3672185 135.635517,97.9350993 Z" id="Shape"></path>
                <path d="M138.812069,90.7311258 C141.388966,90.9745033 143.982069,91.234106 146.575172,91.5099338 C146.575172,93.2135762 146.607586,96.6370861 146.607586,98.3407285 C143.998276,98.1135762 141.388966,97.8864238 138.795862,97.6592715 C138.795862,95.3390728 138.795862,93.0350993 138.812069,90.7311258 Z" id="Shape"></path>
                <path d="M174.937241,90.4715232 C176.136552,90.6337748 178.518966,90.942053 179.718276,91.0880795 C179.79931,92.1751656 179.945172,94.3331126 180.026207,95.4201987 C179.005172,95.355298 176.97931,95.2254967 175.958276,95.160596 C178.113793,96.6695364 180.026207,98.4543046 180.820345,101.066556 C179.394138,100.98543 176.50931,100.823179 175.083103,100.742053 C175.196552,97.318543 175.180345,93.8950331 174.937241,90.4715232 Z" id="Shape"></path>
                <path d="M46.5462069,90.6824503 C54.0175862,90.8122517 52.2996552,100.044371 53.0127586,105.139073 C50.8410345,105.333775 48.6693103,105.528477 46.4975862,105.706954 C46.4651724,100.709603 46.4651724,95.6960265 46.5462069,90.6824503 Z" id="Shape"></path>
                <path d="M148.098621,92.1264901 C150.853793,92.515894 153.625172,92.905298 156.396552,93.2784768 C156.396552,94.8036424 156.364138,97.8215232 156.364138,99.3304636 C153.576552,99.0546358 150.805172,98.7625828 148.033793,98.486755 C148.05,96.8966887 148.082414,93.7165563 148.098621,92.1264901 Z" id="Shape"></path>
                <path d="M157.579655,99.0708609 C157.676897,97.318543 157.757931,95.55 157.855172,93.781457 C160.253793,94.0248344 162.636207,94.2682119 165.034828,94.5115894 C165.067241,95.9231788 165.115862,98.7139073 165.148276,100.109272 C162.62,99.7847682 160.107931,99.4278146 157.579655,99.0708609 Z" id="Shape"></path>
                <path d="M78.4575862,93.2784768 C82.8172414,97.1562914 86.9337931,101.309934 91.0827586,105.431126 C86.8203448,105.560927 82.557931,105.706954 78.2955172,105.869205 C78.3117241,101.666887 78.3441379,97.4645695 78.4575862,93.2784768 Z" id="Shape"></path>
                <path d="M166.736552,95.1443709 C169.135172,95.2903974 171.55,95.4364238 173.981034,95.5986755 C173.932414,96.8155629 173.835172,99.2817881 173.802759,100.498675 C171.452759,100.352649 169.102759,100.206623 166.752759,100.076821 C166.752759,98.8437086 166.736552,96.3774834 166.736552,95.1443709 Z" id="Shape"></path>
                <path d="M136.121724,99.5900662 C138.423103,99.4115894 138.43931,105.285099 136.170345,105.203974 C135.052069,103.338079 135.035862,101.472185 136.121724,99.5900662 Z" id="Shape"></path>
                <path d="M138.795862,99.1519868 C141.388966,99.3629139 143.998276,99.5738411 146.591379,99.7847682 C146.591379,101.439735 146.591379,104.765894 146.607586,106.420861 C143.998276,106.404636 141.405172,106.404636 138.795862,106.404636 C138.795862,104.587417 138.795862,100.969205 138.795862,99.1519868 Z" id="Shape"></path>
                <path d="M148.082414,99.9145695 C150.837586,100.076821 153.608966,100.239073 156.364138,100.401325 C156.364138,101.942715 156.380345,105.041722 156.396552,106.583113 C153.608966,106.550662 150.837586,106.518212 148.05,106.485762 C148.066207,104.84702 148.082414,101.553311 148.082414,99.9145695 Z" id="Shape"></path>
                <path d="M157.70931,100.093046 C160.172759,100.514901 162.636207,100.92053 165.099655,101.326159 C165.115862,102.656623 165.148276,105.333775 165.148276,106.664238 C162.668621,106.631788 160.172759,106.599338 157.693103,106.566887 C157.693103,104.960596 157.70931,101.715563 157.70931,100.093046 Z" id="Shape"></path>
                <path d="M166.768966,101.293709 C170.302069,101.877815 174.807586,101.715563 174.515862,106.615563 C171.922759,106.664238 169.329655,106.680464 166.736552,106.696689 C166.736552,105.35 166.752759,102.640397 166.768966,101.293709 Z" id="Shape"></path>
                <path d="M174.742759,102.299669 C176.071724,102.348344 178.713448,102.445695 180.042414,102.478146 C179.847931,104.295364 179.669655,106.128808 179.491379,107.946026 C178.486552,107.962252 176.444483,108.010927 175.439655,108.043377 C175.261379,106.615563 174.921034,103.743709 174.742759,102.299669 Z" id="Shape"></path>
                <path d="M13.792069,106.777815 C17.0334483,106.777815 20.2586207,106.777815 23.5,106.777815 C22.5924138,111.515563 21.9603448,116.301987 21.7172414,121.137086 C19.0755172,121.234437 16.4175862,121.348013 13.7758621,121.461589 C13.7758621,116.561589 13.7758621,111.677815 13.792069,106.777815 Z" id="Shape"></path>
                <path d="M41.5706897,106.907616 C42.4134483,106.988742 44.1313793,107.167219 44.9903448,107.248344 C44.342069,111.840066 46.7406897,117.778477 42.8186207,121.299338 C42.3810345,116.496689 42.137931,111.69404 41.5706897,106.907616 Z" id="Shape"></path>
                <path d="M46.4489655,107.004967 C47.8913793,106.972517 50.76,106.891391 52.1862069,106.85894 C51.3110345,112.245695 49.7713793,117.56755 46.8541379,122.256623 C46.4651724,117.178146 46.4327586,112.083444 46.4489655,107.004967 Z" id="Shape"></path>
                <path d="M64.1144828,106.696689 C68.3931034,106.777815 72.6717241,106.891391 76.9503448,107.004967 C76.9665517,110.931457 76.9503448,114.841722 76.917931,118.751987 C72.6068966,118.589735 68.2958621,118.443709 63.9686207,118.346358 C64.082069,114.468543 64.1306897,110.590728 64.1144828,106.696689 Z" id="Shape"></path>
                <path d="M78.3603448,107.069868 C82.882069,106.875166 87.4037931,106.664238 91.9255172,106.501987 C92.4927586,109.990397 92.8006897,113.511258 93.0762069,117.032119 C88.1493103,117.405298 83.2224138,117.778477 78.2955172,118.167881 C78.3117241,114.468543 78.327931,110.769205 78.3603448,107.069868 Z" id="Shape"></path>
                <path d="M136.056897,107.929801 C138.342069,107.76755 138.277241,113.592384 136.024483,113.527483 C134.89,111.661589 134.89,109.795695 136.056897,107.929801 Z" id="Shape"></path>
                <path d="M60.2734483,119.644371 C60.6462069,114.841722 61.6186207,110.103974 63.1582759,105.528477 C62.7368966,110.136424 65.6865517,116.934768 60.2734483,119.644371 Z" id="Shape"></path>
                <path d="M138.779655,107.410596 C141.388966,107.410596 143.998276,107.410596 146.607586,107.410596 C146.607586,109.049338 146.591379,112.310596 146.591379,113.933113 C143.998276,114.111589 141.388966,114.273841 138.795862,114.452318 C138.795862,112.7 138.779655,109.162914 138.779655,107.410596 Z" id="Shape"></path>
                <path d="M148.082414,107.459272 C150.853793,107.491722 153.608966,107.540397 156.380345,107.605298 C156.380345,109.162914 156.364138,112.261921 156.364138,113.819536 C153.592759,113.851987 150.837586,113.884437 148.066207,113.916887 C148.082414,112.310596 148.082414,109.065563 148.082414,107.459272 Z" id="Shape"></path>
                <path d="M157.70931,107.556623 C160.221379,107.621523 162.733448,107.670199 165.245517,107.735099 C165.164483,109.211589 164.986207,112.180795 164.888966,113.657285 C162.506552,113.851987 160.107931,114.046689 157.725517,114.241391 C157.725517,112.570199 157.70931,109.227815 157.70931,107.556623 Z" id="Shape"></path>
                <path d="M166.736552,107.686424 C169.135172,107.718874 171.533793,107.76755 173.932414,107.8 C173.916207,108.968212 173.883793,111.288411 173.851379,112.456623 C171.485172,112.66755 169.118966,112.862252 166.736552,113.073179 C166.736552,111.72649 166.736552,109.033113 166.736552,107.686424 Z" id="Shape"></path>
                <path d="M175.407241,109.114238 C177.011724,107.102318 181.614483,109.162914 179.458966,111.645364 C177.822069,113.689735 173.300345,111.580464 175.407241,109.114238 Z" id="Shape"></path>
                <path d="M94.3727586,116.269536 C93.4165517,114.922848 92.5575862,111.629139 94.6482759,110.947682 C96.3662069,111.904967 97.6141379,113.981788 97.7924138,115.945033 C96.9172414,117.437748 95.7827586,117.535099 94.3727586,116.269536 Z" id="Shape"></path>
                <path d="M148.05,115.393377 C150.821379,115.247351 153.592759,115.085099 156.380345,114.939073 C156.364138,117.015894 156.364138,119.092715 156.364138,121.169536 C153.592759,121.591391 150.821379,122.013245 148.066207,122.451325 C148.066207,120.098675 148.066207,117.746026 148.05,115.393377 Z" id="Shape"></path>
                <path d="M157.612069,115.377152 C160.124138,115.020199 162.62,114.663245 165.132069,114.306291 C165.132069,115.750331 165.115862,118.638411 165.115862,120.066225 C162.652414,120.374503 160.205172,120.699007 157.757931,121.007285 C157.70931,119.125166 157.66069,117.259272 157.612069,115.377152 Z" id="Shape"></path>
                <path d="M135.992069,117.259272 C138.212414,117.259272 138.147586,123.084106 135.992069,123.181457 C134.906207,121.201987 134.906207,119.238742 135.992069,117.259272 Z" id="Shape"></path>
                <path d="M138.795862,115.912583 C141.388966,115.766556 143.965862,115.62053 146.558966,115.458278 C146.591379,117.291722 146.656207,120.942384 146.688621,122.759603 C144.046897,123.067881 141.421379,123.392384 138.779655,123.716887 C138.795862,121.104636 138.795862,118.508609 138.795862,115.912583 Z" id="Shape"></path>
                <path d="M78.3441379,119.060265 C83.027931,118.800662 87.727931,118.654636 92.427931,118.638411 C92.5737931,122.808278 92.7034483,126.961921 92.8331034,131.115563 C88.0196552,131.926821 83.1737931,132.575828 78.327931,133.224834 C78.327931,128.503311 78.327931,123.781788 78.3441379,119.060265 Z" id="Shape"></path>
                <path d="M93.4003448,118.524834 C94.8913793,118.443709 97.8896552,118.281457 99.3968966,118.216556 C101.212069,121.980795 102.897586,125.826159 104.404828,129.752649 C100.855517,130.044702 97.3062069,130.35298 93.7731034,130.726159 C93.6434483,126.653642 93.5137931,122.581126 93.4003448,118.524834 Z" id="Shape"></path>
                <path d="M54.6334483,136.72947 C56.6917241,130.563907 57.3562069,123.392384 62.3155172,118.687086 C62.98,124.463245 62.8827586,130.271854 62.7044828,136.064238 C60.0141379,136.291391 57.3237931,136.502318 54.6334483,136.72947 Z" id="Shape"></path>
                <path d="M63.92,119.903974 C68.2634483,119.806623 72.6231034,119.693046 76.9665517,119.57947 C76.9665517,124.284768 76.9665517,128.990066 76.9503448,133.711589 C72.5906897,134.311921 68.2148276,134.831126 63.8389655,135.399007 C63.8713793,130.239404 63.8713793,125.063576 63.92,119.903974 Z" id="Shape"></path>
                <path d="M37.5675862,134.441722 C36.4168966,128.762914 38.6048276,122.126821 44.6824138,120.455629 C44.7958621,122.045695 44.9903448,125.242053 45.1037931,126.832119 C42.8024138,129.574172 40.3551724,132.186424 37.5675862,134.441722 Z" id="Shape"></path>
                <path d="M157.644483,122.451325 C160.124138,121.99702 162.603793,121.542715 165.099655,121.088411 C165.115862,122.629801 165.115862,125.696358 165.132069,127.237748 C162.668621,127.643377 160.188966,128.032781 157.741724,128.438411 C157.70931,126.945695 157.66069,123.94404 157.644483,122.451325 Z" id="Shape"></path>
                <path d="M13.7758621,123.084106 C16.5796552,122.889404 19.3672414,122.694702 22.1548276,122.5 C23.6458621,127.091722 24.5210345,131.845695 24.6831034,136.66457 C21.0689655,137.053974 17.4386207,137.346026 13.8082759,137.605629 C13.7758621,132.77053 13.7758621,127.919205 13.7758621,123.084106 Z" id="Shape"></path>
                <path d="M148.212069,123.197682 C150.983448,123.100331 153.738621,123.00298 156.51,122.905629 C156.380345,125.112252 156.25069,127.335099 156.121034,129.557947 C153.398276,129.866225 150.675517,130.190728 147.968966,130.531457 C148.05,128.081457 148.131034,125.647682 148.212069,123.197682 Z" id="Shape"></path>
                <path d="M138.779655,125.469205 C141.388966,125.031126 144.014483,124.593046 146.64,124.138742 C146.607586,126.523841 146.575172,128.925166 146.558966,131.310265 C143.965862,131.79702 141.388966,132.283775 138.812069,132.77053 C138.795862,130.336755 138.779655,127.90298 138.779655,125.469205 Z" id="Shape"></path>
                <path d="M135.911034,126.750993 C138.212414,126.572517 138.309655,132.397351 136.024483,132.3 C134.825172,130.466556 134.776552,128.616887 135.911034,126.750993 Z" id="Shape"></path>
                <path d="M157.628276,130.38543 C160.140345,129.687748 162.652414,128.990066 165.164483,128.259934 C165.148276,130.255629 165.132069,132.251325 165.132069,134.24702 C162.668621,135.106954 160.205172,135.966887 157.741724,136.843046 C157.70931,134.685099 157.676897,132.527152 157.628276,130.38543 Z" id="Shape"></path>
                <path d="M93.4165517,132.397351 C97.0468966,131.861921 100.677241,131.29404 104.323793,130.709934 C104.680345,133.857616 105.053103,137.005298 105.409655,140.15298 C101.584828,141.029139 97.7113793,141.775497 93.8541379,142.554305 C93.7082759,139.163245 93.5624138,135.788411 93.4165517,132.397351 Z" id="Shape"></path>
                <path d="M148.001379,132.3 C150.805172,131.618543 153.592759,130.937086 156.396552,130.255629 C156.396552,131.910596 156.380345,135.25298 156.380345,136.907947 C153.641379,137.800331 150.902414,138.692715 148.163448,139.585099 C148.131034,137.767881 148.05,134.117219 148.001379,132.3 Z" id="Shape"></path>
                <path d="M78.3441379,134.847351 C83.0603448,133.987417 87.7441379,133.095033 92.4765517,132.364901 C92.6224138,135.885762 92.7682759,139.422848 92.897931,142.943709 C88.0034483,143.819868 83.1251724,144.858278 78.3441379,146.204967 C78.327931,142.408278 78.327931,138.627815 78.3441379,134.847351 Z" id="Shape"></path>
                <path d="M139.103793,134.198344 C141.599655,133.581788 144.07931,132.965232 146.575172,132.348675 C146.591379,134.847351 146.607586,137.346026 146.607586,139.828477 C144.03069,140.639735 141.421379,141.418543 138.828276,142.181126 C138.941724,139.520199 139.038966,136.859272 139.103793,134.198344 Z" id="Shape"></path>
                <path d="M63.8389655,137.070199 C68.1986207,136.307616 72.5582759,135.496358 76.917931,134.685099 C76.9503448,138.514238 76.9665517,142.359603 76.9665517,146.204967 C72.6393103,147.259603 68.2796552,148.249338 63.9037931,149.157947 C63.8713793,145.117881 63.8551724,141.09404 63.8389655,137.070199 Z" id="Shape"></path>
                <path d="M136.591724,135.301656 C138.779655,135.869536 139.071379,137.037748 137.45069,138.790066 C135.278966,138.20596 134.987241,137.037748 136.591724,135.301656 Z" id="Shape"></path>
                <path d="M50.7437931,151.818874 C51.8134483,147.097351 53.1586207,142.456954 54.5524138,137.832781 C57.3075862,137.605629 60.0789655,137.394702 62.8341379,137.16755 C62.817931,141.256291 62.817931,145.345033 62.8017241,149.433775 C58.7986207,150.309934 54.7631034,151.072517 50.7437931,151.818874 Z" id="Shape"></path>
                <path d="M93.7082759,144.07947 C97.76,143.122185 101.827931,142.164901 105.912069,141.321192 C105.49069,144.663576 107.176207,149.028146 104.745172,151.786424 C101.131034,153.327815 97.2737931,154.220199 93.53,155.404636 C93.5948276,151.624172 93.6434483,147.859934 93.7082759,144.07947 Z" id="Shape"></path>
                <path d="M78.327931,147.275828 C83.1575862,146.350993 87.9548276,145.328808 92.752069,144.225497 C92.7034483,147.908609 92.6386207,151.575497 92.6062069,155.258609 C87.9062069,156.978477 83.1089655,158.357616 78.327931,159.801656 C78.327931,155.631788 78.327931,151.445695 78.327931,147.275828 Z" id="Shape"></path>
                <path d="M63.8713793,150.569536 C68.1986207,149.48245 72.5744828,148.557616 76.9503448,147.697682 C76.9665517,151.786424 76.9665517,155.875166 76.9989655,159.947682 C72.6555172,161.375497 68.312069,162.722185 63.9524138,164.068874 C63.8713793,159.574503 63.8551724,155.063907 63.8713793,150.569536 Z" id="Shape"></path>
                <path d="M50.5655172,153.473841 C54.6334483,152.549007 58.6851724,151.559272 62.7531034,150.666887 C62.8017241,154.982781 62.817931,159.314901 62.8341379,163.64702 C58.1989655,163.64702 53.58,163.630795 48.9448276,163.61457 C49.4796552,160.22351 50.0144828,156.848675 50.5655172,153.473841 Z" id="Shape"></path>
                <path d="M127.143103,164.263576 C127.694138,159.639404 128.228966,154.869205 130.87069,150.89404 C135.392414,154.38245 134.501034,159.639404 132.475172,164.231126 C131.146207,164.247351 128.472069,164.263576 127.143103,164.263576 Z" id="Shape"></path>
                <path d="M69.8841379,163.67947 C80.9048276,160.158609 92.0875862,157.173179 103.173103,153.84702 C99.5589655,157.059603 96.4310345,161.002318 92.1686207,163.387417 C84.762069,164.052649 77.3068966,163.436093 69.8841379,163.67947 Z" id="Shape"></path>
                <path d="M12.0903448,170.704967 C15.5910345,170.753642 19.107931,170.753642 22.6086207,170.672517 C22.5113793,177.779139 22.5437931,184.869536 22.56,191.976159 C28.6213793,184.950662 34.5368966,177.811589 40.3713793,170.607616 C42.9644828,170.721192 45.5575862,170.802318 48.1506897,170.883444 C41.9758621,177.162583 35.9468966,183.587748 29.9827586,190.09404 C36.2710345,199.374834 42.7213793,208.542053 49.1555172,217.741722 C45.4927586,217.725497 41.8137931,217.741722 38.1510345,217.822848 C32.8351724,210.66755 27.7624138,203.31755 22.56,196.081126 C22.5437931,203.31755 22.5437931,210.537748 22.56,217.774172 C19.0755172,217.725497 15.6072414,217.725497 12.1389655,217.757947 C12.1065517,202.068212 12.1875862,186.394702 12.0903448,170.704967 Z" id="Shape"></path>
                <path d="M51.2624138,170.672517 C55.3303448,170.786093 59.3982759,170.786093 63.4662069,170.672517 C67.1451724,182.143709 71.6182759,193.339073 75.7024138,204.680464 C80.2403448,193.452649 84.762069,182.208609 88.522069,170.688742 C90.6937931,170.656291 92.8655172,170.640066 95.0210345,170.607616 C88.2303448,186.151325 81.4558621,201.727483 75.8482759,217.757947 C73.8710345,217.757947 71.8937931,217.757947 69.9165517,217.774172 C63.8551724,202.003311 58.0368966,186.151325 51.2624138,170.672517 Z" id="Shape"></path>
                <path d="M100.36931,170.445364 C108.651034,170.753642 117.143448,169.536755 125.27931,171.5 C131.308276,173.025166 134.128276,180.76457 130.838276,185.956623 C128.747586,189.672185 124.501379,191.083775 120.692759,192.284437 C124.874138,193.322848 129.849655,194.393709 132.005172,198.612252 C134.095862,203.869205 133.188276,210.894702 128.131724,214.188411 C119.931034,219.688742 109.607241,217.092715 100.36931,217.644371 C100.36931,201.90596 100.36931,186.183775 100.36931,170.445364 Z M111.098276,173.98245 C110.984828,179.726159 110.984828,185.469868 111.114483,191.213576 C116.56,191.327152 122.507931,187.968543 121.648966,181.754305 C122.426897,175.588742 115.927931,173.739073 111.098276,173.98245 Z M111.098276,194.296358 C110.984828,200.818874 110.968621,207.357616 111.098276,213.880132 C118.342759,214.772517 124.841724,207.77947 122.005517,200.705298 C121.016897,195.578146 115.36069,194.799338 111.098276,194.296358 Z" id="Shape"></path>
                <path d="M170.35069,170.688742 C173.089655,170.704967 175.812414,170.688742 178.551379,170.640066 C172.149655,176.93543 166.039655,183.522848 160.05931,190.223841 C166.428621,199.374834 172.814138,208.525828 179.118621,217.709272 C175.439655,217.709272 171.76069,217.725497 168.065517,217.790397 C162.992759,210.570199 157.838966,203.398675 152.717586,196.210927 C152.685172,203.398675 152.685172,210.586424 152.685172,217.757947 C149.184483,217.725497 145.683793,217.725497 142.183103,217.757947 C142.166897,202.068212 142.19931,186.394702 142.15069,170.704967 C145.667586,170.753642 149.184483,170.753642 152.717586,170.688742 C152.685172,177.762914 152.652759,184.837086 152.766207,191.911258 C158.730345,184.918212 164.613448,177.87649 170.35069,170.688742 Z" id="Shape"></path>
            </g>
            <g id="#fefefeff">
                <path d="M0.101123975,23.3955414 C-0.581311475,10.905414 10.7763642,-0.415286624 23.2389355,0.18566879 C71.9680763,0.0882165605 120.680969,0.234394904 169.41011,0.120700637 C174.577121,0.104458599 180.036605,0.526751592 184.439938,3.5477707 C192.417933,8.19299363 196.090086,17.7433121 195.813862,26.6601911 C195.813862,91.6283439 195.73262,156.612739 195.846359,221.580892 C196.073838,229.474522 195.570135,238.066561 190.370627,244.449682 C186.243517,250.134395 179.24043,252.083439 172.871032,254 L24.2300917,254 C18.380645,252.586943 11.9300051,251.498726 7.49417469,247.015924 C2.53839344,242.663057 -0.175099898,236.101274 0.101123975,229.507006 C0.0848755123,160.803185 0.0523785861,92.0993631 0.101123975,23.3955414 Z M4.00075512,24.8248408 C4.00075512,90.4101911 4.04950051,155.995541 3.98450666,221.597134 C4.06574898,227.574204 3.28582275,234.135987 6.86048463,239.365924 C10.8576066,246.057643 18.7706081,249.371019 26.3748888,248.98121 C74.6328243,248.883758 122.874511,249.046178 171.116198,248.9 C182.148905,248.98121 191.703001,239.073567 191.085559,228.045223 C191.150553,163.629299 191.053063,99.2133758 191.118056,34.7974522 C191.020566,28.9665605 191.686753,22.9570064 189.753185,17.3372611 C187.007195,9.70350318 179.159188,4.32738854 171.034956,4.45732484 C145.801093,4.34363057 120.56723,4.55477707 95.3333663,4.37611465 C95.0571424,13.2280255 87.6803402,21.5601911 78.4512131,21.0079618 C69.1733407,21.4140127 62.4302285,12.9681529 61.4715692,4.35987261 C48.7490225,4.58726115 36.0102275,4.27866242 23.3039293,4.48980892 C12.7424283,4.52229299 3.3508166,14.2187898 4.00075512,24.8248408 Z" id="Shape" fill="#FEFEFE"></path>
                <path d="M110.151965,14.722293 C113.109185,12.5783439 115.481461,9.7522293 118.308693,7.42961783 C118.113712,15.8105096 110.233207,20.3745223 103.701325,23.8178344 C103.311362,31.3866242 104.789972,38.9716561 107.649701,45.9394904 C133.192285,56.8541401 159.417305,66.3232484 185.203616,76.7019108 C185.008634,96.6146497 185.528585,116.527389 184.927392,136.407643 C183.627515,135.465605 182.360135,134.491083 181.109003,133.500318 L184.326199,134.214968 C184.033726,132.753185 183.432533,129.797134 183.123812,128.319108 C183.318794,127.750637 183.692509,126.597452 183.88749,126.012739 C183.773751,123.219108 183.789999,120.44172 183.854993,117.648089 C182.538868,117.713057 179.939114,117.842994 178.639237,117.907962 C178.996703,119.613376 179.370418,121.335032 179.744132,123.056688 C179.175436,125.444268 178.428007,127.994268 180.199089,130.121975 C179.695387,130.56051 178.687982,131.43758 178.18428,131.876115 C178.931709,133.500318 179.597896,135.157006 180.166592,136.846178 C174.658363,136.488854 177.063136,128.026752 177.826814,124.502229 C176.949397,124.291083 175.210811,123.86879 174.349642,123.657643 C175.259556,123.219108 177.111881,122.325796 178.038044,121.887261 C177.956801,120.880255 177.794317,118.882484 177.729323,117.89172 C175.357047,117.956688 173.00102,118.037898 170.628744,118.13535 C170.807477,119.613376 171.132447,122.601911 171.31118,124.096178 C171.148695,125.428025 170.823726,128.09172 170.67749,129.423567 C172.334833,130.333121 173.992176,131.275159 175.600774,132.265924 L170.839974,131.746178 C170.823726,133.337898 170.791229,136.53758 170.774981,138.129299 C172.221094,137.65828 175.080823,136.7 176.526936,136.212739 C176.266961,136.878662 175.763259,138.21051 175.503283,138.876433 C163.674402,140.435669 152.49546,145.162102 140.975299,148.118153 C141.852716,154.614968 142.681388,161.128025 143.266332,167.673567 C158.003689,167.689809 172.757293,167.673567 187.510898,167.689809 C187.462152,188.349682 187.575891,209.009554 187.462152,229.685669 C187.673382,238.277707 179.532902,245.765287 171.034956,245.39172 C121.753367,245.424204 72.4555302,245.47293 23.1739416,245.375478 C13.3923668,245.456688 6.34053381,235.695223 6.90923002,226.437261 C6.94172695,206.865605 6.94172695,187.293949 6.94172695,167.722293 C10.0289349,167.673567 13.1161429,167.641083 16.2033509,167.576115 C14.1560446,162.541083 11.4912966,157.782166 8.35534324,153.331847 C8.33909477,149.352548 8.32284631,145.373248 8.32284631,141.393949 C10.8901035,141.442675 13.4411122,141.475159 16.0083694,141.540127 C16.0408663,136.878662 16.0408663,132.233439 16.1058601,127.571975 C12.661186,127.393312 9.21651178,127.312102 5.82058299,126.711146 C9.20026332,126.158917 12.6124406,125.964013 16.0083694,125.736624 C16.0408663,120.815287 16.0571148,115.893949 16.0571148,110.972611 C13.1486399,110.810191 10.240165,110.534076 7.34793852,110.16051 C10.240165,109.44586 13.1811368,109.121019 16.1383571,108.763694 C16.0246178,103.436306 16.0408663,98.1251592 16.0571148,92.8140127 C13.0673975,92.2617834 10.0451834,91.8070064 7.16920543,90.8324841 C10.1426742,90.783758 13.1161429,90.8324841 16.0896117,90.9624204 C16.0408663,85.6512739 16.0408663,80.3238854 16.0408663,75.0127389 C13.1161429,74.3305732 10.1101773,73.794586 7.38043545,72.4789809 C10.2889103,72.6738854 13.1648883,73.1611465 16.0408663,73.6321656 C16.0408663,67.85 16.0408663,62.0678344 16.0571148,56.2856688 C13.5873484,55.3598726 11.117582,54.4340764 8.72905789,53.3296178 C11.1988243,53.6382166 13.6360937,54.0117834 16.0896117,54.4503185 C16.0571148,49.7563694 16.0408663,45.0461783 15.9921209,40.3522293 C13.1973852,39.4101911 10.3864011,38.5006369 7.72165318,37.2012739 C10.5488858,37.5748408 13.327373,38.1757962 16.0896117,38.7767516 C16.0408663,33.6280255 16.0408663,28.4630573 16.0408663,23.2980892 C13.8635722,22.3235669 11.7025266,21.3328025 9.55772951,20.3257962 C11.7350236,20.5531847 13.8960692,20.8292994 16.0571148,21.1216561 C16.0571148,17.6133758 16.1058601,14.0888535 16.2358478,10.5643312 C39.3574109,19.4 62.2677439,28.755414 85.4380523,37.4773885 C84.658126,35.8856688 83.8944483,34.3101911 83.114522,32.7347134 C89.1264534,31.0130573 89.3376834,24.1101911 91.287499,19.2700637 C93.9522469,26.1242038 94.2122223,33.5468153 93.5135384,40.7907643 C95.4308571,41.6191083 97.3644242,42.4636943 99.2817428,43.3407643 C99.1192582,34.4401274 99.1192582,25.5232484 98.3880774,16.6388535 C102.303957,16.0703822 106.463564,16.2815287 110.151965,14.722293 Z M17.4057372,12.4971338 C17.4382341,15.7292994 17.4544826,18.9452229 17.470731,22.1611465 C22.7189846,24.0289809 27.9509898,25.9455414 33.1829949,27.8458599 C33.0367587,24.7111465 32.906771,21.5764331 32.7605348,18.4417197 C27.6910143,16.3464968 22.5565,14.3812102 17.4057372,12.4971338 Z M34.2228965,19.0426752 C34.3366358,22.1286624 34.4666235,25.2146497 34.5966112,28.316879 C39.3086655,29.9898089 43.9882228,31.6952229 48.6840287,33.4006369 C48.7002772,30.4933121 48.7002772,27.5697452 48.7165256,24.6461783 C43.9069805,22.7296178 39.0649385,20.8617834 34.2228965,19.0426752 Z M17.3894887,23.5742038 C17.470731,28.8041401 17.470731,34.0178344 17.4544826,39.2315287 C22.6377423,40.9369427 27.9022444,42.4149682 33.1342495,43.9742038 C33.0530072,39.0203822 33.5079641,34.0015924 32.6305471,29.0964968 C27.6585174,26.9363057 22.4590092,25.4420382 17.3894887,23.5742038 Z M50.2926265,25.1821656 C50.2601296,28.0570064 50.2113842,30.9480892 50.1626388,33.839172 C55.605874,35.8856688 61.0491091,37.8996815 66.5410897,39.8324841 C66.5735866,37.1038217 66.6060835,34.3751592 66.6385804,31.6627389 C61.1790968,29.5350318 55.7196132,27.4073248 50.2926265,25.1821656 Z M34.6128596,29.6812102 C34.5803627,34.5700637 34.5803627,39.4589172 34.5966112,44.3477707 C39.292417,45.7283439 44.0044713,47.0764331 48.6677802,48.5382166 C48.7002772,43.9904459 48.7165256,39.4589172 48.7327741,34.9111465 C44.0532167,33.0920382 39.3249139,31.4028662 34.6128596,29.6812102 Z M67.5159974,31.9713376 C67.6622336,35.0085987 67.8247182,38.0458599 68.0684452,41.066879 C72.4067848,41.927707 76.6963791,43.0159236 80.9534764,44.2503185 C80.8884826,41.911465 80.8234887,39.5888535 80.7584949,37.25 C76.3551614,35.4958599 71.9355794,33.7254777 67.5159974,31.9713376 Z M50.2276327,35.5121019 C50.2438811,39.9299363 50.2438811,44.3640127 50.2438811,48.7980892 C51.8687275,49.3665605 55.1346685,50.5359873 56.7595149,51.1207006 C56.0608309,46.6703822 56.3208064,42.1875796 57.4906957,37.8509554 C55.0696747,37.0713376 52.6486537,36.2917197 50.2276327,35.5121019 Z M58.8880635,38.6468153 C60.0579529,40.9694268 60.2529344,44.2178344 62.8201916,45.5659236 C66.7685681,46.1181529 70.7819385,45.8907643 74.7303151,45.5171975 C70.0832546,41.9926752 64.2500564,40.6770701 58.8880635,38.6468153 Z M82.4320866,36.9901274 C82.2858504,40.206051 82.2046081,43.4219745 82.1558627,46.6541401 C83.358249,46.5729299 85.7467731,46.4267516 86.9491593,46.3617834 C86.2342269,42.8859873 86.0067485,38.9229299 82.4320866,36.9901274 Z M17.4869795,40.8719745 C17.4544826,45.5496815 17.4544826,50.2273885 17.4544826,54.9050955 C22.6864877,56.1232484 27.9022444,57.4550955 33.1667464,58.5270701 C33.118001,54.0767516 33.1017526,49.6101911 33.0042618,45.1598726 C27.821002,43.7468153 22.6702392,42.2200637 17.4869795,40.8719745 Z M92.9123453,41.8140127 C92.6361214,45.6308917 91.4824805,50.2111465 96.5682495,51.1044586 C96.6494918,49.3340764 96.8119764,45.7770701 96.8932187,43.9904459 C95.9020625,43.4544586 93.91975,42.366242 92.9123453,41.8140127 Z M98.1768473,50.4710191 C100.500378,50.5197452 100.207905,46.4105096 99.0705128,45.1111465 C96.763231,45.0949045 96.9907095,49.1716561 98.1768473,50.4710191 Z M34.6453566,45.760828 C34.5803627,50.1949045 34.5641142,54.6127389 34.5641142,59.0468153 C39.3086655,60.0213376 44.0044713,61.1582803 48.6840287,62.3764331 C48.7002772,58.1535032 48.7002772,53.9143312 48.6677802,49.6914013 C43.9557259,48.4732484 39.3086655,47.1089172 34.6453566,45.760828 Z M68.4096629,54.2716561 C72.5692695,55.3923567 76.7126276,56.6105096 80.8234887,57.8611465 C80.8234887,53.5570064 80.7909918,49.2528662 80.5635133,44.9649682 C76.4689006,48.0184713 72.5367725,51.283121 68.4096629,54.2716561 Z M82.4970804,58.8519108 C84.7556168,55.4898089 85.7955184,51.5267516 85.9255061,47.4987261 C79.0199093,46.4754777 83.2770067,55.1487261 82.4970804,58.8519108 Z M113.69413,56.0582803 C112.166774,56.9191083 110.62317,57.7312102 109.063318,58.5433121 C111.386848,62.4089172 114.42531,65.738535 118.55242,67.7038217 C118.617414,65.1538217 118.76365,62.5713376 118.55242,60.0213376 C117.155052,59.6477707 114.360317,58.9006369 112.979197,58.5433121 C114.880267,57.8286624 116.878828,57.5850318 118.909886,57.9098726 C118.779899,55.8958599 118.649911,53.8656051 118.536172,51.8515924 C114.84777,50.5197452 111.175618,49.1229299 107.487217,47.7910828 C108.08841,51.7703822 107.860931,57.0003185 113.69413,56.0582803 Z M50.2601296,50.2761146 C50.2438811,54.3366242 50.2438811,58.4133758 50.2438811,62.4901274 C52.8923806,63.2210191 55.5408801,63.9356688 58.1893796,64.6340764 C58.3193673,60.5573248 58.026895,56.4968153 57.571938,52.4687898 C55.1346685,51.7216561 52.6973991,50.9907643 50.2601296,50.2761146 Z M92.1161706,50.406051 C91.255002,53.6869427 90.3613366,56.9840764 89.532665,60.2812102 C91.9861829,61.0283439 94.4397008,61.7592357 96.9094672,62.4901274 C96.8932187,59.1117834 96.9257157,55.7496815 96.9419641,52.3875796 C95.3658632,51.6566879 93.7572654,50.9907643 92.1161706,50.406051 Z M98.3718289,52.972293 C97.673145,55.7334395 96.8444734,60.7847134 99.2492459,62.4901274 C100.110414,59.777707 100.565371,54.7426752 98.3718289,52.972293 Z M120.128521,52.5824841 C120.112273,54.2066879 120.079776,57.4875796 120.063527,59.1117834 C123.443207,60.2974522 126.790391,61.5318471 130.137574,62.766242 C130.348804,61.3044586 130.771264,58.3646497 130.982494,56.9028662 C127.359087,55.4573248 123.751928,54.0280255 120.128521,52.5824841 Z M67.6947305,55.2949045 C67.6784821,59.0468153 67.6622336,62.8149682 67.6297367,66.566879 C71.5943617,67.5901274 75.5264898,68.6621019 79.5073632,69.5878981 C80.4335256,66.1933121 80.8559857,62.7012739 81.0509672,59.2092357 C76.5663914,57.9910828 72.1143125,56.7079618 67.6947305,55.2949045 Z M17.4057372,56.366879 C17.470731,62.1328025 17.4544826,67.8987261 17.4869795,73.6808917 C22.7189846,74.4767516 27.9184928,75.4025478 33.150498,76.2146497 C33.0042618,70.7735669 32.8742741,65.3324841 32.7767833,59.9076433 C27.6747659,58.6245223 22.5402515,57.5200637 17.4057372,56.366879 Z M63.0964155,65.4624204 C63.9738325,65.6085987 65.7611634,65.8684713 66.6385804,66.0146497 C66.6548289,62.3764331 66.6060835,58.7382166 66.4273504,55.1 C65.1924672,58.510828 64.201311,62.0191083 63.0964155,65.4624204 Z M131.957402,57.3251592 C131.843663,59.355414 131.729924,61.4019108 131.616184,63.4321656 C134.865877,64.4878981 138.099321,65.5761146 141.332765,66.7130573 C141.316517,64.7477707 141.300268,62.7824841 141.28402,60.8334395 C138.164315,59.6640127 135.077107,58.4783439 131.957402,57.3251592 Z M34.2553934,60.1675159 C34.2878904,65.5436306 34.4016296,70.9197452 34.5803627,76.2958599 C39.2761685,77.0754777 43.9557259,77.9200637 48.6515318,78.7321656 C48.7165256,73.6808917 48.7165256,68.6133758 48.7002772,63.5621019 C43.8744836,62.5063694 39.0486901,61.4181529 34.2553934,60.1675159 Z M120.079776,60.4111465 C120.063527,62.3926752 120.063527,64.3742038 120.063527,66.3557325 C123.881916,67.5576433 127.424081,69.4254777 130.511289,71.9592357 C130.560034,69.4254777 130.60878,66.8917197 130.657525,64.3579618 C127.131609,63.0261146 123.589444,61.7429936 120.079776,60.4111465 Z M86.5916931,71.1633758 C89.8901311,71.9267516 93.1723207,72.7226115 96.4707587,73.5509554 C96.6332433,70.3025478 96.795728,67.0541401 96.9094672,63.8057325 C94.2772162,63.0748408 91.6287167,62.3601911 88.9639687,61.6617834 C88.1677941,64.8289809 87.3878678,67.9961783 86.5916931,71.1633758 Z M142.843872,61.5968153 C142.811376,62.9936306 142.778879,65.7710191 142.76263,67.1515924 C145.378633,68.1585987 147.994635,69.1493631 150.643135,70.1076433 C150.610638,68.710828 150.578141,65.9171975 150.545644,64.5041401 C147.978387,63.5296178 145.41113,62.5550955 142.843872,61.5968153 Z M98.1443504,63.188535 C97.8193811,66.6643312 97.5756542,70.1401274 97.3481757,73.6321656 C100.386638,74.3792994 103.408852,75.1589172 106.447315,75.906051 C103.522592,71.7805732 100.987831,67.3789809 98.1443504,63.188535 Z M50.2438811,64.0980892 C50.8613227,69.3929936 48.4565502,75.7273885 52.4699206,80.1289809 C54.3872392,75.3538217 55.8820978,70.4324841 57.6206834,65.6085987 C55.1671655,65.0888535 52.7136475,64.5853503 50.2438811,64.0980892 Z M131.892408,64.7964968 C131.794918,67.411465 131.697427,70.0264331 131.599936,72.6251592 C134.865877,73.5671975 138.131818,74.4929936 141.397759,75.4512739 C141.316517,72.9175159 141.219026,70.383758 141.137784,67.85 C138.034327,66.8754777 134.947119,65.8522293 131.892408,64.7964968 Z M152.072999,70.7085987 C155.03022,71.683121 157.971192,72.6738854 160.94466,73.6159236 C161.935817,67.7363057 156.216358,66.7780255 152.17049,64.9426752 C152.137993,66.8592357 152.105496,68.7920382 152.072999,70.7085987 Z M63.1776578,66.8105096 C64.1200686,71.0984076 64.5100318,75.483758 64.7862556,79.8691083 C65.3712003,79.8528662 66.5573381,79.8366242 67.1422828,79.8203822 C67.3372643,75.7761146 67.5484944,71.7318471 67.8409667,67.7038217 C66.2811142,67.411465 64.7212618,67.1028662 63.1776578,66.8105096 Z M68.4096629,68.5646497 C68.1171906,73.2423567 67.8572152,77.9363057 67.8409667,82.6140127 C73.9991342,81.8343949 75.2990113,74.7691083 78.4024677,70.4649682 C75.0715328,69.7828025 71.7405978,69.1493631 68.4096629,68.5646497 Z M142.795127,68.6621019 C143.250084,74.0544586 143.087599,79.4792994 142.795127,84.8878981 C145.459875,85.261465 148.124623,85.6350318 150.805619,86.0248408 C150.659383,83.7834395 150.513147,81.5582803 150.366911,79.333121 C148.319605,79.1707006 146.613516,78.5372611 145.248645,77.4328025 C146.613516,77.4815287 149.359506,77.5952229 150.740626,77.6601911 C150.69188,76.1171975 150.610638,73.0312102 150.578141,71.5044586 C147.978387,70.5461783 145.394881,69.5878981 142.795127,68.6621019 Z M161.334623,68.9219745 C160.359716,74.2006369 165.07177,75.4675159 168.906407,77.0429936 C169.003898,75.7436306 169.19888,73.1611465 169.29637,71.8617834 C166.647871,70.8710191 163.999371,69.8640127 161.334623,68.9219745 Z M85.4543007,83.0200637 C87.7615825,86.6907643 92.7336122,85.1315287 96.3082741,85.7649682 C96.4707587,82.1429936 96.6169949,78.5210191 96.763231,74.8990446 C93.1398238,74.1031847 89.5164165,73.3235669 85.9092577,72.4952229 C85.6005369,75.9872611 84.8368591,79.5280255 85.4543007,83.0200637 Z M152.024254,72.0079618 C152.056751,73.5996815 152.105496,76.8156051 152.121745,78.4073248 C154.867735,79.316879 157.613725,80.2264331 160.375964,81.1197452 C160.392213,79.5929936 160.42471,76.5394904 160.440958,75.0127389 C157.629974,74.0219745 154.81899,73.0312102 152.024254,72.0079618 Z M170.709987,72.3652866 C170.807477,73.6971338 171.034956,76.360828 171.148695,77.6926752 C173.667207,78.4073248 176.201967,79.1057325 178.752976,79.7878981 C178.493001,75.093949 174.447133,73.6808917 170.709987,72.3652866 Z M17.4544826,75.1751592 C17.4544826,80.6649682 17.4544826,86.138535 17.5194764,91.6283439 C22.7352331,91.9044586 27.9509898,92.2130573 33.1829949,92.5216561 C33.0692556,87.405414 32.9230195,82.305414 32.7117894,77.189172 C27.6260205,76.5394904 22.5402515,75.922293 17.4544826,75.1751592 Z M97.7056419,75.3375796 C97.5431573,78.910828 97.3969211,82.4840764 97.2344365,86.0573248 C100.191657,86.5770701 103.148877,87.0805732 106.106097,87.5678344 C106.366073,84.0757962 106.626048,80.5675159 106.756036,77.0592357 C103.733822,76.4745223 100.727856,75.922293 97.7056419,75.3375796 Z M131.778669,73.9245223 C131.778669,76.6044586 131.794918,79.2843949 131.794918,81.9643312 C134.947119,82.6140127 138.11557,83.2312102 141.28402,83.8321656 C141.28402,81.4933121 141.28402,79.1544586 141.28402,76.8156051 C138.099321,75.8898089 134.947119,74.9152866 131.778669,73.9245223 Z M161.69209,75.5324841 C161.757084,77.0917197 161.870823,80.177707 161.935817,81.7207006 C164.519322,82.289172 167.102828,82.8576433 169.686334,83.3936306 C169.475103,82.0292994 169.052643,79.3006369 168.841413,77.9363057 C166.452889,77.1404459 164.080614,76.3283439 161.69209,75.5324841 Z M178.216777,75.8410828 C178.834218,77.611465 179.516654,79.3656051 180.247835,81.0872611 C179.695387,82.743949 179.142939,84.4006369 178.622988,86.0573248 C179.500405,86.4958599 181.238991,87.3729299 182.100159,87.811465 C181.515215,87.9738854 180.329077,88.3149682 179.727884,88.4773885 C179.484157,89.533121 178.996703,91.6283439 178.769224,92.6840764 C180.101598,93.0901274 182.798843,93.8859873 184.147466,94.2757962 C184.30995,89.9878981 182.928831,85.716242 183.286297,81.460828 C183.481279,80.3888535 183.871242,78.2449045 184.049975,77.1729299 C182.587613,76.8318471 179.66289,76.1659236 178.216777,75.8410828 Z M34.239145,77.8875796 C34.3366358,82.8089172 34.4828719,87.7302548 34.6291081,92.6515924 C39.3249139,92.9764331 44.0044713,93.35 48.7002772,93.8047771 C48.9277556,89.3057325 49.2039795,84.7904459 48.6027864,80.3076433 C44.0207198,78.5372611 39.0486901,78.5210191 34.239145,77.8875796 Z M50.2926265,80.8598726 C50.6500927,85.261465 50.520105,89.6792994 50.2601296,94.0808917 C51.3162797,94.2270701 53.4285799,94.5194268 54.48473,94.6656051 C53.5098222,89.8742038 52.8761322,85.0340764 52.6324052,80.161465 C52.0474606,80.3401274 50.8775712,80.6812102 50.2926265,80.8598726 Z M170.986211,78.488535 C171.262434,82.711465 171.116198,86.9506369 171.359925,91.1735669 C173.650959,91.8070064 175.95824,92.3592357 178.298019,92.8140127 C179.272927,87.9738854 175.243308,86.5283439 171.701143,84.9691083 C173.374735,85.1315287 176.738166,85.4563694 178.411758,85.6025478 C179.061697,80.7949045 174.2684,80.0964968 170.986211,78.488535 Z M152.121745,80.0964968 C152.105496,81.7694268 152.105496,85.0990446 152.105496,86.7557325 C154.867735,87.3242038 157.662471,87.8764331 160.440958,88.4286624 C160.408461,86.3496815 160.375964,84.2707006 160.327219,82.1917197 C157.597477,81.4770701 154.851487,80.7786624 152.121745,80.0964968 Z M65.744915,82.743949 C65.8424057,86.5283439 65.9073996,90.3127389 65.8424057,94.0971338 C67.9709544,94.7630573 72.2280517,96.1273885 74.3566004,96.7933121 L66.0536358,97.2643312 C66.2486173,101.16242 66.3461081,105.06051 66.2973627,108.974841 C71.1231562,109.397134 75.9651983,109.657006 80.8072403,109.835669 C80.8072403,105.921338 80.8072403,102.007006 80.8072403,98.0926752 C77.9962561,97.7515924 75.185272,97.3617834 72.3905364,96.9070064 C74.6815697,96.8095541 79.2636363,96.6471338 81.5546696,96.5659236 C77.8987654,92.4729299 74.2916066,88.3149682 71.1394047,83.8321656 C69.3358253,83.4748408 67.5322459,83.1175159 65.744915,82.743949 Z M131.274967,82.9713376 C131.811166,86.122293 132.688583,89.2245223 134.134696,92.0993631 C135.922027,92.2617834 139.512937,92.6028662 141.300268,92.7652866 C141.300268,90.377707 141.300268,87.9901274 141.316517,85.6025478 C137.969334,84.7092357 134.638399,83.7834395 131.274967,82.9713376 Z M161.822077,82.727707 C161.78958,84.3031847 161.757084,87.4866242 161.740835,89.0621019 C164.194353,89.5493631 166.664119,90.0366242 169.133886,90.5076433 C169.150134,89.1433121 169.19888,86.4146497 169.215128,85.0503185 C166.76161,84.2544586 164.291844,83.4748408 161.822077,82.727707 Z M87.9728125,86.3496815 C90.621312,88.7859873 93.3185569,91.1735669 96.0482987,93.5286624 C96.0482987,91.4171975 96.0482987,89.3057325 96.0482987,87.1942675 C93.3510538,86.9019108 90.6700574,86.6257962 87.9728125,86.3496815 Z M142.778879,85.7324841 C142.795127,88.2175159 142.811376,90.7187898 142.827624,93.2200637 C145.427378,93.6585987 148.027132,94.1133758 150.626886,94.5519108 C150.626886,92.8464968 150.626886,89.4356688 150.626886,87.7302548 C148.010884,87.0643312 145.378633,86.3984076 142.778879,85.7324841 Z M97.2019395,87.5191083 C97.2019395,89.939172 97.218188,92.3429936 97.218188,94.7630573 C100.711608,97.5729299 104.822469,99.3757962 109.437032,99.0509554 L105.569898,101.779618 C108.218398,100.951274 110.883145,99.5057325 111.549332,96.5821656 C109.843244,93.5936306 107.357229,91.1735669 105.244929,88.4773885 C102.563932,88.1525478 99.882936,87.843949 97.2019395,87.5191083 Z M152.17049,87.7789809 C152.121745,89.9878981 152.056751,92.1805732 152.008006,94.3894904 C154.835238,94.8767516 157.646222,95.3802548 160.457206,95.883758 C160.457206,94.4544586 160.42471,91.6121019 160.408461,90.1828025 C157.662471,89.3707006 154.916481,88.5585987 152.17049,87.7789809 Z M161.773332,90.0691083 C161.757084,91.7420382 161.757084,95.1041401 161.757084,96.7933121 C164.243098,96.8745223 166.745362,96.9719745 169.231377,97.0694268 C169.215128,95.8187898 169.166383,93.3175159 169.150134,92.066879 C166.696616,91.4009554 164.22685,90.7350318 161.773332,90.0691083 Z M17.4544826,92.6840764 C17.4544826,98.1901274 17.4544826,103.696178 17.4544826,109.202229 C20.8504114,109.185987 24.2300917,109.202229 27.609772,109.169745 C29.364606,107.821656 31.1356885,106.506051 32.9392679,105.206688 C32.9230195,101.422293 32.8742741,97.6378981 32.8255287,93.8535032 C27.7072628,93.35 22.5889969,93.0089172 17.4544826,92.6840764 Z M170.791229,92.1156051 C170.823726,93.4799363 170.88872,96.2085987 170.921217,97.5729299 C173.553468,97.8977707 176.16947,98.2063694 178.801721,98.5149682 C178.493001,93.8859873 174.609618,92.8464968 170.791229,92.1156051 Z M34.2716419,94.2757962 C34.3041388,97.5404459 34.3203873,100.788854 34.3528842,104.053503 C40.2998217,103.208917 43.8094898,108.049045 48.4565502,110.599045 C48.7815195,105.320382 48.7327741,100.009236 48.6515318,94.7143312 C43.8582351,94.6656051 39.0649385,94.5356688 34.2716419,94.2757962 Z M139.626677,101.909554 C142.860121,101.341083 140.910305,96.9557325 141.024045,94.6493631 C139.545434,94.210828 136.588214,93.333758 135.109604,92.8952229 C136.52322,95.9487261 137.936837,99.0022293 139.626677,101.909554 Z M142.811376,94.6980892 C142.795127,97.0044586 142.795127,99.310828 142.795127,101.633439 C145.394881,101.860828 148.010884,102.088217 150.626886,102.315605 C150.626886,100.610191 150.594389,97.183121 150.594389,95.477707 C147.994635,95.2015924 145.394881,94.9417197 142.811376,94.6980892 Z M179.0292,94.4382166 C179.272927,97.8652866 179.289175,101.292357 179.175436,104.719427 C180.605301,104.800637 183.497527,104.963057 184.927392,105.044268 C184.131217,102.429299 182.213899,100.642675 180.052853,99.1321656 C181.076506,99.1971338 183.107564,99.3270701 184.131217,99.3920382 C184.049975,98.3038217 183.903739,96.1436306 183.822496,95.055414 C182.62011,94.9092357 180.231586,94.6006369 179.0292,94.4382166 Z M50.308875,94.6493631 C50.2276327,99.6681529 50.2276327,104.686943 50.2601296,109.68949 C52.4374237,109.510828 54.6147177,109.315924 56.7920118,109.121019 C56.0770794,104.021019 57.7994165,94.7792994 50.308875,94.6493631 Z M152.121745,96.0949045 C152.105496,97.6866242 152.072999,100.870064 152.056751,102.461783 C154.835238,102.737898 157.613725,103.030255 160.408461,103.306369 C160.408461,101.79586 160.440958,98.7748408 160.440958,97.2480892 C157.662471,96.8745223 154.883984,96.4847134 152.121745,96.0949045 Z M161.627096,103.046497 C164.161856,103.403822 166.680368,103.761146 169.215128,104.085987 C169.182631,102.689172 169.133886,99.8955414 169.101389,98.4824841 C166.696616,98.2388535 164.308092,97.9952229 161.90332,97.7515924 C161.805829,99.5219745 161.724587,101.292357 161.627096,103.046497 Z M82.3020989,97.2480892 C82.1883596,101.438535 82.1558627,105.645223 82.1396142,109.851911 C86.41296,109.68949 90.6863058,109.543312 94.9596516,109.413376 C90.8000451,105.287898 86.6729355,101.129936 82.3020989,97.2480892 Z M170.807477,99.1159236 C170.807477,100.350318 170.823726,102.819108 170.823726,104.053503 C173.179753,104.183439 175.53578,104.329618 177.891807,104.475796 C177.924304,103.257643 178.021795,100.788854 178.07054,99.5707006 C175.633271,99.4082803 173.21225,99.2621019 170.807477,99.1159236 Z M140.114131,103.566242 C139.025484,105.450318 139.041732,107.318153 140.162876,109.185987 C142.437661,109.267197 142.421412,103.38758 140.114131,103.566242 Z M142.795127,103.127707 C142.795127,104.946815 142.795127,108.56879 142.795127,110.387898 C145.41113,110.387898 148.010884,110.387898 150.626886,110.40414 C150.610638,108.747452 150.610638,105.417834 150.610638,103.761146 C148.010884,103.55 145.394881,103.338854 142.795127,103.127707 Z M152.105496,103.891083 C152.105496,105.531529 152.089248,108.828662 152.072999,110.469108 C154.867735,110.501592 157.646222,110.534076 160.440958,110.566561 C160.42471,109.023567 160.408461,105.921338 160.408461,104.378344 C157.646222,104.215924 154.867735,104.053503 152.105496,103.891083 Z M161.757084,104.069745 C161.757084,105.693949 161.740835,108.942357 161.740835,110.550318 C164.22685,110.582803 166.729113,110.615287 169.215128,110.647771 C169.215128,109.315924 169.182631,106.635987 169.166383,105.30414 C166.696616,104.898089 164.22685,104.492038 161.757084,104.069745 Z M170.839974,105.271656 C170.823726,106.619745 170.807477,109.332166 170.807477,110.680255 C173.407232,110.664013 176.006986,110.647771 178.60674,110.599045 C178.899212,105.693949 174.382139,105.856369 170.839974,105.271656 Z M178.834218,106.278662 C179.012951,107.724204 179.354169,110.599045 179.532902,112.028344 C180.540307,111.99586 182.587613,111.947134 183.595018,111.930892 C183.773751,110.111783 183.952484,108.276433 184.147466,106.457325 C182.815092,106.424841 180.166592,106.327389 178.834218,106.278662 Z M17.470731,110.761465 C17.4544826,115.666561 17.4544826,120.555414 17.4544826,125.46051 C20.1029821,125.346815 22.76773,125.233121 25.4162295,125.135669 C25.6599565,120.295541 26.2936465,115.50414 27.2035605,110.761465 C23.9538678,110.761465 20.7204237,110.761465 17.470731,110.761465 Z M45.3205968,110.891401 C45.889293,115.682803 46.13302,120.490446 46.5717285,125.298089 C50.5038566,121.773567 48.099084,115.828981 48.7490225,111.232484 C47.887854,111.151274 46.1655169,110.972611 45.3205968,110.891401 Z M50.2113842,110.988854 C50.1951358,116.072611 50.2276327,121.172611 50.6175958,126.256369 C53.5423192,121.56242 55.0859232,116.235032 55.9633402,110.842675 C54.5334754,110.875159 51.6574974,110.956369 50.2113842,110.988854 Z M67.922209,110.680255 C67.9384575,114.578344 67.8897121,118.460191 67.7759728,122.342038 C72.1143125,122.43949 76.4364037,122.585669 80.7584949,122.748089 C80.7909918,118.833758 80.8072403,114.919427 80.7909918,110.988854 C76.5013975,110.875159 72.2118033,110.761465 67.922209,110.680255 Z M82.2046081,111.053822 C82.1721112,114.757006 82.1558627,118.460191 82.1396142,122.163376 C87.079147,121.773567 92.0186798,121.4 96.9582126,121.026433 C96.6819887,117.501911 96.3732679,113.977389 95.8045717,110.48535 C91.2712505,110.647771 86.7379293,110.858917 82.2046081,111.053822 Z M140.049137,111.91465 C138.879247,113.782484 138.879247,115.650318 140.01664,117.518153 C142.275176,117.583121 142.34017,111.752229 140.049137,111.91465 Z M64.0713233,123.641401 C69.4983099,120.928981 66.5410897,114.123567 66.9635497,109.510828 C65.4199457,114.091083 64.4450379,118.833758 64.0713233,123.641401 Z M142.778879,111.394904 C142.778879,113.149045 142.795127,116.689809 142.795127,118.443949 C145.394881,118.265287 148.010884,118.102866 150.610638,117.924204 C150.610638,116.3 150.626886,113.03535 150.626886,111.394904 C148.010884,111.394904 145.394881,111.394904 142.778879,111.394904 Z M152.105496,111.443631 C152.105496,113.051592 152.105496,116.3 152.089248,117.907962 C154.867735,117.875478 157.629974,117.842994 160.408461,117.81051 C160.408461,116.251274 160.42471,113.149045 160.42471,111.589809 C157.646222,111.524841 154.883984,111.476115 152.105496,111.443631 Z M161.757084,111.541083 C161.757084,113.214013 161.773332,116.559873 161.773332,118.232803 C164.161856,118.037898 166.566629,117.842994 168.955153,117.648089 C169.052643,116.170064 169.231377,113.197771 169.312619,111.719745 C166.794107,111.654777 164.275595,111.606051 161.757084,111.541083 Z M170.807477,111.671019 C170.807477,113.019108 170.807477,115.715287 170.807477,117.063376 C173.196002,116.852229 175.568277,116.657325 177.940553,116.446178 C177.97305,115.276752 178.005547,112.95414 178.021795,111.784713 C175.617023,111.752229 173.21225,111.703503 170.807477,111.671019 Z M179.500405,113.100318 C177.388105,115.569108 181.921426,117.680573 183.562521,115.634076 C185.723567,113.149045 181.109003,111.086306 179.500405,113.100318 Z M98.2580897,120.263057 C99.6717059,121.529936 100.809098,121.432484 101.686515,119.938217 C101.507782,117.97293 100.256651,115.893949 98.5343135,114.935669 C96.4382618,115.617834 97.2994303,118.914968 98.2580897,120.263057 Z M152.072999,119.385987 C152.089248,121.741083 152.089248,124.096178 152.089248,126.451274 C154.851487,126.012739 157.629974,125.590446 160.408461,125.168153 C160.408461,123.089172 160.408461,121.010191 160.42471,118.93121 C157.629974,119.077389 154.851487,119.239809 152.072999,119.385987 Z M161.659593,119.369745 C161.708338,121.253822 161.757084,123.121656 161.805829,125.005732 C164.259347,124.697134 166.712865,124.372293 169.182631,124.063694 C169.182631,122.634395 169.19888,119.743312 169.19888,118.297771 C166.680368,118.655096 164.178105,119.01242 161.659593,119.369745 Z M139.984143,121.253822 C138.895496,123.23535 138.895496,125.200637 139.984143,127.182166 C142.145189,127.084713 142.210182,121.253822 139.984143,121.253822 Z M142.795127,119.905732 C142.795127,122.504459 142.795127,125.103185 142.778879,127.718153 C145.427378,127.393312 148.059629,127.068471 150.708129,126.759873 C150.675632,124.940764 150.610638,121.286306 150.578141,119.450955 C147.978387,119.613376 145.394881,119.759554 142.795127,119.905732 Z M82.1883596,123.056688 C82.1721112,127.783121 82.1721112,132.509554 82.1721112,137.235987 C87.0304016,136.586306 91.8886921,135.936624 96.7144857,135.124522 C96.584498,130.966561 96.4545102,126.808599 96.3082741,122.634395 C91.5962198,122.650637 86.8841655,122.796815 82.1883596,123.056688 Z M97.2831819,122.520701 C97.3969211,126.58121 97.5269088,130.657962 97.6568965,134.734713 C101.199061,134.361146 104.757475,134.052548 108.315888,133.760191 C106.804781,129.829618 105.114941,125.980255 103.295113,122.212102 C101.784006,122.27707 98.7780405,122.43949 97.2831819,122.520701 Z M58.4168581,140.744268 C61.114103,140.516879 63.8113478,140.305732 66.5085927,140.078344 C66.6873258,134.279936 66.7848166,128.465287 66.1186296,122.683121 C61.1465999,127.393312 60.4804129,134.572293 58.4168581,140.744268 Z M67.7272275,123.901274 C67.6784821,129.066242 67.6784821,134.247452 67.6459851,139.41242 C72.0330702,138.843949 76.4201552,138.324204 80.7909918,137.723248 C80.8072403,132.996815 80.8072403,128.286624 80.8072403,123.576433 C76.4526522,123.690127 72.0818156,123.803822 67.7272275,123.901274 Z M41.3072264,138.45414 C44.1019621,136.196497 46.55548,133.581529 48.8627618,130.836624 C48.7490225,129.244904 48.554041,126.045223 48.4403017,124.453503 C42.3471281,126.126433 40.1535856,132.769427 41.3072264,138.45414 Z M161.69209,126.451274 C161.708338,127.945541 161.757084,130.950318 161.78958,132.444586 C164.243098,132.038535 166.729113,131.648726 169.19888,131.242675 C169.182631,129.699682 169.182631,126.629936 169.166383,125.086943 C166.664119,125.54172 164.178105,125.996497 161.69209,126.451274 Z M17.4544826,127.084713 C17.4544826,131.924841 17.4544826,136.78121 17.4869795,141.621338 C21.1266352,141.361465 24.766291,141.069108 28.3896983,140.679299 C28.2272136,135.855414 27.3497966,131.096497 25.854938,126.5 C23.0602024,126.694904 20.2654667,126.889809 17.4544826,127.084713 Z M152.235484,127.198408 C152.154242,129.650955 152.072999,132.087261 151.991757,134.539809 C154.705251,134.198726 157.434992,133.873885 160.164734,133.565287 C160.294722,131.340127 160.42471,129.114968 160.554697,126.906051 C157.77621,127.003503 155.013971,127.100955 152.235484,127.198408 Z M142.778879,129.472293 C142.778879,131.908599 142.795127,134.344904 142.811376,136.78121 C145.394881,136.293949 147.978387,135.806688 150.578141,135.319427 C150.594389,132.931847 150.626886,130.528025 150.659383,128.140446 C148.027132,128.595223 145.394881,129.033758 142.778879,129.472293 Z M139.902901,130.755414 C138.765508,132.623248 138.814254,134.474841 140.01664,136.310191 C142.307673,136.407643 142.210182,130.576752 139.902901,130.755414 Z M161.675841,134.393631 C161.724587,136.53758 161.757084,138.697771 161.78958,140.857962 C164.259347,139.980892 166.729113,139.120064 169.19888,138.259236 C169.19888,136.261465 169.215128,134.263694 169.231377,132.265924 C166.712865,132.996815 164.194353,133.695223 161.675841,134.393631 Z M97.2994303,136.407643 C97.4456665,139.802229 97.5919027,143.180573 97.7381388,146.575159 C101.605273,145.795541 105.488656,145.048408 109.323293,144.171338 C108.965827,141.020382 108.592112,137.869427 108.234646,134.718471 C104.578742,135.303185 100.939086,135.871656 97.2994303,136.407643 Z M152.024254,136.310191 C152.072999,138.129299 152.154242,141.783758 152.186739,143.602866 C154.932729,142.709554 157.678719,141.816242 160.42471,140.92293 C160.42471,139.266242 160.440958,135.920382 160.440958,134.263694 C157.629974,134.94586 154.835238,135.628025 152.024254,136.310191 Z M82.1883596,138.860191 C82.1721112,142.644586 82.1721112,146.428981 82.1883596,150.229618 C86.9816562,148.881529 91.8724436,147.842038 96.7794795,146.964968 C96.6494918,143.440446 96.5032556,139.899682 96.3570195,136.375159 C91.6124682,137.106051 86.9166624,137.999363 82.1883596,138.860191 Z M143.103848,138.21051 C143.038854,140.874204 142.941363,143.537898 142.827624,146.201592 C145.427378,145.438217 148.043381,144.658599 150.626886,143.846497 C150.626886,141.361465 150.610638,138.860191 150.594389,136.358917 C148.092126,136.976115 145.606111,137.593312 143.103848,138.21051 Z M67.6459851,141.08535 C67.6622336,145.113376 67.6784821,149.141401 67.710979,153.185669 C72.098064,152.276115 76.4689006,151.28535 80.8072403,150.229618 C80.8072403,146.380255 80.7909918,142.530892 80.7584949,138.697771 C76.3876583,139.509873 72.0168217,140.321975 67.6459851,141.08535 Z M140.585336,139.314968 C138.976738,141.052866 139.269211,142.222293 141.446505,142.807006 C143.071351,141.052866 142.778879,139.883439 140.585336,139.314968 Z M54.5172269,155.849363 C58.5468458,155.102229 62.5927131,154.338854 66.6060835,153.461783 C66.622332,149.36879 66.622332,145.275796 66.6385804,141.182803 C63.8763417,141.410191 61.0978545,141.621338 58.3356158,141.848726 C56.938248,146.477707 55.5896255,151.12293 54.5172269,155.849363 Z M97.5919027,148.101911 C97.5269088,151.886306 97.4781634,155.654459 97.4131696,159.438854 C101.166565,158.253185 105.033699,157.359873 108.657106,155.816879 C111.094376,153.055732 109.404535,148.686624 109.826995,145.340764 C105.732383,146.18535 101.654018,147.143631 97.5919027,148.101911 Z M82.1721112,151.301592 C82.1721112,155.475796 82.1721112,159.666242 82.1721112,163.840446 C86.9654078,162.394904 91.7749529,161.014331 96.4870072,159.292675 C96.5195041,155.605732 96.584498,151.935032 96.6332433,148.248089 C91.8236983,149.352548 87.0141532,150.375796 82.1721112,151.301592 Z M67.6784821,154.598726 C67.6622336,159.097771 67.6784821,163.613057 67.7597244,168.112102 C72.130561,166.764013 76.4851491,165.415924 80.8397372,163.986624 C80.8072403,159.909873 80.8072403,155.816879 80.7909918,151.723885 C76.4039068,152.584713 72.0168217,153.51051 67.6784821,154.598726 Z M54.3384939,157.506051 C53.7860461,160.884395 53.2498468,164.262739 52.7136475,167.657325 C57.360708,167.673567 61.99152,167.689809 66.6385804,167.689809 C66.622332,163.353185 66.6060835,159.016561 66.5573381,154.696178 C62.4789739,155.58949 58.4168581,156.580255 54.3384939,157.506051 Z M131.112482,168.307006 C132.444856,168.307006 135.125852,168.290764 136.458226,168.274522 C138.489284,163.678025 139.38295,158.415605 134.849629,154.923567 C132.201129,158.902866 131.66493,163.678025 131.112482,168.307006 Z M73.7066619,167.722293 C81.148458,167.478662 88.622751,168.09586 96.0482987,167.429936 C100.321644,165.042357 103.457598,161.095541 107.081005,157.879618 C95.9670564,161.209236 84.7556168,164.197771 73.7066619,167.722293 Z M15.7646424,174.755096 C15.8621332,190.461146 15.7808909,206.150955 15.8133878,221.857006 C19.2905589,221.824522 22.76773,221.824522 26.2611496,221.873248 C26.2449011,214.629299 26.2449011,207.401592 26.2611496,200.157643 C31.4769062,207.401592 36.5626752,214.759236 41.8921711,221.921975 C45.5643238,221.840764 49.2527249,221.824522 52.9248776,221.840764 C46.4742377,212.631529 40.0073494,203.454777 33.7029457,194.164331 C39.6823801,187.651274 45.7268084,181.219427 51.9174728,174.933758 C49.3177187,174.852548 46.7179647,174.771338 44.1182106,174.657643 C38.2687638,181.869108 32.3380748,189.015605 26.2611496,196.048408 C26.2449011,188.934395 26.2124042,181.836624 26.309895,174.722611 C22.8002269,174.803822 19.2743105,174.803822 15.7646424,174.755096 Z M55.0371778,174.722611 C61.8290353,190.217516 67.6622336,206.085987 73.7391588,221.873248 C75.7214713,221.857006 77.7037838,221.857006 79.6860963,221.857006 C85.3080645,205.809873 92.0999221,190.217516 98.9080282,174.657643 C96.7469826,174.690127 94.5696885,174.706369 92.3923945,174.738854 C88.622751,186.270701 84.0894298,197.526433 79.5398601,208.765924 C75.4452474,197.412739 70.9606716,186.205732 67.2722705,174.722611 C63.1939062,174.836306 59.115542,174.836306 55.0371778,174.722611 Z M104.270021,174.495223 C104.270021,190.25 104.270021,205.988535 104.270021,221.743312 C113.531645,221.191083 123.881916,223.789809 132.103638,218.283758 C137.173159,214.986624 138.083073,207.953822 135.987021,202.691401 C133.825975,198.468471 128.837697,197.396497 124.645594,196.357006 C128.463983,195.155096 132.72108,193.742038 134.817132,190.022611 C138.11557,184.825159 135.288337,177.077707 129.243909,175.550955 C121.08718,173.585669 112.572986,174.803822 104.270021,174.495223 Z M174.430885,174.738854 C168.678929,181.934076 162.780737,188.983121 156.801302,195.983439 C156.687563,188.901911 156.72006,181.820382 156.752557,174.738854 C153.210392,174.803822 149.684475,174.803822 146.158559,174.755096 C146.207304,190.461146 146.174807,206.150955 146.191056,221.857006 C149.700724,221.824522 153.210392,221.824522 156.72006,221.857006 C156.72006,214.678025 156.72006,207.482803 156.752557,200.28758 C161.887071,207.482803 167.054082,214.661783 172.139851,221.88949 C175.844501,221.824522 179.532902,221.80828 183.221303,221.80828 C176.900651,212.615287 170.498757,203.454777 164.113111,194.294268 C170.108794,187.586306 176.234464,180.992038 182.652607,174.690127 C179.906617,174.738854 177.176875,174.755096 174.430885,174.738854 Z M47.9528478,228.857325 C47.9853448,232.528025 50.7963289,234.071019 54.0135246,234.915605 C53.8347915,236.117516 53.5098222,238.53758 53.3473376,239.73949 C54.2247546,237.920382 55.0696747,236.101274 55.8983463,234.249682 C53.8022946,233.405096 51.7387398,232.463057 49.7076819,231.456051 C50.0813965,227.606688 54.6797116,231.196178 56.8895026,230.660191 C54.3384939,228.564968 51.0563043,228.646178 47.9528478,228.857325 Z M69.3033284,228.613694 C68.5071537,231.196178 67.710979,236.166242 69.9857638,237.774204 C70.9281747,235.207962 71.6918525,230.189172 69.3033284,228.613694 Z M73.9016434,228.288854 C73.7879042,231.959554 73.6579165,235.614013 73.5929226,239.284713 C74.0316311,238.082803 74.9090482,235.678981 75.3477567,234.47707 C77.1513361,234.152229 78.938667,233.794904 80.725998,233.43758 C79.2636363,233.372611 76.3714098,233.226433 74.9090482,233.145223 C74.9252966,232.316879 74.9577935,230.660191 74.974042,229.831847 C76.6476337,229.555732 78.2562316,229.149682 79.8323325,228.613694 C77.85002,228.483758 75.8839559,228.370064 73.9016434,228.288854 Z M82.1071173,228.808599 C86.5104508,230.465287 84.4143991,236.003822 85.5030461,239.49586 C86.1692331,236.377389 86.3154693,233.177707 86.4779539,229.994268 C87.5666009,229.718153 89.7276465,229.165924 90.8000451,228.889809 C87.9240671,228.678662 84.9505984,228.240127 82.1071173,228.808599 Z M100.419135,228.5 C101.459037,228.857325 103.522592,229.571975 104.562493,229.913057 C104.692481,233.128981 104.838717,236.344904 105.244929,239.544586 C106.089849,236.474841 106.219837,233.291401 106.39857,230.140446 C107.275987,229.734395 109.047069,228.922293 109.940735,228.5 C106.756036,228.516242 103.587586,228.516242 100.419135,228.5 Z M120.063527,232.073248 C120.632223,233.664968 119.738558,237.351911 121.899603,237.644268 C123.085741,235.061783 123.085741,231.618471 121.737119,229.100955 C119.998533,227.817834 119.689812,231.098726 120.063527,232.073248 Z M126.172949,230.530255 C124.694339,232.398089 125.051805,233.632484 127.245348,234.282166 C128.626467,232.446815 128.269001,231.196178 126.172949,230.530255 Z M130.235065,229.182166 C129.065176,231.748408 129.146418,235.467834 129.698866,238.261465 C132.704831,237.286943 132.899813,230.838854 130.235065,229.182166 Z M134.898374,231.261146 C134.654647,233.778662 138.261806,236.263694 140.211621,234.135987 C140.211621,233.275159 140.195373,231.537261 140.179124,230.676433 C139.659174,230.920064 138.586775,231.391083 138.066824,231.634713 C136.913183,232.219427 135.597058,229.117197 134.898374,231.261146 Z M49.4964518,236.572293 C50.4551112,237.498089 50.4551112,237.498089 49.4964518,236.572293 Z M126.107955,236.539809 C127.099112,237.433121 127.099112,237.433121 126.107955,236.539809 Z M135.304586,235.792675 C135.840785,236.994586 135.840785,236.994586 135.304586,235.792675 Z" id="Shape" fill="#FEFEFE"></path>
                <path d="M115.026504,178.035987 C119.868546,177.792357 126.384179,179.643949 125.604253,185.815924 C126.465422,192.036624 120.502236,195.398726 115.042752,195.285032 C114.912764,189.53535 114.912764,183.785669 115.026504,178.035987 Z" id="Shape" fill="#FEFEFE"></path>
                <path d="M115.026504,198.371019 C119.299849,198.874522 124.970563,199.65414 125.961719,204.786624 C128.8052,211.868153 122.289567,218.868471 115.026504,217.975159 C114.896516,211.44586 114.912764,204.900318 115.026504,198.371019 Z" id="Shape" fill="#FEFEFE"></path>
                <rect id="white" fill="#FFFFFF" x="31" y="227" width="141" height="16"></rect>
            </g>
        </g>
        <path d="M78.2907227,235.849609 L76.9547852,235.041016 C76.1168904,234.531247 75.520705,234.028811 75.166211,233.533691 C74.811717,233.038572 74.6344727,232.468753 74.6344727,231.824219 C74.6344727,230.857417 74.9699186,230.072269 75.6408204,229.46875 C76.3117222,228.865231 77.1832955,228.563477 78.2555665,228.563477 C79.2809622,228.563477 80.2213825,228.850583 81.0768555,229.424805 L81.0768555,231.419922 C80.1920855,230.570308 79.2399466,230.145508 78.2204102,230.145508 C77.6461886,230.145508 77.1745136,230.278807 76.8053712,230.54541 C76.4362287,230.812013 76.2516602,231.153318 76.2516602,231.569336 C76.2516602,231.938478 76.3864245,232.284178 76.6559571,232.606445 C76.9254897,232.928713 77.3620088,233.265623 77.9655274,233.617188 L79.310254,234.408203 C80.8102615,235.298833 81.560254,236.43554 81.560254,237.818359 C81.560254,238.802739 81.2306674,239.602536 80.5714844,240.217773 C79.9123015,240.833011 79.0553764,241.140625 78.0006837,241.140625 C76.787787,241.140625 75.6833058,240.768558 74.6872071,240.024414 L74.6872071,237.791992 C75.6364306,238.99317 76.7350524,239.59375 77.9831055,239.59375 C78.5338895,239.59375 78.9923811,239.439943 79.3585938,239.132324 C79.7248066,238.824705 79.9079102,238.439455 79.9079102,237.976562 C79.9079102,237.226559 79.3688531,236.517581 78.2907227,235.849609 Z M82.8979493,228.704102 L93.1547852,228.704102 L93.1547852,230.268555 L88.8745118,230.268555 L88.8745118,241 L87.1079102,241 L87.1079102,230.268555 L82.8979493,230.268555 L82.8979493,228.704102 Z M95.2834961,228.72168 L97.0413086,228.72168 L97.0413086,241 L95.2834961,241 L95.2834961,228.72168 Z M100.233496,228.72168 L106.781348,228.72168 L106.781348,230.286133 L101.991309,230.286133 L101.991309,233.713867 L106.781348,233.713867 L106.781348,235.27832 L101.991309,235.27832 L101.991309,241 L100.233496,241 L100.233496,228.72168 Z M108.066309,228.704102 L118.323145,228.704102 L118.323145,230.268555 L114.042871,230.268555 L114.042871,241 L112.27627,241 L112.27627,230.268555 L108.066309,230.268555 L108.066309,228.704102 Z M120.434277,228.72168 L127.395215,228.72168 L127.395215,230.286133 L122.19209,230.286133 L122.19209,234.030273 L127.219434,234.030273 L127.219434,235.603516 L122.19209,235.603516 L122.19209,239.417969 L127.562207,239.417969 L127.562207,240.982422 L120.434277,240.982422 L120.434277,228.72168 Z M128.838379,228.704102 L139.095215,228.704102 L139.095215,230.268555 L134.814941,230.268555 L134.814941,241 L133.04834,241 L133.04834,230.268555 L128.838379,230.268555 L128.838379,228.704102 Z M148.94248,228.72168 L150.700293,228.72168 L150.700293,241 L148.94248,241 L148.94248,228.72168 Z M158.120019,241.140625 L157.038965,239.866211 C157.947172,239.291989 158.74111,238.596195 159.420801,237.778809 C160.100492,236.961422 160.554589,236.122075 160.783105,235.260742 C160.226462,235.606447 159.573148,235.779297 158.823144,235.779297 C157.88564,235.779297 157.081449,235.430668 156.410547,234.733398 C155.739645,234.036129 155.404199,233.198247 155.404199,232.219727 C155.404199,231.20019 155.761617,230.335941 156.476465,229.626953 C157.191312,228.917965 158.06435,228.563477 159.095605,228.563477 C160.255767,228.563477 161.204977,228.982418 161.943262,229.820312 C162.681547,230.658207 163.050684,231.733392 163.050684,233.045898 C163.050684,234.534187 162.587798,236.038567 161.662012,237.559082 C160.736226,239.079597 159.555574,240.273433 158.120019,241.140625 Z M161.125879,233.511719 C161.196192,233.042966 161.231348,232.738282 161.231348,232.597656 C161.231348,231.888668 161.033596,231.308596 160.638086,230.857422 C160.242576,230.406248 159.73428,230.180664 159.113184,230.180664 C158.544821,230.180664 158.074611,230.372557 157.702539,230.756348 C157.330467,231.140139 157.144434,231.622067 157.144434,232.202148 C157.144434,232.735354 157.34658,233.195311 157.750879,233.582031 C158.155178,233.968752 158.638571,234.162109 159.201074,234.162109 C159.857327,234.162109 160.498923,233.945315 161.125879,233.511719 Z M165.065137,232.017578 C165.065137,231.056636 165.425485,230.240726 166.146191,229.569824 C166.866898,228.898922 167.748725,228.563477 168.791699,228.563477 C169.817095,228.563477 170.682809,228.895993 171.388867,229.561035 C172.094925,230.226078 172.447949,231.044917 172.447949,232.017578 C172.447949,233.113287 171.938189,234.018551 170.918652,234.733398 C172.055377,235.389652 172.62373,236.356439 172.62373,237.633789 C172.62373,238.647466 172.254593,239.485348 171.516309,240.147461 C170.778024,240.809574 169.846392,241.140625 168.721387,241.140625 C167.6081,241.140625 166.673539,240.802249 165.917676,240.125488 C165.161813,239.448727 164.783887,238.61231 164.783887,237.616211 C164.783887,236.368158 165.363959,235.40723 166.524121,234.733398 C166.002634,234.311521 165.629103,233.891115 165.403516,233.472168 C165.177929,233.053221 165.065137,232.568362 165.065137,232.017578 Z M170.698926,232.070312 C170.698926,231.537107 170.515822,231.097658 170.149609,230.751953 C169.783397,230.406248 169.319046,230.233398 168.756543,230.233398 C168.188181,230.233398 167.722365,230.403319 167.359082,230.743164 C166.995799,231.08301 166.81416,231.519529 166.81416,232.052734 C166.81416,232.562503 167.006053,232.999022 167.389844,233.362305 C167.773635,233.725588 168.235056,233.907227 168.774121,233.907227 C169.307327,233.907227 169.761424,233.727053 170.136426,233.366699 C170.511428,233.006346 170.698926,232.574221 170.698926,232.070312 Z M170.84834,237.704102 L170.84834,237.52832 C170.84834,236.965818 170.647658,236.507326 170.246289,236.152832 C169.84492,235.798338 169.324905,235.621094 168.68623,235.621094 C168.059274,235.621094 167.548049,235.799803 167.152539,236.157227 C166.757029,236.51465 166.559277,236.977536 166.559277,237.545898 C166.559277,238.114261 166.761424,238.577147 167.165723,238.93457 C167.570022,239.291994 168.09443,239.470703 168.738965,239.470703 C169.354202,239.470703 169.859568,239.306642 170.255078,238.978516 C170.650588,238.650389 170.84834,238.225589 170.84834,237.704102 Z M177.29248,228.72168 L179.050293,228.72168 L179.050293,241 L177.29248,241 L177.29248,228.72168 Z" id="STIFTET-1981" fill="#303C80"></path>
    </g>
</svg>