<?xml version="1.0" encoding="UTF-8"?>
<svg width="256px" height="256px" viewBox="0 0 256 256" version="1.1" xmlns="http://www.w3.org/2000/svg" xmlns:xlink="http://www.w3.org/1999/xlink">
    <!-- Generator: Sketch 51.3 (57544) - http://www.bohemiancoding.com/sketch -->
    <title>logo/ksi</title>
    <desc>Created with Sketch.</desc>
    <defs></defs>
    <g id="logo/ksi" stroke="none" stroke-width="1" fill="none" fill-rule="evenodd">
        <g id="ksi" transform="translate(0.000000, 78.000000)" fill="#FFED00" fill-rule="nonzero">
            <g id="#48185aff" transform="translate(27.428571, 0.000000)">
                <path d="M78.290989,0.35915493 C82.5951648,8.92253521 85.5349451,18.5915493 84.276044,28.2676056 C83.4250549,35.4014085 79.7046154,42.3591549 73.6,46.3239437 C67.2210989,50.6408451 59.1191209,51.3732394 51.6641758,50.3239437 C41.2342857,48.7323944 31.5358242,43.7535211 23.3986813,37.1267606 C12.7507692,28.471831 4.18461538,16.8028169 0.471208791,3.47183099 C5.28879121,12.1830986 11.9068132,19.943662 20.1775824,25.528169 C29.2430769,31.7816901 40.2004396,35.7957746 51.3125275,35.2887324 C60.2795604,34.9084507 69.4294505,30.7042254 74.3173626,22.943662 C78.72,16.3380282 79.4373626,8.03521127 78.290989,0.35915493 Z" id="Shape"></path>
                <path d="M48.0703297,13.0492958 C51.9665934,11.6197183 57.3749451,13.1971831 58.4158242,17.6197183 C60.2936264,25.4295775 51.1367033,32.943662 43.7802198,30.1126761 C40.7841758,29.028169 39.1384615,25.5985915 39.6518681,22.5422535 C40.2356044,18.056338 43.8505495,14.3732394 48.0703297,13.0492958 Z" id="Shape"></path>
            </g>
            <g id="#000000ff" transform="translate(109.010989, 6.338028)">
                <path d="M71.5885714,7.67605634 C77.0320879,2.52816901 84.7894505,0.556338028 92.1248352,0.676056338 C98.123956,0.528169014 104.481758,1.50704225 109.411868,5.15492958 C111.634286,6.76056338 113.244835,9.23943662 113.448791,12.0070423 C113.976264,17.1971831 112.879121,22.3732394 112,27.4647887 C105.227253,27.4647887 98.4615385,27.4788732 91.6887912,27.4507042 C92.1810989,23.9647887 93.229011,20.5140845 93.1516484,16.9647887 C93.2079121,14.6338028 90.0782418,14.5070423 88.5872527,15.443662 C85.7881319,17.5704225 85.4716484,21.4929577 85.2887912,24.7394366 C85.0567033,27.7183099 87.4830769,29.8591549 89.6562637,31.4577465 C95.0786813,35.2605634 100.775385,38.9295775 105.051429,44.0774648 C107.941978,47.443662 108.392088,52.1056338 108.216264,56.3661972 C107.977143,61.2605634 107.154286,66.1338028 105.839121,70.8521127 C104.69978,74.7957746 102.772747,78.7183099 99.3898901,81.1971831 C91.5903297,87.0985915 81.1534066,88.3943662 71.7292308,86.7253521 C65.8778022,85.556338 59.4356044,82.0492958 58.1485714,75.7183099 C57.1076923,68.9929577 58.6057143,62.2394366 59.7591209,55.6338028 C66.5318681,55.6338028 73.2975824,55.6338028 80.0632967,55.6338028 C79.352967,60.5352113 78.0307692,65.3732394 77.7986813,70.3309859 C77.5243956,72.0704225 79.2263736,73.4295775 80.8791209,73.0985915 C84.4096703,73.0633803 85.7178022,69.0704225 86.2101099,66.1830986 C86.6391209,62.8028169 87.6378022,58.5140845 84.7613187,55.9014085 C79.4725275,50.8239437 73.0443956,47.084507 67.832967,41.9084507 C63.8171429,37.4084507 63.5076923,30.8591549 64.4641758,25.1830986 C65.5331868,18.9788732 66.9186813,12.2535211 71.5885714,7.67605634 Z" id="Shape"></path>
                <path d="M14.7832967,2.11267606 C22.0061538,2.11267606 29.236044,2.1056338 36.4589011,2.11267606 C34.6514286,12.6971831 32.6821978,23.2464789 30.9450549,33.8450704 C36.0720879,23.2323944 41.3257143,12.6901408 46.509011,2.11267606 C53.1903297,2.11267606 59.8646154,2.1056338 66.5459341,2.11267606 C61.0391209,13.1549296 55.4408791,24.1549296 49.8567033,35.1549296 C48.9986813,37.2042254 47.2756044,39.1478873 47.6061538,41.5 C49.3784615,56.3028169 51.192967,71.1056338 52.9582418,85.915493 C45.6158242,85.915493 38.2804396,85.915493 30.938022,85.915493 C29.869011,74.3098592 29.003956,62.6901408 27.8997802,51.084507 C25.7547253,62.6760563 23.7854945,74.3028169 21.7248352,85.915493 C14.4879121,85.9084507 7.24395604,85.9295775 0.00703296703,85.9014085 C4.97230769,57.9788732 9.85318681,30.0422535 14.7832967,2.11267606 Z" id="Shape"></path>
                <path d="M124.490549,2.11267606 C131.776703,2.11267606 139.062857,2.11267606 146.349011,2.11267606 C141.461099,30.0492958 136.495824,57.971831 131.614945,85.915493 C124.307692,85.915493 117.007473,85.915493 109.707253,85.915493 C114.672527,57.9859155 119.525275,30.0422535 124.490549,2.11267606 Z" id="Shape"></path>
            </g>
            <g id="#ffed00ff" transform="translate(0.000000, 43.661972)">
                <path d="M31.1630769,2.8943662 C39.2720879,0.0563380282 48.429011,-1.11267606 56.6716484,1.85915493 C62.3261538,3.85211268 67.1507692,8.29577465 69.2043956,13.9859155 C71.7714286,21.0211268 70.8149451,28.8873239 68.1775824,35.7605634 C65.2026374,43.584507 60.1881319,50.5422535 54.196044,56.3380282 C58.0993407,49.3169014 60.8562637,41.3098592 59.9982418,33.1830986 C59.3793407,26.5774648 56.0527473,20.1478873 50.6092308,16.2676056 C43.9841758,11.4859155 35.2632967,10.3943662 27.3793407,11.9577465 C17.1041758,13.8169014 7.86285714,19.4507042 0.393846154,26.6126761 C7.84879121,15.7746479 18.8272527,7.41549296 31.1630769,2.8943662 Z" id="Shape"></path>
            </g>
        </g>
    </g>
</svg>