<?xml version="1.0" encoding="UTF-8"?>
<svg width="256px" height="256px" viewBox="0 0 256 256" version="1.1" xmlns="http://www.w3.org/2000/svg" xmlns:xlink="http://www.w3.org/1999/xlink">
    <!-- Generator: Sketch 51.3 (57544) - http://www.bohemiancoding.com/sketch -->
    <title>logo/levanger</title>
    <desc>Created with Sketch.</desc>
    <defs></defs>
    <g id="logo/levanger" stroke="none" stroke-width="1" fill="none" fill-rule="evenodd">
        <g id="levanger" transform="translate(24.000000, 0.000000)" fill-rule="nonzero">
            <g id="#ff5700ff" fill="#FF5700">
                <path d="M84.1466884,0.627284768 C85.439478,0.0678145695 86.8612072,0.318728477 88.2184666,0.342463576 C90.0914845,0.366198675 91.7269821,1.42749669 93.141925,2.55321854 C93.9494943,3.18050331 94.6145514,4.096 95.6732137,4.30283444 C96.982969,3.6077351 98.0619902,2.36672848 99.6228385,2.22431788 C100.827406,2.17345695 101.702838,1.16980132 102.876868,1.02739073 C104.281631,0.976529801 105.828907,0.969748344 106.958825,1.94627815 C108.696117,2.89568212 109.62584,4.86569536 111.53279,5.56418543 C112.659315,4.48593377 113.544927,3.08895364 114.973442,2.36672848 C116.917716,1.64789404 118.855204,0.901933775 120.857162,0.359417219 C122.29925,0.135629139 123.802414,0.281430464 125.207178,0.654410596 C126.252268,0.918887417 126.306558,2.1666755 126.398173,3.04148344 C126.594976,4.89282119 125.624535,6.54071523 125.057879,8.23268874 C127.114127,8.7752053 129.228059,8.26659603 131.311452,8.30050331 C133.920783,8.31406623 136.645481,8.13774834 139.102121,9.18887417 C141.378923,10.0297748 143.387667,11.4098013 145.437129,12.6813245 C146.546688,13.3662517 147.045481,14.6784636 148.131289,15.3837351 C152.002871,18.0115497 155.392626,21.2496954 159.00633,24.2030199 C161.089723,26.0984371 163.682088,27.5700132 166.545905,27.759894 C168.05925,27.6344371 168.78199,26.149298 169.877977,25.3287417 C170.597325,25.1320795 171.350604,25.288053 172.086917,25.3050066 C172.561958,26.6918146 172.762153,28.234596 172.066558,29.5908874 C171.126656,31.5303841 169.949233,33.8598146 167.587602,34.2531391 C165.466884,34.5854305 163.305449,34.3582517 161.164372,34.4125033 C159.172594,34.4769272 157.269038,33.3003444 155.284046,33.7852185 C156.624339,37.6845563 158.656835,41.360106 159.49155,45.4289801 C160.078564,48.053404 160.780946,50.7863311 162.491093,52.9292715 C164.248744,55.0518675 166.912365,56.2047152 169.582773,56.6421192 C170.74323,56.906596 172.171746,57.0252715 172.75876,58.2357616 C173.274519,59.8226225 173.132007,61.7349934 171.968157,63.0099073 C170.804307,64.3289007 168.938075,64.6137219 167.289005,64.8544636 C164.679674,65.0579073 162.049984,64.9595762 159.461011,64.6001589 C158.463426,64.4814834 158.008744,65.5665166 158.195367,66.3938543 C159.175987,70.8865695 161.038825,75.2775629 164.272496,78.6208212 C165.124176,79.5736159 166.213377,80.2992318 166.976835,81.3300132 C168.201762,83.0423311 166.993801,85.4124503 168.320522,87.0942517 C170.403915,90.0407947 172.100489,93.2348609 174.200848,96.1644503 C175.103426,97.3885033 175.50721,98.8872053 176.328352,100.148556 C178.221729,101.131868 180.518891,101.321748 182.150995,102.793325 C183.263948,103.641007 183.878108,104.929483 184.831582,105.919576 C186.616378,107.306384 189.147667,106.607894 191.027471,107.821775 C192.46956,108.482967 193.219445,109.944371 194.430799,110.883603 C196.079869,112.189033 198.655269,111.666861 199.995563,113.450384 C201.213703,115.118623 201.69553,117.244609 203.137618,118.773828 C204.983491,120.709934 207.13814,122.710464 207.603002,125.477298 C207.735334,127.616848 207.711582,129.776742 207.453703,131.90951 C207.219576,133.676079 207.494421,135.513854 206.89044,137.226172 C206.279674,139.430146 204.053768,140.742358 203.517651,142.980238 C203.16137,144.448424 203.049396,145.964079 202.934029,147.466172 C202.876346,151.002702 202.221468,154.488371 201.892333,158.001166 C200.168613,171.218225 196.246134,184.265748 189.466623,195.794225 C185.856313,201.907709 181.2077,207.346437 176.172268,212.327417 C168.174617,220.410914 159.013116,227.250013 149.529266,233.492344 C146.611158,235.184318 143.815204,237.079735 140.961566,238.880212 C140.374551,239.327788 139.604307,239.175205 138.922284,239.232848 C139.098728,224.144106 138.959608,209.041801 139.003719,193.946278 C139.007113,168.512424 139.000326,143.07857 139.007113,117.648106 C139.007113,116.59698 138.867993,115.559417 138.718695,114.525245 C136.655661,114.616795 134.558695,114.647311 132.543165,115.138967 C131.542186,115.29155 131.52522,116.471523 131.15876,117.210702 C130.7923,118.50596 129.604698,119.255311 128.634258,120.075868 C126.703556,121.784795 124.026362,122.022146 121.627406,122.615523 C118.091746,123.432689 114.447504,123.059709 110.860946,123.317404 C108.59093,123.429298 106.419315,122.588397 104.169657,122.45955 C102.344144,122.517192 100.596672,123.225854 98.7609788,123.202119 C94.743491,123.15804 90.675106,123.442861 86.7186949,122.574834 C83.4646656,121.852609 80.1631321,121.076132 77.2076998,119.485881 C75.6230995,118.658543 75.2736052,116.719046 74.0215334,115.579762 C71.9143883,114.786331 69.6240131,114.654093 67.4116803,114.31502 C67.0112887,116.881801 67.1504078,119.479099 67.1334421,122.066225 C67.1334421,158.909881 67.1334421,195.756927 67.1334421,232.600583 C67.1300489,234.40445 67.452398,236.221881 67.0723654,238.008795 C66.4819576,237.900291 65.8610114,237.825695 65.3384666,237.510358 C53.6863948,230.237245 42.1598695,222.516556 32.4486786,212.720742 C28.6788907,209.007894 24.9158891,205.213669 22.0520718,200.731126 C18.1363785,194.631205 14.6617945,188.202384 12.2560522,181.349722 C10.0097879,175.361695 8.55752039,169.122755 7.28508972,162.870252 C6.65735726,158.774252 6.15856444,154.654517 5.80228385,150.524609 C5.73442088,148.24943 5.51047308,145.943735 4.78773246,143.77706 C4.02427406,141.535788 1.91712887,140.081166 1.16045677,137.839894 C0.0542903752,134.032106 0.359673736,130.037828 0.34949429,126.121536 C0.356280587,124.717775 1.23171289,123.507285 2.35484502,122.744371 C3.82068515,121.737325 5.16097879,120.509881 6.14838499,119.031523 C7.35973899,116.237563 9.04613377,113.063841 12.2696248,112.297536 C14.1188907,111.307444 15.2488091,109.354384 16.9793148,108.187974 C18.0820881,107.777695 19.2425449,107.530172 20.3554976,107.140238 C22.2590538,106.523126 23.6027406,104.939656 25.32646,104.010596 C26.6837194,103.56302 27.9256117,102.837404 28.9537357,101.843921 C31.0065905,100.674119 32.4249266,98.7312318 33.8704078,96.9205828 C35.0071126,95.7338278 35.9130832,94.3605828 36.6969005,92.9263046 C37.7453834,90.9766358 39.0144209,89.162596 40.2189886,87.3078675 C40.5447308,86.7246623 41.2165742,86.4974834 41.7391191,86.1312848 C40.8161827,85.3480265 39.1230016,84.6597086 39.5675041,83.1576159 C41.074062,81.3198411 42.9470799,79.7770596 44.2364763,77.7561854 C44.6097227,77.1051656 45.1967374,76.6304636 45.7158891,76.1116821 C46.2893312,74.7384371 45.5224796,73.0973245 46.4589886,71.8461457 C47.5956933,70.1168742 48.1928874,68.1027815 48.5050571,66.0751258 C48.593279,65.5054834 48.1318108,65.0409536 47.9214356,64.5526887 C44.2161175,64.8205563 40.3547145,65.4681854 36.7274388,64.3289007 C35.4855465,64 34.2911582,63.0370331 34.0739967,61.7214305 C34.033279,60.3346225 34.1181077,58.605351 35.4651876,57.8288742 C37.1380098,57.2660132 39.0008483,57.6796821 40.6227732,56.8930331 C42.2345188,56.3810331 43.221925,54.9535364 44.3009462,53.7566093 C46.0687765,51.6645298 46.8967047,48.9689007 47.2495922,46.2936159 C47.4905057,41.8280265 50.5545188,38.1728212 51.3451223,33.8428609 C49.0208157,33.3986755 46.7847308,34.5583046 44.457031,34.4226755 C42.4822186,34.3243444 40.4293638,34.690543 38.5224144,34.0429139 C36.3440131,33.0494305 35.1360522,30.7471258 34.4506362,28.5668874 C34.1350734,27.7463311 34.467602,26.8952583 34.6169005,26.0780927 C35.3939315,25.9356821 36.1641762,25.762755 36.9310277,25.5660927 C37.7793148,26.7019868 38.9872757,27.5394967 40.3988254,27.7836291 C42.2480914,27.6412185 43.9005546,26.7460662 45.3562153,25.6576424 C48.1996737,24.4166358 50.3441436,22.0804238 52.4173573,19.8459338 C54.5957586,18.0251126 56.9336378,16.4111258 59.291876,14.8344371 C60.7475367,13.9630199 61.9046003,12.6677616 63.3941925,11.8472053 C64.5750082,11.1826225 65.6811746,10.3552848 67.0045024,9.98908609 C69.0132463,9.33806623 70.7980424,7.41213245 73.051093,7.96821192 C74.0079608,8.21912583 74.9851876,8.01229139 75.9556281,8.00550993 C77.8320392,8.48699338 79.7966721,8.36153642 81.7002284,8.13096689 C81.1030343,6.40508609 79.8272104,4.54018543 80.7705057,2.69223841 C81.3100163,1.29186755 82.8946166,1.03756291 84.1466884,0.627284768 Z M87.8893312,4.54018543 C88.1913214,5.41499338 88.5442088,6.26945695 88.9547798,7.10018543 C90.0473736,9.33806623 90.5631321,11.938755 89.8777162,14.3800795 C87.0240783,14.6242119 84.3842088,13.3187815 81.6052202,12.962755 C78.8635563,12.4473642 76.0642088,12.4541457 73.2920065,12.5796026 C71.7006199,12.8542517 70.1804894,13.4442384 68.6908972,14.0511788 C66.3156933,14.9904106 64.5919739,16.9468609 62.674845,18.5472848 C60.3098206,20.8563709 57.5851223,22.7416159 55.0232953,24.8167417 C52.7227406,26.4375099 50.3950408,28.0141987 48.1793148,29.7502517 C52.4953997,29.8045033 56.1498206,27.2512848 59.5599347,24.9286358 C62.6680587,22.4398411 65.8440457,20.005298 69.3118434,18.0386755 C71.2493312,16.9299073 73.4650571,16.3026225 75.7011419,16.3229669 C77.9168679,16.4925033 80.0138336,17.296106 82.1345514,17.9132185 C84.4893964,18.5778013 86.4438499,20.1273642 88.6561827,21.1242384 C87.6178793,18.506596 84.8524633,17.3469669 82.4297553,16.346702 C82.4636868,15.872 82.5010114,15.3939073 82.5417292,14.9192053 C84.8762153,14.8513907 87.1835563,15.4074702 89.3857096,16.1364768 C92.7279608,17.3028874 95.4390865,19.6289272 98.0619902,21.9244503 C98.1061011,20.1510993 97.9296574,18.3404503 98.3877325,16.6043974 C98.9306362,14.2715762 100.138597,12.1693245 101.455139,10.1959205 C101.757129,10.1925298 102.357716,10.1925298 102.659706,10.1891391 C102.761501,12.3693775 101.903034,14.461457 102.113409,16.6450861 C102.059119,18.557457 103.026166,20.242649 103.921958,21.8566358 C105.180816,19.7984636 105.957847,17.3876556 105.869625,14.9632848 C105.703361,13.5052715 105.272431,12.0777748 105.357259,10.5960265 C105.84248,10.6672318 106.324307,10.7418278 106.809527,10.8198146 C109.361175,13.9087682 110.046591,18.0793642 109.741207,21.9753113 C112.180881,19.893404 114.661272,17.7436821 117.684568,16.546755 C120.137814,15.5770066 122.760718,14.7598411 125.427732,14.959894 C125.475237,15.3735629 125.522741,15.7906225 125.570245,16.2042914 C123.130571,17.3028874 120.395693,18.5303311 119.258989,21.1411921 C123.286656,18.7948079 127.643458,16.7535894 132.339576,16.2924503 C136.469038,16.2924503 139.913083,18.8151523 143.187471,21.029298 C145.376052,22.4296689 147.276215,24.2233642 149.488548,25.5898278 C152.38969,27.6683444 155.694617,29.9842119 159.457618,29.5196821 C158.270016,28.5295894 156.939902,27.7327682 155.691223,26.8308344 C153.624796,25.4101192 151.738206,23.7622252 149.678564,22.3347285 C146.044502,19.6628344 143.180685,15.9499868 139.051223,13.9765828 C136.18062,12.3693775 132.777292,12.5219603 129.597912,12.525351 C125.600783,12.4202384 121.936183,14.6988079 117.925481,14.3970331 C117.243458,10.9656159 118.695726,7.63592053 120.093703,4.5842649 C117.939054,5.10304636 115.974421,6.3101457 114.688418,8.13096689 C113.134356,9.96535099 113.083458,12.488053 112.024796,14.5665695 C111.753344,14.5631788 111.207047,14.5631788 110.935595,14.5597881 C109.995693,12.4202384 109.201697,10.1620132 107.681566,8.34458278 C106.68398,7.2392053 105.638891,5.99819868 104.169657,5.54723179 C102.649527,5.86256954 101.444959,7.01541722 100.416835,8.11740397 C98.6252529,10.0636821 98.0619902,12.725404 96.7183034,14.9429404 C96.297553,14.6920265 95.6833931,14.5835232 95.5612398,14.0274437 C94.7842088,11.8438146 94.444894,9.37197351 92.8535073,7.57827815 C91.4928548,6.16434437 89.7419902,5.1674702 87.8893312,4.54018543 Z M72.0263622,23.1112053 C70.4587276,23.901245 68.3990865,24.4539338 67.6899184,26.2408477 C67.0214682,27.997245 67.0995106,29.933351 67.2386297,31.7779073 C67.6763458,35.3076556 71.0321697,37.8167947 74.3981729,38.2779338 C74.1131485,36.7249801 73.6075693,35.2296689 73.2071778,33.7038411 C72.2638825,33.8326887 71.3104078,33.8835497 70.3671126,33.7580927 C70.4926591,33.0155232 70.2279935,32.0864636 70.8557259,31.5202119 C71.6904405,30.5233377 72.6710604,29.6620927 73.7399021,28.9195232 C73.118956,28.7025166 72.5014029,28.4753377 71.8906362,28.2379868 C71.9279608,27.9633377 71.999217,27.4140397 72.0365416,27.1393907 C73.2987928,26.6036556 74.605155,26.0407947 76.0065253,26.0984371 C77.4791517,26.000106 78.880522,26.5460132 80.3293964,26.6748609 C81.2455465,26.2476291 81.8698858,25.4169007 82.4976183,24.6573775 C79.3759217,22.8331656 75.5314845,22.0804238 72.0263622,23.1112053 Z M125.363263,24.6472053 C125.980816,25.4711523 126.683197,26.2849272 127.646852,26.7019868 C128.556215,26.6579073 129.418075,26.3188344 130.317259,26.1933775 C132.210636,25.9085563 134.120979,26.3798675 135.87863,27.0715762 C135.875237,27.5259338 135.871843,27.9836821 135.871843,28.4380397 C135.257684,28.6007947 134.643524,28.7601589 134.032757,28.9127417 C135.766656,30.0927152 137.924698,31.5744636 137.836476,33.9276291 C136.747276,33.9208477 135.658075,33.8394702 134.599413,33.5885563 C134.22956,35.1415099 133.720587,36.6707285 133.60522,38.274543 C136.41814,37.9795497 138.837455,36.0298808 140.153997,33.591947 C141.032822,31.9542252 140.937814,30.007947 140.676542,28.2278146 C140.411876,26.9088212 140.269364,25.3016159 138.942643,24.5929536 C134.96248,21.6904901 129.465579,22.3584636 125.363263,24.6472053 Z M80.1020555,33.9310199 C78.1577814,36.2672318 76.7564111,39.0917086 76.2644046,42.0992848 C76.4646003,44.232053 77.0991191,46.3003974 77.9915171,48.239894 C78.8873083,50.5455894 76.844633,52.6851391 77.3196737,55.0043974 C77.7200653,57.7915762 79.9527569,59.9379073 82.422969,61.0670199 C84.1263295,61.9214834 86.0943556,61.6095364 87.885938,62.1384901 C88.2863295,63.7321325 88.2116803,65.4783576 89.1074715,66.9160265 C90.0236215,68.3570861 91.5267863,69.6048742 93.2946166,69.6896424 C94.902969,69.6286093 96.4230995,69.0013245 98.0246656,68.8623046 C99.2869168,68.6554702 100.644176,68.7775364 101.808026,68.1739868 C102.300033,67.9535894 102.490049,67.3636026 102.442545,66.8651656 C102.154127,66.0819073 101.492463,65.536 100.922414,64.9629669 C98.903491,63.0200795 96.9965416,60.965298 94.9233279,59.080053 C94.3430995,58.5748344 93.9732463,57.8899073 93.6067863,57.2287152 C95.5408809,55.9741457 97.8448287,55.3570331 100.138597,55.296 C101.760522,55.2146225 103.317977,56.0487417 104.950082,55.7503576 C107.569592,55.2485298 110.562349,55.184106 112.866297,56.720106 C113.738336,57.1948079 114.030147,58.5477086 113.209005,59.2055099 C110.765938,61.7621192 107.878369,63.8643709 105.492985,66.4684503 C104.909364,66.9499338 105.479413,67.7230199 105.913736,68.0926093 C107.671387,69.320053 109.931223,69.0386225 111.933181,69.4997616 C113.147928,69.6387815 114.403393,70.3576159 115.611354,69.8049272 C116.720914,69.3234437 118.030669,68.8012715 118.481958,67.5704371 C119.326852,65.922543 119.560979,64.0678146 120.083524,62.3114172 C121.647765,62.026596 123.279869,62.1317086 124.796607,61.6061457 C127.083589,60.8805298 128.851419,58.9783311 129.777749,56.8150464 C130.751582,54.0922914 129.550408,51.2779868 129.838825,48.5111523 C130.205285,47.2972715 130.866949,46.1749404 131.053573,44.9034172 C131.779706,41.946702 130.955171,38.874702 129.689527,36.189245 C128.546036,34.1548079 126.890179,32.4458808 125.078238,30.9912583 C123.592039,29.9604768 122.180489,28.7126887 120.388907,28.2481589 C118.25801,27.5666225 115.974421,27.1529536 113.758695,27.6446093 C112.143556,28.0548874 110.494486,28.4448212 109.018467,29.2416424 C107.752822,29.8384106 106.643263,30.8658013 105.187602,30.9675232 C103.501207,31.120106 101.665514,31.0522914 100.209853,30.0859338 C98.9068842,29.2755497 97.5224796,28.6007947 96.0634258,28.1125298 C93.7968026,27.2343311 91.3028385,27.3665695 88.9276346,27.5632318 C85.3308972,28.5126358 82.3754649,31.069245 80.1020555,33.9310199 Z M60.1571289,30.6148874 C58.7116476,32.1169801 57.7344209,34.0259603 57.0625775,35.9858013 C55.315106,40.573457 54.8163132,45.6019073 52.342708,49.9115232 C51.0838499,53.136106 48.5593475,55.6520265 45.7871452,57.6288212 C44.1957586,58.8020132 42.2413051,59.2156821 40.4327569,59.9243444 C41.7357259,60.4024371 43.0590538,60.9347815 44.457031,61.0432848 C46.7100816,60.9415629 48.6272104,59.4157351 49.8182055,57.5847417 C51.7760522,54.621245 53.3470799,51.4203974 55.199739,48.3958675 C57.6326264,44.6796291 61.6976183,42.5536424 65.5895595,40.6887417 C64.9041436,39.4070464 64.1101468,38.1117881 64.0388907,36.6164768 C63.770832,34.6871523 65.0534421,33.0460397 65.3113214,31.2082649 C65.2095269,30.1944371 65.1688091,29.0415894 64.4766069,28.2278146 C62.8682545,28.6482649 61.4363458,29.5773245 60.1571289,30.6148874 Z M142.871909,28.3125828 C142.498662,30.2385166 142.525808,32.2661722 143.408026,34.0530861 C144.43615,36.3011391 143.601436,38.7967152 142.250962,40.6989139 C144.561697,41.7907285 146.899576,42.8893245 148.945644,44.4422781 C151.548189,46.5309669 153.394062,49.3690066 155.026166,52.2443444 C155.928744,53.9193642 156.753279,55.6554172 157.930701,57.1642914 C158.952039,58.5002384 159.993736,59.9752053 161.608874,60.6330066 C163.526003,61.4366093 165.701011,60.8059338 167.448483,59.866702 C165.762088,59.1749934 163.936574,58.7782781 162.392692,57.7746225 C158.765416,55.5062252 156.020359,51.9052715 154.635954,47.8669139 C152.545775,43.045298 151.979119,37.6743841 149.478369,33.0155232 C148.260228,30.4690861 145.667863,28.6516556 142.871909,28.3125828 Z M61.5279608,53.3429404 C57.2084829,57.9238146 54.7145188,63.8914967 52.9806199,69.8625695 C52.0576835,72.8498013 51.6980098,76.0811656 50.0082219,78.7801854 C49.0581403,80.4925033 47.5447961,81.7504636 45.94323,82.8253245 C48.8477651,83.3712318 52.3359217,81.8860927 53.1129527,78.848 C54.1444698,74.4976954 54.3514519,69.9473377 55.908907,65.7258808 C56.7877325,63.5965033 58.0635563,61.6129272 59.7397716,60.0260662 C60.1876672,59.5784901 60.8595106,59.5615364 61.439739,59.4055629 C61.3752692,60.2701987 61.5415334,61.2331656 60.9884502,61.9825166 C58.3010767,66.210755 57.5172594,71.2832848 56.9573899,76.1727152 C56.9302447,78.6038675 57.1440131,81.0519735 56.7877325,83.4729536 C56.8997064,85.704053 56.5502121,87.9148079 56.2380424,90.1153907 C55.841044,92.3566623 54.8638173,94.4487417 53.7338989,96.4051921 C52.868646,97.8733775 51.589429,99.0194437 50.46969,100.280795 C51.45031,100.229934 52.4614682,100.179073 53.3640457,99.7450596 C55.6272757,98.7176689 57.0015008,96.4763974 58.0873083,94.3470199 C59.2884829,92.0141987 59.3393801,89.3558675 59.634584,86.8094305 C59.8585318,84.7071788 59.6142251,82.5845828 59.8110277,80.4789404 C59.9433605,79.197245 59.9026427,77.9121589 59.9026427,76.6270728 C59.95354,72.2394702 60.662708,67.8654305 61.989429,63.6846623 C63.862447,58.4595497 66.2817618,53.4344901 69.3355954,48.7959735 C66.3564111,49.5046358 63.7538662,51.2983311 61.5279608,53.3429404 Z M138.674584,48.7858013 C143.292659,56.3505166 147.218532,64.6578013 147.907341,73.6127152 C148.402741,78.1122119 147.717325,82.6659603 148.402741,87.151894 C148.433279,90.4646358 149.247635,93.7977219 151.035824,96.6120265 C152.532202,98.6871523 154.822577,100.786013 157.604959,100.196026 C153.512822,97.0155232 151.568548,91.8310993 151.246199,86.7890861 C150.917064,83.8594967 151.0969,80.9129536 150.862773,77.9799735 C150.934029,72.6836556 149.838042,67.3330861 147.333899,62.6437086 C146.909755,61.9282649 146.933507,61.0839735 146.869038,60.2871523 C147.534095,60.416 148.362023,60.2464636 148.867602,60.802543 C150.971354,62.8335894 152.118238,65.6411126 152.800261,68.4350728 C153.679086,71.0221987 153.777488,73.7720795 154.320392,76.4304106 C154.642741,77.9596291 154.724176,79.7058543 155.915171,80.8620927 C157.462447,82.5506755 159.92248,83.2118675 162.144992,82.7880265 C160.787732,81.7843709 159.29814,80.8756556 158.354845,79.434596 C156.417357,76.8339073 156.027145,73.5347285 155.015987,70.5373245 C153.448352,64.6272848 151.141011,58.7511523 147.109951,54.0617748 C144.717781,51.7289536 141.942186,49.6843444 138.674584,48.7858013 Z M68.1581729,71.5002914 C67.2420228,73.8771921 67.1843393,76.4473642 66.8009135,78.9361589 C65.8406525,85.5684238 66.6821533,92.2888477 66.125677,98.9448477 C66.0204894,100.697854 65.4368679,102.362702 65.0025449,104.051285 C66.6651876,102.505113 66.6244698,100.107868 66.7092985,98.0157881 C67.1334421,92.1939073 66.4615987,86.3211656 67.3404241,80.5298013 C67.8290375,78.2885298 67.8426101,75.938755 68.7248287,73.7958146 C69.417031,72.1241854 69.9938662,70.4016954 70.8557259,68.8046623 C71.7379445,66.960106 73.0035889,65.3495099 74.0520718,63.6032848 C71.0932463,65.2647417 69.1014682,68.296053 68.1581729,71.5002914 Z M133.846134,63.6304106 C134.935334,65.5597351 136.438499,67.2313642 137.371615,69.2556291 C138.742447,71.6935629 139.343034,74.4468344 140.001305,77.1390728 C140.798695,80.1771656 140.774943,83.344106 140.910669,86.4601854 C140.751191,88.0707815 140.83602,89.6847682 141.087113,91.2851921 C141.263556,94.5741987 140.9446,97.8937219 141.426427,101.169166 C141.609657,102.244026 142.166134,103.210384 142.909233,103.993642 C142.332398,101.803232 141.748777,99.5958675 141.6877,97.317298 C141.619837,91.4343841 141.884502,85.5379073 141.277129,79.6787285 C141.00907,77.4171126 140.493312,75.1995762 140.075954,72.9650861 C139.434649,69.1878146 137.201958,65.5631258 133.846134,63.6304106 Z M88.0657749,69.7167682 C88.2829364,70.3406623 88.3134747,71.130702 88.9038825,71.5477616 C89.758956,72.1818278 90.8210114,72.4191788 91.7880587,72.8260662 C92.1680914,75.3521589 91.3910604,77.9189404 91.9645024,80.4348609 C92.3920392,82.2895894 92.3750734,84.2155232 92.0323654,86.0838146 C93.2674715,85.3344636 93.9732463,83.7170861 95.5476672,83.6289272 C96.1448613,86.6568477 94.9844046,89.5593113 94.0478956,92.3770066 C95.7885808,91.6276556 97.4105057,90.4103841 98.1400326,88.6065166 C99.0120718,87.1552848 98.9984992,85.4022781 99.7178467,83.9001854 C99.8875041,83.9103576 100.230212,83.930702 100.399869,83.9408742 C101.173507,85.2056159 100.942773,86.7924768 101.478891,88.1555497 C102.164307,90.0509669 102.021794,92.0989669 101.628189,94.0418543 C102.439152,93.5535894 103.158499,92.7533775 104.159478,92.7126887 C104.804176,93.0178543 105.333507,93.5095099 105.889984,93.9469139 C105.272431,90.7664106 106.734878,87.7690066 107.274388,84.7003974 C107.535661,84.6698808 108.058206,84.605457 108.319478,84.5749404 C109.283132,86.5110464 109.75478,88.6912848 111.03739,90.4578543 C111.712626,91.4377748 112.788254,92.0108079 113.799413,92.5804503 C112.788254,89.9831523 111.875498,87.1925828 112.336966,84.3714967 C112.608418,84.3308079 113.154715,84.2528212 113.426166,84.2121325 C114.223556,84.9513113 115.058271,85.6565828 115.998173,86.2126623 C115.757259,85.0971126 115.404372,83.9849536 115.424731,82.8354967 C115.519739,81.6521325 115.835302,80.5026755 115.9846,79.3260927 C116.24248,77.2068874 115.781011,75.0300397 116.323915,72.9447417 C117.073801,72.1038411 118.468385,72.2089536 119.282741,71.4290861 C119.533834,71.0323709 119.706884,70.5983576 119.910473,70.1779073 C118.308907,71.1205298 116.59876,71.9003974 114.746101,72.1716556 C114.209984,73.4397881 113.477064,74.6028079 112.68646,75.7217483 C113.626362,77.8714702 114.026754,80.1975099 114.220163,82.5235497 C112.472692,82.9406093 110.701468,82.5676291 108.94721,82.4184371 C105.733899,82.3472318 102.517194,82.0149404 99.3038825,82.3031523 C97.2476346,82.4930331 95.1506688,82.3913113 93.1487113,81.8691391 C93.5966069,80.8383576 94.1904078,79.8414834 94.2616639,78.6920265 C94.3159543,77.5086623 94.9572594,76.4948344 95.2388907,75.375894 C94.3227406,73.8805828 93.5185644,72.1309669 91.9000326,71.2663311 C90.7158238,70.544106 89.3958891,70.0829669 88.0657749,69.7167682 Z M78.6565742,74.1925298 C77.9304405,75.2470464 77.9168679,76.5728212 77.485938,77.7460132 C76.8480261,79.5770066 76.5663948,81.5063311 76.5121044,83.4390464 C76.4849592,85.466702 76.1015334,87.4706225 76.1524307,89.5016689 C76.0743883,93.4993377 75.772398,97.7784371 73.4277325,101.175947 C72.4199674,102.528848 71.3714845,103.858013 70.2449592,105.115974 C69.050571,106.479046 67.4897227,107.42845 66.0849592,108.547391 C69.3593475,107.557298 72.4063948,105.651709 74.4049592,102.840795 C76.4544209,100.453722 77.6284502,97.5003974 79.3385971,94.8861457 C79.5964763,94.9370066 80.1156281,95.031947 80.3735073,95.0828079 C80.4888744,97.0528212 80.2988581,99.0262252 80.0070473,100.975894 C79.657553,103.149351 78.2018923,104.905748 77.4452202,106.936795 C78.5887113,105.427921 79.793279,103.939391 80.5601305,102.193166 C81.6086134,100.12143 81.8529201,97.7207947 81.5169984,95.4422252 C80.7569331,91.7904106 79.5252202,88.2098013 79.4200326,84.4494834 C79.2707341,79.6312583 80.0884829,74.8367682 81.096248,70.1406093 C80.2818923,71.4901192 79.5048613,72.8633642 78.6565742,74.1925298 Z M127.151452,70.8526623 C127.830082,75.1249801 128.875171,79.397298 128.725873,83.7509934 C128.389951,85.9447947 128.22708,88.1691126 127.758825,90.3425695 C127.175204,93.2925033 125.72633,96.2695629 126.547471,99.3212185 C127.00894,102.162649 128.786949,104.512424 130.317259,106.865589 C129.547015,104.63449 128.084568,102.674649 127.67739,100.318093 C127.253246,98.7854834 127.419511,97.1816689 127.79615,95.6626225 C128.376378,95.8491126 129.190734,95.7575629 129.475759,96.4255364 C130.710865,98.5481325 131.786493,100.796185 133.435563,102.647523 C135.386623,105.214305 138.080783,107.302993 141.20248,108.215099 C137.873801,105.756821 134.9523,102.617007 133.157325,98.8600795 C132.013834,96.4865695 131.959543,93.8146755 131.71863,91.2445033 C131.430212,87.8605563 131.555759,84.4562649 131.185905,81.0790993 C130.622643,77.4205033 129.221272,73.9212715 127.151452,70.8526623 Z M96.2195106,71.7986755 C96.616509,72.3615364 97.0169005,72.9210066 97.4478303,73.4601325 C97.57677,72.8091126 97.692137,72.154702 97.8108972,71.5036821 C97.2781729,71.6020132 96.7488418,71.7003444 96.2195106,71.7986755 Z M110.301077,71.9037881 C110.453768,72.392053 110.599674,72.8837086 110.742186,73.378755 C110.996672,72.8972715 111.254551,72.4157881 111.512431,71.9343046 C111.207047,71.9275232 110.603067,71.9139603 110.301077,71.9037881 Z M44.6063295,87.002702 C42.3566721,88.7557086 41.1724633,91.4750728 39.5946493,93.7875497 C38.1830995,96.2593907 36.6052855,98.6261192 35.0037194,100.975894 C35.818075,101.226808 36.6358238,101.457377 37.4603589,101.681166 C37.4671452,101.98294 37.4841109,102.589881 37.4942904,102.891656 C35.5126917,103.498596 33.3817945,102.922172 31.4273409,103.634225 C29.3643067,104.359841 27.3453834,105.631364 26.286721,107.604768 C25.5164763,108.940715 25.3162806,110.483497 24.8107015,111.914384 C24.7055139,112.487417 24.0811746,112.538278 23.6298858,112.701033 C22.6662316,111.636344 21.7263295,110.018967 20.0602936,110.185113 C18.2212072,110.690331 16.663752,112.063576 15.7645677,113.731815 C14.8687765,115.308503 14.5939315,117.132715 13.8813703,118.787391 C12.7582382,117.804079 12.5003589,116.295205 11.8760196,115.010119 C11.611354,114.982993 11.0786297,114.925351 10.8139641,114.894834 C9.8604894,116.220609 9.58903752,117.837987 9.20561175,119.384159 C8.98166395,120.397987 8.03158238,120.954066 7.27151713,121.547444 C5.83621533,122.574834 4.55699837,123.920954 3.96998369,125.619709 C6.17213703,125.060238 7.68887439,123.307232 9.34133768,121.886517 C11.2177488,120.499709 13.7456444,121.150728 15.5983034,122.242543 C16.0360196,120.930331 16.3990865,119.590993 16.9453834,118.31947 C17.4238173,117.15306 18.3128222,116.230781 19.0796737,115.250861 C21.2275367,114.96604 22.8494617,116.539338 24.5901468,117.498914 C25.7064927,115.661139 26.1509951,113.508026 27.2571615,111.677033 C27.6032626,110.931073 28.502447,111.029404 29.1810767,111.053139 C32.0245351,111.446464 34.4404568,113.38257 35.7977162,115.867974 C36.0555954,115.128795 36.2999021,114.382834 36.5645677,113.647046 C37.7793148,113.670781 38.7531485,114.382834 39.6557259,115.115232 C39.7880587,112.663735 40.1273736,110.17494 41.2742577,107.974358 C43.8835889,107.662411 46.2553997,109.323868 47.6907015,111.375258 C48.6441762,112.701033 48.9936705,114.318411 49.5942577,115.80694 C50.8022186,114.864318 51.7862316,113.491073 51.7726591,111.900821 C51.6742577,109.459497 50.3373573,106.974093 48.0978793,105.861934 C46.6829364,105.132927 45.0779772,104.624318 43.4730179,104.800636 C41.4574878,105.197351 40.0764763,106.862199 38.9465579,108.45245 C38.6445677,109.083126 37.8777162,108.954278 37.3042741,109.086517 C37.2364111,107.353854 37.5384013,105.502517 38.8006525,104.21743 C39.7541272,102.922172 41.440522,102.63057 42.6145514,101.623523 C43.1269168,100.887735 43.4526591,99.9858013 44.2534421,99.5009272 C46.4488091,97.9988344 48.2912887,96.055947 49.9539315,93.9977748 C51.6301468,91.773457 52.2035889,88.962543 52.4953997,86.2499603 C49.896248,86.7924768 47.2529853,86.9993113 44.6063295,87.002702 Z M154.496835,86.2669139 C154.591843,90.7596291 157.058662,94.8556291 160.356803,97.7682649 C161.649592,98.7380132 163.040783,99.6094305 164.092659,100.864 C164.839152,101.826967 166.108189,102.020238 167.136313,102.559364 C169.260424,103.678305 170.895922,105.926358 170.722871,108.40498 C170.25801,108.442278 169.799935,108.482967 169.34186,108.520265 C168.191582,107.089377 166.980228,105.410967 165.086852,104.976954 C163.023817,104.675179 160.818271,105.200742 159.182773,106.509563 C157.509951,107.804821 156.648091,109.917245 156.48522,111.978808 C156.424144,113.548715 157.513344,114.796503 158.51093,115.871364 C159.220098,114.192954 159.627276,112.31449 160.896313,110.937854 C161.958369,109.788397 163.152757,108.676238 164.628777,108.093033 C165.460098,107.930278 166.315171,108.028609 167.153279,108.062517 C167.913344,110.341086 168.289984,112.717987 168.449462,115.10845 C169.379184,114.403179 170.366591,113.694517 171.588124,113.664 C171.835824,114.443868 172.063165,115.230517 172.276933,116.023947 C173.223622,114.793113 173.956542,113.304583 175.354519,112.511152 C176.911974,111.527841 178.849462,110.520795 180.695334,111.324397 C181.977945,113.138437 182.388515,115.420397 183.545579,117.319205 C185.310016,116.664795 186.830147,114.925351 188.85925,115.33902 C191.1123,116.956397 191.899511,119.76053 192.544209,122.313748 C194.295073,121.215152 196.602414,120.78453 198.522936,121.689854 C200.385775,122.981722 201.810897,124.965298 204.080914,125.616318 C203.870538,123.988768 202.608287,122.852874 201.437651,121.842437 C200.518108,121.055788 199.137096,120.581086 198.89279,119.24853 C198.326134,117.682013 198.546688,115.250861 196.531158,114.749033 C195.849135,115.854411 195.387667,117.071682 194.953344,118.292344 C194.736183,118.302517 194.295073,118.326252 194.077912,118.336424 C193.613051,117.071682 193.266949,115.769642 192.781729,114.515073 C192.008091,112.416212 190.094356,110.792053 187.949886,110.229192 C186.192235,110.147815 185.466101,111.921166 184.26832,112.833272 C184.057945,112.73155 183.637194,112.534887 183.426819,112.436556 C182.734617,110.77849 182.5446,108.940715 181.669168,107.350464 C180.685155,105.153272 178.418532,103.824106 176.114584,103.437563 C174.261925,103.09849 172.348189,103.403656 170.526069,102.874702 C170.522675,102.562755 170.522675,101.93547 170.519282,101.620132 C171.401501,101.389563 172.283719,101.165775 173.169331,100.941987 C170.566786,97.3579868 168.381599,93.5027285 166.03354,89.7491921 C165.29044,88.7184106 164.628777,87.4875762 163.427602,86.9314967 C162.00248,86.7823046 160.570571,87.002702 159.142055,86.9348874 C157.577814,86.8433377 156.033931,86.5619073 154.496835,86.2669139 Z M93.2471126,95.4863046 C91.3469494,99.8128742 88.4967047,103.84106 84.5640457,106.54347 C81.9784666,108.07947 79.2266232,109.537483 76.2101142,109.951152 C76.206721,109.340821 76.2101142,108.73049 76.2202936,108.12355 C75.7181077,108.852556 75.1752039,109.551046 74.605155,110.222411 C77.4757586,110.449589 80.2004568,109.395073 82.8878303,108.547391 C84.3943883,107.89298 85.782186,106.980874 87.1394454,106.058596 C88.6460033,105.092238 89.44,103.078146 91.4215987,102.928954 C91.8219902,106.492609 89.5485808,109.486623 87.8112887,112.36196 C89.3280261,111.232848 91.0517455,110.300397 92.1850571,108.744053 C93.2606852,107.438623 94.0987928,105.943311 94.5195432,104.298808 C95.1370962,101.308185 94.3600653,98.2633113 93.2471126,95.4863046 Z M114.46447,96.1373245 C113.510995,99.0669139 112.733964,102.322013 113.809592,105.329589 C115.034519,108.133722 117.15863,110.561483 119.866362,112.016106 C118.448026,109.340821 116.133899,106.77743 116.564829,103.525722 C117.301142,103.613881 118.152822,103.529113 118.67876,104.16657 C122.387471,107.855682 127.616313,110.042702 132.845155,110.083391 C132.627993,109.608689 132.414225,109.137377 132.19367,108.669457 C132.105449,108.994967 131.932398,109.649377 131.844176,109.974887 C128.237259,109.493404 124.878042,107.770914 121.997259,105.607629 C118.929853,102.986596 116.622512,99.5890861 114.837716,96.0016954 C114.742708,96.0356026 114.559478,96.1034172 114.46447,96.1373245 Z M55.7867537,103.569801 C54.3141272,104.003815 52.777031,104.119099 51.2569005,104.258119 C52.274845,105.336371 53.5269168,106.350199 53.9171289,107.84551 C54.5686134,109.927417 55.0911582,112.063576 55.2065253,114.250596 C56.3092985,113.925086 57.395106,113.548715 58.4809135,113.168954 C57.6054812,112.877351 56.5332463,112.911258 55.8614029,112.199205 C55.3388581,110.49706 56.9268515,109.47645 57.8022838,108.286305 C59.6447635,106.129801 61.0868515,103.600318 61.714584,100.81653 C59.7872757,101.826967 57.8938989,102.966252 55.7867537,103.569801 Z M146.611158,101.765934 C146.52633,102.620397 146.309168,103.508768 146.624731,104.349669 C147.401762,106.679099 149.281566,108.377854 150.750799,110.269881 C150.832235,110.971762 150.950995,111.758411 150.649005,112.426384 C150.19093,112.707815 149.70571,112.931603 149.227276,113.165563 C150.452202,113.402914 151.636411,113.792848 152.817227,114.189563 C153.265122,112.192424 153.31602,110.110517 154.028581,108.174411 C154.557912,106.641801 155.755693,105.495735 156.760065,104.271682 C155.165285,104.068238 153.536574,104.142834 151.965546,103.756291 C150.089135,103.362967 148.382382,102.457642 146.611158,101.765934 Z M94.6892007,116.719046 C92.8535073,117.319205 90.9058401,117.271735 89.005677,117.403974 C93.2131811,118.834861 97.8482219,118.590728 102.031974,117.20053 C104.702382,116.379974 107.250636,117.865113 109.866754,118.170278 C112.913801,118.672106 116.004959,118.210967 118.963785,117.427709 C115.69279,117.298861 112.336966,116.746172 109.462969,115.101669 C107.386362,113.928477 105.808548,112.111046 104,110.598781 C101.237977,113.080795 98.3605873,115.705219 94.6892007,116.719046 Z M42.9572594,115.111841 C43.5748124,117.129325 45.0372594,118.753483 46.5506036,120.164026 C47.2394127,117.027603 45.5258728,114.057325 43.3644372,111.924556 C43.0590538,112.948556 42.5568679,114.03698 42.9572594,115.111841 Z M161.656378,120.052132 C163.108646,118.685669 164.472692,117.112371 165.202219,115.230517 C165.677259,114.121748 165.05292,112.979073 164.723785,111.927947 C162.728613,114.101404 160.984535,116.983523 161.656378,120.052132 Z M29.4932463,114.576106 C28.661925,116.532556 27.9629364,118.750093 28.7297879,120.842172 C29.1980424,122.995285 30.7215661,124.700821 32.4927896,125.921483 C32.2790212,124.436344 31.8955954,122.924079 32.2315171,121.425377 C32.3774225,120.187762 33.0356933,119.031523 33.0221207,117.783735 C32.3638499,116.274861 30.9794454,115.206781 29.4932463,114.576106 Z M174.940555,117.987179 C175.972072,120.516662 176.199413,123.290278 175.609005,125.955391 C177.47863,124.609272 179.073409,122.768106 179.538271,120.452238 C180.206721,118.489007 179.412724,116.488477 178.673018,114.677828 C176.976444,115.15253 175.853312,116.569854 174.940555,117.987179 Z M20.2367374,119.292609 C19.5988254,120.594649 18.971093,121.954331 18.8557259,123.419126 C19.0593148,126.443656 20.6710604,129.346119 23.1378793,131.112689 C22.7442741,129.298649 22.0995759,127.426967 22.5712235,125.562066 C22.69677,124.490596 23.3482545,123.43947 23.0869821,122.351046 C22.5576509,121.01849 21.3734421,120.096212 20.2367374,119.292609 Z M185.069103,122.523974 C185.011419,123.415735 185.360914,124.280371 185.466101,125.16196 C185.839347,127.145536 185.513605,129.16302 185.075889,131.105907 C187.440914,129.281695 189.100163,126.51147 189.28,123.497113 C189.232496,121.984848 188.591191,120.577695 187.949886,119.231576 C186.803002,120.116556 185.449135,121.038834 185.069103,122.523974 Z M11.9981729,123.907391 C10.9666558,125.582411 10.1828385,127.637192 10.8207504,129.600424 C11.4009788,132.224848 13.1518434,134.438993 15.4557912,135.788503 C15.0520065,134.28302 14.627863,132.774146 14.5057096,131.214411 C14.3156933,129.63094 14.8144861,128.088159 14.9603915,126.525033 C14.4107015,125.287417 13.1213051,124.571974 11.9981729,123.907391 Z M193.124437,126.284291 C193.830212,129.424106 193.74199,132.70294 192.727439,135.768159 C193.840392,135.066278 195.021207,134.350834 195.730375,133.201377 C197.128352,131.044874 198.14969,128.28143 197.162284,125.751947 C196.873866,125.131444 196.660098,124.117616 195.825383,124.104053 C194.759935,124.599099 193.959152,125.48747 193.124437,126.284291 Z M201.32907,131.665377 C200.222904,134.171126 200.545253,136.978649 200.589364,139.63698 C202.642219,138.487523 204.016444,136.42596 204.386297,134.116874 C204.925808,132.452026 204.243785,130.743099 203.320848,129.363073 C202.543817,130.017483 201.715889,130.692238 201.32907,131.665377 Z M3.57637847,132.563921 C3.75621533,135.347709 4.85559543,138.436662 7.59386623,139.650543 C7.60404568,136.870146 7.9976509,133.896477 6.68450245,131.322914 C6.3451876,130.546437 5.64959217,130.027656 5.02185971,129.491921 C4.20750408,130.315868 3.57298532,131.370384 3.57637847,132.563921 Z M154.276281,143.943205 C153.940359,146.357404 154.062512,148.795338 154.04894,151.22649 C154.045546,166.49155 154.055726,181.76 154.042153,197.02845 C154.059119,197.835444 154.120196,198.662781 154.4154,199.422305 C156.18323,199.852927 158.01553,199.690172 159.817292,199.713907 C162.467341,199.68 165.127569,199.835974 167.767439,199.520636 C167.842088,198.571232 167.957455,197.625219 167.964241,196.675815 C167.957455,179.820503 167.960848,162.961801 167.960848,146.10649 C167.940489,145.394437 167.86584,144.678993 167.679217,143.994066 C166.114976,143.556662 164.469299,143.834702 162.867732,143.766887 C160.007308,143.844874 157.126525,143.583788 154.276281,143.943205 Z M29.4321697,144.10257 C29.3168026,145.109616 29.1742904,146.116662 29.1776835,147.133881 C29.187863,164.779232 29.1776835,182.424583 29.1810767,200.069934 C30.8674715,200.297113 32.5742251,200.219126 34.2707993,200.225907 C40.9451223,200.222517 47.6160522,200.229298 54.2903752,200.225907 C56.0989233,200.212344 57.9176509,200.310675 59.7194127,200.069934 C59.7228059,195.428026 59.7194127,190.78951 59.7194127,186.150993 C58.7082545,186.028927 57.69031,185.954331 56.6689723,185.971285 C52.2578793,185.988238 47.8467863,185.964503 43.4356933,185.984848 C43.428907,172.920371 43.428907,159.859285 43.4390865,146.794808 C43.4424796,145.879311 43.31354,144.970596 43.1812072,144.068662 C40.8976183,143.821139 38.5970636,143.96694 36.3066884,143.933033 C34.0163132,143.973722 31.7123654,143.800795 29.4321697,144.10257 Z" id="Shape"></path>
                <path d="M120.114062,37.9524238 C120.846982,37.4777219 121.735987,37.413298 122.580881,37.3454834 C122.054943,39.4341722 122.496052,41.6618808 121.756346,43.7064901 C120.483915,47.4939338 115.037912,49.0638411 112.001044,46.4224636 C111.047569,45.6527682 110.206069,44.4490596 110.647178,43.170755 C111.519217,42.5231258 112.642349,42.4044503 113.633148,42.0043444 C116.093181,41.1837881 117.95602,39.298543 120.114062,37.9524238 Z M114.389821,44.0964238 C114.817357,44.5236556 115.255073,44.9474967 115.68261,45.3815099 C116.147471,45.0085298 116.60894,44.6321589 117.073801,44.2557881 C116.639478,43.7403974 116.188189,43.2351788 115.730114,42.7401325 C115.282219,43.1910993 114.827537,43.6352848 114.389821,44.0964238 Z" id="Shape"></path>
                <path d="M85.6328874,37.5285828 C86.4981403,37.5184106 87.4346493,37.487894 88.1709625,38.0236291 C89.942186,39.1832583 91.5471452,40.6175364 93.4880261,41.509298 C94.8588581,42.2043974 96.3688091,42.5434702 97.8041109,43.0690331 C97.8787602,45.130596 96.2568352,46.8700397 94.3838173,47.4837616 C92.4938336,48.1517351 90.3663295,47.6770331 88.7070799,46.6394702 C86.8781729,45.4255894 85.9179119,43.1809272 85.9620228,41.0244238 C85.989168,39.8478411 85.7720065,38.6916026 85.6328874,37.5285828 Z M90.8888744,43.7030993 C91.2146166,44.2252715 91.5471452,44.7406623 91.8898532,45.2526623 C92.4259706,44.7915232 92.9790538,44.3507285 93.5389233,43.9167152 C93.1046003,43.5844238 92.6872431,43.2283974 92.229168,42.933404 C91.7676998,43.1673642 91.3231974,43.4284503 90.8888744,43.7030993 Z" id="Shape"></path>
                <path d="M89.6096574,127.538861 C95.1642414,125.992689 100.990277,125.707868 106.721305,125.996079 C111.454747,126.399576 116.636085,126.433483 120.650179,129.332556 C124.85429,132.241801 127.015726,137.40249 127.205742,142.397033 C127.497553,145.794543 127.507732,149.202225 127.42969,152.609907 C120.416052,152.640424 113.405808,152.626861 106.39217,152.616689 C106.303948,150.85351 106.656835,149.093722 106.402349,147.337325 C106.215726,145.835232 106.514323,144.295841 106.141077,142.820874 C105.750865,141.301828 104.071256,140.216795 102.530767,140.654199 C101.221011,141.149245 100.393083,142.42755 100.040196,143.726199 C99.4599674,146.343841 99.5923002,149.056424 99.9248287,151.697801 C100.223426,153.803444 101.24137,155.868397 102.971876,157.160265 C108.244829,161.737748 114.640914,164.789404 119.835824,169.468609 C123.300228,172.706755 126.479608,176.595921 127.629886,181.298861 C129.105905,187.080053 129.367178,193.095205 129.319674,199.035762 C129.133051,203.596291 128.96,208.468768 126.428711,212.442702 C124.793214,215.046781 122.543556,217.386384 119.700098,218.647735 C117.27739,219.817536 114.596803,220.278675 111.960326,220.695735 C108.149821,221.356927 104.268059,221.072106 100.423622,221.099232 C96.7115171,220.800848 92.9281566,220.282066 89.4875041,218.793536 C84.7065579,216.643815 81.6391517,211.869669 80.2784992,206.963285 C78.8601631,201.097325 78.9924959,195.007576 79.0332137,189.016159 C86.0638173,188.965298 93.0944209,188.965298 100.125024,189.016159 C100.287896,193.681801 99.8196411,198.384742 100.481305,203.026649 C100.695073,203.91502 100.688287,205.159417 101.689266,205.562914 C103.077064,206.142728 105.007765,206.254623 106.063034,204.989881 C107.159021,203.735311 107.498336,202.016212 107.657814,200.405616 C107.73925,197.204768 107.813899,193.936106 106.962219,190.820026 C106.107145,188.619444 104.508972,186.713854 102.544339,185.408424 C98.8525938,182.794172 95.2185318,180.095152 91.7066232,177.24355 C89.0565742,175.049748 86.2368679,172.981404 84.1297227,170.224742 C80.6653181,165.884609 78.9891028,160.371285 78.5412072,154.898649 C78.4563785,152.199629 78.1747471,149.497219 78.4597716,146.798199 C78.6124633,142.163073 79.2503752,137.321113 81.8698858,133.367523 C83.7225449,130.658331 86.4167047,128.444185 89.6096574,127.538861 Z" id="Shape"></path>
            </g>
            <g id="#e5e5e5ff" transform="translate(3.732463, 4.407947)" fill="#E5E5E5">
                <path d="M84.1568679,0.132238411 C86.0095269,0.759523179 87.7603915,1.75639735 89.121044,3.17033113 C90.7124307,4.96402649 91.0517455,7.43586755 91.8287765,9.61949669 C91.9509299,10.1755762 92.5650897,10.2840795 92.9858401,10.5349934 C94.3295269,8.31745695 94.8927896,5.6557351 96.6843719,3.70945695 C97.7124959,2.6074702 98.9170636,1.45462252 100.437194,1.13928477 C101.906427,1.59025166 102.951517,2.83125828 103.949103,3.93663576 C105.469233,5.75406623 106.26323,8.01229139 107.203132,10.1518411 C107.474584,10.1552318 108.020881,10.1552318 108.292333,10.1586225 C109.350995,8.08010596 109.401892,5.55740397 110.955954,3.72301987 C112.241958,1.90219868 114.206591,0.695099338 116.36124,0.176317881 C114.963263,3.22797351 113.510995,6.55766887 114.193018,9.98908609 C118.203719,10.2908609 121.86832,8.01229139 125.865449,8.11740397 C129.044829,8.11401325 132.448157,7.96143046 135.31876,9.56863576 C139.448222,11.5420397 142.312039,15.2548874 145.946101,17.9267815 C148.005742,19.3542781 149.892333,21.0021722 151.95876,22.4228874 C153.207439,23.3248212 154.537553,24.1216424 155.725155,25.1117351 C151.962153,25.5762649 148.657227,23.2603974 145.756085,21.1818808 C143.543752,19.8154172 141.643589,18.0217219 139.455008,16.621351 C136.18062,14.4072053 132.736574,11.8845033 128.607113,11.8845033 C123.910995,12.3456424 119.554192,14.3868609 115.526525,16.733245 C116.66323,14.1223841 119.398108,12.8949404 121.837781,11.7963444 C121.790277,11.3826755 121.742773,10.9656159 121.695269,10.551947 C119.028254,10.351894 116.405351,11.1690596 113.952104,12.1388079 C110.928809,13.3357351 108.448418,15.485457 106.008744,17.5673642 C106.314127,13.6714172 105.628711,9.50082119 103.077064,6.41186755 C102.591843,6.33388079 102.110016,6.25928477 101.624796,6.18807947 C101.539967,7.66982781 101.970897,9.0973245 102.137162,10.5553377 C102.225383,12.9797086 101.448352,15.3905166 100.189494,17.4486887 C99.2937031,15.834702 98.3266558,14.1495099 98.3809462,12.2371391 C98.170571,10.0535099 99.0290375,7.96143046 98.9272431,5.78119205 C98.6252529,5.78458278 98.0246656,5.78458278 97.7226754,5.78797351 C96.4061338,7.76137748 95.1981729,9.86362914 94.6552692,12.1964503 C94.1971941,13.9325033 94.3736378,15.7431523 94.3295269,17.5165033 C91.7066232,15.2209801 88.9954976,12.8949404 85.6532463,11.7285298 C83.451093,10.9995232 81.143752,10.4434437 78.8092659,10.5112583 C78.7685481,10.9859603 78.7312235,11.464053 78.697292,11.938755 C81.12,12.9390199 83.885416,14.098649 84.9237194,16.7162914 C82.7113866,15.7194172 80.7569331,14.1698543 78.4020881,13.5052715 C76.2813703,12.8881589 74.1844046,12.0845563 71.9686786,11.9150199 C69.7325938,11.8946755 67.5168679,12.5219603 65.5793801,13.6307285 C62.1115824,15.597351 58.9355954,18.031894 55.8274715,20.5206887 C52.4173573,22.8433377 48.7629364,25.3965563 44.4468515,25.3423046 C46.6625775,23.6062517 48.9902773,22.0295629 51.290832,20.4087947 C53.8526591,18.3336689 56.5773573,16.4484238 58.9423817,14.1393377 C60.8595106,12.5389139 62.58323,10.5824636 64.9584339,9.64323179 C66.4480261,9.03629139 67.9681566,8.44630464 69.5595432,8.17165563 C72.3317455,8.04619868 75.131093,8.03941722 77.8727569,8.55480795 C80.6517455,8.91083444 83.291615,10.2162649 86.1452529,9.97213245 C86.8306688,7.53080795 86.3149103,4.93011921 85.2223165,2.69223841 C84.8117455,1.86150993 84.4588581,1.00704636 84.1568679,0.132238411 Z" id="Shape"></path>
                <path d="M68.2938989,18.7032583 C71.7990212,17.6724768 75.6434584,18.4252185 78.765155,20.2494305 C78.1374225,21.0089536 77.5130832,21.8396821 76.5969331,22.2669139 C75.1480587,22.1380662 73.7466884,21.5921589 72.274062,21.6904901 C70.8726917,21.6328477 69.5663295,22.1957086 68.3040783,22.7314437 C68.2667537,23.0060927 68.1954976,23.5553907 68.1581729,23.8300397 C68.7689396,24.0673907 69.3864927,24.2945695 70.0074388,24.5115762 C68.9385971,25.2541457 67.9579772,26.1153907 67.1232626,27.1122649 C66.4955302,27.6785166 66.7601958,28.6075762 66.6346493,29.3501457 C67.5779445,29.4756026 68.5314192,29.4247417 69.4747145,29.295894 C69.875106,30.8217219 70.3806852,32.3170331 70.6657096,33.8699868 C67.2997064,33.4088477 63.9438825,30.8997086 63.5061664,27.3699603 C63.3670473,25.525404 63.2890049,23.589298 63.9574551,21.8329007 C64.6666232,20.0459868 66.7262643,19.493298 68.2938989,18.7032583 Z" id="Shape"></path>
                <path d="M121.630799,20.2392583 C125.733116,17.9505166 131.230016,17.282543 135.210179,20.1850066 C136.5369,20.8936689 136.679413,22.5008742 136.944078,23.8198675 C137.205351,25.6 137.300359,27.5462781 136.421533,29.184 C135.104992,31.6219338 132.685677,33.5716026 129.872757,33.866596 C129.988124,32.2627815 130.497096,30.7335629 130.866949,29.1806093 C131.925612,29.4315232 133.014812,29.5129007 134.104013,29.5196821 C134.192235,27.1665166 132.034192,25.6847682 130.300294,24.5047947 C130.91106,24.3522119 131.52522,24.1928477 132.13938,24.0300927 C132.13938,23.5757351 132.142773,23.1179868 132.146166,22.6636291 C130.388515,21.9719205 128.478173,21.5006093 126.584796,21.7854305 C125.685612,21.9108874 124.823752,22.2499603 123.914388,22.2940397 C122.950734,21.8769801 122.248352,21.0632053 121.630799,20.2392583 Z" id="Shape"></path>
                <path d="M76.3695922,29.5230728 C78.6430016,26.661298 81.5984339,24.1046887 85.1951713,23.1552848 C87.5703752,22.9586225 90.0643393,22.8263841 92.3309625,23.7045828 C93.7900163,24.1928477 95.1744209,24.8676026 96.4773899,25.6779868 C97.9330506,26.6443444 99.7687439,26.7121589 101.455139,26.5595762 C102.910799,26.4578543 104.020359,25.4304636 105.286003,24.8336954 C106.762023,24.0368742 108.411093,23.6469404 110.026232,23.2366623 C112.241958,22.7450066 114.525546,23.1586755 116.656444,23.8402119 C118.448026,24.3047417 119.859576,25.5525298 121.345775,26.5833113 C123.157716,28.0379338 124.813573,29.7468609 125.957064,31.781298 C127.222708,34.466755 128.047243,37.538755 127.321109,40.4954702 C127.134486,41.7669934 126.472822,42.8893245 126.106362,44.1032053 C125.817945,46.8700397 127.019119,49.6843444 126.045285,52.4070993 C125.118956,54.5703841 123.351126,56.4725828 121.064144,57.1981987 C119.547406,57.7237616 117.915302,57.618649 116.35106,57.9034702 C115.828515,59.6598675 115.594388,61.514596 114.749494,63.1624901 C114.298206,64.3933245 112.98845,64.9154967 111.878891,65.3969801 C110.67093,65.9496689 109.415465,65.2308344 108.200718,65.0918146 C106.19876,64.6306755 103.938923,64.912106 102.181272,63.6846623 C101.746949,63.3150728 101.1769,62.5419868 101.760522,62.0605033 C104.145905,59.4564238 107.033475,57.3541722 109.476542,54.7975629 C110.297684,54.1397616 110.005873,52.7868609 109.133834,52.3121589 C106.829886,50.7761589 103.837129,50.8405828 101.217618,51.3424106 C99.5855139,51.6407947 98.0280587,50.8066755 96.4061338,50.888053 C94.1123654,50.9490861 91.8084176,51.5661987 89.874323,52.8207682 C90.240783,53.4819603 90.6106362,54.1668874 91.1908646,54.672106 C93.2640783,56.557351 95.1710277,58.6121325 97.1899511,60.5550199 C97.76,61.128053 98.4216639,61.6739603 98.7100816,62.4572185 C98.7575856,62.9556556 98.5675693,63.5456424 98.0755628,63.7660397 C96.9117129,64.3695894 95.5544535,64.2475232 94.2922023,64.4543576 C92.6906362,64.5933775 91.1705057,65.2206623 89.5621533,65.2816954 C87.794323,65.1969272 86.2911582,63.9491391 85.3750082,62.5080795 C84.479217,61.0704106 84.5538662,59.3241854 84.1534747,57.730543 C82.3618923,57.2015894 80.3938662,57.5135364 78.6905057,56.6590728 C76.2202936,55.5299603 73.987602,53.3836291 73.5872104,50.5964503 C73.1121697,48.2771921 75.154845,46.1376424 74.2590538,43.831947 C73.3666558,41.8924503 72.732137,39.824106 72.5319413,37.6913377 C73.0239478,34.6837616 74.4253181,31.8592848 76.3695922,29.5230728 Z M116.381599,33.5444768 C114.223556,34.890596 112.360718,36.7758411 109.900685,37.5963974 C108.909886,37.9965033 107.786754,38.1151788 106.914715,38.7628079 C106.473605,40.0411126 107.315106,41.2448212 108.268581,42.0145166 C111.305449,44.655894 116.751452,43.0859868 118.023883,39.298543 C118.763589,37.2539338 118.32248,35.0262252 118.848418,32.9375364 C118.003524,33.005351 117.114519,33.0697748 116.381599,33.5444768 Z M81.9004241,33.1206358 C82.0395432,34.2836556 82.2567047,35.439894 82.2295595,36.6164768 C82.1854486,38.7729801 83.1457096,41.0176424 84.9746166,42.2315232 C86.6338662,43.2690861 88.7613703,43.7437881 90.651354,43.0758146 C92.5243719,42.4620927 94.1462969,40.722649 94.0716476,38.6610861 C92.6363458,38.1355232 91.1263948,37.7964503 89.7555628,37.101351 C87.8146819,36.2095894 86.2097227,34.7753113 84.4384992,33.6156821 C83.702186,33.079947 82.765677,33.1104636 81.9004241,33.1206358 Z" id="Shape"></path>
                <path d="M56.4246656,26.2069404 C57.7038825,25.1693775 59.1357912,24.2403179 60.7441436,23.8198675 C61.4363458,24.6336424 61.4770636,25.7864901 61.5788581,26.8003179 C61.3209788,28.6380927 60.0383687,30.2792053 60.3064274,32.2085298 C60.3776835,33.7038411 61.1716803,34.9990993 61.8570962,36.2807947 C57.965155,38.1456954 53.9001631,40.2716821 51.4672757,43.9879205 C49.6146166,47.0124503 48.0435889,50.213298 46.0857423,53.1767947 C44.8947471,55.0077881 42.9776183,56.5336159 40.7245677,56.6353377 C39.3265905,56.5268344 38.0032626,55.9944901 36.7002936,55.5163974 C38.5088418,54.8077351 40.4632953,54.3940662 42.0546819,53.2208742 C44.8268842,51.2440795 47.3513866,48.7281589 48.6102447,45.5035762 C51.0838499,41.1939603 51.5826427,36.1655099 53.3301142,31.5778543 C54.0019576,29.6180132 54.9791843,27.7090331 56.4246656,26.2069404 Z" id="Shape"></path>
                <path d="M139.139445,23.9046358 C141.9354,24.2437086 144.527765,26.0611391 145.745905,28.6075762 C148.246656,33.2664371 148.813312,38.637351 150.903491,43.4589669 C152.287896,47.4973245 155.032953,51.0982781 158.660228,53.3666755 C160.204111,54.3703311 162.029625,54.7670464 163.71602,55.458755 C161.968548,56.3979868 159.79354,57.0286623 157.876411,56.2250596 C156.261272,55.5672583 155.219576,54.0922914 154.198238,52.7563444 C153.020816,51.2474702 152.196281,49.5114172 151.293703,47.8363974 C149.661599,44.9610596 147.815726,42.1230199 145.213181,40.0343311 C143.167113,38.4813775 140.829233,37.3827815 138.518499,36.2909669 C139.868972,34.3887682 140.703687,31.8931921 139.675563,29.6451391 C138.793344,27.8582252 138.766199,25.8305695 139.139445,23.9046358 Z" id="Shape"></path>
                <path d="M57.7954976,48.9349934 C60.0214029,46.8903841 62.6239478,45.0966887 65.6031321,44.3880265 C62.5492985,49.026543 60.1299837,54.0516026 58.2569657,59.2767152 C56.9302447,63.4574834 56.2210767,67.8315232 56.1701794,72.2191258 C56.1701794,73.5042119 56.2108972,74.789298 56.0785644,76.0709934 C55.8817618,78.1766358 56.1260685,80.2992318 55.9021207,82.4014834 C55.6069168,84.9479205 55.5560196,87.6062517 54.354845,89.9390728 C53.2690375,92.0684503 51.8948124,94.3097219 49.6315824,95.3371126 C48.7290049,95.7711258 47.7178467,95.8219868 46.7372268,95.8728477 C47.8569657,94.6114967 49.1361827,93.4654305 50.0014356,91.997245 C51.131354,90.0407947 52.1085808,87.9487152 52.5055791,85.7074437 C52.8177488,83.5068609 53.1672431,81.296106 53.0552692,79.0650066 C53.4115498,76.6440265 53.1977814,74.1959205 53.2249266,71.7647682 C53.7847961,66.8753377 54.5686134,61.8028079 57.2559869,57.5745695 C57.8090701,56.8252185 57.6428059,55.8622517 57.7072757,54.9976159 C57.1270473,55.1535894 56.4552039,55.170543 56.0073083,55.6181192 C54.331093,57.2049801 53.0552692,59.1885563 52.1764437,61.3179338 C50.6189886,65.5393907 50.4120065,70.0897483 49.3804894,74.440053 C48.6034584,77.4781457 45.1153018,78.9632848 42.2107667,78.4173775 C43.8123328,77.3425166 45.325677,76.0845563 46.2757586,74.3722384 C47.9655465,71.6732185 48.3252202,68.4418543 49.2481566,65.4546225 C50.9820555,59.4835497 53.4760196,53.5158675 57.7954976,48.9349934 Z" id="Shape"></path>
                <path d="M134.942121,44.3778543 C138.209723,45.2763974 140.985318,47.3210066 143.377488,49.6538278 C147.408548,54.3432053 149.715889,60.2193377 151.283524,66.1293775 C152.294682,69.1267815 152.684894,72.4259603 154.622382,75.026649 C155.565677,76.4677086 157.055269,77.3764238 158.412529,78.3800795 C156.190016,78.8039205 153.729984,78.1427285 152.182708,76.4541457 C150.991713,75.2979073 150.910277,73.5516821 150.587928,72.0224636 C150.045024,69.3641325 149.946623,66.6142517 149.067798,64.0271258 C148.385775,61.2331656 147.238891,58.4256424 145.135139,56.394596 C144.62956,55.8385166 143.801631,56.008053 143.136574,55.8792053 C143.201044,56.6760265 143.177292,57.5203179 143.601436,58.2357616 C146.105579,62.9251391 147.201566,68.2757086 147.13031,73.5720265 C147.364437,76.5050066 147.1846,79.4515497 147.513736,82.3811391 C147.836085,87.4231523 149.780359,92.6075762 153.872496,95.7880795 C151.090114,96.3780662 148.799739,94.2792053 147.303361,92.2040795 C145.515171,89.3897748 144.700816,86.0566887 144.670277,82.743947 C143.984861,78.2580132 144.670277,73.7042649 144.174878,69.2047682 C143.486069,60.2498543 139.560196,51.9425695 134.942121,44.3778543 Z" id="Shape"></path>
                <path d="M64.4257096,67.0923444 C65.3690049,63.888106 67.360783,60.8567947 70.3196085,59.1953377 C69.2711256,60.9415629 68.0054812,62.5521589 67.1232626,64.3967152 C66.2614029,65.9937483 65.6845677,67.7162384 64.9923654,69.3878675 C64.1101468,71.5308079 64.0965742,73.8805828 63.6079608,76.1218543 C62.7291354,81.9132185 63.4009788,87.7859603 62.9768352,93.6078411 C62.8920065,95.6999205 62.9327243,98.0971656 61.2700816,99.6433377 C61.7044046,97.954755 62.2880261,96.2899073 62.3932137,94.5369007 C62.94969,87.8809007 62.1081892,81.1604768 63.0684502,74.5282119 C63.451876,72.0394172 63.5095595,69.469245 64.4257096,67.0923444 Z" id="Shape"></path>
                <path d="M130.11367,59.2224636 C133.469494,61.1551788 135.702186,64.7798675 136.343491,68.5571391 C136.760848,70.7916291 137.276607,73.0091656 137.544666,75.2707815 C138.152039,81.1299603 137.887374,87.0264371 137.955237,92.909351 C138.016313,95.1879205 138.599935,97.3952848 139.17677,99.5856954 C138.43367,98.8024371 137.877194,97.8360795 137.693964,96.7612185 C137.212137,93.4857748 137.531093,90.1662517 137.354649,86.877245 C137.103556,85.2768212 137.018728,83.6628344 137.178206,82.0522384 C137.04248,78.9361589 137.066232,75.7692185 136.268842,72.7311258 C135.610571,70.0388874 135.009984,67.2856159 133.639152,64.8476821 C132.706036,62.8234172 131.202871,61.1517881 130.11367,59.2224636 Z" id="Shape"></path>
                <path d="M84.3333116,65.3088212 C85.6634258,65.6750199 86.9833605,66.1361589 88.1675693,66.8583841 C89.7861011,67.7230199 90.5902773,69.4726358 91.5064274,70.967947 C91.2247961,72.0868874 90.583491,73.1007152 90.5292007,74.2840795 C90.4579445,75.4335364 89.8641436,76.4304106 89.416248,77.4611921 C91.4182055,77.9833642 93.5151713,78.0850861 95.5714192,77.8952053 C98.7847308,77.6069934 102.001436,77.9392848 105.214747,78.0104901 C106.969005,78.1596821 108.740228,78.5326623 110.4877,78.1156026 C110.29429,75.7895629 109.893899,73.4635232 108.953997,71.3138013 C109.7446,70.1948609 110.47752,69.0318411 111.013638,67.7637086 C112.866297,67.4924503 114.576444,66.7125828 116.17801,65.7699603 C115.974421,66.1904106 115.80137,66.6244238 115.550277,67.0211391 C114.735922,67.8010066 113.341338,67.695894 112.591452,68.5367947 C112.048548,70.6220927 112.510016,72.7989404 112.252137,74.9181457 C112.102838,76.0947285 111.787276,77.2441854 111.692268,78.4275497 C111.671909,79.5770066 112.024796,80.6891656 112.26571,81.8047152 C111.325808,81.2486358 110.491093,80.5433642 109.693703,79.8041854 C109.422251,79.8448742 108.875954,79.9228609 108.604502,79.9635497 C108.143034,82.7846358 109.055791,85.5752053 110.066949,88.1725033 C109.055791,87.6028609 107.980163,87.0298278 107.304927,86.0499073 C106.022316,84.2833377 105.550669,82.1030993 104.587015,80.1669934 C104.325742,80.1975099 103.803197,80.2619338 103.541925,80.2924503 C103.002414,83.3610596 101.539967,86.3584636 102.15752,89.5389669 C101.601044,89.1015629 101.071713,88.6099073 100.427015,88.3047417 C99.4260359,88.3454305 98.7066884,89.1456424 97.8957259,89.6339073 C98.2893312,87.6910199 98.4318434,85.6430199 97.7464274,83.7476026 C97.21031,82.3845298 97.441044,80.7976689 96.6674062,79.5329272 C96.4977488,79.522755 96.1550408,79.5024106 95.9853834,79.4922384 C95.2660359,80.9943311 95.2796085,82.7473377 94.4075693,84.1985695 C93.6780424,86.0024371 92.0561175,87.2197086 90.3154323,87.9690596 C91.2519413,85.1513642 92.412398,82.2489007 91.8152039,79.2209801 C90.240783,79.3091391 89.5350082,80.9265166 88.2999021,81.6758675 C88.6426101,79.8075762 88.6595759,77.8816424 88.2320392,76.0269139 C87.6585971,73.5109934 88.4356281,70.9442119 88.0555954,68.4181192 C87.0885481,68.0112318 86.0264927,67.7738808 85.1714192,67.1398146 C84.5810114,66.722755 84.5504731,65.9327152 84.3333116,65.3088212 Z" id="Shape"></path>
                <path d="M74.9241109,69.7845828 C75.772398,68.4554172 76.549429,67.0821722 77.3637847,65.7326623 C76.3560196,70.4288212 75.5382708,75.2233113 75.6875693,80.0415364 C75.7927569,83.8018543 77.0244698,87.3824636 77.7845351,91.0342781 C78.1204568,93.3128477 77.8761501,95.7134834 76.8276672,97.7852185 C76.0608157,99.5314437 74.856248,101.019974 73.7127569,102.528848 C74.469429,100.497801 75.9250897,98.741404 76.274584,96.567947 C76.5663948,94.6182781 76.7564111,92.6448742 76.641044,90.6748609 C76.3831648,90.624 75.8640131,90.5290596 75.6061338,90.4781987 C73.8959869,93.0924503 72.7219576,96.0457748 70.6724959,98.4328477 C68.6739315,101.243762 65.6268842,103.149351 62.3524959,104.139444 C63.7572594,103.020503 65.3181077,102.071099 66.5124959,100.708026 C67.6390212,99.4500662 68.6875041,98.1209007 69.6952692,96.768 C72.0399347,93.3704901 72.341925,89.0913907 72.4199674,85.0937219 C72.3690701,83.0626755 72.7524959,81.058755 72.7796411,79.0310993 C72.8339315,77.0983841 73.1155628,75.1690596 73.7534747,73.3380662 C74.1844046,72.1648742 74.1979772,70.8390993 74.9241109,69.7845828 Z" id="Shape"></path>
                <path d="M123.418989,66.4447152 C125.488809,69.5133245 126.890179,73.0125563 127.453442,76.6711523 C127.823295,80.0483179 127.697749,83.4526093 127.986166,86.8365563 C128.22708,89.4067285 128.28137,92.0786225 129.424861,94.4521325 C131.219837,98.2090596 134.141338,101.348874 137.470016,103.807152 C134.34832,102.895046 131.65416,100.806358 129.7031,98.2395762 C128.054029,96.3882384 126.978401,94.1401854 125.743295,92.0175894 C125.458271,91.3496159 124.643915,91.4411656 124.063687,91.2546755 C123.687047,92.7737219 123.520783,94.3775364 123.944927,95.9101457 C124.352104,98.266702 125.814551,100.226543 126.584796,102.457642 C125.054486,100.104477 123.276476,97.754702 122.815008,94.9132715 C121.993866,91.8616159 123.442741,88.8845563 124.026362,85.9346225 C124.494617,83.7611656 124.657488,81.5368477 124.993409,79.3430464 C125.142708,74.989351 124.097618,70.7170331 123.418989,66.4447152 Z" id="Shape"></path>
                <path d="M40.8738662,82.594755 C43.520522,82.5913642 46.1637847,82.3845298 48.7629364,81.8420132 C48.4711256,84.554596 47.8976835,87.3655099 46.2214682,89.5898278 C44.5588254,91.648 42.7163458,93.5908874 40.5209788,95.0929801 C39.7201958,95.5778543 39.3944535,96.4797881 38.8820881,97.2155762 C37.7080587,98.2226225 36.0216639,98.5142252 35.0681892,99.8094834 C33.805938,101.09457 33.5039478,102.945907 33.5718108,104.67857 C34.1452529,104.546331 34.9121044,104.675179 35.2140946,104.044503 C36.3440131,102.454252 37.7250245,100.789404 39.7405546,100.392689 C41.3455139,100.216371 42.9504731,100.72498 44.365416,101.453987 C46.604894,102.566146 47.9417945,105.05155 48.0401958,107.492874 C48.0537684,109.083126 47.0697553,110.456371 45.8617945,111.398993 C45.2612072,109.910464 44.9117129,108.293086 43.9582382,106.967311 C42.5229364,104.915921 40.1511256,103.254464 37.5417945,103.566411 C36.3949103,105.766993 36.0555954,108.255788 35.9232626,110.707285 C35.0206852,109.974887 34.0468515,109.262834 32.8321044,109.239099 C32.5674388,109.974887 32.3231321,110.720848 32.0652529,111.460026 C30.7079935,108.974623 28.2920718,107.038517 25.4486134,106.645192 C24.7699837,106.621457 23.8707993,106.523126 23.5246982,107.269086 C22.4185318,109.100079 21.9740294,111.253192 20.8576835,113.090967 C19.1169984,112.131391 17.4950734,110.558093 15.3472104,110.842914 C14.5803589,111.822834 13.691354,112.745113 13.2129201,113.911523 C12.6666232,115.183046 12.3035563,116.522384 11.8658401,117.834596 C10.0131811,116.742781 7.48528548,116.091762 5.60887439,117.47857 C3.95641109,118.899285 2.43967374,120.652291 0.237520392,121.211762 C0.824535073,119.513007 2.10375204,118.166887 3.53905383,117.139497 C4.29911909,116.546119 5.24920065,115.99004 5.47314845,114.976212 C5.85657423,113.43004 6.1280261,111.812662 7.08150082,110.486887 C7.34616639,110.517404 7.8788907,110.575046 8.14355628,110.602172 C8.7678956,111.887258 9.02577488,113.396132 10.148907,114.379444 C10.8614682,112.724768 11.1363132,110.900556 12.0321044,109.323868 C12.9312887,107.655629 14.4887439,106.282384 16.3278303,105.777166 C17.9938662,105.61102 18.9337684,107.228397 19.8974225,108.293086 C20.3487113,108.130331 20.9730506,108.07947 21.0782382,107.506437 C21.5838173,106.07555 21.7840131,104.532768 22.5542577,103.196821 C23.6129201,101.223417 25.6318434,99.951894 27.6948777,99.2262781 C29.6493312,98.5142252 31.7802284,99.090649 33.7618271,98.4837086 C33.7516476,98.1819338 33.7346819,97.5749934 33.7278956,97.2732185 C32.9033605,97.0494305 32.0856117,96.8188609 31.2712561,96.567947 C32.8728222,94.2181722 34.4506362,91.8514437 35.862186,89.3796026 C37.44,87.0671258 38.6242088,84.3477616 40.8738662,82.594755 Z" id="Shape"></path>
                <path d="M150.764372,81.8589669 C152.301468,82.1539603 153.845351,82.4353907 155.409592,82.5269404 C156.838108,82.594755 158.270016,82.3743576 159.695139,82.5235497 C160.896313,83.0796291 161.557977,84.3104636 162.301077,85.341245 C164.649135,89.0947815 166.834323,92.9500397 169.436868,96.5340397 C168.551256,96.7578278 167.669038,96.9816159 166.786819,97.2121854 C166.790212,97.5275232 166.790212,98.1548079 166.793605,98.466755 C168.615726,98.9957086 170.529462,98.690543 172.382121,99.0296159 C174.686069,99.4161589 176.952692,100.745325 177.936705,102.942517 C178.812137,104.532768 179.002153,106.370543 179.694356,108.028609 C179.904731,108.12694 180.325481,108.323603 180.535856,108.425325 C181.733638,107.513219 182.459772,105.739868 184.217423,105.821245 C186.361892,106.384106 188.275628,108.008265 189.049266,110.107126 C189.534486,111.361695 189.880587,112.663735 190.345449,113.928477 C190.56261,113.918305 191.003719,113.89457 191.220881,113.884397 C191.655204,112.663735 192.116672,111.446464 192.798695,110.341086 C194.814225,110.842914 194.59367,113.274066 195.160326,114.840583 C195.404633,116.173139 196.785644,116.647841 197.705188,117.43449 C198.875824,118.444927 200.138075,119.580821 200.34845,121.208371 C198.078434,120.557351 196.653312,118.573775 194.790473,117.281907 C192.869951,116.376583 190.56261,116.807205 188.811746,117.905801 C188.167047,115.352583 187.379837,112.54845 185.126786,110.931073 C183.097684,110.517404 181.577553,112.256848 179.813116,112.911258 C178.656052,111.01245 178.245481,108.73049 176.962871,106.91645 C175.116998,106.112848 173.179511,107.119894 171.622055,108.103205 C170.224078,108.896636 169.491158,110.385166 168.54447,111.616 C168.330701,110.82257 168.103361,110.035921 167.855661,109.256053 C166.634127,109.28657 165.646721,109.995232 164.716998,110.700503 C164.55752,108.31004 164.180881,105.933139 163.420816,103.65457 C162.582708,103.620662 161.727635,103.522331 160.896313,103.685086 C159.420294,104.268291 158.225905,105.38045 157.16385,106.529907 C155.894812,107.906543 155.487635,109.785007 154.778467,111.463417 C153.780881,110.388556 152.69168,109.140768 152.752757,107.570861 C152.915628,105.509298 153.777488,103.396874 155.45031,102.101616 C157.085808,100.792795 159.291354,100.267232 161.354388,100.569007 C163.247765,101.00302 164.459119,102.68143 165.609396,104.112318 C166.067471,104.07502 166.525546,104.034331 166.990408,103.997033 C167.163458,101.518411 165.527961,99.2703576 163.40385,98.1514172 C162.375726,97.6122914 161.106688,97.4190199 160.360196,96.456053 C159.30832,95.2014834 157.917129,94.3300662 156.624339,93.3603179 C153.326199,90.4476821 150.85938,86.3516821 150.764372,81.8589669 Z" id="Shape"></path>
                <path d="M89.5146493,91.0783576 C90.627602,93.8553642 91.404633,96.9002384 90.7870799,99.8908609 C90.3663295,101.535364 89.5282219,103.030675 88.4525938,104.336106 C87.3192822,105.89245 85.5955628,106.824901 84.0788254,107.954013 C85.8161175,105.078675 88.0895269,102.084662 87.6891354,98.5210066 C85.7075367,98.6701987 84.91354,100.684291 83.4069821,101.650649 C82.0497227,102.572927 80.661925,103.485033 79.155367,104.139444 C76.4679935,104.987126 73.7432953,106.041642 70.8726917,105.814464 C71.4427406,105.143099 71.9856444,104.444609 72.4878303,103.715603 C72.4776509,104.322543 72.4742577,104.932874 72.4776509,105.543205 C75.4941599,105.129536 78.2460033,103.671523 80.8315824,102.135523 C84.7642414,99.4331126 87.6144861,95.4049272 89.5146493,91.0783576 Z" id="Shape"></path>
                <path d="M110.732007,91.7293775 C110.827015,91.6954702 111.010245,91.6276556 111.105253,91.5937483 C112.890049,95.1811391 115.19739,98.578649 118.264796,101.199682 C121.145579,103.362967 124.504796,105.085457 128.111713,105.56694 C128.199935,105.24143 128.372985,104.58702 128.461207,104.26151 C128.681762,104.72943 128.89553,105.200742 129.112692,105.675444 C123.88385,105.634755 118.655008,103.447735 114.946297,99.7586225 C114.420359,99.1211656 113.568679,99.2059338 112.832365,99.1177748 C112.401436,102.369483 114.715563,104.932874 116.133899,107.608159 C113.426166,106.153536 111.302055,103.725775 110.077129,100.921642 C109.001501,97.9140662 109.778532,94.6589669 110.732007,91.7293775 Z" id="Shape"></path>
                <path d="M52.0542904,99.1618543 C54.1614356,98.5583046 56.0548124,97.4190199 57.9821207,96.4085828 C57.3543883,99.1923709 55.9123002,101.721854 54.0698206,103.878358 C53.1943883,105.068503 51.6063948,106.089113 52.1289396,107.791258 C52.800783,108.503311 53.8730179,108.469404 54.7484502,108.761007 C53.6626427,109.140768 52.5768352,109.517139 51.474062,109.842649 C51.3586949,107.655629 50.8361501,105.51947 50.1846656,103.437563 C49.7944535,101.942252 48.5423817,100.928424 47.5244372,99.8501722 C49.0445677,99.7111523 50.5816639,99.5958675 52.0542904,99.1618543 Z" id="Shape"></path>
                <path d="M142.878695,97.3579868 C144.649918,98.0496954 146.356672,98.9550199 148.233083,99.3483444 C149.804111,99.7348874 151.432822,99.6602914 153.027602,99.8637351 C152.02323,101.087788 150.825449,102.233854 150.296117,103.766464 C149.583556,105.70257 149.532659,107.784477 149.084763,109.781616 C147.903948,109.384901 146.719739,108.994967 145.494812,108.757616 C145.973246,108.523656 146.458467,108.299868 146.916542,108.018437 C147.218532,107.350464 147.099772,106.563815 147.018336,105.861934 C145.549103,103.969907 143.669299,102.271152 142.892268,99.9417219 C142.576705,99.1008212 142.793866,98.2124503 142.878695,97.3579868 Z" id="Shape"></path>
                <path d="M90.9567374,112.311099 C94.628124,111.297272 97.5055139,108.672848 100.267537,106.190834 C102.076085,107.703099 103.653899,109.52053 105.730506,110.693722 C108.604502,112.338225 111.960326,112.890914 115.231321,113.019762 C112.272496,113.80302 109.181338,114.264159 106.13429,113.762331 C103.518173,113.457166 100.969918,111.972026 98.2995106,112.792583 C94.1157586,114.182781 89.4807178,114.426914 85.2732137,112.996026 C87.1733768,112.863788 89.121044,112.911258 90.9567374,112.311099 Z" id="Shape"></path>
                <path d="M63.679217,109.907073 C65.8915498,110.246146 68.181925,110.378384 70.2890701,111.171815 C71.5411419,112.311099 71.8906362,114.250596 73.4752365,115.077934 C76.4306688,116.668185 79.7322023,117.444662 82.9862316,118.166887 C86.9426427,119.034914 91.0110277,118.750093 95.0285155,118.794172 C96.8642088,118.817907 98.6116803,118.109245 100.437194,118.051603 C102.686852,118.18045 104.858467,119.021351 107.128483,118.909457 C110.715041,118.651762 114.359282,119.024742 117.894943,118.207576 C120.293899,117.614199 122.971093,117.376848 124.901794,115.667921 C125.872235,114.847364 127.059837,114.098013 127.426297,112.802755 C127.792757,112.063576 127.809723,110.883603 128.810701,110.73102 C130.826232,110.239364 132.923197,110.208848 134.986232,110.117298 C135.13553,111.15147 135.274649,112.189033 135.274649,113.240159 C135.267863,138.670623 135.274649,164.104477 135.271256,189.538331 C135.227145,204.633854 135.366264,219.736159 135.189821,234.824901 L135.196607,235.109722 C129.560587,238.188503 123.934747,241.29102 118.24783,244.281642 C113.259902,246.482225 108.200718,248.520053 103.158499,250.60196 C101.516215,251.337748 99.5821207,251.57849 97.9500163,250.673166 C88.9242414,246.116026 79.8611419,241.623311 70.8014356,237.130596 C68.3244372,235.933669 65.9356607,234.540079 63.3399021,233.600848 C63.7199347,231.813934 63.3975856,229.996503 63.4009788,228.192636 C63.4009788,191.34898 63.4009788,154.501934 63.4009788,117.658278 C63.4179445,115.071152 63.2788254,112.473854 63.679217,109.907073 Z M85.8771941,123.130914 C82.6842414,124.036238 79.9900816,126.250384 78.1374225,128.959576 C75.5179119,132.913166 74.88,137.755126 74.7273083,142.390252 C74.4422838,145.089272 74.7239152,147.791682 74.8087439,150.490702 C75.2566395,155.963338 76.9328548,161.476662 80.3972594,165.816795 C82.5044046,168.573457 85.3241109,170.641801 87.9741599,172.835603 C91.4860685,175.687205 95.1201305,178.386225 98.811876,181.000477 C100.776509,182.305907 102.374682,184.211497 103.229755,186.412079 C104.081436,189.528159 104.006786,192.796821 103.925351,195.997669 C103.765873,197.608265 103.426558,199.327364 102.330571,200.581934 C101.275302,201.846675 99.3446003,201.734781 97.9568026,201.154967 C96.9558238,200.75147 96.9626101,199.507073 96.7488418,198.618702 C96.0871778,193.976795 96.5554323,189.273854 96.3925612,184.608212 C89.3619576,184.557351 82.331354,184.557351 75.3007504,184.608212 C75.2600326,190.599629 75.1276998,196.689377 76.5460359,202.555338 C77.9066884,207.461722 80.9740946,212.235868 85.7550408,214.385589 C89.1956933,215.874119 92.9790538,216.392901 96.6911582,216.691285 C100.535595,216.664159 104.417357,216.94898 108.227863,216.287788 C110.864339,215.870728 113.544927,215.409589 115.967635,214.239788 C118.811093,212.978437 121.06075,210.638834 122.696248,208.034755 C125.227537,204.060821 125.400587,199.188344 125.58721,194.627815 C125.634715,188.687258 125.373442,182.672106 123.897423,176.890914 C122.747145,172.187974 119.567765,168.298808 116.103361,165.060662 C110.90845,160.381457 104.512365,157.329801 99.2394127,152.752318 C97.508907,151.46045 96.4909625,149.395497 96.1923654,147.289854 C95.8598369,144.648477 95.7275041,141.935894 96.3077325,139.318252 C96.6606199,138.019603 97.4885481,136.741298 98.7983034,136.246252 C100.338793,135.808848 102.018401,136.893881 102.408613,138.412927 C102.78186,139.887894 102.483263,141.427285 102.669886,142.929377 C102.924372,144.685775 102.571485,146.445563 102.659706,148.208742 C109.673344,148.218914 116.683589,148.232477 123.697227,148.20196 C123.775269,144.794278 123.76509,141.386596 123.473279,137.989086 C123.283263,132.994543 121.121827,127.833854 116.917716,124.924609 C112.903622,122.025536 107.722284,121.991629 102.988842,121.588132 C97.257814,121.299921 91.4317781,121.584742 85.8771941,123.130914 Z" id="Shape"></path>
                <path d="M150.543817,139.535258 C153.394062,139.175841 156.274845,139.436927 159.135269,139.35894 C160.736835,139.426755 162.382512,139.148715 163.946754,139.586119 C164.133377,140.271046 164.208026,140.98649 164.228385,141.698543 C164.228385,158.553854 164.224992,175.412556 164.231778,192.267868 C164.224992,193.217272 164.109625,194.163285 164.034976,195.112689 C161.395106,195.428026 158.734878,195.272053 156.084829,195.30596 C154.283067,195.282225 152.450767,195.44498 150.682936,195.014358 C150.387732,194.254834 150.326656,193.427497 150.30969,192.620503 C150.323263,177.352053 150.313083,162.083603 150.316476,146.818543 C150.330049,144.387391 150.207896,141.949457 150.543817,139.535258 Z" id="Shape"></path>
                <path d="M25.6997064,139.694623 C27.9799021,139.392848 30.2838499,139.565775 32.5742251,139.525086 C34.8646003,139.558993 37.165155,139.413192 39.4487439,139.660715 C39.5810767,140.562649 39.7100163,141.471364 39.7066232,142.386861 C39.6964437,155.451338 39.6964437,168.512424 39.70323,181.576901 C44.114323,181.556556 48.525416,181.580291 52.936509,181.563338 C53.9578467,181.546384 54.9757912,181.62098 55.9869494,181.743046 C55.9869494,186.381563 55.9903426,191.020079 55.9869494,195.661987 C54.1851876,195.902728 52.36646,195.804397 50.5579119,195.81796 C43.8835889,195.821351 37.2126591,195.81457 30.5383361,195.81796 C28.8417618,195.811179 27.1350082,195.889166 25.4486134,195.661987 C25.4452202,178.016636 25.4553997,160.371285 25.4452202,142.725934 C25.4418271,141.708715 25.5843393,140.701669 25.6997064,139.694623 Z" id="Shape"></path>
            </g>
            <g id="#262626ff" transform="translate(3.393148, 42.723179)" fill="#262626">
                <path d="M87.4957259,0.97992053 C87.9300489,0.705271523 88.3745514,0.44418543 88.8360196,0.210225166 C89.2940946,0.505218543 89.7114519,0.861245033 90.1457749,1.19353642 C89.5859054,1.62754967 89.0328222,2.06834437 88.4967047,2.52948344 C88.1539967,2.01748344 87.8214682,1.50209272 87.4957259,0.97992053 Z" id="Shape"></path>
                <path d="M110.996672,1.37324503 C111.434388,0.91210596 111.88907,0.46792053 112.336966,0.0169536424 C112.795041,0.512 113.24633,1.01721854 113.680653,1.53260927 C113.215791,1.90898013 112.754323,2.28535099 112.289462,2.65833113 C111.861925,2.22431788 111.424209,1.80047682 110.996672,1.37324503 Z" id="Shape"></path>
                <path d="M92.8263622,29.0754967 C93.3556933,28.9771656 93.8850245,28.8788344 94.4177488,28.7805033 C94.2989886,29.4315232 94.1836215,30.0859338 94.0546819,30.7369536 C93.623752,30.1978278 93.2233605,29.6383576 92.8263622,29.0754967 Z" id="Shape"></path>
                <path d="M106.907928,29.1806093 C107.209918,29.1907815 107.813899,29.2043444 108.119282,29.2111258 C107.861403,29.6926093 107.603524,30.1740927 107.349038,30.6555762 C107.206525,30.1605298 107.06062,29.6688742 106.907928,29.1806093 Z" id="Shape"></path>
                <path d="M39.5641109,72.3886623 C39.1637194,71.3138013 39.6659054,70.2253775 39.9712887,69.2013775 C42.1327243,71.3341457 43.8462643,74.3044238 43.1574551,77.4408477 C41.6441109,76.0303046 40.1816639,74.4061457 39.5641109,72.3886623 Z" id="Shape"></path>
                <path d="M158.26323,77.3289536 C157.591387,74.2603444 159.335465,71.3782252 161.330636,69.2047682 C161.659772,70.255894 162.284111,71.3985695 161.80907,72.5073377 C161.079543,74.3891921 159.715498,75.9624901 158.26323,77.3289536 Z" id="Shape"></path>
                <path d="M26.1000979,71.8529272 C27.5862969,72.4836026 28.9707015,73.5516821 29.6289723,75.0605563 C29.6425449,76.3083444 28.9842741,77.4645828 28.8383687,78.7021987 C28.502447,80.2009007 28.8858728,81.7131656 29.0996411,83.1983046 C27.3284176,81.9776424 25.804894,80.272106 25.3366395,78.1189934 C24.5697879,76.0269139 25.2687765,73.8093775 26.1000979,71.8529272 Z" id="Shape"></path>
                <path d="M171.547406,75.264 C172.460163,73.8466755 173.583295,72.429351 175.279869,71.954649 C176.019576,73.765298 176.813573,75.7658278 176.145122,77.7290596 C175.680261,80.0449272 174.085481,81.8860927 172.215856,83.2322119 C172.806264,80.5670993 172.578923,77.7934834 171.547406,75.264 Z" id="Shape"></path>
                <path d="M16.8435889,76.5694305 C17.9802936,77.3730331 19.1645024,78.2953113 19.6938336,79.6278675 C19.955106,80.7162914 19.3036215,81.7674172 19.178075,82.8388874 C18.7064274,84.7037881 19.3511256,86.5754702 19.7447308,88.3895099 C17.2779119,86.6229404 15.6661664,83.7204768 15.4625775,80.695947 C15.5779445,79.2311523 16.205677,77.8714702 16.8435889,76.5694305 Z" id="Shape"></path>
                <path d="M181.675954,79.8007947 C182.055987,78.3156556 183.409853,77.3933775 184.556737,76.5083974 C185.198042,77.8545166 185.839347,79.2616689 185.886852,80.7739338 C185.707015,83.7882914 184.047765,86.5585166 181.682741,88.3827285 C182.120457,86.4398411 182.446199,84.4223576 182.072953,82.4387815 C181.967765,81.5571921 181.618271,80.6925563 181.675954,79.8007947 Z" id="Shape"></path>
                <path d="M8.60502447,81.1842119 C9.72815661,81.8487947 11.017553,82.5642384 11.5672431,83.8018543 C11.4213377,85.3649801 10.9225449,86.9077616 11.1125612,88.4912318 C11.2347145,90.0509669 11.6588581,91.5598411 12.0626427,93.0653245 C9.75869494,91.7158146 8.00783034,89.5016689 7.42760196,86.877245 C6.78969005,84.9140132 7.57350734,82.8592318 8.60502447,81.1842119 Z" id="Shape"></path>
                <path d="M189.731289,83.5611126 C190.566003,82.7642914 191.366786,81.8759205 192.432235,81.3808742 C193.266949,81.3944371 193.480718,82.4082649 193.769135,83.0287682 C194.756542,85.5582517 193.735204,88.3216954 192.337227,90.4781987 C191.628059,91.6276556 190.447243,92.3430993 189.33429,93.0449801 C190.348842,89.9797616 190.437064,86.7009272 189.731289,83.5611126 Z" id="Shape"></path>
                <path d="M197.935922,88.9421987 C198.322741,87.9690596 199.150669,87.2943046 199.9277,86.639894 C200.850636,88.0199205 201.532659,89.7288477 200.993148,91.3936954 C200.623295,93.7027815 199.24907,95.7643444 197.196215,96.9138013 C197.152104,94.2554702 196.829755,91.447947 197.935922,88.9421987 Z" id="Shape"></path>
                <path d="M0.183230016,89.8407417 C0.179836868,88.6472053 0.814355628,87.5926887 1.62871126,86.7687417 C2.25644372,87.3044768 2.95203915,87.8232583 3.291354,88.5997351 C4.60450245,91.173298 4.21089723,94.1469669 4.20071778,96.9273642 C1.46244698,95.7134834 0.363066884,92.6245298 0.183230016,89.8407417 Z" id="Shape"></path>
            </g>
        </g>
    </g>
</svg>