<?xml version="1.0" encoding="UTF-8"?>
<svg width="256px" height="256px" viewBox="0 0 256 256" version="1.1" xmlns="http://www.w3.org/2000/svg" xmlns:xlink="http://www.w3.org/1999/xlink">
    <!-- Generator: Sketch 51.3 (57544) - http://www.bohemiancoding.com/sketch -->
    <title>logo/lier</title>
    <desc>Created with Sketch.</desc>
    <defs></defs>
    <g id="logo/lier" stroke="none" stroke-width="1" fill="none" fill-rule="evenodd">
        <g id="lier" transform="translate(0.000000, 8.000000)" fill="#FFFFFF" fill-rule="nonzero">
            <g id="#010101ff">
                <path d="M106.790921,1.15022727 C109.076831,1.16118182 111.395632,1.47338636 113.500642,0.383409091 C116.126424,0.377931818 118.79606,0.136931818 121.394433,0.629886364 C121.674004,2.26211364 122.068694,3.89434091 122.046767,5.56490909 C121.465696,5.69088636 120.884625,5.81686364 120.303555,5.93188636 C119.327794,4.81452273 118.489079,3.50545455 117.200857,2.71125 C115.879743,2.55788636 113.856959,2.34975 113.369079,3.94911364 C112.837345,5.1815 113.752805,6.23861364 114.564111,7.05472727 C115.676916,6.50152273 116.257987,4.24488636 117.661328,4.95693182 C118.182099,7.26834091 119.190749,9.75502273 118.105353,12.0609545 C116.652677,11.7761364 115.676916,10.5492273 114.262612,10.1712955 C114.147495,11.1133864 113.999486,12.0609545 114.076231,13.014 C114.509293,13.91775 115.523426,14.3449773 116.241542,14.9912955 C117.052848,14.6462273 117.897045,14.3559318 118.664497,13.9067955 C119.854047,12.5429545 120.742099,10.8285682 122.490792,10.0672273 C122.7594,11.7104091 123.143126,13.4850455 122.562056,15.0953636 C121.915203,15.8950455 120.994261,16.6563864 119.941756,16.7659318 C117.995717,16.6728182 116.049679,16.7823636 114.114604,16.5030227 C111.867066,17.3410455 109.466039,17.3793864 107.103383,17.0890909 C107.788608,15.8074091 109.208394,15.0460682 109.65242,13.6329318 C110.710407,10.8997727 107.826981,8.17756818 109.493448,5.55943182 C108.621842,4.60090909 107.799572,3.59309091 106.823812,2.73863636 C106.812848,2.34427273 106.801884,1.55006818 106.790921,1.15022727 Z" id="Shape"></path>
                <path d="M122.918373,1.29263636 C125.374218,-0.410795455 128.433062,0.755863636 131.195889,0.416272727 C130.938244,2.08684091 129.962484,4.37634091 131.661842,5.60325 C132.051049,5.6635 132.834946,5.78947727 133.224154,5.85520455 C133.558544,5.17602273 133.898415,4.49684091 134.238287,3.81765909 C133.72848,2.83175 133.257045,1.82393182 132.813019,0.805159091 C134.97833,0.1205 137.412248,0.115022727 139.533704,0.980431818 C137.856274,4.20106818 134.572677,6.48509091 133.51469,10.0672273 C133.432463,11.1626818 133.355717,12.2800455 133.564026,13.3645455 C134.249251,14.3559318 135.219529,15.1337045 135.68,16.2729773 C133.383126,16.7495 131.036916,16.3222727 128.734561,16.7111591 C127.895846,16.8919091 126.711777,16.0429318 127.583383,15.2487273 C128.959315,14.1149318 129.721285,12.4005455 129.167623,10.6313864 C127.989036,7.03281818 125.59349,3.92172727 122.918373,1.29263636 Z" id="Shape"></path>
                <path d="M140.898672,0.454613636 C141.770278,0.405318182 142.65833,0.295772727 143.535418,0.416272727 C146.879315,1.45147727 150.453448,1.63222727 153.704154,2.98511364 C154.597687,3.70263636 155.047195,4.95145455 155.206167,6.06881818 C155.436403,7.82702273 153.632891,8.88413636 153.128565,10.42325 C153.676745,12.3074318 155.260985,14.4216591 153.906981,16.3387045 C152.646167,17.2753182 151.144154,17.8997273 149.653105,18.3817273 C146.0406,17.0288409 141.797687,17.8230455 138.536017,15.5280682 C141.189208,13.8136818 141.101499,10.3082273 141.967623,7.58602273 C142.702184,5.11029545 142.071777,2.65647727 140.898672,0.454613636 Z M146.40788,7.53672727 C146.501071,8.676 147.981156,9.09227273 148.891135,8.63765909 C150.223212,7.92561364 151.19349,6.34268182 150.881028,4.81452273 C149.998458,4.12986364 148.929507,3.75740909 147.926338,3.29184091 C147.07666,4.53518182 146.122827,5.94831818 146.40788,7.53672727 Z M146.155717,15.84575 C148.123683,16.2455909 149.751777,14.6078864 149.488651,12.6470227 C149.762741,10.9107273 147.712548,10.4670682 146.446253,10.1439091 C145.344411,11.9021136 144.686595,14.0711136 146.155717,15.84575 Z" id="Shape"></path>
                <path d="M90.6853961,5.20340909 C92.4286081,4.68306818 94.3417559,3.59856818 95.9808137,4.95693182 C95.4326338,5.99213636 94.2321199,6.89040909 94.5994004,8.18852273 C95.0982441,11.5296591 96.0027409,14.8707955 97.5814989,17.8668636 C98.6888223,17.6094318 99.8180728,17.4067727 100.87606,16.9740682 C102.389036,15.4020909 102.515118,13.1016364 103.567623,11.2722273 C105.201199,12.1595455 104.883255,14.1751818 105.480771,15.6759545 C105.853533,16.4920682 105.469807,17.5601364 104.669465,17.9599773 C102.131392,19.5155227 99.1164026,19.8879773 96.298758,20.6876591 C94.4842827,21.1094091 92.7026981,21.7831136 90.8169593,21.7831136 C90.6470236,20.6438409 91.2774304,19.762 91.9462099,18.9075455 C92.3025268,15.8676591 91.0362313,12.95375 90.1810707,10.1055682 C89.7863812,8.54454545 88.3282227,7.79415909 87.1715632,6.8685 C88.0047966,5.72375 89.4519914,5.64159091 90.6853961,5.20340909 Z" id="Shape"></path>
                <path d="M166.920771,5.74018182 C168.433747,5.31843182 169.075118,7.02186364 169.042227,8.22686364 C169.480771,10.42325 168.713319,12.5977273 168.861328,14.8050682 C168.762655,17.9052045 170.27015,20.8574545 170.275632,23.9028182 C167.934904,24.3464773 165.731221,22.8676136 163.746809,21.8105 C164.11409,20.6931364 164.508779,19.5922045 164.865096,18.4693636 C163.642655,16.9192955 161.652762,16.2839318 159.728651,16.5468409 C159.712206,17.7573182 159.87666,18.9513636 160.013704,20.1454091 C157.733276,20.6000227 154.882741,19.82225 153.950835,17.5053636 C157.590749,16.5742273 159.63546,13.3371591 162.277687,10.9709773 C163.763255,9.17990909 164.941842,7.06568182 166.920771,5.74018182 Z M163.363084,13.0797273 C162.617559,13.6329318 163.456274,15.0570227 164.26758,14.4161818 C164.99666,13.8629773 164.157944,12.4169773 163.363084,13.0797273 Z" id="Shape"></path>
                <path d="M72.5406424,11.6720682 C74.7114347,11.0476591 76.909636,9.55236364 79.2284368,10.30275 C78.7186296,11.6337273 77.4194433,12.9592273 78.1649679,14.4490455 C79.2119914,17.5656136 80.4179872,20.6438409 82.0131906,23.5303636 C83.3726767,23.136 84.8746895,22.7909318 85.7901499,21.6078409 C86.5466381,20.2166136 87.0016274,18.6884545 87.3305353,17.1493409 C87.692334,17.1931591 88.4104497,17.2753182 88.7722484,17.3191364 C88.9970021,19.0882955 90.4880514,21.1203636 89.0463383,22.71425 C87.3798715,24.3519545 84.8692077,24.40125 82.8135332,25.2995227 C80.5769593,26.2744773 78.4280942,27.4904318 76.0161028,27.9943409 C75.8790578,26.7126591 76.4820557,25.6117273 77.1234261,24.5546136 C75.900985,21.4928182 75.3089507,18.13525 73.4341756,15.3582727 C72.8421413,14.2463864 71.4113919,14.2573409 70.3808137,13.79725 C70.9015846,12.8880227 71.4004283,11.8637727 72.5406424,11.6720682 Z" id="Shape"></path>
                <path d="M181.551692,10.9490682 C184.062355,11.1024318 186.211221,12.6525 188.310749,13.9067955 C188.853448,14.7941136 187.603597,15.0625 187.110236,15.5499773 C185.504069,16.5797045 184.840771,18.4584091 183.952719,20.0522955 C182.94955,21.8050227 181.968308,23.6453864 181.721627,25.6774545 C182.423298,27.41375 184.632463,28.0545909 186.27152,27.2768182 C187.318544,26.8495909 188.195632,26.1046818 189.193319,25.5898182 C190.656959,25.7431818 190.207452,27.6109318 189.71409,28.5092045 C189.122056,29.5937045 188.606767,31.3683409 187.022527,31.0177955 C185.043597,30.5577045 183.492248,29.0624091 181.513319,28.5913636 C179.068437,27.7588182 176.7003,26.4716591 174.896788,24.6039091 C175.702612,24.2095455 176.530364,23.8425682 177.358116,23.4646364 C178.026895,20.8957955 179.764625,18.7870455 180.712976,16.3222727 C181.749036,14.701 181.502355,12.7675227 181.551692,10.9490682 Z" id="Shape"></path>
                <path d="M62.1416702,16.5139773 C64.0986724,15.48425 66.3626552,16.4263409 68.4073662,16.6782955 C71.2140471,17.8175682 73.4286938,20.5123864 73.7576017,23.5467955 C74.24,28.4872955 69.6407709,33.1429773 64.7784154,32.9622273 C62.6514775,32.6335909 60.595803,31.7900909 59.0883084,30.2126364 C57.5534047,27.8519318 56.2980728,25.0092273 57.2519058,22.1665227 C57.8603854,19.6743636 59.8502784,17.5984773 62.1416702,16.5139773 Z M61.248137,19.6086364 C59.7351606,21.0327273 60.8370021,23.1086136 61.2097645,24.7737045 C62.6624411,27.17275 64.6358887,29.5279773 67.459015,30.2728864 C68.7582013,30.5303182 69.4872805,29.1993409 70.3862955,28.5256364 C70.6932762,24.4943636 67.8865953,21.208 64.8058244,19.0225682 C63.6601285,18.5624773 62.0320343,18.4529318 61.248137,19.6086364 Z" id="Shape"></path>
                <path d="M197.94227,19.7674773 C200.737987,20.6547955 202.705953,23.0867045 205.331734,24.3629091 C206.027923,25.9513182 203.435032,25.4309773 202.541499,25.9622727 C199.789636,28.73925 196.90621,31.7243636 195.760514,35.5584545 C196.813019,36.2485909 197.805225,37.1030455 199.049593,37.4426364 C200.699615,37.2837955 202.24,36.6374773 203.835203,36.2376364 C204.334047,38.2039773 202.969079,39.524 201.637002,40.7125682 C202.207109,41.2548182 202.793662,41.7751591 203.391178,42.2900227 C206.471949,40.4770455 208.565996,37.5247955 211.049251,35.0381136 C212.140128,33.9864773 211.767366,32.3925909 211.959229,31.0451818 C213.877859,32.1022955 215.281199,33.8276364 216.854475,35.3065 C217.501328,35.7939773 217.578073,36.6265227 217.802827,37.3440455 C216.77773,37.5467045 215.626552,37.4755 214.776874,38.1820682 C213.965567,38.7517045 212.364882,39.6664091 213.36257,40.7837727 C214.809764,41.27125 216.35015,41.4465227 217.819272,40.9426136 C218.054989,39.8800227 218.318116,38.8283864 218.619615,37.7877045 C221.738758,39.1077273 223.235289,42.5912727 226.442141,43.7415 C228.207281,45.6256818 229.780557,47.7125227 230.838544,50.0787045 C229.802484,50.2211136 228.678715,50.0294091 227.7194,50.4895 C225.515717,51.2398864 224.39743,53.4965227 222.32531,54.4605227 C221.174133,55.4738182 218.833405,56.3885227 219.524111,58.2727045 C220.138073,58.9628409 220.762998,59.6420227 221.481113,60.2280909 C222.972163,61.5809773 225.033319,60.5786364 226.771049,60.4417045 C227.13833,62.7640682 224.846938,64.0074091 223.032463,64.7468409 C221.426296,64.7906591 220.598544,63.0762727 219.644711,62.0410682 C218.098844,59.6255909 215.977388,57.65925 214.332848,55.3314091 C211.537131,54.0935455 209.092248,51.8862045 208.111006,48.923 C209.821328,48.3150227 211.586467,46.9566591 211.049251,44.8972045 C211.339786,43.6374318 209.903555,43.2430682 209.141585,44.0372727 C207.562827,44.8369545 207.727281,46.7923409 207.387409,48.26025 C204.460128,47.3729318 202.004283,44.8479091 201.390321,41.8354091 C197.679143,40.1484091 194.587409,37.4371591 191.39152,34.9669091 C190.366424,34.2932045 189.856617,33.1484545 189.248137,32.1406364 C190.042998,31.9325 190.848822,31.7736591 191.638201,31.5217045 C194.258501,29.3527045 195.985268,26.3566364 197.953233,23.6289545 C198.874176,22.5006364 197.887452,21.0491591 197.94227,19.7674773 Z M216.284368,43.5333636 C215.549807,43.8127045 215.533362,44.7931364 215.319572,45.4394545 C215.001627,47.7289545 214.316403,49.9746364 214.447966,52.3134318 C214.946809,52.5818182 215.451135,52.8502045 215.95546,53.1185909 C218.657987,51.9519318 220.719143,49.8486591 223.087281,48.1780909 C224.386467,47.3291136 224.846938,45.8392955 224.923683,44.3604318 C222.122484,43.621 219.167794,42.657 216.284368,43.5333636 Z" id="Shape"></path>
                <path d="M124.091478,20.5014318 C126.580214,20.1618409 129.238887,20.0413409 131.639914,20.9122273 C134.600086,21.3339773 137.63152,20.7479091 140.591692,21.2189545 C145.15803,22.2979773 149.916231,22.3034545 154.367452,23.8754318 C157.634604,24.9982727 161.093619,25.5240909 164.245653,26.9700909 C166.268437,27.6164091 168.362484,28.13675 170.144069,29.3527045 C174.310236,31.0725682 178.635375,32.6171591 182.319143,35.2791136 C187.493961,37.9027273 191.972591,41.6272727 196.560857,45.12725 C198.802912,46.4965682 200.28848,48.7258182 202.223555,50.4456818 C204.701328,52.538 206.789893,55.0301591 209.168994,57.2265455 C212.008565,59.7351364 213.72985,63.1967727 216.306296,65.9354091 C217.353319,67.1075455 218.416788,68.3180227 219.085567,69.7585455 C220.538244,73.0394318 223.339443,75.5042045 224.726338,78.8234318 C225.784325,81.5127727 227.237002,84.0158864 228.580043,86.5628182 C231.337388,93.3162955 233.656188,100.266955 235.388437,107.349068 C235.426809,108.762205 236.249079,109.961727 236.506724,111.320091 C236.605396,115.329455 237.444111,119.284045 238.085482,123.216727 C237.953919,130.945159 238.672034,138.761227 237.000086,146.363682 C237.060385,151.988841 234.582612,157.225114 233.50818,162.680477 C232.965482,165.840864 231.145525,168.546636 230.2794,171.602955 C228.963769,175.804023 226.518887,179.495705 224.709893,183.477682 C222.281456,187.563727 220.094218,191.825045 216.953148,195.429091 C215.275717,198.080091 213.104925,200.342205 211.164368,202.796023 C208.215161,205.868773 204.980899,208.656705 202.141328,211.833523 C198.983812,215.338977 194.779272,217.612045 191.139358,220.547864 C185.054561,225.247364 177.977559,228.309159 171.223983,231.842 C166.093019,233.780955 160.929165,235.604886 155.650193,237.078273 C152.903812,237.521932 150.33833,238.885773 147.498758,238.715977 C145.086767,239.181545 142.647366,239.548523 140.257302,240.140068 C137.171049,240.326295 134.073833,240.079818 130.98758,240.227705 C129.589722,240.309864 128.235717,241.169795 126.832377,240.813773 C122.441456,239.269182 117.633919,241.076682 113.215589,239.663545 C111.954775,239.395159 110.650107,239.378727 109.422184,238.973409 C107.728308,238.365432 105.848051,239.000795 104.187066,238.272318 C99.1438116,236.793455 93.848394,235.977341 89.1340471,233.550909 C84.8253533,232.422591 80.9826124,230.105705 76.9699358,228.259864 C72.7379872,226.496182 69.0432548,223.757545 65.1895503,221.331114 C62.7227409,219.1895 59.833833,217.579182 57.4711777,215.311591 C53.6942184,212.748227 51.1287366,208.881273 47.6697216,205.961886 C45.9594004,204.351568 44.3148608,202.691955 43.0430835,200.703705 C40.3898929,197.959591 38.5425268,194.618455 36.2785439,191.573091 C34.8423126,189.321932 33.8117345,186.824295 32.0740043,184.770318 C30.067666,181.221045 28.6478801,177.365045 26.6908779,173.782909 C25.6931906,169.850227 23.3031263,166.377636 22.7330193,162.308023 C22.113576,159.9035 21.8285225,157.378477 20.6937901,155.14375 C19.3178587,151.720455 20.342955,147.820636 18.9341328,144.41925 C18.9450964,142.754159 19.0547323,141.067159 18.3366167,139.517091 C17.892591,135.573455 18.5339615,131.553136 17.9857816,127.604023 C17.4101927,123.912341 19.0328051,120.352114 18.9889507,116.676864 C19.0328051,115.521159 19.6248394,114.469523 19.6522484,113.313818 C19.7399572,109.063455 21.3351606,105.048614 21.9929764,100.885886 C23.4346895,97.3256591 24.2514775,93.5299091 25.9014989,90.0463636 C26.5154604,88.1293182 27.0197859,86.1575 28.0832548,84.4212045 C29.8703212,81.5401591 31.0598715,78.3469091 32.6770021,75.37275 C35.3795289,71.0073636 38.3287366,66.7953409 41.3272805,62.6271364 C43.4816274,58.4315455 47.3956317,55.5943182 50.3229122,51.9847955 C52.3731049,50.3744773 54.2423983,48.5615 56.0623555,46.6992273 C63.2161028,41.0685909 70.4411135,35.3612727 78.8282655,31.6695909 C82.8683512,29.1719545 87.5278801,28.0984091 91.8420557,26.20875 C95.2955889,24.8339545 98.9738758,24.1931136 102.476745,22.9662045 C105.705525,22.5225455 108.884968,21.3777955 112.163084,21.69 C115.994861,20.2001818 120.248737,21.8817045 124.091478,20.5014318 Z M112.009593,36.632 C112.870236,38.5545227 114.706638,39.7211818 115.868779,41.4300909 C117.908009,44.3713864 118.52197,48.0082955 118.269807,51.5247045 C119.448394,52.5434773 121.208051,53.1405 121.652077,54.7836818 C122.704582,56.7609773 120.835289,58.7930455 121.005225,60.79225 C121.641113,63.1200909 121.663041,65.61225 122.688137,67.8360227 C125.220728,70.3062727 127.84651,72.72175 130.718972,74.7921591 C132.982955,77.2952727 135.849936,79.3711591 137.439657,82.4055682 C137.883683,84.7991364 137.680857,87.2967727 137.582184,89.7232045 C136.875032,92.6973636 136.250107,96.0549318 133.925824,98.2348864 C132.703383,98.4868409 131.453533,98.5744773 130.236574,98.8647727 C129.025096,99.1715 127.868437,98.4320682 126.656959,98.4704091 C121.268351,98.8264318 116.630749,95.0745 111.296959,95.0252045 C108.967195,95.8960909 107.73379,98.8592955 108.687623,101.143318 C109.411221,102.748159 108.440942,104.489932 109.093276,106.10025 C110.014218,108.521205 109.712719,111.150295 110.480171,113.609591 C111.384668,117.251977 109.10424,120.658841 109.137131,124.246455 C109.740128,126.58525 111.401113,128.535159 113.133362,130.167386 C115.337045,132.391159 116.84454,135.168136 118.94955,137.479545 C121.427323,141.226 123.713233,145.092955 126.180043,148.839409 C126.388351,148.844886 126.81045,148.861318 127.018758,148.866795 C127.594347,147.327682 128.148009,145.733795 128.158972,144.068705 C128.328908,140.678273 129.205996,137.386432 129.957002,134.094591 C131.305525,130.512455 132.84591,126.985091 134.748094,123.660386 C139.12257,117.202682 144.703041,111.320091 151.730707,107.754386 C157.108351,104.347523 163.330193,102.353795 169.634261,101.625318 C171.684454,100.940659 173.844283,101.121409 175.965739,101.121409 C181.463983,100.825636 186.847109,102.277114 192.098672,103.755977 C195.617987,104.780227 198.627495,107.173795 202.256445,107.803682 C202.568908,106.724659 202.963597,105.568955 202.481199,104.4735 C200.403597,98.1089091 198.791949,91.5087955 195.453533,85.6481136 C194.22561,83.386 193.512976,80.8555 192.005482,78.74675 C190.26227,76.57775 189.270064,73.9048409 187.439143,71.7906136 C185.822013,70.07075 184.670835,67.9839091 183.234604,66.1271136 C179.802998,62.8024091 176.42621,59.4284091 173.065867,56.0434545 C169.815161,54.0223409 167.090707,51.2398864 163.631692,49.5474091 C160.232976,46.8690227 156.324454,45.00675 152.476231,43.0677955 C150.420557,42.11475 148.173019,41.6710909 146.089936,40.7837727 C139.731049,38.1053864 132.840428,37.1906818 126.108779,35.9802045 C122.995118,36.0075909 119.859529,36.6648636 116.756831,36.1390455 C115.156146,35.7556364 113.577388,36.4293409 112.009593,36.632 Z M105.787752,38.9872273 C107.393919,39.4582727 108.994604,39.9786136 110.639143,40.2853409 C109.564711,38.7133636 107.503555,38.25875 105.787752,38.9872273 Z M99.4288651,39.6554545 C98.1899786,41.2274318 95.9808137,42.3995682 96.0520771,44.6233409 C97.2580728,43.7524545 98.0310064,42.4707727 99.023212,41.39175 C100.558116,40.2798636 102.476745,39.8690682 104.099358,38.8941136 C102.482227,38.4011591 100.963769,39.2775227 99.4288651,39.6554545 Z M84.5677088,42.8158409 C81.6568737,44.3549545 78.8063383,46.0638636 75.6981585,47.2086136 C71.68,49.6624318 67.9962313,52.5927727 64.2083084,55.3807045 C61.5167452,57.2429773 59.7461242,60.0582955 57.219015,62.1013182 C54.0011991,64.9659318 51.6111349,68.5699773 48.9689079,71.9330227 C47.3188865,74.0308182 46.271863,76.5065455 44.7588865,78.6974545 C41.4149893,83.9720682 39.2551606,89.8546591 37.1227409,95.6824773 C35.6536188,100.579159 34.7162313,105.61825 33.8007709,110.635432 C34.0090792,114.332591 32.7811563,117.903773 32.7153747,121.5845 C32.8743469,122.860705 33.0278373,124.142386 33.0552463,125.435023 C33.0442827,126.875545 34.0913062,128.162705 33.7130621,129.630614 C32.9730193,132.473318 34.6943041,135.135273 34.6120771,137.967023 C36.2237259,146.122682 39.0249251,154.020909 42.8841113,161.393318 C45.5976017,167.500477 49.7582869,172.753182 53.595546,178.164727 C54.412334,179.320432 55.7389293,179.851727 57.0874518,179.309477 C58.7265096,174.856455 58.4359743,169.921432 57.3999143,165.380773 C57.5424411,163.157 56.4460814,161.097545 56.5995717,158.87925 C56.7804711,155.883182 56.1062099,152.755659 57.2957602,149.902 C56.8846253,146.1665 59.1924625,142.874659 59.2527623,139.221318 C58.3537473,136.132136 59.6584154,132.736227 58.0467666,129.822318 C59.2034261,127.023432 60.458758,124.246455 62.0265525,121.650227 C64.0767452,118.982795 67.4535332,117.492977 69.0158458,114.425705 C68.955546,112.60725 68.4621842,110.827136 68.4512206,109.003205 C69.0816274,104.254409 68.7198287,99.4453636 68.7307923,94.6691818 C67.1136617,93.4094091 65.2224411,92.1496364 63.073576,92.2975227 C60.3984582,92.1167727 57.5369593,93.3546364 55.0975589,91.7278864 C53.1624839,89.8656136 52.8116488,87.0995909 52.4882227,84.5800455 C51.3754176,82.4548636 52.6691221,80.31325 53.0912206,78.2154545 C53.3104925,75.8602273 54.8728051,73.9103182 56.4351178,72.2561818 C59.0828266,70.4651136 61.7689079,68.6411818 64.7235974,67.3868864 C66.3462099,66.5652955 68.166167,67.3649773 69.8764882,67.1294545 C71.6471092,66.9103636 73.9659101,67.4909545 75.0403426,65.6560682 C76.1312206,64.16625 74.7004711,62.4518636 74.8539615,60.8251136 C74.5195717,57.9550227 75.6104497,55.2437727 76.7671092,52.6858864 C77.6277516,50.3197045 79.1736188,48.0466364 81.5417559,46.995 C82.9779872,46.4144091 83.8824839,45.12725 85.0665525,44.2070682 C87.6101071,43.2649773 90.3784154,46.4363182 92.6478801,44.4316364 C93.5852677,42.7446364 94.4513919,41.0138182 95.2188437,39.2446591 C91.3651392,39.4199318 88.2021413,41.8408864 84.5677088,42.8158409 Z M110.78167,40.3346364 C111.81773,41.9887727 113.12788,43.4512045 114.191349,45.0889091 C114.843683,47.5482045 115.117773,50.3963864 113.593833,52.6092045 C112.481028,54.3728864 111.713576,56.6733409 109.559229,57.4346818 C106.045396,59.1545455 101.63803,59.1107273 98.5243683,56.57475 C97.6089079,55.1068409 96.7701927,53.5458182 96.2329764,51.8971591 C96.0137045,49.4926364 96.3152034,47.0662045 95.8547323,44.6835909 C94.8241542,46.2610455 93.9251392,47.9973409 93.9196574,49.9253409 C93.903212,51.6616364 93.6400857,53.7156136 92.0339186,54.7289091 C91.0691221,55.9284318 89.0408565,55.0411136 88.2953319,56.4378182 C87.3524625,57.5825682 86.6617559,58.9299773 86.6398287,60.4417045 C88.0431692,59.6255909 89.462955,58.8149545 90.7511777,57.8235682 C91.6611563,56.8376591 92.2805996,55.6162273 93.0809422,54.5426818 C94.0621842,54.6686591 95.0434261,54.7946364 96.0301499,54.9260909 C96.0904497,55.3423636 96.2220128,56.1749091 96.2823126,56.5911818 C95.2352891,57.6044773 93.8648394,57.8947727 92.4505353,57.8509545 C92.6095075,58.5410909 92.7520343,59.2367045 92.9877516,59.9104091 C93.7223126,60.3924091 94.6213276,60.4690909 95.454561,60.6827045 C95.4381156,62.3258864 95.1092077,64.0402727 93.7332762,65.1138182 C94.4733191,66.6638864 93.793576,68.2522955 93.2508779,69.7421136 C91.7050107,69.7914091 90.1591435,69.7147273 88.6132762,69.7037727 C88.6077944,69.22725 88.591349,68.2796818 88.5803854,67.8031591 C86.8919914,67.2828182 86.0532762,69.1834318 85.269379,70.3007955 C87.8348608,70.5746591 90.2358887,71.5879545 92.7246253,72.1630682 C93.6236403,74.2937273 93.1522056,76.7475455 91.8749465,78.6152955 C91.5460385,80.1763182 91.288394,81.7866364 89.8302355,82.7342045 C87.993833,79.0753864 85.0281799,75.8218864 84.5238544,71.6208182 C83.3726767,72.3931136 81.9528908,73.7898182 80.4947323,72.9353636 C79.2832548,71.5989091 79.8095075,69.5011136 80.3796146,67.9729545 C81.2183298,66.8775 82.6161884,67.0363409 83.8441113,66.9815682 C84.4306638,66.0668636 85.0007709,65.1412045 85.488651,64.1717273 C83.71803,64.6865909 81.9528908,64.3853409 80.231606,63.8540455 C80.012334,65.0261818 80.7249679,66.6255455 79.5628266,67.4307045 C76.7013276,69.6654318 73.0504497,70.0488409 69.6407709,70.8101818 C68.248394,70.5034545 66.8450535,69.7585455 65.3978587,70.1638636 C63.7807281,70.55275 62.7556317,72.0042273 61.2810278,72.6834091 C59.669379,73.4611818 57.8055675,74.1567955 57.109379,75.97525 C59.8941328,75.49325 61.8730621,73.0777727 64.6358887,72.6122045 C67.0917345,72.8751136 69.2899358,71.0511818 71.7402998,71.6536818 C72.7325054,71.9001591 73.368394,72.7491364 74.0974732,73.4009318 C74.892334,71.6920227 75.9503212,70.1419545 77.3536617,68.8712273 C77.9182869,69.4627727 79.0420557,69.7585455 79.1023555,70.7006364 C79.0694647,72.2123636 79.4477088,74.2006136 77.9073233,75.1262727 C76.772591,76.1779091 75.193833,76.2600682 73.7356745,76.2874545 C73.2477944,79.0589545 70.8796574,80.8171591 69.4324625,83.0737955 C68.0126767,85.2811364 65.2443683,86.0589091 63.6382013,88.0471591 C64.7455246,88.9125682 66.1050107,89.3397955 67.4370878,89.7341591 C68.1497216,88.7865909 68.8952463,87.8773636 69.6407709,86.9626591 C70.3917773,86.9517045 71.1373019,86.9462273 71.8883084,86.94075 C72.2281799,87.5103864 72.5406424,88.1019318 72.8202141,88.7099091 C72.2994433,90.1120909 70.780985,91.5690455 71.8005996,93.1081591 C72.5735332,94.5267727 72.6173876,96.1370909 72.8695503,97.6981136 C73.2697216,94.2638636 72.8531049,90.79675 73.0394861,87.3570227 C73.0943041,86.6011591 73.7301927,86.1246364 74.2071092,85.6207273 C74.7388437,91.3828182 76.0215846,97.0025 77.4304069,102.600273 C77.2166167,106.089295 78.296531,109.452341 78.9927195,112.831818 C78.8063383,115.411614 80.2754604,117.881864 79.1352463,120.395932 C78.1540043,120.209705 76.9480086,120.193273 76.3559743,119.23475 C74.3660814,116.129136 73.8782013,112.234795 71.7128908,109.260636 C71.6580728,110.717591 72.5899786,111.966409 72.5461242,113.406932 C72.5296788,114.688614 72.6996146,115.964818 72.9846681,117.213636 C71.542955,118.435068 69.8984154,119.360727 68.1606852,120.083727 C68.1168308,120.401409 68.0346039,121.04225 67.9962313,121.365409 C69.7175161,121.409227 71.4771734,121.316114 73.1162313,121.962432 C74.947152,122.641614 77.1234261,122.318455 78.7734475,123.424864 C81.048394,125.933455 83.3946039,128.945955 83.2082227,132.522614 C83.0821413,134.614932 83.5152034,136.756545 82.95606,138.810523 C82.764197,140.333205 81.1470664,140.919273 80.2370878,141.959955 C85.4119058,143.21425 91.1897216,142.277636 95.9150321,145.120341 C97.8226981,147.607023 100.60197,149.326886 102.197173,152.060045 C102.88788,153.013091 104.07743,153.391023 105.102527,153.867545 C104.570792,151.260364 101.818929,150.32375 100.48137,148.264295 C99.4179015,146.763523 97.8501071,145.673545 96.9291649,144.074182 C97.4663812,141.697045 98.5462955,139.1775 100.810278,137.9725 C104.039058,135.98425 106.670321,133.086773 110.178672,131.547659 C108.736959,129.679909 107.108865,127.981955 105.656188,126.125159 C105.042227,125.292614 104.302184,124.377909 104.510493,123.266023 C105.058672,121.683091 106.889593,120.669795 106.807366,118.851341 C106.845739,116.830227 106.790921,114.814591 106.823812,112.798955 C106.955375,110.306795 105.924797,107.984432 105.404026,105.596341 C105.135418,103.706682 105.628779,101.734864 105.0203,99.8945 C104.707837,98.8483409 104.181585,97.6762045 104.844882,96.6464773 C105.689079,94.2967273 107.79409,92.7630909 109.740128,91.3554318 C113.451306,91.3609091 116.855503,93.3491591 120.511863,93.8640227 C121.525996,93.99 122.468865,94.4062727 123.444625,94.7020455 C121.898758,92.3468182 120.352891,89.5315 121.032634,86.6230682 C121.558887,85.1003864 121.734304,83.4900682 122.074176,81.9235682 C123.345953,81.4470455 124.61773,80.9540909 125.894989,80.4775682 C125.752463,79.5957273 125.588009,78.7193636 125.445482,77.843 C126.366424,78.0073182 127.281884,78.2099773 128.208308,78.3742955 C126.377388,73.3790227 119.547066,72.3219091 118.395889,66.8829773 C118.209507,67.6552727 118.204026,68.5425909 117.540728,69.1012727 C116.268951,70.67325 113.961113,69.9831136 112.201456,70.4432045 C111.740985,68.2249091 113.199143,65.9080227 112.058929,63.8376136 C111.11606,62.4628182 109.657901,61.4714318 109.087794,59.8446818 C110.540471,58.8478182 111.795803,57.6154318 113.094989,56.4378182 C113.835032,56.33375 114.580557,56.2789773 115.331563,56.2570682 C115.117773,54.4112273 114.339358,52.4503636 115.254818,50.67025 C116.493704,47.8385 114.520257,45.1108182 113.769251,42.4433864 C112.952463,41.5232045 111.81773,40.9590455 110.78167,40.3346364 Z M82.8519058,50.1006136 C84.8198715,49.6624318 86.7220557,48.9777727 88.6571306,48.4355227 C88.6023126,48.1342727 88.4981585,47.5317727 88.4433405,47.2305227 C86.0642398,46.5622955 83.8660385,47.9644773 82.8519058,50.1006136 Z M78.0772591,61.2304318 C79.0475375,60.6991364 79.9904069,60.1185455 80.9058672,59.4886591 C81.3279657,56.9033864 80.2535332,54.4386136 80.39606,51.8642955 C79.4202998,54.9260909 77.2330621,57.84 78.0772591,61.2304318 Z M118.209507,55.1835227 C118.225953,56.4104318 118.225953,57.6373409 118.291734,58.8697273 C119.020814,57.6647273 119.481285,56.3282727 119.607366,54.9260909 C119.256531,54.9863409 118.554861,55.1177955 118.209507,55.1835227 Z M55.3003854,84.16925 C54.768651,85.9165 56.182955,87.4501364 56.6105353,89.0768864 C57.7452677,89.411 58.9019272,90.4188182 60.1024411,89.7670227 C60.8589293,89.2850227 62.5363597,89.4657727 62.4925054,88.3045909 C60.7383298,87.9102273 58.8745182,88.2991136 57.1696788,87.6254091 C56.2542184,85.0839545 56.7914347,82.3672273 56.4899358,79.7436136 C55.0865953,80.8664545 55.7005567,82.663 55.3003854,84.16925 Z M130.351692,79.8531591 C129.95152,81.9509545 131.552206,83.3476591 132.560857,84.9525 C133.344754,86.1465455 132.259358,88.8523182 134.474004,88.3155455 C134.627495,87.1543636 134.813876,86.0041364 135.07152,84.8648636 C133.854561,82.8985227 132.275803,81.1512727 130.351692,79.8531591 Z M132.96651,89.3562273 C132.100385,91.9743636 131.036916,94.4993864 129.09636,96.5205 C130.028266,96.4054773 130.960171,96.2849773 131.875632,96.0768409 C133.832634,94.4884318 133.953233,91.6950227 133.925824,89.3726591 C133.684625,89.3671818 133.207709,89.3617045 132.96651,89.3562273 Z M124.913747,94.9430455 C124.612248,95.7865455 124.924711,96.09875 125.840171,95.8741818 C126.147152,95.0197273 125.840171,94.7075227 124.913747,94.9430455 Z M71.9211991,103.723114 C72.6228694,102.507159 73.258758,101.187136 72.9353319,99.7411364 C72.0746895,100.907795 71.7731906,102.293545 71.9211991,103.723114 Z M164.832206,107.858455 C164.185353,108.099455 163.341156,108.658136 163.664582,109.47425 C164.415589,113.231659 165.85182,116.813795 166.981071,120.467136 C167.189379,121.573545 166.180728,122.055545 165.429722,122.586841 C163.823555,118.205023 162.222869,113.779386 161.28,109.205864 C158.012848,110.252023 154.816959,111.593955 151.939015,113.483614 C150.55212,114.661227 149.061071,115.712864 147.668694,116.879523 C146.873833,117.635386 145.788437,119.010182 146.758715,120.045386 C147.712548,121.244909 150.036831,122.055545 149.291306,123.961636 C147.180814,124.575091 146.106381,121.956955 144.752377,120.817682 C141.666124,122.285591 139.873576,125.4405 138.3606,128.359886 C135.844454,132.330909 134.287623,136.871568 133.51469,141.488909 C133.536617,143.520977 132.100385,145.246318 132.314176,147.294818 C132.445739,149.748636 131.875632,152.344864 132.971991,154.645318 C132.939101,159.788477 135.422355,164.340091 137.26424,168.979341 C139.42955,172.364295 141.320771,176.099795 144.752377,178.40025 C146.270835,176.587273 147.635803,174.522341 149.784668,173.388545 C149.94364,173.985568 150.06424,174.588068 150.146467,175.207 C149.137816,177.233591 147.098587,178.378341 145.306039,179.616205 C146.473662,180.437795 147.630321,181.29225 148.660899,182.289114 C151.368908,185.066091 155.00334,186.610682 158.29242,188.560591 C160.03015,189.688909 162.222869,189.480773 164.009936,190.483114 C165.91212,191.469023 168.04454,191.825045 170.138587,192.126295 C172.34227,193.041 174.743298,192.542568 177.056617,192.646636 C179.210964,192.635682 181.447537,192.975273 183.508694,192.164636 C187.389807,191.441636 191.35863,190.685773 194.801199,188.653705 C200.16788,186.928364 204.651991,183.302409 208.582441,179.380682 C211.65773,176.499636 213.784668,172.807955 216.010278,169.269636 C217.484882,166.996568 217.852163,164.268886 218.904668,161.809591 C219.688565,159.799432 220.094218,157.668773 220.538244,155.5655 C220.680771,152.646114 220.532762,149.715773 220.58758,146.790909 C220.746552,140.963091 218.564797,135.403659 216.037687,130.2605 C215.144154,127.417795 212.765054,125.473364 211.367195,122.920955 C210.078972,120.450705 207.656017,118.955409 205.786724,116.978114 C202.579872,114.683136 199.537473,112.054045 195.804368,110.619 C193.392377,109.786455 191.090021,108.614318 188.601285,108.02825 C187.937987,107.825591 187.258244,108.565023 187.148608,109.173 C186.101585,113.308341 185.493105,117.591568 183.881456,121.568068 C183.684111,121.622841 183.28394,121.732386 183.081113,121.787159 C181.869636,121.447568 182.286253,119.875591 182.149208,118.922545 C182.845396,115.072023 184.857216,111.577523 185.301242,107.661273 C183.514176,107.031386 181.683255,106.489136 179.824925,106.138591 C177.270407,106.078341 174.704925,106.056432 172.150407,106.144068 C169.72197,106.773955 167.194861,106.982091 164.832206,107.858455 Z M73.3190578,127.280864 C73.6534475,130.293364 76.120257,132.708841 75.6323769,135.841841 C75.8900214,138.125864 74.349636,139.966227 73.4451392,141.916136 C72.1898073,144.556182 70.3972591,146.911409 69.1857816,149.567886 C69.2241542,149.945818 69.311863,150.701682 69.3557173,151.079614 C70.0847966,150.718114 70.808394,150.345659 71.5374732,149.984159 C72.0253533,150.652386 72.5187152,151.320614 73.0175589,151.988841 C73.2258672,151.16725 73.4451392,150.351136 73.587666,149.518591 C73.5109208,148.264295 72.71606,146.873068 73.4999572,145.695455 C74.1687366,144.391864 75.248651,143.378568 76.3998287,142.496727 C76.3395289,139.714273 76.4162741,136.816795 77.5400428,134.226045 C76.4382013,131.799614 76.1915203,128.327023 73.3190578,127.280864 Z M61.0233833,129.110273 C61.2645824,130.315273 61.6263812,131.498364 61.8346895,132.708841 C62.0484797,134.456091 61.5605996,136.22525 61.9388437,137.967023 C62.119743,139.363727 63.2873662,140.820682 62.3883512,142.200955 C60.8644111,144.939591 60.1572591,148.056159 59.696788,151.134386 C59.6035974,153.363636 59.7296788,155.598364 59.3295075,157.811182 C59.559743,159.229795 59.7022698,160.659364 59.3623983,162.077977 C59.9599143,164.882341 60.2614133,167.768864 61.4454818,170.419864 C61.5660814,167.681227 62.3335332,164.937114 61.8182441,162.198477 C60.7492934,159.213364 61.2207281,155.981773 61.2316916,152.876159 C61.8456531,151.024841 62.1307066,149.085886 62.1142612,147.135977 C62.0978158,144.402818 63.9561456,141.992818 64.0328908,139.336341 C62.6295503,135.956864 64.4275803,132.265182 62.96394,128.956909 C62.3170878,129.000727 61.6702355,129.0555 61.0233833,129.110273 Z M115.792034,139.560909 C115.940043,141.242432 117.052848,142.589841 118.028608,143.887955 C119.092077,145.016273 119.903383,146.412977 121.240942,147.256477 C121.08197,146.396545 120.791435,145.574955 120.265182,144.879341 C118.982441,142.951341 118.088908,140.508477 115.792034,139.560909 Z M77.753833,146.714227 C75.9722484,147.957568 76.4491649,150.405909 76.3998287,152.268182 C76.7013276,154.963 75.3253961,157.383955 74.6292077,159.9035 C73.313576,164.42225 70.7371306,168.590455 70.4959315,173.388545 C69.6078801,176.412 70.0847966,179.561432 69.7887794,182.650614 C68.9610278,184.688159 69.3502355,186.961227 68.5005567,188.998773 C67.4644968,191.200636 69.9806424,192.734273 71.6690364,193.512045 C75.7858672,196.332841 80.3357602,198.436114 84.8143897,200.599636 C88.8709208,201.755341 92.6204711,203.82575 96.7976017,204.587091 C100.684197,205.824955 104.80651,205.792091 108.758887,206.756091 C113.79666,207.008045 118.850878,206.953273 123.899615,206.876591 C125.149465,206.788955 126.404797,207.451705 127.627238,206.969705 C129.419786,206.350773 131.376788,206.652023 133.163854,205.989273 C136.979186,205.052659 140.810964,204.154386 144.604368,203.119182 C147.027323,202.122318 149.45576,201.169273 152.021242,200.621545 C154.323597,199.356295 156.779443,198.310136 158.922827,196.781977 C155.962655,196.190432 152.920257,196.064455 150.031349,195.127841 C147.99212,194.371977 145.815846,194.738955 143.705353,194.525341 C141.035717,193.051955 138.640171,191.140386 136.403597,189.075455 C134.09576,186.440886 131.349379,184.211636 129.293704,181.363455 C128.564625,180.224182 127.100985,179.933886 126.333533,178.843909 C124.820557,176.915909 123.165054,175.0865 121.306724,173.481659 C117.803854,170.803273 114.55863,167.79625 111.554604,164.575614 C109.899101,162.088932 107.805054,159.887068 105.343726,158.183636 C102.997516,156.304932 100.020899,155.225909 98.096788,152.826864 C95.4490792,149.819841 92.1216274,147.103114 88.048651,146.456795 C84.7486081,145.454455 80.8620128,144.824568 77.753833,146.714227 Z M67.4644968,155.549068 C67.2890792,157.942636 66.450364,160.210227 66.2968737,162.609273 C65.3430407,166.235227 65.8364026,170.003591 65.7103212,173.706227 C65.5842398,174.872886 66.1324197,175.93 66.7737901,176.866614 C67.3658244,175.157705 67.6947323,173.383068 67.7221413,171.581045 C68.4950749,167.993432 69.9532334,164.592045 70.7864668,161.015386 C69.5695075,159.859682 69.2351178,158.265795 69.6572163,156.660955 C70.2053961,154.760341 69.7065525,152.832341 69.1419272,151.002932 C68.3525482,152.421545 67.5741328,153.894932 67.4644968,155.549068 Z M110.217045,158.178159 C111.11606,159.646068 112.629036,160.631977 114.339358,160.883932 C113.659615,159.005227 112.596146,157.285364 111.192805,155.861273 C110.792634,156.58975 110.123854,157.274409 110.217045,158.178159 Z M117.135075,164.570136 C119.366167,169.24225 123.959914,172.13425 127.906809,175.256295 C127.473747,173.777432 127.671092,171.734409 126.103298,170.912818 C124.376531,169.877614 122.578501,168.968386 120.884625,167.883886 C119.738929,166.662455 118.626124,165.38625 117.135075,164.570136 Z M128.690707,175.612318 C129.107323,177.951114 131.316488,179.041091 132.533448,180.875977 C133.476317,182.168614 134.64394,183.362659 136.277516,183.718682 C135.937645,182.398659 135.422355,181.084114 134.232805,180.311818 C132.275803,178.871295 130.461328,177.271932 128.690707,175.612318 Z M65.0415418,182.393182 C65.2608137,185.433068 63.292848,188.270295 64.1863812,191.310182 C64.5207709,189.289068 66.2694647,187.79925 66.2365739,185.695977 C66.3078373,183.915864 67.2232976,182.004295 66.3516916,180.306341 C65.008651,179.961273 65.0525054,181.483955 65.0415418,182.393182 Z M53.3707923,185.898636 C52.5375589,187.273432 51.4028266,189.513636 53.0418844,190.740545 C54.4232976,191.830523 55.9472377,193.172455 57.8494218,192.520659 C56.6817987,191.2335 55.1523769,190.285932 54.3081799,188.724909 C55.7553747,187.131023 57.4382869,185.75075 58.7758458,184.06375 C59.1321627,182.820409 59.2692077,181.527773 59.3569165,180.240614 C57.2957602,182.048114 55.1743041,183.828227 53.3707923,185.898636 Z M138.607281,185.953409 C139.089679,187.541818 140.09833,188.878273 141.452334,189.825841 C141.720942,189.612227 142.269122,189.185 142.53773,188.965909 C141.260471,187.925227 139.999657,186.846205 138.607281,185.953409 Z M145.92,191.408773 C145.930964,191.923636 145.952891,192.443977 145.9803,192.969795 C147.339786,193.068386 148.721199,193.1615 150.069722,192.832864 C148.81439,192.033182 147.372677,191.644295 145.92,191.408773 Z M58.2441113,192.657591 C57.953576,193.380591 59.1650535,193.879023 59.6200428,193.364159 C59.9379872,192.646636 58.688137,192.1975 58.2441113,192.657591 Z" id="Shape"></path>
                <path d="M47.7793576,28.0052955 C48.557773,25.6445909 50.7285653,24.1438182 53.0309208,23.4920227 C53.1350749,26.5866818 53.2447109,29.7251591 54.467152,32.6281136 C54.8837687,35.8870909 56.9284797,38.9762727 56.0075375,42.3338409 C53.897045,41.8354091 51.7920343,41.1069318 50.0049679,39.8526364 C46.869379,37.6617273 43.3774732,35.8925682 39.6169593,35.0709773 C39.7594861,34.7204318 40.0390578,34.0138636 40.1815846,33.6633182 C41.8699786,32.0913409 43.5090364,30.3605227 45.6633833,29.4129545 C45.8716916,30.2783636 45.970364,31.1821136 46.2828266,32.0256136 C47.9438116,33.7071364 49.9556317,35.3886591 52.5046681,34.8409318 C52.6691221,32.7979091 51.5563169,31.0123182 50.5586296,29.3253182 C49.7308779,28.7063864 48.694818,28.4599091 47.7793576,28.0052955 Z" id="Shape"></path>
                <path d="M20.8089079,54.7617727 C21.6421413,53.3869773 23.3305353,53.0364318 24.6680942,52.3353409 C25.6602998,52.9049773 26.8279229,53.2445682 27.6173019,54.1099773 C28.0558458,55.2711591 28.16,56.5145 28.3902355,57.7195 C29.9415846,57.7140227 31.4381156,58.0974318 32.8633833,58.7054091 C33.4334904,57.9495455 33.987152,57.17725 34.5462955,56.4159091 C35.2041113,56.93625 35.9002998,57.41825 36.4484797,58.0645682 C37.0131049,60.5841136 34.8697216,62.4354318 33.1484368,63.8978636 C31.4710064,64.3031818 30.2211563,62.6380909 28.6698073,62.2656364 C27.8091649,61.6412273 27.0691221,62.5833182 26.3290792,62.9448182 C27.0526767,64.2265 27.968137,65.4041136 29.141242,66.3023864 C30.2979015,66.1490227 31.372334,65.6396364 32.4961028,65.3383864 C31.7889507,67.54025 30.9502355,69.7804545 29.3605139,71.51675 C26.0385439,75.0660227 25.0298929,79.9900909 22.8097645,84.1911591 C21.6695503,87.30225 20.9733619,90.5776591 19.6138758,93.6120682 C18.983469,94.954 17.7116916,96.0056364 17.5307923,97.54475 C17.3279657,100.047864 16.7140043,102.48525 16.1877516,104.939068 C15.9191435,105.694932 15.9629979,106.910886 14.8830835,106.916364 C12.1750749,104.320136 8.16239829,104.796659 4.85139186,103.514977 C3.19588865,102.589318 1.80899358,104.287273 0.301498929,104.758318 C-0.16993576,102.353795 0.613961456,99.95475 1.17858672,97.6323864 C1.24985011,96.641 2.19820128,96.2356818 2.90535332,95.73725 C3.15751606,96.5752727 3.37678801,97.42425 3.59605996,98.2732273 C7.21952891,99.3248636 10.8704069,100.650364 14.6747752,100.738 C15.1352463,99.6754091 15.6450535,98.6182955 15.8752891,97.4790227 C15.4477088,95.4305227 13.8579872,94.0119091 12.3395289,92.72475 C12.827409,92.1551136 13.3152891,91.5909545 13.7976874,91.0213182 C11.846167,89.95325 9.8343469,89.0385455 7.6964454,88.4141364 C6.72616702,88.8304091 5.73396146,89.1973864 4.7143469,89.4767273 C5.1145182,86.6175909 5.62980728,83.3093182 7.86638116,81.2608182 C8.79280514,82.7122955 9.59314775,84.5197955 11.4295503,84.9963182 C14.1430407,85.9329318 16.7852677,87.4994318 19.7344754,87.42275 C20.0030835,86.6833182 20.2771734,85.9438864 20.5567452,85.2154091 C19.3671949,83.7584545 17.7610278,82.7506364 16.0507066,82.0057273 C14.1265953,81.1841364 12.4162741,79.8969773 10.4208994,79.2342273 C9.53832976,79.3875909 8.71057816,79.7381364 7.86089936,80.012 C7.84993576,78.50575 7.94312634,76.9337727 8.83665953,75.6630455 C10.7826981,72.8805909 11.3966595,69.4518182 13.1837259,66.5872045 C15.1791006,66.8994091 18.4243255,67.2499545 18.2708351,69.9612045 C16.9223126,70.6951591 15.2394004,70.6239545 13.9018415,71.4674545 C12.6465096,71.87825 12.2901927,73.2256591 11.8790578,74.3265909 C13.1672805,75.1974773 14.4664668,76.1231364 16.0342612,76.4189091 C15.9301071,74.8743182 15.5354176,73.3790227 15.195546,71.87825 C17.7116916,72.7874773 20.7211991,73.4173636 22.305439,75.7671136 C21.187152,76.3038864 18.3914347,75.7890227 18.9450964,77.7717955 C19.498758,79.3054318 21.4776874,79.3328182 22.8591006,79.3930682 C23.2263812,78.6152955 23.7087794,77.8758636 23.9061242,77.0323636 C24.2185867,74.8085909 22.6453105,72.9517955 22.3931478,70.8047045 C24.0102784,71.1114318 25.5506638,71.7084545 27.1897216,71.9165909 C25.8357173,68.6466591 22.4150749,67.0637273 19.6029122,65.25075 C18.3475803,64.2648409 16.8071949,64.8947273 15.414818,65.1083409 C15.551863,64.3634318 15.414818,63.5308864 15.7985439,62.8517045 C17.4321199,60.1349773 19.0163597,57.3799091 20.8089079,54.7617727 Z M20.1730193,59.5817727 C21.3132334,60.7539091 22.4589293,62.0246364 24.1802141,62.2601591 C25.0792291,60.8744091 25.7425268,58.5465682 23.774561,57.7414091 C22.2615846,56.4323409 20.617045,58.1138636 20.1730193,59.5817727 Z" id="Shape"></path>
                <path d="M228.66227,63.0872273 C231.633405,61.7233864 235.289764,60.0856818 235.602227,56.3611364 C238.025182,58.0317045 239.960257,60.8689318 240.130193,63.8759545 C238.348608,64.0238409 236.34227,63.6185227 234.867666,64.8837727 C233.003854,66.5214773 230.312291,67.1623182 228.930878,69.3258409 C227.593319,71.7029773 230.679572,74.8085909 233.036745,73.505 C235.262355,72.4752727 237.696274,71.75775 239.653276,70.2295909 C240.91409,69.3148864 241.144325,67.6990909 241.670578,66.3462045 C243.742698,67.5238182 244.274433,70.0050227 245.310493,71.9768409 C247.119486,75.25225 248.429636,78.7577045 249.827495,82.2138636 C250.7594,84.2952273 250.33182,86.9078864 248.621499,88.4634318 C247.015332,88.6441818 245.392719,88.4360455 243.786552,88.4689091 C243.030064,89.6136591 242.514775,90.91725 241.659615,91.9962727 C240.864754,92.3851591 240.004111,92.6152045 239.170878,92.9000227 C239.181842,93.2396136 239.209251,93.9242727 239.220214,94.2638636 C243.238373,94.4391364 246.976959,92.6973636 250.7594,91.5964318 C251.15409,90.7857955 250.945782,89.2521591 252.173704,89.2740682 C252.897302,89.6465227 253.248137,90.4133409 253.461927,91.1637273 C254.245824,94.3788864 255.292848,97.5337955 255.945182,100.787295 C255.791692,102.84675 254.267752,104.265364 252.765739,105.481318 C251.406253,105.317 250.096103,104.917159 248.802398,104.478977 C247.930792,105.541568 247.020814,106.58225 246.001199,107.502432 C244.268951,107.951568 242.31743,107.721523 241.160771,106.231705 C238.770707,102.923432 238.266381,98.7387955 237.191949,94.8992273 C236.852077,93.9790455 237.252248,93.0424318 237.367366,92.1277273 C236.243597,90.6652955 234.588094,89.5095909 234.20985,87.5980227 C233.398544,84.53075 230.931734,81.9947727 230.986552,78.7084091 C232.247366,79.0041818 233.458844,80.0174773 234.807366,79.5190455 C238.101927,78.7138864 241.133362,77.1090455 244.181242,75.6520909 C244.181242,74.8633636 244.186724,74.0746364 244.197687,73.2859091 C242.01045,71.4565 239.127024,72.9025 237.19743,74.3704091 C235.070493,75.97525 232.367966,76.5887045 229.742184,76.1888636 C227.13833,74.2772955 224.67152,71.3414773 225.055246,67.8962727 C224.753747,65.6067727 226.705268,63.8485682 228.66227,63.0872273 Z M242.569593,82.6794318 C242.964283,84.4978864 245.387238,84.6731591 246.702869,83.7694091 C247.453876,82.5644091 247.048223,81.3210682 246.302698,80.2365682 C244.921285,80.7733409 242.734047,80.7897727 242.569593,82.6794318 Z M235.251392,85.4125909 C235.942099,86.5409091 236.76985,87.5925455 237.827837,88.4086591 C238.885824,87.6856591 239.993148,86.9626591 240.744154,85.8945909 C240.897645,84.9086818 240.7606,83.8296591 240.080857,83.0573636 C238.222527,83.0628409 236.177816,83.6762955 235.251392,85.4125909 Z M248.539272,97.6159545 C248.468009,98.0103182 248.32,98.81 248.248737,99.2043636 C249.47666,100.179318 251.028009,100.097159 252.502612,99.9985682 C252.727366,99.1276818 252.913747,98.2513182 253.072719,97.3694773 C252.414904,97.0737045 251.773533,96.7176818 251.077345,96.5424091 C250.189293,96.8053182 249.367024,97.2270682 248.539272,97.6159545 Z M240.831863,100.102636 C241.380043,101.187136 241.878887,102.781023 243.397345,102.676955 C245.584582,102.857705 246.58227,100.091682 245.688737,98.3827727 C243.90167,98.3225227 241.911777,98.4539773 240.831863,100.102636 Z" id="Shape"></path>
                <path d="M97.7404711,58.4151136 C99.9989722,59.0395227 102.18621,59.9432727 104.505011,60.3266818 C108.490278,60.67175 111.620385,65.3931591 109.838801,69.1615227 C109.383812,70.7663636 106.045396,70.3227045 106.610021,72.2233182 C108.961713,73.1763636 111.428522,70.5965682 113.637687,72.1137727 C114.849165,72.6067273 114.980728,74.0965455 115.528908,75.13175 C116.230578,77.2514545 117.6997,79.0096591 118.362998,81.1403182 C116.60334,80.976 115.013619,80.19275 113.423897,79.4752273 C112.250792,82.60275 109.877173,84.9963182 108.144925,87.7952045 C106.620985,89.7779773 105.513662,92.0400909 103.951349,93.99 C103.183897,95.0964091 102.268437,96.1809091 101.934047,97.5173636 C101.51743,102.425 102.663126,107.590068 100.760942,112.273136 C99.2479657,114.184705 97.4499358,115.855273 95.5751606,117.410818 C94.3691649,118.566523 93.0370878,119.618159 91.4638116,120.231614 C91.2500214,119.399068 90.9704497,118.582955 90.8388865,117.739455 C92.0448822,114.228523 92.5217987,110.503977 92.7629979,106.82325 C92.4176445,101.614364 94.0183298,96.2959318 92.4724625,91.1911136 C92.0997002,89.7286818 92.6204711,88.2826818 92.9438972,86.8695455 C93.3550321,85.2099318 92.8287794,83.44625 93.3550321,81.8140227 C94.7419272,78.9329773 97.7952891,77.5636591 99.757773,75.1481818 C101.429722,75.5370682 103.019443,76.4189091 104.790064,76.2326818 C103.37576,74.4744773 101.226895,73.6693182 99.1657388,72.9463182 C98.3873233,75.1755682 96.4029122,76.45725 94.1992291,77.0159318 C94.0841113,75.3015455 94.3307923,73.5926364 94.72,71.9275455 C95.4874518,71.9275455 96.2549036,71.9494545 97.0223555,71.9658864 C96.9346467,71.1004773 96.8414561,70.2405455 96.7427837,69.3751364 C97.4389722,69.3422727 98.1406424,69.3148864 98.8423126,69.2875 C98.8971306,68.9479091 99.0177302,68.26325 99.07803,67.9181818 C98.6175589,67.5840682 98.1570878,67.2499545 97.7020985,66.9158409 C97.7240257,64.0786136 97.6637259,61.2468636 97.7404711,58.4151136 Z" id="Shape"></path>
                <path d="M117.217302,69.9392955 C120.59409,70.6020455 121.482141,74.52925 124.135332,76.2381591 C124.168223,78.3085682 122.200257,78.86725 120.583126,79.3656818 C118.64257,77.1419091 118.099872,74.1239318 116.181242,71.8837273 C116.526595,71.2374091 116.871949,70.5856136 117.217302,69.9392955 Z" id="Shape"></path>
                <path d="M81.9528908,75.1865227 C84.0469379,74.5949773 84.644454,76.8680455 85.7737045,78.1004318 C86.4479657,78.7850909 86.6782013,79.7162273 86.8645824,80.6309318 C85.8504497,80.8116818 84.8363169,81.0143409 83.8441113,81.2827273 C85.488651,83.3038409 88.0815418,84.2240227 89.572591,86.3765909 C90.1262527,88.2881591 89.1504925,90.2161591 88.9531478,92.1167727 C88.6900214,93.4587045 89.7480086,94.5925 89.6931906,95.9234773 C89.5013276,99.0345682 91.0581585,101.981341 90.4277516,105.114341 C89.435546,108.324023 89.6602998,111.741841 90.0220985,115.044636 C89.7205996,117.032886 89.1614561,119.004705 89.3149465,121.047727 C89.3971734,122.285591 89.1559743,124.224545 87.7252248,124.503886 C85.6585867,123.786364 82.8080514,123.906864 81.6349465,121.732386 C80.4179872,115.504727 80.3247966,109.008682 78.5048394,102.896045 C78.5925482,99.7411364 76.8383726,96.8600909 77.1289079,93.6504091 C76.092848,89.5150682 76.4436831,85.0675227 74.7388437,81.0745909 C76.4162741,79.4149773 77.5729336,76.7530227 80.1658244,76.4517727 C80.2919058,78.3469091 79.6286081,80.2037045 79.8917345,82.1043182 C80.5221413,81.5237273 81.8706638,81.1074545 81.6185011,80.0229545 C81.2018844,78.4016818 81.2895931,76.7311136 81.9528908,75.1865227 Z" id="Shape"></path>
                <path d="M203.632377,118.851341 C204.290193,118.007841 205.605824,118.807523 205.309807,119.771523 C204.476574,121.376364 203.012934,122.504682 201.69182,123.687773 C201.308094,123.501545 200.535161,123.134568 200.145953,122.948341 C201.012077,121.359932 202.278373,120.034432 203.632377,118.851341 Z" id="Shape"></path>
                <path d="M96.1123769,123.874 C97.4115632,123.589182 98.7052677,123.276977 100.004454,122.992159 C99.4124197,124.542227 97.8446253,125.330955 96.2603854,125.424068 C96.2220128,125.035182 96.1507495,124.262886 96.1123769,123.874 Z" id="Shape"></path>
                <path d="M168.07743,123.118136 C173.04394,122.532068 178.142013,123.507023 183.092077,122.586841 C184.966852,122.784023 186.858073,123.052409 188.656103,123.660386 C192.33439,123.69325 196.02364,124.262886 199.52651,125.363818 C201.077859,125.648636 201.774047,127.193227 202.694989,128.294159 C203.64334,129.696341 205.096017,130.68225 205.951178,132.155636 C207.464154,134.439659 208.111006,137.145432 208.774304,139.769045 C209.119657,140.716614 208.149379,141.236955 207.628608,141.850409 C208.697559,142.913 209.92,144.107045 209.898073,145.74475 C209.903555,147.678227 209.985782,149.622659 209.837773,151.550659 C208.88394,153.664886 205.890878,153.276 204.487537,155.067068 C206.307495,154.804159 208.067152,153.982568 209.936445,154.223568 C208.856531,159.306477 206.976274,164.362 203.648822,168.409705 C202.996488,169.253205 202.694989,170.600614 201.439657,170.715636 C197.909379,171.608432 194.444882,172.884636 190.788522,173.169455 C188.721884,173.295432 186.781328,174.040341 184.80788,174.593545 C186.907409,178.296182 188.064069,182.387705 189.445482,186.380636 C189.845653,187.31725 189.746981,188.3415 189.768908,189.338364 C189.138501,189.097364 188.52454,188.812545 187.943469,188.494864 C186.068694,184.589568 185.262869,180.284432 183.464839,176.357227 C183.475803,175.672568 183.585439,174.998864 183.651221,174.325159 C177.972077,174.308727 172.292934,174.281341 166.61379,174.308727 C163.774218,174.078682 161.016874,173.235182 158.182784,172.9175 C155.288394,172.315 151.933533,172.462886 149.57636,170.419864 C146.413362,166.772 144.291906,162.329932 142.948865,157.723545 C142.614475,156.496636 143.798544,155.751727 144.450878,154.913705 C140.416274,152.930932 141.211135,147.492 142.334904,143.931773 C143.179101,143.619568 144.017816,143.296409 144.856531,142.967773 C144.111006,142.546023 143.354518,142.162614 142.652848,141.680614 C142.894047,139.232273 143.869807,136.893477 144.428951,134.494432 C145.793919,131.213545 147.964711,128.228432 150.9797,126.278523 C154.394861,125.215932 157.947066,124.772273 161.438972,124.032841 C163.609764,123.402955 165.966938,124.076659 168.07743,123.118136 Z M176.311092,125.769136 C175.795803,127.987432 176.190493,130.315273 176.069893,132.577386 C176.037002,133.755 176.146638,135.644659 177.687024,135.726818 C178.92591,136.214295 180.186724,135.529636 181.436574,135.38175 C181.590064,134.083636 180.795203,133.179886 179.775589,132.511659 C180.318287,131.054705 180.137388,129.636091 179.337045,128.321545 C179.945525,127.499955 180.477259,126.629068 180.87743,125.686977 C179.419272,125.215932 177.681542,124.892773 176.311092,125.769136 Z M170.346895,126.152545 C169.78227,128.233909 170.039914,130.413864 170.007024,132.544523 C169.913833,133.722136 170.719657,134.669705 171.295246,135.617273 C171.706381,135.442 172.528651,135.085977 172.939786,134.910705 C173.921028,131.991318 172.89045,128.929523 171.953062,126.141591 C171.547409,126.147068 170.747066,126.152545 170.346895,126.152545 Z M184.418672,126.136114 C184.051392,127.839545 183.530621,129.564886 183.755375,131.334045 C183.958201,132.856727 183.547066,134.488955 184.572163,135.808977 C185.575332,135.365318 186.54561,134.855932 187.504925,134.319159 C187.959914,134.938091 188.425867,135.546068 188.913747,136.154045 C189.44,136.115705 190.487024,136.0445 191.013276,136.006159 C190.744668,134.669705 190.421242,133.344205 190.306124,131.985841 C190.503469,130.523409 191.073576,129.110273 190.952976,127.614977 C189.725054,125.314523 186.567537,125.911545 184.418672,126.136114 Z M162.069379,126.848159 C162.003597,130.183818 161.521199,134.160318 163.99349,136.816795 C165.829893,136.860614 167.945867,136.630568 168.784582,134.719 C167.611478,133.924795 165.807966,133.744045 165.391349,132.183023 C164.503298,130.545318 164.645824,128.650182 164.591006,126.859114 C163.746809,126.842682 162.908094,126.837205 162.069379,126.848159 Z M160.12334,142.787023 C160.101413,146.363682 160.24394,150.077273 161.691135,153.401977 C162.617559,154.092114 163.927709,154.765818 164.974732,153.900409 C167.096188,152.558477 166.657645,149.60075 167.326424,147.481045 C167.880086,145.854295 167.233233,144.17825 167.288051,142.518636 C166.904325,142.535068 166.136874,142.567932 165.753148,142.584364 C165.15015,143.855091 164.60197,145.153205 163.977045,146.418455 C162.930021,145.377773 162.672377,143.959159 162.337987,142.595318 C161.592463,142.633659 160.857901,142.699386 160.12334,142.787023 Z M173.16454,143.121136 C172.879486,146.522523 172.950749,149.96225 173.093276,153.374591 C175.494304,154.880841 179.123255,154.552205 180.575931,151.906682 C181.562655,150.181341 179.183555,148.762727 179.600171,147.015477 C179.802998,145.805 179.550835,144.594523 179.375418,143.400477 C177.407452,142.595318 174.979015,141.247909 173.16454,143.121136 Z M185.038116,142.496727 C184.276146,146.188409 184.133619,150.060841 184.966852,153.752523 C185.854904,153.812773 186.8197,154.097591 187.64197,153.582727 C187.998287,152.958318 188.25045,152.284614 188.530021,151.627341 C189.28651,152.437977 189.889507,153.412932 190.832377,154.037341 C191.539529,153.982568 192.241199,153.862068 192.931906,153.686795 C192.416617,151.397295 191.11743,149.250205 191.265439,146.840205 C191.555974,145.602341 192.104154,144.441159 192.537216,143.247114 C191.835546,142.891091 191.139358,142.409091 190.32257,142.447432 C189.615418,142.797977 189.10561,143.422386 188.535503,143.948205 C187.822869,142.578886 186.457901,142.315977 185.038116,142.496727 Z M199.745782,155.466909 C199.756745,157.290841 201.379358,154.672705 199.745782,155.466909 Z M189.768908,156.781455 C189.023383,157.099136 188.458758,157.707114 187.850278,158.2165 C190.223897,158.106955 192.444026,157.066273 194.888908,157.422295 C194.921799,157.099136 194.998544,156.458295 195.036916,156.135136 C193.293704,156.46925 191.555974,156.923864 189.768908,156.781455 Z M195.903041,156.283023 C196.007195,158.101477 197.487281,155.38475 195.903041,156.283023 Z M164.251135,160.533386 C163.615246,163.069364 164.793833,165.616295 164.656788,168.185136 C164.508779,169.625659 164.985696,170.967591 165.627066,172.232841 C166.427409,171.756318 167.49636,171.520795 168.011649,170.68825 C168.115803,167.341636 168.19803,163.973114 167.896531,160.631977 C166.679572,160.549818 165.462612,160.527909 164.251135,160.533386 Z M169.798715,162.001295 C169.146381,164.367477 169.546552,167.336159 171.953062,168.563068 C171.810535,169.658523 171.662527,170.764932 171.772163,171.876818 C175.477859,170.480114 176.24531,165.912068 175.620385,162.450432 C174.452762,160.270477 171.218501,159.821341 169.798715,162.001295 Z M177.900814,160.571727 C177.648651,161.086591 177.396488,161.606932 177.149807,162.127273 C177.259443,162.450432 177.484197,163.107705 177.593833,163.436341 C178.251649,163.682818 178.914946,163.929295 179.583726,164.175773 C179.605653,166.766523 178.542184,169.176523 178.22424,171.717977 C178.997173,171.597477 179.830407,171.586523 180.482741,171.082614 C181.749036,169.264159 181.688737,166.908932 182.746724,164.997364 C183.607366,163.688295 183.251049,162.094409 183.251049,160.631977 C181.463983,160.516955 179.682398,160.511477 177.900814,160.571727 Z M185.027152,160.768909 C184.637944,162.592841 184.862698,164.455114 185.306724,166.246182 C186.200257,166.684364 187.48848,166.958227 187.598116,168.163227 C187.422698,169.894045 185.361542,169.664 184.155546,170.222682 C185.224497,170.984023 186.468865,172.128773 187.883169,171.466023 C189.423555,170.655386 191.068094,169.423 191.347666,167.593591 C191.139358,165.347909 188.875375,164.367477 187.09379,163.562318 C187.992805,163.310364 188.919229,163.146045 189.807281,162.839318 C190.470578,162.269682 190.421242,161.404273 190.382869,160.615545 C188.595803,160.500523 186.792291,160.429318 185.027152,160.768909 Z" id="Shape"></path>
                <path d="M95.8273233,134.844977 C97.8336617,131.843432 100.508779,129.373182 103.200343,126.996045 C103.671777,126.924841 104.620128,126.793386 105.091563,126.722182 C104.938073,129.274591 102.410964,130.408386 100.645824,131.772227 C99.07803,132.873159 97.9816702,134.916182 95.8273233,134.844977 Z" id="Shape"></path>
                <path d="M187.088308,128.694 C187.652934,127.773818 188.858929,128.935 188.266895,129.674432 C187.680343,130.583659 186.479829,129.444386 187.088308,128.694 Z" id="Shape"></path>
                <path d="M93.2563597,137.643864 C93.820985,136.340273 94.6542184,134.697091 96.3700214,135.036682 C96.0246681,136.597705 94.8899358,137.643864 93.2563597,137.643864 Z" id="Shape"></path>
                <path d="M175.719058,151.134386 C175.93833,150.411386 176.174047,149.693864 176.42621,148.981818 C176.952463,149.496682 177.46227,150.033455 177.961113,150.586659 C177.215589,150.778364 176.464582,150.959114 175.719058,151.134386 Z" id="Shape"></path>
                <path d="M172.205225,164.099091 C172.879486,163.529455 173.871692,164.712545 173.060385,165.2055 C172.34227,165.808 171.448737,164.630386 172.205225,164.099091 Z" id="Shape"></path>
                <path d="M202.711435,172.473841 C204.805482,173.377591 206.543212,175.152227 207.053019,177.419818 C204.427238,177.693682 201.982355,175.113886 202.711435,172.473841 Z" id="Shape"></path>
                <path d="M166.378073,175.979295 C166.767281,175.962864 167.534732,175.940955 167.918458,175.924523 C167.907495,177.934682 167.463469,179.9065 166.542527,181.703045 C165.665439,184.430727 165.988865,187.91975 163.242484,189.661523 C162.891649,188.5825 162.502441,187.448705 162.847794,186.320386 C163.801627,182.7985 165.155632,179.408068 166.378073,175.979295 Z" id="Shape"></path>
            </g>
        </g>
    </g>
</svg>