<?xml version="1.0" encoding="UTF-8"?>
<svg width="256px" height="256px" viewBox="0 0 256 256" version="1.1" xmlns="http://www.w3.org/2000/svg" xmlns:xlink="http://www.w3.org/1999/xlink">
    <!-- Generator: Sketch 51.3 (57544) - http://www.bohemiancoding.com/sketch -->
    <title>logo/nhhi</title>
    <desc>Created with Sketch.</desc>
    <defs></defs>
    <g id="logo/nhhi" stroke="none" stroke-width="1" fill="none" fill-rule="evenodd">
        <g id="nhhi" transform="translate(8.000000, 0.000000)" fill-rule="nonzero">
            <g id="#fffeffff" transform="translate(2.225657, 5.944848)" fill="#FFFEFF">
                <path d="M103.84544,1.11837446 C107.695827,-0.029724238 111.768779,0.30095791 115.734158,0.263802612 C128.101391,0.211785196 140.464915,2.08069666 152.294281,5.69962264 C141.047295,12.7071118 131.339722,22.1891437 124.161978,33.343164 C120.014838,39.7227286 116.665224,46.6150363 114.131685,53.7860087 C97.7471406,53.7674311 81.3588872,53.7674311 64.9706337,53.7860087 C70.890881,35.2752395 82.838949,19.1869956 97.1907264,6.32011611 C99.2976816,4.46978229 101.208037,2.21817126 103.84544,1.11837446 Z" id="Shape"></path>
                <path d="M87.9023184,4.37317852 C89.961051,3.871582 92.0049459,3.23994194 94.1267388,3.05416546 C92.9026275,4.3954717 91.3224111,5.33550073 89.9536321,6.52075472 C75.6426584,18.9269086 65.2636785,35.6096372 59.5882535,53.633672 C58.631221,53.6485341 57.6741886,53.6448186 56.7208655,53.6448186 C56.698609,83.7146009 56.6948995,113.784383 56.7208655,143.857881 C49.6469861,144.404064 42.4877898,144.162554 35.5066461,142.839826 C32.6911901,142.223048 29.7904173,141.684296 27.1789799,140.435878 C23.792272,132.982525 22.0822257,124.860377 21.0584235,116.767954 C18.7214838,96.3994194 21.0361669,75.6519013 26.5001546,55.948447 C27.9468315,50.5200581 29.5938176,45.0879536 32.257187,40.1165747 C34.5570325,35.9217417 37.8806801,32.403135 41.4194745,29.2337881 C46.1489954,25.0723948 51.327357,21.4571843 56.6392581,18.0871988 C66.168779,11.7522206 76.8222566,7.17840348 87.9023184,4.37317852 Z" id="Shape"></path>
                <path d="M145.661824,18.0760522 C149.107883,13.9592453 153.651932,11.0314078 157.973416,7.94008708 C171.17527,13.1343977 183.627821,20.3945428 194.277589,29.8171263 C200.17558,35.0671698 205.550541,40.9265602 210.16136,47.3469956 C214.130448,53.0020319 218.006801,58.8651379 220.354869,65.4044702 C218.106955,61.4771553 215.02442,58.136894 211.838022,54.9601161 C200.424111,43.8469666 187.519011,34.1159942 173.093045,27.2757039 C164.361051,23.1254572 155.131994,20.0155588 145.661824,18.0760522 Z" id="Shape"></path>
                <path d="M140.461206,22.9285341 C143.465842,22.170566 146.492736,23.3855443 149.31932,24.3144267 C152.071716,25.3659216 154.939104,26.0755878 157.706337,27.0824964 C171.319938,31.723193 184.046986,38.8235704 195.390417,47.6591001 C198.806801,50.133643 201.800309,53.1209289 204.890263,55.9818868 C209.215456,60.0764006 213.611128,64.0891727 217.936321,68.179971 C223.467079,73.4560232 226.679444,80.6641509 228.619474,87.9540203 C230.570634,95.3850798 231.405255,103.068795 231.705719,110.730218 C232.046986,123.857184 230.574343,137.166212 226.18609,149.594659 C223.45966,134.613643 218.118083,120.007896 209.649459,107.31193 C201.737249,95.5002612 191.517774,85.104209 179.447295,77.5579681 C179.462133,69.6327431 179.439876,61.7075181 179.458423,53.7822932 C159.646368,53.7711466 139.834312,53.7674311 120.022257,53.7860087 C123.201236,44.6272279 127.745286,35.8288534 134.299845,28.6244412 C136.206491,26.595762 137.909119,24.1955298 140.461206,22.9285341 Z" id="Shape"></path>
                <path d="M15.8874807,63.1342816 C17.9758887,58.9468795 20.4834621,54.9749782 23.0392581,51.0588099 C20.3462133,60.0280987 17.6568779,69.0382583 16.1285935,78.2973585 C14.4111283,88.1323657 14.0142195,98.1791582 14.6707883,108.133062 C15.3904173,118.439942 17.2228748,128.69852 20.4760433,138.511234 C15.4015456,136.898694 10.2194745,135.327025 5.70139104,132.425196 C4.31406491,125.031292 4.03214838,117.470189 4.17310665,109.961103 C4.52550232,100.04807 5.83493045,90.0941655 8.86924266,80.6269956 C11.1913447,74.7898984 13.472643,68.9342235 15.8874807,63.1342816 Z" id="Shape"></path>
                <path d="M60.9644513,57.8470827 C79.7489954,57.8396517 98.52983,57.8470827 117.314374,57.8470827 C117.262442,76.6476633 117.310665,95.4482438 117.288408,114.25254 C98.503864,114.278549 79.7193199,114.241393 60.9384853,114.271118 C60.9904173,95.463106 60.9347759,76.6550943 60.9644513,57.8470827 Z M69.5035549,80.0176488 C69.5035549,82.9975036 69.4775889,85.973643 69.47017,88.9534978 C72.0556414,86.3749202 74.5595054,83.7183164 77.1486862,81.1471698 C79.8676971,83.918955 82.6683153,86.605283 85.3613601,89.4067925 C81.98949,92.7730624 78.6213292,96.1467634 75.2383308,99.5018868 C73.8547141,100.649985 74.1774343,103.202554 75.8948995,103.849057 C76.92983,104.402671 78.2318393,104.131437 79.0108192,103.273149 C82.3789799,99.8883019 85.7731066,96.5220319 89.1338485,93.1297533 C92.5613601,96.5146009 95.9591963,99.9328882 99.3570325,103.34746 C100.688717,104.833672 103.437403,104.04598 103.808346,102.095327 C104.246059,100.690856 103.148068,99.5130334 102.198454,98.6473149 C99.1122102,95.5411321 96.0037094,92.4609579 92.8877898,89.3844993 C95.7106646,86.5569811 98.5372488,83.7331785 101.356414,80.9019448 C103.819474,83.3244702 106.349304,85.6801161 108.793818,88.1286502 C108.771561,85.6280987 108.790108,83.1312627 108.767852,80.6344267 C108.875425,79.9693469 108.304173,79.5829318 107.910974,79.1593614 C104.520556,75.7485051 101.100464,72.367373 97.7174652,68.9490856 C97.2574961,68.4846444 96.7196291,68.1130914 96.1595054,67.7898403 C94.8018547,69.0939913 93.418238,70.3795646 92.2015456,71.8211901 C93.7075734,73.8758781 95.7996909,75.4029608 97.5431221,77.2458636 C94.709119,80.0176488 91.9344668,82.8488824 89.1153014,85.6355298 C86.4148377,82.8228737 83.6216383,80.103106 80.8618238,77.3536139 C82.6942813,75.6073149 84.4302937,73.7644122 86.1774343,71.932656 C84.9051005,70.4204354 83.4880989,69.0233962 81.9820711,67.7489695 C77.649459,71.6502758 73.7026275,75.9677213 69.5035549,80.0176488 Z" id="Shape"></path>
                <path d="M121.598764,57.8396517 C139.433694,57.8507983 157.268624,57.8396517 175.103555,57.8470827 C175.099845,76.6513788 175.188872,95.4593904 175.059042,114.267402 C157.23524,114.248824 139.415147,114.271118 121.595054,114.256255 C121.613601,95.4482438 121.602473,76.6439478 121.598764,57.8396517 Z M145.958578,68.1651089 C145.435549,69.9151234 145.802782,71.7914659 145.724884,73.5934978 C141.236476,73.6826705 136.73323,73.4411611 132.252241,73.7198258 C132.070479,75.3583745 132.081607,77.0155007 132.226275,78.6614804 C136.707264,79.0590421 141.225348,78.7543687 145.724884,78.8286792 C145.713756,80.0510885 145.632148,81.2809289 145.769397,82.4959071 C146.132921,84.1307402 147.293972,85.4163135 148.328903,86.6758781 C149.259969,85.4386067 150.346832,84.227344 150.81051,82.7188389 C151.0034,81.4295501 150.855023,80.1179681 150.87728,78.8212482 C154.497682,78.8695501 158.121793,78.8249637 161.745904,78.8509724 C162.662133,78.8732656 163.574652,78.7729463 164.472334,78.5760232 C164.516847,76.9634833 164.546522,75.3472279 164.43524,73.734688 C159.928284,73.4374456 155.399073,73.6678084 150.880989,73.6046444 C150.81051,71.8174746 151.088717,69.989434 150.725193,68.2319884 C149.923957,66.1921626 146.800618,66.1550073 145.958578,68.1651089 Z M135.95796,81.0357039 C133.528284,85.4386067 131.009583,89.7969231 128.520556,94.1663861 C128.17558,94.838897 127.648841,95.4853991 127.645131,96.276807 C127.674807,100.456778 130.853787,104.32836 134.937867,105.171785 C139.099845,106.212134 143.74034,103.893643 145.472643,99.9811901 C146.177434,98.3760813 146.878516,96.3325399 145.81391,94.7274311 C143.187635,90.1684761 140.605873,85.5797968 137.96847,81.0245573 C137.297063,81.0319884 136.625657,81.0319884 135.95796,81.0357039 Z M158.648532,81.1360232 C155.910974,85.9885051 153.08068,90.8001161 150.435858,95.6971843 C149.942504,100.479071 154.082226,105.030595 158.811747,105.346415 C162.929212,105.870305 167.083771,103.17283 168.485935,99.3012482 C168.934776,97.9190711 169.461515,96.2396517 168.600927,94.909492 C166.05626,90.5103048 163.585781,86.0665312 161.067079,81.6487663 C160.710974,80.6381422 159.442349,80.9279536 158.648532,81.1360232 Z" id="Shape"></path>
                <path d="M136.978053,84.4837155 C139.110974,88.1658055 141.206801,91.8701887 143.313756,95.5671408 C139.103555,95.5782874 134.897063,95.5931495 130.690572,95.5634253 C132.790108,91.8739042 134.882226,88.1769521 136.978053,84.4837155 Z" id="Shape"></path>
                <path d="M153.377434,95.5745718 C155.510355,91.8887663 157.583926,88.169521 159.713138,84.4837155 C161.816383,88.1806676 163.897372,91.8924819 166.048841,95.5597097 C161.823802,95.596865 157.598764,95.5708563 153.377434,95.5745718 Z" id="Shape"></path>
                <path d="M179.451005,84.4502758 C191.80711,92.8176488 202.430912,103.897358 209.638331,117.016894 C214.412365,126.70328 218.359196,136.839245 220.903864,147.350479 C221.682844,150.478955 222.740031,153.573991 222.970015,156.813933 C223.144359,158.712569 222.376507,160.510885 221.634621,162.205167 C220.369706,164.939797 218.897063,167.574107 217.372488,170.167547 C213.555487,177.201045 208.644204,183.573179 203.328594,189.525457 C200.550232,192.620493 197.77187,195.797271 194.296136,198.130624 C193.732303,182.161277 189.054714,166.318258 180.578671,152.76029 C180.111283,151.935443 179.332303,151.162612 179.443586,150.144557 C179.462133,128.245225 179.447295,106.349608 179.451005,84.4502758 Z" id="Shape"></path>
                <path d="M60.9459042,118.581132 C79.7341577,118.540261 98.5224111,118.584848 117.310665,118.562554 C117.280989,136.41939 117.280989,154.283657 117.310665,172.144209 C98.5261206,172.155356 79.7415765,172.125631 60.9570325,172.159071 C60.9496136,154.29852 60.9755796,136.441684 60.9459042,118.581132 Z M86.5706337,126.851901 C86.088408,128.449579 86.3962906,130.169869 86.3332303,131.819565 C84.1483771,131.830711 81.9598145,131.745254 79.7786708,131.841858 C79.6599691,131.96447 79.4262751,132.202264 79.3075734,132.321161 C79.1591963,133.863106 79.2222566,135.423628 79.3149923,136.969289 C81.6408037,137.177358 83.9851623,137.047315 86.3183926,137.062177 C86.3295209,143.114775 86.2998454,149.167373 86.3332303,155.216255 C83.7737249,155.171669 81.2142195,155.238549 78.6584235,155.190247 C77.5233385,155.201393 76.3548686,154.506589 75.9727975,153.414224 C75.7613601,151.35582 76.0469861,149.275123 75.8540958,147.21672 C75.716847,145.801103 74.5446677,144.83135 73.5876352,143.913614 C72.6491499,144.931669 71.4806801,145.98688 71.4547141,147.487954 C71.3953632,149.475762 71.3916538,151.474717 71.4435858,153.466241 C71.6698609,156.903106 74.9267388,159.548563 78.2615147,159.663745 C80.9434312,159.719478 83.6216383,159.660029 86.3035549,159.678607 C86.3369397,160.718955 86.2664606,161.818752 86.7190108,162.792221 C87.2049459,163.892017 88.1174652,164.709434 88.9520866,165.545428 C89.8200927,164.731727 90.8216383,163.958897 91.2853168,162.821945 C91.7156105,161.826183 91.6562597,160.715239 91.7081917,159.656313 C94.4049459,159.689753 97.1054096,159.697184 99.8058733,159.674891 C103.314992,159.660029 106.757342,156.735907 106.801855,153.120697 C106.805564,151.240639 106.809274,149.364296 106.798145,147.487954 C106.775889,145.960871 105.574034,144.872221 104.587326,143.869028 C103.608037,144.76447 102.55085,145.786241 102.398764,147.18328 C102.205873,149.237968 102.439567,151.311234 102.283771,153.373353 C101.909119,154.554891 100.629366,155.264557 99.4238022,155.201393 C96.8457496,155.21254 94.2676971,155.197678 91.6896445,155.201393 C91.6377125,149.163657 91.6896445,143.122206 91.6673879,137.080755 C93.9412674,137.039884 96.2225657,137.158781 98.4927357,136.984151 C98.6782071,135.278723 98.7338485,133.539855 98.4408037,131.849289 C96.1780526,131.763832 93.911592,131.82328 91.6488408,131.804702 C91.5931994,130.158723 91.8899536,128.453295 91.4411128,126.851901 C90.7289026,124.760058 87.3162287,124.800929 86.5706337,126.851901 Z" id="Shape"></path>
                <path d="M121.576507,118.573701 C139.426275,118.577417 157.279753,118.53283 175.125811,118.595994 C175.062751,136.449115 175.207419,154.302235 175.055332,172.15164 C157.23524,172.147925 139.411437,172.125631 121.591345,172.162787 C121.602473,154.29852 121.632148,136.437968 121.576507,118.573701 Z M129.288408,131.22508 C131.636476,133.617881 134.017929,135.980958 136.403091,138.340319 C133.417002,139.737358 130.723957,141.702874 128.450077,144.091959 C131.599382,146.845167 134.948995,149.576081 139.040495,150.765051 C137.371252,152.429608 135.716847,154.105312 134.029057,155.747576 C132.782689,154.51402 131.517774,153.295327 130.327048,152.002322 C130.319629,155.372308 130.338176,158.742293 130.327048,162.112279 C133.650696,162.034253 136.978053,162.082554 140.30541,162.08627 C139.140649,160.770972 137.786708,159.648882 136.647913,158.311292 C138.925502,156.163716 141.043586,153.852656 143.328594,151.716226 C145.502318,151.70508 147.6983,152.028331 149.883153,151.77939 C152.082844,153.952975 154.223184,156.182293 156.463679,158.315007 C155.246986,159.578287 153.974652,160.782119 152.780216,162.063977 C156.096445,162.097417 159.420093,162.023106 162.736321,162.089985 C162.765997,158.749724 162.762287,155.409463 162.74374,152.072917 C161.467697,153.243309 160.321484,154.540029 159.097372,155.766154 C157.509737,154.220493 155.974034,152.626531 154.371561,151.095733 C157.138794,150.196575 159.846677,149.018752 162.135394,147.190711 C163.993818,148.896139 165.811437,150.653585 167.744049,152.280987 C168.615765,149.53521 168.296754,146.41045 166.427202,144.147692 C167.836785,141.662003 168.574961,138.659855 167.67728,135.862061 C165.852241,137.530334 164.019784,139.18746 162.191036,140.852017 C160.518083,139.822816 158.759815,138.949666 156.986708,138.117388 C159.193818,135.761742 161.545595,133.54357 163.789799,131.221364 C162.921793,130.340784 162.038949,129.478781 161.152396,128.620493 C158.685626,131.143338 156.178053,133.621597 153.685317,136.118433 C153.332921,136.37852 153.010201,136.932134 152.502009,136.772366 C148.47357,136.044122 144.311592,136.174165 140.316538,137.028737 C137.519629,134.223512 134.693045,131.448012 131.93694,128.605631 C131.054096,129.478781 130.174961,130.355646 129.288408,131.22508 Z" id="Shape"></path>
                <path d="M6.62132921,138.841916 C8.5576507,139.157736 9.99690881,140.580784 11.7514683,141.338752 C25.7063369,147.892946 41.4157651,150.218868 56.7282844,149.167373 C56.6800618,158.259274 56.7097372,167.351176 56.7134467,176.443077 C79.1443586,176.420784 101.57527,176.417068 124.006182,176.446792 C111.230912,184.654398 96.5935085,190.086502 81.4664606,191.654456 C73.5431221,192.516459 65.5196291,192.338113 57.6296754,191.238316 C49.602473,190.131089 41.6420402,188.440522 33.9412674,185.902816 C31.8528594,185.174572 29.623493,184.788157 27.6723338,183.710653 C26.0921175,182.696313 25.031221,181.083774 24,179.556691 C19.5264297,172.74984 15.5128284,165.604877 12.5749614,157.988041 C10.1452859,151.757097 8.12735703,145.358955 6.62132921,138.841916 Z" id="Shape"></path>
                <path d="M179.473261,161.402612 C181.446677,164.835762 182.744977,168.595878 184.095209,172.307692 C184.889026,174.700493 185.808964,177.156459 185.675425,179.720174 C185.323029,181.518491 183.817002,182.763193 182.633694,184.052482 C176.88408,189.343396 171.063988,194.597155 164.706028,199.159826 C152.208964,208.359478 138.038949,215.166328 123.230912,219.706705 C119.925811,220.747054 116.613292,221.746531 113.285935,222.701422 C111.668624,223.191872 109.969706,222.942932 108.315301,222.92807 C98.3035549,222.693991 88.3029366,222.025196 78.3579598,220.880813 C77.2488408,220.743338 76.1063369,220.676459 75.0788253,220.197155 C69.4293663,217.752337 64.0544049,214.731611 58.7202473,211.67373 C49.0757342,206.100435 40.2510046,198.962903 33.314374,190.205399 C37.1721793,191.788215 40.9965997,193.50479 45.0658423,194.470827 C61.1573416,198.583919 78.1576507,198.071176 94.3455951,194.771785 C102.001855,193.129521 109.565379,190.859332 116.620711,187.426183 C122.696754,184.464906 128.416692,180.81254 133.825039,176.766328 C134.244204,176.368766 134.830294,176.435646 135.364451,176.420784 C150.057496,176.450508 164.75425,176.394775 179.451005,176.450508 C179.465842,171.434543 179.421329,166.418578 179.473261,161.402612 Z" id="Shape"></path>
                <path d="M169.302009,203.009115 C175.84915,198.201219 181.780526,192.587054 187.159196,186.504731 C188.279444,190.52865 189.488717,194.571147 189.833694,198.751118 C189.878207,200.270769 190.082226,202.117388 188.798764,203.224615 C187.00711,204.948621 184.844513,206.219332 182.796909,207.612656 C176.023493,212.253353 168.812365,216.258694 161.259969,219.483774 C160.002473,220.01881 158.744977,220.631872 157.36507,220.769347 C148.325193,221.839419 139.233385,222.519361 130.134158,222.816604 C144.089026,218.261364 157.517156,211.826067 169.302009,203.009115 Z" id="Shape"></path>
                <path d="M0.155795981,208.51553 C5.71993818,205.7809 11.6216383,203.540435 17.805255,202.782467 C19.9604328,202.537242 22.3678516,202.436923 24.1669243,203.867402 C21.6111283,205.769753 18.6287481,207.345138 16.9075734,210.142932 C16.2176198,211.588273 16.3400309,213.237968 16.0729521,214.783628 C15.353323,219.546938 14.6040185,224.306531 13.6247295,229.025254 C9.65935085,230.455733 5.84605873,232.317213 2.31468315,234.628273 C3.63153014,229.355936 5.93879444,224.176488 9.87449768,220.338345 C7.44853168,215.820261 4.04698609,211.837213 0.155795981,208.51553 Z" id="Shape"></path>
                <path d="M210.654714,203.908273 C212.516847,202.318026 215.120866,202.559536 217.379907,202.823338 C223.422566,203.622177 229.172179,205.862642 234.628748,208.508099 C230.733849,211.837213 227.373107,215.835123 224.891499,220.327199 C228.856878,224.143048 231.153014,229.348505 232.47728,234.620842 C228.953323,232.302351 225.128903,230.46688 221.170943,229.025254 C220.191654,224.373411 219.479444,219.66955 218.733849,214.976836 C218.433385,213.293701 218.600309,211.469376 217.75456,209.931147 C216.003709,207.285689 213.162287,205.725167 210.654714,203.908273 Z" id="Shape"></path>
                <path d="M21.8967543,207.025602 C22.7276662,206.390247 23.6253478,205.851495 24.5119011,205.297881 C24.5415765,205.777184 24.5712519,206.256488 24.6046368,206.739507 C23.6995363,206.817533 22.7981453,206.93643 21.8967543,207.025602 Z" id="Shape"></path>
                <path d="M210.287481,205.294165 C211.170325,205.85521 212.064297,206.405109 212.906337,207.036749 C211.990108,206.93643 211.081298,206.821248 210.16507,206.743222 C210.202164,206.256488 210.242968,205.773469 210.287481,205.294165 Z" id="Shape"></path>
                <path d="M20.4241113,208.809057 C22.7833076,207.950769 25.3391036,207.969347 27.8170015,207.950769 C35.0429675,208.047373 42.3468315,208.615849 49.3131376,210.65939 C51.4089645,211.328186 53.649459,212.004412 55.2111283,213.650392 C52.6775889,214.348911 50.0476043,213.680116 47.4880989,213.53521 C44.5613601,213.364296 41.4454405,212.896139 38.6782071,214.122264 C37.3242658,214.694456 36.8012365,216.173237 36.5972179,217.521974 C35.7959815,222.125515 35.0763524,226.743919 34.4012365,231.369753 C29.7125193,230.790131 24.979289,231.52209 20.412983,232.592163 C18.9255023,232.989724 17.2970634,233.338984 15.8170015,232.71106 C15.0602782,232.439826 14.4148377,231.626125 14.607728,230.793846 C15.8392581,224.425428 17.0299845,218.034717 17.7384853,211.580842 C18.0278207,210.243251 19.174034,209.251205 20.4241113,208.809057 Z" id="Shape"></path>
                <path d="M185.742195,210.570218 C193.23524,208.452366 201.084389,207.928476 208.840804,207.965631 C211.285317,208.077097 214.037713,208.143977 216.011128,209.797388 C217.339104,210.915762 217.146213,212.777242 217.372488,214.330334 C218.14034,219.955646 219.149304,225.547518 220.243586,231.113382 C219.969088,233.015733 217.468934,233.283251 215.940649,232.952569 C210.866151,231.711582 205.617311,230.738113 200.379598,231.358607 C199.812056,227.31611 199.140649,223.292192 198.506337,219.264557 C198.272643,218.019855 198.142813,216.737997 197.623493,215.575036 C197.085626,214.475239 195.883771,213.921626 194.756105,213.642961 C189.740958,212.517155 184.621947,214.571843 179.614219,213.676401 C181.16847,211.8818 183.587017,211.313324 185.742195,210.570218 Z" id="Shape"></path>
                <path d="M44.4686244,214.612714 C47.9146832,214.661016 51.3347759,215.493295 54.7882535,215.155181 C54.6472952,215.820261 54.5137558,216.489057 54.3876352,217.165283 C51.0639876,216.385022 47.7180835,215.660493 44.4686244,214.612714 Z" id="Shape"></path>
                <path d="M180,215.166328 C183.464606,215.478433 186.888408,214.649869 190.345595,214.627576 C187.092427,215.664209 183.739104,216.355298 180.430294,217.183861 C180.285626,216.507634 180.144668,215.835123 180,215.166328 Z" id="Shape"></path>
                <path d="M39.509119,215.348389 C40.6145286,214.991698 41.7904173,215.255501 42.8846986,215.53045 C57.6037094,219.840464 72.849459,222.066067 88.0989181,223.392511 C109.261206,225.101655 130.579289,224.986473 151.715611,222.935501 C165.140031,221.534746 178.549614,219.442903 191.517774,215.619623 C192.964451,215.255501 194.693045,214.783628 196.02102,215.73852 C196.877898,216.563367 196.937249,217.841509 197.159815,218.945022 C197.90541,223.66746 198.684389,228.389898 199.355796,233.127199 C199.507883,234.453643 199.715611,236.173933 198.443277,237.039652 C197.022566,237.931379 195.319938,238.150595 193.739722,238.622467 C176.04575,243.084819 157.94745,245.878897 139.771252,247.379971 C123.11592,248.81045 106.341886,248.576372 89.7162287,246.911814 C72.7418856,245.213817 55.8306028,242.508911 39.3199382,238.172888 C37.9585781,237.741887 36.1891808,237.504093 35.5437403,236.036459 C35.150541,234.984964 35.3508501,233.836865 35.4843895,232.759361 C36.1706337,227.836284 37.005255,222.935501 37.7805255,218.027286 C37.9659969,216.972075 38.3443586,215.660493 39.509119,215.348389 Z M52.4438949,236.519478 C53.2006182,236.664383 53.9536321,236.798142 54.7140649,236.943048 C55.2593509,233.90746 55.5931994,230.838433 56.1607419,227.80656 C57.9264297,231.169115 59.6846986,234.5391 61.4837713,237.886792 C62.2738794,237.990827 63.0639876,238.094862 63.8540958,238.18775 C64.4142195,234.08209 64.8927357,229.968999 65.4751159,225.870769 C64.7332303,225.77045 63.9950541,225.655269 63.2568779,225.547518 C62.8117465,228.542235 62.4482226,231.548099 62.0142195,234.546531 C60.2151468,231.250856 58.4976816,227.910595 56.6911901,224.622351 C55.9307573,224.503454 55.1703246,224.377126 54.4173107,224.247083 C53.7384853,228.334165 53.1523957,232.43611 52.4438949,236.519478 Z M178.783308,224.570334 C179.425039,228.642554 180.048223,232.718491 180.652859,236.794427 C181.212983,236.723832 181.773107,236.656952 182.33694,236.590073 C181.672952,232.473266 181.023802,228.349028 180.396909,224.22479 C179.855332,224.336255 179.317465,224.451437 178.783308,224.570334 Z M174.42473,225.168534 C174.962597,229.255617 175.608037,233.331553 176.134776,237.422351 C176.698609,237.374049 177.262442,237.325747 177.829985,237.277446 C177.217929,233.160639 176.62813,229.036401 176.004946,224.923309 C175.474498,225.001335 174.947759,225.083077 174.42473,225.168534 Z M68.0605873,226.197736 C67.5523957,230.318258 67.0330757,234.438781 66.5397218,238.559303 C67.32983,238.629898 68.1236476,238.719071 68.9174652,238.804528 C69.1289026,237.043367 69.2958269,235.282206 69.5406491,233.528476 C71.61051,233.818287 73.6989181,234.004064 75.7799073,234.226996 C75.5684699,235.988157 75.4015456,237.753033 75.2123648,239.51791 C76.0136012,239.588505 76.8148377,239.666531 77.6197836,239.740842 C77.987017,235.609173 78.4061824,231.481219 78.8179289,227.353266 C78.0463679,227.286386 77.2748068,227.212075 76.5069552,227.14148 C76.3029366,228.839478 76.1545595,230.544906 75.9727975,232.246618 C73.9066461,232.038549 71.8404946,231.800755 69.7743431,231.574107 C69.9412674,229.861248 70.1749614,228.159536 70.3641422,226.454107 C69.5962906,226.36865 68.8284389,226.283193 68.0605873,226.197736 Z M154.126739,227.565051 C154.516229,231.566676 154.872334,235.572017 155.243277,239.573643 C157.320556,239.581074 159.679753,239.978636 161.471406,238.663338 C163.863988,236.81672 163.726739,232.569869 161.093045,231.005631 C159.546213,230.065602 157.665533,230.437155 156.081607,231.050218 C156,229.8018 155.877589,228.560813 155.721793,227.323541 C155.187635,227.397852 154.653478,227.483309 154.126739,227.565051 Z M81.3959815,227.80656 C81.0139104,231.882496 80.6318393,235.962148 80.3165379,240.045515 C81.1177743,240.078955 81.9227202,240.138403 82.7239567,240.186705 C82.8055641,238.432975 82.9761978,236.682961 83.1171561,234.932946 C85.2018547,235.074136 87.2828439,235.278491 89.3712519,235.386241 C89.2414219,237.139971 89.1190108,238.897417 89.0225657,240.654862 C89.8163833,240.729173 90.6139104,240.803483 91.4114374,240.877794 C91.6525502,236.720116 91.9047913,232.562438 92.179289,228.408476 C91.4040185,228.36389 90.6287481,228.315588 89.857187,228.285864 C89.7236476,229.995007 89.6346213,231.711582 89.4936631,233.424441 C87.4238022,233.234949 85.3502318,233.10119 83.2766615,232.941422 C83.4287481,231.228563 83.61051,229.515704 83.6958269,227.799129 C82.9353941,227.80656 82.1044822,227.479594 81.3959815,227.80656 Z M94.7684699,228.597968 C94.5570325,232.737068 94.3233385,236.876168 94.0636785,241.015269 C94.864915,241.048708 95.6698609,241.085864 96.4785162,241.126734 C96.6751159,236.980203 96.8939722,232.837388 97.0942813,228.694572 C96.3190108,228.664848 95.5437403,228.635123 94.7684699,228.597968 Z M102.947759,228.980668 C104.657805,233.171785 106.330757,237.374049 108.011128,241.576313 C108.619474,241.572598 109.23153,241.583745 109.847295,241.613469 C111.787326,237.511524 113.57898,233.3427 115.429985,229.199884 C114.851314,229.203599 114.280062,229.21103 113.7051,229.229608 C112.180526,232.803948 110.641113,236.374572 109.03493,239.915472 C107.606801,236.281684 106.071097,232.692482 104.720866,229.02897 C104.127357,229.006676 103.537558,228.991814 102.947759,228.980668 Z M126.398764,229.13672 C126.498918,233.286967 126.606491,237.433498 126.676971,241.583745 C127.222257,241.580029 127.763833,241.572598 128.312828,241.576313 C128.279444,237.407489 128.112519,233.24238 128.034621,229.077271 C127.485626,229.092134 126.94034,229.114427 126.398764,229.13672 Z M130.820402,228.980668 C130.927975,233.127199 131.124575,237.277446 131.209892,241.427692 C131.773725,241.41283 132.337558,241.397968 132.90881,241.390537 C132.77527,237.247721 132.534158,233.112337 132.485935,228.969521 C131.929521,228.965806 131.373107,228.969521 130.820402,228.980668 Z M165.221638,230.08418 C165.247604,230.526328 165.27728,230.972192 165.310665,231.418055 C166.76476,230.968476 168.293045,230.362845 169.836167,230.678665 C170.800618,230.845864 170.897063,231.927083 171.156723,232.685051 C169.480062,232.826241 167.640185,232.725922 166.167543,233.677097 C164.409274,234.799187 164.95085,238.158026 167.109737,238.425544 C168.697372,238.74508 170.303555,238.202612 171.63524,237.344325 C172.187944,237.645283 172.766615,237.909086 173.363833,238.135733 C173.204328,235.97701 172.825966,233.840581 172.558887,231.693004 C172.451314,230.708389 171.82442,229.746067 170.837713,229.471118 C168.960742,228.991814 167.005873,229.463687 165.221638,230.08418 Z M151.177743,231.094804 C150.502628,233.539623 149.782998,235.973295 149.033694,238.39582 C147.935703,236.136778 146.937867,233.825718 145.914065,231.533237 C145.316847,231.55553 144.719629,231.585254 144.12983,231.622409 C145.398454,234.609695 146.971252,237.470653 148.239876,240.454224 C148.225039,241.606038 146.978671,242.319419 146.162597,242.99193 C146.437094,243.34119 146.715301,243.697881 146.993509,244.058287 C148.199073,243.363483 149.241422,242.334282 149.70881,241.000406 C150.806801,237.671292 151.867697,234.327315 152.917465,230.983338 C152.335085,231.013062 151.752705,231.053933 151.177743,231.094804 Z M136.907573,232.618171 C134.344359,234.301306 134.437094,238.607605 137.007728,240.246154 C138.791963,241.550305 141.106646,240.95582 143.098609,240.587983 C143.083771,240.153266 143.068934,239.718549 143.054096,239.287547 C141.314374,239.569927 139.333539,240.227576 137.719938,239.187228 C136.985471,238.77852 136.881607,237.860784 136.60711,237.154833 C138.843895,236.92447 141.095518,236.909608 143.336012,236.760987 C143.261824,235.41225 143.265533,233.825718 142.160124,232.859681 C140.720866,231.681858 138.461824,231.62984 136.907573,232.618171 Z M118.471716,232.733353 C116.958269,233.156923 115.789799,234.494514 115.485626,236.029028 C114.762287,238.611321 116.75796,241.494572 119.451005,241.635762 C122.288717,241.992453 124.811128,239.124064 124.199073,236.352279 C123.950541,233.688244 120.97558,231.826763 118.471716,232.733353 Z" id="Shape"></path>
                <path d="" id="Shape"></path>
                <path d="M156.263369,232.391524 C157.62102,231.956807 159.216074,231.440348 160.536631,232.268911 C161.716229,233.420726 161.857187,235.41225 161.208037,236.865022 C160.336321,238.425544 158.33323,238.295501 156.797527,238.280639 C156.641731,236.311408 156.359815,234.360755 156.263369,232.391524 Z" id="Shape"></path>
                <path d="M137.846059,233.5582 C138.866151,233.097475 140.335085,232.974862 141.128903,233.922322 C141.429366,234.390479 141.614838,234.918084 141.841113,235.430827 C140.064297,235.609173 138.280062,235.724354 136.492117,235.72807 C136.792581,234.932946 136.974343,233.929753 137.846059,233.5582 Z" id="Shape"></path>
                <path d="M118.879753,233.937184 C120.140958,233.584209 121.836167,233.955762 122.329521,235.315646 C122.711592,236.419158 122.72643,237.671292 122.351777,238.782235 C121.580216,240.877794 118.041422,240.933527 117.299536,238.782235 C116.706028,237.13254 116.861824,234.472221 118.879753,233.937184 Z" id="Shape"></path>
                <path d="M167.469552,234.565109 C168.615765,233.989202 169.965997,234.119245 171.212365,233.992917 C171.275425,234.698868 171.338485,235.408534 171.37187,236.121916 C170.259042,236.697823 169.042349,237.437213 167.74034,237.121393 C166.620093,236.835298 166.412365,235.081567 167.469552,234.565109 Z" id="Shape"></path>
            </g>
            <g id="#191818ff" fill="#191818">
                <path d="M67.8639876,12.2315239 C91.3075734,0.74682148 118.57187,-2.54885341 144.111283,2.71605225 C157.902937,5.54357039 171.190108,10.8493469 183.134467,18.3101306 C207.186399,33.2279826 225.670479,56.9367779 234.116847,84.0006967 C239.67728,101.608592 241.053478,120.509492 238.204637,138.752743 C233.768161,167.882496 217.995672,195.031872 195.034312,213.42746 C200.260896,212.647199 205.550541,212.335094 210.832767,212.379681 C211.081298,210.956633 211.07017,209.191756 212.383308,208.27402 C213.937558,207.215094 215.907264,206.940145 217.75456,207.073904 C223.407728,207.386009 228.849459,209.22148 234.024111,211.42479 C235.641422,212.175327 237.306955,212.8627 238.820402,213.821306 C239.02442,214.26717 239.072643,214.850508 238.560742,215.10688 C234.691808,218.053295 231.63153,221.906299 228.986708,225.952511 C231.805873,229.002961 233.823802,232.725922 235.140649,236.649521 C235.78238,238.577881 236.387017,240.547112 236.527975,242.590653 C236.268315,242.705835 235.752705,242.936197 235.493045,243.055094 C232.046986,240.428215 228.148377,238.507286 224.160742,236.865022 C223.875116,237.719594 223.704482,238.704209 222.966306,239.313556 C221.423184,240.725457 219.11221,240.732888 217.190726,240.261016 C212.609583,239.116633 207.872643,238.358665 203.139413,238.759942 C203.239567,240.435646 203.428748,242.423454 202.163833,243.742467 C200.579907,245.187808 198.361669,245.485051 196.373416,246.046096 C179.584544,250.322671 162.409892,252.990421 145.16847,254.59553 C135.386708,255.472395 125.560433,255.944267 115.737867,255.784499 C97.5319938,255.450102 79.381762,253.399129 61.4800618,250.118316 C54.3690881,248.803019 47.2877898,247.287083 40.3177743,245.355007 C39.0157651,244.935152 37.550541,244.53016 36.7493045,243.326328 C35.8108192,242.003599 36.0222566,240.294456 36.1149923,238.774804 C31.6933539,238.384673 27.2420402,239.005167 22.9465224,240.049231 C20.9100464,240.64 18.5248841,240.88894 16.6775889,239.647954 C15.6797527,239.057184 15.3755796,237.875646 15.0491499,236.85016 C11.2618238,238.481277 7.50417311,240.253585 4.18423493,242.731843 C3.65007728,243.333759 2.50386399,242.672395 2.74868624,241.90328 C3.77990726,236.073614 6.19103555,230.329405 10.2788253,225.982235 C8.24976816,222.898345 6.01669243,219.922206 3.33106646,217.373353 C2.26646059,216.344151 1.04976816,215.478433 0.0370942813,214.397213 C0.801236476,213.334572 2.07357032,212.914717 3.18639876,212.346241 C8.63925811,209.808534 14.4,207.738984 20.412983,207.137068 C22.5236476,206.928999 24.7863988,207.003309 26.65966,208.114253 C28.0506955,209.039419 28.1916538,210.863745 28.384544,212.37225 C33.9672334,212.286792 39.5425039,212.751234 45.0658423,213.531495 C34.3270479,204.918897 25.1276662,194.407663 17.9276662,182.670305 C7.07387944,165.010392 0.957032457,144.463512 0.411746522,123.727141 C-0.459969088,98.2088824 7.15177743,72.4714078 21.833694,51.5901306 C33.4738794,34.8145138 49.4948995,21.1079245 67.8639876,12.2315239 Z M106.071097,7.06322206 C103.433694,8.16301887 101.523338,10.4146299 99.4163833,12.2649637 C85.0646059,25.1318433 73.1165379,41.2200871 67.1962906,59.7308563 C83.584544,59.7122787 99.9727975,59.7122787 116.357342,59.7308563 C118.890881,52.5598839 122.240495,45.6675762 126.387635,39.2880116 C133.565379,28.1339913 143.272952,18.6519594 154.519938,11.6444702 C142.690572,8.02554427 130.327048,6.1566328 117.959815,6.20865022 C113.994436,6.24580552 109.921484,5.91512337 106.071097,7.06322206 Z M90.1279753,10.3180261 C79.0479134,13.1232511 68.3944359,17.6970682 58.864915,24.0320464 C53.5530139,27.4020319 48.3746522,31.0172424 43.6451314,35.1786357 C40.1063369,38.3479826 36.7826893,41.8665893 34.4828439,46.0614224 C31.8194745,51.0328012 30.1724884,56.4649057 28.7258114,61.8932946 C23.2618238,81.5967489 20.9471406,102.344267 23.2840804,122.712801 C24.3078825,130.805225 26.0179289,138.927373 29.4046368,146.380726 C32.0160742,147.629144 34.916847,148.167896 37.7323029,148.784673 C44.7134467,150.107402 51.872643,150.348911 58.9465224,149.802729 C58.9205564,119.729231 58.9242658,89.6594485 58.9465224,59.5896662 C59.8998454,59.5896662 60.8568779,59.5933817 61.8139104,59.5785196 C67.4893354,41.5544848 77.8683153,24.8717562 92.179289,12.4656023 C93.548068,11.2803483 95.1282844,10.3403193 96.3523957,8.99901306 C94.2306028,9.18478955 92.1867079,9.81642961 90.1279753,10.3180261 Z M147.887481,24.0208999 C157.357651,25.9604064 166.586708,29.0703048 175.318702,33.2205515 C189.744668,40.0608418 202.649768,49.7918142 214.063679,60.9049637 C217.250077,64.0817417 220.332612,67.4220029 222.580526,71.3493179 C220.232457,64.8099855 216.356105,58.9468795 212.387017,53.2918433 C207.776198,46.8714078 202.401236,41.0120174 196.503246,35.7619739 C185.853478,26.3393904 173.400927,19.0792453 160.199073,13.8849347 C155.877589,16.9762554 151.333539,19.9040929 147.887481,24.0208999 Z M142.686862,28.8733817 C140.134776,30.1403774 138.432148,32.5406096 136.525502,34.5692888 C129.970943,41.773701 125.426893,50.5720755 122.247913,59.7308563 C142.059969,59.7122787 161.872025,59.7159942 181.68408,59.7271408 C181.665533,67.6523657 181.68779,75.5775907 181.672952,83.5028157 C193.743431,91.0490566 203.962906,101.445109 211.875116,113.256778 C220.34374,125.952743 225.685317,140.558491 228.411747,155.539507 C232.8,143.11106 234.272643,129.802032 233.931376,116.675065 C233.630912,109.013643 232.796291,101.329927 230.845131,93.8988679 C228.9051,86.6089985 225.692736,79.4008708 220.161978,74.1248186 C215.836785,70.0340203 211.441113,66.0212482 207.11592,61.9267344 C204.025966,59.0657765 201.032457,56.0784906 197.616074,53.6039478 C186.272643,44.768418 173.545595,37.6680406 159.931994,33.027344 C157.16476,32.0204354 154.297372,31.3107692 151.544977,30.2592743 C148.718393,29.3303919 145.691499,28.1154136 142.686862,28.8733817 Z M18.1131376,69.0791292 C15.6982998,74.8790711 13.4170015,80.734746 11.0948995,86.5718433 C8.06058733,96.0390131 6.7511592,105.992917 6.39876352,115.905951 C6.25780526,123.415036 6.53972179,130.976139 7.92704791,138.370044 C12.4451314,141.271872 17.6272025,142.843541 22.7017002,144.456081 C19.4485317,134.643367 17.6160742,124.38479 16.8964451,114.07791 C16.2398764,104.124006 16.6367852,94.0772134 18.3542504,84.2422061 C19.8825348,74.983106 22.5718702,65.9729463 25.264915,57.0036575 C22.709119,60.9198258 20.2015456,64.8917271 18.1131376,69.0791292 Z M63.1901082,63.7919303 C63.1604328,82.5999419 63.2160742,101.407954 63.1641422,120.215965 C81.9449768,120.186241 100.729521,120.223396 119.514065,120.197388 C119.536321,101.393091 119.488099,82.5925109 119.540031,63.7919303 C100.755487,63.7919303 81.9746522,63.7844993 63.1901082,63.7919303 Z M123.82442,63.7844993 C123.82813,82.5887954 123.839258,101.393091 123.820711,120.201103 C141.640804,120.215965 159.460896,120.193672 177.284699,120.21225 C177.414529,101.404238 177.325502,82.5962264 177.329212,63.7919303 C159.494281,63.7844993 141.659351,63.7956459 123.82442,63.7844993 Z M181.676662,90.3951234 C181.672952,112.294456 181.68779,134.190073 181.669243,156.089405 C181.55796,157.10746 182.33694,157.88029 182.804328,158.705138 C191.280371,172.263106 195.95796,188.106125 196.521793,204.075472 C199.997527,201.742119 202.775889,198.565341 205.55425,195.470305 C210.869861,189.518026 215.781144,183.145893 219.598145,176.112395 C221.12272,173.518955 222.595363,170.884644 223.860278,168.150015 C224.602164,166.455733 225.370015,164.657417 225.195672,162.758781 C224.965688,159.518839 223.908501,156.423803 223.129521,153.295327 C220.584853,142.784093 216.638022,132.648128 211.863988,122.961742 C204.656569,109.842206 194.032767,98.7624964 181.676662,90.3951234 Z M63.1715611,124.52598 C63.2012365,142.386531 63.1752705,160.243367 63.1826893,178.103919 C81.9672334,178.070479 100.751777,178.100203 119.536321,178.089057 C119.506646,160.228505 119.506646,142.364238 119.536321,124.507402 C100.748068,124.529695 81.9598145,124.485109 63.1715611,124.52598 Z M123.802164,124.518549 C123.857805,142.382816 123.82813,160.243367 123.817002,178.107634 C141.637094,178.070479 159.460896,178.092772 177.280989,178.096488 C177.433076,160.247083 177.288408,142.393962 177.351468,124.540842 C159.50541,124.477678 141.651932,124.522264 123.802164,124.518549 Z M8.84698609,144.786763 C10.3530139,151.303803 12.3709428,157.701945 14.8006182,163.932888 C17.7384853,171.549724 21.7520866,178.694688 26.2256569,185.501538 C27.2568779,187.028621 28.3177743,188.641161 29.8979907,189.655501 C31.8491499,190.733004 34.0785162,191.119419 36.1669243,191.847663 C43.8676971,194.38537 51.8281298,196.075936 59.8553323,197.183164 C67.7452859,198.282961 75.768779,198.461306 83.6921175,197.599303 C98.8191654,196.03135 113.456569,190.599245 126.231839,182.39164 C103.800927,182.361916 81.3700155,182.365631 58.9391036,182.387925 C58.9353941,173.296023 58.9057187,164.204122 58.9539413,155.112221 C43.6414219,156.163716 27.9319938,153.837794 13.9771252,147.283599 C12.2225657,146.525631 10.7833076,145.102583 8.84698609,144.786763 Z M181.698918,167.34746 C181.646986,172.363425 181.691499,177.37939 181.676662,182.395356 C166.979907,182.339623 152.283153,182.395356 137.590108,182.365631 C137.055951,182.380493 136.469861,182.313614 136.050696,182.711176 C130.642349,186.757388 124.922411,190.409753 118.846368,193.37103 C111.791036,196.80418 104.227512,199.074369 96.5712519,200.716633 C80.3833076,204.016023 63.3829985,204.528766 47.2914992,200.415675 C43.2222566,199.449637 39.3978362,197.733062 35.5400309,196.150247 C42.4766615,204.90775 51.301391,212.045283 60.9459042,217.618578 C66.2800618,220.676459 71.6550232,223.697184 77.3044822,226.142003 C78.3319938,226.621306 79.4744977,226.688186 80.5836167,226.82566 C90.5285935,227.970044 100.529212,228.638839 110.540958,228.872917 C112.195363,228.887779 113.894281,229.13672 115.511592,228.64627 C118.838949,227.691379 122.151468,226.691901 125.456569,225.651553 C140.264606,221.111176 154.434621,214.304325 166.931685,205.104673 C173.289645,200.542003 179.109737,195.288244 184.859351,189.997329 C186.042658,188.708041 187.548686,187.463338 187.901082,185.665022 C188.034621,183.101306 187.114683,180.645341 186.320866,178.25254 C184.970634,174.540726 183.672334,170.78061 181.698918,167.34746 Z M171.527666,208.953962 C159.742813,217.770914 146.314683,224.206212 132.359815,228.761451 C141.459042,228.464209 150.55085,227.784267 159.590726,226.714194 C160.970634,226.57672 162.22813,225.963657 163.485626,225.428621 C171.038022,222.203541 178.24915,218.1982 185.022566,213.557504 C187.07017,212.16418 189.232767,210.893469 191.02442,209.169463 C192.307883,208.062235 192.103864,206.215617 192.059351,204.695965 C191.714374,200.515994 190.5051,196.473498 189.384853,192.449579 C184.006182,198.531901 178.074807,204.146067 171.527666,208.953962 Z M2.38145286,214.460377 C6.27264297,217.782061 9.67418856,221.765109 12.1001546,226.283193 C8.16445131,230.121335 5.85718702,235.300784 4.54034003,240.57312 C8.07171561,238.262061 11.8850077,236.400581 15.8503864,234.970102 C16.8296754,230.251379 17.5789799,225.491785 18.298609,220.728476 C18.5656878,219.182816 18.4432767,217.53312 19.1332303,216.087779 C20.8544049,213.289985 23.8367852,211.714601 26.3925811,209.81225 C24.5935085,208.381771 22.1860896,208.48209 20.0309119,208.727315 C13.8472952,209.485283 7.94559505,211.725747 2.38145286,214.460377 Z M212.880371,209.85312 C215.387944,211.670015 218.229366,213.230537 219.980216,215.875994 C220.825966,217.414224 220.659042,219.238549 220.959505,220.921684 C221.7051,225.614398 222.417311,230.318258 223.3966,234.970102 C227.35456,236.411727 231.17898,238.247199 234.702937,240.565689 C233.378671,235.293353 231.082535,230.087896 227.117156,226.272046 C229.598764,221.779971 232.959505,217.782061 236.854405,214.452946 C231.397836,211.807489 225.648223,209.567025 219.605564,208.768186 C217.346522,208.504383 214.742504,208.262874 212.880371,209.85312 Z M24.1224111,212.97045 C25.0238022,212.881277 25.9251932,212.76238 26.8302937,212.684354 C26.7969088,212.201335 26.7672334,211.722032 26.737558,211.242729 C25.8510046,211.796343 24.953323,212.335094 24.1224111,212.97045 Z M212.513138,211.239013 C212.468624,211.718316 212.427821,212.201335 212.390726,212.68807 C213.306955,212.766096 214.215765,212.881277 215.131994,212.981597 C214.289954,212.349956 213.395981,211.800058 212.513138,211.239013 Z M22.6497682,214.753904 C21.3996909,215.196052 20.2534776,216.188099 19.9641422,217.525689 C19.2556414,223.979565 18.064915,230.370276 16.8333849,236.738694 C16.6404946,237.570972 17.2859351,238.384673 18.0426584,238.655907 C19.5227202,239.283832 21.1511592,238.934572 22.6386399,238.53701 C27.2049459,237.466938 31.9381762,236.734978 36.6268934,237.314601 C37.3020093,232.688766 38.0216383,228.070363 38.8228748,223.466821 C39.0268934,222.118084 39.5499227,220.639303 40.903864,220.067112 C43.6710974,218.840987 46.787017,219.309144 49.7137558,219.480058 C52.2732612,219.624964 54.9032457,220.293759 57.4367852,219.595239 C55.8751159,217.94926 53.6346213,217.273033 51.5387944,216.604238 C44.5724884,214.560697 37.2686244,213.992221 30.0426584,213.895617 C27.5647604,213.914194 25.0089645,213.895617 22.6497682,214.753904 Z M187.967852,216.515065 C185.812674,217.258171 183.394127,217.826647 181.839876,219.621248 C186.847604,220.516691 191.966615,218.462003 196.981762,219.587808 C198.109428,219.866473 199.311283,220.420087 199.84915,221.519884 C200.36847,222.682845 200.4983,223.964702 200.731994,225.209405 C201.366306,229.237039 202.037713,233.260958 202.605255,237.303454 C207.842968,236.682961 213.091808,237.65643 218.166306,238.897417 C219.69459,239.228099 222.194745,238.960581 222.469243,237.058229 C221.374961,231.492366 220.365997,225.900493 219.598145,220.275181 C219.37187,218.72209 219.56476,216.86061 218.236785,215.742235 C216.263369,214.088824 213.510974,214.021945 211.066461,213.910479 C203.310046,213.873324 195.460896,214.397213 187.967852,216.515065 Z M46.6942813,220.557562 C49.9437403,221.605341 53.2896445,222.329869 56.6132921,223.110131 C56.7394127,222.433904 56.8729521,221.765109 57.0139104,221.100029 C53.5604328,221.438142 50.14034,220.605864 46.6942813,220.557562 Z M182.225657,221.111176 C182.370325,221.779971 182.511283,222.452482 182.655951,223.128708 C185.96476,222.300145 189.318083,221.609057 192.571252,220.572424 C189.114065,220.594717 185.690263,221.42328 182.225657,221.111176 Z M41.7347759,221.293237 C40.5700155,221.605341 40.1916538,222.916923 40.0061824,223.972134 C39.2309119,228.880348 38.3962906,233.781132 37.7100464,238.704209 C37.576507,239.781713 37.3761978,240.929811 37.7693972,241.981306 C38.4148377,243.44894 40.1842349,243.686734 41.5455951,244.117736 C58.0562597,248.453759 74.9675425,251.158665 91.9418856,252.856662 C108.567543,254.521219 125.341577,254.755298 141.996909,253.324819 C160.173107,251.823745 178.271406,249.029666 195.965379,244.567315 C197.545595,244.095443 199.248223,243.876226 200.668934,242.984499 C201.941267,242.118781 201.733539,240.398491 201.581453,239.072046 C200.910046,234.334746 200.131066,229.612308 199.385471,224.889869 C199.162906,223.786357 199.103555,222.508215 198.246677,221.683367 C196.918702,220.728476 195.190108,221.200348 193.743431,221.56447 C180.77527,225.38775 167.365688,227.479594 153.941267,228.880348 C132.804946,230.931321 111.486862,231.046502 90.324575,229.337358 C75.0751159,228.010914 59.8293663,225.785312 45.1103555,221.475298 C44.0160742,221.200348 42.8401855,220.936546 41.7347759,221.293237 Z" id="Shape"></path>
                <path d="M148.184235,74.1099565 C149.026275,72.0998549 152.149614,72.1370102 152.95085,74.176836 C153.314374,75.9342816 153.036167,77.7623222 153.106646,79.549492 C157.62473,79.612656 162.153941,79.3822932 166.660896,79.6795356 C166.772179,81.2920755 166.742504,82.9083309 166.697991,84.5208708 C165.800309,84.7177939 164.88779,84.8181132 163.971561,84.79582 C160.34745,84.7698113 156.723338,84.8143977 153.102937,84.7660958 C153.08068,86.0628157 153.229057,87.3743977 153.036167,88.6636865 C152.572488,90.1721916 151.485626,91.3834543 150.55456,92.6207257 C149.519629,91.3611611 148.358578,90.0755878 147.995054,88.4407547 C147.857805,87.2257765 147.939413,85.9959361 147.950541,84.7735269 C143.451005,84.6992163 138.932921,85.0038897 134.451932,84.606328 C134.307264,82.9603483 134.296136,81.3032221 134.477898,79.6646734 C138.958887,79.3860087 143.462133,79.6275181 147.950541,79.5383454 C148.028439,77.7363135 147.661206,75.859971 148.184235,74.1099565 Z" id="Shape"></path>
                <path d="M71.7292117,85.9624964 C75.9282844,81.9125689 79.8751159,77.5951234 84.207728,73.6938171 C85.7137558,74.9682438 87.1307573,76.365283 88.4030912,77.8775036 C86.6559505,79.7092598 84.9199382,81.5521626 83.0874807,83.2984615 C85.8472952,86.0479536 88.6404946,88.7677213 91.3409583,91.5803774 C94.1601236,88.79373 96.9347759,85.9624964 99.768779,83.1907112 C98.0253478,81.3478084 95.9332303,79.8207257 94.4272025,77.7660377 C95.6438949,76.3244122 97.0275116,75.0388389 98.3851623,73.734688 C98.9452859,74.057939 99.483153,74.429492 99.9431221,74.8939332 C103.326121,78.3122206 106.746213,81.6933527 110.136631,85.104209 C110.52983,85.5277794 111.101082,85.9141945 110.993509,86.5792743 C111.015765,89.0761103 110.997218,91.5729463 111.019474,94.0734978 C108.574961,91.6249637 106.045131,89.2693179 103.582071,86.8467925 C100.762906,89.6780261 97.9363215,92.5018287 95.1134467,95.3293469 C98.2293663,98.4058055 101.337867,101.48598 104.424111,104.592163 C105.373725,105.457881 106.471716,106.635704 106.034003,108.040174 C105.66306,109.990827 102.914374,110.77852 101.582689,109.292308 C98.1848532,105.877736 94.787017,102.459448 91.3595054,99.0746009 C87.9987635,102.46688 84.6046368,105.833149 81.236476,109.217997 C80.4574961,110.076284 79.1554869,110.347518 78.1205564,109.793904 C76.4030912,109.147402 76.0803709,106.594833 77.4639876,105.446734 C80.8469861,102.091611 84.2151468,98.71791 87.587017,95.3516401 C84.8939722,92.5501306 82.0933539,89.8638026 79.3743431,87.0920174 C76.7851623,89.663164 74.2812983,92.3197678 71.6958269,94.8983454 C71.7032457,91.9184906 71.7292117,88.9423512 71.7292117,85.9624964 Z" id="Shape"></path>
                <path d="M138.183617,86.9805515 C138.851314,86.976836 139.52272,86.976836 140.194127,86.9694049 C142.83153,91.5246444 145.413292,96.1133237 148.039567,100.672279 C149.104173,102.277388 148.403091,104.320929 147.6983,105.926038 C145.965997,109.838491 141.325502,112.156981 137.163524,111.116633 C133.079444,110.273208 129.900464,106.401626 129.870788,102.221655 C129.874498,101.430247 130.401236,100.783745 130.746213,100.111234 C133.23524,95.7417707 135.753941,91.3834543 138.183617,86.9805515 Z M139.203709,90.4285631 C137.107883,94.1217997 135.015765,97.8187518 132.916229,101.508273 C137.12272,101.537997 141.329212,101.523135 145.539413,101.511988 C143.432457,97.8150363 141.336631,94.1106531 139.203709,90.4285631 Z" id="Shape"></path>
                <path d="M160.874189,87.0808708 C161.668006,86.8728012 162.936631,86.5829898 163.292736,87.5936139 C165.811437,92.0113788 168.281917,96.4551524 170.826584,100.85434 C171.687172,102.184499 171.160433,103.863919 170.711592,105.246096 C169.309428,109.117678 165.154869,111.815152 161.037403,111.291263 C156.307883,110.975443 152.168161,106.423919 152.661515,101.642032 C155.306337,96.7449637 158.136631,91.9333527 160.874189,87.0808708 Z M155.603091,101.519419 C159.82442,101.515704 164.049459,101.541713 168.274498,101.504557 C166.123029,97.8373295 164.04204,94.1255152 161.938794,90.4285631 C159.809583,94.1143687 157.736012,97.8336139 155.603091,101.519419 Z" id="Shape"></path>
                <path d="M88.7962906,132.796749 C89.5418856,130.745776 92.9545595,130.704906 93.6667697,132.796749 C94.1156105,134.398142 93.8188563,136.10357 93.8744977,137.74955 C96.1372488,137.768128 98.4037094,137.708679 100.666461,137.794136 C100.959505,139.484702 100.903864,141.22357 100.718393,142.928999 C98.4482226,143.103628 96.1669243,142.984731 93.8930448,143.025602 C93.9153014,149.067054 93.8633694,155.108505 93.9153014,161.146241 C96.4933539,161.142525 99.0714065,161.157388 101.649459,161.146241 C102.855023,161.209405 104.134776,160.499739 104.509428,159.3182 C104.665224,157.256081 104.43153,155.182816 104.62442,153.128128 C104.776507,151.731089 105.833694,150.709318 106.812983,149.813875 C107.799691,150.817068 109.001546,151.905718 109.023802,153.432801 C109.03493,155.309144 109.031221,157.185486 109.027512,159.065544 C108.982998,162.680755 105.540649,165.604877 102.03153,165.619739 C99.3310665,165.642032 96.6306028,165.634601 93.9338485,165.601161 C93.8819165,166.660087 93.9412674,167.77103 93.5109737,168.766792 C93.0472952,169.903745 92.0457496,170.676575 91.1777434,171.490276 C90.3431221,170.654282 89.4306028,169.836865 88.9446677,168.737068 C88.4921175,167.763599 88.5625966,166.663803 88.5292117,165.623454 C85.8472952,165.604877 83.1690881,165.664325 80.4871716,165.608592 C77.1523957,165.493411 73.8955178,162.847954 73.6692427,159.411089 C73.6173107,157.419565 73.6210201,155.42061 73.6803709,153.432801 C73.7063369,151.931727 74.8748068,150.876517 75.8132921,149.858462 C76.7703246,150.776197 77.9425039,151.745951 78.0797527,153.161567 C78.272643,155.219971 77.987017,157.300668 78.1984544,159.359071 C78.5805255,160.451437 79.7489954,161.146241 80.8840804,161.135094 C83.4398764,161.183396 85.9993818,161.116517 88.5588872,161.161103 C88.5255023,155.112221 88.5551777,149.059623 88.5440495,143.007025 C86.2108192,142.992163 83.8664606,143.122206 81.5406491,142.914136 C81.4479134,141.368476 81.3848532,139.807954 81.5332303,138.266009 C81.651932,138.147112 81.885626,137.909318 82.0043277,137.786705 C84.1854714,137.690102 86.374034,137.775559 88.5588872,137.764412 C88.6219474,136.114717 88.3140649,134.394427 88.7962906,132.796749 Z" id="Shape"></path>
                <path d="M131.514065,137.169927 C132.400618,136.300493 133.279753,135.423628 134.162597,134.550479 C136.918702,137.392859 139.745286,140.16836 142.542195,142.973585 C146.537249,142.119013 150.699227,141.98897 154.727666,142.717213 C155.235858,142.876981 155.558578,142.323367 155.910974,142.06328 C158.403709,139.566444 160.911283,137.088186 163.378053,134.565341 C164.264606,135.423628 165.14745,136.285631 166.015456,137.166212 C163.771252,139.488418 161.419474,141.706589 159.212365,144.062235 C160.985471,144.894514 162.74374,145.767663 164.416692,146.796865 C166.24544,145.132308 168.077898,143.475181 169.902937,141.806909 C170.800618,144.604702 170.062442,147.606851 168.652859,150.09254 C170.522411,152.355298 170.841422,155.480058 169.969706,158.225835 C168.037094,156.598433 166.219474,154.840987 164.361051,153.135559 C162.072334,154.963599 159.364451,156.141422 156.597218,157.040581 C158.199691,158.571379 159.735394,160.165341 161.323029,161.711001 C162.547141,160.484877 163.693354,159.188157 164.969397,158.017765 C164.987944,161.354311 164.991654,164.694572 164.961978,168.034833 C161.64575,167.967954 158.322102,168.042264 155.005873,168.008824 C156.200309,166.726967 157.472643,165.523135 158.689335,164.259855 C156.448841,162.127141 154.308501,159.897823 152.10881,157.724238 C149.923957,157.973179 147.727975,157.649927 145.55425,157.661074 C143.269243,159.797504 141.151159,162.108563 138.87357,164.256139 C140.012365,165.59373 141.366306,166.71582 142.531066,168.031118 C139.203709,168.027402 135.876352,167.9791 132.552705,168.057126 C132.563833,164.687141 132.545286,161.317155 132.552705,157.94717 C133.743431,159.240174 135.008346,160.458868 136.254714,161.692424 C137.942504,160.05016 139.596909,158.374456 141.266151,156.709898 C137.174652,155.520929 133.825039,152.790015 130.675734,150.036807 C132.949614,147.647721 135.642658,145.682206 138.628748,144.285167 C136.243586,141.925806 133.862133,139.562729 131.514065,137.169927 Z" id="Shape"></path>
                <path d="M54.6695518,242.464325 C55.3780526,238.380958 55.9641422,234.279013 56.6429675,230.19193 C57.3959815,230.321974 58.1564142,230.448302 58.916847,230.567199 C60.7233385,233.855443 62.4408037,237.195704 64.2398764,240.491379 C64.6738794,237.492946 65.0374034,234.487083 65.4825348,231.492366 C66.220711,231.600116 66.9588872,231.715298 67.7007728,231.815617 C67.1183926,235.913846 66.6398764,240.026938 66.0797527,244.132598 C65.2896445,244.03971 64.4995363,243.935675 63.7094281,243.83164 C61.9103555,240.483948 60.1520866,237.113962 58.3863988,233.751408 C57.8188563,236.78328 57.4850077,239.852308 56.9397218,242.887896 C56.179289,242.74299 55.4262751,242.609231 54.6695518,242.464325 Z" id="Shape"></path>
                <path d="M181.008964,230.515181 C181.543122,230.396284 182.080989,230.281103 182.622566,230.169637 C183.249459,234.293875 183.898609,238.418113 184.562597,242.53492 C183.998764,242.6018 183.43864,242.668679 182.878516,242.739274 C182.273879,238.663338 181.650696,234.587402 181.008964,230.515181 Z" id="Shape"></path>
                <path d="M176.650386,231.113382 C177.173416,231.027925 177.700155,230.946183 178.230603,230.868157 C178.853787,234.981248 179.443586,239.105486 180.055641,243.222293 C179.488099,243.270595 178.924266,243.318897 178.360433,243.367199 C177.833694,239.276401 177.188253,235.200464 176.650386,231.113382 Z" id="Shape"></path>
                <path d="M70.2862442,232.142583 C71.0540958,232.228041 71.8219474,232.313498 72.5897991,232.398955 C72.4006182,234.104383 72.1669243,235.806096 72,237.518955 C74.0661515,237.745602 76.1323029,237.983396 78.1984544,238.191466 C78.3802164,236.489753 78.5285935,234.784325 78.7326121,233.086328 C79.5004637,233.156923 80.2720247,233.231234 81.0435858,233.298113 C80.6318393,237.426067 80.2126739,241.55402 79.8454405,245.685689 C79.0404946,245.611379 78.2392581,245.533353 77.4380216,245.462758 C77.6272025,243.697881 77.7941267,241.933004 78.0055641,240.171843 C75.924575,239.948911 73.8361669,239.763135 71.766306,239.473324 C71.5214838,241.227054 71.3545595,242.988215 71.1431221,244.749376 C70.3493045,244.663919 69.5554869,244.574746 68.7653787,244.504151 C69.2587326,240.383628 69.7780526,236.263106 70.2862442,232.142583 Z" id="Shape"></path>
                <path d="M156.352396,233.509898 C156.879134,233.428157 157.413292,233.3427 157.94745,233.268389 C158.103246,234.50566 158.225657,235.746647 158.307264,236.995065 C159.89119,236.382003 161.77187,236.01045 163.318702,236.950479 C165.952396,238.514717 166.089645,242.761567 163.697063,244.608186 C161.90541,245.923483 159.546213,245.525922 157.468934,245.518491 C157.097991,241.516865 156.741886,237.511524 156.352396,233.509898 Z M158.489026,238.336372 C158.585471,240.305602 158.867388,242.256255 159.023184,244.225486 C160.558887,244.240348 162.561978,244.370392 163.433694,242.809869 C164.082844,241.357097 163.941886,239.365573 162.762287,238.213759 C161.441731,237.385196 159.846677,237.901655 158.489026,238.336372 Z" id="Shape"></path>
                <path d="M83.6216383,233.751408 C84.3301391,233.424441 85.161051,233.751408 85.9214838,233.743977 C85.8361669,235.460552 85.6544049,237.173411 85.5023184,238.88627 C87.5758887,239.046038 89.649459,239.179797 91.7193199,239.369289 C91.8602782,237.65643 91.9493045,235.939855 92.0828439,234.230711 C92.8544049,234.260435 93.6296754,234.308737 94.4049459,234.353324 C94.1304482,238.507286 93.8782071,242.664964 93.6370943,246.822642 C92.8395672,246.748331 92.0420402,246.67402 91.2482226,246.59971 C91.3446677,244.842264 91.4670788,243.084819 91.5969088,241.331089 C89.5085008,241.223338 87.4275116,241.018984 85.342813,240.877794 C85.2018547,242.627808 85.031221,244.377823 84.9496136,246.131553 C84.1483771,246.083251 83.3434312,246.023803 82.5421947,245.990363 C82.8574961,241.906996 83.2395672,237.827344 83.6216383,233.751408 Z" id="Shape"></path>
                <path d="M96.9941267,234.542816 C97.7693972,234.579971 98.5446677,234.609695 99.3199382,234.639419 C99.1196291,238.782235 98.9007728,242.925051 98.7041731,247.071582 C97.8955178,247.030711 97.0905719,246.993556 96.2893354,246.960116 C96.5489954,242.821016 96.7826893,238.681916 96.9941267,234.542816 Z" id="Shape"></path>
                <path d="M105.173416,234.925515 C105.763215,234.936662 106.353014,234.951524 106.946522,234.973817 C108.296754,238.637329 109.832457,242.226531 111.260587,245.860319 C112.86677,242.319419 114.406182,238.748795 115.930757,235.174456 C116.505719,235.155878 117.076971,235.148447 117.655641,235.144731 C115.804637,239.287547 114.012983,243.456372 112.072952,247.558316 C111.457187,247.528592 110.845131,247.517446 110.236785,247.521161 C108.556414,243.318897 106.883462,239.116633 105.173416,234.925515 Z" id="Shape"></path>
                <path d="M128.62442,235.081567 C129.165997,235.059274 129.711283,235.036981 130.260278,235.022119 C130.338176,239.187228 130.5051,243.352337 130.538485,247.521161 C129.98949,247.517446 129.447913,247.524877 128.902628,247.528592 C128.832148,243.378345 128.724575,239.231814 128.62442,235.081567 Z" id="Shape"></path>
                <path d="M133.046059,234.925515 C133.598764,234.914369 134.155178,234.910653 134.711592,234.914369 C134.759815,239.057184 135.000927,243.192569 135.134467,247.335385 C134.563215,247.342816 133.999382,247.357678 133.435549,247.37254 C133.350232,243.222293 133.153632,239.072046 133.046059,234.925515 Z" id="Shape"></path>
                <path d="M167.447295,236.029028 C169.23153,235.408534 171.186399,234.936662 173.063369,235.415965 C174.050077,235.690914 174.676971,236.653237 174.784544,237.637852 C175.051623,239.785428 175.429985,241.921858 175.58949,244.080581 C174.992272,243.853933 174.413601,243.590131 173.860896,243.289173 C172.529212,244.14746 170.923029,244.689927 169.335394,244.370392 C167.176507,244.102874 166.63493,240.744035 168.393199,239.621945 C169.865842,238.670769 171.705719,238.771089 173.38238,238.629898 C173.12272,237.87193 173.026275,236.790711 172.061824,236.623512 C170.518702,236.307692 168.990417,236.913324 167.536321,237.362903 C167.502937,236.917039 167.473261,236.471176 167.447295,236.029028 Z M169.695209,240.509956 C168.638022,241.026415 168.84575,242.780145 169.965997,243.066241 C171.268006,243.382061 172.484699,242.642671 173.597527,242.066763 C173.564142,241.353382 173.501082,240.643716 173.438022,239.937765 C172.191654,240.064093 170.841422,239.934049 169.695209,240.509956 Z" id="Shape"></path>
                <path d="M153.4034,237.039652 C153.978362,236.998781 154.560742,236.95791 155.143122,236.928186 C154.093354,240.272163 153.032457,243.616139 151.934467,246.945254 C151.467079,248.279129 150.42473,249.308331 149.219165,250.003135 C148.940958,249.642729 148.662751,249.286038 148.388253,248.936778 C149.204328,248.264267 150.450696,247.550885 150.465533,246.399071 C149.196909,243.415501 147.624111,240.554543 146.355487,237.567257 C146.945286,237.530102 147.542504,237.500377 148.139722,237.478084 C149.163524,239.770566 150.16136,242.081626 151.259351,244.340668 C152.008655,241.918142 152.728284,239.48447 153.4034,237.039652 Z" id="Shape"></path>
                <path d="M139.13323,238.563019 C140.687481,237.574688 142.946522,237.626705 144.385781,238.804528 C145.49119,239.770566 145.487481,241.357097 145.561669,242.705835 C143.321175,242.854456 141.069552,242.869318 138.832767,243.099681 C139.107264,243.805631 139.211128,244.723367 139.945595,245.132075 C141.559196,246.172424 143.540031,245.514775 145.279753,245.232395 C145.29459,245.663396 145.309428,246.098113 145.324266,246.53283 C143.332303,246.900668 141.01762,247.495152 139.233385,246.191001 C136.662751,244.552453 136.570015,240.246154 139.13323,238.563019 Z M140.071716,239.503048 C139.2,239.874601 139.018238,240.877794 138.717774,241.672917 C140.505719,241.669202 142.289954,241.55402 144.06677,241.375675 C143.840495,240.862932 143.655023,240.335327 143.35456,239.86717 C142.560742,238.91971 141.091808,239.042322 140.071716,239.503048 Z" id="Shape"></path>
                <path d="M120.697372,238.6782 C123.201236,237.771611 126.176198,239.633091 126.42473,242.297126 C127.036785,245.068911 124.514374,247.9373 121.676662,247.58061 C118.983617,247.439419 116.987944,244.556168 117.711283,241.973875 C118.015456,240.439361 119.183926,239.101771 120.697372,238.6782 Z M121.10541,239.882032 C119.087481,240.417068 118.931685,243.077388 119.525193,244.727083 C120.267079,246.878374 123.805873,246.822642 124.577434,244.727083 C124.952087,243.616139 124.937249,242.364006 124.555178,241.260493 C124.061824,239.90061 122.366615,239.529057 121.10541,239.882032 Z" id="Shape"></path>
            </g>
        </g>
    </g>
</svg>