<?xml version="1.0" encoding="UTF-8"?>
<svg width="256px" height="256px" viewBox="0 0 256 256" version="1.1" xmlns="http://www.w3.org/2000/svg" xmlns:xlink="http://www.w3.org/1999/xlink">
    <!-- Generator: Sketch 51.3 (57544) - http://www.bohemiancoding.com/sketch -->
    <title>logo/nyborg</title>
    <desc>Created with Sketch.</desc>
    <defs></defs>
    <g id="logo/nyborg" stroke="none" stroke-width="1" fill="none" fill-rule="evenodd">
        <g id="nyborg" transform="translate(12.000000, 0.000000)" fill="#FFFFFF" fill-rule="nonzero">
            <g id="#01245cff">
                <path d="M114.878251,0.373041894 C117.615446,21.4126047 120.511184,42.4335155 123.253042,63.4730783 C117.969836,63.2865574 112.677304,63.3704918 107.389435,63.4730783 C109.884153,42.4381785 112.294936,21.3939526 114.878251,0.373041894 Z" id="Shape"></path>
                <path d="M129.827905,65.9351548 C142.944991,51.8621494 156.164663,37.8963934 169.305064,23.8513661 C160.174863,40.4097632 150.970055,56.9308561 141.797887,73.4706011 C137.820328,70.9385792 133.833443,68.4252095 129.827905,65.9351548 Z" id="Shape"></path>
                <path d="M60.1576685,24.7886339 C73.7317304,38.2880874 87.3804007,51.7129326 101.024408,65.1377778 C96.9442623,67.749071 92.9200729,70.4536248 88.7932969,72.9949727 C79.3133698,56.8888889 69.6562477,40.8807286 60.1576685,24.7886339 Z" id="Shape"></path>
                <path d="M147.514754,80.353224 C162.557668,78.2828415 177.59592,76.1984699 192.64816,74.249326 C178.584481,79.7936612 164.502149,85.3053552 150.433807,90.8496903 C149.48255,87.3430965 148.517304,83.8411658 147.514754,80.353224 Z" id="Shape"></path>
                <path d="M40.372459,74.7342805 C55.3827322,76.1891439 70.3557013,77.9657559 85.3566485,79.4812386 C84.7131512,83.1323862 83.8411658,86.7369035 83.1417122,90.378725 C68.8961749,85.1328233 54.6459745,79.9055738 40.372459,74.7342805 Z" id="Shape"></path>
                <path d="M0.517595628,91.7403279 C5.12466302,91.8569035 9.7270674,91.7822951 14.3294718,91.8009472 C14.3014936,96.2214936 14.3434608,100.637377 14.2735155,105.057923 C18.9365392,105.015956 23.5995628,105.039271 28.2579235,104.885392 C28.2392714,100.511475 28.2485974,96.1422222 28.2485974,91.768306 C32.6365027,92.0340984 37.029071,91.8382514 41.4169763,91.8988707 C41.36102,96.2681239 41.5009107,100.64204 41.3283789,105.00663 C45.9867395,104.973989 50.6404372,104.899381 55.2987978,104.899381 C55.2708197,100.530128 55.2801457,96.1562113 55.3034608,91.7869581 C59.9338434,91.7263388 64.5642259,91.964153 69.1946084,91.8988707 C69.1666302,110.149945 69.1479781,128.40102 69.1339891,146.652095 C73.5452095,146.526193 77.9610929,146.600801 82.3723133,146.596138 C82.4142805,141.975082 82.3909654,137.354026 82.3863024,132.732969 C86.9887067,132.760947 91.5911111,132.67235 96.1935155,132.793588 C96.2121676,137.395993 96.1468852,141.998397 96.2261566,146.600801 C100.865865,146.577486 105.500911,146.67541 110.140619,146.633443 C110.140619,141.998397 110.145282,137.363352 110.135956,132.732969 C114.533188,132.756284 118.935082,132.686339 123.336976,132.774936 C123.322987,137.395993 123.322987,142.017049 123.332313,146.633443 C127.972022,146.62878 132.607067,146.642769 137.242113,146.62878 C137.232787,142.031038 137.251439,137.433297 137.228124,132.835556 C141.616029,132.82623 146.003934,132.854208 150.39184,132.821566 C150.433807,137.405319 150.396503,141.989071 150.415155,146.572823 C155.078179,146.703388 159.745865,146.56816 164.408889,146.680073 C164.399563,128.433661 164.338944,110.182587 164.324954,91.9361749 C168.936685,91.9128597 173.548415,91.9734791 178.164809,91.8848816 C178.15082,96.501275 178.024918,101.122332 178.155483,105.743388 C182.795191,105.566193 187.439563,105.692095 192.083934,105.664117 C192.04663,101.04306 192.060619,96.4173406 192.051293,91.7916211 C196.653698,91.7869581 201.260765,91.8149362 205.863169,91.7776321 C205.937778,96.4080146 205.830528,101.033734 205.84918,105.664117 C210.269727,105.659454 214.690273,105.654791 219.11082,105.664117 C219.115483,101.075701 219.115483,96.482623 219.11082,91.8895446 C223.699235,91.8522404 228.292313,91.7496539 232.885392,91.7869581 C233.001967,146.381639 232.899381,200.976321 232.964663,255.566339 C205.676648,255.589654 178.388634,255.561676 151.100619,255.580328 C151.007359,241.875701 151.13326,228.171075 151.044663,214.471111 C151.04,205.662659 151.54827,196.51847 148.102295,188.204299 C145.21122,182.035118 140.925902,176.294936 135.013188,172.741712 C132.257341,171.021056 129.4502,169.244444 126.279344,168.409763 C121.952058,167.164736 117.400947,166.124882 112.88714,166.852313 C109.664991,167.411876 106.377559,168.05071 103.486485,169.640801 C102.162186,170.335592 100.74929,170.843862 99.4203279,171.529326 C92.8967577,175.604809 87.1332605,181.475556 84.6432058,188.889763 C84.0416758,191.081384 82.9225501,193.114463 82.5681603,195.380692 C82.0692168,198.001311 82.3629872,200.68255 82.3396721,203.331148 C82.3303461,220.752204 82.3629872,238.17326 82.3256831,255.594317 C54.9910383,255.561676 27.6563934,255.571002 0.321748634,255.589654 C0.433661202,217.021785 0.3543898,178.453916 0.419672131,139.886047 C0.522258652,123.83592 0.554899818,107.790455 0.517595628,91.7403279 Z M70.0572678,156.11337 C70.9059381,156.901421 72.0297268,157.279126 72.9903097,157.903971 C73.8063388,158.099818 73.6711111,159.652605 72.7804736,159.536029 C71.6566849,159.67592 70.5189071,159.605974 69.3904554,159.615301 C69.3951184,160.044299 69.3997814,160.47796 69.4091075,160.911621 C70.7613843,160.883643 72.1323133,160.995556 73.4706011,160.734426 C75.0093989,160.328743 75.3497996,158.123133 74.24,157.092605 C73.1861566,156.150674 71.7312933,155.814936 70.7100911,154.826375 C71.1251002,153.175665 73.3307104,154.061639 74.5710747,153.823825 C74.5664117,153.516066 74.5570856,152.900546 74.5570856,152.592787 C73.3353734,152.606776 72.0950091,152.476211 70.891949,152.709362 C69.4650638,153.087067 69.0174135,155.115483 70.0572678,156.11337 Z M103.160073,153.539381 C102.054936,154.942951 102.773042,157.041311 104.330492,157.76408 C104.596284,157.614863 105.127869,157.311767 105.393661,157.16255 C104.531002,157.838689 103.593734,158.430893 102.819672,159.209617 C102.381348,159.685246 102.381348,160.165537 102.824335,160.659818 C104.600947,161.098142 106.461494,160.851002 108.27541,160.883643 C108.284736,160.566557 108.298725,159.937049 108.303388,159.619964 C107.030383,159.615301 105.76204,159.615301 104.493698,159.605974 C105.999854,158.263024 108.592495,157.185865 108.317377,154.770419 C108.116867,152.294353 104.51235,151.608889 103.160073,153.539381 Z M109.035483,153.837814 C110.37377,153.833151 111.712058,153.833151 113.050346,153.833151 C111.99184,156.183315 110.965974,158.547468 109.893479,160.897632 C110.289836,160.897632 111.077887,160.902295 111.469581,160.902295 C112.406849,158.738652 113.414062,156.602987 114.342004,154.434681 C114.570492,153.879781 114.934208,152.89122 114.076211,152.695373 C112.420838,152.44357 110.72816,152.634754 109.063461,152.583461 C109.044809,152.99847 109.035483,153.418142 109.035483,153.837814 Z M139.853406,153.898434 C138.986084,155.437231 139.960656,157.241821 141.494791,157.857341 C140.855956,158.295665 140.189144,158.706011 139.648233,159.260911 C139.340474,159.699235 139.326485,160.645829 140.021275,160.729763 C141.718616,161.070164 143.471913,160.851002 145.197231,160.897632 C145.192568,160.575883 145.187905,159.932386 145.187905,159.615301 C143.989508,159.610638 142.795774,159.610638 141.606703,159.577996 C142.944991,158.137122 145.481676,157.185865 145.243862,154.84969 C145.136612,152.117158 140.977195,151.557596 139.853406,153.898434 Z M147.519417,152.69071 C145.285829,153.749217 145.780109,156.56102 145.878033,158.570783 C146.083206,160.776393 148.950965,161.774281 150.611002,160.422004 C152.261712,159.065064 151.64153,156.663607 151.64153,154.807723 C151.450346,152.872568 149.174791,151.963279 147.519417,152.69071 Z M154.383388,152.532168 C153.129035,152.816612 152.19643,154.038324 152.219745,155.320656 C152.224408,156.780182 151.925974,158.398251 152.686047,159.727213 C153.69326,161.405902 156.458434,161.48051 157.530929,159.825137 C158.510164,158.505501 158.090492,156.76153 158.085829,155.246047 C158.113807,153.404153 156.132022,151.94929 154.383388,152.532168 Z M80.3345719,153.259599 C79.1921311,153.296903 79.5931512,155.068852 80.6283424,154.719126 C81.5422951,154.691148 81.2205464,153.040437 80.3345719,153.259599 Z M82.5681603,153.903097 C82.2977049,156.220619 82.5215301,158.570783 82.4562477,160.902295 C82.7779964,160.902295 83.4214936,160.897632 83.7432423,160.897632 C83.7479053,159.386812 83.7479053,157.875993 83.7432423,156.369836 C84.2981421,156.369836 84.8623679,156.369836 85.4219308,156.374499 C85.4219308,156.057413 85.4126047,155.413916 85.4079417,155.096831 C84.8017486,155.087505 84.1908925,155.078179 83.5846995,155.068852 C83.7059381,153.996357 84.6198907,153.70725 85.5944627,153.721239 C85.5851366,153.422805 85.5618215,152.830601 85.5524954,152.532168 C84.4566849,152.59745 82.8526047,152.522842 82.5681603,153.903097 Z M134.453625,153.24561 C133.544335,153.143024 133.404444,154.761093 134.327723,154.723789 C135.423534,155.101494 135.540109,153.101056 134.453625,153.24561 Z M158.304991,158.934499 C159.52204,159.01377 160.743752,159.055738 161.965464,159.069727 C161.965464,159.680583 161.965464,160.291439 161.970128,160.906958 C162.315191,160.906958 163.005319,160.902295 163.350383,160.902295 C163.345719,160.282113 163.345719,159.666594 163.345719,159.055738 C163.63949,159.055738 164.222368,159.051075 164.511475,159.051075 C164.516138,158.724663 164.530128,158.07184 164.539454,157.745428 C164.236357,157.745428 163.63949,157.750091 163.341056,157.750091 C163.345719,156.108707 163.39235,154.471985 163.322404,152.839927 L162.459745,152.364299 C162.548342,152.760656 162.7302,153.548707 162.818798,153.945064 C162.450419,153.418142 162.077377,152.900546 161.695009,152.392277 C160.254135,154.350747 158.706011,156.495738 158.304991,158.934499 Z M75.5549727,153.763206 C75.6668852,155.819599 75.3451366,157.908634 75.7275046,159.937049 C76.2264481,161.18674 77.793224,160.77173 78.8470674,160.934936 C78.8330783,160.603862 78.7957741,159.946375 78.777122,159.615301 C78.1336248,159.605974 77.4901275,159.596648 76.8512933,159.587322 C76.8419672,158.514827 76.8373042,157.442332 76.8326412,156.369836 C77.4808015,156.379162 78.1289617,156.388488 78.7817851,156.402477 C78.767796,155.954827 78.7584699,155.507177 78.7584699,155.064189 C78.1196357,155.073515 77.4808015,155.082842 76.8419672,155.096831 C76.8373042,154.747104 76.8326412,154.052313 76.8279781,153.702587 C76.39898,153.716576 75.9746448,153.735228 75.5549727,153.763206 Z M85.6877231,153.749217 C85.7903097,155.796284 85.4778871,157.889982 85.8742441,159.909071 C86.2799271,161.182077 87.9166485,160.781056 88.9378506,160.934936 C88.9378506,160.603862 88.9378506,159.941712 88.9378506,159.610638 C88.2943534,159.605974 87.6555191,159.601311 87.0120219,159.601311 C86.9933698,158.51949 86.9840437,157.442332 86.9747177,156.365173 C87.622878,156.374499 88.2710383,156.383825 88.9238616,156.402477 C88.9285246,155.954827 88.9331876,155.51184 88.9378506,155.073515 C88.2850273,155.078179 87.636867,155.087505 86.9887067,155.096831 C86.9887067,154.751767 86.9840437,154.066302 86.9840437,153.725902 C86.6622951,153.730565 86.0141348,153.739891 85.6877231,153.749217 Z M95.8484517,153.749217 C95.9510383,155.796284 95.6759199,157.875993 96.0209836,159.904408 C96.501275,161.17275 98.072714,160.804372 99.1312204,160.930273 C99.1265574,160.594536 99.1125683,159.927723 99.1079053,159.591985 C98.4737341,159.601311 97.8395628,159.610638 97.2100546,159.619964 C97.1634244,158.538142 97.1447723,157.451658 97.1214572,156.369836 C97.7882696,156.369836 98.455082,156.374499 99.1265574,156.383825 C99.1218944,156.057413 99.1125683,155.409253 99.1079053,155.082842 C98.4504189,155.082842 97.8022587,155.082842 97.1494353,155.087505 C97.1494353,154.747104 97.1447723,154.066302 97.1447723,153.725902 C96.8183607,153.730565 96.1748634,153.744554 95.8484517,153.749217 Z M91.1854281,155.134135 C88.802623,155.800947 88.4482332,159.47541 90.6351913,160.617851 C92.551694,161.806922 95.0743898,160.342732 95.2655738,158.169763 C94.9484882,158.151111 94.3143169,158.109144 93.9925683,158.085829 C93.6568306,158.580109 93.530929,159.265574 93.0040073,159.605974 C92.2719126,159.909071 91.5071767,159.564007 90.789071,159.433443 C92.16,158.449545 93.6708197,157.694135 95.12102,156.850128 C94.3049909,155.530492 92.7708561,154.537268 91.1854281,155.134135 Z M118.818506,156.178652 C118.426812,157.684809 118.697268,159.284226 118.60867,160.827687 C118.944408,160.851002 119.620546,160.897632 119.960947,160.920947 C119.974936,159.554681 119.881676,158.179089 120.030893,156.817486 C120.16612,156.076066 121.313224,156.00612 121.579016,156.686922 C121.765537,158.076503 121.662951,159.489399 121.67694,160.888306 C122.012678,160.892969 122.674827,160.897632 123.010565,160.902295 C123.019891,159.494062 122.92663,158.081166 123.108488,156.686922 C123.48153,156.076066 124.651949,156.010783 124.721894,156.882769 C124.880437,158.21173 124.777851,159.554681 124.79184,160.892969 C125.118251,160.897632 125.761749,160.902295 126.08816,160.906958 C126.060182,159.349508 126.19541,157.782732 125.985574,156.239271 C125.379381,154.761093 123.560801,154.765756 122.385719,155.502514 C121.243279,154.775082 119.434026,154.751767 118.818506,156.178652 Z M127.934718,155.423242 C126.022878,156.570346 126.274681,159.867104 128.321749,160.729763 C129.580765,161.43388 131.735082,160.823024 131.184845,159.032423 C130.476066,159.251585 129.781275,160.072277 129.007213,159.643279 C128.013989,159.256248 127.720219,158.029872 128.083934,157.111257 C128.676138,155.996794 130.518033,155.931512 131.166193,157.027322 C131.329399,158.309654 131.222149,159.605974 131.240801,160.897632 C131.581202,160.897632 132.262004,160.897632 132.602404,160.897632 C132.574426,159.498725 132.723643,158.076503 132.443862,156.700911 C131.823679,154.914973 129.417559,154.551257 127.934718,155.423242 Z M79.76102,155.087505 C79.756357,157.022659 79.756357,158.957814 79.76102,160.892969 C80.0827687,160.897632 80.7169399,160.906958 81.0386885,160.911621 C81.0433515,158.96714 81.0480146,157.027322 81.0386885,155.087505 C80.7169399,155.087505 80.0781056,155.087505 79.76102,155.087505 Z M133.791475,155.096831 C133.814791,157.004007 133.707541,158.915847 133.894062,160.818361 C134.192495,160.860328 134.798689,160.939599 135.101785,160.981566 C135.115774,159.01377 135.106448,157.045974 135.101785,155.082842 C134.775373,155.082842 134.117887,155.092168 133.791475,155.096831 Z M116.389071,159.340182 C115.232641,159.615301 116.062659,161.597086 117.027905,160.827687 C117.951184,160.501275 117.303024,159.004444 116.389071,159.340182 Z" id="Shape"></path>
            </g>
        </g>
        <rect id="Rectangle-3" fill="#FFFFFF" fill-rule="nonzero" x="74" y="151" width="106" height="14"></rect>
    </g>
</svg>