<?xml version="1.0" encoding="UTF-8"?>
<svg width="880px" height="535px" viewBox="0 0 880 535" version="1.1" xmlns="http://www.w3.org/2000/svg" xmlns:xlink="http://www.w3.org/1999/xlink">
  <g id="osvb" fill-rule="nonzero" fill="#00A2D5">
      <path d="M239.79,4.76 C247.06,-0.5 257.73,-0.32 264.89,5.07 C268.69,7.93 271.91,11.85 273.25,16.47 C274.77,23.14 271.63,29.58 271.34,36.19 C271.27,37.58 270.73,38.87 270.3,40.18 C271.45,41.98 273.02,43.72 273.02,45.98 C273.23,51.52 274.04,57.18 272.62,62.63 C271.33,66.39 273.37,70.25 272.27,74.04 C270.63,73.75 269,73.44 267.37,73.13 C266.5,80.71 266.25,88.35 264.97,95.88 C264.32,99.61 263.89,103.37 263.6,107.14 C267.1,108.08 270.95,108.68 273.72,111.23 C276.37,113.61 278.65,116.37 281.02,119.02 C285.26,117.74 289.67,117.14 294.1,117.27 C298.71,104.58 305.44,92.62 308.16,79.29 C309.96,70.29 311.12,61.15 311.77,52 C312.29,45.24 305.66,41.62 301.62,37.38 C297.55,32.96 294.84,27.5 291.56,22.52 C290.78,17.68 290.18,12.64 290.63,7.73 C290.98,7.58 291.68,7.28 292.03,7.13 C294.22,9.6 294.16,13.17 295.94,15.88 C296.66,11.79 296.87,7.6 298.12,3.61 C299.17,4.42 300.3,5.15 301.16,6.18 C301.49,10.93 298.67,16.59 302.5,20.5 C302.99,15.36 301.73,10.31 301.68,5.19 C303.31,6.21 305.47,7.04 305.89,9.16 C306.91,13.29 306.27,17.64 307.22,21.78 C307.88,23.9 309.9,25.19 311.4,26.7 C311.22,21.79 310.09,17 309.44,12.15 C310.64,13.04 312.25,13.65 312.86,15.13 C314.76,19.52 315.44,24.33 317.29,28.72 C319.8,33.12 324.16,36.19 326.41,40.76 C327.68,44.05 326.4,47.59 326.38,50.98 C326.24,59.99 326.68,69 326.97,78 C327.71,97.26 325.42,116.45 323.28,135.55 C322.97,137.47 321.33,138.74 319.82,139.76 C308.76,146.49 296.27,151.98 283.04,151.23 C282.27,158.14 282.03,165.1 280.96,171.97 C279.3,183.66 275.76,194.98 273.78,206.61 C272.78,219.63 274.53,232.88 271.57,245.73 C270.85,247.62 272.5,249.09 273.32,250.62 C275.46,253.7 276.42,257.44 278.66,260.45 C282.86,262 284.06,255.91 286.17,253.48 C286.4,258.39 282.6,261.76 279.25,264.7 C283.82,267.28 289.53,266.16 294.01,268.98 C296.16,270.12 297.58,272.44 297.55,274.89 C297.84,276.8 295.74,277.64 294.69,278.88 C295.1,276.66 297.33,273.93 295.14,272 C291.62,268.84 286.52,269.22 282.13,269.38 C282.19,272.79 282.26,276.2 282.61,279.6 C283.25,286.24 287.13,292.18 287.08,298.94 C287.37,304.94 285.42,310.7 284.74,316.6 C283.85,323.74 283.65,330.98 284.38,338.15 C285.28,347.42 285.46,356.72 285.88,366.02 C285.8,369.63 289.77,371.58 290.19,375.05 C290.44,379.64 288.49,383.9 287.31,388.24 C286.08,393.31 288.86,398.45 287.58,403.51 C286.11,405.03 283.93,405.39 281.96,405.81 C275.9,406.93 269.79,407.73 263.64,408.09 C263.55,412.99 263.96,418.16 261.71,422.69 C258.61,428.87 256.02,435.33 252.09,441.05 C246.81,449.27 239.46,455.84 232.08,462.12 C224.36,468.79 217.78,476.67 212.19,485.19 C207.4,491.71 203.91,499.36 197.46,504.49 C193.35,507.83 191.58,513.13 187.58,516.58 C185.45,518.48 183.4,520.55 182.11,523.14 C180.05,527.38 175.79,529.8 172.08,532.41 C170.15,533.9 167.65,534.59 165.24,534.07 C163.19,532.29 162.25,529.54 161.73,526.96 C161.25,524.13 163.11,521.7 164.22,519.27 C166.73,514.79 166.84,509.24 170.18,505.2 C173.54,501.19 178.71,498.72 180.78,493.67 C183.82,486.29 184.3,478.19 186.51,470.58 C187.41,467.11 190.46,464.25 194.02,463.73 C196.74,463.64 199.37,464.58 202.08,464.7 C203.46,463.82 204.18,462.3 204.97,460.95 C210.18,451.19 214.35,440.89 217.37,430.25 C218.57,425.17 221.45,420.75 224.99,417 C228.05,413.97 230.14,410.2 231.33,406.08 C229.9,404.65 227.74,403.32 228.3,400.96 C229.64,391.03 223.54,381.95 223.95,372.06 C223.95,366.83 224.85,360.43 220.4,356.62 C216.94,353.67 212.78,350.71 208.12,350.47 C204.18,352.64 207.04,357.64 207.06,361.06 C208.34,367.68 200.74,371.56 200.94,378.01 C200.83,381.68 199.96,385.44 197.03,387.91 C195.74,386.56 194.65,384.67 192.63,384.39 C188.14,383.58 183.53,383.95 178.99,383.74 C169.97,383.67 160.98,383.04 151.99,382.35 C147.45,387.11 142.7,392.06 136.37,394.38 C131.56,395.76 128.94,401.16 123.73,401.58 C114.7,402.71 106.96,396.26 98.03,396.73 C91.16,396.85 84.28,396.85 77.42,397.07 C74.2,403.23 67.41,405.92 63.13,411.14 C60.44,413.98 60.23,418.52 56.89,420.83 C53.76,423.02 50.85,425.49 48.11,428.15 C46.68,429.79 44.51,430.13 42.47,430.37 C41.81,428.76 41.28,427.1 40.52,425.55 C38.78,423.62 36.47,422.04 35.53,419.54 C34.86,413.5 36.07,407.43 37.66,401.62 C39.67,393.34 47.92,389.22 52.9,382.93 C57.1,378.74 60.25,371.88 67,371.72 C70.41,371.17 73.56,372.75 76.19,374.76 C85,370.13 91.95,361.89 102.08,360.03 C106.64,358.95 111.42,359.29 115.87,360.72 C119.01,356.39 121.99,351.89 123.92,346.88 C128.51,335.18 134.28,324 139.65,312.65 C143.26,305.3 146.52,297.76 150.7,290.71 C153.83,285.89 151.22,279.91 152.73,274.69 C154.77,272.59 157.98,272.7 160.63,271.91 C162.41,267.18 164.97,262.82 167.23,258.32 C168.61,254.16 168.1,249.61 169.61,245.46 C170.71,241.38 175.18,239.58 176.78,235.76 C179.39,229.81 181.83,223.75 183.53,217.46 C186.5,206.93 190.73,196.58 191.33,185.53 C192.44,168.69 192.29,151.78 191.86,134.91 C191.62,123.66 186.69,113.31 184.45,102.42 C183.9,98.89 181.25,95.9 177.59,95.54 C166.1,93.64 154.74,90.72 143.06,90.09 C136.39,89.71 130.02,87.6 123.51,86.28 C116.94,84.89 110.17,84.83 103.56,83.67 C94.14,81.92 84.87,79.43 75.9,76.06 C64.58,72.28 53.13,67.09 40.9,68.22 C35.44,68.16 30.04,71.42 24.66,69.24 C20.55,68.18 18.17,64.49 15.14,61.87 C9.6,61.36 2.71,59.92 0.24,54.27 C3.09,52.71 6.1,51.47 8.97,49.94 C11.44,48.57 13.81,46.04 16.9,46.76 C24.73,49.09 30.29,57.3 38.96,56.95 C43,57.34 46.94,58.48 51.01,58.52 C68.37,58.94 85.64,56.61 102.99,56.4 C110.37,56.23 117.46,58.83 124.01,62 C132.27,66.5 142.03,64.72 151.02,64.83 C155.85,64.45 160.47,65.97 165.15,66.84 C169.93,66.28 174.61,64.9 179.45,64.69 C191.38,64.03 203.41,63.08 215.29,64.92 C213.2,59.1 212.08,52.93 212.03,46.75 C213.46,42.97 215.16,38.91 218.89,36.86 C221.41,33.32 221.62,28.51 223.66,24.65 C225.35,22.03 228.83,21.24 230.44,18.55 C233.3,13.81 235.41,8.37 239.79,4.76 Z" id="Shape"></path>
      <path d="M441.41,111.65 C455.42,109.8 470.58,110.63 483.06,117.9 C494.24,124.47 501.73,136.34 504.11,148.97 C506.5,158.8 505.76,168.97 505.86,179 C505.86,207.67 505.86,236.33 505.86,265 C505.68,276.87 506.78,288.96 503.58,300.55 C500.32,315.26 489.45,328.3 475.02,333.09 C461.62,337.48 446.82,337.54 433.27,333.76 C419.47,329.85 408.35,318.57 403.96,305.02 C401.49,297.28 400.28,289.15 400.39,281.03 C400.44,241.67 400.36,202.3 400.43,162.94 C400.83,148.67 404.96,133.7 415.64,123.63 C422.6,116.91 431.91,113.06 441.41,111.65 L441.41,111.65 Z M449.41,142.61 C445.27,143.19 441.17,145.27 438.87,148.85 C435.89,153.25 435.27,158.75 435.19,163.94 C435.2,203.64 435.21,243.35 435.19,283.06 C435.21,289.38 436.21,296.41 441.03,300.96 C446.75,305.78 455.44,306.18 462.09,303.19 C469.14,299.79 471.03,291.19 471.06,284.05 C471.09,244.02 471.06,204 471.08,163.98 C471.03,158.04 470.14,151.57 465.96,147.02 C461.74,142.66 455.17,141.8 449.41,142.61 Z" id="Shape"></path>
      <path d="M547.62,116.61 C559.02,110.71 572.36,110.04 584.9,111.43 C596.79,112.81 608.67,118.36 615.63,128.39 C625.21,141.14 626.35,157.89 625.93,173.27 C615.01,173.29 604.08,173.3 593.16,173.26 C592.99,165.2 594.17,156.39 589.8,149.16 C585.41,141.91 575.19,140.88 567.92,143.87 C560.92,146.84 558.73,155.08 558.54,162.01 C557.68,176.18 565.07,189.41 574.81,199.18 C588.17,212.81 603.78,224.49 614.44,240.56 C623.35,253.82 627.1,270.13 626.18,285.98 C625.46,297.72 622.87,309.97 615.32,319.33 C607.63,329.81 594.7,335.11 582.04,336.11 C568,337.27 552.71,335.64 541.19,326.83 C531.48,319.43 525.79,307.8 524,295.89 C522.24,286.53 522.87,276.96 522.87,267.49 C533.77,267.52 544.68,267.5 555.59,267.49 C555.76,274.68 555.18,281.9 555.99,289.05 C556.65,294.96 559.81,301.14 565.68,303.31 C573.76,306.41 585.26,304.91 589.18,296.2 C593.76,285.22 591.74,272.27 585.88,262.16 C577.62,247.56 563.86,237.46 552,226.01 C538.1,214.06 528.04,197.47 524.75,179.37 C522.65,166.24 523.55,152.54 527.8,139.91 C531.44,130.2 538.27,121.39 547.62,116.61 Z" id="Shape"></path>
      <path d="M636.78,113.26 C648.41,113.24 660.04,113.22 671.68,113.27 C678.91,162.74 686.21,212.21 693.48,261.68 C695.09,271.88 696.24,282.17 698.18,292.32 C707.2,232.67 715.79,172.96 724.59,113.27 C735.2,113.21 745.81,113.27 756.42,113.24 C745.26,186.83 733.72,260.37 722.5,333.95 C705.25,334.07 688,334 670.75,333.99 C659.41,260.41 647.98,186.85 636.78,113.26 Z" id="Shape"></path>
      <path d="M772.59,113.23 C789.39,113.26 806.19,113.23 823,113.24 C834.99,113.22 847.65,114.41 858.04,120.94 C866.71,126.29 872.13,135.7 874.28,145.47 C876.82,155.44 876.37,165.8 876.22,175.98 C875.74,187.4 873.06,199.47 865.14,208.13 C862.11,211.71 858.05,214.14 854.03,216.44 C862.7,219.88 870.13,226.44 874.07,234.95 C878.94,244.85 879.86,256.13 879.7,267.01 C879.53,278.17 880.54,289.55 877.43,300.43 C874.48,313.38 865.04,324.78 852.59,329.6 C840.73,334.6 827.61,334.03 815,334.01 C800.85,334 786.71,334.02 772.56,334 C772.55,260.41 772.49,186.82 772.59,113.23 L772.59,113.23 Z M807.18,144.82 C807.18,164.26 807.18,183.69 807.18,203.12 C816.27,202.7 826.44,204.91 834.46,199.45 C840.72,194.76 841.54,186.22 841.53,178.99 C841.21,170.41 842.68,161.26 838.89,153.23 C836.81,148.57 832.04,145.48 827.02,145.03 C820.42,144.52 813.79,144.9 807.18,144.82 L807.18,144.82 Z M807.18,234.73 C807.17,257.29 807.19,279.85 807.17,302.41 C814.46,302.4 821.75,302.62 829.03,302.32 C834.16,302.14 839.72,300.04 842.24,295.27 C845.7,288.76 844.96,281.11 845.05,274 C844.85,264.94 845.86,255.64 843.26,246.82 C841.82,241.8 837.97,237.58 832.89,236.15 C824.55,233.72 815.73,235.02 807.18,234.73 Z" id="Shape"></path>
  </g>
</svg>
