<?xml version="1.0" encoding="UTF-8"?>
<svg width="256px" height="256px" viewBox="0 0 256 256" version="1.1" xmlns="http://www.w3.org/2000/svg" xmlns:xlink="http://www.w3.org/1999/xlink">
    <!-- Generator: Sketch 51.3 (57544) - http://www.bohemiancoding.com/sketch -->
    <title>logo/snåsa</title>
    <desc>Created with Sketch.</desc>
    <defs></defs>
    <g id="logo/snåsa" stroke="none" stroke-width="1" fill="none" fill-rule="evenodd">
        <g id="snåsa" transform="translate(30.000000, 1.000000)" fill-rule="nonzero">
            <g id="#fdfdfdff" transform="translate(1.000000, 1.000000)" fill="#FDFDFD">
                <polygon id="Path" points="97 252.693788 67.6132149 237.036946 38.4719069 214.112435 13.5341782 182.913357 0.374860942 152.771112 0.374860942 148.139385 15.485047 129.298128 21.1994805 109.174919 19.1778804 91.4248772 13.5341782 78.1485693 3.09883962 62.1724672 23.8050253 34.7128254 27.849048 34.7128254 32.2121841 35.8777154 42.2395839 33.5921406 53.1297414 28.1508027 64.5510788 16.5102062 76.2048985 5.85263878 83.5545065 2.2949592 88.6942046 0.712774451 92.3514002 0.296015627 99.5404685 0.296015627 103.569747 0.712774451 111.634862 3.69994892 124.270378 12.84737 135.515683 23.79575 151.217726 32.2694432 160.353186 34.3861138 167.774927 34.7128254 171.769718 34.7128254 191.836447 62.7612496 182.291016 77.4128363 176.113761 92.8140571 175.148094 104.288462 176.64104 115.449573 180.151783 127.580301 184.744529 136.770751 190.244895 145.051295 193.94605 148.96699 186.6081 170.322254 173.539297 192.342301 154.062508 214.112435 133.763105 230.548255 119.067532 240.345472 103.569747 248.783146"></polygon>
                <path d="M92.8410214,10.4613719 C95.7555812,8.5708679 99.144985,10.5102643 102.108667,11.2599469 C103.66419,13.8675387 105.334331,16.752187 104.548382,19.9301895 C103.909799,27.035877 92.7427778,28.5026474 89.4843654,22.5377812 C86.0785876,18.6589885 88.5837991,12.5637428 92.8410214,10.4613719 Z M92.9065171,16.7358896 C92.1041944,19.2619941 93.6924658,22.9778123 96.8362607,22.130345 C100.847874,21.7392063 99.6525769,17.0455411 99.4233419,14.2912723 C97.229235,14.7313034 93.2994915,13.5741846 92.9065171,16.7358896 Z" id="Shape"></path>
                <path d="M92.7591517,31.7784345 C95.4281026,31.8599218 98.1134274,31.941409 100.782378,32.0391937 C103.058355,41.1494674 106.267645,49.9989819 108.772857,59.0440658 C107.49569,59.0277684 104.957731,58.9951735 103.680564,58.978876 C103.025607,56.8928026 102.37065,54.7904317 101.715692,52.7043583 C99.0303675,52.655466 96.3450427,52.6228711 93.6760919,52.5902762 C93.1357521,54.7741343 92.5954124,56.9579924 92.0714466,59.1418505 C90.8925235,59.1418505 88.5346774,59.1418505 87.3557543,59.125553 C89.4188697,50.0641717 91.1545064,40.9376006 92.7591517,31.7784345 Z M95.5099722,36.9610231 C95.4772244,38.4440909 95.4444765,41.3939291 95.4117286,42.8769969 L94.8222671,44.1807928 C94.4947885,45.8920249 94.1673098,47.603257 93.8234573,49.3144891 C96.1649295,49.4122738 98.5227756,49.5100584 100.880622,49.5915457 C99.4724637,45.386804 100.307534,39.1122863 95.5099722,36.9610231 Z" id="Shape"></path>
                <path d="M69.8028996,36.8958333 C71.5549103,36.8143461 73.3232949,36.6676691 75.0753056,36.4395048 C77.3021603,44.8815831 80.3149637,53.0954971 82.5254444,61.5375754 C79.6108846,60.8041902 76.6799509,59.9730204 73.9946261,58.6040347 C73.5852778,58.2128959 72.7665812,57.4306184 72.340859,57.0557771 C70.2286218,54.9697037 68.0672628,52.9162252 65.8895299,50.8790441 C68.1000107,55.5075195 70.2941175,60.1359948 72.4882244,64.7644702 C70.3104915,65.4000707 68.1491325,66.0519686 66.0041474,66.7038666 C63.3843184,58.1477061 59.3563312,50.113064 56.0160491,41.8339602 C58.5376346,41.1657648 61.4849423,38.7700399 63.6790491,41.4754164 C67.3959316,44.2296851 70.6379701,47.5543646 73.9946261,50.7160696 C73.1595556,48.9559452 72.2917372,47.2284157 71.5057885,45.4682912 L70.9163269,43.6755719 C70.5069786,41.4102266 70.1467521,39.1611787 69.8028996,36.8958333 Z" id="Shape"></path>
                <path d="M118.417103,41.5894985 C121.511776,36.0972584 128.961915,38.1344394 133.251885,40.9213031 C134.872904,42.371776 138.507917,43.8711413 136.837776,46.658005 C133.448372,45.2238295 130.517438,42.1273143 126.767808,41.8665551 C124.229848,41.5243087 123.656761,43.9526285 123.067299,45.8431325 C126.407581,50.0967666 131.843726,52.5250864 134.299816,57.4632133 C134.037833,61.5375754 130.959534,65.8889942 126.473077,65.5956401 C119.727017,65.8238044 115.142316,60.1848872 111.540051,55.2793552 C117.762145,54.3015083 121.249793,64.4874136 127.455513,60.2826719 C130.222707,55.9964429 125.35965,54.0081542 122.150359,52.6065737 L122.133985,52.5739788 C119.874382,49.4611661 115.387925,45.6801581 118.417103,41.5894985 Z" id="Shape"></path>
                <path d="M36.9076709,54.7741343 C40.2152051,51.1723982 48.631406,46.006107 51.1529915,52.9977124 C46.4864209,53.6985027 39.2163953,55.3934373 40.3953184,61.6842525 C45.995203,62.0102014 50.7272692,58.2943832 56.2452842,58.1965985 C61.3539509,60.0382102 64.2848846,67.1764926 60.2568974,71.3975317 C56.4908932,76.7756897 49.6138419,77.949106 43.5063654,78.2913524 C43.4899915,76.9712591 43.4736175,74.3310725 43.4572436,73.0109791 C47.4524829,73.0598715 51.3003568,72.1146195 55.0008654,70.680444 C54.8862479,68.7573451 56.1470406,66.0193737 53.8383162,64.9600396 C48.3366752,65.0904192 43.5227393,69.735192 37.7918632,68.0402574 C33.1089188,65.1719064 32.3720919,58.1477061 36.9076709,54.7741343 Z" id="Shape"></path>
                <path d="M132.678797,67.7469033 C139.703214,62.2709606 146.776752,56.8439103 154.210517,51.9383783 C155.880658,53.7148002 158.189382,55.1000833 159.188192,57.3980235 C155.38944,65.8563993 151.410575,74.314775 146.531143,82.2190375 C141.913694,79.4484713 144.533524,75.6348683 146.514769,72.277594 C144.386158,70.827121 142.257547,69.3929456 140.112562,67.991365 C138.065821,69.6048124 132.269449,72.7828149 132.678797,67.7469033 Z M143.239983,65.8401018 C144.828254,66.7690564 146.400152,67.7306058 147.972049,68.6758578 C149.855051,64.9437421 151.885419,61.2931137 153.948534,57.6587827 C150.379017,60.396754 146.793126,63.1347254 143.239983,65.8401018 Z" id="Shape"></path>
                <path d="M30.3908462,130.42689 C33.3381538,130.443188 36.2690876,130.475782 39.2163953,130.508377 C37.4643846,140.270549 37.61175,150.244587 39.3965085,160.006759 C36.2035919,159.81119 33.0270491,159.648215 29.8505064,159.354861 C29.9651239,158.328122 30.177985,156.290941 30.2762286,155.264202 C31.9954915,147.066585 31.4224038,138.673399 30.3908462,130.42689 Z" id="Shape"></path>
                <path d="M152.769611,132.431476 C155.504058,132.301097 158.238504,132.187015 160.972951,132.056635 C159.450175,140.352036 158.84434,148.777817 159.335558,157.203598 C163.903885,157.545844 168.34122,156.323536 172.434703,154.367842 C172.238216,156.747269 172.041729,159.126697 171.845241,161.506124 C165.475782,161.620206 159.122697,161.440935 152.769611,161.375745 C153.178959,151.727655 153.817543,142.063268 152.769611,132.431476 Z" id="Shape"></path>
            </g>
            <g id="#0059abff" fill="#0059AB">
                <path d="M93.345,0 L100.94,0 C101.250333,0.781538462 101.838333,2.32833333 102.148667,3.09358974 C99.8946667,3.07730769 95.3866667,3.01217949 93.1326667,2.97961538 C93.198,2.23064103 93.296,0.748974359 93.345,0 Z" id="Shape"></path>
                <path d="M72.716,8.95512821 C77.6976667,4.49384615 84.035,1.95384615 90.454,0.390769231 C90.3233333,1.18858974 90.062,2.80051282 89.9313333,3.59833333 C73.5163333,5.51961538 66.1173333,22.1435897 53.7366667,30.7567949 C45.8803333,37.0742308 35.3616667,38.7512821 25.578,37.1882051 C18.6526667,45.7362821 12.2173333,54.6588462 5.47166667,63.3534615 C13.279,74.7997436 21.3313333,86.8158974 22.883,100.948718 C26.0353333,120.09641 14.0956667,137.225128 2.303,151.04859 C9.62033333,178.402436 26.999,202.206795 48.2323333,220.605513 C63.014,233.305513 79.3963333,244.523846 97.706,251.525128 C109.858,245.858974 121.716,239.460128 132.675667,231.709872 C160.916,212.106282 184.942333,184.052308 193.321333,150.201923 C181.626667,137.925256 175.42,121.057051 174.636,104.286538 C174.276667,89.1116667 182.247333,75.3858974 191.083667,63.6139744 C184.534,54.9030769 178.621333,45.7362821 172.022667,37.0742308 C155.346333,39.1908974 139.437667,30.4474359 128.167667,18.8383333 C121.618,12.065 114.186333,4.98230769 104.419,3.63089744 C104.288333,2.81679487 104.027,1.17230769 103.896333,0.358205128 C113.516667,2.49115385 121.781333,8.23871795 128.298333,15.4353846 C139.682667,27.5980769 156.048667,37.2370513 173.313,34.3388462 C180.401667,44.1569231 187.376,54.0564103 194.252333,64.0373077 C184.73,75.8092308 176.432667,90.1374359 177.282,105.784487 C178.523333,121.740897 184.550333,137.795 196,149.290128 L196,150.722949 C187.882333,182.603205 166.355,209.663974 140.385,229.251282 C127.334667,239.134487 113.092,247.422051 98.098,254 L96.1706667,254 C52.7076667,234.86859 14.21,199.438846 0,153.279231 L0,149.045897 C10.2083333,138.560256 18.7996667,125.388077 20.727,110.652821 C22.0173333,92.8891026 12.25,77.2257692 2.36833333,63.3534615 C9.63666667,53.6330769 17.003,43.9615385 24.4183333,34.3388462 C31.9153333,35.56 40.0166667,35.6902564 46.8766667,32.0105128 C57.4443333,26.7188462 64.0593333,16.5751282 72.716,8.95512821 Z" id="Shape"></path>
                <path d="M61.299,31.9291026 C71.589,24.3253846 77.8773333,10.8438462 91.4013333,8.10846154 C103.063333,5.08 114.284333,11.8207692 121.863,20.1571795 C133.982333,33.3944872 150.985333,43.3753846 169.442,42.8055128 C174.489,49.7905128 179.372667,56.8732051 184.583,63.7442308 C175.861,74.8811538 169.442,88.2975641 168.870333,102.609487 C168.462,120.454615 175.126,138.055513 186.118333,152.009231 C174.048,194.130897 138.768,226.157692 99.6496667,243.84 C96.971,245.517051 94.129,243.237564 91.5973333,242.374615 C53.851,224.594615 22.6216667,192.160769 8.85266667,152.595385 C20.1553333,139.634872 30.1513333,123.548205 29.1713333,105.719359 C28.126,90.2676923 21.1843333,75.7441026 12.397,63.174359 C17.6236667,56.5312821 21.952,48.9112821 27.7993333,42.9194872 C39.935,43.7987179 51.9073333,39.5002564 61.299,31.9291026 Z M93.8023333,10.8601282 C88.249,12.9116667 86.1746667,21.0689744 90.5846667,25.2534615 C94.8803333,30.9521795 105.693,28.5912821 106.444333,21.1992308 C108.355333,14.1653846 100.237667,7.83166667 93.8023333,10.8601282 Z M92.463,31.5546154 C90.013,41.7471795 89.8006667,52.705 85.4396667,62.2788462 C82.418,53.3074359 79.5923333,44.2546154 76.8973333,35.1692308 C74.039,36.0321795 71.1806667,36.8788462 68.3223333,37.7417949 C69.3023333,40.2329487 70.462,42.6589744 71.981,44.8733333 L72.569,46.664359 C68.5183333,45.8176923 66.0193333,42.3007692 62.72,40.1515385 C60.319,40.0864103 58.261,42.0728205 56.056,42.9032051 C60.1393333,51.7280769 62.7853333,61.3182051 68.061,69.5080769 C70.119,68.4334615 72.2423333,67.4728205 74.2186667,66.2516667 C73.353,63.3371795 71.932,60.6180769 70.6743333,57.8664103 L73.402,58.2408974 C73.8266667,58.6153846 74.6433333,59.3969231 75.0516667,59.7876923 C76.4073333,61.3507692 77.5833333,63.1580769 79.3146667,64.3629487 C84.378,63.2883333 89.4086667,62.0671795 94.5536667,61.4484615 C95.2396667,59.5271795 95.599,57.5082051 96.0563333,55.5217949 C97.3793333,55.554359 100.025333,55.6032051 101.348333,55.6357692 C101.985333,57.5244872 102.557,59.4294872 103.406333,61.2530769 C106.379,62.555641 110.74,62.4091026 112.455,59.1852564 C116.326,65.095641 122.679667,68.9382051 129.899,68.4660256 C131.581333,70.6478205 133.443333,72.699359 135.387,74.6532051 C138.327,73.1715385 142.034667,69.4917949 144.729667,73.4320513 C144.141667,75.5812821 143.210667,77.6165385 142.508333,79.7332051 C144.190667,82.2080769 146.575333,84.0805128 148.731333,86.1483333 C152.961667,76.8187179 157.878,67.7821795 161.977667,58.3874359 C160.736333,55.1473077 157.469667,53.2585897 155.150333,50.8 C148.241333,55.6032051 141.740667,60.9437179 134.864333,65.7469231 C135.550333,62.4416667 137.820667,58.4851282 135.305333,55.3752564 C132.218333,51.6141026 127.465333,49.5137179 124.933667,45.2152564 C129.768333,43.0334615 132.969667,47.7389744 136.497667,50.0998718 C139.045667,50.5720513 139.290667,47.2016667 140.058333,45.5083333 C136.007667,39.7933333 127.547,35.7391026 120.834,39.0117949 C114.66,42.3984615 115.999333,52.4770513 123.071667,53.7633333 L123.088,53.7958974 C124.688667,55.8637179 127.449,57.5570513 127.465333,60.4389744 C122.483667,62.9626923 119.347667,56.7592308 116.783333,53.6005128 C114.66,54.7565385 112.471333,55.7660256 110.364333,56.9220513 C108.094,48.4716667 104.86,40.2817949 103.112333,31.7011538 C99.568,31.6197436 96.0073333,31.5871795 92.463,31.5546154 Z M35.3943333,57.8175641 C32.291,62.1811538 35.1656667,69.7197436 40.67,70.3547436 C45.7823333,71.1037179 50.421,66.2191026 55.419,68.1729487 C55.4516667,73.8553846 47.6933333,72.6342308 43.8713333,73.5297436 C43.8386667,75.7603846 43.8223333,77.9910256 43.7896667,80.2379487 C50.372,79.9774359 57.9016667,78.9353846 62.034,73.1552564 C66.2806667,68.4497436 63.2753333,60.3575641 57.4443333,58.6967949 C52.185,58.8758974 47.3503333,61.4810256 42.14,62.1323077 C42.4666667,56.2544872 49.0653333,55.9451282 53.4263333,54.7402564 C52.332,52.8841026 51.2376667,51.0279487 50.127,49.1717949 C44.345,50.0835897 38.71,52.8352564 35.3943333,57.8175641 Z M25.2186667,58.0129487 C24.7286667,63.5651282 23.52,70.0453846 26.362,75.1416667 L26.6723333,75.9394872 C26.5253333,85.1388462 33.1566667,92.8565385 38.8896667,99.4670513 C55.3536667,115.48859 73.7776667,129.312051 91.042,144.438077 C88.935,146.115128 86.828,147.792179 84.7373333,149.469231 C73.059,139.244103 61.8216667,128.530513 49.8983333,118.598462 C50.4536667,124.329744 48.2976667,131.184487 52.234,135.97141 C52.4463333,132.389359 52.6423333,128.791026 52.8546667,125.208974 C54.5696667,130.061026 57.379,134.847949 56.9543333,140.188462 C54.2266667,139.797692 51.695,138.690513 49.0326667,138.022949 C49.6206667,142.435385 55.615,145.187051 58.6693333,141.556154 C61.6746667,137.339103 57.722,132.552179 56.644,128.335128 C65.3333333,135.613205 73.451,143.526282 82.1566667,150.788077 C67.424,164.676667 50.372,175.97641 35.4596667,189.685897 C37.4523333,191.965385 39.396,194.261154 41.356,196.573205 C57.624,183.742949 73.3366667,170.228846 89.7516667,157.577692 C91.7933333,159.580385 93.835,161.583077 95.8766667,163.585769 C91.7933333,166.630513 87.857,169.854359 83.888,173.029359 C81.0623333,171.417436 77.959,170.407949 74.676,170.652179 C75.0353333,173.501538 75.6886667,176.318333 76.1296667,179.167692 C75.068,180.926154 73.5816667,182.375256 72.2423333,183.938333 C74.284,183.042821 76.342,182.131026 78.4,181.251795 C81.2746667,182.733462 84.4596667,186.006154 87.808,183.726667 C89.3596667,180.747051 87.1056667,178.027949 85.946,175.390256 C89.866,171.905897 93.9003333,168.535513 97.9673333,165.213974 C101.544333,168.372692 105.137667,171.53141 108.714667,174.70641 C107.832667,177.295256 104.86,180.274872 107.130333,182.928846 C109.923333,185.322308 113.222667,181.984487 115.999333,181.202949 C117.567333,182.049615 119.135333,182.912564 120.687,183.791795 C119.821333,182.310128 118.906667,180.844744 118.220667,179.297949 C119.282333,176.139231 120.556333,173.029359 121.373,169.789231 C131.254667,179.330513 142.181667,187.715769 152.324667,196.996538 C154.186667,194.879872 156.195667,192.877179 157.698333,190.5 C157.143,188.855513 155.477,187.911154 154.317333,186.722564 C140.744333,175.406538 127.579667,163.618333 113.892333,152.416282 C122.712333,144.503205 131.957,137.062308 141.218,129.670256 C139.927667,133.366282 136.661,137.420513 138.882333,141.425897 C141.365,145.561538 148.584333,143.168077 148.486333,138.478846 C148.584333,132.177692 148.388333,125.827692 150.217667,119.721923 C145.824,121.187308 142.655333,124.687949 139.127333,127.504744 C130.144,135.108462 120.817667,142.32141 112.063,150.169359 C109.76,148.622564 107.506,146.978077 105.627667,144.942821 C113.157333,137.615897 121.961,131.689231 129.948,124.867051 C143.423,114.039487 157.992333,103.325897 166.028333,87.5811538 C170.373,77.8444872 170.977333,66.7564103 169.589,56.3033333 C167.204333,59.3317949 166.894,63.2394872 165.897667,66.8215385 C163.480333,76.4605128 159.070333,85.725 152.275667,93.0682051 C142.606333,103.716667 131.254667,112.671795 120.164333,121.773462 C117.632667,124.134359 114.17,126.641795 111.703667,122.685256 C110.478667,123.662179 109.253667,124.622821 108.012333,125.567179 C108.665667,126.299872 109.972333,127.748974 110.625667,128.465385 C106.460667,131.754359 102.638667,135.499231 98.1143333,138.316026 C93.8023333,135.548077 90.1926667,131.852051 86.3053333,128.530513 C87.1056667,126.951154 87.8896667,125.388077 88.69,123.808718 C86.1093333,121.952564 83.6266667,122.457308 81.6013333,124.801923 C69.6943333,114.658205 57.3953333,104.954103 45.7333333,94.5173077 C34.9206667,84.6666667 28.91,70.810641 27.0316667,56.4987179 C26.5743333,56.8732051 25.676,57.6384615 25.2186667,58.0129487 Z M87.3506667,67.7496154 C79.2983333,70.9734615 72.912,78.0073077 70.6253333,86.3762821 C67.277,97.6434615 72.275,110.49 82.0096667,116.953974 C91.6463333,123.678462 105.480667,123.238846 114.709,115.977051 C125.178667,108.275641 128.837333,92.9216667 122.794,81.3939744 C116.767,68.6451282 100.433667,62.3114103 87.3506667,67.7496154 Z M29.8573333,129.62141 C31.458,138.478846 29.89,147.580513 31.4416667,156.356538 C29.498,157.805641 29.4816667,160.296795 28.8936667,162.413462 C33.4506667,162.364615 38.0076667,162.364615 42.5646667,162.446026 C40.033,151.634744 40.5066667,140.514103 42.0093333,129.588846 C37.9586667,129.719103 33.908,129.719103 29.8573333,129.62141 Z M151.998,132.031154 C153.272,142.647051 152.651333,153.344359 151.932667,163.976538 C159.152,163.699744 166.387667,164.123077 173.590667,164.709231 C174.293,160.378205 174.668667,155.998333 174.685,151.602179 C170.846667,154.402692 166.649,156.714744 161.814333,157.105513 C161.634667,148.410897 161.716333,139.634872 164.101,131.200769 C160.066667,131.477564 156.032333,131.738077 151.998,132.031154 Z M103.716667,198.087436 C98.392,200.725128 98.343,209.891923 103.096,213.246026 C112.324333,215.672051 112.781667,196.491795 103.716667,198.087436 Z M115.591,203.167436 C117.845,201.93 120.148,200.773974 122.581667,199.927308 C122.728667,205.691154 116.489333,208.068333 114.954,213.148333 C118.400333,213.246026 121.863,213.262308 125.325667,213.180897 C124.068,211.194487 122.124333,210.315256 119.478333,210.526923 C121.618,207.514744 126.648667,204.356026 124.378333,200.10641 C121.797667,196.019615 115.019333,198.168846 115.591,203.167436 Z M70.1516667,202.385897 C71.295,202.369615 73.6143333,202.337051 74.774,202.304487 C74.6106667,205.837692 74.48,209.354615 74.333,212.887821 C75.068,212.855256 76.5216667,212.80641 77.2566667,212.790128 C77.1096667,208.312564 77.3383333,203.851282 77.028,199.39 C74.9536667,195.742821 72.1933333,201.067051 70.1516667,202.385897 Z M83.9043333,203.541923 C84.1003333,207.921795 88.9023333,207.465897 92.0383333,207.628718 C90.9766667,212.334231 86.8116667,210.933974 83.6593333,209.240641 C84.378,212.773846 87.9386667,214.483462 91.2053333,213.050641 C95.1416667,210.185 94.7823333,204.176923 93.0346667,200.171538 C90.4213333,195.889359 82.9406667,198.494487 83.9043333,203.541923 Z" id="Shape"></path>
                <path d="M95.697,21.9970513 C93.2633333,18.9360256 95.4683333,15.5819231 99.225,16.6076923 C101.707667,19.2291026 99.0616667,23.6415385 95.697,21.9970513 Z" id="Shape"></path>
                <path d="M149.058,63.9884615 C150.92,65.1444872 150.756667,66.3167949 148.535333,67.5053846 C146.657,66.3330769 146.820333,65.1607692 149.058,63.9884615 Z" id="Shape"></path>
                <path d="M140.858667,136.834359 C142.132667,133.333718 144.403,130.321538 146.395667,127.195385 C146.101667,131.493846 146.673333,136.003974 145.138,140.107051 C142.884,142.142308 139.029333,139.797692 140.858667,136.834359 Z" id="Shape"></path>
                <path d="M91.7933333,155.754103 C93.9003333,153.995641 95.991,152.188333 98.098,150.429872 C100.303,152.106923 102.508,153.783974 104.729333,155.461026 C102.622333,157.642821 100.368333,159.645513 97.9836667,161.501667 C95.942,159.564103 93.8513333,157.675385 91.7933333,155.754103 Z" id="Shape"></path>
                <path d="M106.738333,157.805641 C111.148333,161.241154 115.003,165.425641 120.082667,167.933077 C117.240667,169.821795 114.202667,171.498846 110.919667,172.459487 C106.885333,170.049744 103.733,166.467692 100.384667,163.227564 C102.508,161.420256 104.631333,159.612949 106.738333,157.805641 Z" id="Shape"></path>
                <path d="M113.19,174.527308 C113.778,171.694231 119.053667,172.150128 117.632667,175.406538 C116.995667,178.076795 112.422333,177.327821 113.19,174.527308 Z" id="Shape"></path>
                <path d="M81.2746667,179.021154 C82.4016667,175.162308 87.9713333,179.021154 85.9623333,181.821667 C84.1493333,183.368462 80.9643333,181.268077 81.2746667,179.021154 Z" id="Shape"></path>
                <path d="M109.596667,177.930256 C112.275333,176.920769 113.173667,177.767436 112.324333,180.437692 C109.629333,181.430897 108.731,180.600513 109.596667,177.930256 Z" id="Shape"></path>
                <path d="M86.828,200.383205 C87.8896667,200.448333 90.013,200.546026 91.0746667,200.611154 C91.14,201.702051 91.2543333,203.900128 91.3196667,204.991026 C90.16,205.02359 87.8243333,205.088718 86.6646667,205.121282 C86.7136667,203.932692 86.779,201.571795 86.828,200.383205 Z" id="Shape"></path>
                <path d="M103.194,200.708846 C109.433333,198.67359 108.371667,209.680256 104.762,212.203974 C102.099667,208.898718 102.018,204.583974 103.194,200.708846 Z" id="Shape"></path>
            </g>
            <g id="#5e3a0dff" transform="translate(26.000000, 10.000000)">
                <path d="M67.9091739,1.09315789 C74.3673478,-1.94157895 82.5138261,4.40526316 80.5960435,11.4536842 C79.8420435,18.8610526 68.991,21.2268421 64.680087,15.5163158 C60.2544348,11.3231579 62.3361304,3.14894737 67.9091739,1.09315789 Z M67.9583478,1.92526316 C63.6966087,4.03 61.1887391,10.1321053 64.5981304,14.0152632 C67.86,19.9868421 79.0388696,18.5184211 79.6781304,11.4047368 C80.464913,8.22315789 78.793,5.33526316 77.2358261,2.72473684 C74.269,1.97421053 70.876,0.0326315789 67.9583478,1.92526316 Z" id="Shape" fill="#B8A897"></path>
                <path d="M68.023913,8.20684211 C68.4173043,5.04157895 72.3512174,6.2 74.5476522,5.75947368 C74.7771304,8.51684211 75.9736957,13.2157895 71.9578261,13.6073684 C68.8106957,14.4557895 67.2207391,10.7357895 68.023913,8.20684211 Z M69.8105652,12.2531579 C73.1871739,13.9010526 75.8425652,9.47947368 73.351087,6.85263158 C69.581087,5.82473684 67.3682609,9.18578947 69.8105652,12.2531579 Z" id="Shape" fill="#B8A897"></path>
                <path d="M30.0288696,33.2026316 C32.2416957,32.3705263 34.307,30.38 36.7165217,30.4452632 C40.0275652,32.5989474 42.5354348,36.1231579 46.6004783,36.9715789 C47.3872609,38.7336842 48.256,40.4631579 49.0919565,42.2252632 C45.7317391,39.06 42.4862609,35.7315789 38.7654348,32.9742105 C36.569,30.2657895 33.6185652,32.6642105 31.0943043,33.3331579 C34.4381304,41.6215789 38.4703913,49.6652632 41.093,58.2310526 C43.2402609,57.5784211 45.403913,56.9257895 47.5839565,56.2894737 C45.3875217,51.6557895 43.191087,47.0221053 40.9782609,42.3884211 C43.1583043,44.4278947 45.3219565,46.4836842 47.4364348,48.5721053 L44.699087,48.1968421 C45.9612174,50.9542105 47.3872609,53.6789474 48.256,56.5994737 C46.2726522,57.8231579 44.1417826,58.7857895 42.0764783,59.8626316 C36.782087,51.6557895 34.1266957,42.0457895 30.0288696,33.2026316 Z" id="Shape" fill="#B8A897"></path>
                <path d="M9.29386957,48.1478947 C12.6213043,43.1552632 18.2763043,40.3978947 24.0788261,39.4842105 C25.1934348,41.3442105 26.2916522,43.2042105 27.3898696,45.0642105 C23.0133913,46.2715789 16.3913043,46.5815789 16.0634783,52.4715789 C21.2923043,51.8189474 26.1441304,49.2084211 31.4221304,49.0289474 C37.2738261,50.6931579 40.2898261,58.8021053 36.028087,63.5173684 C31.881087,69.3094737 24.3246957,70.3536842 17.719,70.6147368 C17.7517826,68.3631579 17.7681739,66.1278947 17.8009565,63.8926316 C21.6365217,62.9952632 29.4223913,64.2189474 29.3896087,58.5247368 C24.3738696,56.5668421 19.7187391,61.4615789 14.5882609,60.7110526 C9.0643913,60.0747368 6.17952174,52.5205263 9.29386957,48.1478947 Z M11.9656522,46.2878947 C7.42526087,49.6652632 8.16286957,56.6973684 12.8507826,59.5689474 C18.5877391,61.2657895 23.4067826,56.6157895 28.9142609,56.4852632 C31.2254348,57.5457895 29.9633043,60.2868421 30.0780435,62.2121053 C26.3736087,63.6478947 22.5216522,64.5942105 18.5221739,64.5452632 C18.5385652,65.8668421 18.5549565,68.51 18.5713478,69.8315789 C24.6853043,69.4889474 31.5696522,68.3142105 35.3396522,62.93 C39.371913,58.7042105 36.4378696,51.5578947 31.3237826,49.7142105 C25.799913,49.8121053 21.0628261,53.5321053 15.457,53.2057895 C14.2768261,46.9078947 21.5545652,45.2110526 26.226087,44.5094737 C23.7018261,37.51 15.2766957,42.6821053 11.9656522,46.2878947 Z" id="Shape" fill="#B8A897"></path>
                <path d="M118.410783,57.3663158 C121.967696,54.6578947 125.557391,51.9168421 129.130696,49.1757895 C127.065391,52.8142105 125.03287,56.4689474 123.14787,60.2052632 C121.574304,59.2589474 120.000739,58.2963158 118.410783,57.3663158 Z M123.360957,54.3315789 C121.115348,55.5063158 120.951435,56.6810526 122.836435,57.8557895 C125.065652,56.6647368 125.229565,55.49 123.360957,54.3315789 Z" id="Shape" fill="#B8A897"></path>
                <path d="M0.229478261,65.5078947 C0.196695652,61.8857895 0.327826087,58.2636842 0.458956522,54.6578947 C3.72082609,67.6778947 10.6543478,79.7026316 20.9972609,88.4315789 C32.4875652,98.3189474 44.2893043,107.831053 55.8287826,117.653158 C56.713913,116.935263 58.5005652,115.483158 59.402087,114.765263 C59.2873478,115.891053 59.025087,118.158947 58.9103478,119.284737 C62.2377826,123.673684 66.9748696,126.724737 71.0235217,130.395789 C69.4171739,131.472632 67.8108261,132.565789 66.2208696,133.691579 C49.5181304,119.072632 31.8483043,105.546842 15.620913,90.3894737 C8.49069565,83.8468421 4.06504348,75.1505263 0.540913043,66.3073684 L0.229478261,65.5078947 Z" id="Shape" fill="#5E3A0D"></path>
                <path d="M57.1892609,62.8321053 C59.8446522,61.4778947 62.5164348,60.1563158 65.2046087,58.8673684 C66.188087,60.5968421 67.1387826,62.3263158 68.0894783,64.0721053 C64.4506087,63.7131579 60.8281304,63.2889474 57.1892609,62.8321053 Z" id="Shape" fill="#5E3A0D"></path>
                <path d="M68.9418261,60.3194737 C69.3516087,57.8557895 73.0888261,57.6926316 74.6623913,59.0957895 C76.0556522,62.3752632 69.3516087,63.9089474 68.9418261,60.3194737 Z" id="Shape" fill="#5E3A0D"></path>
                <path d="M79.0880435,59.5036842 C81.5303478,59.6668421 83.4317391,61.4778947 85.4642609,62.6689474 C81.9237391,63.1747368 78.3504348,63.5826316 74.7935217,63.8763158 C76.2359565,62.5057895 77.0883043,60.14 79.0880435,59.5036842 Z" id="Shape" fill="#5E3A0D"></path>
                <path d="M134.687348,75.4115789 C138.178696,69.8152632 139.703087,63.3378947 142.63713,57.4805263 C144.194304,76.6026316 130.19613,91.9884211 116.411043,103.295263 C82.5466087,130.314211 49.1903043,157.953158 15.2275217,184.825263 C14.3423913,183.715789 12.5557391,181.480526 11.6542174,180.354737 C36.4214783,159.992632 61.3526522,139.81 86.5788696,120.018947 C86.0871304,118.42 85.5953913,116.804737 85.1364348,115.189474 C86.119913,115.923684 88.0704783,117.392105 89.0539565,118.126316 C98.1183478,111.828421 106.428739,104.567895 114.771913,97.3726316 C122.148,90.7810526 129.540478,83.9284211 134.687348,75.4115789 Z" id="Shape" fill="#5E3A0D"></path>
                <path d="M52.5833043,67.0089474 C55.9271304,64.2189474 60.6806087,65.4426316 64.6473043,65.4589474 C62.0083043,69.5378947 56.9925652,71.2673684 54.3863478,75.3952632 C50.0426522,81.2036842 49.4361739,88.6273684 48.5838261,95.5615789 C43.9614783,86.4084211 45.4203043,74.4326316 52.5833043,67.0089474 Z" id="Shape" fill="#5E3A0D"></path>
                <path d="M66.8109565,68.4773684 C66.9912609,63.0605263 75.6786522,64.1047368 77.3833478,68.3305263 C73.9903478,69.6684211 70.0892174,70.7615789 66.8109565,68.4773684 Z" id="Shape" fill="#5E3A0D"></path>
                <path d="M77.9078696,65.8342105 C81.7434348,65.4263158 85.956,63.9252632 89.6768261,65.6710526 C97.266,72.4747368 99.8066522,84.1568421 95.8235652,93.5221053 C94.8728696,87.6321053 94.1352609,81.3668421 90.4308261,76.4394737 C87.4967826,71.5773684 81.809,69.7173684 77.9078696,65.8342105 Z" id="Shape" fill="#5E3A0D"></path>
                <path d="M51.5670435,99.5589474 C50.0754348,88.3826316 53.4028696,73.5842105 65.4176957,69.6521053 C65.9258261,70.1415789 66.9256957,71.1205263 67.4174348,71.6263158 C65.3357391,75.8357895 62.4016957,79.7515789 61.7296522,84.5157895 C59.9757826,93.0815789 62.8114783,101.533158 65.5324348,109.560526 C60.32,107.276316 54.2224348,104.959474 51.5670435,99.5589474 Z" id="Shape" fill="#5E3A0D"></path>
                <path d="M76.2031739,69.5378947 C89.3653913,71.8547368 95.1351304,87.0773684 92.8731304,98.9389474 C90.0702174,103.719474 85.0216957,106.525789 80.1206957,108.744737 C81.6614783,102.038947 83.153087,95.17 82.2187826,88.2684211 C81.7598261,81.6115789 78.3668261,75.7215789 76.2031739,69.5378947 Z" id="Shape" fill="#5E3A0D"></path>
                <path d="M69.2532609,73.5026316 C70.3514783,71.8873684 72.9085217,70.9736842 74.4165217,72.6215789 C81.595913,83.5694737 81.595913,97.7315789 77.1866522,109.723684 C74.4001304,109.805263 71.5972174,109.968421 68.827087,109.756316 C62.5656087,98.9552632 60.6642174,83.6347368 69.2532609,73.5026316 Z" id="Shape" fill="#5E3A0D"></path>
                <path d="M73.6625217,139.793684 C75.5475217,138.211053 78.0226087,135.518947 80.2354348,138.276316 C96.9053913,152.503684 113.624522,166.665789 130.146957,181.056316 C128.901217,182.426842 127.639087,183.813684 126.376957,185.184211 C108.953,169.88 91.2503913,154.885789 73.6625217,139.793684 Z" id="Shape" fill="#5E3A0D"></path>
            </g>
            <g id="#b8a897ff" transform="translate(25.000000, 31.000000)" fill="#B8A897">
                <path d="M67.8423913,0.616198904 C71.3804348,0.648630426 74.9347826,0.681061947 78.4728261,0.76214075 C80.2173913,9.30784661 83.4456522,17.4643742 85.7119565,25.880354 C87.8152174,24.729035 90,23.7236578 92.1195652,22.5723388 C94.6793478,25.7181964 97.8097826,31.8964012 102.782609,29.3829583 C102.766304,26.5127686 100.01087,24.8263295 98.4130435,22.7669279 C101.608696,24.1614834 106.451087,26.1398062 103.695652,30.4045512 C97.5163043,34.5882174 94.0434783,24.453367 87.8478261,25.4263127 C91.4347826,30.3072566 96,35.9179098 102.717391,35.6908892 C107.184783,35.9827729 110.25,31.6531648 110.51087,27.5992246 C108.065217,22.6858491 102.652174,20.2697008 99.326087,16.0373873 C99.9130435,14.156359 100.483696,11.7402107 103.01087,12.0807417 C106.744565,12.3401938 109.663043,15.4211884 113.038043,16.8481753 C114.701087,14.0752802 111.081522,12.5834303 109.467391,11.1402276 C105.195652,8.36733249 97.7771739,6.34036241 94.6956522,11.8050737 C91.6793478,15.8752297 96.1467391,19.6372861 98.3967391,22.7344964 C91.3369565,21.4534513 90,11.4158955 96.1630435,8.04301728 C102.86413,4.78364939 111.309783,8.82137379 115.353261,14.5131058 C114.586957,16.1995449 114.342391,19.5562073 111.798913,19.0859503 C108.277174,16.734665 105.081522,12.0483102 100.255435,14.2212221 C102.782609,18.5021829 107.527174,20.594016 110.608696,24.3398567 C113.119565,27.437067 110.853261,31.3774968 110.168478,34.6692962 C117.032609,29.8856469 123.521739,24.5668774 130.418478,19.783228 C132.733696,22.2318078 135.994565,24.1128361 137.233696,27.3397724 C133.141304,36.6962663 128.233696,45.6960135 124.01087,54.9876443 C121.858696,52.9282427 119.478261,51.0634303 117.798913,48.5986346 C118.5,46.4905858 119.429348,44.4636157 120.016304,42.3231353 C117.326087,38.3989212 113.625,42.0636831 110.690217,43.5393173 C108.75,41.593426 106.891304,39.5502402 105.211957,37.3773283 C98.0054348,37.8475853 91.6630435,34.0206658 87.798913,28.1343447 C86.0869565,31.3450653 81.7336957,31.4910072 78.7663043,30.1937463 C77.9184783,28.3775811 77.3478261,26.4803371 76.7119565,24.5993089 C75.3913043,24.5668774 72.75,24.5182301 71.4293478,24.4857986 C70.9728261,26.4641214 70.6141304,28.4748757 69.9293478,30.3883354 C64.7934783,31.0045343 59.7717391,32.2207164 54.7173913,33.2909566 C52.9891304,32.0909903 51.8152174,30.2910409 50.4619565,28.7343279 C53.1358696,30.0964517 56.0543478,30.9234555 58.9565217,31.6531648 C56.7554348,23.2534008 53.7554348,15.0806574 51.5380435,6.68089338 C49.7934783,6.90791403 48.0326087,7.05385588 46.2880435,7.13493468 C46.6304348,9.38892541 46.9891304,11.6267004 47.3967391,13.8806911 C45.8804348,11.6753477 44.7228261,9.25919933 43.7445652,6.77818795 C46.5978261,5.91875263 49.451087,5.07553308 52.3043478,4.21609777 C54.9945652,13.2644922 57.8152174,22.2804551 60.8315217,31.2153392 C65.1847826,21.680472 65.3967391,10.7672651 67.8423913,0.616198904 Z M69.1467391,2.04318584 C67.548913,11.1564433 65.8206522,20.2372693 63.7663043,29.2532322 C64.9402174,29.269448 67.2880435,29.269448 68.4619565,29.269448 C68.9836957,27.096536 69.5217391,24.9236241 70.0597826,22.7507122 C72.7173913,22.7831437 75.3913043,22.8155752 78.0652174,22.8642225 C78.7173913,24.9398399 79.3695652,27.031673 80.0217391,29.1072903 C81.2934783,29.1235061 83.8206522,29.1559376 85.0923913,29.1721534 C82.5978261,20.1724062 79.4021739,11.3672482 77.1358696,2.30263801 C74.4782609,2.20534345 71.8043478,2.12426464 69.1467391,2.04318584 Z M108.896739,37.8313696 C108.48913,42.8420396 114.26087,39.6799663 116.298913,38.074606 C118.434783,39.4691614 120.554348,40.8961483 122.673913,42.339351 C120.701087,45.6797977 118.092391,49.4742857 122.690217,52.230965 C127.548913,44.3663211 131.51087,35.9503413 135.293478,27.5343616 C134.298913,25.2479393 132,23.8695997 130.336957,22.1020818 C122.934783,26.9830257 115.891304,32.382874 108.896739,37.8313696 Z" id="Shape"></path>
                <path d="M71.8858696,7.19979772 C76.6630435,9.34027813 75.8315217,15.583346 77.2336957,19.7670122 C74.8858696,19.6859334 72.5380435,19.5886389 70.2065217,19.4913443 C70.548913,17.7886894 70.875,16.0860346 71.201087,14.3833797 C70.6793478,16.7508807 74.5597826,20.253485 75.3423913,16.4752128 C75.3913043,13.9779857 74.2173913,12.8428824 71.7880435,13.0861188 C71.8206522,11.6104846 71.8532609,8.67543194 71.8858696,7.19979772 Z" id="Shape"></path>
                <path d="M0.717391304,26.9668099 C1.17391304,26.5938475 2.07065217,25.8317067 2.52717391,25.4587442 C4.40217391,39.7123978 10.4021739,53.5120101 21.1956522,63.3225453 C32.8369565,73.7168479 45.1141304,83.3814412 57,93.4838601 C59.0217391,91.1487906 61.5,90.646102 64.076087,92.4946987 C63.2771739,94.0676275 62.4945652,95.6243405 61.6956522,97.1972693 C65.576087,100.505284 69.1793478,104.186262 73.4836957,106.942941 C78,104.137615 81.8152174,100.40799 85.9728261,97.1324062 C85.3206522,96.4189128 84.0163043,94.9757101 83.3641304,94.2460008 C84.6032609,93.3054867 85.826087,92.3487568 87.048913,91.3758112 C89.5108696,95.316241 92.9673913,92.8190139 95.4945652,90.4677286 C106.565217,81.4031184 117.896739,72.4844501 127.548913,61.8793426 C134.331522,54.5660346 138.733696,45.3392668 141.146739,35.7395365 C142.141304,32.1720691 142.451087,28.2802866 144.831522,25.2641551 C146.217391,35.6746734 145.61413,46.7176064 141.277174,56.4146313 C133.255435,72.0952718 118.711957,82.7652423 105.26087,93.5487231 C97.2880435,100.343127 88.5,106.245664 80.9836957,113.542756 C82.8586957,115.569726 85.1086957,117.207518 87.4076087,118.748015 C96.1467391,110.932019 105.456522,103.748437 114.423913,96.1756764 C117.945652,93.3703498 121.108696,89.8839612 125.494565,88.4245428 C123.668478,94.505453 123.86413,100.8296 123.766304,107.105099 C123.86413,111.775238 116.657609,114.158955 114.179348,110.040152 C111.961957,106.051075 115.222826,102.01335 116.51087,98.3323725 C107.266304,105.694328 98.0380435,113.10493 89.2336957,120.98579 C102.896739,132.142233 116.038043,143.882444 129.586957,155.152398 C130.744565,156.336148 132.407609,157.276662 132.961957,158.914454 C131.461957,161.281955 129.456522,163.276494 127.597826,165.384543 C117.472826,156.141559 106.565217,147.790442 96.701087,138.288007 C95.8858696,141.514943 94.6141304,144.612153 93.5543478,147.758011 C94.2391304,149.298508 95.1521739,150.757927 96.0163043,152.233561 C94.4673913,151.35791 92.9021739,150.498475 91.3369565,149.655255 C88.5652174,150.433611 85.2717391,153.757842 82.4836957,151.374126 C80.2173913,148.730957 83.1847826,145.763472 84.0652174,143.185166 C80.4945652,140.023093 76.9076087,136.877236 73.3369565,133.731378 C69.2771739,137.039393 65.25,140.396056 61.3369565,143.866228 C62.4945652,146.493182 64.7445652,149.201214 63.1956522,152.168698 C59.8532609,154.438904 56.673913,151.179536 53.8043478,149.703902 C51.75,150.579553 49.6956522,151.487636 47.6576087,152.379503 C48.9945652,150.82279 50.4782609,149.379587 51.5380435,147.628285 C51.0978261,144.790527 50.4456522,141.9852 50.0869565,139.147442 C53.3641304,138.904206 56.4619565,139.909583 59.2826087,141.514943 C63.2445652,138.35287 67.173913,135.142149 71.25,132.109802 C69.2119565,130.115263 67.173913,128.120725 65.1358696,126.126186 C48.75,138.725832 33.0652174,152.184914 16.826087,164.962933 C14.8695652,162.660295 12.9293478,160.373873 10.9402174,158.103666 C25.826087,144.449996 42.8478261,133.196258 57.5543478,119.364214 C48.8641304,112.131985 40.7608696,104.251125 32.0869565,97.0026802 C33.1630435,101.202562 37.1086957,105.969996 34.1086957,110.169878 C31.0597826,113.785992 25.076087,111.045529 24.4891304,106.651058 C27.1467391,107.315904 29.673913,108.418576 32.3967391,108.807754 C32.8206522,103.488984 30.0163043,98.7215508 28.3043478,93.8892541 C28.0923913,97.4567214 27.8967391,101.040405 27.6847826,104.607872 C23.7554348,99.8404383 25.9076087,93.013603 25.3532609,87.3056553 C37.2554348,97.1972693 48.4728261,107.86724 60.1304348,118.050737 C62.2173913,116.380514 64.3206522,114.710291 66.423913,113.040067 C49.1902174,97.9756258 30.798913,84.208445 14.3641304,68.2521365 C8.64130435,61.6685377 2.02173913,53.9822672 2.16847826,44.8203624 C5.67391304,53.6093047 10.076087,62.2523051 17.1684783,68.7548251 C33.3097826,83.8192668 50.8858696,97.2621323 67.5,111.791454 C69.0815217,110.672566 70.6793478,109.58611 72.2771739,108.51587 C68.25,104.867324 63.5380435,101.834977 60.2282609,97.4729372 C60.3423913,96.3540497 60.6032609,94.100059 60.7173913,92.9811715 C59.8206522,93.694665 58.0434783,95.1378677 57.1630435,95.8513611 C45.6847826,86.0894732 33.9456522,76.6356848 22.5163043,66.8089338 C12.2282609,58.1335019 5.33152174,46.1824863 2.08695652,33.2423093 C1.95652174,36.8259924 1.82608696,40.4258913 1.85869565,44.0257901 C-0.97826087,38.9502571 0.22826087,32.4963843 0.717391304,26.9668099 Z M135.603261,53.8687568 C130.483696,62.3333839 123.130435,69.1440034 115.793478,75.6951707 C107.494565,82.8463211 99.2282609,90.0623346 90.2119565,96.3216182 C89.2336957,95.591909 87.2934783,94.1324905 86.3152174,93.4027813 C86.7717391,95.0081416 87.2608696,96.6135019 87.75,98.2026464 C62.6576087,117.872364 37.8586957,137.93126 13.2228261,158.168529 C14.1195652,159.287417 15.8967391,161.508976 16.7771739,162.611648 C50.5597826,135.90429 83.7391304,108.434791 117.423913,81.5814918 C131.13587,70.3439697 145.059783,55.0525074 143.51087,36.0476359 C140.592391,41.869094 139.076087,48.3067509 135.603261,53.8687568 Z M116.152174,105.467307 C114.326087,108.418576 118.173913,110.753645 120.423913,108.726675 C121.956522,104.640303 121.38587,100.148538 121.679348,95.8675769 C119.690217,98.9810029 117.423913,101.980919 116.152174,105.467307 Z M74.9021739,117.856148 C92.3967391,132.855727 110.005435,147.758011 127.336957,162.968394 C128.592391,161.606271 129.847826,160.227931 131.086957,158.865807 C114.652174,144.563506 98.0217391,130.488226 81.4402174,116.348083 C79.2391304,113.607619 76.7771739,116.28322 74.9021739,117.856148 Z M67.173913,124.310021 C69.2282609,126.223481 71.3152174,128.104509 73.3532609,130.034185 C75.7336957,128.185588 77.9836957,126.191049 80.0869565,124.018137 C77.8695652,122.347914 75.6684783,120.677691 73.4673913,119.007467 C71.3641304,120.758769 69.2771739,122.558719 67.173913,124.310021 Z M82.0923913,126.353207 C79.9891304,128.153156 77.8695652,129.953106 75.75,131.753055 C79.0923913,134.979992 82.2391304,138.547459 86.2663043,140.947391 C89.5434783,139.990662 92.576087,138.320438 95.4130435,136.43941 C90.3423913,133.942183 86.4945652,129.774732 82.0923913,126.353207 Z M52.7119565,141.628453 C50.7880435,143.639208 54.1793478,147.141812 56.201087,145.08241 C58.2880435,143.087872 54.701087,139.812288 52.7119565,141.628453 Z M88.5326087,143.006793 C87.7663043,145.795904 92.3315217,146.541829 92.9673913,143.882444 C94.3858696,140.639292 89.1195652,140.185251 88.5326087,143.006793 Z M56.673913,147.482343 C56.3641304,149.720118 59.5434783,151.811951 61.3532609,150.271454 C63.3586957,147.482343 57.798913,143.639208 56.673913,147.482343 Z M84.9456522,146.395887 C84.0815217,149.055272 84.9782609,149.882276 87.6684783,148.893114 C88.5163043,146.233729 87.6195652,145.39051 84.9456522,146.395887 Z" id="Shape"></path>
                <path d="M62.7391304,36.6638348 C75.798913,31.2477708 92.1032609,37.5557016 98.1195652,50.2526422 C104.152174,61.7334008 100.5,77.024863 90.048913,84.6949178 C80.8369565,91.9271471 67.0271739,92.3649726 57.4076087,85.6678635 C47.6902174,79.2302065 42.701087,66.4359713 46.0434783,55.214665 C48.326087,46.879764 54.701087,39.8745554 62.7391304,36.6638348 Z M58.5163043,41.3664054 C62.1358696,41.8204467 65.7391304,42.2420565 69.3586957,42.5988032 C68.4130435,40.8637168 67.4673913,39.1448462 66.4891304,37.4259756 C63.8152174,38.7070206 61.1576087,40.0204973 58.5163043,41.3664054 Z M70.2065217,38.8691783 C70.6141304,42.4366456 77.2826087,40.9123641 75.8967391,37.6529962 C74.3315217,36.2584408 70.6141304,36.4205984 70.2065217,38.8691783 Z M80.298913,38.0583902 C78.3097826,38.6908049 77.4619565,41.0420902 76.0271739,42.4042141 C79.5652174,42.1123304 83.1195652,41.7069364 86.6413043,41.2042478 C84.6195652,40.0204973 82.7282609,38.2205478 80.298913,38.0583902 Z M53.9347826,45.5176401 C46.8097826,52.8958112 45.3586957,64.7981795 49.9565217,73.8952212 C50.8043478,67.003523 51.4076087,59.6253519 55.7282609,53.8525411 C58.3206522,49.7499536 63.3097826,48.031083 65.9347826,43.9771429 C61.9891304,43.9609271 57.2608696,42.744745 53.9347826,45.5176401 Z M68.0869565,46.9770586 C71.3478261,49.2472651 75.2282609,48.1608091 78.6032609,46.8311167 C76.9076087,42.6312347 68.2663043,41.593426 68.0869565,46.9770586 Z M79.125,44.3501054 C83.0054348,48.2094564 88.6630435,50.0580531 91.5815217,54.8903498 C95.2663043,59.7875095 96,66.0143616 96.9456522,71.8682512 C100.907609,62.5604046 98.3804348,50.9499199 90.8315217,44.1879477 C87.1304348,42.4528614 82.9402174,43.9447113 79.125,44.3501054 Z M52.923913,77.8680826 C55.5652174,83.2354994 61.6304348,85.5381374 66.8152174,87.8083439 C64.1086957,79.8301896 61.2880435,71.4304256 63.0326087,62.9171513 C63.701087,58.1821492 66.6195652,54.2903666 68.6902174,50.1067004 C68.201087,49.6040118 67.2065217,48.6310662 66.701087,48.1445933 C54.75,52.0525917 51.4402174,66.7602866 52.923913,77.8680826 Z M77.4293478,48.031083 C79.5815217,54.1768563 82.9565217,60.0307459 83.4130435,66.6467762 C84.3423913,73.506043 82.8586957,80.3328782 81.326087,86.9975558 C86.201087,84.7922124 91.2228261,82.0031016 94.0108696,77.2518837 C96.2608696,65.4630257 90.5217391,50.333721 77.4293478,48.031083 Z M70.5163043,51.9715129 C61.9728261,62.0415002 63.8641304,77.2680995 70.0923913,88.002933 C72.8478261,88.2137379 75.6358696,88.0515803 78.4076087,87.9705015 C82.7934783,76.0519174 82.7934783,61.9766372 75.6521739,51.0958618 C74.1521739,49.45807 71.6086957,50.3661525 70.5163043,51.9715129 Z" id="Shape"></path>
                <path d="M5.34782609,98.2837252 C9.39130435,98.3810198 13.4347826,98.3810198 17.4782609,98.2512937 C15.9782609,109.132069 15.5054348,120.207434 18.0326087,130.974699 C13.4836957,130.89362 8.93478261,130.89362 4.38586957,130.942267 C4.97282609,128.834218 4.98913043,126.353207 6.92934783,124.910004 C6.83152174,125.931597 6.61956522,127.958567 6.50543478,128.98016 C9.66847826,129.272044 12.8315217,129.434201 16.0108696,129.628791 C14.2336957,119.91555 14.0869565,109.991504 15.8315217,100.278264 C12.8967391,100.245832 9.97826087,100.213401 7.04347826,100.197185 C8.07065217,108.40236 8.64130435,116.753477 6.92934783,124.910004 C5.38043478,116.169709 6.94565217,107.105099 5.34782609,98.2837252 Z" id="Shape"></path>
                <path d="M127.271739,100.683658 C131.298913,100.391774 135.326087,100.132322 139.353261,99.856654 C136.972826,108.256418 136.891304,116.996713 137.070652,125.655929 C141.896739,125.266751 146.086957,122.964113 149.918478,120.175002 C149.902174,124.553257 149.527174,128.915297 148.826087,133.228689 C141.63587,132.644922 134.413043,132.223312 127.206522,132.49898 C127.923913,121.910088 128.543478,111.256334 127.271739,100.683658 Z M128.902174,102.191724 C129.945652,111.775238 129.309783,121.391184 128.902174,130.990914 C135.228261,131.055777 141.554348,131.234151 147.896739,131.120641 C148.092391,128.753139 148.288043,126.385638 148.483696,124.018137 C144.407609,125.964029 139.98913,127.180211 135.440217,126.83968 C134.951087,118.456131 135.554348,110.072583 137.070652,101.818761 C134.347826,101.948487 131.625,102.061997 128.902174,102.191724 Z" id="Shape"></path>
                <path d="M79.076087,166.470999 C88.125,164.881854 87.6684783,183.98402 78.4565217,181.567872 C73.7119565,178.227425 73.7608696,169.097952 79.076087,166.470999 Z M78.5543478,169.081736 C77.3804348,172.941087 77.4619565,177.238264 80.1195652,180.530063 C83.7228261,178.01662 84.7826087,167.054766 78.5543478,169.081736 Z" id="Shape"></path>
                <path d="M90.9293478,171.530316 C90.3586957,166.552078 97.125,164.411597 99.701087,168.481753 C101.967391,172.714067 96.9456522,175.859924 94.8097826,178.85984 C97.451087,178.649035 99.3913043,179.524686 100.646739,181.503009 C97.1902174,181.584088 93.7336957,181.567872 90.2934783,181.470577 C91.826087,176.41126 98.0543478,174.043759 97.9076087,168.30338 C95.4782609,169.146599 93.1793478,170.297918 90.9293478,171.530316 Z" id="Shape"></path>
                <path d="M45.5706522,170.75196 C47.6086957,169.438483 50.3641304,164.135929 52.4347826,167.76826 C52.7445652,172.211378 52.5163043,176.654496 52.6630435,181.113831 C51.9293478,181.130046 50.4782609,181.178694 49.7445652,181.211125 C49.8913043,177.692305 50.0217391,174.189701 50.1847826,170.670881 C49.0271739,170.703312 46.7119565,170.735744 45.5706522,170.75196 Z" id="Shape"></path>
                <path d="M59.298913,171.903279 C58.3369565,166.876393 65.8043478,164.281871 68.4130435,168.546616 C70.1576087,172.535693 70.5163043,178.519309 66.5869565,181.373283 C63.326087,182.80027 59.7717391,181.097615 59.0543478,177.578795 C62.201087,179.265234 66.3586957,180.659789 67.4184783,175.973434 C64.2880435,175.811277 59.4945652,176.265318 59.298913,171.903279 Z M62.2173913,168.757421 C62.1684783,169.941172 62.1032609,172.292457 62.0543478,173.476207 C63.2119565,173.443776 65.5434783,173.378913 66.701087,173.346481 C66.6358696,172.260025 66.5217391,170.070898 66.4565217,168.984442 C65.3967391,168.919579 63.2771739,168.822284 62.2173913,168.757421 Z" id="Shape"></path>
            </g>
            <g id="#5f84acff" transform="translate(77.000000, 43.000000)" fill="#5F84AC">
                <path d="M20.3392105,0.114390244 C22.8094737,-0.130731707 24.0031579,1.01317073 23.9534211,3.5297561 C23.1576316,7.33731707 19.2118421,3.80756098 19.7423684,1.42170732 L20.3392105,0.114390244 Z" id="Shape"></path>
                <path d="M0.941842105,129.653171 C2.96447368,127.822927 6.61184211,131.123902 4.48973684,133.133902 C2.43394737,135.209268 -1.01447368,131.679512 0.941842105,129.653171 Z" id="Shape"></path>
            </g>
            <polygon id="Path-6" fill="#0059AB" points="90.6126911 0.526096033 93.6139865 1.01880334e-14 101.327576 0 104.556005 0.263048017 108 3.05885488 105.017605 4 102.675878 3.35752676 93.3720254 3.35752676 89.9927167 4 88 3.71483143"></polygon>
        </g>
    </g>
</svg>