<?xml version="1.0" encoding="UTF-8"?>
<svg width="256px" height="256px" viewBox="0 0 256 256" version="1.1" xmlns="http://www.w3.org/2000/svg" xmlns:xlink="http://www.w3.org/1999/xlink">
    <!-- Generator: Sketch 51.3 (57544) - http://www.bohemiancoding.com/sketch -->
    <title>logo/spirit</title>
    <desc>Created with Sketch.</desc>
    <defs></defs>
    <g id="logo/spirit" stroke="none" stroke-width="1" fill="none" fill-rule="evenodd">
        <g id="spiritlorenskog" transform="translate(0.000000, 29.000000)" fill-rule="nonzero">
            <g id="#fefefeff" transform="translate(47.042735, 45.994536)" fill="#FEFEFE">
                <path d="M66.7350427,1.58469945 C75.6075214,-0.448087432 84.797265,0.666666667 93.8119658,0.732240437 C92.2475214,9.90163934 89.8625641,18.9071038 87.8933333,28 C82.5764103,27.9672131 77.2704274,28.0874317 71.9535043,27.8797814 C71.0782906,18.9726776 68.1463248,10.4153005 66.7350427,1.58469945 Z" id="Shape"></path>
                <path d="M42.3494017,9.54098361 C49.6136752,5.37704918 57.8188034,3.31147541 65.9035897,1.40983607 C67.3586325,10.3278689 70.1374359,18.9945355 71.297094,27.9672131 C60.7507692,28.1311475 50.2153846,27.8142077 39.6690598,27.8579235 C40.5661538,21.7486339 42.0868376,15.726776 42.3494017,9.54098361 Z" id="Shape"></path>
                <path d="M94.6981197,1.35519126 C102.585983,2.71038251 110.189402,5.26775956 117.541197,8.39344262 C118.635214,14.9289617 119.70735,21.4644809 120.29812,28.0546448 C109.806496,28.2076503 99.3039316,27.9453552 88.8123077,27.9672131 C90.6393162,19.0710383 92.7726496,10.2404372 94.6981197,1.35519126 Z" id="Shape"></path>
                <path d="M118.558632,9.00546448 C126.643419,13.0273224 133.918632,18.4808743 140.384274,24.7540984 C140.657778,25.0382514 141.215726,25.6174863 141.489231,25.9125683 C153.556239,39.0163934 161.641026,56.3169399 161.597265,74.3169399 C162.352137,92.3169399 155.49265,110.349727 143.622564,123.814208 C136.850598,132.262295 127.628034,138.240437 118.307009,143.530055 C118.810256,136.251366 121.523419,129.36612 122.21265,122.120219 C129.706667,116.229508 135.865983,108.459016 139.049573,99.420765 C145.569915,79.8142077 144.136752,56.6775956 132.168205,39.420765 C129.630085,36.0983607 127.004444,32.8306011 123.798974,30.1202186 L122.923761,30.1967213 L122.88,29.3879781 C122.497094,29.136612 121.742222,28.6338798 121.370256,28.3825137 C120.352821,21.9344262 119.466667,15.4644809 118.558632,9.00546448 Z" id="Shape"></path>
                <path d="M26.9784615,19.3224044 C31.485812,15.8032787 36.3432479,12.7759563 41.2006838,9.78142077 C41.5726496,15.989071 39.6581197,22.0218579 38.717265,28.1092896 C33.7066667,32.5027322 28.7507692,37.2349727 25.5562393,43.1584699 C17.8434188,56.4590164 16.5415385,72.5136612 18.7405128,87.4644809 C20.8738462,101.278689 27.9740171,114.994536 40.062906,122.579235 C41.1788034,129.289617 41.9008547,136.098361 42.2290598,142.885246 C27.328547,134.95082 14.2988034,122.830601 7.14393162,107.377049 C0.656410256,94.9180328 -0.92991453,80.5355191 0.481367521,66.6994536 C2.76786325,48.2295082 12.9641026,31.3551913 26.9784615,19.3224044 Z" id="Shape"></path>
                <path d="M38.9251282,29.0491803 C43.1589744,28.1857923 47.5897436,28.8306011 51.9001709,28.7650273 C74.7760684,28.9071038 97.6519658,28.6885246 120.516923,29.0054645 C123.033162,30.5355191 125.166496,32.6010929 127.299829,34.6010929 C130.012991,38.0874317 132.955897,41.431694 134.957949,45.3989071 C137.638291,50.2404372 139.016752,55.6393443 140.767179,60.852459 C122.409573,55.7704918 103.297094,53.8579235 84.2940171,54.0874317 C62.7418803,53.9125683 40.7521368,54.3060109 20.0205128,60.8306011 C22.0553846,48.3497268 28.9805128,36.8415301 38.9251282,29.0491803 Z M70.8813675,36.7978142 C68.4854701,38 69.3278632,40.9289617 69.3169231,43.0710383 C71.1548718,43.7923497 73.0365812,44.3934426 75.0167521,44.4918033 C73.1350427,46.1857923 70.9907692,47.5081967 68.802735,48.7650273 C72.7193162,49.5191257 77.3579487,47.8469945 78.6707692,43.8032787 C79.8851282,41.5409836 78.528547,39.0819672 77.8940171,36.8743169 C75.6184615,36.1092896 73.0475214,35.2568306 70.8813675,36.7978142 Z M93.6478632,36.557377 C93.057094,37.7486339 92.5538462,38.9836066 92.2584615,40.273224 C93.6588034,39.3442623 95.102906,38.0437158 96.962735,38.6120219 C98.3302564,43.0382514 93.8994872,45.6502732 91.5911111,48.6557377 C94.7637607,48.7868852 97.9692308,48.9398907 101.14188,48.6666667 C101.295043,47.6612022 101.590427,45.6612022 101.74359,44.6666667 C100.025983,45.6612022 98.1552137,46.273224 96.1750427,46.284153 C98.9210256,43.9016393 103.143932,40.4699454 100.004103,36.6229508 C99.1398291,36.3387978 98.2755556,36.0546448 97.4112821,35.7704918 C96.1531624,36.0437158 94.9059829,36.3060109 93.6478632,36.557377 Z M58.6830769,36.852459 C59.197265,37.2568306 60.2365812,38.0546448 60.7507692,38.4480874 C60.925812,41.7923497 62.6981197,47.147541 58.5299145,48.6338798 C60.7507692,48.6120219 65.1924786,48.5464481 67.4133333,48.5245902 L65.0830769,47.0928962 C64.7001709,43.4644809 64.9955556,39.7923497 64.9736752,36.1420765 C62.8731624,36.3715847 60.7726496,36.6120219 58.6830769,36.852459 Z M80.8041026,36.3387978 C80.7165812,37.2677596 80.5634188,39.136612 80.4868376,40.0765027 C82.5873504,39.3442623 84.7644444,38.852459 87.0071795,38.8196721 C85.5849573,42.4918033 83.2547009,45.6830601 81.022906,48.8852459 C82.3576068,48.863388 83.7032479,48.8306011 85.0379487,48.7759563 C86.7336752,44.5245902 88.7576068,40.4043716 90.8034188,36.3169399 C87.4666667,36.2185792 84.1299145,36.2404372 80.8041026,36.3387978 Z" id="Shape"></path>
                <path d="M72.577094,37.7704918 C73.1350427,37.6939891 74.24,37.5409836 74.7979487,37.4644809 C75.0167521,39.2349727 75.1261538,41.0163934 75.0386325,42.8087432 C73.1131624,41.7486339 72.4895726,39.8579235 72.577094,37.7704918 Z" id="Shape"></path>
                <path d="M19.3094017,61.9234973 C32.4376068,57.3989071 46.4082051,56.0218579 60.1818803,55.1693989 C87.04,54.7103825 114.499829,53.8142077 140.482735,61.7704918 C142.72547,70.1857923 141.883077,78.9726776 141.46735,87.5628415 C134.148376,89.7595628 126.73094,91.7704918 119.116581,92.6557377 C108.668718,94.4262295 98.0239316,93.5191257 87.488547,94.2295082 C73.4960684,94.4043716 59.5035897,94.010929 45.5220513,94.3606557 C48.574359,94.8196721 51.6704274,94.8852459 54.7555556,94.8852459 C69.3388034,94.8306011 83.9111111,94.9726776 98.494359,94.6338798 C110.003419,95.0054645 121.501538,93.5737705 132.682393,90.8961749 C135.417436,90.0983607 138.152479,89.3551913 140.909402,88.6666667 C140.373333,92.4262295 139.290256,96.0655738 138.163419,99.6721311 C135.04547,107.978142 129.389402,114.972678 122.803419,120.808743 C111.152137,121.136612 99.4789744,121.005464 87.8276923,120.907104 L88.4512821,121.912568 C72.2160684,121.420765 55.9808547,121.639344 39.7347009,121.540984 C36.6605128,119.377049 33.7723077,116.928962 31.3545299,114.021858 C25.5015385,107.005464 21.5411966,98.5245902 19.9548718,89.5191257 C30.3261538,91.5846995 40.6864957,94.8087432 51.4078632,93.431694 C45.2594872,92.8852459 39.0126496,92.9180328 32.9517949,91.5409836 C28.6194872,90.8196721 24.4731624,89.2131148 20.0861538,88.8306011 C17.7449573,80.0765027 18.8608547,70.852459 19.3094017,61.9234973 Z M51.1452991,65.3770492 C53.7709402,66.6120219 54.0225641,69.5737705 53.8475214,72.1311475 C53.6396581,75.5956284 54.8211966,79.9672131 51.3750427,82.2295082 C56.9654701,82.3387978 62.5558974,82.284153 68.1463248,82.3169399 C67.7305983,81.704918 66.8991453,80.5027322 66.4834188,79.9016393 C66.4068376,74.7978142 66.4834188,69.6939891 66.4287179,64.5901639 C64.3500855,64.8743169 62.271453,65.147541 60.1928205,65.3770492 C60.925812,66.4371585 62.0745299,67.431694 61.8994872,68.863388 C61.8557265,72.9289617 62.3261538,77.0819672 61.5165812,81.0928962 C60.8164103,81.2349727 59.4270085,81.5191257 58.7268376,81.6612022 C57.8516239,76.0437158 58.4205128,70.3387978 58.3220513,64.6885246 C55.9261538,64.9180328 53.5411966,65.2131148 51.1452991,65.3770492 Z M121.238974,65.4535519 C121.917265,66.0655738 122.595556,66.6775956 123.273846,67.2896175 C123.328547,71.5519126 123.164444,75.8251366 123.481709,80.0874317 C122.934701,80.8087432 121.950085,81.3005464 121.851624,82.284153 C127.179487,82.3825137 132.518291,82.2404372 137.857094,82.284153 C137.342906,81.5300546 136.839658,80.7759563 136.32547,80.0327869 C136.248889,74.863388 136.281709,69.6939891 136.270769,64.5245902 C134.159316,64.852459 132.036923,65.1584699 129.92547,65.442623 C130.505299,66.1748634 131.096068,66.9071038 131.697778,67.6284153 C131.730598,71.9672131 131.719658,76.3060109 131.686838,80.6338798 C130.363077,80.6120219 129.039316,80.579235 127.726496,80.5355191 C127.715556,75.2349727 127.693675,69.9344262 127.748376,64.6338798 C125.582222,64.8961749 123.405128,65.1693989 121.238974,65.4535519 Z M21.7381197,65.9016393 C26.0266667,70.3278689 26.945641,76.6557377 29.6697436,81.9672131 C30.2495726,82.1639344 31.4201709,82.579235 32.0109402,82.7868852 C33.9582906,78.295082 35.5555556,73.6502732 37.7217094,69.2677596 C38.4437607,67.7377049 40.1613675,67.1038251 41.4304274,66.1639344 C38.5641026,65.8907104 35.6758974,65.7486339 32.8423932,66.3278689 C33.4659829,66.6885246 34.7131624,67.3879781 35.325812,67.7486339 C34.9100855,70.5901639 33.6847863,73.2568306 32.1531624,75.6721311 C31.102906,73.0273224 30.0854701,70.3715847 29.1993162,67.6830601 C30.0745299,67.2240437 30.9497436,66.7650273 31.8140171,66.3060109 C28.4882051,65.8032787 25.1076923,65.8688525 21.7381197,65.9016393 Z M93.057094,65.4863388 C93.6369231,66.0218579 94.8075214,67.0819672 95.3873504,67.6174863 C95.4092308,72.4918033 95.2123077,77.3770492 95.5733333,82.2513661 C98.0567521,82.3715847 100.529231,82.4262295 103.01265,82.4590164 C105.113162,81.0601093 107.563761,79.4098361 107.738803,76.6338798 C108.285812,73.9344262 105.944615,72.0546448 104.172308,70.4918033 C102.684444,70.579235 101.196581,70.6666667 99.7196581,70.7650273 C99.774359,68.7322404 99.7962393,66.6885246 99.8290598,64.6557377 C97.5644444,64.9180328 95.3107692,65.1912568 93.057094,65.4863388 Z M73.2553846,70.9180328 C68.3213675,72.1202186 67.3586325,80.1748634 72.2379487,82.0218579 C75.3777778,83.4863388 78.9552137,81.9125683 80.4868376,78.9289617 C78.6707692,79.0710383 76.8437607,79.2240437 75.0276923,79.3989071 C73.0365812,77.420765 73.3976068,74.2076503 74.5791453,71.9016393 C75.2246154,73.3770492 75.3558974,75.3005464 76.865641,76.2513661 C77.762735,76.1311475 79.5569231,75.8797814 80.4540171,75.7595628 C80.2352137,72.2404372 76.7234188,69.0928962 73.2553846,70.9180328 Z M37.6998291,75.3442623 C38.1593162,77.2459016 38.6735043,79.136612 39.231453,81.0054645 C41.7476923,82.3497268 44.5483761,82.568306 47.3490598,82.4480874 C52.1955556,80.0655738 52.1955556,72.9071038 47.3162393,70.568306 C43.2464957,69.7923497 39.4940171,71.6284153 37.6998291,75.3442623 Z M80.1367521,70.6885246 C82.751453,74.1530055 84.2174359,78.2622951 85.9131624,82.2185792 C84.9066667,83.2349727 83.8782906,84.2404372 82.8389744,85.2240437 C82.7076923,85.6939891 82.434188,86.6448087 82.302906,87.1147541 C83.0796581,87.2568306 84.6331624,87.5191257 85.4099145,87.6502732 C88.4841026,82.6557377 89.4030769,76.284153 93.5822222,72.0437158 L93.757265,70.6229508 C92.5647863,70.6338798 90.1798291,70.6666667 88.9873504,70.6775956 C89.5452991,72.852459 89.0639316,75.0491803 88.5716239,77.1803279 C87.4119658,75.147541 85.8475214,72.4699454 88.4184615,70.6775956 C85.6615385,70.6775956 82.8936752,70.6666667 80.1367521,70.6885246 Z M115.298462,72.8743169 C115.243761,73.3989071 115.156239,74.4371585 115.112479,74.9617486 C114.324786,74.9726776 112.749402,75.0163934 111.961709,75.0273224 L113.854359,73.0273224 C112.672821,72.7540984 111.195897,70.6010929 110.233162,72.3934426 C108.417094,73.3114754 110.430085,75.1803279 110.944274,76.2513661 C108.756239,76.9508197 109.248547,79.2131148 109.029744,80.9836066 C112.082051,83.0491803 116.042393,82.1748634 119.477607,82.0218579 C120.910769,78.852459 119.225983,75.2240437 119.608889,71.8579235 C117.497436,70.4262295 114.948376,70.3606557 112.519658,70.9398907 C113.438632,71.5846995 114.368547,72.2295082 115.298462,72.8743169 Z M66.2536752,101.967213 C64.382906,101.956284 62.5230769,101.923497 60.6632479,101.857923 C61.5822222,104.349727 59.2191453,105.934426 57.665641,107.409836 C56.8888889,105.191257 58.3876923,103.595628 59.3176068,101.879781 C56.7794872,101.934426 54.2413675,101.967213 51.714188,102.054645 C52.2721368,102.459016 53.3989744,103.26776 53.9569231,103.672131 C53.9459829,106.852459 53.9241026,110.043716 53.9678632,113.234973 C53.3989744,113.650273 52.2611966,114.480874 51.6923077,114.896175 C54.5148718,115.016393 57.3374359,115.027322 60.1709402,115.081967 C57.5781197,113.770492 57.3811966,111.213115 57.5452991,108.622951 C58.7924786,110.786885 60.1709402,112.874317 61.4618803,115.016393 C65.4659829,115.027322 69.4810256,115.04918 73.4851282,114.961749 C73.0912821,114.42623 72.3145299,113.344262 71.9316239,112.808743 C71.9863248,108.808743 71.997265,104.819672 71.8988034,100.819672 C69.9842735,101.038251 68.0697436,101.289617 66.2536752,101.967213 Z M85.4755556,101.355191 C88.2981197,105.300546 86.3288889,110.502732 87.0071795,115.005464 C89.9282051,115.540984 92.8820513,115.377049 95.5842735,114.076503 C97.5316239,111.234973 97.214359,107.562842 94.2823932,105.562842 C93.3305983,105.617486 91.4270085,105.726776 90.4861538,105.770492 C90.5080342,104.163934 90.5299145,102.546448 90.562735,100.939891 C88.8670085,101.071038 87.1712821,101.213115 85.4755556,101.355191 Z M97.3565812,101.322404 C97.8160684,102.120219 98.2864957,102.928962 98.7459829,103.737705 C98.7569231,107.464481 98.7350427,111.202186 98.8225641,114.928962 C100.977778,115.169399 103.154872,115.289617 105.342906,115.300546 C108.614017,113.497268 109.620513,109.759563 107.738803,106.502732 C105.955556,106.131148 104.172308,105.781421 102.38906,105.47541 C102.42188,103.956284 102.454701,102.448087 102.487521,100.928962 C100.780855,101.04918 99.0632479,101.180328 97.3565812,101.322404 Z M73.6492308,106.601093 C75.8810256,109.071038 73.5835897,113.081967 76.285812,115.191257 C77.3251282,115.169399 79.4037607,115.136612 80.4321368,115.114754 C78.1237607,112.644809 78.2878632,109.311475 78.4300855,106.174863 C79.042735,106.349727 79.6663248,106.535519 80.2899145,106.721311 C80.5962393,109.595628 80.6071795,112.502732 80.6837607,115.387978 C81.7668376,115.256831 83.9220513,114.994536 85.0051282,114.852459 C84.0423932,111.923497 85.2676923,108.360656 83.582906,105.79235 C80.322735,106.076503 76.6140171,104.907104 73.6492308,106.601093 Z" id="Shape"></path>
                <path d="M43.2464957,72.6994536 C43.7388034,72.6120219 44.734359,72.4371585 45.2376068,72.3387978 C45.7955556,74.9289617 46.2112821,77.5519126 46.2222222,80.1967213 C45.6095726,80.295082 44.3952137,80.4918033 43.7935043,80.5901639 C43.0933333,78.010929 43.0605128,75.3442623 43.2464957,72.6994536 Z" id="Shape"></path>
                <path d="M99.9603419,80.6338798 C99.7852991,77.8469945 99.4789744,74.9836066 100.408889,72.295082 C100.944957,72.7978142 102.017094,73.7923497 102.553162,74.295082 C102.531282,76.3169399 102.487521,78.3497268 102.37812,80.3715847 C101.77641,80.4371585 100.562051,80.568306 99.9603419,80.6338798 Z" id="Shape"></path>
                <path d="M114.58735,80.295082 C112.213333,80.0218579 113.383932,75.3442623 115.484444,76.9508197 C116.195556,78.4590164 115.889231,79.5737705 114.58735,80.295082 Z" id="Shape"></path>
                <path d="M60.4882051,107.04918 C62.6871795,104.84153 65.2471795,103.071038 68.0697436,101.781421 C68.5839316,105.945355 68.4745299,110.163934 68.2338462,114.360656 C64.2625641,113.978142 62.9278632,109.57377 60.4882051,107.04918 Z" id="Shape"></path>
                <path d="M90.5189744,107.672131 C91.0112821,107.704918 91.9740171,107.759563 92.4553846,107.781421 C92.608547,109.606557 92.6960684,111.431694 92.7398291,113.26776 C92.1928205,113.311475 91.0988034,113.387978 90.5517949,113.431694 C90.5408547,111.508197 90.5299145,109.584699 90.5189744,107.672131 Z" id="Shape"></path>
                <path d="M102.432821,107.497268 C102.947009,107.639344 103.975385,107.923497 104.489573,108.054645 C104.544274,109.803279 104.566154,111.540984 104.577094,113.289617 C104.051966,113.355191 103.001709,113.464481 102.476581,113.530055 C102.465641,111.519126 102.454701,109.508197 102.432821,107.497268 Z" id="Shape"></path>
                <path d="M40.9928205,122.098361 C51.2109402,122.218579 61.4181197,122.021858 71.6362393,122.218579 C69.3825641,131.650273 67.4242735,141.147541 65.1487179,150.568306 C57.6109402,149.060109 50.3138462,146.612022 43.3230769,143.453552 C42.6557265,136.31694 41.7476923,129.213115 40.9928205,122.098361 Z" id="Shape"></path>
                <path d="M72.1066667,123.344262 C72.3473504,123.071038 72.8396581,122.52459 73.0912821,122.251366 C78.2988034,122.021858 83.4953846,122.513661 88.702906,122.557377 C90.3001709,132.142077 92.9586325,141.562842 94.0198291,151.234973 C84.6988034,151.945355 75.3340171,151.803279 66.0129915,151.15847 C67.7852991,141.836066 70.2030769,132.644809 72.1066667,123.344262 Z" id="Shape"></path>
                <path d="M89.217094,121.803279 C99.9494017,121.814208 110.681709,121.726776 121.403077,121.836066 C120.735726,129.191257 118.153846,136.20765 117.398974,143.551913 C110.419145,147.245902 102.695385,149.606557 94.8731624,150.63388 C93.4290598,140.95082 91.1863248,131.387978 89.217094,121.803279 Z" id="Shape"></path>
            </g>
            <g id="#050505ff">
                <path d="M116.698803,2.84699454 C117.464615,1.62295082 118.339829,0.420765027 119.838632,0.0601092896 C119.65265,1.42622951 118.963419,2.74863388 119.105641,4.14754098 C120.910769,5.85245902 122.704957,7.57923497 124.105299,9.64480874 C125.987009,14.9672131 125.724444,21.1748634 121.807863,25.5464481 C117.388034,29.3825137 111.261538,30.8688525 105.60547,29.1639344 C104.653675,30.4754098 103.975385,32.2131148 102.170256,32.5956284 C102.159316,31.0546448 102.793846,29.6775956 103.570598,28.3989071 C97.794188,25.0874317 95.6499145,18.1803279 96.897094,11.8852459 C98.7569231,6.31147541 103.953504,3.13114754 109.44547,1.96174863 C111.896068,1.92896175 114.302906,2.3989071 116.698803,2.84699454 Z M105.463248,6.0273224 C101.918632,11.2185792 104.183248,17.8743169 106.086838,23.2622951 C106.88547,21.7650273 107.705983,20.2677596 108.548376,18.7814208 C109.45641,16.9016393 110.430085,15.0546448 111.37094,13.1857923 C112.464957,10.6284153 115.670427,7.68852459 113.022906,5.04371585 C110.495726,4.38797814 107.246496,3.48087432 105.463248,6.0273224 Z M114.937436,10.4972678 C112.847863,15.579235 109.751795,20.1693989 107.640342,25.2404372 C110.222222,28.2786885 115.079658,28.8469945 117.388034,25.1857923 C118.689915,20.2240437 117.814701,14.9672131 116.46906,10.0928962 C116.086154,10.1912568 115.320342,10.3989071 114.937436,10.4972678 Z" id="Shape" fill="#FFFFFF"></path>
                <path d="M133.710769,2.00546448 C136.850598,1.15300546 140.099829,1.87431694 143.206838,2.51912568 C147.987692,3.32786885 154.737778,2.97814208 156.838291,8.3989071 C158.249573,12.8360656 154.168889,16.3442623 150.219487,17.273224 C151.904274,21.010929 153.096752,25 155.328547,28.4754098 C156.717949,30.6721311 159.485812,31.2185792 161.90359,31.1967213 C164.288547,28.3879781 165.513846,24.8688525 167.122051,21.6120219 C168.719316,18.0601093 170.841709,14.704918 171.651282,10.8469945 C170.776068,9.92896175 169.922735,8.98907104 169.091282,8.03825137 C175.98359,9.53551913 181.880342,14.0273224 188.936752,14.9234973 C191.048205,15.6994536 188.553846,17.8306011 188.324103,19.1311475 L186.978462,18.726776 C186.86906,19.4043716 186.639316,20.7814208 186.529915,21.4699454 C186.059487,21.4699454 185.107692,21.4918033 184.637265,21.5027322 C184.615385,19.7978142 184.582564,18.0928962 184.505983,16.3879781 C182.668034,15.4480874 180.819145,14.5300546 178.970256,13.6120219 C177.526154,16.0382514 176.257094,18.5846995 175.206838,21.2076503 C174.944274,21.4590164 174.408205,21.9726776 174.145641,22.2240437 C176.136752,23.1748634 178.226325,23.9617486 180.48,23.8743169 C181.409915,23.0546448 182.42735,22.3442623 183.532308,21.7540984 C183.072821,23.3387978 182.449231,24.8688525 181.792821,26.3770492 C180.928547,28.0382514 180.173675,29.7540984 179.396923,31.4590164 C178.882735,30.9344262 178.368547,30.4098361 177.854359,29.8852459 C178.248205,28.9562842 178.642051,28.0273224 179.024957,27.0874317 C177.25265,26.136612 175.458462,25.2404372 173.653333,24.3661202 C172.14359,27.7431694 169.113162,31.1311475 170.25094,35.0655738 C171.49812,35.5027322 172.734359,35.9836066 173.948718,36.4972678 C174.812991,36.5409836 176.519658,36.6174863 177.383932,36.6502732 C178.806154,35.5245902 180.217436,34.3661202 181.650598,33.2404372 C181.803761,33.6775956 182.110085,34.5409836 182.263248,34.9672131 C180.862906,36.6721311 179.517265,38.4098361 178.204444,40.1803279 C172.034188,37.8087432 166.028034,35 159.835897,32.6830601 C156.521026,31.7759563 153.184274,30.8469945 149.967863,29.6338798 C145.963761,27.1202186 145.526154,21.852459 143.885128,17.8087432 L142.375385,18.0601093 L142.451966,16.0382514 C144.454017,16.1693989 146.401368,15.7540984 148.184615,14.8579235 C148.873846,13.2513661 149.552137,11.6229508 150.197607,9.99453552 C149.847521,8.70491803 149.519316,7.41530055 149.202051,6.1147541 L148.140855,6.2568306 L148.217436,4.97814208 C147.21094,4.92349727 145.197949,4.81420765 144.191453,4.75956284 C143.217778,11.7540984 141.729915,18.6830601 140.854701,25.6994536 C141.817436,26.5191257 143.742906,28.1803279 144.705641,29 C139.990427,29.1420765 135.428376,27.8087432 130.745983,27.568306 C130.691282,27.1748634 130.592821,26.3989071 130.54906,26.0054645 C131.358632,25.9071038 132.977778,25.7103825 133.78735,25.6120219 C135.154872,18.2786885 136.872479,10.9234973 137.266325,3.45901639 C136.380171,3.09836066 134.596923,2.36612022 133.710769,2.00546448 Z" id="Shape" fill="#FFFFFF"></path>
                <path d="M72.3801709,13.3934426 C74.8635897,12.3224044 77.3798291,11.3387978 79.9726496,10.5191257 C79.2396581,11.4371585 77.7846154,13.2513661 77.0516239,14.1584699 C77.697094,15.6120219 78.3316239,17.0874317 78.977094,18.5519126 C79.6663248,20.0273224 80.3664957,21.5027322 81.088547,22.9672131 C82.7076923,26.5956284 84.4909402,30.147541 86.3507692,33.6557377 C88.9654701,33.4918033 91.2957265,32.2677596 93.4728205,30.8907104 C93.5931624,29.0765027 93.7025641,27.2622951 93.7791453,25.4480874 C94.1948718,25.4918033 95.037265,25.557377 95.4639316,25.6010929 C95.9234188,27.7540984 96.448547,29.8852459 96.9299145,32.0382514 C93.4728205,33.4590164 90.0157265,34.8797814 86.5586325,36.3005464 C83.2984615,37.6448087 80.0929915,39.5355191 76.4280342,39.295082 C78.7582906,38.2786885 80.0273504,36.4754098 78.6707692,34.0273224 C75.585641,28.4863388 73.5835897,22.3551913 70.082735,17.0437158 C69.1528205,16.9234973 67.3039316,16.6939891 66.3849573,16.5737705 C67.9822222,14.8579235 70.2796581,14.2349727 72.3801709,13.3934426 Z" id="Shape" fill="#FFFFFF"></path>
                <path d="M198.170256,20.442623 C200.533333,22.3989071 202.994872,24.2349727 205.357949,26.2021858 C206.06906,33.568306 204.581197,40.9672131 205.325128,48.3333333 C207.99453,44.989071 211.123419,42.0382514 213.77094,38.6721311 C215.105641,36.4863388 213.344274,34.2240437 212.786325,32.0928962 C216.035556,34.5409836 219.219145,37.0765027 222.293333,39.7431694 C220.17094,39.8961749 217.720342,38.0819672 216.090256,40.1147541 C210.674872,45.2404372 205.839316,50.989071 201.025641,56.6830601 C199.822222,56.3005464 198.684444,55.7213115 197.579487,55.1092896 C197.962393,47.0765027 198.640684,39.0546448 198.684444,31 C194.363077,34.6065574 190.555897,38.9125683 187.459829,43.6120219 C188.367863,44.9672131 189.46188,46.3005464 189.746325,47.9617486 C186.508034,45.863388 183.543248,43.3825137 180.567521,40.9453552 C181.814701,40.9016393 184.30906,40.8251366 185.556239,40.7923497 C188.728889,38.2896175 191.245128,35.0765027 193.991111,32.1256831 C195.938462,29.9836066 197.863932,27.8087432 199.504957,25.4043716 C199.165812,24.1693989 198.498462,21.6775956 198.170256,20.442623 Z" id="Shape" fill="#FFFFFF"></path>
                <path d="M47.0755556,26.1693989 C47.3381197,26.136612 47.874188,26.0601093 48.1367521,26.0273224 C49.5917949,27.3715847 51.0687179,28.6721311 52.5018803,30.0382514 C52.994188,30.1912568 53.9678632,30.4863388 54.4601709,30.6393443 C54.0444444,31.0983607 53.2020513,32.0054645 52.7863248,32.4644809 C50.2919658,30.1147541 46.7364103,30.715847 44.2311111,32.6721311 C44.2748718,33 44.3623932,33.6557377 44.4061538,33.9836066 C48.9791453,38.3114754 53.4646154,42.726776 57.917265,47.1748634 C59.0550427,48.5956284 60.7835897,49.1420765 62.5558974,49.010929 C62.8184615,48.5519126 63.3326496,47.6448087 63.5952137,47.1857923 C63.7702564,47.6994536 64.1203419,48.726776 64.2953846,49.2513661 C60.8601709,51.8087432 57.7859829,54.7923497 54.7117949,57.7650273 C54.1757265,57.6120219 53.1035897,57.295082 52.5565812,57.1420765 C52.994188,56.8688525 53.8584615,56.3224044 54.2851282,56.0601093 C54.3288889,55.4153005 54.4054701,54.136612 54.4492308,53.4918033 C49.4276923,48.3005464 44.1873504,43.3497268 39.1767521,38.1584699 C34.7241026,39.4590164 36.6386325,44.5956284 36.671453,47.9398907 C34.877265,45.9836066 33.0830769,44.0273224 31.2232479,42.147541 C31.1576068,41.7540984 31.037265,40.9562842 30.9716239,40.5628415 C31.7046154,40.3879781 33.1596581,40.0491803 33.8817094,39.8743169 C37.9623932,35.9945355 42.1852991,32.2786885 46.4410256,28.6065574 C46.6051282,27.9945355 46.911453,26.7814208 47.0755556,26.1693989 Z" id="Shape" fill="#FFFFFF"></path>
                <path d="M83.134359,57.8852459 C100.376068,47.5464481 121.228034,43.3934426 141.106325,46.3989071 C155.580171,48.9562842 169.682051,54.5737705 181.048889,64.0273224 C194.877265,74.9453552 204.920342,90.8142077 208.235214,108.15847 C210.685812,120.213115 209.734017,132.814208 206.10188,144.540984 C205.904957,144.956284 205.522051,145.775956 205.325128,146.180328 C204.81094,147.786885 204.252991,149.360656 203.716923,150.956284 C200.423932,158.016393 196.354188,164.693989 191.201368,170.551913 C177.482393,186.278689 157.505641,196.180328 136.806838,198.289617 C127.026325,198.551913 116.972308,199.174863 107.49812,196.256831 C86.722735,191.437158 67.905641,178.26776 56.7576068,160.038251 C50.0512821,148.759563 45.8283761,135.688525 46.3644444,122.47541 C45.565812,105.032787 52.5894017,87.863388 63.6717949,74.5956284 C66.7459829,70.8469945 70.3015385,67.5464481 73.9446154,64.3661202 C76.9531624,62.136612 79.9945299,59.9398907 83.134359,57.8852459 Z M113.777778,47.579235 C115.18906,56.4098361 118.121026,64.9672131 118.996239,73.8743169 C124.313162,74.0819672 129.619145,73.9617486 134.936068,73.9945355 C136.905299,64.9016393 139.290256,55.8961749 140.854701,46.726776 C131.84,46.6612022 122.650256,45.5464481 113.777778,47.579235 Z M89.3921368,55.5355191 C89.1295726,61.7213115 87.6088889,67.7431694 86.7117949,73.852459 C97.2581197,73.8087432 107.793504,74.1256831 118.339829,73.9617486 C117.180171,64.989071 114.401368,56.3224044 112.946325,47.4043716 C104.861538,49.3060109 96.6564103,51.3715847 89.3921368,55.5355191 Z M141.740855,47.3497268 C139.815385,56.2349727 137.682051,65.0655738 135.855043,73.9617486 C146.346667,73.9398907 156.849231,74.2021858 167.340855,74.0491803 C166.750085,67.4590164 165.677949,60.9234973 164.583932,54.3879781 C157.232137,51.2622951 149.628718,48.704918 141.740855,47.3497268 Z M165.601368,55 C166.509402,61.4590164 167.395556,67.9289617 168.412991,74.3770492 C168.784957,74.6284153 169.539829,75.1311475 169.922735,75.3825137 L169.966496,76.1912568 L170.841709,76.1147541 C174.047179,78.8251366 176.672821,82.0928962 179.21094,85.4153005 C191.179487,102.672131 192.61265,125.808743 186.092308,145.415301 C182.908718,154.453552 176.749402,162.224044 169.255385,168.114754 C168.566154,175.360656 165.852991,182.245902 165.349744,189.52459 C174.670769,184.234973 183.893333,178.256831 190.665299,169.808743 C202.535385,156.344262 209.394872,138.311475 208.64,120.311475 C208.683761,102.311475 200.598974,85.010929 188.531966,71.9071038 C188.258462,71.6120219 187.700513,71.0327869 187.427009,70.7486339 C180.961368,64.4754098 173.686154,59.0218579 165.601368,55 Z M74.0211966,65.3169399 C60.0068376,77.3497268 49.8105983,94.2240437 47.5241026,112.693989 C46.1128205,126.530055 47.6991453,140.912568 54.1866667,153.371585 C61.3415385,168.825137 74.3712821,180.945355 89.2717949,188.879781 C88.9435897,182.092896 88.2215385,175.284153 87.105641,168.57377 C75.0167521,160.989071 67.9165812,147.273224 65.7832479,133.459016 C63.5842735,118.508197 64.8861538,102.453552 72.5989744,89.1530055 C75.7935043,83.2295082 80.7494017,78.4972678 85.76,74.1038251 C86.7008547,68.0163934 88.6153846,61.9836066 88.2434188,55.7759563 C83.3859829,58.7704918 78.528547,61.7978142 74.0211966,65.3169399 Z M85.9678632,75.0437158 C76.0232479,82.8360656 69.0981197,94.3442623 67.0632479,106.825137 C87.7948718,100.300546 109.784615,99.9071038 131.336752,100.081967 C150.339829,99.852459 169.452308,101.765027 187.809915,106.846995 C186.059487,101.63388 184.681026,96.2349727 182.000684,91.3934426 C179.998632,87.4262295 177.055726,84.0819672 174.342564,80.5956284 C172.209231,78.5956284 170.075897,76.5300546 167.559658,75 C144.694701,74.6830601 121.818803,74.9016393 98.942906,74.7595628 C94.6324786,74.8251366 90.2017094,74.1803279 85.9678632,75.0437158 Z M66.3521368,107.918033 C65.9035897,116.846995 64.7876923,126.071038 67.1288889,134.825137 C71.5158974,135.20765 75.6622222,136.814208 79.9945299,137.535519 C86.0553846,138.912568 92.3022222,138.879781 98.4505983,139.42623 C87.7292308,140.803279 77.3688889,137.579235 66.9976068,135.513661 C68.5839316,144.519126 72.5442735,153 78.397265,160.016393 C80.8150427,162.923497 83.7032479,165.371585 86.7774359,167.535519 C103.02359,167.63388 119.258803,167.415301 135.494017,167.907104 L134.870427,166.901639 C146.521709,167 158.194872,167.131148 169.846154,166.803279 C176.432137,160.967213 182.088205,153.972678 185.206154,145.666667 C186.332991,142.060109 187.416068,138.420765 187.952137,134.661202 C185.195214,135.349727 182.460171,136.092896 179.725128,136.89071 C168.544274,139.568306 157.046154,141 145.537094,140.628415 C130.953846,140.967213 116.381538,140.825137 101.798291,140.879781 C98.7131624,140.879781 95.617094,140.814208 92.5647863,140.355191 C106.546325,140.005464 120.538803,140.398907 134.531282,140.224044 C145.066667,139.513661 155.711453,140.420765 166.159316,138.650273 C173.773675,137.765027 181.191111,135.754098 188.510085,133.557377 C188.925812,124.967213 189.768205,116.180328 187.52547,107.765027 C161.542564,99.8087432 134.082735,100.704918 107.224615,101.163934 C93.4509402,102.016393 79.4803419,103.393443 66.3521368,107.918033 Z M88.0355556,168.092896 C88.7904274,175.20765 89.6984615,182.311475 90.365812,189.448087 C97.3565812,192.606557 104.653675,195.054645 112.191453,196.562842 C114.467009,187.142077 116.425299,177.644809 118.678974,168.213115 C108.460855,168.016393 98.2536752,168.213115 88.0355556,168.092896 Z M119.149402,169.338798 C117.245812,178.639344 114.828034,187.830601 113.055726,197.153005 C122.376752,197.797814 131.741538,197.939891 141.062564,197.229508 C140.001368,187.557377 137.342906,178.136612 135.745641,168.551913 C130.53812,168.508197 125.341538,168.016393 120.134017,168.245902 C119.882393,168.519126 119.390085,169.065574 119.149402,169.338798 Z M136.259829,167.797814 C138.22906,177.382514 140.471795,186.945355 141.915897,196.628415 C149.73812,195.601093 157.46188,193.240437 164.441709,189.546448 C165.196581,182.202186 167.778462,175.185792 168.445812,167.830601 C157.724444,167.721311 146.992137,167.808743 136.259829,167.797814 Z" id="Shape" fill="#050505"></path>
                <path d="M18.8280342,58.420765 C21.3880342,54.9234973 23.8933333,51.3606557 26.5517949,47.9289617 C26.5846154,49.1202186 26.6502564,51.4918033 26.6830769,52.6830601 C32.9736752,56.8032787 39.1001709,61.295082 45.8940171,64.5737705 C46.7473504,63.8415301 47.6006838,63.1202186 48.4540171,62.3879781 C48.5196581,62.9344262 48.6618803,64.0273224 48.7275214,64.5737705 C46.7254701,67.1530055 44.2748718,69.4699454 42.7870085,72.3879781 L42.5682051,73.273224 C41.8133333,74.726776 39.8769231,73.8961749 38.6078632,73.9836066 C39.4393162,73.1092896 40.3473504,72.3333333 41.2663248,71.557377 C40.9162393,71.0327869 40.2379487,69.9836066 39.8878632,69.4590164 C34.7350427,65.852459 29.3634188,62.5300546 24.002735,59.2295082 C22.0006838,57.7540984 19.7798291,59.6010929 17.6355556,59.6010929 C17.9309402,59.3060109 18.5326496,58.715847 18.8280342,58.420765 Z" id="Shape" fill="#FFFFFF"></path>
                <path d="M218.409573,55.579235 C219.569231,50.2131148 226.724103,48.2786885 230.990769,51.2295082 C234.185299,52.9672131 235.640342,56.420765 237.106325,59.5464481 C235.257436,61.284153 233.386667,63.010929 231.384615,64.5737705 C231.187692,62.442623 232.33641,60.6830601 233.550769,59.0655738 C233.200684,57.4918033 232.774017,55.9398907 232.30359,54.3989071 C231.65812,54.136612 230.367179,53.6010929 229.721709,53.3387978 C228.50735,53.7213115 227.292991,54.0928962 226.078632,54.4644809 C224.470427,60.0928962 228.529231,67.010929 223.267009,71.4480874 C219.000342,73.9289617 213.661538,73.3606557 210.007521,70.0601093 C208.136752,67.5355191 206.659829,64.715847 206.05812,61.6010929 C207.600684,60.2896175 209.055726,58.8688525 210.324786,57.284153 C211.331282,57.4918033 212.348718,57.6994536 213.355214,57.9180328 C212.950427,58.0601093 212.140855,58.3551913 211.736068,58.4972678 C210.215385,61.568306 208.979145,64.9672131 210.740513,68.2240437 C213.10359,69.7759563 215.718291,69.3278689 218.092308,68.1038251 C219.941197,64.0382514 217.6,59.7650273 218.409573,55.579235 Z" id="Shape" fill="#FFFFFF"></path>
                <path d="M242.762393,68.9016393 C243.232821,69.557377 243.703248,70.2131148 244.184615,70.8797814 C245.322393,74.6065574 247.510427,78.0491803 247.849573,82.0054645 C246.613333,81.1092896 245.398974,80.2021858 244.173675,79.295082 C237.171966,81.8743169 229.929573,83.7213115 222.960684,86.3989071 C222.72,87.9398907 222.479316,89.4918033 222.183932,91.0327869 C220.039658,86.715847 218.464274,82.136612 217.063932,77.5355191 C217.982906,78.1803279 219.809915,79.4699454 220.728889,80.1147541 C228.015043,78.3770492 235.005812,75.5464481 242.182564,73.3934426 C242.368547,71.8961749 242.56547,70.3989071 242.762393,68.9016393 Z" id="Shape" fill="#FFFFFF"></path>
                <path d="M7.03452991,81.568306 C8.87247863,77.7103825 9.87897436,72.8579235 14.0362393,70.7595628 C16.7931624,69.8852459 19.5391453,70.9562842 22.0225641,72.0928962 C22.8977778,74.0601093 23.6307692,76.0710383 24.0355556,78.1912568 C29.6259829,77.6775956 35.2164103,76.8032787 40.4786325,74.7704918 C39.4502564,77.4371585 38.2905983,80.2349727 36.0259829,82.1038251 C31.9671795,84.3770492 27.0550427,83.2404372 22.7774359,84.8360656 C21.0598291,82.8579235 21.7381197,79.4918033 19.1124786,78.2349727 C17.0338462,76.6393443 14.3316239,76.9453552 11.8810256,76.8579235 C10.8635897,78.1256831 10.0649573,79.5355191 9.5617094,81.0874317 C13.0078632,82.3333333 16.4868376,83.5355191 19.8782906,84.9234973 C20.5675214,84.9344262 21.9459829,84.9672131 22.6352137,84.989071 C25.5671795,87.5027322 32.0109402,90.5300546 34.5490598,85.8852459 C34.3630769,90.8251366 31.617094,95.2404372 29.4181197,99.5355191 C29.2211966,98.0054645 29.0461538,96.4644809 28.9039316,94.9234973 C22.6023932,92.4863388 16.3008547,90.0054645 9.85709402,87.9508197 C7.73470085,87.1092896 5.69982906,87.852459 4.96683761,90.0819672 C4.15726496,87.0218579 6.03897436,84.3114754 7.03452991,81.568306 Z" id="Shape" fill="#FFFFFF"></path>
                <path d="M117.924103,82.7923497 C120.090256,81.2513661 122.661197,82.1038251 124.936752,82.8688525 C125.571282,85.0765027 126.927863,87.5355191 125.713504,89.7978142 C124.400684,93.8415301 119.762051,95.5136612 115.84547,94.7595628 C118.033504,93.5027322 120.177778,92.1803279 122.059487,90.4863388 C120.079316,90.3879781 118.197607,89.7868852 116.359658,89.0655738 C116.370598,86.9234973 115.528205,83.9945355 117.924103,82.7923497 Z M119.619829,83.7650273 C119.532308,85.852459 120.155897,87.7431694 122.081368,88.8032787 C122.168889,87.010929 122.059487,85.2295082 121.840684,83.4590164 C121.282735,83.5355191 120.177778,83.6885246 119.619829,83.7650273 Z" id="Shape" fill="#050505"></path>
                <path d="M140.690598,82.5519126 C141.948718,82.3005464 143.195897,82.0382514 144.454017,81.7650273 C145.318291,82.0491803 146.182564,82.3333333 147.046838,82.6174863 C150.186667,86.4644809 145.963761,89.8961749 143.217778,92.2786885 C145.197949,92.2677596 147.068718,91.6557377 148.786325,90.6612022 C148.633162,91.6557377 148.337778,93.6557377 148.184615,94.6612022 C145.011966,94.9344262 141.806496,94.7814208 138.633846,94.6502732 C140.942222,91.6448087 145.372991,89.0327869 144.00547,84.6065574 C142.145641,84.0382514 140.701538,85.3387978 139.301197,86.2677596 C139.596581,84.9781421 140.099829,83.7431694 140.690598,82.5519126 Z" id="Shape" fill="#050505"></path>
                <path d="M105.725812,82.8469945 C107.815385,82.6065574 109.915897,82.3661202 112.01641,82.136612 C112.038291,85.7868852 111.742906,89.4590164 112.125812,93.0874317 L114.456068,94.5191257 C112.235214,94.5409836 107.793504,94.6065574 105.57265,94.6284153 C109.740855,93.1420765 107.968547,87.7868852 107.793504,84.442623 C107.279316,84.0491803 106.24,83.2513661 105.725812,82.8469945 Z" id="Shape" fill="#050505"></path>
                <path d="M127.846838,82.3333333 C131.17265,82.2349727 134.509402,82.2131148 137.846154,82.3114754 C135.800342,86.3989071 133.77641,90.5191257 132.080684,94.7704918 C130.745983,94.8251366 129.400342,94.8579235 128.065641,94.8797814 C130.297436,91.6775956 132.627692,88.4863388 134.049915,84.8142077 C131.807179,84.8469945 129.630085,85.3387978 127.529573,86.0710383 C127.606154,85.1311475 127.759316,83.2622951 127.846838,82.3333333 Z" id="Shape" fill="#050505"></path>
                <path d="M223.442051,95.0765027 C226.921026,91.4262295 230.323419,87.6448087 233.014701,83.3715847 C238.08,83.6120219 242.609231,86.1912568 247.466667,87.4043716 C247.860513,86.2021858 248.396581,85.0546448 249.370256,84.2349727 C250.518974,87.6775956 251.49265,91.2295082 253.363419,94.3661202 C252.82735,94.4644809 252.291282,94.5519126 251.766154,94.6502732 C250.617436,93 249.217094,91.557377 247.521368,90.4754098 C244.873846,89.5027322 242.313846,88.3333333 239.764786,87.1420765 C239.425641,87.1202186 238.73641,87.0655738 238.397265,87.0437158 C236.887521,88.9562842 235.355897,90.8579235 233.868034,92.8032787 C232.784957,94.2349727 231.65812,95.6448087 230.575043,97.0765027 C229.77641,98.2459016 228.988718,99.4153005 228.179145,100.584699 C228.102564,101.349727 227.949402,102.879781 227.872821,103.644809 C227.489915,103.535519 226.724103,103.327869 226.352137,103.218579 C225.444103,100.47541 224.459487,97.7650273 223.442051,95.0765027 Z" id="Shape" fill="#FFFFFF"></path>
                <path d="M2.04581197,97.8415301 L3.63213675,97.8196721 C3.70871795,98.5956284 3.87282051,100.147541 3.94940171,100.934426 C8.04102564,101.765027 12.1873504,102.289617 16.322735,102.857923 C19.3203419,103.240437 22.3507692,103.437158 25.2717949,104.234973 C27.0112821,103.612022 28.5538462,102.584699 30.1182906,101.63388 C29.1446154,106.071038 29.1336752,110.693989 27.5364103,114.989071 C27.0769231,113.775956 26.7049573,112.530055 26.3439316,111.284153 C19.4735043,109.52459 12.351453,109.196721 5.37162393,108.038251 C2.96478632,107.382514 1.82700855,110.005464 0.404786325,111.382514 C0.503247863,106.814208 1.70666667,102.377049 2.04581197,97.8415301 Z" id="Shape" fill="#FFFFFF"></path>
                <path d="M230.782906,106.060109 C238.222222,99.4808743 251.459829,102.245902 255.38735,111.469945 C255.770256,115.20765 256.448547,119.327869 254.293333,122.693989 C249.085812,131.491803 234.666667,131.710383 228.769915,123.546448 C227.117949,121.349727 226.713162,118.595628 226.177094,115.983607 C226.614701,112.300546 227.752479,108.464481 230.782906,106.060109 Z M237.139145,110.147541 C233.419487,111.349727 229.076239,112.79235 228.025983,117.098361 C228.934017,120.245902 231.920684,121.939891 235.060513,122.005464 C240.858803,122.300546 247.433846,122.387978 252.247521,118.639344 C254.304274,117.240437 253.45094,114.508197 253.264957,112.464481 C251.711453,111.666667 250.168889,110.868852 248.637265,110.060109 C244.808205,109.677596 240.957265,109.743169 237.139145,110.147541 Z" id="Shape" fill="#FFFFFF"></path>
                <path d="M98.1880342,111.371585 C100.583932,111.20765 102.968889,110.912568 105.364786,110.68306 C105.463248,116.333333 104.894359,122.038251 105.769573,127.655738 C106.469744,127.513661 107.859145,127.229508 108.559316,127.087432 C109.368889,123.076503 108.898462,118.923497 108.942222,114.857923 C109.117265,113.42623 107.968547,112.431694 107.235556,111.371585 C109.314188,111.142077 111.392821,110.868852 113.471453,110.584699 C113.526154,115.688525 113.449573,120.79235 113.526154,125.896175 C113.94188,126.497268 114.773333,127.699454 115.18906,128.311475 C109.598632,128.278689 104.008205,128.333333 98.4177778,128.224044 C101.863932,125.961749 100.682393,121.590164 100.890256,118.125683 C101.065299,115.568306 100.813675,112.606557 98.1880342,111.371585 Z" id="Shape" fill="#050505"></path>
                <path d="M168.281709,111.448087 C170.447863,111.163934 172.624957,110.89071 174.791111,110.628415 C174.73641,115.928962 174.758291,121.229508 174.769231,126.530055 C176.082051,126.57377 177.405812,126.606557 178.729573,126.628415 C178.762393,122.300546 178.773333,117.961749 178.740513,113.622951 C178.138803,112.901639 177.548034,112.169399 176.968205,111.437158 C179.079658,111.153005 181.202051,110.846995 183.313504,110.519126 C183.324444,115.688525 183.291624,120.857923 183.368205,126.027322 C183.882393,126.770492 184.385641,127.52459 184.899829,128.278689 C179.561026,128.234973 174.222222,128.377049 168.894359,128.278689 C168.992821,127.295082 169.977436,126.803279 170.524444,126.081967 C170.207179,121.819672 170.371282,117.546448 170.316581,113.284153 C169.638291,112.672131 168.96,112.060109 168.281709,111.448087 Z" id="Shape" fill="#050505"></path>
                <path d="M68.7808547,111.896175 C72.1504274,111.863388 75.5309402,111.797814 78.8567521,112.300546 C77.9924786,112.759563 77.117265,113.218579 76.2420513,113.677596 C77.1282051,116.36612 78.145641,119.021858 79.1958974,121.666667 C80.7275214,119.251366 81.9528205,116.584699 82.368547,113.743169 C81.7558974,113.382514 80.5087179,112.68306 79.8851282,112.322404 C82.7186325,111.743169 85.6068376,111.885246 88.4731624,112.15847 C87.2041026,113.098361 85.4864957,113.73224 84.7644444,115.262295 C82.5982906,119.644809 81.0010256,124.289617 79.0536752,128.781421 C78.462906,128.57377 77.2923077,128.15847 76.7124786,127.961749 C73.9883761,122.650273 73.0694017,116.322404 68.7808547,111.896175 Z" id="Shape" fill="#050505"></path>
                <path d="M140.099829,111.480874 C142.353504,111.185792 144.607179,110.912568 146.871795,110.650273 C146.838974,112.68306 146.817094,114.726776 146.762393,116.759563 C148.239316,116.661202 149.727179,116.57377 151.215043,116.486339 C152.98735,118.04918 155.328547,119.928962 154.781538,122.628415 C154.606496,125.404372 152.155897,127.054645 150.055385,128.453552 C147.571966,128.420765 145.099487,128.36612 142.616068,128.245902 C142.255043,123.371585 142.451966,118.486339 142.430085,113.612022 C141.850256,113.076503 140.679658,112.016393 140.099829,111.480874 Z M147.003077,126.628415 C147.604786,126.562842 148.819145,126.431694 149.420855,126.36612 C149.530256,124.344262 149.574017,122.311475 149.595897,120.289617 C149.059829,119.786885 147.987692,118.79235 147.451624,118.289617 C146.521709,120.978142 146.828034,123.84153 147.003077,126.628415 Z" id="Shape" fill="#050505"></path>
                <path d="M120.29812,116.912568 C123.766154,115.087432 127.277949,118.234973 127.496752,121.754098 C126.599658,121.874317 124.80547,122.125683 123.908376,122.245902 C122.398632,121.295082 122.26735,119.371585 121.62188,117.896175 C120.440342,120.202186 120.079316,123.415301 122.070427,125.393443 C123.886496,125.218579 125.713504,125.065574 127.529573,124.923497 C125.997949,127.907104 122.420513,129.480874 119.280684,128.016393 C114.401368,126.169399 115.364103,118.114754 120.29812,116.912568 Z" id="Shape" fill="#050505"></path>
                <path d="M84.7425641,121.338798 C86.5367521,117.622951 90.2892308,115.786885 94.3589744,116.562842 C99.2382906,118.901639 99.2382906,126.060109 94.3917949,128.442623 C91.5911111,128.562842 88.7904274,128.344262 86.274188,127 C85.7162393,125.131148 85.2020513,123.240437 84.7425641,121.338798 Z M90.2892308,118.693989 C90.1032479,121.338798 90.1360684,124.005464 90.8362393,126.584699 C91.4379487,126.486339 92.6523077,126.289617 93.2649573,126.191257 C93.2540171,123.546448 92.8382906,120.923497 92.2803419,118.333333 C91.777094,118.431694 90.7815385,118.606557 90.2892308,118.693989 Z" id="Shape" fill="#050505"></path>
                <path d="M127.179487,116.68306 C129.93641,116.661202 132.704274,116.672131 135.461197,116.672131 C132.890256,118.464481 134.454701,121.142077 135.614359,123.174863 C136.106667,121.043716 136.588034,118.846995 136.030085,116.672131 C137.222564,116.661202 139.607521,116.628415 140.8,116.617486 L140.624957,118.038251 C136.445812,122.278689 135.526838,128.650273 132.45265,133.644809 C131.675897,133.513661 130.122393,133.251366 129.345641,133.10929 C129.476923,132.639344 129.750427,131.688525 129.881709,131.218579 C130.921026,130.234973 131.949402,129.229508 132.955897,128.213115 C131.260171,124.256831 129.794188,120.147541 127.179487,116.68306 Z" id="Shape" fill="#050505"></path>
                <path d="M162.341197,118.868852 C161.411282,118.224044 160.481368,117.579235 159.562393,116.934426 C161.991111,116.355191 164.540171,116.420765 166.651624,117.852459 C166.268718,121.218579 167.953504,124.846995 166.520342,128.016393 C163.085128,128.169399 159.124786,129.043716 156.072479,126.978142 C156.291282,125.20765 155.798974,122.945355 157.987009,122.245902 C157.472821,121.174863 155.459829,119.306011 157.275897,118.387978 C158.238632,116.595628 159.715556,118.748634 160.897094,119.021858 L159.004444,121.021858 C159.792137,121.010929 161.367521,120.967213 162.155214,120.956284 C162.198974,120.431694 162.286496,119.393443 162.341197,118.868852 Z M161.630085,126.289617 C162.931966,125.568306 163.238291,124.453552 162.527179,122.945355 C160.426667,121.338798 159.256068,126.016393 161.630085,126.289617 Z" id="Shape" fill="#050505"></path>
                <path d="M0.328205128,130.617486 C-0.273504274,126.245902 0.153162393,121.469945 3.92752137,118.606557 C7.36273504,118.464481 11.6075214,117.404372 14.2222222,120.322404 C17.154188,122.661202 17.4495726,126.617486 17.0666667,130.081967 C20.2502564,129.754098 23.8276923,130.497268 26.6283761,128.551913 C26.8690598,127.240437 27.1097436,125.928962 27.4598291,124.639344 C29.1774359,129.513661 29.057094,134.814208 28.8820513,139.907104 C28.0287179,138.759563 27.2410256,137.568306 26.4642735,136.377049 C19.7470085,136.191257 13.1063248,137.327869 6.41094017,137.382514 C4.11350427,137.153005 2.49435897,139.010929 1.9582906,141.065574 C-0.0875213675,138.027322 0.940854701,134.060109 0.328205128,130.617486 Z M2.20991453,130.945355 C6.4765812,130.978142 10.754188,130.803279 15.0099145,130.431694 C14.9552137,129.480874 14.8676923,127.568306 14.8129915,126.617486 C11.902906,124.857923 8.47863248,125.065574 5.21846154,125.262295 C3.08512821,126.420765 2.20991453,128.57377 2.20991453,130.945355 Z" id="Shape" fill="#FFFFFF"></path>
                <path d="M233.058462,136.89071 C236.034188,135.918033 239.152137,136.879781 242.116923,137.393443 C243.965812,138.453552 245.792821,139.568306 247.608889,140.704918 C253.363419,146.989071 252.17094,157.557377 246.569573,163.513661 C244.556581,162.57377 242.346667,162.333333 240.169573,162.114754 C240.158632,161.699454 240.136752,160.857923 240.125812,160.442623 C244.031453,160.748634 248.659145,158.606557 248.95453,154.245902 C249.709402,149.765027 245.650598,146.868852 242.127863,145.196721 C240.979145,144.814208 239.852308,144.420765 238.72547,144.016393 C233.452308,143.229508 225.378462,142.912568 224.153162,149.765027 C223.584274,148.912568 223.004444,148.04918 222.435556,147.196721 C224.415726,142.562842 227.905641,138.071038 233.058462,136.89071 Z" id="Shape" fill="#FFFFFF"></path>
                <path d="M16.0492308,149.448087 C17.3511111,146.147541 20.4581197,143.612022 24.0902564,143.557377 C28.608547,143.185792 32.6892308,146.617486 33.9473504,150.825137 C34.7459829,153.896175 35.8071795,158.519126 31.682735,159.437158 C30.4574359,160.136612 29.2321368,160.836066 28.0068376,161.52459 C27.0441026,158.606557 30.785641,157.360656 31.5076923,154.846995 C33.4550427,152.060109 30.7637607,147.153005 27.2300855,148.36612 C26.1360684,148.650273 25.0748718,148.989071 24.0136752,149.371585 C23.5870085,150.562842 23.1603419,151.754098 22.7008547,152.945355 C22.2523077,156.770492 21.694359,161.622951 17.6683761,163.393443 C15.0864957,164.715847 12.2420513,164.114754 9.59452991,163.360656 C8.41299145,162.224044 7.24239316,161.054645 6.09367521,159.874317 C5.25128205,157.284153 4.20102564,154.661202 4.20102564,151.896175 C5.32786325,151.120219 6.52034188,150.464481 7.69094017,149.765027 C8.90529915,149.469945 10.1196581,149.218579 11.3449573,149 C10.1196581,150.814208 8.58803419,152.377049 7.04547009,153.928962 C7.17675214,155.819672 6.75008547,158.038251 8.67555556,159.185792 C10.1962393,159.546448 11.7278632,159.557377 13.2594872,159.229508 C15.7538462,156.650273 15.3928205,152.726776 16.0492308,149.448087 Z" id="Shape" fill="#FFFFFF"></path>
                <path d="M113.29641,147.961749 C115.112479,147.284153 117.027009,147.032787 118.941538,146.814208 C119.04,150.814208 119.02906,154.803279 118.974359,158.803279 C119.357265,159.338798 120.134017,160.420765 120.527863,160.956284 C116.523761,161.043716 112.508718,161.021858 108.504615,161.010929 C107.213675,158.868852 105.835214,156.781421 104.588034,154.617486 C104.423932,157.20765 104.620855,159.765027 107.213675,161.076503 C104.380171,161.021858 101.557607,161.010929 98.7350427,160.89071 C99.3039316,160.47541 100.441709,159.644809 101.010598,159.229508 C100.966838,156.038251 100.988718,152.846995 100.999658,149.666667 C100.441709,149.262295 99.3148718,148.453552 98.7569231,148.04918 C101.284103,147.961749 103.822222,147.928962 106.360342,147.874317 C105.430427,149.590164 103.931624,151.185792 104.708376,153.404372 C106.26188,151.928962 108.624957,150.344262 107.705983,147.852459 C109.565812,147.918033 111.425641,147.95082 113.29641,147.961749 Z M107.53094,153.043716 C109.970598,155.568306 111.305299,159.972678 115.276581,160.355191 C115.517265,156.15847 115.626667,151.939891 115.112479,147.775956 C112.289915,149.065574 109.729915,150.836066 107.53094,153.043716 Z" id="Shape" fill="#050505"></path>
                <path d="M132.518291,147.349727 C134.214017,147.20765 135.909744,147.065574 137.60547,146.934426 C137.57265,148.540984 137.550769,150.15847 137.528889,151.765027 C138.469744,151.721311 140.373333,151.612022 141.325128,151.557377 C144.257094,153.557377 144.574359,157.229508 142.627009,160.071038 C139.924786,161.371585 136.97094,161.535519 134.049915,161 C133.371624,156.497268 135.340855,151.295082 132.518291,147.349727 Z M137.561709,153.666667 C137.57265,155.579235 137.58359,157.502732 137.59453,159.42623 C138.141538,159.382514 139.235556,159.306011 139.782564,159.262295 C139.738803,157.42623 139.651282,155.601093 139.49812,153.775956 C139.016752,153.754098 138.054017,153.699454 137.561709,153.666667 Z" id="Shape" fill="#050505"></path>
                <path d="M144.399316,147.31694 C146.105983,147.174863 147.82359,147.043716 149.530256,146.923497 C149.497436,148.442623 149.464615,149.95082 149.431795,151.469945 C151.215043,151.775956 152.998291,152.125683 154.781538,152.497268 C156.663248,155.754098 155.656752,159.491803 152.385641,161.295082 C150.197607,161.284153 148.020513,161.163934 145.865299,160.923497 C145.777778,157.196721 145.799658,153.459016 145.788718,149.73224 C145.329231,148.923497 144.858803,148.114754 144.399316,147.31694 Z M149.475556,153.491803 C149.497436,155.502732 149.508376,157.513661 149.519316,159.52459 C150.044444,159.459016 151.094701,159.349727 151.619829,159.284153 C151.608889,157.535519 151.587009,155.797814 151.532308,154.04918 C151.01812,153.918033 149.989744,153.63388 149.475556,153.491803 Z" id="Shape" fill="#050505"></path>
                <path d="M233.255385,152.846995 C233.933675,151.42623 234.633846,150.005464 235.290256,148.57377 C235.727863,149.306011 236.16547,150.038251 236.603077,150.759563 C234.972991,154.47541 234.075897,158.431694 233.025641,162.333333 C232.653675,162.289617 231.898803,162.202186 231.515897,162.169399 C231.406496,161.513661 231.165812,160.202186 231.04547,159.546448 C227.85094,158.814208 224.678291,157.994536 221.45094,157.491803 C221.407179,154.639344 221.604103,151.786885 221.801026,148.945355 C224.842393,151.896175 229.240342,152.387978 233.255385,152.846995 Z" id="Shape" fill="#FFFFFF"></path>
                <path d="M120.691966,152.595628 C123.656752,150.901639 127.36547,152.071038 130.625641,151.786885 C132.310427,154.355191 131.085128,157.918033 132.047863,160.846995 C130.964786,160.989071 128.809573,161.251366 127.726496,161.382514 C127.649915,158.497268 127.638974,155.590164 127.33265,152.715847 C126.70906,152.530055 126.08547,152.344262 125.472821,152.169399 C125.330598,155.306011 125.166496,158.639344 127.474872,161.10929 C126.446496,161.131148 124.367863,161.163934 123.328547,161.185792 C120.626325,159.076503 122.923761,155.065574 120.691966,152.595628 Z" id="Shape" fill="#050505"></path>
            </g>
        </g>
    </g>
</svg>