<?xml version="1.0" encoding="UTF-8"?>
<svg width="256px" height="256px" viewBox="0 0 256 256" version="1.1" xmlns="http://www.w3.org/2000/svg" xmlns:xlink="http://www.w3.org/1999/xlink">
    <!-- Generator: Sketch 51.3 (57544) - http://www.bohemiancoding.com/sketch -->
    <title>logo/straen</title>
    <desc>Created with Sketch.</desc>
    <defs></defs>
    <g id="logo/straen" stroke="none" stroke-width="1" fill="none" fill-rule="evenodd">
        <path d="M64.2498383,107.344244 C64.2498383,107.744921 63.7689041,108.626411 62.8871914,109.988713 C62.0054787,111.351016 61.4443888,111.992099 61.0436103,111.992099 C60.322209,111.992099 59.8412748,111.591422 59.6008077,111.591422 C59.3603406,109.187359 59.0397179,106.783296 58.7992508,104.459368 C58.3183166,101.334086 57.0358254,99.8115124 54.8716215,99.731377 C51.4249265,99.6512415 48.9400998,100.612867 47.2568301,102.536117 C46.0544946,103.978555 45.413249,105.82167 45.413249,107.985327 C45.413249,109.027088 45.5735604,109.908578 45.8140275,110.469526 C48.4591656,115.197517 51.1043037,119.845372 53.7494417,124.573363 C58.1580052,132.506772 60.322209,137.795711 60.322209,140.520316 C60.322209,147.331828 57.2762925,153.10158 51.2646151,157.829571 C46.0544946,161.916479 40.6039071,164 35.0731639,164 C34.8326968,164 33.9509841,163.839729 32.4280258,163.599323 C30.9050675,163.358916 30.0233548,163.198646 29.6225763,163.198646 C27.7789953,163.198646 25.45448,161.756208 22.5688748,158.871332 C19.5229583,155.826185 18,153.181716 18,151.018059 C18,148.53386 19.0420241,145.088036 21.1260723,140.760722 C23.1299647,136.593679 24.5727673,134.349887 25.5346357,134.109481 C26.4965041,134.510158 26.9774383,135.151242 26.9774383,136.032731 C26.9774383,135.792325 26.3361927,137.234763 24.9735458,140.440181 C23.6910546,143.645598 23.049809,146.290068 23.049809,148.453725 C23.049809,151.659142 24.652923,154.143341 27.7789953,155.906321 C30.4241333,157.428894 33.5502056,158.150113 36.9969006,158.150113 C40.4435957,158.150113 44.2109135,156.547404 48.4591656,153.341986 C52.867729,149.976298 55.1120886,146.610609 55.1120886,143.325056 C55.1120886,140.520316 54.0700645,136.994357 51.9860163,132.586907 C51.024148,130.663657 49.3408783,127.858916 46.8560516,124.092551 C44.3712249,120.326185 42.6879553,117.521445 41.8062426,115.598194 C40.2832843,112.312641 39.4817273,109.267494 39.4817273,106.302483 C39.4817273,103.337472 41.164997,100.37246 44.4513806,97.4074492 C47.7377643,94.4424379 50.7836809,93 53.5089746,93 C57.5969153,93 60.4023647,94.282167 62.0856344,96.9266366 C63.528437,99.0902935 64.2498383,102.616253 64.2498383,107.344244 Z M90.5409075,130.663657 L99.197723,129.942438 C98.9572559,130.26298 99.5183458,130.904063 99.5183458,131.14447 C99.5183458,131.545147 99.197723,131.945824 98.5564774,132.506772 C93.346357,133.548533 89.4988834,134.590293 86.9339011,135.632054 C85.0101643,136.433409 83.0864275,137.475169 81.0825351,138.757336 C81.1626908,139.478555 80.842068,140.680587 80.2809781,142.363431 C79.7198882,143.96614 79.3992654,145.168172 79.3992654,145.889391 C79.3992654,146.530474 79.6397325,148.373589 79.7198882,148.934537 C79.7198882,149.655756 79.238954,151.739278 78.3572413,155.024831 C77.3152172,158.871332 76.2731931,160.794582 75.3914804,160.794582 C74.429612,160.794582 73.4677437,159.832957 72.5058753,157.989842 C71.784474,156.467269 71.3836955,155.265237 71.3836955,154.463883 C71.3836955,154.223476 71.9447854,152.300226 73.0669652,148.774266 C74.2693006,145.168172 74.8303905,143.244921 74.8303905,142.924379 C74.8303905,142.363431 73.7082108,140.840858 73.6280551,140.440181 C73.1471209,138.837472 72.9066538,137.475169 72.9066538,136.273138 C72.9066538,135.87246 73.3074323,135.231377 74.1891449,134.189616 C75.0708576,133.147856 75.7121032,132.667043 75.9525703,132.667043 C76.5938159,132.667043 76.9144387,132.506772 77.4755286,132.506772 C78.0366185,132.506772 79.0786426,130.343115 80.6817566,125.935666 C81.4833136,123.611738 82.2848705,121.367946 83.0864275,119.124153 C84.6093858,115.67833 86.4529669,110.709932 88.7774822,104.058691 C89.8195062,102.455982 90.8615303,102.536117 91.1821531,101.975169 L92.6249557,101.975169 C92.6249557,102.536117 93.9074469,105.180587 93.9074469,106.783296 C93.9074469,108.225734 92.4646443,111.911964 89.5790391,117.841986 C86.3728112,124.573363 84.4490744,128.980813 83.8879845,131.064334 L84.3689187,131.625282 C86.2926555,131.14447 88.3767037,130.823928 90.5409075,130.663657 Z M125.248325,135.71219 C125.248325,136.75395 125.007858,137.955982 124.446768,139.238149 C123.805523,140.680587 123.084121,141.562077 122.202409,141.962754 C120.919917,140.600451 121.080229,139.478555 121.000073,138.276524 C120.759606,137.395034 121.481007,134.990971 121.481007,134.349887 C121.481007,133.147856 121.000073,132.586907 119.958049,132.586907 C118.274779,132.586907 116.03042,134.670429 113.22497,138.757336 C110.419521,142.844244 108.255317,147.171558 106.812514,151.739278 C106.572047,153.261851 106.251425,154.704289 106.010957,156.226862 C105.610179,158.069977 104.888778,159.43228 104.007065,160.153499 C103.365819,159.832957 102.644418,159.352144 101.842861,158.630926 C100.640526,157.589165 100.079436,156.62754 100.079436,155.906321 C100.079436,155.585779 100.400058,154.143341 101.12146,151.498871 C102.24364,148.053047 103.606286,143.886005 105.129245,138.837472 C105.77049,136.032731 106.251425,134.269752 106.572047,133.468397 C107.133137,131.865688 108.01485,130.583521 109.056874,129.702032 C109.69812,129.702032 110.179054,130.102709 110.499677,130.904063 C110.900455,132.025959 111.140922,132.667043 111.301234,132.827314 C112.824192,131.465011 114.427306,130.022573 116.03042,128.660271 C118.114468,127.057562 120.038205,126.256208 121.80163,126.256208 C123.003966,126.256208 123.805523,126.817156 124.366612,128.019187 C124.927702,129.461625 125.248325,132.025959 125.248325,135.71219 Z M171.818786,149.41535 L172.86081,149.41535 C172.540188,151.579007 170.456139,154.063205 166.688822,156.78781 C162.921504,159.512415 160.035898,160.874718 158.032006,160.874718 C157.470916,160.874718 157.070138,160.634312 156.509048,160.634312 C155.547179,160.634312 154.344844,160.073363 152.982197,158.871332 C151.779862,157.829571 151.05846,157.028217 150.737837,156.306998 C149.695813,154.143341 149.134723,151.979684 149.134723,149.896163 C149.134723,149.174944 149.214879,148.373589 149.375191,147.65237 L142.161178,154.143341 C139.195417,156.467269 136.389967,157.6693 133.824985,157.6693 C132.943272,157.6693 132.06156,156.867946 131.179847,155.265237 C130.37829,153.902935 129.977511,152.700903 129.977511,151.739278 C129.977511,148.453725 132.622649,143.886005 137.993081,138.036117 C143.363513,132.18623 147.611765,129.301354 150.657682,129.38149 C152.501263,129.38149 152.982197,130.984199 153.623443,132.266366 C154.024221,131.465011 154.425,130.663657 154.825778,129.782167 C155.547179,128.339729 156.268581,127.61851 156.989982,127.61851 C157.711383,127.61851 158.593096,128.099323 159.63512,129.141084 C160.035898,129.782167 159.875587,131.064334 159.234342,132.907449 C158.112162,134.510158 157.310605,135.952596 156.749515,137.234763 C156.188425,138.677201 155.547179,140.760722 154.905934,143.485327 C154.344844,145.889391 154.024221,147.331828 154.024221,147.892777 C154.024221,149.735892 154.425,151.418736 155.226557,152.941309 C156.268581,154.944695 157.631228,155.906321 159.474809,155.906321 C160.997767,155.906321 163.001659,155.104966 165.486486,153.502257 C167.65069,152.139955 169.734738,150.777652 171.818786,149.41535 Z M151.05846,137.074492 C150.657682,137.074492 149.214879,136.273138 148.653789,136.273138 C147.772077,136.273138 146.40943,137.074492 144.646004,138.597065 C143.60398,139.558691 142.4818,140.520316 141.439776,141.562077 C140.157285,142.683973 138.874794,144.286682 137.512147,146.290068 C136.229656,148.293454 135.508255,149.976298 135.267788,151.3386 C135.508255,151.3386 135.909033,152.059819 136.470123,152.059819 C137.351836,152.059819 139.596195,150.376975 143.363513,147.091422 C146.730052,144.046275 148.653789,142.123025 149.134723,141.401806 C150.016436,140.039503 150.657682,138.597065 151.05846,137.074492 Z M198.59079,132.747178 C198.59079,135.792325 196.025807,139.478555 190.975998,143.805869 C185.926189,148.133183 181.357314,150.457111 177.269374,150.697517 C177.429685,152.460497 178.311398,153.98307 179.914512,155.185102 C181.197003,156.146727 182.479494,156.62754 183.842141,156.62754 C185.365099,156.62754 187.689615,155.986456 190.815687,154.704289 C194.422693,153.181716 196.186119,152.460497 196.186119,152.380361 C196.90752,152.22009 197.628921,152.460497 198.190011,153.021445 C197.308299,154.303612 194.983783,155.986456 191.216465,157.989842 C187.449148,160.073363 184.723854,161.115124 182.880273,161.115124 C179.7542,161.115124 177.189218,159.913093 175.185326,157.589165 C173.502056,155.505643 172.620343,153.10158 172.540188,150.29684 C172.460032,146.049661 174.784547,141.1614 179.593889,135.632054 C184.403231,130.102709 188.972106,127.378104 193.300514,127.378104 C194.502849,127.378104 195.625029,127.939052 196.827364,129.141084 C198.0297,130.343115 198.59079,131.545147 198.59079,132.747178 Z M193.220358,133.94921 C192.819579,133.548533 192.418801,133.308126 192.098178,133.308126 C189.773663,133.308126 187.128525,134.750564 184.082608,137.715576 C181.517626,140.27991 179.834356,142.603837 178.952643,144.767494 C180.555757,144.767494 182.078716,144.366817 183.521518,143.565463 C184.24292,143.164786 185.685722,142.20316 187.849926,140.600451 C190.094286,138.917607 191.857711,136.75395 193.220358,133.94921 Z M223.592562,140.608287 C223.597099,140.597012 223.599368,140.594423 223.599368,140.600451 C223.597021,140.602949 223.594675,140.605445 223.59233,140.607942 L223.592562,140.608287 Z M223.59233,140.607942 C221.110757,143.249007 219.10921,145.410243 217.58769,147.171558 C214.782241,150.457111 212.858504,153.181716 211.81648,155.185102 C211.25539,155.185102 209.57212,156.146727 209.011031,156.146727 C208.449941,156.146727 207.808695,155.74605 207.087294,154.944695 C206.446048,154.143341 206.125425,153.662528 206.125425,153.422122 C206.125425,153.021445 206.766671,150.29684 208.049162,145.088036 C209.411809,139.879233 210.533989,135.71219 211.415702,132.747178 C211.736324,131.705418 213.660061,130.823928 214.702085,130.823928 C214.942552,130.823928 215.343331,130.984199 215.904421,131.30474 C216.625822,131.785553 217.0266,132.025959 217.106756,132.025959 C217.267068,133.06772 216.866289,134.910835 215.904421,137.555305 C214.862397,140.360045 214.301307,142.123025 214.301307,142.683973 C214.301307,142.924379 214.381462,143.164786 214.541774,143.325056 C215.744109,142.20316 217.427379,140.27991 219.591583,137.555305 C221.755787,134.750564 223.439056,132.827314 224.561236,131.785553 C226.404817,130.102709 228.168243,129.301354 229.771357,129.301354 C230.893536,129.301354 231.454626,130.26298 231.454626,132.18623 C231.454626,134.109481 230.572914,137.314898 228.809488,141.802483 C227.126219,146.290068 226.244506,149.335214 226.244506,150.937923 C226.244506,153.742664 227.28653,155.185102 229.450734,155.185102 C230.332446,155.185102 232.897429,153.902935 237.225837,151.3386 C237.546459,151.579007 238.187705,151.739278 237.947238,152.300226 C237.225837,153.822799 235.702878,155.505643 233.538674,157.348758 C231.374471,159.111738 229.691201,159.993228 228.40871,159.993228 C224.160458,159.993228 221.835942,157.108352 221.355008,151.418736 C221.274852,150.216704 221.595475,148.133183 222.397032,145.088036 C223.138286,142.197879 223.536796,140.746879 223.592562,140.608287 L223.59233,140.607942 Z" id="Straen" fill="#FFFFFF"></path>
    </g>
</svg>