<?xml version="1.0" encoding="UTF-8"?>
<svg width="256px" height="256px" viewBox="0 0 256 256" version="1.1" xmlns="http://www.w3.org/2000/svg" xmlns:xlink="http://www.w3.org/1999/xlink">
    <!-- Generator: Sketch 51.3 (57544) - http://www.bohemiancoding.com/sketch -->
    <title>logo/sunnfjord</title>
    <desc>Created with Sketch.</desc>
    <defs></defs>
    <g id="logo/sunnfjord" stroke="none" stroke-width="1" fill="none" fill-rule="evenodd">
        <g id="sunnfjord" transform="translate(0.000000, 53.000000)" fill-rule="nonzero">
            <g id="#bb2b3fff" transform="translate(89.510490, 0.000000)" fill="#BB2B3F">
                <g id="Vector">
                    <g id="path0_fill-link" transform="translate(0.184988, 0.000000)">
                        <path d="M39.1880503,3.14340268 C41.2587263,0.196631944 45.2986331,-0.467428801 48.6164886,0.285568651 C51.2122928,0.97927615 53.1337846,4.21656635 51.7970946,6.70084724 C50.5081436,9.03691808 48.2942508,11.0172421 45.6089361,11.533075 C45.9073044,11.6872319 46.5159758,12.001475 46.8143441,12.1556319 C52.4535049,12.5884572 58.259752,12.8196927 63.7559347,11.2899813 C68.864,11.0824623 73.8825548,13.0509281 79.0085221,12.3809383 C81.7594779,11.9955459 84.5522051,10.0804421 87.2494545,11.6931611 C87.0704336,12.7070395 86.8854452,13.7268471 86.67062,14.7407255 C78.9309464,16.5787508 70.7317855,14.0825939 63.1353287,16.6854749 C60.4022751,17.4977635 58.3790993,19.5848115 56.0160224,21.0552317 C52.6802648,23.1482089 51.6419431,27.1385025 50.0546238,30.4825227 C48.7477706,33.0142543 49.0521063,35.9550947 48.3002182,38.6469124 C46.683062,44.6590337 45.4239478,50.8490285 45.6566751,57.0983145 C45.8416634,59.7251491 44.5348103,62.1145819 44.2245072,64.6759591 C43.8425958,67.3084856 43.1742508,69.9943741 43.76502,72.644688 C42.7147636,73.8364399 41.4854862,74.8443892 40.2383068,75.822693 C38.0423161,74.3226272 38.7345305,71.3877159 38.9195189,69.15244 C41.1572811,64.723392 41.9032019,59.6006377 41.0677706,54.7088816 C40.4770014,51.2759247 40.7574676,47.7836767 41.3482368,44.3685072 C38.579379,43.7222338 36.0432485,45.2282287 33.4235748,45.8033527 C30.3861855,48.5722488 26.4238545,50.7956665 24.9320131,54.8274639 C23.4759758,56.1140816 21.3814303,55.8057677 19.7821762,56.7722132 C17.9979338,57.8335246 16.142083,58.7703246 14.2683301,59.6658579 C11.4099618,61.130349 7.74599907,60.8813262 5.49629016,63.4664199 C4.13573072,65.0969261 2.17246732,65.8677109 0.143560503,66.3005362 C-0.0414280205,64.8953363 -0.184646415,63.371554 0.626913566,62.120511 C1.83232149,59.6955035 4.5773158,58.8058993 6.79122051,57.5607854 C9.30348159,56.4105373 10.8967683,53.9796006 13.4627357,52.906431 C16.9297753,50.9676108 21.8528522,49.2185222 22.3004047,44.6649629 C22.3183068,40.3663554 26.0479105,37.6271048 28.1484233,34.2712264 C28.8466051,33.3462846 28.9003114,32.1723201 28.9241809,31.0695049 C28.8227357,26.4863 30.6845538,22.1876925 31.2514536,17.6874951 C29.74171,16.7566242 28.0589128,16.1933584 26.3522462,15.7486749 C24.62171,15.3573534 23.3566284,14.0648066 21.9065585,13.151723 C18.5588662,10.9520218 14.674111,9.7780573 11.201104,7.79773329 C9.11849324,6.64155611 7.23280559,5.16523049 5.32323058,3.7541014 C5.30532848,2.90030902 5.28145902,2.05243982 5.25758956,1.20457655 C10.1150434,0.244062482 13.3016168,5.02886087 17.723435,5.91822794 C22.8732718,7.02101939 28.0111739,8.27799151 32.9461855,10.1397332 C34.682689,10.8512269 36.4609641,11.4619256 38.2750434,11.9718294 C37.0935049,9.11399656 37.0815702,5.58026845 39.1880503,3.14340268 Z M44.8630154,1.60775628 C44.8272112,1.8745664 44.7556028,2.40819257 44.7197986,2.67500269 C45.7103814,2.88252168 46.1459991,3.46949801 46.0326191,4.44780179 C44.6601249,5.20672835 43.1324793,5.72256718 41.9748103,6.82535863 C43.633738,6.97951559 45.2986331,6.97951559 46.9635282,6.93801179 C47.5244606,6.08421941 48.2465119,5.3134524 48.640358,4.35293597 C48.4135981,3.39834865 47.7512205,2.61571156 47.2917333,1.76784828 C46.4801716,1.72041537 45.6745772,1.66111831 44.8630154,1.60775628 Z M33.9427357,14.6814344 C34.3604513,15.9502648 34.97509,17.2190951 34.8378406,18.5887204 C34.6409175,21.5651355 32.5344373,23.9901431 32.1584932,26.9191253 C31.9735049,29.3382037 34.9571879,30.0971303 35.9179338,32.0418796 C35.7568149,32.4035555 35.4345772,33.1328365 35.2734583,33.4945125 C35.7389128,35.6704972 36.7832019,37.6863959 37.0636681,39.9157427 C38.5734117,40.087687 40.0771879,40.2537022 41.5988662,40.2596313 C44.3140177,34.8819251 45.0002648,28.780867 47.4409175,23.2905076 C48.0913604,20.652052 50.0725259,18.5768622 50.5916867,15.9028318 C49.977048,16.2585787 49.3803114,16.6321128 48.7835748,17.0115761 C46.927724,17.0234344 45.1971879,17.6874951 43.4129455,18.0847457 C41.9986797,18.3752723 41.4198452,16.8574192 40.7455329,15.962123 C38.5256727,15.2980622 36.132759,15.4996521 33.9427357,14.6814344 Z" id="path0_fill"></path>
                    </g>
                </g>
            </g>
            <g id="#242322ff" transform="translate(0.000000, 75.299745)" fill="#FFFFFF">
                <path d="M11.0038228,1.35895881 C16.0044755,0.0901284593 21.7152448,0.0426949561 26.2385082,2.79380435 C29.2281585,4.38873596 30.7975758,7.80389957 30.9706294,11.058983 C30.1889044,11.2190691 29.4012121,11.3732261 28.6135198,11.5155248 C26.9187879,6.59436036 20.8678788,4.71484315 16.1178555,5.64571401 C13.5041492,5.9421697 11.087366,7.56080591 9.995338,9.96209699 C9.18974359,12.3337425 10.3832168,15.1678589 12.6388811,16.2884614 C15.8135198,17.830031 19.435711,17.9011804 22.7416317,19.0336411 C25.8386946,19.9941575 28.9536597,21.737317 30.4395338,24.7315195 C33.9722145,30.8503649 30.3022844,39.5009419 23.7202797,41.7955089 C17.8841958,44.0426431 10.7173893,44.2027291 5.35272727,40.6749064 C2.10051282,38.7360862 0.435617716,34.9770281 0.149184149,31.3365522 C0.847365967,30.9748763 1.58731935,30.7139953 2.30937063,30.4293978 C3.87878788,33.8979294 6.73118881,37.0522179 10.5920746,37.9119394 C14.3336131,38.9673217 19.0179953,38.7182989 21.7271795,35.6233015 C23.8217249,33.3880256 23.7918881,29.7475497 21.751049,27.4826283 C17.1800466,24.553646 11.3200932,25.1406283 6.68344988,22.3420866 C2.40484848,19.9882284 0.632540793,14.4800817 2.02293706,9.95023877 C3.1030303,5.69907604 6.76102564,2.3846955 11.0038228,1.35895881 Z" id="path1_fill"></path>
                <path d="M141.975571,3.25023346 C145.782751,-0.00485001481 151.762051,0.178952513 155.718415,3.11979295 C155.443916,3.58226383 154.888951,4.51313469 154.614452,4.97560557 C152.818275,4.6020714 150.807273,3.96172711 149.154312,5.12383342 C146.570443,6.80176076 146.850909,10.2762214 146.844942,12.96211 C149.052867,12.9680391 151.26676,12.9502518 153.480653,13.0095429 C153.444848,14.4977505 153.432914,15.9918871 153.492587,17.4800947 C151.284662,17.5393858 149.076737,17.5215985 146.868811,17.5275276 C146.862844,25.8045705 146.892681,34.0875424 146.856876,42.3645853 C144.332681,42.3645853 141.808485,42.3586562 139.284289,42.3527271 C139.302191,34.0756842 139.272354,25.7986414 139.302191,17.5275276 C137.762611,17.5275276 136.217063,17.5334567 134.677484,17.5156694 C134.701353,16.0037454 134.707317,14.4977505 134.683448,12.9858264 C136.217063,12.9739682 137.756643,12.9798973 139.302191,12.9739682 C139.194779,9.62401893 139.176876,5.62780809 141.975571,3.25023346 Z" id="path2_fill"></path>
                <path d="M158.88717,1.30526891 C161.942461,-0.414172315 165.970409,3.11364446 164.741132,6.33315325 C164.204069,8.85898537 161.029442,10.1100284 158.797647,8.94792208 C155.599139,7.74431198 155.634955,2.44958965 158.88717,1.30526891 Z" id="path3_fill"></path>
                <path d="M247.747252,1.87478904 C250.265481,1.87478904 252.789676,1.87478649 255.307905,1.86292828 C255.29597,15.3575905 255.284035,28.8463244 255.313872,42.3350583 C252.801611,42.3765621 250.283383,42.3647039 247.771122,42.3409874 C247.759187,41.3567545 247.765154,40.3784507 247.771122,39.400147 C245.3066,41.7006431 242.137928,43.5386684 238.647019,43.3726532 C234.70259,43.4082279 230.931215,41.1966685 228.90231,37.8704356 C225.471075,32.1251243 225.620271,24.6485119 228.556215,18.7371854 C230.591087,14.545302 235.162077,11.7171147 239.870329,11.9898539 C243.086739,12.0610033 245.772054,14.0709729 247.741285,16.4366893 C247.765154,11.5807451 247.771122,6.72480679 247.747252,1.87478904 Z M236.456996,19.5554031 C234.004408,22.9053524 233.938767,27.3699751 234.58921,31.3009775 C235.138208,34.3959749 236.850842,37.7933571 240.16273,38.617504 C243.074805,39.4297925 245.837695,37.6925622 247.783056,35.6885217 C247.723383,31.0400965 247.794991,26.3857422 247.759187,21.7313879 C247.920306,20.2550385 246.696996,19.1996563 245.748185,18.2628563 C243.098674,15.8141323 238.450096,16.6975703 236.456996,19.5554031 Z" id="path4_fill"></path>
                <path d="M111.721026,16.7742871 C115.056783,12.3393105 121.710396,10.4360763 126.621538,13.3947041 C129.700699,14.8947699 130.691282,18.5708145 130.768858,21.7191739 C130.798695,28.5910168 130.744988,35.4628597 130.78676,42.3347026 C128.244662,42.3702772 125.702564,42.3465608 123.160466,42.3643481 C123.226107,35.6940951 123.190303,29.0238421 123.184336,22.3535891 C123.178368,20.2072499 122.175851,17.711087 119.878415,17.1418921 C116.745548,16.0272187 113.851375,18.1735638 111.721026,20.2191081 C111.685221,27.5889966 111.691189,34.9648141 111.715058,42.3406317 C109.178934,42.3643481 106.642803,42.3406317 104.106671,42.3762063 C104.166345,32.5694521 104.160377,22.768627 104.106671,12.9618728 C106.636836,12.9737311 109.17296,12.9618728 111.709091,12.9618728 C111.709091,14.2307032 111.697156,15.5054567 111.721026,16.7742871 Z" id="path5_fill"></path>
                <path d="M213.882331,16.413038 C216.37669,13.1460963 220.625455,11.3258525 224.719068,12.1559314 C224.754872,14.3497005 224.754872,16.5434726 224.772774,18.7372447 C223.066107,18.2569865 221.395245,17.4861958 219.587133,17.5099122 C217.522424,17.4565502 215.648671,18.4822928 213.894266,19.4487384 C213.888298,27.0854369 213.947972,34.7339937 213.864429,42.3706923 C211.352174,42.3647632 208.839913,42.3706923 206.327652,42.3410467 C206.333619,32.5580089 206.345554,22.7690421 206.327652,12.9800752 C208.851847,12.9504296 211.382005,12.968217 213.912168,12.9563588 C213.900233,14.1066068 213.888298,15.2568608 213.882331,16.413038 Z" id="path6_fill"></path>
                <path d="M78.3336131,16.6973865 C81.5977622,12.256479 88.2573427,10.4955394 93.1028438,13.3889469 C96.1939394,14.853438 97.1487179,18.5650632 97.2203263,21.6956353 C97.2083916,28.5793364 97.2382284,35.4630375 97.1964569,42.3467387 C94.6782284,42.3763842 92.1659674,42.3585969 89.6537063,42.3704551 C89.6895105,35.8840046 89.6537063,29.3975541 89.6775758,22.9111036 C89.7730536,21.1738733 89.1047086,19.5552252 88.311049,18.0551594 C86.2105361,16.7507544 83.4834499,16.3653679 81.3232634,17.7646388 C79.9686713,18.7370075 77.8621911,19.7034531 78.1426573,21.6897062 C78.2918415,28.55562 78.1247552,35.4215337 78.2560373,42.2815184 C75.6960373,42.4119589 73.130064,42.3585969 70.5700667,42.364526 C70.6297403,32.5637009 70.6118408,22.7628758 70.5820039,12.9620507 C73.0763636,12.979838 75.57669,12.9679798 78.071049,12.9442634 C78.202331,14.1893773 78.1903963,15.4463434 78.3336131,16.6973865 Z" id="path7_fill"></path>
                <path d="M180.453207,12.6835246 C185.101785,11.2546082 190.418708,11.9779599 194.410876,14.7587145 C202.067006,20.2549792 202.281831,32.6053826 195.974325,39.1866989 C189.487799,45.3766937 177.033906,44.8311559 172.218253,36.8564979 C169.723897,32.3503714 169.151021,26.8125791 170.756243,21.909202 C172.152606,17.4623904 175.929943,13.8930639 180.453207,12.6835246 Z M183.478661,16.7686722 C181.133486,17.5157405 179.468591,19.6798552 178.812181,21.9803514 C177.654512,26.0595816 177.74999,30.5242043 179.241831,34.5144979 C180.494978,37.9355966 184.940666,40.1293687 188.204815,37.959313 C191.868778,35.403865 192.417775,30.5124054 192.214885,26.4213169 C191.904582,23.6405625 191.576377,20.5336476 189.487799,18.4465995 C187.995957,16.8398334 185.603043,16.0868241 183.478661,16.7686722 Z" id="path8_fill"></path>
                <path d="M37.069279,12.96223 C39.5934732,12.9681591 42.117669,12.9503769 44.6478322,12.9859515 C44.6597669,19.656198 44.5941259,26.3264511 44.6717016,33.0026332 C44.7254079,35.2616255 45.7935664,37.8348609 48.1745455,38.4929926 C50.889697,39.5246584 53.7003263,37.994947 55.5084382,36.014623 C56.2722611,35.4513572 56.075338,34.4196914 56.1648485,33.6074028 C56.1588811,26.7296308 56.1827506,19.8459297 56.140979,12.96223 C58.6651748,12.9740882 61.1893706,12.9563002 63.7075991,12.9800166 C63.7075991,22.7689828 63.6777622,32.5579497 63.7195338,42.3469165 C61.1893706,42.3765621 58.6651748,42.3647039 56.1350117,42.370633 C56.1529138,41.2381722 56.1588811,40.1116406 56.1648485,38.985109 C54.4820513,40.704552 52.6262005,42.4714279 50.1676457,42.945757 C46.390303,43.8588405 41.7476923,43.4497317 39.0206061,40.4021672 C37.6779487,38.6530786 37.0931477,36.3881572 37.0871804,34.2121724 C37.0871804,27.1328105 37.1349202,20.0475196 37.069279,12.96223 Z" id="path9_fill"></path>
                <path d="M157.061078,12.9797129 C159.573333,12.93228 162.091562,12.9619249 164.603823,12.9974996 C164.585921,23.2311572 164.585921,33.4707367 164.597855,43.7043871 C164.532214,46.1649694 164.096597,48.9397946 162.079627,50.5999465 C159.471888,53.4340629 155.378281,53.6534401 151.803832,54.2167059 C151.779962,53.4814958 151.762056,52.7403566 151.744154,52.0051464 C153.027139,51.5486047 154.417535,51.198787 155.437955,50.2501288 C156.76271,48.7915668 157.001405,46.7163769 157.061078,44.842777 C157.055111,34.2237342 157.037209,23.6046914 157.061078,12.9797129 Z" id="path10_fill"></path>
                <path d="M132.929581,58.6519795 C133.574057,57.898982 134.236434,57.1578428 134.886877,56.4107752 C135.137507,56.6479396 135.638766,57.1281972 135.895362,57.3712909 C135.149441,58.1420757 134.415455,58.9187955 133.675502,59.6955094 C135.746178,62.9268705 136.020677,67.3499894 133.950001,70.6406475 C131.390001,74.4115639 125.619558,74.5835082 122.146533,71.9984146 C121.311102,72.6387589 120.744202,74.3819183 119.473155,73.7119285 C119.162853,72.5201766 120.642757,71.9272652 121.221591,71.0734729 C118.888349,67.5100755 118.91222,62.3517465 121.782524,59.096663 C124.784109,56.2506884 129.563987,56.6835137 132.929581,58.6519795 Z M123.942704,60.7745963 C122.492634,63.2055388 122.755199,66.1641666 123.214686,68.838197 C125.870187,66.2234578 128.239232,63.3419085 130.906644,60.7390216 C129.325292,58.4029507 125.500211,58.4385254 123.942704,60.7745963 Z M123.781585,70.0714526 C125.4107,72.1407133 128.895642,72.437169 130.66795,70.4153412 C132.398486,67.9429008 132.213497,64.6937464 131.557087,61.8952047 C128.96725,64.622597 126.526598,67.4922881 123.781585,70.0714526 Z" id="path11_fill"></path>
                <path d="M3.87878788,57.3950718 C7.26228438,57.40693 10.6457809,57.3891426 14.02331,57.3950718 C14.0054079,58.1243535 13.9875058,58.8536227 13.9755711,59.5888328 C11.7199068,59.547329 9.46424242,59.5473409 7.21454545,59.5651282 C7.21454545,61.0236902 7.21454545,62.4822463 7.22648019,63.9467374 C9.18377622,63.9170918 11.1410723,63.92895 13.0983683,63.9230209 C13.0983683,64.4625703 13.0924009,65.541669 13.0924009,66.0812183 C11.1410723,66.0871474 9.18974359,66.0871474 7.24438228,66.0575019 C7.19664336,68.5180841 7.23841492,70.9786663 7.08923077,73.4333194 C6.02107226,73.409603 4.95291375,73.3977447 3.88475536,73.3977447 C3.90265746,68.0615423 3.89668998,62.7253459 3.87878788,57.3950718 Z" id="path12_fill"></path>
                <path d="M24.6728742,57.6082882 C27.7937828,56.452111 31.8515916,57.0272338 34.0058107,59.7190539 C36.195834,62.7310437 36.3271161,67.0533558 34.5011021,70.2669355 C31.5890275,75.2296037 22.7871925,74.8204949 20.7165166,69.3064191 C19.0754909,65.2568343 20.1436458,59.2862286 24.6728742,57.6082882 Z M26.4809622,59.4048109 C23.2108755,60.7566488 23.234739,65.0967483 23.8314756,68.0257305 C24.1596807,70.4270216 26.8270695,72.3480544 29.184179,71.3638216 C31.3025939,70.7353355 32.102221,68.36369 32.2454378,66.3892951 C32.4005893,64.1006572 32.0723841,61.4562902 30.1986312,59.8969333 C29.1603096,59.0905738 27.6983049,59.0490641 26.4809622,59.4048109 Z" id="path13_fill"></path>
                <path d="M43.0590232,57.3768942 C44.1331469,57.3709651 45.2132401,57.3768942 46.2933333,57.3768942 C46.2754312,61.9778862 46.3112354,66.5729197 46.2694639,71.173912 C48.7101166,71.1857703 51.1567366,71.1798412 53.5973893,71.1679829 C53.5914219,71.7312487 53.5675524,72.8519105 53.5615851,73.4092472 C50.0587413,73.397389 46.5618648,73.3795424 43.0649873,73.4210462 C42.9933789,68.0729855 42.9993495,62.7249545 43.0590232,57.3768942 Z" id="path14_fill"></path>
                <path d="M69.4840093,58.1595369 C70.4268531,56.9144212 72.1215851,57.5132576 73.4523077,57.3768877 C71.2205128,59.7959664 68.9171096,62.1616769 66.6196737,64.5214464 C69.2095105,67.4563577 71.79338,70.4090564 74.3474126,73.3795424 C72.9987879,73.3914006 71.6561305,73.4151171 70.3134732,73.4269753 C67.9265268,70.8833855 65.7902098,68.1322767 63.3734266,65.6242615 C63.3734266,68.2212134 63.3793939,70.8181652 63.3913287,73.4151171 C62.287366,73.4032588 61.1893706,73.3973297 60.0854094,73.4032588 C60.0973441,68.0611273 60.121211,62.7249367 60.0734721,57.3828046 C61.1774359,57.3946628 62.287366,57.4065376 63.3913287,57.4183959 C63.3734266,59.7603976 63.3793939,62.1023798 63.4092308,64.4443679 C65.3844289,62.3039697 67.4491375,60.2406559 69.4840093,58.1595369 Z" id="path15_fill"></path>
                <path d="M80.4520323,57.4245104 C83.8534325,57.3830066 87.2607925,57.3770898 90.6621911,57.4185936 C90.6502564,58.1360161 90.644289,58.853427 90.644289,59.5767789 C88.3468531,59.5530625 86.0494232,59.5530684 83.7519873,59.5589975 C83.74602,61.0175595 83.7519814,62.4820447 83.7579487,63.9465595 C85.768951,63.9050557 87.7859207,63.8931975 89.7969231,63.9762051 C89.7611189,64.6758405 89.7432168,65.381405 89.7312821,66.0928987 C87.7441492,66.0869696 85.7570163,66.0869696 83.7698834,66.0691822 C83.7519814,67.7708379 83.7519814,69.4784227 83.7400466,71.1800783 C86.3597203,71.1800783 88.9793939,71.1682201 91.5931002,71.1860074 C91.5871329,71.7433441 91.5811655,72.8580175 91.5751981,73.4212833 C87.8634965,73.3797795 84.1577622,73.3975669 80.4460591,73.4094251 C80.4699286,68.0850809 80.4639671,62.7547839 80.4520323,57.4245104 Z" id="path16_fill"></path>
                <path d="M98.5731178,57.3831404 C99.6651442,57.3831404 100.757166,57.3950095 101.849194,57.4127969 C101.837259,59.5828503 101.831298,61.7588351 101.819363,63.9348198 C104.116799,63.9170325 106.414247,63.9170325 108.711683,63.9229616 C108.735552,61.7410537 108.723618,59.565063 108.723618,57.3890753 C109.815646,57.3831462 110.907674,57.3772236 111.999702,57.3772236 C112.047441,62.7312157 112.011636,68.0851995 112.017604,73.4391893 C110.919608,73.4095437 109.821613,73.3976855 108.723618,73.3858272 C108.74152,70.9489615 108.735552,68.5180248 108.71765,66.081159 C106.420214,66.0870882 104.128728,66.0870882 101.831292,66.0633717 C101.831292,68.5120957 101.8492,70.9608197 101.807429,73.4154728 C100.733303,73.3976855 99.6532095,73.3976855 98.5790819,73.4095437 C98.531343,68.0674122 98.5552157,62.7252747 98.5731178,57.3831404 Z" id="path17_fill"></path>
                <path d="M143.79113,60.9937897 C146.022925,57.3711023 151.274219,55.9125332 155.00979,58.0410851 C156.209231,58.6814294 156.734359,60.021415 157.390769,61.1242302 C155.684103,61.6459922 154.956084,59.4107104 153.344895,59.339561 C150.414918,58.5984218 147.061247,60.4245947 146.333228,63.3832344 C145.503764,66.3240748 146.768846,70.136495 149.80028,71.2926722 C151.304056,71.9330165 152.897343,71.4112545 154.424988,71.1563026 C154.44289,69.9349051 154.46676,68.7194368 154.484662,67.4980394 C153.476177,67.4743229 152.47366,67.4565356 151.471142,67.4328191 C151.465175,66.8754824 151.45324,65.7548799 151.45324,65.1975432 C153.535851,65.2212597 155.624429,65.2212597 157.713007,65.2094014 C157.677203,67.5454723 157.701072,69.875614 157.701072,72.2116848 C154.180326,73.6228139 149.931562,74.6011177 146.446608,72.5615025 C142.496213,70.3321558 141.45789,64.7232141 143.79113,60.9937897 Z" id="path18_fill"></path>
                <path d="M167.521871,57.7800914 C169.735764,56.8195756 172.379301,56.7247175 174.593193,57.7504518 C175.929883,58.3492923 176.425175,59.837488 177.021911,61.0529563 C176.657902,61.1181766 176.29986,61.1952728 175.947786,61.2723513 C174.408205,58.3789438 169.07338,57.9579648 168.017156,61.4324255 C168.208112,61.8118888 168.58405,62.5648803 168.775006,62.9443436 C171.138089,64.0116019 174.103869,63.7862955 176.049231,65.6895411 C178.042331,67.8951714 176.968205,71.624584 174.39627,72.875627 C172.039161,73.9903004 169.127086,74.0495915 166.769977,72.9112017 C165.236364,72.0870549 164.597851,70.426903 164.209972,68.8438296 C164.478504,68.8497587 165.009604,68.861617 165.278135,68.8734752 C166.758042,72.2767865 172.558322,73.0119966 173.99049,69.1877182 C172.987972,65.8021942 168.590029,67.0769537 166.364202,65.0788424 C163.845973,63.2289588 164.836556,58.9718433 167.521871,57.7800914 Z" id="path19_fill"></path>
                <path d="M184.003961,57.3772236 C185.09599,57.3890818 186.188018,57.4068612 187.286014,57.4246486 C187.280046,59.772576 187.256177,62.120517 187.303916,64.4743692 C189.541678,62.1501625 191.773479,59.8200149 193.975437,57.4661567 C195.115204,57.4187238 196.260938,57.3890818 197.406672,57.3772236 C195.097302,59.7310841 192.8118,62.114576 190.514365,64.4802983 C193.086299,67.4507843 195.694038,70.3856957 198.206299,73.4095437 C196.827838,73.2968905 195.347931,73.6526374 194.041078,73.1723791 C191.636229,70.7473716 189.535711,68.0318375 187.268112,65.4823185 C187.268112,68.1267033 187.297942,70.7651589 187.244236,73.4095437 C186.158175,73.4036146 185.078082,73.4095437 183.997987,73.427331 C183.986053,68.0792704 183.974124,62.7312157 184.003961,57.3772236 Z" id="path20_fill"></path>
                <path d="M204.734341,57.3950102 C205.820402,57.383152 206.906462,57.3772236 207.99849,57.3772236 C208.02236,61.1125676 207.914953,64.8538325 208.040268,68.5891742 C208.064137,70.3026881 209.609673,71.6367387 211.292494,71.6663842 C212.670956,71.4825817 213.846527,70.6999387 214.92662,69.8757919 C214.884848,65.7076249 214.890816,61.5453929 214.920653,57.3772236 C216.006713,57.3772236 217.092774,57.3772113 218.178834,57.3831404 C218.196737,62.7134165 218.160932,68.0436957 218.196737,73.3798981 C217.110676,73.3917563 216.024615,73.4036146 214.944522,73.4214019 C214.938555,72.9648602 214.914685,72.0517766 214.902751,71.5952349 C212.39049,74.5775791 206.244079,74.6131538 205.044638,70.4153412 C204.352423,66.1226628 204.89546,61.7291895 204.734341,57.3950102 Z" id="path21_fill"></path>
                <path d="M226.38396,57.3772236 C227.470023,57.3772236 228.556084,57.3772229 229.648112,57.3950102 C229.701818,61.9900705 229.660047,66.5851337 229.671981,71.186126 C232.124575,71.1742678 234.571189,71.1742678 237.029744,71.1979842 C237.035711,71.9213361 237.047646,72.6506171 237.065548,73.3798981 C233.50303,73.4332601 229.94648,73.3621108 226.389933,73.427331 C226.389933,68.0792704 226.389927,62.7252866 226.38396,57.3772236 Z" id="path22_fill"></path>
                <path d="M243.516457,57.4067569 C246.923821,57.3830404 250.331181,57.3711814 253.738547,57.4245435 C253.70871,58.1360398 253.684841,58.8534567 253.666939,59.5708794 C251.363536,59.547163 249.060144,59.547163 246.762708,59.5708794 C246.768676,61.0235123 246.76867,62.4820921 246.798507,63.9406304 C248.773705,63.922843 250.754864,63.922843 252.73603,63.9109848 C252.747965,64.6343367 252.765867,65.3517595 252.789736,66.0810405 C250.784701,66.0869696 248.785646,66.0869696 246.786578,66.0691822 C246.774643,67.7708379 246.774643,69.4724935 246.762708,71.1800783 C249.376415,71.1860074 251.990109,71.1682201 254.603815,71.1800783 C254.591881,71.737415 254.573979,72.8520884 254.562044,73.4094251 C250.892114,73.3975669 247.222208,73.3679213 243.552278,73.4390707 C243.486637,68.0969391 243.51049,62.7488904 243.516457,57.4067569 Z" id="path23_fill"></path>
            </g>
        </g>
    </g>
</svg>