<?xml version="1.0" encoding="UTF-8"?>
<svg width="256px" height="256px" viewBox="0 0 256 256" version="1.1" xmlns="http://www.w3.org/2000/svg" xmlns:xlink="http://www.w3.org/1999/xlink">
    <!-- Generator: Sketch 51.3 (57544) - http://www.bohemiancoding.com/sketch -->
    <title>logo/uisi</title>
    <desc>Created with Sketch.</desc>
    <defs></defs>
    <g id="logo/uisi" stroke="none" stroke-width="1" fill="none" fill-rule="evenodd">
        <g id="uisi" transform="translate(0.000000, 1.000000)" fill-rule="nonzero">
            <g id="#eb8723ff" fill="#EB8723">
                <path d="M111.801851,0 L144.179929,0 C179.874164,4.37899642 213.090391,24.8537634 233.215089,54.605448 C249.039715,77.6202151 256.838149,105.960789 255.107189,133.818853 C253.740641,158.72724 244.803416,183.171326 229.689395,203.036129 C211.92427,226.742796 185.613665,243.903728 156.706619,250.485878 C128.56484,257.022509 98.191032,253.735986 72.2083986,241.04509 C48.7675445,229.756201 28.9890391,211.047599 16.3621352,188.324158 C2.08626335,162.969677 -2.80597865,132.626237 2.27758007,104.021649 C7.06049822,76.4913262 21.3454804,50.7453763 42.09879,32.0367742 C61.3033452,14.5481004 85.9923132,3.12265233 111.801851,0 Z M114.124982,4.82508961 C79.2597865,8.38473118 46.562847,28.0219355 26.8754448,56.9633692 C10.8048399,80.2421505 3.36170819,109.292832 6.31345196,137.424014 C8.91900356,164.999857 21.5276868,191.474122 41.2241993,210.956559 C60.0370107,229.947384 85.3454804,242.337849 111.883843,245.624373 C136.618363,248.756129 162.355018,244.349821 184.392883,232.578423 C209.482705,219.459642 229.698505,197.246022 240.312028,170.999355 C250.442705,146.282151 251.964128,118.187384 244.703203,92.4960573 C237.424057,66.3404301 220.925267,42.9250896 198.878292,27.1024373 C174.699502,9.48630824 143.833737,1.44752688 114.124982,4.82508961 Z" id="Shape"></path>
                <path d="M86.5480427,193.913978 C89.9553025,193.913978 93.353452,193.913978 96.7516014,193.923082 C96.7516014,196.108029 96.7607117,198.292975 96.7698221,200.487025 C96.3507473,200.751039 95.5217082,201.269964 95.1026335,201.533978 C95.1846263,208.170753 95.1026335,214.798423 95.1664057,221.435197 C95.5854804,221.826667 96.4327402,222.600502 96.8518149,222.991971 C97.5168683,223.046595 98.8378648,223.164946 99.4938078,223.21957 C100.167972,222.063369 101.033452,220.907168 100.924128,219.496057 C100.9879,213.523871 100.9879,207.551685 100.851246,201.588602 C98.1363701,200.01362 99.6486833,196.444875 99.2842705,193.913978 C102.69153,193.913978 106.09879,193.913978 109.50605,193.923082 C109.50605,196.199068 109.51516,198.484158 109.52427,200.760143 C109.068754,200.842079 108.148612,200.996846 107.683986,201.069677 C107.711317,208.780717 107.656655,216.482652 107.720427,224.193692 C105.880142,226.087312 104.012527,227.962724 102.135801,229.819928 C99.4118149,229.810824 96.6787189,229.810824 93.9456228,229.819928 C92.0142349,227.898996 90.0919573,225.968961 88.17879,224.029821 C88.1879004,216.437133 88.17879,208.835341 88.1879004,201.242652 C87.7779359,201.106093 86.9488968,200.823871 86.5389324,200.687312 C86.5480427,198.429534 86.5480427,196.171756 86.5480427,193.913978 Z" id="Shape"></path>
                <path d="M115.281993,194.214409 C117.987758,194.196201 120.684413,194.187097 123.381068,194.177993 C123.381068,196.044301 123.381068,197.901505 123.390178,199.776918 C120.693523,199.767814 118.005979,199.767814 115.309324,199.776918 C115.300214,197.919713 115.291103,196.062509 115.281993,194.214409 Z" id="Shape"></path>
                <path d="M128.993025,199.66767 C130.942633,197.746738 132.892242,195.825806 134.805409,193.868459 C137.465623,193.832043 140.134947,193.959498 142.767829,194.396487 C142.977367,194.278136 143.414662,194.03233 143.624199,193.913978 C145.683132,193.913978 147.742064,193.913978 149.800996,193.913978 C149.810107,197.555556 149.810107,201.197133 149.800996,204.83871 C147.568968,204.83871 145.33694,204.83871 143.104911,204.83871 C143.059359,204.228746 142.959146,202.990609 142.904484,202.371541 C142.49452,202.007384 141.674591,201.279068 141.264626,200.91491 C140.016512,200.91491 138.768399,200.924014 137.520285,200.933118 C137.064769,201.315484 136.144626,202.071111 135.68911,202.453477 C135.980641,204.410824 135.014947,207.542581 137.511174,208.316416 C139.6521,208.616846 141.829466,208.498495 143.988612,208.507599 C145.865338,210.364803 147.90605,212.085448 149.509466,214.206667 C150.156299,217.438566 149.728114,220.779713 149.800996,224.066237 C147.887829,225.996272 145.965552,227.917204 144.034164,229.838136 C139.014377,229.747097 133.994591,229.719785 128.974804,229.838136 C128.965694,226.296703 128.965694,222.755269 128.974804,219.213835 C131.051957,219.213835 133.12911,219.232043 135.206263,219.250251 C135.980641,220.579427 136.718577,221.945018 137.37452,223.337921 C139.242135,222.846308 142.139217,223.574624 142.950036,221.253118 C143.505765,219.104588 142.822491,216.974265 141.629039,215.198996 C139.333238,215.235412 137.028327,215.25362 134.732527,215.262724 C132.810249,213.341792 130.887972,211.42086 128.965694,209.499928 C128.965694,206.222509 128.965694,202.94509 128.993025,199.66767 Z" id="Shape"></path>
                <path d="M154.483701,193.913978 C157.86363,193.913978 161.243559,193.913978 164.632598,193.923082 C164.632598,196.026093 164.623488,198.138208 164.559715,200.241219 C162.655658,201.452043 163.111174,203.80086 163.029181,205.721792 C163.138505,210.601505 163.010961,215.490323 163.056512,220.37914 C162.883416,221.762939 163.411815,222.973763 164.587046,223.756703 C164.623488,225.777778 164.623488,227.798853 164.605267,229.819928 C161.225338,229.810824 157.845409,229.810824 154.46548,229.810824 C154.46548,227.780645 154.483701,225.741362 154.556584,223.720287 C154.902776,223.26509 155.59516,222.372903 155.941352,221.917706 C156.314875,215.135269 155.895801,208.316416 156.105338,201.515771 C155.695374,201.251756 154.875445,200.723728 154.46548,200.459713 C154.474591,198.274767 154.474591,196.098925 154.483701,193.913978 Z" id="Shape"></path>
                <path d="M114.042989,203.036129 C117.504911,203.008817 120.975943,203.008817 124.437865,203.027025 C124.282989,205.020789 124.538078,207.296774 122.843559,208.762509 C122.570249,213.906237 122.779786,219.059068 122.697794,224.2119 C123.116868,224.485018 123.955018,225.022151 124.374093,225.295269 C124.328541,226.797419 124.2921,228.308674 124.264769,229.819928 C120.88484,229.810824 117.504911,229.810824 114.124982,229.810824 C114.152313,228.390609 114.188754,226.970394 114.252527,225.550179 C115.291103,224.657993 115.77395,223.547312 115.701068,222.22724 C115.77395,217.684373 115.737509,213.150609 115.600854,208.616846 C113.541922,207.442437 114.288968,204.947957 114.042989,203.036129 Z" id="Shape"></path>
            </g>
            <g id="#444648ff" transform="translate(5.466192, 3.641577)" fill="#444648">
                <path d="M108.65879,1.18351254 C138.367544,-2.19405018 169.23331,5.84473118 193.4121,23.4608602 C215.459075,39.2835125 231.957865,62.698853 239.237011,88.8544803 C246.497936,114.545806 244.976512,142.640573 234.845836,167.357778 C224.232313,193.604444 204.016512,215.818065 178.92669,228.936846 C156.888826,240.708244 131.152171,245.114552 106.417651,241.982796 C79.8792883,238.696272 54.5708185,226.305806 35.7580071,207.314982 C16.0614947,187.832545 3.45281139,161.35828 0.847259786,133.782437 C-2.10448399,105.651254 5.33864769,76.6005735 21.4092527,53.3217921 C41.0966548,24.3803584 73.7935943,4.74315412 108.65879,1.18351254 Z M113.414377,10.5150538 C112.876868,14.757491 112.339359,18.9999283 111.79274,23.2423656 C113.113737,22.7962724 114.434733,22.3501792 115.76484,21.904086 C116.967402,22.3137634 118.179075,22.6870251 119.408968,23.0329749 C118.306619,18.6266667 117.104057,14.2385663 115.837722,9.86867384 C115.227331,10.0325448 114.015658,10.3511828 113.414377,10.5150538 Z M118.388612,9.58645161 C119.308754,13.8835125 120.265338,18.1623656 121.240142,22.4503226 C121.777651,22.4503226 122.852669,22.4503226 123.390178,22.4503226 C124.30121,18.1441577 125.348897,13.8562007 126.150605,9.52272401 C122.369822,9.44078853 123.299075,14.0200717 122.32427,16.4690323 C121.285694,14.0018638 122.178505,9.38616487 118.388612,9.58645161 Z M128.601281,9.98702509 C127.562705,14.1657348 126.405694,18.3171326 125.257794,22.4685305 C125.667758,22.4867384 126.487687,22.5322581 126.906762,22.5595699 C128.874591,21.2212903 130.787758,22.7598566 132.773808,23.1058065 C132.27274,18.7541219 131.644128,14.4297491 131.088399,10.0871685 C130.468897,10.0598566 129.220783,10.0143369 128.601281,9.98702509 Z M103.748327,11.3799283 C103.82121,11.9261649 103.976085,13.0277419 104.048968,13.5739785 C104.632028,13.5193548 105.798149,13.4192115 106.3721,13.3645878 C106.909609,16.7603584 107.410676,20.165233 107.838861,23.5792115 C108.431032,23.5154839 109.615374,23.3880287 110.207544,23.3243011 C109.697367,19.9285305 109.23274,16.5236559 108.640569,13.1369892 C109.21452,13.0004301 110.35331,12.7182079 110.92726,12.5816487 C110.836157,12.0445161 110.65395,10.9793548 110.562847,10.4422222 C108.285267,10.7335484 106.016797,11.0339785 103.748327,11.3799283 Z M136.454377,10.2055197 C135.67089,14.4570609 135.042278,18.7450179 134.368114,23.023871 C134.932954,23.1240143 136.053523,23.3151971 136.618363,23.4153405 C136.964555,21.2941219 137.310747,19.1729032 137.702491,17.0607885 C138.759288,19.6463082 138.267331,23.815914 141.683701,24.5260215 C142.458078,20.2380645 143.114021,15.9410036 143.724413,11.6257348 C143.159573,11.589319 142.029893,11.5073835 141.465053,11.4709677 C141.137082,13.5284588 140.818221,15.5859498 140.462918,17.6434409 C139.37879,15.0397133 139.825196,11.0066667 136.454377,10.2055197 Z M95.8679004,12.9093907 C95.3759431,13.6923297 94.8839858,14.4752688 94.3920285,15.2582079 C94.6380071,16.4053047 94.8839858,17.5524014 95.1299644,18.6994982 C95.9498932,19.1911111 96.7698221,19.691828 97.5897509,20.1834409 C98.3914591,20.0195699 99.9948754,19.691828 100.787473,19.527957 C100.915018,20.5111828 100.951459,21.5035125 100.887687,22.4867384 C99.0109609,22.4503226 97.1706762,21.904086 95.2757295,22.0406452 C96.3051957,23.2150538 97.3802135,24.3439427 98.4916726,25.4364158 C100.577936,24.9630108 102.645979,24.2529032 103.793879,22.2955556 C103.484128,21.0574194 103.165267,19.8192832 102.855516,18.5902509 C102.11758,18.1623656 101.370534,17.7435842 100.623488,17.3156989 C99.812669,17.3612186 98.1819217,17.4522581 97.3711032,17.4977778 C97.0977936,16.7421505 96.9064769,15.9683154 96.8062633,15.1762724 C98.7285409,14.5389964 100.778363,15.2308961 102.655089,15.6769892 C101.962705,14.1930466 100.833025,13.0368459 99.6031317,11.9989964 C98.3550178,12.2994265 97.1160142,12.6089606 95.8679004,12.9093907 Z M145.91089,14.1111111 C145.136512,16.9151254 144.416797,19.7373477 143.697082,22.5504659 C144.189039,23.3607168 144.680996,24.1709677 145.182064,24.9812186 C146.339075,25.2816487 147.505196,25.5729749 148.671317,25.8643011 C149.482135,25.4 150.292954,24.9356989 151.103772,24.4713978 C151.449964,23.0056631 151.814377,21.5399283 152.197011,20.0832975 C150.894235,19.7828674 149.591459,19.4733333 148.288683,19.1637993 C148.152028,19.691828 147.887829,20.7569892 147.751174,21.2850179 C148.279573,21.4944086 149.33637,21.9313978 149.864769,22.1498925 C148.798861,23.1695341 147.477865,23.4153405 146.138648,22.8508961 C146.685267,20.3382079 147.304769,17.8528315 147.951601,15.3674552 C148.452669,15.403871 149.454804,15.4858065 149.955872,15.5313262 C150.566263,16.9970609 151.741495,17.8619355 153.381352,17.9802867 C152.980498,16.505448 152.534093,15.0579211 152.069466,13.6103943 C150.803132,13.3190681 149.536797,13.018638 148.279573,12.7182079 C147.486975,13.182509 146.703488,13.64681 145.91089,14.1111111 Z M85.1268327,16.1048746 C86.4296085,20.0832975 87.8234875,24.0344086 89.1718149,27.9946237 C89.7275445,27.8398566 90.8481139,27.5303226 91.4038434,27.3755556 C90.0099644,23.342509 88.5887544,19.3185663 87.2768683,15.2582079 C86.7393594,15.4675986 85.6643416,15.8954839 85.1268327,16.1048746 Z M152.060356,26.8748387 C154.483701,27.7124014 156.907046,28.5590681 159.321281,29.4421505 C159.467046,28.88681 159.776797,27.785233 159.931673,27.2298925 C158.291815,26.6472401 156.661068,26.0645878 155.03032,25.4819355 C155.349181,24.5806452 155.677153,23.6793548 156.005125,22.7780645 C156.797722,23.0420789 157.59032,23.2969892 158.382918,23.5610036 C158.556014,23.023871 158.902206,21.9405018 159.066192,21.4033692 C158.483132,21.1939785 157.29879,20.7569892 156.71573,20.5384946 C157.080142,19.6645161 157.444555,18.7814337 157.808968,17.9074552 C159.476157,18.4810036 161.152456,19.045448 162.828754,19.6098925 C162.99274,19.0727599 163.302491,18.0075986 163.457367,17.4704659 C161.088683,16.6146953 158.71089,15.7680287 156.342206,14.921362 C154.939217,18.9088889 153.536228,22.9055197 152.060356,26.8748387 Z M72.4452669,21.5399283 C72.7003559,22.0406452 73.2105338,23.0329749 73.4656228,23.5336918 C73.984911,23.3151971 75.0234875,22.8964158 75.5427758,22.6870251 C76.9366548,25.7368459 78.3396441,28.7866667 79.7335231,31.8364875 C80.2892527,31.7181362 81.3824911,31.4814337 81.9382206,31.3630824 C80.5990036,28.0674552 79.0684698,24.8628674 77.5743772,21.6400717 C78.1118861,21.4033692 79.1777936,20.9117563 79.7061922,20.6750538 C79.4602135,20.165233 78.9500356,19.1546953 78.6949466,18.6448746 C76.6086833,19.6098925 74.5224199,20.5749104 72.4452669,21.5399283 Z M160.478292,29.9792832 C161.015801,30.1704659 162.090819,30.5528315 162.637438,30.7531183 C163.393594,28.9687455 164.240854,27.1843728 165.707616,25.873405 C165.580071,27.8944803 165.306762,29.9064516 164.9879,31.909319 C165.680285,32.2825806 166.372669,32.6558423 167.074164,33.0382079 C167.402135,31.1901075 167.730107,29.3511111 168.030747,27.5030108 C168.823345,27.1661649 169.615943,26.8202151 170.408541,26.4742652 C170.900498,25.4455197 171.392456,24.4076703 171.893523,23.3789247 C171.565552,22.5049462 171.23758,21.6309677 170.909609,20.7660932 C169.215089,19.9831541 167.511459,19.2002151 165.807829,18.4263799 C164.031317,22.2773477 162.245694,26.1192115 160.478292,29.9792832 Z M63.4624911,26.2557706 C65.5578648,29.9246595 67.6532384,33.5844444 69.7486121,37.2533333 C71.9441993,36.0060932 74.1306762,34.758853 76.3262633,33.5207168 C76.0620641,33.02 75.5336655,32.0094624 75.2694662,31.5087455 C73.7116014,32.382724 72.1446263,33.2475986 70.5867616,34.1124731 C70.1130249,33.2658065 69.6483986,32.4191398 69.1928826,31.5815771 C69.7030605,31.2902509 70.7325267,30.7075986 71.2518149,30.4162724 C70.9147331,29.7607885 70.5776512,29.1053047 70.2405694,28.4498208 C69.6848399,28.732043 68.5916014,29.2964875 68.0358719,29.5787097 C67.6805694,28.9596416 66.9517438,27.7215054 66.5964413,27.1024373 C68.1269751,26.2193548 69.6757295,25.3453763 71.2153737,24.4713978 C70.9056228,23.9888889 70.286121,23.023871 69.9763701,22.541362 C67.8081139,23.7886022 65.6398577,25.0267384 63.4624911,26.2557706 Z M174.098221,24.5533333 C173.487829,25.5820789 172.877438,26.6108244 172.276157,27.6395699 C172.513025,28.4771326 172.740783,29.3055914 172.968541,30.1431541 C173.879573,30.8623656 174.799715,31.5815771 175.710747,32.3189964 C175.328114,32.856129 174.571957,33.9212903 174.189324,34.4584229 C172.6679,33.2567025 171.756868,31.5178495 170.608968,29.9883871 C170.417651,30.7075986 170.025907,32.1369176 169.834591,32.8470251 C169.81637,35.0592832 172.130391,35.714767 173.633594,36.7617204 C174.271317,36.5432258 175.555872,36.1153405 176.193594,35.8968459 C176.785765,34.8863082 177.387046,33.8939785 177.988327,32.8925448 C177.842562,32.2552688 177.541922,30.9989247 177.387046,30.3616487 C176.430463,29.7334767 175.482989,29.0962007 174.526406,28.4589247 C175.000142,27.5212186 175.674306,26.6199283 176.721993,26.2921864 C177.733238,27.0751254 178.161423,28.1402867 177.997438,29.4785663 C178.808256,29.5058781 179.673737,29.6970609 180.439004,29.2782796 C180.357011,28.1311828 180.247687,26.984086 180.111032,25.8460932 C179.008683,25.1997133 177.897224,24.5624373 176.794875,23.9342652 C176.120712,24.0890323 174.772384,24.3985663 174.098221,24.5533333 Z M55.9373665,31.754552 C56.092242,32.2825806 56.3928826,33.3477419 56.547758,33.8757706 C57.3130249,33.3841577 58.0691815,32.9016487 58.8344484,32.4100358 C60.8022776,35.2504659 62.7609964,38.0908961 64.7561566,40.9040143 C65.2390036,40.5944803 66.1864769,39.9663082 66.6693238,39.6567742 C64.7014947,36.834552 62.7336655,34.0123297 60.7749466,31.1901075 C61.212242,30.7804301 62.0777224,29.9610753 62.5150178,29.5513978 C62.1961566,29.1417204 61.5493238,28.3314695 61.2213523,27.9217921 C59.4448399,29.1781362 57.5863345,30.3343369 55.9373665,31.754552 Z M187.198861,30.5892473 C184.739075,33.9941219 182.270178,37.3898925 179.75573,40.7492473 C180.238577,41.0860932 181.18605,41.750681 181.659786,42.0875269 C184.146904,38.6735484 186.652242,35.2686738 189.14847,31.8637993 C188.656512,31.5451613 187.681708,30.9078853 187.198861,30.5892473 Z M96.7424911,34.9500358 C79.8792883,39.8570609 64.5466192,49.8076703 53.1860498,63.1904659 C39.3019217,79.377276 31.430605,100.625878 31.631032,121.96552 C31.5217082,144.279283 40.3222776,166.374552 55.408968,182.779857 C57.3676868,182.761649 59.3172954,182.761649 61.2669039,182.752545 C61.2760142,168.404731 61.2486833,154.066022 61.2851246,139.718208 C59.1533096,139.080932 56.9850534,138.134122 54.7165836,138.416344 C53.0311744,138.625735 52.8398577,140.492043 52.138363,141.702867 C50.1705338,139.071828 47.8109609,136.358853 47.674306,132.908459 C47.2916726,129.430753 49.5692527,126.553907 51.6099644,124.013907 C52.4663345,125.270251 52.6940925,127.682796 54.7074733,127.564444 C59.135089,127.482509 63.1891815,125.488746 67.4345907,124.469104 C68.3182918,114.746093 69.0562278,105.023082 69.9399288,95.3091756 C66.587331,93.3791398 63.2620641,91.4126882 60.1463345,89.1184946 C60.7111744,85.6589964 61.3124555,82.2086022 61.922847,78.7582079 C70.0219217,81.9718996 79.332669,82.6455914 87.4044128,78.9584946 C88.2516726,82.1994982 88.4794306,85.558853 87.9874733,88.8726882 C85.7645552,91.2579211 83.2136655,93.342724 80.2072598,94.6810036 C81.3642705,104.813692 82.1022064,115.028315 84.2431317,125.015341 C88.406548,126.044086 92.2511032,128.229032 96.5329537,128.729749 C98.6009964,129.23957 98.6009964,126.390036 99.3389324,125.188315 C101.862491,127.773835 104.10363,131.060358 103.857651,134.838495 C103.748327,138.043082 101.479858,140.501147 99.5211388,142.804444 C98.8469751,141.657348 99.129395,139.408674 97.4895374,139.108244 C95.1664057,139.035412 92.9070463,139.681792 90.6476868,140.127885 C90.6567972,154.33914 90.6476868,168.550394 90.6476868,182.761649 C96.2687544,182.761649 101.880712,182.761649 107.501779,182.761649 C107.492669,155.959642 107.52,129.14853 107.483559,102.337419 C105.424626,101.800287 103.356584,101.017348 101.197438,101.062867 C99.4482562,101.29957 99.2842705,103.211398 98.6101068,104.495054 C96.341637,101.672832 93.6905338,98.5410753 94.036726,94.6536918 C94.0002847,91.5492473 96.1685409,89.1458065 97.8448399,86.7605735 C98.8014235,87.9805018 99.0838434,90.4021505 101.060783,90.329319 C105.51573,90.2018638 109.578932,88.1807885 113.842562,87.152043 C114.544057,77.4290323 115.47331,67.7242294 116.229466,58.0103226 C112.895089,56.1075986 109.597153,54.141147 106.481423,51.8924731 C107.046263,48.414767 107.638434,44.9461649 108.221495,41.4775627 C116.311459,44.6821505 125.658648,45.3831541 133.721281,41.7051613 C134.176797,44.1905376 134.905623,46.6941219 134.559431,49.2523297 C134.422776,53.5493907 129.831174,55.5886738 126.56968,57.3912545 C127.635587,67.5421505 128.464626,77.7476703 130.56,87.7437993 C134.796299,88.7816487 138.686406,91.0849462 143.06847,91.4855197 C145.07274,91.8496774 144.881423,89.0183513 145.573808,87.8530466 C148.115587,90.4112545 150.447829,93.6522581 150.119858,97.4577061 C150.19274,100.744229 147.824057,103.284229 145.774235,105.560215 C145.446263,104.212832 145.291388,102.437563 143.870178,101.745663 C141.583488,101.836703 139.351459,102.382939 137.11032,102.810824 C137.11032,129.458065 137.119431,156.105305 137.11032,182.752545 C142.649395,182.761649 148.18847,182.761649 153.736655,182.761649 C153.709324,168.650538 153.782206,154.530323 153.700214,140.419211 C151.468185,139.854767 149.181495,138.998996 146.840142,139.363154 C145.674021,140.04595 145.455374,141.538996 144.799431,142.613262 C142.640285,139.754624 140.089395,136.650179 140.298932,132.835627 C140.390036,129.703871 142.49452,127.236703 144.198149,124.796846 C144.963416,126.016774 145.282278,127.719211 146.657936,128.456631 C151.367972,128.602294 155.658932,126.390036 160.14121,125.333978 C160.888256,115.610968 161.781068,105.906165 162.564555,96.1922581 C159.239288,94.2622222 155.950463,92.2866667 152.807402,90.0835125 C153.372242,86.5967025 153.946192,83.1189964 154.556584,79.6412903 C162.673879,82.8549821 171.993737,83.5377778 180.074591,79.8597849 C180.91274,83.1554122 181.19516,86.5511828 180.602989,89.9105376 C178.35274,92.2138351 175.801851,94.2258065 172.850107,95.564086 C174.007117,105.678566 174.808826,115.865878 176.840427,125.862007 C181.441139,127.136559 185.75032,129.458065 190.5879,129.785806 C191.043416,128.520358 191.508043,127.273118 192,126.025878 C194.459786,128.63871 196.792028,131.861505 196.527829,135.648746 C196.445836,138.880645 194.195587,141.384229 192.182206,143.687527 C191.635587,142.449391 191.754021,140.64681 190.332811,139.982222 C187.964128,139.936703 185.650107,140.546667 183.345196,140.974552 C183.354306,154.921792 183.336085,168.869032 183.354306,182.816272 C185.477011,182.506738 188.273879,183.544588 189.813523,181.614552 C199.734662,170.362079 206.913594,156.669749 210.257082,142.039713 C214.848683,122.202222 212.543772,100.789749 203.570107,82.4908244 C194.660214,63.8914695 179.127117,48.5877419 160.43274,39.8843728 C140.754448,30.5346237 117.632456,28.8230824 96.7424911,34.9500358 Z M47.6105338,38.1546237 C50.3345196,41.3865233 53.0585053,44.609319 55.7551601,47.8685305 C57.7776512,46.1751971 59.8001423,44.4818638 61.8135231,42.7703226 C59.7272598,40.1756989 57.8596441,43.3893907 56.092242,44.6002151 C55.4545196,43.8810036 54.8167972,43.1526882 54.1790747,42.4334767 C54.6619217,42.0237993 55.609395,41.1953405 56.092242,40.7856631 C55.7187189,40.3577778 54.9898932,39.5020072 54.6254804,39.0741219 C54.1244128,39.4564875 53.1313879,40.2303226 52.6303203,40.6217921 C52.0381495,39.8661649 51.455089,39.1105376 50.8629181,38.3640143 C52.2203559,37.2442294 53.5869039,36.1244444 54.953452,35.0046595 C54.5617082,34.5767742 53.7782206,33.7301075 53.3864769,33.3022222 C51.4641993,34.922724 49.5419217,36.5432258 47.6105338,38.1546237 Z M182.926121,43.0616487 C184.365552,44.2542652 185.777651,45.4741935 187.16242,46.7305376 C188.57452,46.4665233 190.250819,46.5848746 191.070747,45.1555556 C192.974804,42.6519713 196.300071,40.4488172 195.398149,36.8891756 C193.940498,35.7420789 192.501068,34.5676703 191.070747,33.3841577 C188.364982,36.6160573 185.677438,39.8570609 182.926121,43.0616487 Z M40.9053381,44.6821505 C41.2606406,45.1009319 41.9803559,45.9293907 42.3356584,46.3390681 C42.9278292,45.8110394 43.52,45.2830108 44.1212811,44.7549821 C46.562847,47.2312545 49.0226335,49.6711111 51.4641993,52.1473835 C51.8741637,51.74681 52.6940925,50.9365591 53.1040569,50.5359857 C50.6260498,48.0870251 48.1753737,45.6198566 45.6882562,43.1708961 C46.2257651,42.5882437 46.7541637,42.0055914 47.2825623,41.4229391 C46.8725979,41.0587814 46.0435587,40.3304659 45.6335943,39.9663082 C44.0575089,41.5412903 42.4814235,43.1071685 40.9053381,44.6821505 Z M198.960285,40.1483871 C195.953879,43.1526882 192.947473,46.1478853 189.950178,49.1612903 C190.332811,49.5527599 191.098078,50.326595 191.480712,50.7180645 C192.965694,49.2978495 194.487117,47.8958423 196.172527,46.7123297 C195.471032,48.7789247 194.478007,50.7180645 193.439431,52.6298925 C193.840285,53.0395699 194.632883,53.8589247 195.033737,54.2686022 C195.99032,52.6116846 196.937794,50.954767 197.912598,49.3069534 C198.55032,49.3160573 199.843986,49.3251613 200.481708,49.3342652 C201.265196,48.5513262 202.048683,47.777491 202.841281,46.994552 C202.841281,46.0204301 202.841281,45.0372043 202.841281,44.0630824 C201.538505,42.7612186 200.24484,41.4593548 198.960285,40.1483871 Z M37.716726,48.2782079 C40.9144484,51.0549104 44.0939502,53.8589247 47.2370107,56.6902509 C47.728968,56.1075986 48.2300356,55.5249462 48.7219929,54.9422939 C45.6062633,52.0927599 42.3994306,49.3342652 39.2290391,46.5393548 C38.855516,46.9763441 38.0993594,47.8412186 37.716726,48.2782079 Z M196.26363,55.4612186 C197.857936,57.4458781 199.470463,59.4032258 201.11032,61.3605735 C201.538505,60.9873118 202.394875,60.2407885 202.82306,59.8766308 C201.711601,58.5474552 200.600142,57.2273835 199.488683,55.8982079 C199.998861,55.4430108 201.000996,54.5235125 201.511174,54.0683154 C202.331103,54.7420072 203.160142,55.406595 203.989181,56.0620789 C204.80911,54.769319 204.544911,53.4856631 203.706762,52.2930466 C204.390036,51.7650179 205.07331,51.2369892 205.756584,50.7089606 C206.849822,52.0381362 207.94306,53.3764158 209.027189,54.7237993 C209.500925,54.3869534 210.448399,53.7132616 210.922135,53.3764158 C209.291388,51.4099642 207.678861,49.4344086 206.093665,47.4497491 C202.80484,50.1172043 199.570676,52.8301792 196.26363,55.4612186 Z M34.928968,51.5374194 C34.1637011,52.6025806 33.4075445,53.6677419 32.6422776,54.7329032 C32.7151601,55.3701792 32.8609253,56.6356272 32.9338078,57.2729032 C33.8721708,58.0103226 34.8014235,58.7477419 35.7397865,59.4851613 C36.3866192,59.4032258 37.6985053,59.2484588 38.3453381,59.1756272 C39.1834875,58.3289606 40.021637,57.4822939 40.9417794,56.7357706 C41.3699644,57.1272401 42.2263345,57.9192832 42.6545196,58.3107527 C42.2718861,59.9767742 40.5955872,60.0405018 39.2472598,60.4228674 C39.0103915,60.8234409 38.5275445,61.6154839 38.2815658,62.0160573 C39.6298932,62.225448 41.0602135,62.8536201 42.4176512,62.2982796 C43.3651246,61.4789247 44.1395018,60.4683871 44.9594306,59.530681 C44.8592171,58.8296774 44.6496797,57.4276703 44.5403559,56.7357706 C43.4835587,55.9073118 42.4176512,55.078853 41.3699644,54.2503943 C39.5479004,54.9422939 37.9900356,56.1075986 36.3592883,57.1363441 C35.9948754,56.7448746 35.2660498,55.9528315 34.901637,55.561362 C35.9128826,53.6768459 38.6095374,53.977276 39.4841281,51.9015771 C37.9718149,51.7286022 36.4503915,51.6193548 34.928968,51.5374194 Z M210.512171,56.6447312 C210.913025,57.3275269 211.322989,58.0103226 211.732954,58.7022222 C208.890534,60.5867384 206.093665,62.55319 203.251246,64.455914 C203.533665,64.9566308 204.089395,65.9489606 204.371815,66.4496774 C207.259786,64.5105376 210.120427,62.544086 212.999288,60.6049462 C213.372811,61.0783513 214.110747,62.0069534 214.48427,62.4712545 C214.921566,62.1253047 215.796157,61.433405 216.233452,61.0874552 C214.948897,59.2302509 213.655231,57.3821505 212.361566,55.5249462 C211.89694,55.8071685 210.976797,56.362509 210.512171,56.6447312 Z M25.8641993,64.8109677 C29.4718861,67.0323297 33.0158007,69.3265233 36.6052669,71.5660932 C36.9150178,71.1108961 37.5345196,70.2005018 37.8442705,69.7453047 C36.1588612,68.6255197 34.4096797,67.5148387 33.1160142,65.9125448 C35.1840569,66.2949104 37.2156584,66.8229391 39.2290391,67.4237993 C39.5570107,66.9321864 40.2220641,65.9398566 40.5500356,65.4482437 C38.7006406,64.8837993 36.8421352,64.3193548 35.0018505,63.7275986 C34.928968,63.1540502 34.7740925,61.9887455 34.70121,61.4151971 C33.5988612,60.6959857 32.5056228,59.9858781 31.403274,59.2757706 C28.5153025,59.8857348 27.2945196,62.5622939 25.8641993,64.8109677 Z M215.705053,64.4194982 C215.978363,64.9202151 216.524982,65.9125448 216.807402,66.4041577 C213.773665,68.106595 210.749039,69.7999283 207.706192,71.4841577 C208.116157,72.1396416 208.517011,72.8042294 208.926975,73.4688172 C211.933381,71.7390681 214.976228,70.0821505 217.991744,68.3706093 C218.228612,68.8895341 218.711459,69.9364875 218.948327,70.4554122 C219.467616,70.164086 220.515302,69.5723297 221.034591,69.2810036 C219.914021,67.2872401 218.784342,65.2934767 217.663772,63.2997133 C217.171815,63.5819355 216.197011,64.1463799 215.705053,64.4194982 Z M24.6707473,67.0050179 C23.5046263,69.2627957 22.3020641,71.5023656 21.1268327,73.7601434 C24.9440569,75.5991398 28.6519573,77.6384229 32.4418505,79.541147 C33.5533096,77.2833692 34.7194306,75.0437993 35.9128826,72.8224373 C35.4209253,72.5402151 34.41879,71.9666667 33.9268327,71.6844444 C33.1251246,73.2685305 32.3051957,74.8435125 31.4761566,76.4093907 C30.6106762,75.9906093 29.7451957,75.5809319 28.8797153,75.1803584 C29.2350178,74.3883154 29.5903203,73.6053763 29.9456228,72.8224373 C29.29879,72.5311111 28.6610676,72.2397849 28.0142349,71.9484588 C27.6953737,72.4673835 27.0576512,73.496129 26.73879,74.0059498 C26.1101779,73.6782079 24.8347331,73.022724 24.1970107,72.6949821 C25.0169395,71.1473118 25.8459786,69.6087455 26.6841281,68.0701792 C26.1830605,67.8061649 25.1718149,67.2690323 24.6707473,67.0050179 Z M216.852954,74.2517563 C216.4521,76.045233 216.506762,77.8660215 217.180925,79.5957706 C216.552313,79.9508244 215.285979,80.6700358 214.657367,81.0250896 C214.201851,79.1405735 215.131103,77.0284588 214.046975,75.3169176 C212.598434,75.9177778 212.060925,77.4199283 211.322989,78.6580645 C211.869609,79.8233692 212.407117,80.9795699 212.962847,82.1448746 C213.810107,82.4726165 214.666477,82.8003584 215.522847,83.1281004 C216.561423,82.6729032 217.60911,82.22681 218.665907,81.7898208 C219.039431,80.9067384 219.412954,80.0236559 219.786477,79.1496774 C219.340071,78.1391398 218.893665,77.1286022 218.44726,76.1180645 C219.695374,75.4898925 221.061922,75.2622939 222.036726,76.4913262 C221.244128,77.9297491 221.116584,79.4592115 221.927402,80.9431541 C222.865765,79.7505376 223.795018,78.5397133 224.687829,77.3015771 C224.14121,76.1180645 223.594591,74.934552 223.047972,73.7510394 C222.182491,73.3777778 221.326121,73.0136201 220.469751,72.6403584 C219.267189,73.177491 218.055516,73.7146237 216.852954,74.2517563 Z M19.796726,76.1180645 C18.2388612,79.5684588 22.8942349,80.4424373 24.8711744,82.2905376 C22.6027046,81.9627957 20.3342349,81.6441577 18.0748754,81.2982079 C17.8471174,81.8535484 17.4007117,82.9551254 17.1729537,83.5104659 C21.5641281,84.1568459 25.9461922,84.8396416 30.3100356,85.6225806 C30.3555872,85.0763441 30.4466904,83.9929749 30.4831317,83.4467384 C27.0576512,80.8156989 23.3588612,78.5579211 19.796726,76.1180645 Z M214.274733,85.2402151 C214.894235,87.161147 215.513737,89.0820789 216.124128,91.0121147 C216.670747,90.802724 217.763986,90.3839427 218.310605,90.174552 C217.918861,88.9910394 217.536228,87.8166308 217.153594,86.6422222 C220.415089,85.567957 223.676584,84.457276 226.919858,83.3283871 C226.774093,82.7730466 226.473452,81.6714695 226.318577,81.116129 C222.300925,82.4999283 218.274164,83.8291039 214.274733,85.2402151 Z M16.4441281,85.9503226 C16.1617082,86.6695341 15.8792883,87.3978495 15.5968683,88.1261649 C19.5962989,89.2732616 23.4681851,90.8937634 27.5496085,91.7404301 C27.8775801,91.2943369 28.5153025,90.4112545 28.8341637,89.9651613 C24.7345196,88.5540502 20.5619929,87.3341219 16.4441281,85.9503226 Z M14.7678292,90.3111111 C14.6676157,90.8846595 14.4671886,92.0135484 14.3669751,92.5779928 C16.4623488,93.0878136 18.5668327,93.5885305 20.6713167,94.1165591 C17.9837722,94.92681 13.8567972,94.1165591 12.8364413,97.4941219 C17.0271886,98.6230108 21.2543772,99.5698208 25.4542349,100.65319 C25.5817794,100.088746 25.827758,98.9780645 25.9553025,98.4136201 C23.9054804,97.8855914 21.8647687,97.3393548 19.8240569,96.8113262 C22.3931673,95.891828 26.538363,96.8204301 27.4858363,93.4792832 C23.267758,92.3412903 19.0223488,91.2943369 14.7678292,90.3111111 Z M216.215231,92.4505376 C216.944057,93.4519713 217.672883,94.453405 218.374377,95.4821505 C218.337936,96.8932616 218.301495,98.2952688 218.274164,99.7063799 C222.373808,97.9037993 226.382349,95.9282437 230.427331,94.0073118 C230.135801,93.4792832 229.570961,92.4323297 229.288541,91.913405 C224.924698,91.6129749 220.560854,92.2502509 216.215231,92.4505376 Z M220.752171,100.971828 C220.369537,101.499857 219.60427,102.574122 219.221637,103.102151 C219.340071,104.294767 219.467616,105.47828 219.59516,106.670896 C220.415089,107.28086 221.235018,107.890824 222.064057,108.500789 C223.494377,108.22767 224.924698,107.954552 226.355018,107.690538 C226.181922,106.370466 226.027046,105.059498 225.881281,103.739427 C225.307331,103.821362 224.15032,103.985233 223.57637,104.067168 C223.612811,104.649821 223.667473,105.806022 223.703915,106.388674 C222.683559,105.560215 220.424199,104.977563 221.918292,103.402581 C224.387189,102.519498 227.029181,102.328315 229.607402,102.027885 C229.297651,104.012545 228.869466,105.960789 228.432171,107.918136 C229.935374,107.235341 231.24726,106.233907 232.322278,104.986667 C232.085409,103.739427 231.857651,102.50129 231.639004,101.25405 C231.101495,100.853477 230.035587,100.05233 229.498078,99.6426523 C226.573665,100.034122 223.667473,100.516631 220.752171,100.971828 Z M12.7453381,100.407384 C12.6633452,100.990036 12.4993594,102.164444 12.4264769,102.747097 C15.7244128,103.174982 19.05879,103.4481 22.2838434,104.312975 C22.9033452,105.323513 22.7120285,106.197491 21.7190036,106.93491 C18.4210676,106.661792 15.1504626,106.060932 11.8798577,105.532903 C11.834306,106.124659 11.7340925,107.299068 11.6794306,107.88172 C15.2324555,108.418853 18.8037011,108.855842 22.329395,109.547742 C24.3063345,108.391541 24.9076157,106.306738 25.0807117,104.158208 C24.634306,103.602867 23.750605,102.50129 23.3133096,101.94595 C19.7876157,101.445233 16.271032,100.889892 12.7453381,100.407384 Z M81.0818505,190.272401 C81.0818505,192.530179 81.0818505,194.787957 81.0727402,197.045735 C81.4827046,197.182294 82.3117438,197.464516 82.7217082,197.601075 C82.7125979,205.193763 82.7217082,212.795556 82.7125979,220.388244 C84.6257651,222.327384 86.5480427,224.257419 88.4794306,226.178351 C91.2125267,226.169247 93.9456228,226.169247 96.6696085,226.178351 C98.5463345,224.321147 100.41395,222.445735 102.254235,220.552115 C102.190463,212.841075 102.245125,205.13914 102.217794,197.4281 C102.68242,197.355269 103.602562,197.200502 104.058078,197.118566 C104.048968,194.842581 104.039858,192.557491 104.039858,190.281505 C100.632598,190.272401 97.2253381,190.272401 93.8180783,190.272401 C94.1824911,192.803297 92.6701779,196.372043 95.3850534,197.947025 C95.5217082,203.910108 95.5217082,209.882294 95.4579359,215.85448 C95.5672598,217.265591 94.7017794,218.421792 94.0276157,219.577993 C93.3716726,219.523369 92.0506762,219.405018 91.3856228,219.350394 C90.966548,218.958925 90.1192883,218.18509 89.7002135,217.79362 C89.6364413,211.156846 89.7184342,204.529176 89.6364413,197.892401 C90.055516,197.628387 90.8845552,197.109462 91.3036299,196.845448 C91.2945196,194.651398 91.2854093,192.466452 91.2854093,190.281505 C87.8872598,190.272401 84.4891103,190.272401 81.0818505,190.272401 Z M109.815801,190.572832 C109.824911,192.420932 109.834021,194.278136 109.843132,196.135341 C112.539786,196.126237 115.227331,196.126237 117.923986,196.135341 C117.914875,194.259928 117.914875,192.402724 117.914875,190.536416 C115.218221,190.54552 112.521566,190.554624 109.815801,190.572832 Z M123.526833,196.026093 C123.499502,199.303513 123.499502,202.580932 123.499502,205.858351 C125.421779,207.779283 127.344057,209.700215 129.266335,211.621147 C131.562135,211.612043 133.867046,211.593835 136.162847,211.557419 C137.356299,213.332688 138.039573,215.463011 137.483843,217.611541 C136.673025,219.933047 133.775943,219.204731 131.908327,219.696344 C131.252384,218.303441 130.514448,216.937849 129.740071,215.608674 C127.662918,215.590466 125.585765,215.572258 123.508612,215.572258 C123.499502,219.113692 123.499502,222.655125 123.508612,226.196559 C128.528399,226.078208 133.548185,226.10552 138.567972,226.196559 C140.499359,224.275627 142.421637,222.354695 144.334804,220.424659 C144.261922,217.138136 144.690107,213.796989 144.043274,210.56509 C142.439858,208.443871 140.399146,206.723226 138.52242,204.866022 C136.363274,204.856918 134.185907,204.975269 132.044982,204.674839 C129.548754,203.901004 130.514448,200.769247 130.222918,198.8119 C130.678434,198.429534 131.598577,197.673907 132.054093,197.291541 C133.302206,197.282437 134.55032,197.273333 135.798434,197.273333 C136.208399,197.637491 137.028327,198.365806 137.438292,198.729964 C137.492954,199.349032 137.593167,200.587168 137.638719,201.197133 C139.870747,201.197133 142.102776,201.197133 144.334804,201.197133 C144.343915,197.555556 144.343915,193.913978 144.334804,190.272401 C142.275872,190.272401 140.21694,190.272401 138.158007,190.272401 C137.94847,190.390753 137.511174,190.636559 137.301637,190.75491 C134.668754,190.317921 131.999431,190.190466 129.339217,190.226882 C127.42605,192.184229 125.476441,194.105161 123.526833,196.026093 Z M149.017509,190.272401 C149.008399,192.457348 149.008399,194.63319 148.999288,196.818136 C149.409253,197.082151 150.229181,197.610179 150.639146,197.874194 C150.429609,204.674839 150.848683,211.493692 150.47516,218.276129 C150.128968,218.731326 149.436584,219.623513 149.090391,220.07871 C149.017509,222.099785 148.999288,224.139068 148.999288,226.169247 C152.379217,226.169247 155.759146,226.169247 159.139075,226.178351 C159.157295,224.157276 159.157295,222.136201 159.120854,220.115125 C157.945623,219.332186 157.417224,218.121362 157.59032,216.737563 C157.544769,211.848746 157.672313,206.959928 157.562989,202.080215 C157.644982,200.159283 157.189466,197.810466 159.093523,196.599642 C159.157295,194.496631 159.166406,192.384516 159.166406,190.281505 C155.777367,190.272401 152.397438,190.272401 149.017509,190.272401 Z M108.576797,199.394552 C108.822776,201.30638 108.07573,203.80086 110.134662,204.975269 C110.271317,209.509032 110.307758,214.042796 110.234875,218.585663 C110.307758,219.905735 109.824911,221.016416 108.786335,221.908602 C108.722562,223.328817 108.686121,224.749032 108.65879,226.169247 C112.038719,226.169247 115.418648,226.169247 118.798577,226.178351 C118.825907,224.667097 118.862349,223.155842 118.9079,221.653692 C118.488826,221.380573 117.650676,220.843441 117.231601,220.570323 C117.313594,215.417491 117.104057,210.264659 117.377367,205.120932 C119.071886,203.655197 118.816797,201.379211 118.971673,199.385448 C115.509751,199.36724 112.038719,199.36724 108.576797,199.394552 Z" id="Shape"></path>
                <path d="M114.872028,16.9060215 C116.520996,16.1230824 116.90363,19.9285305 115.263772,20.0377778 C113.960996,19.6736201 114.161423,17.7253763 114.872028,16.9060215 Z" id="Shape"></path>
                <path d="M129.439431,16.0866667 C130.605552,16.7876703 130.596441,19.527957 129.12968,19.9467384 C127.489822,19.3913978 128.173096,16.7057348 129.439431,16.0866667 Z" id="Shape"></path>
                <path d="M166.828185,21.4853047 C167.502349,21.7766308 168.850676,22.3501792 169.52484,22.6324014 C169.133096,23.4790681 168.723132,24.3166308 168.322278,25.1541935 C167.484128,24.8355556 166.645979,24.5260215 165.81694,24.2073835 C166.144911,23.2969892 166.481993,22.3956989 166.828185,21.4853047 Z" id="Shape"></path>
                <path d="M186.123843,42.8431541 C187.973238,40.6946237 189.758861,38.5096774 191.590036,36.352043 C192.027331,37.3170609 193.831174,38.4368459 192.701495,39.5566308 C191.43516,41.3227957 189.950178,42.9159857 188.519858,44.5455914 C187.918577,44.1177061 186.725125,43.2710394 186.123843,42.8431541 Z" id="Shape"></path>
                <path d="M196.892242,45.2921147 C197.721281,44.5820072 198.568541,43.8718996 199.40669,43.1708961 C200.326833,44.7094624 200.900783,46.5484588 198.896512,47.4133333 C198.195018,46.7396416 197.520854,46.038638 196.892242,45.2921147 Z" id="Shape"></path>
                <path d="M28.9525979,63.9916129 C29.5903203,63.2450896 30.2462633,62.4985663 30.9113167,61.7702509 C31.3941637,62.070681 32.368968,62.6897491 32.8609253,62.9901792 C32.4600712,63.8823656 32.0956584,64.7836559 31.7403559,65.7031541 C30.8111032,65.1205018 29.8818505,64.5560573 28.9525979,63.9916129 Z" id="Shape"></path>
                <path d="M220.360427,95.6915412 C219.376512,93.9253763 223.230178,93.0969176 223.740356,94.6445878 C223.339502,95.9282437 221.426335,96.4562724 220.360427,95.6915412 Z" id="Shape"></path>
            </g>
            <g id="#fefefeff" transform="translate(16.398577, 12.745520)" fill="#FEFEFE">
                <path d="M102.481993,1.41111111 C103.083274,1.24724014 104.294947,0.928602151 104.905338,0.764731183 C106.171673,5.13462366 107.374235,9.52272401 108.476584,13.9290323 C107.24669,13.5830824 106.035018,13.2098208 104.832456,12.8001434 C103.502349,13.2462366 102.181352,13.6923297 100.860356,14.1384229 C101.406975,9.89598566 101.944484,5.65354839 102.481993,1.41111111 Z M103.939644,7.80207885 C103.229039,8.62143369 103.028612,10.5696774 104.331388,10.9338351 C105.971246,10.8245878 105.588612,7.01913978 103.939644,7.80207885 Z" id="Shape"></path>
                <path d="M107.456228,0.482508961 C111.246121,0.282222222 110.35331,4.89792115 111.391886,7.36508961 C112.36669,4.91612903 111.437438,0.336845878 115.218221,0.418781362 C114.416512,4.75225806 113.368826,9.04021505 112.457794,13.3463799 C111.920285,13.3463799 110.845267,13.3463799 110.307758,13.3463799 C109.332954,9.05842294 108.37637,4.77956989 107.456228,0.482508961 Z" id="Shape"></path>
                <path d="M117.668897,0.883082437 C118.288399,0.910394265 119.536512,0.955913978 120.156014,0.983225806 C120.711744,5.32580645 121.340356,9.65017921 121.841423,14.0018638 C119.855374,13.655914 117.942206,12.1173477 115.974377,13.4556272 C115.555302,13.4283154 114.735374,13.3827957 114.325409,13.3645878 C115.47331,9.21318996 116.63032,5.06179211 117.668897,0.883082437 Z M118.507046,6.98272401 C117.240712,7.60179211 116.557438,10.2874552 118.197295,10.8427957 C119.664057,10.4240143 119.673167,7.6837276 118.507046,6.98272401 Z" id="Shape"></path>
                <path d="M92.8159431,2.27598566 C95.0844128,1.93003584 97.3528826,1.62960573 99.6304626,1.33827957 C99.7215658,1.87541219 99.9037722,2.94057348 99.9948754,3.47770609 C99.4209253,3.61426523 98.2821352,3.89648746 97.7081851,4.03304659 C98.3003559,7.41971326 98.7649822,10.8245878 99.2751601,14.2203584 C98.6829893,14.284086 97.4986477,14.4115412 96.9064769,14.4752688 C96.4782918,11.0612903 95.9772242,7.65641577 95.4397153,4.26064516 C94.8657651,4.31526882 93.6996441,4.41541219 93.1165836,4.47003584 C93.0437011,3.92379928 92.8888256,2.82222222 92.8159431,2.27598566 Z" id="Shape"></path>
                <path d="M125.521993,1.10157706 C128.892811,1.90272401 128.446406,5.93577061 129.530534,8.53949821 C129.885836,6.48200717 130.204698,4.42451613 130.532669,2.36702509 C131.097509,2.40344086 132.227189,2.48537634 132.792028,2.52179211 C132.181637,6.83706093 131.525694,11.1341219 130.751317,15.4220789 C127.334947,14.7119713 127.826904,10.5423656 126.770107,7.95684588 C126.378363,10.0689606 126.032171,12.1901792 125.685979,14.3113978 C125.121139,14.2112545 124.000569,14.0200717 123.43573,13.9199283 C124.109893,9.64107527 124.738505,5.35311828 125.521993,1.10157706 Z" id="Shape"></path>
                <path d="M84.935516,3.80544803 C86.1836299,3.50501792 87.4226335,3.19548387 88.6707473,2.89505376 C89.9006406,3.93290323 91.0303203,5.08910394 91.7227046,6.57304659 C89.8459786,6.12695341 87.7961566,5.43505376 85.873879,6.07232975 C85.9740925,6.86437276 86.1654093,7.63820789 86.4387189,8.39383513 C87.2495374,8.34831541 88.8802847,8.25727599 89.6911032,8.21175627 C90.4381495,8.63964158 91.1851957,9.05842294 91.9231317,9.48630824 C92.2328826,10.7153405 92.5517438,11.9534767 92.8614947,13.1916129 C91.7135943,15.1489606 89.6455516,15.8590681 87.5592883,16.3324731 C86.4478292,15.24 85.3728114,14.1111111 84.3433452,12.9367025 C86.2382918,12.8001434 88.0785765,13.3463799 89.9553025,13.3827957 C90.0190747,12.3995699 89.9826335,11.4072401 89.855089,10.4240143 C89.0624911,10.5878853 87.4590747,10.9156272 86.6573665,11.0794982 C85.8374377,10.5878853 85.0175089,10.0871685 84.1975801,9.59555556 C83.9516014,8.44845878 83.7056228,7.30136201 83.4596441,6.15426523 C83.9516014,5.37132616 84.4435587,4.5883871 84.935516,3.80544803 Z" id="Shape"></path>
                <path d="M134.978505,5.00716846 C135.771103,4.54286738 136.554591,4.07856631 137.347189,3.61426523 C138.604413,3.91469534 139.870747,4.21512545 141.137082,4.50645161 C141.601708,5.95397849 142.048114,7.40150538 142.448968,8.87634409 C140.80911,8.75799283 139.633879,7.89311828 139.023488,6.42738351 C138.52242,6.3818638 137.520285,6.29992832 137.019217,6.26351254 C136.372384,8.74888889 135.752883,11.2342652 135.206263,13.7469534 C136.54548,14.3113978 137.866477,14.0655914 138.932384,13.0459498 C138.403986,12.8274552 137.347189,12.3904659 136.81879,12.1810753 C136.955445,11.6530466 137.219644,10.5878853 137.356299,10.0598566 C138.659075,10.3693907 139.961851,10.6789247 141.264626,10.9793548 C140.881993,12.4359857 140.51758,13.9017204 140.171388,15.3674552 C139.360569,15.8317563 138.549751,16.2960573 137.738932,16.7603584 C136.572811,16.4690323 135.40669,16.1777061 134.24968,15.877276 C133.748612,15.0670251 133.256655,14.2567742 132.764698,13.4465233 C133.484413,10.633405 134.204128,7.8111828 134.978505,5.00716846 Z" id="Shape"></path>
                <path d="M74.1944484,7.0009319 C74.7319573,6.79154122 75.8069751,6.36365591 76.344484,6.15426523 C77.6563701,10.2146237 79.0775801,14.2385663 80.4714591,18.2716129 C79.9157295,18.4263799 78.7951601,18.735914 78.2394306,18.890681 C76.8911032,14.9304659 75.4972242,10.9793548 74.1944484,7.0009319 Z" id="Shape"></path>
                <path d="M141.127972,17.7708961 C142.603843,13.8015771 144.006833,9.80494624 145.409822,5.81741935 C147.778505,6.66408602 150.156299,7.51075269 152.524982,8.3665233 C152.370107,8.90365591 152.060356,9.9688172 151.89637,10.5059498 C150.220071,9.94150538 148.543772,9.37706093 146.876584,8.80351254 C146.512171,9.67749104 146.147758,10.5605735 145.783345,11.434552 C146.366406,11.6530466 147.550747,12.0900358 148.133808,12.2994265 C147.969822,12.8365591 147.62363,13.9199283 147.450534,14.4570609 C146.657936,14.1930466 145.865338,13.9381362 145.07274,13.6741219 C144.744769,14.5754122 144.416797,15.4767025 144.097936,16.3779928 C145.728683,16.9606452 147.359431,17.5432975 148.999288,18.1259498 C148.844413,18.6812903 148.534662,19.7828674 148.388897,20.3382079 C145.974662,19.4551254 143.551317,18.6084588 141.127972,17.7708961 Z" id="Shape"></path>
                <path d="M61.5128826,12.4359857 C63.5900356,11.4709677 65.6762989,10.5059498 67.7625623,9.5409319 C68.0176512,10.0507527 68.5278292,11.0612903 68.7738078,11.5711111 C68.2454093,11.8078136 67.1795018,12.2994265 66.6419929,12.536129 C68.1360854,15.7589247 69.6666192,18.9635125 71.0058363,22.2591398 C70.4501068,22.377491 69.3568683,22.6141935 68.8011388,22.7325448 C67.4072598,19.682724 66.0042705,16.6329032 64.6103915,13.5830824 C64.0911032,13.7924731 63.0525267,14.2112545 62.5332384,14.4297491 C62.2781495,13.9290323 61.7679715,12.9367025 61.5128826,12.4359857 Z" id="Shape"></path>
                <path d="M149.545907,20.8753405 C151.31331,17.0152688 153.098932,13.173405 154.875445,9.32243728 C156.579075,10.0962724 158.282705,10.8792115 159.977224,11.6621505 C160.305196,12.5270251 160.633167,13.4010036 160.961139,14.2749821 C160.460071,15.3037276 159.968114,16.3415771 159.476157,17.3703226 C158.683559,17.7162724 157.890961,18.0622222 157.098363,18.3990681 C156.797722,20.2471685 156.469751,22.0861649 156.141779,23.9342652 C155.440285,23.5518996 154.7479,23.178638 154.055516,22.8053763 C154.374377,20.802509 154.647687,18.7905376 154.775231,16.7694624 C153.30847,18.0804301 152.46121,19.8648029 151.705053,21.6491756 C151.158434,21.4488889 150.083416,21.0665233 149.545907,20.8753405 Z M155.895801,12.381362 C155.549609,13.2917563 155.212527,14.1930466 154.884555,15.1034409 C155.713594,15.4220789 156.551744,15.7316129 157.389893,16.0502509 C157.790747,15.2126882 158.200712,14.3751254 158.592456,13.5284588 C157.918292,13.2462366 156.569964,12.6726882 155.895801,12.381362 Z" id="Shape"></path>
                <path d="M52.5301068,17.151828 C54.7074733,15.9227957 56.8757295,14.6846595 59.0439858,13.4374194 C59.3537367,13.9199283 59.9732384,14.8849462 60.2829893,15.3674552 C58.7433452,16.2414337 57.1945907,17.1154122 55.6640569,17.9984946 C56.0193594,18.6175627 56.7481851,19.8556989 57.1034875,20.474767 C57.6592171,20.1925448 58.7524555,19.6281004 59.3081851,19.3458781 C59.6452669,20.001362 59.9823488,20.6568459 60.3194306,21.3123297 C59.8001423,21.6036559 58.7706762,22.1863082 58.2604982,22.4776344 C58.7160142,23.3151971 59.1806406,24.1618638 59.6543772,25.0085305 C61.212242,24.1436559 62.7792171,23.2787814 64.3370819,22.4048029 C64.6012811,22.9055197 65.1296797,23.9160573 65.393879,24.4167742 C63.1982918,25.6549104 61.0118149,26.9021505 58.8162278,28.1493907 C56.7208541,24.4805018 54.6254804,20.8207168 52.5301068,17.151828 Z" id="Shape"></path>
                <path d="M163.165836,15.4493907 C163.84,15.2946237 165.188327,14.9850896 165.862491,14.8303226 C166.96484,15.4584946 168.076299,16.0957706 169.178648,16.7421505 C169.315302,17.8801434 169.424626,19.0272401 169.506619,20.1743369 C168.741352,20.5931183 167.875872,20.4019355 167.065053,20.3746237 C167.229039,19.0363441 166.800854,17.9711828 165.789609,17.1882437 C164.741922,17.5159857 164.067758,18.417276 163.594021,19.3549821 C164.550605,19.9922581 165.498078,20.6295341 166.454662,21.2577061 C166.609537,21.8949821 166.910178,23.1513262 167.055943,23.7886022 C166.454662,24.7900358 165.853381,25.7823656 165.26121,26.7929032 C164.623488,27.0113978 163.338932,27.4392832 162.70121,27.6577778 C161.198007,26.6108244 158.883986,25.9553405 158.902206,23.7430824 C159.093523,23.0329749 159.485267,21.6036559 159.676584,20.8844444 C160.824484,22.4139068 161.735516,24.1527599 163.25694,25.3544803 C163.639573,24.8173477 164.39573,23.7521864 164.778363,23.2150538 C163.867331,22.4776344 162.947189,21.7584229 162.036157,21.0392115 C161.808399,20.2016487 161.580641,19.37319 161.343772,18.5356272 C161.945053,17.5068817 162.555445,16.4781362 163.165836,15.4493907 Z" id="Shape"></path>
                <path d="M45.0049822,22.6506093 C46.6539502,21.2303943 48.5124555,20.0741935 50.288968,18.8178495 C50.6169395,19.2275269 51.2637722,20.0377778 51.5826335,20.4474552 C51.1453381,20.8571326 50.2798577,21.6764875 49.8425623,22.0861649 C51.8012811,24.9083871 53.7691103,27.7306093 55.7369395,30.5528315 C55.2540925,30.8623656 54.3066192,31.4905376 53.8237722,31.8000717 C51.8286121,28.9869534 49.8698932,26.1465233 47.9020641,23.3060932 C47.1367972,23.7977061 46.3806406,24.2802151 45.6153737,24.771828 C45.4604982,24.2437993 45.1598577,23.178638 45.0049822,22.6506093 Z" id="Shape"></path>
                <path d="M176.266477,21.4853047 C176.749324,21.8039427 177.724128,22.4412186 178.216085,22.7598566 C175.719858,26.1647312 173.21452,29.5696057 170.727402,32.9835842 C170.253665,32.6467384 169.306192,31.9821505 168.823345,31.6453047 C171.337794,28.2859498 173.80669,24.8901792 176.266477,21.4853047 Z" id="Shape"></path>
                <path d="M36.6781495,29.050681 C38.6095374,27.4392832 40.5318149,25.8187814 42.4540925,24.1982796 C42.8458363,24.6261649 43.6293238,25.4728315 44.0210676,25.9007168 C42.6545196,27.0205018 41.2879715,28.1402867 39.9305338,29.2600717 C40.5227046,30.006595 41.1057651,30.7622222 41.6979359,31.5178495 C42.1990036,31.1263799 43.1920285,30.3525448 43.6930961,29.9701792 C44.0575089,30.3980645 44.7863345,31.2538351 45.1598577,31.6817204 C44.6770107,32.0913978 43.7295374,32.9198566 43.2466904,33.3295341 C43.8844128,34.0487455 44.5221352,34.7770609 45.1598577,35.4962724 C46.9272598,34.285448 48.7948754,31.0717563 50.8811388,33.6663799 C48.867758,35.3779211 46.8452669,37.0712545 44.8227758,38.7645878 C42.126121,35.5053763 39.4021352,32.2825806 36.6781495,29.050681 Z" id="Shape"></path>
                <path d="M171.993737,33.9577061 C174.745053,30.7531183 177.432598,27.5121147 180.138363,24.2802151 C181.568683,25.4637276 183.008114,26.6381362 184.465765,27.785233 C185.367687,31.3448746 182.04242,33.5480287 180.138363,36.0516129 C179.318434,37.4809319 177.642135,37.3625806 176.230036,37.626595 C174.845267,36.3702509 173.433167,35.1503226 171.993737,33.9577061 Z M175.191459,33.7392115 C175.79274,34.1670968 176.986192,35.0137634 177.587473,35.4416487 C179.017794,33.812043 180.502776,32.218853 181.76911,30.4526882 C182.89879,29.3329032 181.094947,28.2131183 180.657651,27.2481004 C178.826477,29.4057348 177.040854,31.590681 175.191459,33.7392115 Z" id="Shape"></path>
                <path d="M29.9729537,35.5782079 C31.5490391,34.0032258 33.1251246,32.4373477 34.70121,30.8623656 C35.1111744,31.2265233 35.9402135,31.9548387 36.3501779,32.3189964 C35.8217794,32.9016487 35.2933808,33.4843011 34.7558719,34.0669534 C37.2429893,36.515914 39.6936655,38.9830824 42.1716726,41.432043 C41.7617082,41.8326165 40.9417794,42.6428674 40.5318149,43.0434409 C38.0902491,40.5671685 35.6304626,38.1273118 33.1888968,35.6510394 C32.5876157,36.1790681 31.9954448,36.7070968 31.403274,37.2351254 C31.0479715,36.825448 30.3282562,35.9969892 29.9729537,35.5782079 Z" id="Shape"></path>
                <path d="M188.0279,31.0444444 C189.312456,32.3554122 190.606121,33.657276 191.908897,34.9591398 C191.908897,35.9332616 191.908897,36.9164875 191.908897,37.8906093 C191.116299,38.6735484 190.332811,39.4473835 189.549324,40.2303226 C188.911601,40.2212186 187.617936,40.2121147 186.980214,40.2030108 C186.005409,41.8508244 185.057936,43.5077419 184.101352,45.1646595 C183.700498,44.7549821 182.9079,43.9356272 182.507046,43.5259498 C183.545623,41.6141219 184.538648,39.6749821 185.240142,37.6083871 C183.554733,38.7918996 182.03331,40.1939068 180.548327,41.6141219 C180.165694,41.2226523 179.400427,40.4488172 179.017794,40.0573477 C182.015089,37.0439427 185.021495,34.0487455 188.0279,31.0444444 Z M185.959858,36.188172 C186.58847,36.9346953 187.262633,37.6356989 187.964128,38.3093907 C189.968399,37.4445161 189.394448,35.6055197 188.474306,34.0669534 C187.636157,34.767957 186.788897,35.4780645 185.959858,36.188172 Z" id="Shape"></path>
                <path d="M26.7843416,39.1742652 C27.1669751,38.737276 27.9231317,37.8724014 28.2966548,37.4354122 C31.4670463,40.2303226 34.673879,42.9888172 37.7896085,45.8383513 C37.2976512,46.4210036 36.7965836,47.0036559 36.3046263,47.5863082 C33.1615658,44.7549821 29.9820641,41.9509677 26.7843416,39.1742652 Z" id="Shape"></path>
                <path d="M185.331246,46.357276 C188.638292,43.7262366 191.872456,41.0132616 195.161281,38.3458065 C196.746477,40.3304659 198.359004,42.3060215 199.989751,44.2724731 C199.516014,44.609319 198.568541,45.2830108 198.094804,45.6198566 C197.010676,44.2724731 195.917438,42.9341935 194.824199,41.6050179 C194.140925,42.1330466 193.457651,42.6610753 192.774377,43.1891039 C193.612527,44.3817204 193.876726,45.6653763 193.056797,46.9581362 C192.227758,46.3026523 191.398719,45.6380645 190.57879,44.9643728 C190.068612,45.4195699 189.066477,46.3390681 188.556299,46.7942652 C189.667758,48.1234409 190.779217,49.4435125 191.890676,50.7726882 C191.462491,51.1368459 190.606121,51.8833692 190.177936,52.2566308 C188.538078,50.2992832 186.925552,48.3419355 185.331246,46.357276 Z" id="Shape"></path>
                <path d="M23.9965836,42.4334767 C25.5180071,42.5154122 27.0394306,42.6246595 28.5517438,42.7976344 C27.677153,44.8733333 24.9804982,44.5729032 23.9692527,46.4574194 C24.3336655,46.8488889 25.0624911,47.6409319 25.4269039,48.0324014 C27.0576512,47.0036559 28.615516,45.8383513 30.4375801,45.1464516 C31.4852669,45.9749104 32.5511744,46.8033692 33.6079715,47.631828 C33.7172954,48.3237276 33.9268327,49.7257348 34.0270463,50.4267384 C33.2071174,51.3644444 32.4327402,52.3749821 31.4852669,53.1943369 C30.1278292,53.7496774 28.6975089,53.1215054 27.3491815,52.9121147 C27.5951601,52.5115412 28.0780071,51.7194982 28.3148754,51.3189247 C29.6632028,50.9365591 31.3395018,50.8728315 31.7221352,49.20681 C31.2939502,48.8153405 30.4375801,48.0232975 30.009395,47.631828 C29.0892527,48.3783513 28.2511032,49.2250179 27.4129537,50.0716846 C26.766121,50.1445161 25.4542349,50.2992832 24.8074021,50.3812186 C23.8690391,49.6437993 22.9397865,48.9063799 22.0014235,48.1689606 C21.9285409,47.5316846 21.7827758,46.2662366 21.7098932,45.6289606 C22.4751601,44.5637993 23.2313167,43.498638 23.9965836,42.4334767 Z" id="Shape"></path>
                <path d="M199.579786,47.5407885 C200.044413,47.2585663 200.964555,46.7032258 201.429181,46.4210036 C202.722847,48.2782079 204.016512,50.1263082 205.301068,51.9835125 C204.863772,52.3294624 203.989181,53.021362 203.551886,53.3673118 C203.178363,52.9030108 202.440427,51.9744086 202.066904,51.5010036 C199.188043,53.4401434 196.327402,55.406595 193.439431,57.3457348 C193.157011,56.8450179 192.601281,55.8526882 192.318861,55.3519713 C195.161281,53.4492473 197.958149,51.4827957 200.800569,49.5982796 C200.390605,48.9063799 199.980641,48.2235842 199.579786,47.5407885 Z" id="Shape"></path>
                <path d="M14.9318149,55.7070251 C16.3621352,53.4583513 17.5829181,50.7817921 20.4708897,50.171828 C21.5732384,50.8819355 22.6664769,51.592043 23.7688256,52.3112545 C23.8417082,52.8848029 23.9965836,54.0501075 24.0694662,54.6236559 C25.9097509,55.2154122 27.7682562,55.7798566 29.6176512,56.3443011 C29.2896797,56.835914 28.6246263,57.8282437 28.2966548,58.3198566 C26.283274,57.7189964 24.2516726,57.1909677 22.1836299,56.8086022 C23.4772954,58.4108961 25.2264769,59.5215771 26.9118861,60.641362 C26.6021352,61.0965591 25.9826335,62.0069534 25.6728826,62.4621505 C22.0834164,60.2225806 18.5395018,57.9283871 14.9318149,55.7070251 Z M18.0202135,54.8876703 C18.9494662,55.4521147 19.8787189,56.0165591 20.8079715,56.5992115 C21.163274,55.6797133 21.5276868,54.7784229 21.9285409,53.8862366 C21.4365836,53.5858065 20.4617794,52.9667384 19.9789324,52.6663082 C19.313879,53.3946237 18.6579359,54.141147 18.0202135,54.8876703 Z" id="Shape"></path>
                <path d="M204.772669,55.3155556 C205.264626,55.0424373 206.239431,54.4779928 206.731388,54.1957706 C207.851957,56.1895341 208.981637,58.1832975 210.102206,60.1770609 C209.582918,60.4683871 208.535231,61.0601434 208.015943,61.3514695 C207.779075,60.8325448 207.296228,59.7855914 207.059359,59.2666667 C204.043843,60.9782079 201.000996,62.6351254 197.994591,64.3648746 C197.584626,63.7002867 197.183772,63.0356989 196.773808,62.3802151 C199.816655,60.6959857 202.841281,59.0026523 205.875018,57.3002151 C205.592598,56.8086022 205.045979,55.8162724 204.772669,55.3155556 Z" id="Shape"></path>
                <path d="M13.738363,57.9010753 C14.2394306,58.1650896 15.2506762,58.7022222 15.7517438,58.9662366 C14.9135943,60.5048029 14.0845552,62.0433692 13.2646263,63.5910394 C13.9023488,63.9187814 15.1777936,64.5742652 15.8064057,64.9020072 C16.1252669,64.3921864 16.7629893,63.3634409 17.0818505,62.8445161 C17.7286833,63.1358423 18.3664057,63.4271685 19.0132384,63.7184946 C18.6579359,64.5014337 18.3026335,65.2843728 17.947331,66.0764158 C18.8128114,66.4769892 19.6782918,66.8866667 20.5437722,67.305448 C21.3728114,65.7395699 22.1927402,64.1645878 22.9944484,62.5805018 C23.4864057,62.862724 24.4885409,63.4362724 24.9804982,63.7184946 C23.7870463,65.9398566 22.6209253,68.1794265 21.5094662,70.4372043 C17.719573,68.5344803 14.0116726,66.4951971 10.1944484,64.6562007 C11.3696797,62.3984229 12.572242,60.158853 13.738363,57.9010753 Z" id="Shape"></path>
                <path d="M205.920569,65.1478136 C207.123132,64.610681 208.334804,64.0735484 209.537367,63.5364158 C210.393737,63.9096774 211.250107,64.2738351 212.115587,64.6470968 C212.662206,65.8306093 213.208826,67.0141219 213.755445,68.1976344 C212.862633,69.4357706 211.933381,70.646595 210.995018,71.8392115 C210.184199,70.3552688 210.311744,68.8258065 211.104342,67.3873835 C210.129537,66.1583513 208.762989,66.3859498 207.514875,67.0141219 C207.961281,68.0246595 208.407687,69.0351971 208.854093,70.0457348 C208.480569,70.9197133 208.107046,71.8027957 207.733523,72.6858781 C206.676726,73.1228674 205.629039,73.5689606 204.590463,74.0241577 C203.734093,73.6964158 202.877722,73.3686738 202.030463,73.0409319 C201.474733,71.8756272 200.937224,70.7194265 200.390605,69.5541219 C201.128541,68.3159857 201.66605,66.8138351 203.114591,66.2129749 C204.198719,67.9245161 203.269466,70.0366308 203.724982,71.921147 C204.353594,71.5660932 205.619929,70.8468817 206.248541,70.491828 C205.574377,68.7620789 205.519715,66.9412903 205.920569,65.1478136 Z" id="Shape"></path>
                <path d="M8.86434164,67.0141219 C12.4264769,69.4539785 16.1252669,71.7117563 19.5507473,74.3427957 C19.514306,74.8890323 19.4232028,75.9724014 19.3776512,76.518638 C15.0138078,75.7356989 10.6317438,75.0529032 6.2405694,74.4065233 C6.4683274,73.8511828 6.9147331,72.7496057 7.1424911,72.1942652 C9.40185053,72.5402151 11.6703203,72.858853 13.93879,73.186595 C11.9618505,71.3384946 7.30647687,70.4645161 8.86434164,67.0141219 Z" id="Shape"></path>
                <path d="M203.342349,76.1362724 C207.341779,74.7251613 211.368541,73.3959857 215.386192,72.0121864 C215.541068,72.5675269 215.841708,73.6691039 215.987473,74.2244444 C212.744199,75.3533333 209.482705,76.4640143 206.22121,77.5382796 C206.603843,78.7126882 206.986477,79.8870968 207.378221,81.0706093 C206.831601,81.28 205.738363,81.6987814 205.191744,81.908172 C204.581352,79.9781362 203.961851,78.0572043 203.342349,76.1362724 Z" id="Shape"></path>
                <path d="M5.51174377,76.8463799 C9.62960854,78.2301792 13.8021352,79.4501075 17.9017794,80.8612186 C17.5829181,81.3073118 16.9451957,82.1903943 16.6172242,82.6364875 C12.5358007,81.7898208 8.66391459,80.169319 4.66448399,79.0222222 C4.94690391,78.2939068 5.22932384,77.5655914 5.51174377,76.8463799 Z" id="Shape"></path>
                <path d="M3.83544484,81.2071685 C8.08996441,82.1903943 12.3353737,83.2373477 16.553452,84.3753405 C15.6059786,87.7164875 11.4607829,86.7878853 8.8916726,87.7073835 C10.9323843,88.2354122 12.9730961,88.7816487 15.0229181,89.3096774 C14.8953737,89.8741219 14.649395,90.9848029 14.5218505,91.5492473 C10.3219929,90.4658781 6.09480427,89.5190681 1.90405694,88.3901792 C2.92441281,85.0126165 7.0513879,85.8228674 9.73893238,85.0126165 C7.6344484,84.4845878 5.52996441,83.983871 3.43459075,83.4740502 C3.53480427,82.9096057 3.73523132,81.7807168 3.83544484,81.2071685 Z" id="Shape"></path>
                <path d="M205.282847,83.346595 C209.62847,83.1463082 213.992313,82.5090323 218.356157,82.8094624 C218.638577,83.3283871 219.203416,84.3753405 219.494947,84.9033692 C215.449964,86.8243011 211.441423,88.7998566 207.341779,90.6024373 C207.36911,89.1913262 207.405552,87.789319 207.441993,86.3782079 C206.740498,85.3494624 206.011673,84.3480287 205.282847,83.346595 Z M209.428043,86.5875986 C210.49395,87.3523297 212.407117,86.8243011 212.807972,85.5406452 C212.297794,83.9929749 208.444128,84.8214337 209.428043,86.5875986 Z" id="Shape"></path>
                <path d="M209.819786,91.8678853 C212.735089,91.4126882 215.641281,90.9301792 218.565694,90.5387097 C219.103203,90.9483871 220.16911,91.7495341 220.706619,92.1501075 C220.925267,93.3973477 221.153025,94.6354839 221.389893,95.882724 C220.314875,97.1299642 219.002989,98.1313978 217.499786,98.8141935 C217.937082,96.8568459 218.365267,94.9086022 218.675018,92.9239427 C216.096797,93.2243728 213.454804,93.4155556 210.985907,94.298638 C209.491815,95.8736201 211.751174,96.4562724 212.77153,97.2847312 C212.735089,96.7020789 212.680427,95.5458781 212.643986,94.9632258 C213.217936,94.8812903 214.374947,94.7174194 214.948897,94.6354839 C215.094662,95.9555556 215.249537,97.2665233 215.422633,98.586595 C213.992313,98.8506093 212.561993,99.1237276 211.131673,99.3968459 C210.302633,98.7868817 209.482705,98.1769176 208.662776,97.5669534 C208.535231,96.3743369 208.407687,95.1908244 208.289253,93.9982079 C208.671886,93.4701792 209.437153,92.395914 209.819786,91.8678853 Z" id="Shape"></path>
                <path d="M1.81295374,91.3034409 C5.33864769,91.7859498 8.85523132,92.3412903 12.3809253,92.8420072 C12.8182206,93.3973477 13.7019217,94.4989247 14.1483274,95.0542652 C13.9752313,97.2027957 13.3739502,99.2875986 11.3970107,100.443799 C7.87131673,99.7518996 4.30007117,99.3149104 0.747046263,98.7777778 C0.801708185,98.1951254 0.901921708,97.0207168 0.94747331,96.4289606 C4.21807829,96.9569892 7.48868327,97.5578495 10.7866192,97.8309677 C11.7796441,97.0935484 11.9709609,96.2195699 11.3514591,95.2090323 C8.12640569,94.3441577 4.79202847,94.0710394 1.49409253,93.6431541 C1.56697509,93.0605018 1.73096085,91.8860932 1.81295374,91.3034409 Z" id="Shape"></path>
            </g>
        </g>
    </g>
</svg>