<?xml version="1.0" encoding="UTF-8"?>
<svg width="256px" height="256px" viewBox="0 0 256 256" version="1.1" xmlns="http://www.w3.org/2000/svg" xmlns:xlink="http://www.w3.org/1999/xlink">
    <!-- Generator: Sketch 51.3 (57544) - http://www.bohemiancoding.com/sketch -->
    <title>logo/verdal</title>
    <desc>Created with Sketch.</desc>
    <defs></defs>
    <g id="logo/verdal" stroke="none" stroke-width="1" fill="none" fill-rule="evenodd">
        <polygon id="Path-5" fill="#FFFFFF" fill-rule="nonzero" points="24.4051707 21.5039817 116.824132 10.1078707 212.267739 15.8059262 232.42976 18.9028722 230.111008 70.2268701 219.399399 122.146385 187.455379 185.47399 139.758389 241.325972 128.417465 247.947678 84.0937891 203.431913 41.2670343 132.034024 22.5595808 40.9087721"></polygon>
        <circle id="Oval-4" fill="#FFFFFF" fill-rule="nonzero" cx="175.5" cy="40.5" r="41.5"></circle>
        <g id="verdal" transform="translate(18.000000, 0.000000)" fill-rule="nonzero">
            <g id="#ffffffff" transform="translate(19.520384, 21.069959)" fill="#FFFFFF">
                <path d="M60.2494005,17.0455967 C62.101199,11.4567901 64.0426859,5.90485597 66.1477218,0.410864198 C67.2503597,0.389794239 68.3529976,0.36872428 69.4609113,0.352921811 C71.8086331,5.70995885 73.9453237,11.1618107 76.0767386,16.6083951 C74.9793765,16.6083951 73.8820144,16.6083951 72.7846523,16.6083951 C72.3573141,15.5022222 71.9247002,14.3960494 71.4920863,13.295144 C69.2340528,13.337284 66.9760192,13.3794239 64.7232614,13.4320988 C64.3434053,14.5435391 63.9529976,15.6549794 63.5678657,16.7664198 C62.459952,16.8717695 61.3520384,16.9613169 60.2494005,17.0455967 Z M67.9414868,4.75654321 C67.1976019,6.6054321 66.4959233,8.47539095 65.8100719,10.3506173 C67.2925659,10.3190123 68.77506,10.2874074 70.2628297,10.26107 C69.5031175,8.41744856 68.7117506,6.58962963 67.9414868,4.75654321 Z" id="Shape"></path>
                <path d="M78.6829736,0.321316872 C79.7803357,0.337119342 80.8776978,0.3581893 81.9803357,0.379259259 C81.8906475,4.84082305 81.7745803,9.30238683 81.663789,13.7639506 C83.1990408,13.7850206 84.7395683,13.832428 86.2800959,13.8851029 C86.2431655,14.8595885 86.2115108,15.8393416 86.1851319,16.8138272 C83.6105516,16.7400823 81.0359712,16.6716049 78.4613909,16.6452675 C78.5405276,11.2039506 78.577458,5.76263374 78.6829736,0.321316872 Z" id="Shape"></path>
                <path d="M44.0738609,1.84888889 C47.2235012,1.60658436 50.5208633,0.869135802 53.6019185,1.92790123 C59.2364508,4.30353909 59.8906475,13.4426337 54.6570743,16.5925926 C51.8978417,17.9726749 48.6743405,17.6144856 45.6935252,18.0990947 C45.1290168,12.6841152 44.5592326,7.2691358 44.0738609,1.84888889 Z M47.6033573,4.4562963 C47.8354916,7.89596708 48.2206235,11.3251029 48.494964,14.7647737 C50.3942446,14.4961317 52.8316547,14.7226337 54.0661871,12.9316872 C55.4484412,10.8615638 55.2268585,7.85909465 53.7285372,5.91012346 C52.2407674,4.09283951 49.6872902,4.41415638 47.6033573,4.4562963 Z" id="Shape"></path>
                <path d="M30.393765,3.5344856 C32.9103118,3.20263374 35.4690647,2.56526749 38.0119904,2.99720165 C40.7659472,3.71358025 41.8580336,7.19012346 40.6868106,9.60263374 C40.17506,10.4823045 39.2834532,11.0406584 38.5290168,11.6885597 C40.0800959,13.8903704 41.6311751,16.0921811 43.1769784,18.2939918 C42.0532374,18.457284 40.9294964,18.6047737 39.8057554,18.7469959 C38.2071942,16.5293827 36.6719424,14.2590947 34.9731415,12.1152263 C35.1577938,14.4961317 35.5534772,16.8559671 35.8594724,19.2263374 C34.8043165,19.3685597 33.7544365,19.5213169 32.7098321,19.6740741 C32.0239808,14.2801646 31.1745803,8.91259259 30.393765,3.5344856 Z M34.0498801,5.97860082 C34.2134293,7.13744856 34.3928058,8.29102881 34.5827338,9.44987654 C35.6273381,9.21283951 36.6772182,8.96 37.711271,8.66502058 C37.7956835,8.35950617 37.9539568,7.74320988 38.0383693,7.43769547 C37.9117506,7.08477366 37.6690647,6.37366255 37.5477218,6.02074074 C36.3817746,5.93119342 35.2158273,5.93646091 34.0498801,5.97860082 Z" id="Shape"></path>
                <path d="M17.8215827,5.59934156 C20.9290168,5.00938272 24.0417266,4.47209877 27.164988,3.9927572 C27.3179856,5.00411523 27.4709832,6.00493827 27.6239808,7.0162963 C25.6244604,7.32707819 23.6302158,7.64839506 21.641247,8.02238683 C21.7784173,8.98106996 21.9261391,9.93975309 22.0791367,10.8984362 C24.0892086,10.5613169 26.0940048,10.2083951 28.1199041,9.96609053 C28.2465228,10.9300412 28.3678657,11.8992593 28.4944844,12.8684774 C26.542446,13.2055967 24.5904077,13.5058436 22.6436451,13.8640329 C22.8810552,15.2651852 23.1290168,16.6663374 23.38753,18.0622222 C25.323741,17.7093004 27.2652278,17.414321 29.2067146,17.0982716 C29.364988,18.1096296 29.5285372,19.1209877 29.6973621,20.1376132 C26.7376499,20.5590123 23.8043165,21.1173663 20.8551559,21.6072428 C19.8158273,16.2765432 18.8609113,10.9300412 17.8215827,5.59934156 Z" id="Shape"></path>
                <path d="M11.9285372,6.74765432 C13.0311751,6.53695473 14.1285372,6.32098765 15.2258993,6.09975309 C14.2551559,11.8413169 13.3952038,17.5986831 12.5721823,23.3613169 C11.5961631,23.5298765 10.6306954,23.7616461 9.64940048,23.8617284 C6.45227818,19.0630453 3.32901679,14.2064198 0.0527577938,9.45514403 C1.1501199,9.19703704 2.24220624,8.92839506 3.33956835,8.66502058 C5.66091127,12.057284 7.89784173,15.5127572 10.1189448,18.9734979 C10.641247,14.8859259 11.2532374,10.8141564 11.9285372,6.74765432 Z" id="Shape"></path>
                <path d="M169.426379,53.4228807 C170.17554,52.5800823 170.82446,51.3948971 172.069544,51.2632099 C174.248441,50.7153909 176.448441,52.5800823 176.57506,54.7450206 C176.717506,56.8309465 176.369305,58.9116049 176.205755,60.9869959 C171.684412,60.5972016 167.194724,59.9703704 162.678657,59.5331687 C163.100719,57.0469136 162.69976,53.6809877 165.242686,52.2271605 C166.756835,51.2737449 168.408153,52.232428 169.426379,53.4228807 Z M165.269065,57.0416461 C166.329496,57.1311934 167.395204,57.2102058 168.466187,57.2786831 C168.286811,56.3621399 168.11271,55.4508642 167.906954,54.544856 C166.255635,54.265679 165.427338,55.535144 165.269065,57.0416461 Z M170.497362,57.5420576 C171.684412,57.6579424 172.876739,57.7527572 174.074341,57.837037 C173.921343,56.578107 174.564988,54.6976132 173.119424,54.028642 C171.014388,53.6230453 170.729496,56.0671605 170.497362,57.5420576 Z" id="Shape"></path>
                <path d="M168.176019,65.2325926 C168.972662,64.4793416 169.663789,63.3362963 170.88777,63.2941564 C173.035012,62.8780247 175.097842,64.7111111 175.198082,66.828642 C175.271942,68.9830453 174.728537,71.0900412 174.380336,73.2023045 C169.938129,72.433251 165.506475,71.6220576 161.064269,70.8530041 C161.586571,68.4036214 161.459952,65.011358 164.097842,63.741893 C165.670024,62.9465021 167.210552,64.0316049 168.176019,65.2325926 Z M163.791847,68.5669136 C164.820624,68.7196708 165.8494,68.861893 166.888729,68.9988477 C166.783213,68.0296296 167.141966,66.5968724 165.891607,66.2702881 C164.498801,65.8278189 164.124221,67.6240329 163.791847,68.5669136 Z M168.92518,69.3359671 C170.138609,69.5730041 171.36259,69.7784362 172.597122,69.9522634 C172.533813,68.6564609 173.240767,66.2123457 171.346763,66.0385185 C169.542446,65.8594239 169.357794,68.0823045 168.92518,69.3359671 Z" id="Shape"></path>
                <path d="M160.452278,73.9028807 C163.881535,74.6455967 167.405755,75.0406584 170.761151,76.0836214 C174.079616,77.553251 173.821103,82.5415638 171.299281,84.6590947 C170.238849,85.73893 168.608633,85.7283951 167.23693,85.4123457 C164.266667,84.759177 161.343885,83.9005761 158.378897,83.2263374 C158.595204,82.3466667 158.816787,81.4669959 159.043645,80.5925926 C162.330456,81.3353086 165.596163,82.1939095 168.904077,82.8576132 C169.215348,82.7311934 169.843165,82.4678189 170.154436,82.3413992 C170.402398,81.424856 170.903597,80.4714403 170.507914,79.5232922 C170.054197,78.6804938 169.06235,78.5330041 168.234053,78.3065021 C165.480096,77.6849383 162.710312,77.1687243 159.961631,76.5471605 C160.12518,75.6674897 160.283453,74.7825514 160.452278,73.9028807 Z" id="Shape"></path>
                <path d="M168.613909,87.9196708 C169.4,88.1145679 170.180815,88.3041975 170.977458,88.4990947 C170.407674,90.7904527 169.742926,93.0607407 169.046523,95.3204938 C164.725659,94.0404938 160.425899,92.7130864 156.120863,91.3909465 C156.358273,90.5270782 156.606235,89.6684774 156.859472,88.815144 C160.394245,89.858107 163.944844,90.8483951 167.484892,91.880823 C167.870024,90.5639506 168.234053,89.2365432 168.613909,87.9196708 Z" id="Shape"></path>
                <path d="M154.37458,96.6215638 C154.733333,95.6260082 155.092086,94.6357202 155.445564,93.6454321 C156.806715,95.8472428 158.220624,98.0174486 159.518465,100.256132 C162.504556,99.3817284 165.432614,98.3440329 168.371223,97.3168724 C168.065228,98.3756379 167.748681,99.4344033 167.432134,100.487901 C165.058034,101.35177 162.652278,102.131358 160.220144,102.805597 C162.103597,103.521975 164.002878,104.212016 165.902158,104.907325 C165.57506,105.713251 165.274341,106.534979 164.889209,107.319835 C164.250839,107.49893 163.623022,107.082798 163.026859,106.935309 C159.41295,105.539424 155.788489,104.169877 152.17458,102.789794 C152.485851,101.946996 152.81295,101.109465 153.134772,100.277202 C154.585612,100.788148 156.036451,101.314897 157.48729,101.841646 C156.474341,100.082305 155.419185,98.3545679 154.37458,96.6215638 Z" id="Shape"></path>
                <path d="M148.940528,110.722634 C149.299281,109.895638 149.663309,109.079177 150.03789,108.267984 C153.414388,109.732346 156.822542,111.12823 160.220144,112.539918 C160.726619,111.270453 161.233094,110.006255 161.744844,108.742058 C162.499281,109.026502 163.27482,109.316214 164.039808,109.605926 C163.206235,111.802469 162.288249,113.972675 161.343885,116.132346 C157.207674,114.330864 153.071463,112.529383 148.940528,110.722634 Z" id="Shape"></path>
                <path d="M145.363549,118.481646 C145.743405,117.67572 146.128537,116.880329 146.524221,116.090206 C149.863789,117.63358 153.1506,119.29284 156.521823,120.767737 C157.075779,119.540412 157.629736,118.313086 158.19952,117.096296 C158.938129,117.407078 159.682014,117.723128 160.431175,118.039177 C159.507914,120.19358 158.50024,122.305844 157.429257,124.39177 C153.382734,122.469136 149.383693,120.451687 145.363549,118.481646 Z" id="Shape"></path>
                <path d="M141.939568,125.071276 C146.761631,125.60856 151.594245,126.082634 156.43741,126.340741 C155.973141,127.215144 155.519424,128.094815 155.070983,128.974486 C154.052758,128.906008 153.034532,128.832263 152.021583,128.763786 C151.082494,130.512593 150.106475,132.235062 149.098801,133.946996 C149.679137,134.758189 150.259472,135.57465 150.839808,136.391111 C150.328058,137.239177 149.821583,138.087243 149.320384,138.940576 C146.524221,135.037366 143.664748,131.181564 140.668106,127.436379 C141.090168,126.646255 141.51223,125.856132 141.939568,125.071276 Z M144.450839,128.015802 C145.458513,129.28 146.460911,130.549465 147.447482,131.834733 C148.091127,130.712757 148.724221,129.590782 149.352038,128.458272 C147.716547,128.300247 146.081055,128.152757 144.450839,128.015802 Z" id="Shape"></path>
                <path d="M132.464269,140.578765 C133.936211,138.529712 135.265707,135.311276 138.257074,135.474568 C139.88729,135.495638 140.710312,137.028477 141.069065,138.413827 C142.103118,138.0293 143.189928,137.386667 144.329496,137.760658 C146.371223,138.297942 147.463309,140.77893 146.677218,142.696296 C145.880576,144.645267 144.5247,146.299259 143.364029,148.042798 C139.697362,145.598683 136.104556,143.049218 132.464269,140.578765 Z M135.846043,139.588477 C136.674341,140.162634 137.513189,140.726255 138.36259,141.284609 C138.716067,140.410206 139.61295,139.014321 138.505036,138.361152 C137.407674,137.523621 136.552998,138.945844 135.846043,139.588477 Z M140.056115,142.406584 C141.03741,143.070288 142.029257,143.733992 143.021103,144.38716 C143.564508,143.207243 145.16307,141.495309 143.664748,140.404938 C142.034532,139.60428 140.974101,141.389959 140.056115,142.406584 Z" id="Shape"></path>
                <path d="M129.520384,144.608395 C130.079616,143.844609 130.644125,143.086091 131.213909,142.327572 C132.495923,144.80856 133.493046,147.43177 134.817266,149.88642 C136.136211,151.345514 137.903597,152.293663 139.444125,153.49465 C138.879616,154.279506 138.304556,155.064362 137.745324,155.854486 C135.656115,154.495473 133.957314,152.167243 131.282494,152.046091 C129.019185,151.740576 126.771703,151.340247 124.534772,150.89251 C125.141487,150.165597 125.742926,149.438683 126.34964,148.71177 C128.159233,148.985679 129.963549,149.291193 131.783693,149.517695 C131.039808,147.874239 130.295923,146.230782 129.520384,144.608395 Z" id="Shape"></path>
                <path d="M118.256595,158.277531 C119.923741,156.123128 121.844125,154.168889 123.548201,152.046091 C124.223501,152.57284 124.898801,153.104856 125.574101,153.64214 C124.297362,155.085432 123.010072,156.512922 121.738609,157.961481 C122.355875,158.498765 122.973141,159.036049 123.600959,159.583868 C124.898801,158.156379 126.164988,156.692016 127.36259,155.180247 C128.022062,155.696461 128.681535,156.207407 129.351559,156.718354 C128.153957,158.293333 126.7506,159.710288 125.695444,161.390617 C126.523741,162.243951 127.447002,162.991934 128.333333,163.787325 C129.567866,162.186008 130.802398,160.584691 132.068585,159.014979 C132.733333,159.525926 133.392806,160.047407 134.052278,160.574156 C132.121343,163.034074 130.158753,165.467654 128.206715,167.91177 C124.930456,164.872428 121.527578,161.970041 118.335731,158.851687 C118.314628,158.709465 118.277698,158.419753 118.256595,158.277531 Z" id="Shape"></path>
                <path d="M111.846523,165.467654 C112.479616,164.777613 113.117986,164.087572 113.772182,163.408066 C116.584173,166.131358 119.353957,168.89679 122.165947,171.630617 C123.09976,170.477037 124.028297,169.328724 124.951559,168.169877 C125.510791,168.686091 126.080576,169.21284 126.655635,169.734321 C125.104556,171.704362 123.479616,173.621728 121.844125,175.523292 C118.478177,172.199506 115.201918,168.796708 111.846523,165.467654 Z" id="Shape"></path>
                <path d="M107.778897,170.034568 C110.596163,172.94749 113.355396,175.923621 116.098801,178.910288 C117.000959,177.840988 117.908393,176.776955 118.810552,175.702387 C119.327578,176.192263 119.84988,176.676872 120.372182,177.166749 C118.852758,179.026173 117.254197,180.822387 115.634532,182.602798 C112.40048,179.057778 109.155875,175.52856 105.953477,171.957202 C106.560192,171.314568 107.166906,170.671934 107.778897,170.034568 Z" id="Shape"></path>
                <path d="M101.379376,177.546008 C105.119904,176.255473 109.583213,178.515226 110.691127,182.313086 C111.99952,186.031934 109.699281,190.456626 105.932374,191.578601 C102.255156,192.890206 97.8129496,190.65679 96.6681055,186.932675 C95.2805755,183.198025 97.564988,178.678519 101.379376,177.546008 Z M101.928058,180.279835 C98.8997602,181.354403 97.9976019,185.736955 100.429736,187.865021 C102.698321,190.335473 107.246043,189.123951 108.079616,185.910782 C109.393285,182.418436 105.299281,178.678519 101.928058,180.279835 Z" id="Shape"></path>
                <path d="M90.1155875,187.143374 C90.7961631,186.527078 91.4820144,185.916049 92.1678657,185.305021 C94.0513189,189.835062 95.9769784,194.354568 97.8604317,198.884609 C98.6043165,200.106667 97.0426859,200.865185 96.4306954,201.692181 C91.6455635,199.195391 86.9026379,196.630123 82.1438849,194.096461 C82.9088729,193.459095 83.6791367,192.821728 84.4441247,192.179095 C88.0211031,194.112263 91.5347722,196.145514 95.0273381,198.220905 C93.3496403,194.549465 91.6086331,190.899095 90.1155875,187.143374 Z" id="Shape"></path>
            </g>
            <g id="#000000ff" fill="#000000">
                <path d="M142.082014,10.6982716 C145.928058,5.21481481 152.016307,0.995555556 158.816787,0.426666667 C162.873861,0.279176955 167.321343,0.979753086 170.386571,3.87687243 C166.018225,6.71604938 161.043165,8.5491358 156.896403,11.7359671 C152.063789,15.5127572 148.333813,20.5274074 145.532374,25.9423868 C142.873381,24.3358025 140.304077,22.0707819 139.438849,18.9787654 C138.869065,15.9710288 140.441247,13.1055144 142.082014,10.6982716 Z" id="Shape"></path>
                <path d="M127.278177,15.4495473 C132.422062,7.99604938 140.879137,3.56082305 149.431175,1.19045267 C146.323741,4.77234568 142.430216,7.64312757 139.713189,11.5726749 C138.135731,13.7376132 137.133333,16.2607407 136.558273,18.8628807 C132.881055,21.0330864 128.802878,22.9662551 126.286331,26.5692181 C123.727578,30.2669959 122.577458,34.818107 119.4753,38.1682305 C118.794724,29.8824691 122.382254,21.9338272 127.278177,15.4495473 Z" id="Shape"></path>
                <path d="M48.5793765,8.37004115 C77.0844125,5.59407407 105.763549,4.90403292 134.384652,5.66255144 C130.907914,8.09613169 127.826859,11.0722634 125.215348,14.4118519 C97.7179856,13.9483128 70.1573141,14.9438683 42.8446043,18.2834568 C32.0134293,19.6582716 21.2033573,21.3965432 10.6148681,24.0987654 C9.93429257,40.3805761 11.4906475,56.6729218 13.8594724,72.7651029 C15.8378897,85.7916049 18.5654676,98.6969547 21.9314149,111.433745 C24.3318945,120.27786 26.7007194,129.17465 30.393765,137.586831 C37.7323741,154.822058 47.4925659,170.951111 58.5242206,186.063539 C73.6182254,206.654156 91.3079137,225.28 110.564508,242.02535 C139.032614,217.083786 164.271942,187.975638 182.230695,154.542881 C187.005276,145.567078 191.305036,136.301564 194.475779,126.630453 C201.756355,102.705514 206.852758,78.0747325 209.03693,53.1437037 C209.844125,43.3040329 210.318945,33.4116872 209.801918,23.5404115 C204.373141,22.1287243 198.870504,21.0225514 193.352038,20.0533333 C191.183693,16.0605761 188.403357,12.4154733 185.095444,9.29711934 C196.723261,10.766749 208.3247,12.6051029 219.683453,15.5338272 C220.332374,28.9869959 219.493525,42.4717695 218.074341,55.8511934 C215.520863,79.0334156 210.730456,101.952263 204.183213,124.32856 C201.234053,134.910947 196.765468,144.998189 191.848441,154.79572 C172.027338,193.538107 143.211031,227.134156 110.585612,255.720823 C82.2652278,231.100576 56.9467626,202.724609 37.6110312,170.49284 C31.5122302,160.263374 26.0043165,149.65465 21.4935252,138.624527 C17.8796163,129.959506 15.5213429,120.846749 13.0522782,111.813004 C5.74532374,83.9111111 1.0235012,55.2243621 0.501199041,26.353251 C0.443165468,22.9557202 0.569784173,19.5529218 0.691127098,16.1606584 C16.3865707,12.1679012 32.4882494,9.99769547 48.5793765,8.37004115 Z" id="Shape"></path>
                <path d="M172.639329,5.87325103 C175.79952,4.9145679 178.870024,6.76345679 181.238849,8.68082305 C182.742446,9.99769547 184.525659,11.240823 185.269544,13.1687243 C185.380336,14.6752263 183.734293,15.3283951 182.573621,15.7655967 C173.757794,18.8312757 165.94964,24.6518519 160.478657,32.2001646 C159.835012,33.0376955 159.254676,34.0016461 158.273381,34.4809877 C156.616787,34.9076543 155.113189,33.8014815 153.815348,32.9270782 C151.926619,31.4785185 149.710791,30.2090535 148.581775,28.0283128 C147.779856,26.3163786 148.697842,24.4358848 149.668585,23.0031276 C153.409113,17.7777778 158.611031,13.8060905 164.108393,10.5560494 C166.920384,8.94946502 169.468585,6.75292181 172.639329,5.87325103 Z" id="Shape"></path>
                <path d="M184.066667,17.3879835 C185.100719,16.919177 186.22446,16.7190123 187.353477,16.5767901 C191.204796,20.3641152 193.726619,25.4156379 194.291127,30.8042798 C187.585612,31.236214 181.022542,33.7698765 175.915588,38.152428 C174.754916,39.0426337 173.557314,40.3858436 171.93765,40.0592593 C168.5506,39.4851029 165.226859,37.9311934 162.773621,35.5186831 C161.417746,34.1860082 162.494005,32.2001646 163.554436,31.0571193 C169.225899,24.9995062 176.432614,20.5484774 184.066667,17.3879835 Z" id="Shape"></path>
                <path d="M133.714628,21.9654321 C135.075779,21.4281481 136.73765,20.8961317 138.093525,21.7547325 C139.718465,22.7186831 140.631175,24.4569547 141.892086,25.8054321 C147.516067,32.3107819 155.345324,36.4246914 163.353957,39.2586008 C167.168345,40.680823 171.12518,41.6553086 174.997602,42.8931687 C177.213429,43.5568724 177.018225,46.4013169 176.659472,48.2133333 C175.810072,51.6793416 174.617746,55.3771193 171.858513,57.8159671 C170.402398,59.1697119 168.270983,59.1749794 166.461391,58.6587654 C159.88777,56.7782716 153.171703,55.298107 146.867146,52.5906173 C141.992326,50.5573663 137.397122,47.7866667 133.572182,44.1310288 C130.971223,41.723786 129.156355,38.6423045 127.119904,35.7820576 C125.953957,34.1069959 124.772182,31.9420576 125.885372,29.9298765 C127.584173,26.5850206 130.380336,23.7037037 133.714628,21.9654321 Z" id="Shape"></path>
                <path d="M192.317986,32.4055967 C192.935252,31.9947325 193.679137,32.3476543 194.349161,32.3897942 C195.821103,39.7379424 195.319904,47.5601646 192.302158,54.4658436 C188.086811,64.4055967 179.14964,72.0276543 168.872422,75.1828807 C175.192806,71.0742387 181.497362,66.6232099 186.071463,60.5392593 C191.331415,53.6809877 193.768825,44.6051029 192.186091,36.077037 C192.017266,34.8602469 191.853717,33.5802469 192.317986,32.4055967 Z" id="Shape"></path>
                <path d="M181.544844,36.3930864 C183.760671,35.2131687 186.240288,34.0069136 188.82542,34.3809053 C190.466187,34.7074897 191.125659,36.5089712 191.210072,37.9996708 C191.642686,45.6164609 188.851799,53.1331687 184.32518,59.1960494 C180.60048,64.1632922 176.253237,68.8302881 170.893046,72.0592593 C167.147242,74.26107 162.905516,75.757037 158.547722,76.025679 C159.78753,74.7720165 161.438849,74.0556379 162.778897,72.9231276 C168.260432,68.5879835 173.404317,63.4995885 176.390408,57.094321 C177.777938,54.2130041 178.959712,51.1315226 179.075779,47.9025514 C179.260432,45.1581893 176.701679,42.9037037 177.403357,40.1277366 C178.252758,38.42107 179.972662,37.367572 181.544844,36.3930864 Z" id="Shape"></path>
                <path d="M122.677698,36.5774486 C123.490168,35.7925926 124.58753,36.5458436 125.210072,37.1990123 C126.386571,38.4948148 127.278177,40.0118519 128.407194,41.3497942 C133.667146,47.8920165 140.552038,53.1805761 148.391847,56.2567901 C155.139568,58.9748148 162.383213,60.1231276 169.595204,60.7446914 C169.178417,64.763786 165.928537,67.850535 162.393765,69.4255144 C159.803357,70.5948971 156.8753,70.0102058 154.211031,69.4571193 C145.057554,67.1815638 135.761631,63.9209877 128.729017,57.4051029 C125.953957,54.7502881 123.210552,51.942716 121.364029,48.5451852 C119.470024,44.7262551 120.493525,40.0539918 122.677698,36.5774486 Z" id="Shape"></path>
                <path d="M80.6930456,49.0350617 C93.0911271,48.0184362 105.541966,47.6918519 117.976978,47.8130041 C120.1506,57.2365432 125.77458,65.817284 133.62494,71.4903704 C144.102638,79.2704527 158.421103,81.3247737 170.734772,77.0633745 C169.273381,89.5104527 166.730456,101.820576 163.232614,113.851523 C161.185612,121.341893 157.882974,128.421399 154.211031,135.237531 C151.963549,133.493992 149.884892,131.545021 147.705995,129.733004 C144.065707,127.510123 139.866187,125.798189 135.545324,125.882469 C130.443645,126.65679 125.099281,127.104527 120.097842,125.529547 C117.17506,124.597202 116.177938,121.189136 116.156835,118.439506 C116.278177,116.817119 117.85036,115.979588 119.053237,115.173663 C120.720384,114.146502 122.598561,112.771687 122.719904,110.633086 C122.973141,106.419095 121.717506,102.310453 120.994724,98.2018107 C120.308873,94.3934156 116.758273,92.0230453 113.365947,90.7799177 C110.833573,89.9213169 108.005755,88.9784362 105.378417,89.9897942 C100.899281,91.7069959 96.7314149,94.6199177 94.1673861,98.7390947 C90.9597122,102.194568 91.3976019,107.488395 93.0647482,111.565432 C94.1304556,114.078025 94.2781775,116.785514 94.1146283,119.477202 C90.964988,117.670453 87.7942446,115.900576 84.6498801,114.093827 C82.6503597,112.866502 80.6139089,111.665514 78.38753,110.901728 C74.8052758,109.590123 70.9275779,109.616461 67.2450839,108.720988 C63.4940048,107.767572 59.6215827,107.440988 55.764988,107.246091 C55.216307,105.102222 54.6781775,102.953086 54.1664269,100.803951 C57.1155875,96.2897119 59.2047962,91.3013992 61.2306954,86.3341564 C62.8398082,82.8260082 65.0925659,79.2599177 68.6906475,77.5374486 C71.5976019,76.1626337 74.8211031,75.8097119 77.9021583,75.0301235 C78.8095923,74.735144 80.2076739,74.3980247 79.822542,73.1390947 C77.6119904,71.2006584 74.1669065,73.981893 72.1357314,71.6273251 C71.5870504,70.6528395 72.3995204,69.8100412 72.9218225,69.0567901 C74.657554,66.7496296 76.4882494,64.516214 78.2609113,62.2353909 C78.8465228,61.5348148 79.0258993,60.6024691 78.9731415,59.7122634 C78.0446043,59.0327572 77.2215827,60.0335802 76.593765,60.6393416 C74.847482,62.4882305 73.2172662,64.526749 70.9803357,65.8225514 C71.9035971,62.4987654 73.7659472,59.5384362 74.9055156,56.29893 C75.4119904,55.3876543 73.8978417,54.2446091 73.3280576,55.2928395 C71.4709832,58.0582716 70.1573141,61.171358 68.1366906,63.8367078 C67.936211,63.4521811 67.7568345,63.0623868 67.5985612,62.6673251 C67.6935252,60.1916049 68.3529976,57.7632922 68.3055156,55.277037 C68.4585132,54.3657613 67.7093525,53.8864198 67.0551559,53.4597531 C65.0450839,56.7413992 66.8071942,61.4558025 63.488729,64.0579424 C63.1510791,61.3978601 63.3410072,58.6271605 62.317506,56.0934979 C60.3760192,57.3366255 61.2834532,59.7596708 61.0302158,61.6559671 C60.9827338,64.3634568 59.6110312,66.8233745 59.6057554,69.5308642 C59.3788969,71.5114403 59.901199,73.6921811 58.7669065,75.4673251 C56.983693,79.0123457 53.4278177,81.0297942 50.9218225,83.974321 C49.4551559,74.0082305 48.5160671,63.9262551 48.901199,53.8442798 C59.3155875,51.2316049 70.0095923,49.9463374 80.6930456,49.0350617 Z" id="Shape"></path>
                <path d="M123.263309,55.1558848 C129.441247,60.1758025 135.777458,65.1851852 143.131894,68.3983539 C148.186091,70.6949794 153.614868,72.0487243 159.106954,72.7440329 C158.141487,74.3980247 156.590408,75.8149794 154.580336,75.8939918 C150.117026,76.1731687 145.933333,74.2136626 141.865707,72.6439506 C133.86235,69.3306996 126.122782,63.6576132 123.263309,55.1558848 Z" id="Shape"></path>
                <path d="M61.1251799,123.90716 C64.37506,124.781564 67.6882494,125.44 70.9486811,126.277531 C74.2354916,127.942058 76.3880096,131.149959 78.0920863,134.305185 C81.758753,140.958025 85.0033573,147.969053 86.4278177,155.469959 C86.8973621,158.946502 87.3088729,162.43358 88.1266187,165.852181 C77.2532374,153.210206 67.7568345,139.246091 61.1251799,123.90716 Z" id="Shape"></path>
                <path d="M131.414388,159.178272 C134.548201,154.764115 136.53717,149.67572 138.220144,144.566255 C140.69976,146.1307 143.152998,147.753086 145.848921,148.927737 C139.823981,157.766584 132.986571,166.031276 125.647962,173.811358 C126.21247,171.37251 126.391847,168.849383 127.151559,166.46321 C128.185612,163.834733 129.747242,161.44856 131.414388,159.178272 Z" id="Shape"></path>
            </g>
            <g id="#b70408ff" transform="translate(14.772182, 17.382716)" fill="#B70408">
                <path d="M44.3376499,2.47045267 C65.5884892,0.500411523 86.9501199,-0.136954733 108.285372,0.17909465 C103.832614,7.34814815 101.790887,15.8920165 102.286811,24.29893 C88.7702638,24.1514403 75.2484412,24.599177 61.7793765,25.7316872 C50.5419664,26.7483128 39.288729,28.1231276 28.3309353,30.8938272 C27.9035971,44.6261728 29.4494005,58.353251 31.9553957,71.8380247 C27.7189448,77.8745679 24.0311751,84.3061728 20.9817746,91.0169547 C20.2800959,93.0080658 19.9793765,96.2159671 22.3482014,97.1957202 C28.336211,99.8136626 34.1131894,102.995226 40.4441247,104.759835 C47.5769784,123.585844 58.5717026,140.768395 71.5290168,156.107325 C78.9784173,164.846091 87.0661871,173.05284 95.7923261,180.516872 C116.948201,162.022716 135.133813,139.704362 146.951559,114.10963 C151.446523,104.633416 154.13717,94.4566255 156.616787,84.3114403 C158.574101,76.0309465 160.167386,67.6609053 161.217266,59.2171193 C161.370264,58.3111111 161.31223,57.104856 162.388489,56.7677366 C170.122782,52.4747325 176.390408,45.5953909 179.877698,37.4676543 C184.114149,27.7912757 184.22494,16.4977778 180.415827,6.658107 C183.707914,7.30074074 186.973621,8.07506173 190.228777,8.87045267 C190.830216,22.4289712 189.848921,36.0085597 188.165947,49.4617284 C186.477698,62.5145679 184.003357,75.4620576 180.832614,88.2357202 C178.279137,98.0859259 175.815348,108.025679 171.73717,117.380741 C164.52518,134.415802 154.823022,150.307819 143.854676,165.177942 C129.852758,184.119835 113.508393,201.260247 95.8134293,216.788807 C80.9251799,203.904527 67.076259,189.798189 54.6992806,174.490864 C41.7155875,158.377613 30.2407674,140.94749 21.5779376,122.126749 C18.222542,114.957695 15.5318945,107.49893 13.463789,99.86107 C5.84556355,73.0337449 0.902158273,45.305679 0.495923261,17.3774486 C0.453717026,14.7173663 0.601438849,12.0625514 0.68057554,9.40246914 C14.9990408,5.83111111 29.6657074,3.88213992 44.3376499,2.47045267 Z M64.9976019,20.7328395 C66.1002398,20.6485597 67.2081535,20.5590123 68.3160671,20.4536626 C68.701199,19.3422222 69.0916067,18.2307819 69.4714628,17.1193416 C71.7242206,17.0666667 73.9822542,17.0245267 76.2402878,16.9823868 C76.6729017,18.0832922 77.1055156,19.189465 77.5328537,20.2956379 C78.6302158,20.2956379 79.7275779,20.2956379 80.82494,20.2956379 C78.6935252,14.8490535 76.5568345,9.39720165 74.2091127,4.04016461 C73.101199,4.05596708 71.9985612,4.07703704 70.8959233,4.098107 C68.7908873,9.59209877 66.8494005,15.1440329 64.9976019,20.7328395 Z M83.4311751,4.00855967 C83.3256595,9.44987654 83.288729,14.8911934 83.2095923,20.3325103 C85.7841727,20.3588477 88.358753,20.4273251 90.9333333,20.50107 C90.9597122,19.5265844 90.9913669,18.5468313 91.0282974,17.5723457 C89.4877698,17.5196708 87.9472422,17.4722634 86.4119904,17.4511934 C86.5227818,12.9896296 86.6388489,8.52806584 86.7285372,4.06650206 C85.6258993,4.0454321 84.5285372,4.02436214 83.4311751,4.00855967 Z M48.8220624,5.53613169 C49.3074341,10.9563786 49.8772182,16.371358 50.4417266,21.7863374 C53.422542,21.3017284 56.6460432,21.6599177 59.4052758,20.2798354 C64.6388489,17.1298765 63.9846523,7.99078189 58.3501199,5.61514403 C55.2690647,4.5563786 51.9717026,5.29382716 48.8220624,5.53613169 Z M35.1419664,7.2217284 C35.9227818,12.5998354 36.7721823,17.9674074 37.4580336,23.3613169 C38.5026379,23.2085597 39.552518,23.0558025 40.6076739,22.9135802 C40.3016787,20.5432099 39.9059952,18.1833745 39.7213429,15.8024691 C41.4201439,17.9463374 42.9553957,20.2166255 44.5539568,22.4342387 C45.6776978,22.2920165 46.8014388,22.1445267 47.9251799,21.9812346 C46.3793765,19.7794239 44.8282974,17.5776132 43.2772182,15.3758025 C44.0316547,14.7279012 44.9232614,14.1695473 45.435012,13.2898765 C46.606235,10.8773663 45.5141487,7.40082305 42.7601918,6.68444444 C40.2172662,6.25251029 37.6585132,6.88987654 35.1419664,7.2217284 Z M22.5697842,9.28658436 C23.6091127,14.617284 24.5640288,19.963786 25.6033573,25.2944856 C28.552518,24.8046091 31.4858513,24.2462551 34.4455635,23.824856 C34.2767386,22.8082305 34.1131894,21.7968724 33.9549161,20.7855144 C32.0134293,21.1015638 30.0719424,21.3965432 28.1357314,21.749465 C27.8772182,20.3535802 27.6292566,18.952428 27.3918465,17.5512757 C29.3386091,17.1930864 31.2906475,16.8928395 33.2426859,16.5557202 C33.1160671,15.5865021 32.9947242,14.617284 32.8681055,13.6533333 C30.8422062,13.8956379 28.8374101,14.2485597 26.8273381,14.585679 C26.6743405,13.6269959 26.5266187,12.6683128 26.3894484,11.7096296 C28.3784173,11.3356379 30.3726619,11.014321 32.3721823,10.7035391 C32.2191847,9.69218107 32.0661871,8.69135802 31.9131894,7.68 C28.7899281,8.15934156 25.6772182,8.69662551 22.5697842,9.28658436 Z M16.6767386,10.4348971 C16.0014388,14.5013992 15.3894484,18.5731687 14.8671463,22.6607407 C12.6460432,19.2 10.4091127,15.7445267 8.08776978,12.3522634 C6.99040767,12.6156379 5.89832134,12.8842798 4.80095923,13.1423868 C8.07721823,17.8936626 11.2004796,22.7502881 14.3976019,27.5489712 C15.3788969,27.4488889 16.3443645,27.2171193 17.3203837,27.0485597 C18.1434053,21.2859259 19.0033573,15.5285597 19.9741007,9.78699588 C18.8767386,10.0082305 17.7793765,10.2241975 16.6767386,10.4348971 Z M174.17458,57.1101235 C173.156355,55.9196708 171.505036,54.9609877 169.990887,55.9144033 C167.447962,57.3682305 167.848921,60.7341564 167.426859,63.2204115 C171.942926,63.6576132 176.432614,64.2844444 180.953957,64.6742387 C181.117506,62.5988477 181.465707,60.5181893 181.323261,58.4322634 C181.196643,56.2673251 178.996643,54.4026337 176.817746,54.9504527 C175.572662,55.0821399 174.923741,56.2673251 174.17458,57.1101235 Z M172.924221,68.9198354 C171.958753,67.7188477 170.418225,66.6337449 168.846043,67.4291358 C166.208153,68.6986008 166.334772,72.0908642 165.81247,74.5402469 C170.254676,75.3093004 174.686331,76.1204938 179.128537,76.8895473 C179.476739,74.777284 180.020144,72.6702881 179.946283,70.5158848 C179.846043,68.3983539 177.783213,66.5652675 175.635971,66.9813992 C174.41199,67.0235391 173.720863,68.1665844 172.924221,68.9198354 Z M165.20048,77.5901235 C165.031655,78.4697942 164.873381,79.3547325 164.709832,80.2344033 C167.458513,80.8559671 170.228297,81.3721811 172.982254,81.9937449 C173.810552,82.2202469 174.802398,82.3677366 175.256115,83.210535 C175.651799,84.1586831 175.1506,85.1120988 174.902638,86.028642 C174.591367,86.1550617 173.963549,86.4184362 173.652278,86.544856 C170.344365,85.8811523 167.078657,85.0225514 163.791847,84.2798354 C163.564988,85.1542387 163.343405,86.0339095 163.127098,86.9135802 C166.092086,87.5878189 169.014868,88.4464198 171.985132,89.0995885 C173.356835,89.4156379 174.98705,89.4261728 176.047482,88.3463374 C178.569305,86.2288066 178.827818,81.2404938 175.509353,79.7708642 C172.153957,78.7279012 168.629736,78.3328395 165.20048,77.5901235 Z M173.36211,91.6069136 C172.982254,92.923786 172.618225,94.2511934 172.233094,95.5680658 C168.693046,94.5356379 165.142446,93.5453498 161.607674,92.5023868 C161.354436,93.3557202 161.106475,94.214321 160.869065,95.0781893 C165.174101,96.4003292 169.473861,97.7277366 173.794724,99.0077366 C174.491127,96.7479835 175.155875,94.4776955 175.725659,92.1863374 C174.929017,91.9914403 174.148201,91.8018107 173.36211,91.6069136 Z M159.122782,100.308807 C160.167386,102.041811 161.222542,103.769547 162.235492,105.528889 C160.784652,105.00214 159.333813,104.475391 157.882974,103.964444 C157.561151,104.796708 157.234053,105.634239 156.922782,106.477037 C160.536691,107.857119 164.161151,109.226667 167.77506,110.622551 C168.371223,110.770041 168.999041,111.186173 169.63741,111.007078 C170.022542,110.222222 170.323261,109.400494 170.65036,108.594568 C168.751079,107.899259 166.851799,107.209218 164.968345,106.49284 C167.40048,105.818601 169.806235,105.039012 172.180336,104.175144 C172.496882,103.121646 172.813429,102.062881 173.119424,101.004115 C170.180815,102.031276 167.252758,103.068971 164.266667,103.943374 C162.968825,101.704691 161.554916,99.5344856 160.193765,97.3326749 C159.840288,98.322963 159.481535,99.313251 159.122782,100.308807 Z M153.688729,114.409877 C157.819664,116.216626 161.955875,118.018107 166.092086,119.819588 C167.036451,117.659918 167.954436,115.489712 168.78801,113.293169 C168.023022,113.003457 167.247482,112.713745 166.493046,112.4293 C165.981295,113.693498 165.47482,114.957695 164.968345,116.22716 C161.570743,114.815473 158.16259,113.419588 154.786091,111.955226 C154.411511,112.76642 154.047482,113.582881 153.688729,114.409877 Z M150.111751,122.168889 C154.131894,124.13893 158.130935,126.156379 162.177458,128.079012 C163.248441,125.993086 164.256115,123.880823 165.179376,121.72642 C164.430216,121.41037 163.686331,121.094321 162.947722,120.783539 C162.377938,122.000329 161.823981,123.227654 161.270024,124.454979 C157.898801,122.980082 154.61199,121.320823 151.272422,119.777449 C150.876739,120.567572 150.491607,121.362963 150.111751,122.168889 Z M146.68777,128.758519 C146.260432,129.543374 145.838369,130.333498 145.416307,131.123621 C148.41295,134.868807 151.272422,138.724609 154.068585,142.627819 C154.569784,141.774486 155.076259,140.92642 155.58801,140.078354 C155.007674,139.261893 154.427338,138.445432 153.847002,137.634239 C154.854676,135.922305 155.830695,134.199835 156.769784,132.451029 C157.782734,132.519506 158.800959,132.593251 159.819185,132.661728 C160.267626,131.782058 160.721343,130.902387 161.185612,130.027984 C156.342446,129.769877 151.509832,129.295802 146.68777,128.758519 Z M137.21247,144.266008 C140.852758,146.736461 144.445564,149.285926 148.11223,151.730041 C149.272902,149.986502 150.628777,148.33251 151.42542,146.383539 C152.211511,144.466173 151.119424,141.985185 149.077698,141.447901 C147.938129,141.073909 146.851319,141.716543 145.817266,142.10107 C145.458513,140.71572 144.635492,139.182881 143.005276,139.161811 C140.013909,138.998519 138.684412,142.216955 137.21247,144.266008 Z M134.268585,148.295638 C135.044125,149.918025 135.78801,151.561481 136.531894,153.204938 C134.711751,152.978436 132.907434,152.672922 131.097842,152.399012 C130.491127,153.125926 129.889688,153.85284 129.282974,154.579753 C131.519904,155.02749 133.767386,155.427819 136.030695,155.733333 C138.705516,155.854486 140.404317,158.182716 142.493525,159.541728 C143.052758,158.751605 143.627818,157.966749 144.192326,157.181893 C142.651799,155.980905 140.884412,155.032757 139.565468,153.573663 C138.241247,151.119012 137.244125,148.495802 135.96211,146.014815 C135.392326,146.773333 134.827818,147.531852 134.268585,148.295638 Z M123.004796,161.964774 C123.025899,162.106996 123.06283,162.396708 123.083933,162.53893 C126.275779,165.657284 129.678657,168.559671 132.954916,171.599012 C134.906954,169.154897 136.869544,166.721317 138.80048,164.261399 C138.141007,163.73465 137.481535,163.213169 136.816787,162.702222 C135.5506,164.271934 134.316067,165.873251 133.081535,167.474568 C132.195204,166.679177 131.271942,165.931193 130.443645,165.07786 C131.498801,163.397531 132.902158,161.980576 134.09976,160.405597 C133.429736,159.89465 132.770264,159.383704 132.110791,158.86749 C130.913189,160.379259 129.647002,161.843621 128.349161,163.271111 C127.721343,162.723292 127.104077,162.186008 126.486811,161.648724 C127.758273,160.200165 129.045564,158.772675 130.322302,157.329383 C129.647002,156.792099 128.971703,156.260082 128.296403,155.733333 C126.592326,157.856132 124.671942,159.81037 123.004796,161.964774 Z M116.594724,169.154897 C119.95012,172.483951 123.226379,175.886749 126.592326,179.210535 C128.227818,177.308971 129.852758,175.391605 131.403837,173.421564 C130.828777,172.900082 130.258993,172.373333 129.69976,171.857119 C128.776499,173.015967 127.847962,174.16428 126.914149,175.31786 C124.102158,172.584033 121.332374,169.818601 118.520384,167.095309 C117.866187,167.774815 117.227818,168.464856 116.594724,169.154897 Z M112.527098,173.721811 C111.915108,174.359177 111.308393,175.001811 110.701679,175.644444 C113.904077,179.215802 117.148681,182.745021 120.382734,186.290041 C122.002398,184.50963 123.600959,182.713416 125.120384,180.853992 C124.598082,180.364115 124.075779,179.879506 123.558753,179.38963 C122.656595,180.464198 121.749161,181.52823 120.847002,182.597531 C118.103597,179.610864 115.344365,176.634733 112.527098,173.721811 Z M106.127578,181.233251 C102.313189,182.365761 100.028777,186.885267 101.416307,190.619918 C102.561151,194.344033 107.003357,196.577449 110.680576,195.265844 C114.447482,194.143868 116.747722,189.719177 115.439329,186.000329 C114.331415,182.202469 109.868106,179.942716 106.127578,181.233251 Z M94.863789,190.830617 C96.3568345,194.586337 98.0978417,198.236708 99.7755396,201.908148 C96.2829736,199.832757 92.7693046,197.799506 89.1923261,195.866337 C88.4273381,196.508971 87.6570743,197.146337 86.8920863,197.783704 C91.6508393,200.317366 96.393765,202.882634 101.178897,205.379424 C101.790887,204.552428 103.352518,203.793909 102.608633,202.571852 C100.72518,198.041811 98.7995204,193.522305 96.9160671,188.992263 C96.2302158,189.603292 95.5443645,190.214321 94.863789,190.830617 Z" id="Shape"></path>
                <path d="M52.3515588,8.14353909 C54.4354916,8.10139918 56.9889688,7.7800823 58.4767386,9.59736626 C59.97506,11.5463374 60.1966427,14.5488066 58.8143885,16.61893 C57.5798561,18.4098765 55.142446,18.1833745 53.2431655,18.4520165 C52.9688249,15.0123457 52.583693,11.5832099 52.3515588,8.14353909 Z" id="Shape"></path>
                <path d="M72.6896882,8.44378601 C73.459952,10.2768724 74.2513189,12.1046914 75.0110312,13.9483128 C73.5232614,13.9746502 72.0407674,14.0062551 70.5582734,14.0378601 C71.2441247,12.1626337 71.9458034,10.2926749 72.6896882,8.44378601 Z" id="Shape"></path>
                <path d="M38.7980815,9.66584362 C39.9640288,9.6237037 41.129976,9.61843621 42.2959233,9.70798354 C42.4172662,10.0609053 42.659952,10.7720165 42.7865707,11.1249383 C42.7021583,11.4304527 42.5438849,12.046749 42.4594724,12.3522634 C41.4254197,12.6472428 40.3755396,12.9000823 39.3309353,13.1371193 C39.1410072,11.9782716 38.9616307,10.8246914 38.7980815,9.66584362 Z" id="Shape"></path>
                <path d="M170.017266,60.7288889 C170.17554,59.2223868 171.003837,57.9529218 172.655156,58.2320988 C172.860911,59.138107 173.035012,60.0493827 173.214388,60.9659259 C172.143405,60.8974486 171.077698,60.8184362 170.017266,60.7288889 Z" id="Shape"></path>
                <path d="M175.245564,61.2293004 C175.477698,59.7544033 175.76259,57.3102881 177.867626,57.7158848 C179.313189,58.384856 178.669544,60.2653498 178.822542,61.5242798 C177.62494,61.44 176.432614,61.3451852 175.245564,61.2293004 Z" id="Shape"></path>
                <path d="M168.540048,72.2541564 C168.872422,71.3112757 169.247002,69.5150617 170.639808,69.9575309 C171.890168,70.2841152 171.531415,71.7168724 171.63693,72.6860905 C170.597602,72.5491358 169.568825,72.4069136 168.540048,72.2541564 Z" id="Shape"></path>
                <path d="M173.673381,73.0232099 C174.105995,71.7695473 174.290647,69.5466667 176.094964,69.7257613 C177.988969,69.8995885 177.282014,72.3437037 177.345324,73.6395062 C176.110791,73.465679 174.886811,73.2602469 173.673381,73.0232099 Z" id="Shape"></path>
                <path d="M149.199041,131.703045 C150.829257,131.84 152.464748,131.98749 154.10024,132.145514 C153.472422,133.278025 152.839329,134.4 152.195683,135.521975 C151.209113,134.236708 150.206715,132.967243 149.199041,131.703045 Z" id="Shape"></path>
                <path d="M140.594245,143.27572 C141.301199,142.633086 142.155875,141.210864 143.253237,142.048395 C144.361151,142.701564 143.464269,144.097449 143.110791,144.971852 C142.261391,144.413498 141.422542,143.849877 140.594245,143.27572 Z" id="Shape"></path>
                <path d="M144.804317,146.093827 C145.722302,145.077202 146.782734,143.291523 148.41295,144.092181 C149.911271,145.182551 148.31271,146.894486 147.769305,148.074403 C146.777458,147.421235 145.785612,146.757531 144.804317,146.093827 Z" id="Shape"></path>
                <path d="M106.676259,183.967078 C110.047482,182.365761 114.141487,186.105679 112.827818,189.598025 C111.994245,192.811193 107.446523,194.022716 105.177938,191.552263 C102.745803,189.424198 103.647962,185.041646 106.676259,183.967078 Z" id="Shape"></path>
            </g>
        </g>
    </g>
</svg>