<?xml version="1.0" encoding="UTF-8"?>
<svg width="256px" height="256px" viewBox="0 0 256 256" version="1.1" xmlns="http://www.w3.org/2000/svg" xmlns:xlink="http://www.w3.org/1999/xlink">
    <!-- Generator: Sketch 51.3 (57544) - http://www.bohemiancoding.com/sketch -->
    <title>logo/vsi</title>
    <desc>Created with Sketch.</desc>
    <defs></defs>
    <g id="logo/vsi" stroke="none" stroke-width="1" fill="none" fill-rule="evenodd">
        <g id="vsi" transform="translate(26.000000, 0.000000)" fill-rule="nonzero">
            <g id="#040707ff" fill="#040707">
                <path d="M75.1189922,1.79677019 C110.652326,-1.71726708 147.425194,1.17664596 180.717829,14.8034783 C188.520543,17.8881988 196.037209,21.656646 203.458527,25.5363975 C203.220155,53.1080745 203.188372,80.6638509 202.886434,108.235528 C201.837597,125.996522 199.072481,143.725714 194.146124,160.834783 C188.806589,179.645217 177.142248,195.991056 163.634496,209.840497 C145.597674,228.189814 124.064729,242.67528 101.753101,255.300373 C79.4732558,242.611677 57.972093,228.062609 39.9988372,209.633789 C26.2050388,195.434534 14.4771318,178.548075 9.36007752,159.197019 C3.81395349,138.446708 0.66744186,116.917267 1.00116279,95.4037267 C0.921705426,72.0934161 0.651550388,48.7990062 0.619767442,25.4886957 C23.6306202,12.9113043 49.0093023,4.56347826 75.1189922,1.79677019 Z M13.9050388,26.7607453 C11.7755814,28.2077019 7.6120155,28.5575155 7.8503876,31.896646 C7.89806202,57.2581366 8.10465116,82.635528 8.31124031,107.997019 C9.43953488,125.328696 12.0616279,142.644472 16.9085271,159.324224 C21.6600775,175.940373 31.7988372,190.425839 43.5108527,202.891925 C60.355814,220.66882 80.6651163,234.724969 101.737209,247.016149 C129.785659,230.622609 157.341473,211.128447 175.600775,183.699876 C185.167442,169.802733 189.378682,153.170683 192.239147,136.761242 C194.241473,124.66087 195.989535,112.449193 195.782946,100.173913 C195.894186,76.7363975 196.068992,53.298882 196.196124,29.8613665 C176.236434,19.4146584 154.481008,12.4024845 132.121705,9.47677019 C92.1705426,4.57937888 50.3282946,8.76124224 13.9050388,26.7607453 Z" id="Shape"></path>
                <path d="M18.9903101,44.3627329 C45.0046512,29.670559 75.0713178,22.8173913 104.883721,23.7396273 C132.789147,23.628323 160.662791,30.7677019 185.056202,44.3309317 C184.913178,66.6713043 184.817829,88.9957764 184.627132,111.320248 C183.816667,126.076025 181.528295,140.8 177.412403,155.015155 C173.089922,170.104845 163.777519,183.238758 152.987209,194.416894 C138.112791,209.66559 120.282558,221.654658 101.816667,232.085466 C83.3348837,221.575155 65.4887597,209.522484 50.6620155,194.162484 C39.5856589,182.618634 30.2096899,168.928199 26.1096899,153.297888 C21.6282946,136.522733 19.053876,119.143354 19.3399225,101.763975 C19.2445736,82.635528 19.1015504,63.4911801 18.9903101,44.3627329 Z M41.5244186,41.5642236 C36.3437984,43.7585093 30.7182171,45.491677 26.4434109,49.3078261 C25.9031008,68.2772671 26.4910853,87.3103106 26.65,106.311553 C34.8341085,102.92472 42.8434109,99.1562733 50.8844961,95.4832298 C88.9604651,77.8653416 127.370155,60.978882 165.239535,42.931677 C153.86124,37.8593789 141.736047,34.6474534 129.436047,32.7393789 C100.036822,28.7642236 69.3027132,30.5132919 41.5244186,41.5642236 Z M128.546124,70.8690683 C135.586047,86.6742857 142.64186,102.463602 149.681783,118.26882 C152.383333,117.076273 155.084884,115.867826 157.786434,114.643478 C150.762403,98.8541615 143.706589,83.0648447 136.682558,67.275528 C133.965116,68.4680745 131.263566,69.6606211 128.546124,70.8690683 Z M93.6166667,85.6884472 C89.3577519,87.5647205 86.5926357,92.875528 88.6585271,97.2959006 C90.8356589,101.89118 91.979845,107.52 96.1116279,110.795528 C102.07093,114.468571 108.22093,109.491677 113.925969,107.758509 C116.722868,112.878509 119.186047,118.221118 120.934109,123.786335 C117.803488,125.376398 114.577519,126.743851 111.224419,127.793292 C110.016667,125.535404 108.840698,123.261615 107.68062,120.971925 C105.042636,122.196273 102.38876,123.38882 99.7507752,124.613168 C101.753101,129.653665 104.518217,136.347826 111.176744,135.552795 C117.008915,133.994534 123.254264,131.84795 127.672093,127.602484 C132.042248,122.450683 127.656202,116.313043 125.606202,111.240745 C123.42907,107.138385 122.427907,101.286957 117.310853,99.8559006 C111.78062,98.0909317 106.965504,102.479503 101.768992,103.576646 C99.1468992,100.523727 97.9391473,96.5962733 96.5089147,92.9073292 C98.8608527,91.5557764 101.276357,90.315528 103.707752,89.0911801 C105.010853,90.4586335 106.298062,91.8578882 107.553488,93.2730435 C110.143798,92.0168944 112.75,90.7925466 115.356202,89.5363975 C113.544574,86.7537888 112.241473,83.096646 108.808915,81.9518012 C103.46938,79.9801242 98.3205426,83.6054658 93.6166667,85.6884472 Z M63.8042636,99.7922981 C66.7918605,112.337888 69.9383721,124.835776 72.8147287,137.413168 C65.3139535,126.918758 58.1627907,116.169938 50.8050388,105.580124 C47.9445736,106.852174 45.0841085,108.124224 42.2395349,109.428075 C52.1875969,123.91354 62.1674419,138.383106 72.1155039,152.868571 C76.0565891,151.135404 79.9976744,149.370435 83.9387597,147.637267 C79.8864341,130.512298 75.7069767,113.41913 71.6228682,96.2941615 C69.0166667,97.4549068 66.4104651,98.6156522 63.8042636,99.7922981 Z M138.144574,134.948571 C107.56938,149.354534 76.7717054,163.283478 46.3395349,177.991553 C60.9914729,197.37441 81.1100775,211.71677 101.880233,223.880745 C125.415504,209.951801 148.712403,193.383354 163.237209,169.659627 C172.581395,153.85441 175.139922,135.17118 176.919767,117.187578 C163.777519,122.62559 151.080233,129.049441 138.144574,134.948571 Z" id="Shape"></path>
            </g>
            <g id="#ffffffff" transform="translate(6.356589, 6.360248)" fill="#FFFFFF">
                <path d="M7.54844961,20.4004969 C43.9717054,2.40099379 85.8139535,-1.78086957 125.765116,3.11652174 C148.124419,6.04223602 169.879845,13.0544099 189.839535,23.501118 C189.712403,46.9386335 189.537597,70.3761491 189.426357,93.8136646 C189.632946,106.088944 187.884884,118.300621 185.882558,130.400994 C183.022093,146.810435 178.810853,163.442484 169.244186,177.339627 C150.984884,204.768199 123.42907,224.26236 95.3806202,240.655901 C74.3085271,228.36472 53.9992248,214.308571 37.1542636,196.531677 C25.4422481,184.06559 15.3034884,169.580124 10.551938,152.963975 C5.70503876,136.284224 3.08294574,118.968447 1.95465116,101.63677 C1.74806202,76.2752795 1.54147287,50.8978882 1.49379845,25.5363975 C1.25542636,22.1972671 5.41899225,21.8474534 7.54844961,20.4004969 Z M12.6337209,38.0024845 C12.7449612,57.1309317 12.8879845,76.2752795 12.9833333,95.4037267 C12.6972868,112.783106 15.2717054,130.162484 19.7531008,146.93764 C23.8531008,162.56795 33.2290698,176.258385 44.3054264,187.802236 C59.1321705,203.162236 76.9782946,215.214907 95.4600775,225.725217 C113.925969,215.29441 131.756202,203.305342 146.63062,188.056646 C157.42093,176.878509 166.733333,163.744596 171.055814,148.654907 C175.171705,134.439752 177.460078,119.715776 178.270543,104.96 C178.46124,82.635528 178.556589,60.3110559 178.699612,37.9706832 C154.306202,24.4074534 126.432558,17.2680745 98.5271318,17.3793789 C68.7147287,16.4571429 38.648062,23.3103106 12.6337209,38.0024845 Z" id="Shape"></path>
                <path d="M37.3449612,44.0447205 C39.7922481,44.3945342 42.5255814,44.2832298 44.4484496,46.1277019 C43.5903101,48.051677 42.5096899,49.8802484 41.4449612,51.7247205 C42.4143411,52.8536646 43.3837209,53.9826087 44.3531008,55.1115528 C41.7945736,54.936646 39.2360465,54.7299379 36.6934109,54.4914286 C38.3302326,52.122236 40.0147287,49.8007453 41.6992248,47.4792547 C40.2213178,46.3503106 38.7751938,45.2054658 37.3449612,44.0447205 Z" id="Shape"></path>
                <path d="M45.4496124,44.5058385 C48.0399225,44.3945342 50.646124,44.3309317 53.2364341,44.3150311 C52.425969,46.8909317 51.4883721,49.4350311 50.344186,51.8837267 C51.25,52.8695652 52.155814,53.8713043 53.029845,54.8889441 C50.5507752,54.8412422 48.055814,54.7776398 45.5608527,54.682236 C47.2771318,52.122236 49.0410853,49.5940373 50.8050388,47.0658385 C49.0251938,46.2231056 47.2294574,45.364472 45.4496124,44.5058385 Z" id="Shape"></path>
                <path d="M64.5670543,45.4439752 C66.1879845,42.9793789 68.6352713,44.235528 70.6534884,45.3962733 C71.7658915,48.4173913 71.0348837,51.661118 70.7488372,54.7617391 C68.5875969,54.7935404 66.4422481,54.809441 64.2968992,54.7935404 C64.1062016,51.7088199 62.9302326,48.3219876 64.5670543,45.4439752 Z M67.046124,47.0658385 C65.5205426,48.0675776 65.6635659,52.0109317 67.9678295,51.5975155 C69.4775194,50.5957764 69.3503876,46.6524224 67.046124,47.0658385 Z" id="Shape"></path>
                <path d="M73.7523256,44.4104348 C75.5003876,44.3150311 77.2643411,44.235528 79.0282946,44.1719255 C79.1236434,47.8608696 79.2984496,51.5498137 79.3937984,55.2387578 C78.1224806,53.4578882 76.9306202,51.661118 75.7228682,49.8484472 C75.6275194,51.5498137 75.4209302,54.9525466 75.3096899,56.653913 C72.5763566,53.0762733 73.7364341,48.5286957 73.7523256,44.4104348 Z" id="Shape"></path>
                <path d="M57.3205426,52.1858385 C59.8949612,51.3431056 60.7848837,52.2176398 59.9585271,54.809441 C57.3682171,55.6362733 56.494186,54.7617391 57.3205426,52.1858385 Z" id="Shape"></path>
                <path d="M122.189535,64.5088199 C124.906977,63.3003727 127.608527,62.1078261 130.325969,60.9152795 C137.35,76.7045963 144.405814,92.493913 151.429845,108.28323 C148.728295,109.507578 146.026744,110.716025 143.325194,111.908571 C136.285271,96.103354 129.229457,80.3140373 122.189535,64.5088199 Z" id="Shape"></path>
                <path d="M87.2600775,79.3281988 C91.9639535,77.2452174 97.1127907,73.6198758 102.452326,75.5915528 C105.884884,76.7363975 107.187984,80.3935404 108.999612,83.1761491 C106.393411,84.4322981 103.787209,85.656646 101.196899,86.912795 C99.9414729,85.4976398 98.6542636,84.0983851 97.3511628,82.7309317 C94.9197674,83.9552795 92.5042636,85.195528 90.1523256,86.5470807 C91.5825581,90.2360248 92.7903101,94.1634783 95.4124031,97.2163975 C100.608915,96.1192547 105.424031,91.7306832 110.954264,93.4956522 C116.071318,94.9267081 117.072481,100.778137 119.249612,104.880497 C121.299612,109.952795 125.685659,116.090435 121.315504,121.242236 C116.897674,125.487702 110.652326,127.634286 104.820155,129.192547 C98.1616279,129.987578 95.3965116,123.293416 93.394186,118.252919 C96.0321705,117.028571 98.6860465,115.836025 101.324031,114.611677 C102.484109,116.901366 103.660078,119.175155 104.867829,121.433043 C108.22093,120.383602 111.446899,119.016149 114.577519,117.426087 C112.829457,111.86087 110.366279,106.518261 107.56938,101.398261 C101.864341,103.131429 95.7143411,108.108323 89.7550388,104.43528 C85.6232558,101.159752 84.4790698,95.5309317 82.301938,90.9356522 C80.2360465,86.5152795 83.0011628,81.204472 87.2600775,79.3281988 Z" id="Shape"></path>
                <path d="M57.4476744,93.4320497 C60.053876,92.2554037 62.6600775,91.0946584 65.2662791,89.933913 C69.3503876,107.058882 73.529845,124.15205 77.5821705,141.277019 C73.6410853,143.010186 69.7,144.775155 65.7589147,146.508323 C55.8108527,132.022857 45.8310078,117.553292 35.8829457,103.067826 C38.7275194,101.763975 41.5879845,100.491925 44.4484496,99.2198758 C51.8062016,109.809689 58.9573643,120.558509 66.4581395,131.052919 C63.5817829,118.475528 60.4352713,105.97764 57.4476744,93.4320497 Z" id="Shape"></path>
                <path d="M90.5655039,156.780124 C92.551938,156.287205 94.5383721,155.810186 96.5248062,155.364969 C96.620155,161.295901 96.5883721,167.226832 96.6042636,173.173665 C95.5554264,173.205466 93.4418605,173.30087 92.3930233,173.332671 C92.3930233,167.767453 92.3612403,162.122733 90.5655039,156.780124 Z" id="Shape"></path>
                <path d="M100.354651,155.937391 C103.660078,155.492174 107.013178,155.555776 110.318605,156.000994 C110.922481,161.613913 110.906589,167.258634 110.318605,172.871553 C107.25155,173.125963 104.184496,173.253168 101.10155,173.30087 C100.640698,171.981118 99.7348837,169.357516 99.2899225,168.037764 C102.166279,168.530683 105.042636,169.071304 107.950775,169.405217 C105.360465,167.751553 102.515891,166.559006 99.9732558,164.841739 C99.4488372,161.884224 99.9732558,158.879006 100.354651,155.937391 Z M103.866667,159.403727 C101.594186,160.930186 103.993798,165.159752 106.345736,163.33118 C108.411628,161.757019 106.298062,157.416149 103.866667,159.403727 Z" id="Shape"></path>
                <path d="M111.510465,156.93913 C115.975969,155.746584 120.616279,155.619379 125.208915,155.603478 C123.476744,161.645714 120.727519,167.322236 118.820543,173.30087 C117.70814,173.237267 115.467442,173.125963 114.355039,173.06236 C115.737597,168.721491 117.247287,164.428323 119.043023,160.24646 C116.500388,159.212919 113.973643,158.131677 111.510465,156.93913 Z" id="Shape"></path>
                <path d="M128.29186,155.428571 C131.454264,155.492174 134.616667,155.682981 137.763178,156.064596 C138.00155,158.545093 138.351163,161.041491 138.160465,163.537888 C136.428295,165.859379 134.092248,167.624348 131.994574,169.580124 C134.076357,169.500621 136.174031,169.437019 138.255814,169.389317 C138.271705,170.359255 138.31938,172.29913 138.351163,173.269068 C134.410078,173.237267 130.468992,173.189565 126.527907,173.014658 C126.686822,166.972422 132.503101,164.189814 134.998062,159.260621 C132.232946,159.976149 129.515504,160.834783 126.782171,161.645714 C127.163566,160.087453 127.910465,156.986832 128.29186,155.428571 Z" id="Shape"></path>
            </g>
            <g id="#0073a8ff" transform="translate(25.426357, 30.211180)" fill="#0073A8">
                <path d="M16.098062,11.3530435 C43.8763566,0.302111801 74.6104651,-1.44695652 104.00969,2.52819876 C116.30969,4.43627329 128.434884,7.64819876 139.813178,12.7204969 C101.943798,30.7677019 63.5341085,47.6541615 25.4581395,65.2720497 C17.4170543,68.9450932 9.40775194,72.7135404 1.22364341,76.1003727 C1.06472868,57.0991304 0.476744186,38.066087 1.01705426,19.096646 C5.29186047,15.2804969 10.9174419,13.5473292 16.098062,11.3530435 Z M18.2751938,20.1937888 C19.7054264,21.3545342 21.1515504,22.4993789 22.6294574,23.628323 C20.9449612,25.9498137 19.2604651,28.2713043 17.6236434,30.6404969 C20.1662791,30.8790062 22.7248062,31.0857143 25.2833333,31.2606211 C24.3139535,30.131677 23.3445736,29.0027329 22.3751938,27.8737888 C23.4399225,26.0293168 24.5205426,24.2007453 25.3786822,22.2767702 C23.455814,20.4322981 20.7224806,20.5436025 18.2751938,20.1937888 Z M26.379845,20.6549068 C28.1596899,21.5135404 29.9554264,22.3721739 31.7352713,23.2149068 C29.9713178,25.7431056 28.2073643,28.2713043 26.4910853,30.8313043 C28.9860465,30.9267081 31.4810078,30.9903106 33.9600775,31.0380124 C33.0860465,30.0203727 32.1802326,29.0186335 31.2744186,28.032795 C32.4186047,25.5840994 33.3562016,23.04 34.1666667,20.4640994 C31.5763566,20.48 28.970155,20.5436025 26.379845,20.6549068 Z M45.4972868,21.5930435 C43.8604651,24.4710559 45.0364341,27.8578882 45.2271318,30.9426087 C47.3724806,30.9585093 49.5178295,30.9426087 51.6790698,30.9108075 C51.9651163,27.8101863 52.696124,24.5664596 51.5837209,21.5453416 C49.5655039,20.3845963 47.1182171,19.1284472 45.4972868,21.5930435 Z M54.6825581,20.5595031 C54.6666667,24.677764 53.5065891,29.2253416 56.2399225,32.8029814 C56.3511628,31.1016149 56.5577519,27.698882 56.6531008,25.9975155 C57.8608527,27.8101863 59.0527132,29.6069565 60.324031,31.3878261 C60.2286822,27.698882 60.053876,24.0099379 59.9585271,20.3209938 C58.1945736,20.3845963 56.4306202,20.4640994 54.6825581,20.5595031 Z M38.2507752,28.3349068 C37.4244186,30.9108075 38.2984496,31.7853416 40.8887597,30.9585093 C41.7151163,28.3667081 40.8251938,27.4921739 38.2507752,28.3349068 Z" id="Shape"></path>
                <path d="M47.9763566,23.2149068 C50.2806202,22.8014907 50.4077519,26.7448447 48.898062,27.7465839 C46.5937984,28.16 46.4507752,24.216646 47.9763566,23.2149068 Z" id="Shape"></path>
            </g>
            <g id="#158e44ff" transform="translate(46.085271, 116.074534)" fill="#158E44">
                <path d="M92.0593023,18.8740373 C104.994961,12.9749068 117.692248,6.5510559 130.834496,1.11304348 C129.054651,19.096646 126.496124,37.7798758 117.151938,53.5850932 C102.627132,77.3088199 79.3302326,93.8772671 55.7949612,107.806211 C35.0248062,95.642236 14.9062016,81.2998758 0.254263566,61.9170186 C30.6864341,47.2089441 61.4841085,33.28 92.0593023,18.8740373 Z M50.8368217,47.0658385 C52.6325581,52.4084472 52.6643411,58.0531677 52.6643411,63.6183851 C53.7131783,63.5865839 55.8267442,63.4911801 56.8755814,63.4593789 C56.8596899,57.5125466 56.8914729,51.5816149 56.796124,45.6506832 C54.8096899,46.0959006 52.8232558,46.5729193 50.8368217,47.0658385 Z M60.625969,46.2231056 C60.2445736,49.1647205 59.720155,52.1699379 60.2445736,55.1274534 C62.7872093,56.8447205 65.6317829,58.0372671 68.222093,59.6909317 C65.3139535,59.3570186 62.4375969,58.8163975 59.5612403,58.3234783 C60.0062016,59.6432298 60.9120155,62.2668323 61.3728682,63.5865839 C64.455814,63.538882 67.5228682,63.411677 70.5899225,63.1572671 C71.177907,57.5443478 71.1937984,51.8996273 70.5899225,46.2867081 C67.2844961,45.8414907 63.9313953,45.7778882 60.625969,46.2231056 Z M71.7817829,47.2248447 C74.2449612,48.4173913 76.7717054,49.4986335 79.3143411,50.5321739 C77.5186047,54.7140373 76.0089147,59.007205 74.6263566,63.3480745 C75.7387597,63.411677 77.9794574,63.5229814 79.0918605,63.5865839 C80.9988372,57.6079503 83.748062,51.9314286 85.4802326,45.8891925 C80.8875969,45.9050932 76.2472868,46.0322981 71.7817829,47.2248447 Z M88.5631783,45.7142857 C88.1817829,47.2725466 87.4348837,50.3731677 87.0534884,51.9314286 C89.7868217,51.1204969 92.5042636,50.2618634 95.2693798,49.5463354 C92.7744186,54.475528 86.9581395,57.2581366 86.7992248,63.3003727 C90.7403101,63.4752795 94.6813953,63.5229814 98.6224806,63.5547826 C98.5906977,62.5848447 98.5430233,60.6449689 98.5271318,59.6750311 C96.4453488,59.7227329 94.3476744,59.7863354 92.2658915,59.8658385 C94.3635659,57.9100621 96.6996124,56.1450932 98.4317829,53.8236025 C98.6224806,51.327205 98.2728682,48.8308075 98.0344961,46.3503106 C94.8879845,45.9686957 91.7255814,45.7778882 88.5631783,45.7142857 Z" id="Shape"></path>
                <path d="M64.1379845,49.689441 C66.5693798,47.7018634 68.6829457,52.0427329 66.6170543,53.6168944 C64.2651163,55.4454658 61.8655039,51.2159006 64.1379845,49.689441 Z" id="Shape"></path>
            </g>
        </g>
    </g>
</svg>